<svg width="50" height="50" viewBox="0 0 50 50" fill="none" xmlns="http://www.w3.org/2000/svg">
<path d="M41.8531 41.8532V35.1119H35.1118L41.8531 41.8532Z" fill="#081219"/>
<path d="M35.1119 41.8532V35.1119H28.3706L35.1119 41.8532Z" fill="#081219"/>
<path d="M28.3707 41.8532V35.1119H21.6294L28.3707 41.8532Z" fill="#081219"/>
<path d="M41.8531 35.1119V28.3706H35.1118L41.8531 35.1119Z" fill="#081219"/>
<path d="M28.3706 28.3706L35.1119 35.1119V28.3706H28.3706Z" fill="#081219"/>
<path d="M21.6294 28.3706L28.3707 35.1119V28.3706H21.6294Z" fill="#081219"/>
<path d="M41.8531 28.3707V21.6294H35.1118L41.8531 28.3707Z" fill="#081219"/>
<path d="M35.1119 28.3707V21.6294H28.3706L35.1119 28.3707Z" fill="#081219"/>
<path d="M21.6294 21.6294L28.3707 28.3707V21.6294H21.6294Z" fill="#081219"/>
<path d="M21.6295 41.8532V35.1119H14.8882L21.6295 41.8532Z" fill="#081219"/>
<path d="M14.8882 28.3706L21.6295 35.1119V28.3706H14.8882Z" fill="#081219"/>
<path d="M21.6295 21.6294H14.8882L21.6295 28.3707V21.6294Z" fill="#081219"/>
<path d="M41.8531 21.6293V14.8881H35.1118L41.8531 21.6293Z" fill="#081219"/>
<path d="M35.1119 21.6293V14.8881H28.3706L35.1119 21.6293Z" fill="#081219"/>
<path d="M28.3707 14.8881H21.6294L28.3707 21.6293V14.8881Z" fill="#081219"/>
<path d="M21.6295 14.8881H14.8882L21.6295 21.6293V14.8881Z" fill="#081219"/>
<path d="M14.888 41.8532V35.1119H8.14673L14.888 41.8532Z" fill="#081219"/>
<path d="M8.14673 28.3706L14.888 35.1119V28.3706H8.14673Z" fill="#081219"/>
<path d="M8.14673 21.6294L14.888 28.3707V21.6294H8.14673Z" fill="#081219"/>
<path d="M8.14673 14.8881L14.888 21.6293V14.8881H8.14673Z" fill="#081219"/>
<path d="M35.1118 8.14685L41.8531 14.8881V8.14685H35.1118Z" fill="#081219"/>
<path d="M35.1119 8.14685H28.3706L35.1119 14.8881V8.14685Z" fill="#081219"/>
<path d="M28.3707 8.14685H21.6294L28.3707 14.8881V8.14685Z" fill="#081219"/>
<path d="M21.6295 8.14685H14.8882L21.6295 14.8881V8.14685Z" fill="#081219"/>
<path d="M8.14673 8.14685L14.888 14.8881V8.14685H8.14673Z" fill="#081219"/>
</svg>
