<svg width="50" height="50" viewBox="0 0 50 50" fill="none" xmlns="http://www.w3.org/2000/svg">
<path d="M43.0814 25C43.0814 22.7805 41.8885 20.8416 40.1001 19.7277C41.8885 18.6137 43.0814 16.6747 43.0814 14.4552C43.0814 10.9931 40.1969 8.18652 36.6387 8.18652C34.0577 8.18652 31.8478 9.6728 30.8194 11.8052C29.791 9.6728 27.581 8.18652 25 8.18652C22.419 8.18652 20.2091 9.6728 19.1806 11.8052C18.1522 9.6728 15.9423 8.18652 13.3613 8.18652C9.80304 8.18652 6.91858 10.9931 6.91858 14.4552C6.91858 16.6747 8.11139 18.6137 9.8999 19.7277C8.1115 20.8416 6.91858 22.7805 6.91858 25C6.91858 27.2196 8.11139 29.1584 9.8999 30.2724C8.1115 31.3864 6.91858 33.3253 6.91858 35.5448C6.91858 39.0069 9.80304 41.8135 13.3613 41.8135C15.9423 41.8135 18.1522 40.3272 19.1806 38.1949C20.209 40.3271 22.419 41.8135 25 41.8135C27.581 41.8135 29.7909 40.3272 30.8194 38.1949C31.8477 40.3271 34.0576 41.8135 36.6387 41.8135C40.197 41.8135 43.0814 39.0069 43.0814 35.5448C43.0814 33.3254 41.8885 31.3864 40.1001 30.2724C41.8885 29.1584 43.0814 27.2196 43.0814 25ZM30.8194 17.1053C31.3389 18.1825 32.1549 19.0909 33.1772 19.7277C32.1549 20.3644 31.3389 21.2729 30.8194 22.35C30.2999 21.2729 29.4838 20.3644 28.4615 19.7277C29.4838 19.0909 30.2998 18.1825 30.8194 17.1053ZM19.1806 17.1053C19.7001 18.1825 20.5162 19.0909 21.5385 19.7277C20.5162 20.3644 19.7001 21.2729 19.1806 22.35C18.6611 21.2729 17.8451 20.3644 16.8228 19.7277C17.8451 19.0909 18.6611 18.1825 19.1806 17.1053ZM19.1806 32.8947C18.6611 31.8175 17.8451 30.9091 16.8228 30.2724C17.8451 29.6356 18.6611 28.7274 19.1806 27.6501C19.7001 28.7273 20.5162 29.6355 21.5385 30.2724C20.5162 30.9091 19.7001 31.8175 19.1806 32.8947ZM30.8194 32.8947C30.2999 31.8175 29.4838 30.9091 28.4615 30.2724C29.4838 29.6356 30.2998 28.7274 30.8194 27.6501C31.3389 28.7273 32.1549 29.6355 33.1772 30.2724C32.1549 30.9091 31.3389 31.8175 30.8194 32.8947Z" fill="#081219"/>
</svg>
