<svg width="50" height="50" viewBox="0 0 50 50" fill="none" xmlns="http://www.w3.org/2000/svg">
<path d="M40.7064 28.4211L36.0194 26.8421C36.1191 26.2106 36.2189 25.579 36.2189 24.9474C36.2189 24.3158 36.1191 23.6843 36.0194 23.0527L40.7064 21.4737C41.6039 21.1579 42.1025 20.1053 41.8034 19.1579C41.5042 18.2106 40.507 17.6843 39.6094 18L34.9225 19.579C34.4239 18.4211 33.7258 17.4737 32.8283 16.5264L35.7203 12.3158C36.3186 11.4737 36.1191 10.3158 35.3214 9.68426C34.5236 9.05268 33.4266 9.2632 32.8283 10.1053L29.9363 14.3158C28.9391 13.7895 27.7424 13.3685 26.5457 13.1579V8.10531C26.5457 7.05268 25.7479 6.21057 24.7507 6.21057C23.7535 6.21057 22.9557 7.05268 22.9557 8.10531V13.2632C22.0582 13.4737 20.9612 13.8948 19.8643 14.4211L16.9723 10.2106C16.374 9.36847 15.277 9.15794 14.4792 9.78952C13.6815 10.4211 13.482 11.579 14.0804 12.4211L16.9723 16.6316C16.1745 17.4737 15.4765 18.5264 14.8781 19.6843L10.1912 18.1053C9.29365 17.7895 8.29642 18.3158 7.99725 19.2632C7.69808 20.2106 8.1967 21.2632 9.09421 21.579L13.7812 23.1579C13.6815 23.7895 13.5817 24.4211 13.5817 25.0527C13.5817 25.6843 13.6815 26.3158 13.7812 26.9474L9.09421 28.5264C8.1967 28.8421 7.69808 29.8948 7.99725 30.8422C8.29642 31.7895 9.29365 32.3158 10.1912 32L14.9779 30.4211C15.4765 31.579 16.1745 32.5264 17.072 33.4737L14.1801 37.6843C13.5817 38.5264 13.7812 39.6843 14.579 40.3158C15.3768 40.9474 16.4737 40.7369 17.072 39.8948L19.964 35.6843C20.9612 36.2106 22.1579 36.6316 23.3546 36.8421V42C23.3546 43.0527 24.1524 43.8948 25.1496 43.8948C26.1468 43.8948 26.9446 43.0527 26.9446 42V36.8421C28.1413 36.6316 29.2383 36.2106 30.3352 35.6843L33.2272 39.8948C33.8255 40.7369 34.9225 40.9474 35.7203 40.3158C36.518 39.6843 36.7175 38.5264 36.1191 37.6843L32.928 33.3685C33.7258 32.5264 34.4239 31.4737 35.0222 30.3158L39.7092 31.8948C40.6067 32.2106 41.6039 31.6843 41.9031 30.7369C42.2022 29.7895 41.7036 28.7369 40.7064 28.4211ZM24.9502 33.0527C20.7618 33.0527 17.3712 29.4737 17.3712 25.0527C17.3712 20.6316 20.7618 17.0527 24.9502 17.0527C29.1385 17.0527 32.5291 20.6316 32.5291 25.0527C32.5291 29.4737 29.2383 33.0527 24.9502 33.0527Z" fill="#081219"/>
</svg>
