<svg width="50" height="50" viewBox="0 0 50 50" fill="none" xmlns="http://www.w3.org/2000/svg">
<path d="M15.0551 19.232C18.0747 18.5192 19.9447 15.4935 19.2319 12.4739C18.519 9.45438 15.4933 7.58439 12.4738 8.29721C9.45419 9.01003 7.5842 12.0357 8.29703 15.0553C9.00985 18.0749 12.0356 19.9449 15.0551 19.232Z" fill="#081219"/>
<path d="M28.9726 17.737C31.1664 15.5431 31.1664 11.9862 28.9726 9.79227C26.7787 7.59838 23.2217 7.59838 21.0278 9.79227C18.8339 11.9862 18.8339 15.5431 21.0278 17.737C23.2217 19.9309 26.7787 19.9309 28.9726 17.737Z" fill="#081219"/>
<path d="M15.0551 30.4674C18.0747 29.7546 19.9447 26.7289 19.2319 23.7093C18.519 20.6897 15.4933 18.8197 12.4738 19.5326C9.45419 20.2454 7.5842 23.2711 8.29703 26.2907C9.00985 29.3102 12.0356 31.1802 15.0551 30.4674Z" fill="#081219"/>
<path d="M28.9724 28.9723C31.1662 26.7785 31.1662 23.2215 28.9724 21.0277C26.7785 18.8338 23.2216 18.8338 21.0277 21.0277C18.8339 23.2215 18.8339 26.7785 21.0277 28.9723C23.2216 31.1662 26.7785 31.1662 28.9724 28.9723Z" fill="#081219"/>
<path d="M40.2079 17.737C42.4018 15.5431 42.4018 11.9862 40.2079 9.79227C38.014 7.59838 34.457 7.59838 32.2632 9.79227C30.0693 11.9862 30.0693 15.5431 32.2632 17.737C34.457 19.9309 38.014 19.9309 40.2079 17.737Z" fill="#081219"/>
<path d="M37.5261 30.4674C40.5456 29.7546 42.4156 26.7289 41.7028 23.7093C40.99 20.6897 37.9643 18.8197 34.9447 19.5326C31.9251 20.2454 30.0552 23.2711 30.768 26.2907C31.4808 29.3102 34.5065 31.1802 37.5261 30.4674Z" fill="#081219"/>
<path d="M17.7368 40.2078C19.9306 38.0139 19.9306 34.457 17.7368 32.2632C15.5429 30.0693 11.986 30.0693 9.79214 32.2632C7.59829 34.457 7.59829 38.0139 9.79214 40.2078C11.986 42.4016 15.5429 42.4016 17.7368 40.2078Z" fill="#081219"/>
<path d="M28.9724 40.2078C31.1662 38.0139 31.1662 34.457 28.9724 32.2632C26.7785 30.0693 23.2216 30.0693 21.0277 32.2632C18.8339 34.457 18.8339 38.0139 21.0277 40.2078C23.2216 42.4016 26.7785 42.4016 28.9724 40.2078Z" fill="#081219"/>
<path d="M37.5261 41.703C40.5457 40.9902 42.4156 37.9644 41.7028 34.9449C40.99 31.9253 37.9643 30.0553 34.9447 30.7681C31.9251 31.481 30.0552 34.5067 30.768 37.5263C31.4808 40.5458 34.5065 42.4158 37.5261 41.703Z" fill="#081219"/>
</svg>
