<svg width="50" height="50" viewBox="0 0 50 50" fill="none" xmlns="http://www.w3.org/2000/svg">
<path d="M11.6246 9.79224H8.8573V12.4848H11.6246V9.79224Z" fill="#081219"/>
<path d="M21.464 9.79224H18.6967V12.4848H21.464V9.79224Z" fill="#081219"/>
<path d="M31.3033 9.79224H28.536V12.4848H31.3033V9.79224Z" fill="#081219"/>
<path d="M41.2451 9.79224H38.4778V12.4848H41.2451V9.79224Z" fill="#081219"/>
<path d="M11.6246 19.0665H8.8573V21.759H11.6246V19.0665Z" fill="#081219"/>
<path d="M21.464 19.0665H18.6967V21.759H21.464V19.0665Z" fill="#081219"/>
<path d="M31.3033 19.0665H28.536V21.759H31.3033V19.0665Z" fill="#081219"/>
<path d="M41.2451 19.0665H38.4778V21.759H41.2451V19.0665Z" fill="#081219"/>
<path d="M11.6246 28.241H8.8573V30.9335H11.6246V28.241Z" fill="#081219"/>
<path d="M21.464 28.241H18.6967V30.9335H21.464V28.241Z" fill="#081219"/>
<path d="M31.3033 28.241H28.536V30.9335H31.3033V28.241Z" fill="#081219"/>
<path d="M41.2451 28.241H38.4778V30.9335H41.2451V28.241Z" fill="#081219"/>
<path d="M11.6246 37.5153H8.8573V40.2078H11.6246V37.5153Z" fill="#081219"/>
<path d="M21.464 37.5153H18.6967V40.2078H21.464V37.5153Z" fill="#081219"/>
<path d="M31.3033 37.5153H28.536V40.2078H31.3033V37.5153Z" fill="#081219"/>
<path d="M41.2451 37.5153H38.4778V40.2078H41.2451V37.5153Z" fill="#081219"/>
</svg>
