<svg width="50" height="50" viewBox="0 0 50 50" fill="none" xmlns="http://www.w3.org/2000/svg">
<path d="M9.47241 27.2632C9.47241 22.6316 11.0098 18.3158 13.9821 14.7368C17.2619 10.7368 21.7716 8.31579 26.8962 7.89473C31.9184 7.47368 36.8381 9.05263 40.7328 12.421L35.6081 18.7368C33.3533 16.8421 30.586 15.8947 27.6137 16.1053C24.6414 16.3158 22.0791 17.7895 20.2342 20C18.3893 22.3158 17.4669 25.1579 17.6719 28.2105C17.8768 31.1579 19.3117 33.8947 21.4641 35.7895L16.3394 42.1053C12.4447 38.7368 10.0874 34.1053 9.6774 28.8421C9.47241 28.3158 9.47241 27.7895 9.47241 27.2632Z" fill="#081219"/>
</svg>
