<svg width="50" height="50" viewBox="0 0 50 50" fill="none" xmlns="http://www.w3.org/2000/svg">
<path d="M16.2741 16.2742C21.0932 16.2742 24.9999 12.3676 24.9999 7.54846H7.54846C7.54846 12.3676 11.4551 16.2742 16.2741 16.2742Z" fill="#081219"/>
<path d="M42.4514 7.54846H24.9999C24.9999 12.3676 28.9065 16.2742 33.7257 16.2742C38.545 16.2742 42.4514 12.3676 42.4514 7.54846Z" fill="#081219"/>
<path d="M16.2747 33.7258C21.0936 33.7254 25 29.819 25 25.0001C25 20.1811 21.0933 16.2743 16.2742 16.2743C11.4551 16.2743 7.54846 20.181 7.54846 25.0001C7.54846 29.8191 11.4548 33.7254 16.2736 33.7257C11.4547 33.7261 7.54846 37.6326 7.54846 42.4515H24.9999C24.9999 37.6327 21.0935 33.7261 16.2747 33.7258Z" fill="#081219"/>
<path d="M33.7263 33.7257C38.5453 33.7253 42.4515 29.8189 42.4515 25.0001C42.4515 20.1812 38.5449 16.2743 33.7257 16.2743C28.9066 16.2743 25 20.1809 25 25.0001C25 29.8192 28.9062 33.7254 33.7251 33.7257C28.9061 33.7261 24.9999 37.6326 24.9999 42.4515H42.4514C42.4514 37.6326 38.5452 33.7261 33.7263 33.7257Z" fill="#081219"/>
</svg>
