<svg width="50" height="50" viewBox="0 0 50 50" fill="none" xmlns="http://www.w3.org/2000/svg">
<path d="M38.8878 8.09692C36.9404 8.09692 35.403 9.59277 35.403 11.4875C35.403 9.59277 33.8656 8.09692 31.9183 8.09692C29.9709 8.09692 28.4335 9.59277 28.4335 11.4875C28.4335 9.59277 26.8961 8.09692 24.9487 8.09692C23.0014 8.09692 21.464 9.59277 21.464 11.4875C21.464 9.59277 19.9266 8.09692 17.9792 8.09692C16.0318 8.09692 14.4944 9.59277 14.4944 11.4875C14.4944 9.59277 12.957 8.09692 11.0097 8.09692C9.0623 8.09692 7.5249 9.59277 7.5249 11.4875V38.4127C7.5249 40.3075 9.0623 41.8033 11.0097 41.8033C12.957 41.8033 14.4944 40.3075 14.4944 38.4127C14.4944 40.3075 16.0318 41.8033 17.9792 41.8033C19.9266 41.8033 21.464 40.3075 21.464 38.4127C21.464 40.3075 23.0014 41.8033 24.9487 41.8033C26.8961 41.8033 28.4335 40.3075 28.4335 38.4127C28.4335 40.3075 29.9709 41.8033 31.9183 41.8033C33.8656 41.8033 35.403 40.3075 35.403 38.4127C35.403 40.3075 36.9404 41.8033 38.8878 41.8033C40.8352 41.8033 42.3726 40.3075 42.3726 38.4127V11.4875C42.3726 9.59277 40.8352 8.09692 38.8878 8.09692Z" fill="#081219"/>
</svg>
