<svg width="50" height="50" viewBox="0 0 50 50" fill="none" xmlns="http://www.w3.org/2000/svg">
<path d="M13.2826 11.2881V9.59277H11.9862V11.2881H10.2909V12.5845H11.9862V14.2798H13.2826V12.5845H14.9779V11.2881H13.2826Z" fill="#081219"/>
<path d="M13.2826 18.2687H11.9862V19.964H10.2909V21.2604H11.9862V22.9557H13.2826V21.2604H14.9779V19.964H13.2826V18.2687Z" fill="#081219"/>
<path d="M13.2826 27.0443H11.9862V28.7396H10.2909V30.036H11.9862V31.7313H13.2826V30.036H14.9779V28.7396H13.2826V27.0443Z" fill="#081219"/>
<path d="M13.2826 35.7202H11.9862V37.4155H10.2909V38.7119H11.9862V40.4072H13.2826V38.7119H14.9779V37.4155H13.2826V35.7202Z" fill="#081219"/>
<path d="M21.5596 11.2881V9.59277H20.2632V11.2881H18.5679V12.5845H20.2632V14.2798H21.5596V12.5845H23.2549V11.2881H21.5596Z" fill="#081219"/>
<path d="M21.5596 18.2687H20.2632V19.964H18.5679V21.2604H20.2632V22.9557H21.5596V21.2604H23.2549V19.964H21.5596V18.2687Z" fill="#081219"/>
<path d="M21.5596 27.0443H20.2632V28.7396H18.5679V30.036H20.2632V31.7313H21.5596V30.036H23.2549V28.7396H21.5596V27.0443Z" fill="#081219"/>
<path d="M21.5596 35.7202H20.2632V37.4155H18.5679V38.7119H20.2632V40.4072H21.5596V38.7119H23.2549V37.4155H21.5596V35.7202Z" fill="#081219"/>
<path d="M29.7368 11.2881V9.59277H28.4404V11.2881H26.7451V12.5845H28.4404V14.2798H29.7368V12.5845H31.4321V11.2881H29.7368Z" fill="#081219"/>
<path d="M29.7368 18.2687H28.4404V19.964H26.7451V21.2604H28.4404V22.9557H29.7368V21.2604H31.4321V19.964H29.7368V18.2687Z" fill="#081219"/>
<path d="M29.7368 27.0443H28.4404V28.7396H26.7451V30.036H28.4404V31.7313H29.7368V30.036H31.4321V28.7396H29.7368V27.0443Z" fill="#081219"/>
<path d="M29.7368 35.7202H28.4404V37.4155H26.7451V38.7119H28.4404V40.4072H29.7368V38.7119H31.4321V37.4155H29.7368V35.7202Z" fill="#081219"/>
<path d="M38.0139 11.2881V9.59277H36.7175V11.2881H35.0222V12.5845H36.7175V14.2798H38.0139V12.5845H39.7092V11.2881H38.0139Z" fill="#081219"/>
<path d="M38.0139 18.2687H36.7175V19.964H35.0222V21.2604H36.7175V22.9557H38.0139V21.2604H39.7092V19.964H38.0139V18.2687Z" fill="#081219"/>
<path d="M38.0139 27.0443H36.7175V28.7396H35.0222V30.036H36.7175V31.7313H38.0139V30.036H39.7092V28.7396H38.0139V27.0443Z" fill="#081219"/>
<path d="M38.0139 35.7202H36.7175V37.4155H35.0222V38.7119H36.7175V40.4072H38.0139V38.7119H39.7092V37.4155H38.0139V35.7202Z" fill="#081219"/>
</svg>
