<svg width="50" height="50" viewBox="0 0 50 50" fill="none" xmlns="http://www.w3.org/2000/svg">
<path d="M34.3495 15.6371C34.3541 15.641 34.359 15.6459 34.3629 15.6506V34.3496C34.359 34.3542 34.3542 34.3591 34.3495 34.3629H15.6506C15.6459 34.359 15.641 34.3542 15.6371 34.3495V15.6506C15.641 15.646 15.6459 15.641 15.6506 15.6372L34.3495 15.6371ZM34.3629 8.14685H15.6371C11.5175 8.14685 8.14685 11.5175 8.14685 15.6371V34.3629C8.14685 38.4826 11.5175 41.8532 15.6371 41.8532H34.3629C38.4826 41.8532 41.8532 38.4826 41.8532 34.3629V15.6371C41.8532 11.5175 38.4826 8.14685 34.3629 8.14685Z" fill="#081219"/>
</svg>
