<svg width="50" height="50" viewBox="0 0 50 50" fill="none" xmlns="http://www.w3.org/2000/svg">
<path fill-rule="evenodd" clip-rule="evenodd" d="M35.0527 26.0471C35.8948 25.0499 36.4211 23.8532 36.4211 22.4571C36.4211 19.266 33.6842 16.5734 30.2106 16.5734H28C30.6316 16.5734 32.8421 14.4793 32.8421 11.9862C32.8421 9.49311 30.6316 7.39893 28 7.39893C26.9474 7.39893 25.8948 7.79782 25.0527 8.39616C24.2106 7.79782 23.2632 7.39893 22.1053 7.39893C19.4737 7.39893 17.2632 9.49311 17.2632 11.9862C17.2632 14.4793 19.4737 16.5734 22.1053 16.5734H19.8948C16.5263 16.5734 13.6842 19.1662 13.6842 22.4571C13.6842 23.8532 14.2105 25.0499 15.0527 26.0471C11.0527 26.8449 8.10529 30.2355 8.10529 34.2244C8.10529 38.8117 12.1053 42.6011 16.9474 42.6011H23.1579H26.9474H33.1579C38 42.6011 42 38.8117 42 34.2244C41.8948 30.2355 38.9474 26.8449 35.0527 26.0471Z" fill="#081219"/>
</svg>
