<svg width="50" height="50" viewBox="0 0 50 50" fill="none" xmlns="http://www.w3.org/2000/svg">
<path d="M9.36982 7.29919H6.8075V9.79227H9.36982V7.29919Z" fill="#081219"/>
<path d="M43.295 7.29919H40.7327V9.79227H43.295V7.29919Z" fill="#081219"/>
<path d="M9.36982 23.7534H6.8075V26.2465H9.36982V23.7534Z" fill="#081219"/>
<path d="M9.36982 32.0305H6.8075V34.5236H9.36982V32.0305Z" fill="#081219"/>
<path d="M17.7742 7.29919H15.2119V9.79227H17.7742V7.29919Z" fill="#081219"/>
<path d="M17.7742 23.7534H15.2119V26.2465H17.7742V23.7534Z" fill="#081219"/>
<path d="M17.7742 32.0305H15.2119V34.5236H17.7742V32.0305Z" fill="#081219"/>
<path d="M26.2812 7.29919H23.7189V9.79227H26.2812V7.29919Z" fill="#081219"/>
<path d="M26.2812 23.7534H23.7189V26.2465H26.2812V23.7534Z" fill="#081219"/>
<path d="M26.2812 32.0305H23.7189V34.5236H26.2812V32.0305Z" fill="#081219"/>
<path d="M34.788 7.29919H32.2257V9.79227H34.788V7.29919Z" fill="#081219"/>
<path d="M9.36982 40.3075H6.8075V42.8006H9.36982V40.3075Z" fill="#081219"/>
<path d="M43.295 40.3075H40.7327V42.8006H43.295V40.3075Z" fill="#081219"/>
<path d="M17.7742 40.3075H15.2119V42.8006H17.7742V40.3075Z" fill="#081219"/>
<path d="M26.2812 40.3075H23.7189V42.8006H26.2812V40.3075Z" fill="#081219"/>
<path d="M34.788 40.3075H32.2257V42.8006H34.788V40.3075Z" fill="#081219"/>
<path d="M34.788 23.7534H32.2257V26.2465H34.788V23.7534Z" fill="#081219"/>
<path d="M34.788 32.0305H32.2257V34.5236H34.788V32.0305Z" fill="#081219"/>
<path d="M9.36982 15.4764H6.8075V17.9695H9.36982V15.4764Z" fill="#081219"/>
<path d="M43.295 23.7534H40.7327V26.2465H43.295V23.7534Z" fill="#081219"/>
<path d="M43.295 32.0305H40.7327V34.5236H43.295V32.0305Z" fill="#081219"/>
<path d="M43.295 15.4764H40.7327V17.9695H43.295V15.4764Z" fill="#081219"/>
<path d="M17.7742 15.4764H15.2119V17.9695H17.7742V15.4764Z" fill="#081219"/>
<path d="M26.2812 15.4764H23.7189V17.9695H26.2812V15.4764Z" fill="#081219"/>
<path d="M34.788 15.4764H32.2257V17.9695H34.788V15.4764Z" fill="#081219"/>
</svg>
