<svg width="50" height="50" viewBox="0 0 50 50" fill="none" xmlns="http://www.w3.org/2000/svg">
<path d="M41.6327 20.2278L37.6792 16.2742L41.6327 12.3207C42.7244 11.2291 42.7244 9.45898 41.6327 8.36721C40.5409 7.27555 38.7709 7.27555 37.6792 8.36721L33.7257 12.3207L29.7722 8.36721C28.6805 7.27555 26.9104 7.27555 25.8187 8.36721C25.2729 8.913 25 9.62831 25 10.3436C25 9.62831 24.7269 8.913 24.1812 8.36721C23.0894 7.27555 21.3194 7.27555 20.2276 8.36721L16.2742 12.3207L12.3207 8.36721C11.229 7.27555 9.45905 7.27554 8.36729 8.36731C7.27552 9.45908 7.27552 11.2292 8.36729 12.3208L12.3208 16.2743L8.36729 20.2279C7.27552 21.3195 7.27552 23.0896 8.36729 24.1814C8.91317 24.7273 9.62858 25.0001 10.344 25.0001C11.0594 25.0001 11.7749 24.7272 12.3207 24.1814L16.2742 20.2279L20.2276 24.1814C20.7735 24.7273 21.4889 25.0001 22.2044 25.0001C22.9198 25.0001 23.6353 24.7272 24.1811 24.1814C24.7268 23.6356 24.9998 22.9203 24.9999 22.205C24.9999 22.9203 25.2728 23.6356 25.8186 24.1814C26.3644 24.7272 27.0799 25.0001 27.7953 25.0001C28.5107 25.0001 29.2262 24.7272 29.772 24.1814L33.7255 20.2279L37.679 24.1814C38.2248 24.7273 38.9403 25.0001 39.6557 25.0001C40.3711 25.0001 41.0866 24.7272 41.6324 24.1814C42.7242 23.0896 42.7244 21.3194 41.6327 20.2278ZM25.8188 20.2278C25.273 20.7735 24.9999 21.4897 24.9999 22.205C24.9999 21.4897 24.727 20.7735 24.1813 20.2278L20.2277 16.2742L24.1813 12.3207C24.727 11.7749 24.9999 11.0589 25 10.3436C25 11.0589 25.273 11.7749 25.8188 12.3207L29.7723 16.2742L25.8188 20.2278Z" fill="#081219"/>
<path d="M33.7258 29.7722L29.7723 25.8187C29.2264 25.2728 28.511 25 27.7956 25C27.0802 25 26.3646 25.2729 25.8189 25.8187C25.2731 26.3645 25.0001 27.0798 25.0001 27.7951C25.0001 27.0798 24.7271 26.3645 24.1813 25.8187C23.6355 25.2729 22.92 25 22.2046 25C21.4892 25 20.7738 25.2729 20.2279 25.8187L16.2745 29.7722L12.3209 25.8187C11.7751 25.2728 11.0597 25 10.3442 25C9.62883 25 8.91342 25.2729 8.36753 25.8187C7.27576 26.9104 7.27576 28.6804 8.36753 29.7722L12.321 33.7257L8.36753 37.6792C7.27576 38.7709 7.27576 40.541 8.36753 41.6327C9.4593 42.7243 11.2293 42.7243 12.321 41.6327L16.2746 37.6791L20.228 41.6327C21.3198 42.7243 23.0897 42.7243 24.1815 41.6327C24.7273 41.0868 25.0002 40.3715 25.0003 39.6561C25.0003 40.3715 25.2733 41.0868 25.8191 41.6326C26.9107 42.7242 28.6808 42.7242 29.7726 41.6326L33.7261 37.679L37.6795 41.6326C38.7713 42.7242 40.5413 42.7242 41.633 41.6326C42.7248 40.5408 42.7248 38.7707 41.633 37.679L37.6795 33.7255L41.633 29.772C42.7248 28.6802 42.7248 26.9102 41.633 25.8185C41.0871 25.2726 40.3717 24.9998 39.6563 24.9998C38.9409 24.9998 38.2255 25.2727 37.6796 25.8185L33.7258 29.7722ZM25.8189 37.6792C25.2731 38.225 25.0003 38.9408 25.0003 39.6561C25.0003 38.9408 24.7271 38.225 24.1813 37.6792L20.2278 33.7257L24.1813 29.7722C24.7271 29.2264 25 28.5104 25.0001 27.7951C25.0001 28.5104 25.2731 29.2264 25.8189 29.7722L29.7724 33.7257L25.8189 37.6792Z" fill="#081219"/>
</svg>
