<svg width="50" height="50" viewBox="0 0 50 50" fill="none" xmlns="http://www.w3.org/2000/svg">
<path d="M40.6067 20.4626C40.0084 18.169 38.2134 16.2743 36.0194 15.4765C34.8228 14.9779 33.6261 14.8781 32.5291 14.9779C31.2327 15.1773 29.9363 15.8754 28.8394 16.4737C28.5402 16.6731 28.2411 16.7729 27.9419 16.9723C27.7424 17.072 27.6427 17.1718 27.4433 17.1718C27.3435 17.1718 27.2438 17.2715 27.2438 17.2715H27.1441H27.0444C26.7452 17.3712 26.446 17.4709 26.0471 17.5707C25.6483 17.6704 25.4488 17.6704 25.0499 17.7701C24.9502 17.7701 24.7507 17.7701 24.5513 17.7701C24.4516 17.7701 24.3519 17.7701 24.3519 17.7701H24.2521H24.1524C23.8532 17.6704 23.5541 17.5707 23.2549 17.4709C23.1552 17.3712 23.0555 17.3712 22.856 17.2715C22.856 17.2715 22.7563 17.2715 22.7563 17.1718C22.6566 17.072 22.6566 17.072 22.5568 16.9723C22.3574 16.7729 22.158 16.5734 21.9585 16.2743C21.5596 15.7756 21.2604 15.277 20.8616 14.7784C20.4627 14.2798 19.964 13.7812 19.4654 13.3823C18.9668 13.2826 18.2688 12.9834 17.5707 12.9834C16.8726 12.9834 16.1746 13.1828 15.676 13.5817C15.0776 13.8809 14.6787 14.3795 14.2798 14.9779C13.8809 15.4765 13.5818 16.0748 13.1829 16.6731C12.5845 17.6704 11.9862 18.7673 11.3879 19.8643C10.8893 21.061 10.3906 22.2576 9.99175 23.4543C9.59285 24.9502 9.19396 26.446 9.09424 28.0416C9.09424 28.7396 9.09424 29.5374 9.29368 30.2355C9.49313 30.9335 9.69258 31.5319 9.99175 32.1302C10.4904 33.2272 11.1884 34.3241 12.0859 35.1219C13.0832 36.0194 14.3796 36.6177 15.676 36.8172C17.0721 37.0166 18.4682 37.0166 19.964 36.9169C21.5596 36.8172 23.0555 36.6177 24.651 36.4183C26.2466 36.2189 27.8422 35.9197 29.338 35.6205C30.8339 35.3214 32.23 35.0222 33.6261 34.4238C34.9225 33.9252 36.0194 33.2272 36.917 32.1302C37.4156 31.6316 37.7147 31.0333 38.0139 30.4349C38.3131 29.7369 38.4128 29.0388 38.5125 28.3407C38.8117 28.0416 39.0111 27.7424 39.3103 27.3435C40.7064 25.4488 41.205 22.856 40.6067 20.4626ZM35.82 16.374C35.9197 16.374 35.9197 16.374 35.82 16.374V16.374ZM36.7175 28.9391C36.6178 28.9391 36.6178 28.9391 36.7175 28.9391C36.5181 29.0388 36.5181 29.1385 36.4183 29.1385C36.3186 29.2382 36.1192 29.338 36.0194 29.4377C35.5208 29.7369 34.9225 30.036 34.4239 30.3352C34.3242 30.4349 34.1247 30.4349 34.025 30.5346H33.9253C33.8255 30.5346 33.7258 30.6344 33.7258 30.6344C33.4266 30.7341 33.1275 30.8338 32.8283 30.9335C31.6316 31.3324 30.435 31.7313 29.1386 32.0305C26.2466 32.8283 23.3546 33.5263 20.3629 33.9252C19.6649 34.025 18.8671 34.1247 18.169 34.1247C17.8699 34.1247 17.5707 34.1247 17.2715 34.1247C17.1718 34.1247 16.9724 34.1247 16.8726 34.1247H16.7729C16.6732 34.1247 16.5735 34.1247 16.4737 34.025C15.8754 33.9252 15.4765 33.6261 15.0776 33.2272L14.9779 33.1274C14.9779 33.1274 14.9779 33.1274 14.9779 33.0277C14.8782 32.928 14.7784 32.8283 14.7784 32.6288C14.7784 32.5291 14.6787 32.5291 14.6787 32.4294V32.3297C14.579 32.2299 14.579 32.0305 14.579 31.9308C14.4793 31.6316 14.4793 31.3324 14.3796 31.0333C14.3796 31.0333 14.3796 31.0333 14.3796 30.9335C13.9807 30.9335 13.9807 30.9335 13.9807 30.9335C13.9807 30.8338 13.9807 30.8338 13.9807 30.7341C13.9807 30.5346 13.9807 30.4349 13.9807 30.2355C13.9807 29.5374 13.9807 28.9391 14.0804 28.241C14.0804 28.1413 14.0804 28.0416 14.0804 28.0416V27.9418C14.0804 27.7424 14.1801 27.6427 14.1801 27.4432C14.2798 27.1441 14.2798 26.7452 14.3796 26.446C14.4793 26.1468 14.579 25.8477 14.6787 25.5485C14.7784 25.349 14.7784 25.3491 14.7784 25.1496C14.9779 24.9502 14.9779 24.7507 15.0776 24.651C16.1746 22.5568 18.0693 20.8615 20.4627 20.5623H20.5624C20.5624 20.5623 20.5624 20.5623 20.6621 20.5623C20.7618 20.5623 20.8616 20.5623 20.8616 20.5623C21.061 20.5623 21.1607 20.5623 21.3602 20.5623C21.7591 20.5623 22.0582 20.5623 22.4571 20.6621C23.1552 20.7618 23.953 20.8615 24.651 20.9612C26.0471 21.061 27.3435 20.9612 28.6399 20.3629C29.2383 20.0637 29.8366 19.7646 30.3352 19.3657C30.8339 18.9668 31.2327 18.5679 31.7314 18.0693C31.9308 17.8698 32.1302 17.6704 32.3297 17.4709L32.4294 17.3712L32.5291 17.2715C32.6289 17.2715 32.6289 17.1718 32.7286 17.1718H32.8283C32.8283 17.1718 32.8283 17.1718 32.928 17.1718C33.0278 17.1718 33.2272 17.072 33.3269 17.072H33.4266C33.5264 17.072 33.6261 17.072 33.6261 17.072H33.7258C33.8255 17.072 33.8255 17.072 33.9253 17.072C34.025 17.072 34.025 17.072 34.1247 17.1718H34.2244C34.2244 17.1718 34.2244 17.1718 34.3242 17.1718C34.4239 17.2715 34.6233 17.2715 34.723 17.3712C34.8228 17.3712 34.8228 17.4709 34.9225 17.4709C34.9225 17.4709 35.0222 17.4709 35.0222 17.5707L35.1219 17.6704C35.2217 17.7701 35.3214 17.8698 35.4211 17.9695C35.5208 18.0693 35.5208 18.0693 35.6206 18.169C35.7203 18.2687 35.7203 18.2687 35.7203 18.3684C35.9197 18.6676 36.0194 18.9668 36.2189 19.1662C36.2189 19.2659 36.3186 19.2659 36.3186 19.3657C36.3186 19.4654 36.3186 19.4654 36.4183 19.5651C36.5181 19.7646 36.5181 19.8643 36.6178 20.0637C37.0167 21.4599 37.3158 22.856 37.5153 24.2521C37.7147 25.5485 37.8145 26.9446 37.7147 28.241C37.615 28.3407 37.615 28.3407 37.5153 28.4405C37.2161 28.4405 36.917 28.7396 36.7175 28.9391ZM34.5236 17.072C34.4239 17.072 34.4239 17.072 34.5236 17.072V17.072ZM39.1109 25.8477C39.0111 25.9474 39.0111 26.1468 38.9114 26.2466C38.8117 26.446 38.6122 26.6454 38.5125 26.9446C38.5125 25.9474 38.4128 24.9502 38.3131 23.9529C38.1136 22.4571 37.9142 20.9612 37.4156 19.4654C37.0167 18.169 36.2189 16.8726 34.9225 16.2743C34.3242 15.9751 33.6261 15.8754 32.928 16.0748C32.3297 16.2743 31.7314 16.6731 31.3325 17.072C30.8339 17.4709 30.435 17.9695 30.0361 18.3684C29.9363 18.4682 29.9363 18.4682 29.8366 18.5679L29.7369 18.6676C29.6372 18.7673 29.4377 18.8671 29.338 18.9668C29.0388 19.1662 28.7397 19.2659 28.4405 19.4654C28.3408 19.4654 28.2411 19.5651 28.0416 19.5651C27.8422 19.6648 27.7424 19.6648 27.543 19.7646C27.2438 19.8643 26.9447 19.964 26.5458 19.964H26.446C26.3463 19.964 26.3463 19.964 26.2466 19.964C26.0471 19.964 25.8477 19.964 25.6483 19.964C25.2494 19.964 24.8505 19.964 24.5513 19.8643C24.1524 19.8643 23.8532 19.7646 23.4543 19.7646C23.0555 19.6648 22.6566 19.6648 22.2577 19.5651C21.5596 19.4654 20.8616 19.4654 20.1635 19.6648C18.8671 19.8643 17.6704 20.4626 16.6732 21.2604C14.4793 22.9557 13.3823 25.6482 13.0832 28.241C12.9834 29.5374 12.9834 30.9335 13.2826 32.1302C13.4821 32.7286 13.7812 33.3269 14.1801 33.8255C14.579 34.3241 15.1773 34.6233 15.8754 34.8227C16.4737 35.0222 17.1718 35.0222 17.8699 35.0222C18.5679 35.0222 19.3657 34.9225 20.0638 34.8227C21.6593 34.6233 23.1552 34.3241 24.7507 34.025C26.2466 33.7258 27.7424 33.3269 29.2383 32.928C30.5347 32.6288 31.8311 32.2299 33.0278 31.831C34.6233 31.2327 36.1192 30.5346 37.4156 29.5374C37.4156 29.6371 37.3158 29.7369 37.3158 29.9363C37.3158 30.036 37.3158 30.1358 37.2161 30.1358V30.2355C37.2161 30.2355 37.2161 30.2355 37.2161 30.3352C37.1164 30.6344 36.917 30.9335 36.8172 31.133C36.8172 31.2327 36.7175 31.2327 36.7175 31.3324C36.7175 31.3324 36.7175 31.3324 36.6178 31.4322C36.5181 31.5319 36.4183 31.6316 36.3186 31.831C36.1192 32.0305 35.9197 32.2299 35.6206 32.4294C35.5208 32.4294 35.5208 32.5291 35.4211 32.5291C35.4211 32.5291 35.3214 32.5291 35.3214 32.6288C35.2217 32.7286 35.0222 32.8283 34.9225 32.928C34.3242 33.3269 33.8255 33.5263 33.2272 33.8255C31.8311 34.3241 30.435 34.6233 29.0388 34.9225C26.0471 35.5208 23.0555 35.9197 20.0638 36.1191C19.3657 36.1191 18.6676 36.2189 17.9696 36.2189C17.2715 36.2189 16.6732 36.2189 16.0748 36.0194C15.7757 35.9197 15.3768 35.9197 15.0776 35.82C14.7784 35.7202 14.4793 35.6205 14.1801 35.5208C13.8809 35.4211 13.6815 35.2216 13.3823 35.0222C13.1829 34.8227 12.9834 34.723 12.784 34.5236C12.5845 34.3241 12.3851 34.1247 12.1857 33.9252C11.9862 33.7258 11.8865 33.5263 11.687 33.3269C11.4876 33.1274 11.3879 32.8283 11.1884 32.5291C11.0887 32.2299 10.989 32.1302 10.989 32.0305C10.989 31.9308 10.8893 31.9308 10.8893 31.831V31.7313C10.8893 31.7313 10.8893 31.7313 10.8893 31.6316C10.6898 31.0333 10.4904 30.4349 10.2909 29.8366C10.2909 29.7369 10.2909 29.6371 10.2909 29.6371C10.2909 29.5374 10.2909 29.5374 10.2909 29.4377C10.2909 29.2382 10.2909 29.0388 10.2909 28.9391C10.2909 28.5402 10.2909 28.241 10.2909 27.8421C10.2909 27.543 10.3906 27.2438 10.3906 26.9446C10.4904 26.5457 10.4904 26.2466 10.5901 25.8477C10.7895 25.1496 10.989 24.4515 11.1884 23.6538C11.3879 23.0554 11.5873 22.3574 11.7868 21.759C11.687 21.5596 11.8865 21.2604 11.9862 20.9612V20.8615C11.9862 20.7618 12.0859 20.7618 12.0859 20.6621C12.1857 20.5623 12.1857 20.3629 12.2854 20.2632C12.784 19.1662 13.3823 18.169 13.9807 17.1718C14.3796 16.5734 14.6787 15.9751 15.0776 15.4765C15.3768 14.9779 15.7757 14.579 16.2743 14.2798C16.374 14.1801 16.5735 14.1801 16.6732 14.0804H16.7729C16.8726 13.9806 16.9724 13.9806 17.0721 13.9806C17.1718 13.9806 17.1718 13.9806 17.2715 13.9806H17.3712C17.3712 13.9806 17.3712 13.9806 17.471 13.9806C17.5707 13.9806 17.7701 13.9806 17.8699 13.9806H17.9696H18.0693C18.169 13.9806 18.169 13.9806 18.2688 14.0804C18.2688 14.0804 18.3685 14.0804 18.3685 14.1801H18.4682C18.4682 14.1801 18.5679 14.1801 18.5679 14.2798C18.6676 14.3795 18.7674 14.3795 18.9668 14.4792C19.0665 14.4792 19.0665 14.579 19.1663 14.579L19.266 14.6787C19.4654 14.8781 19.7646 15.0776 19.964 15.3767C20.0638 15.4765 20.1635 15.5762 20.2632 15.6759C20.2632 15.6759 20.2632 15.7756 20.3629 15.7756C20.3629 15.8754 20.4627 15.8754 20.4627 15.9751C20.8616 16.4737 21.1607 16.9723 21.6593 17.4709C22.0582 17.9695 22.5568 18.3684 23.1552 18.5679C23.7535 18.8671 24.4516 18.9668 25.1496 18.9668C26.5458 18.8671 27.8422 18.2687 29.0388 17.5707C30.2355 16.8726 31.2327 16.2743 32.5291 15.9751C32.6289 15.9751 32.6289 15.9751 32.7286 15.9751H32.8283C32.928 15.9751 33.1275 15.9751 33.2272 15.9751C33.5264 15.9751 33.7258 15.9751 34.025 15.9751C34.1247 15.9751 34.1247 15.9751 34.2244 15.9751H34.3242C34.4239 15.9751 34.6233 15.9751 34.723 16.0748C35.0222 16.1745 35.2217 16.1745 35.5208 16.2743C35.6206 16.2743 35.82 16.374 35.9197 16.374H36.0194C36.1192 16.374 36.1192 16.4737 36.2189 16.4737C36.4183 16.5734 36.7175 16.6731 36.917 16.8726C37.0167 16.9723 37.1164 17.072 37.2161 17.072C37.3158 17.072 37.3158 17.1718 37.4156 17.1718C37.4156 17.1718 37.5153 17.1718 37.5153 17.2715C37.7147 17.4709 37.9142 17.5707 38.1136 17.7701C38.3131 17.9695 38.5125 18.169 38.6122 18.3684L38.712 18.4682C38.712 18.5679 38.8117 18.5679 38.8117 18.6676C38.9114 18.7673 39.0111 18.8671 39.0111 19.0665C39.1109 19.2659 39.3103 19.5651 39.41 19.7646V19.8643C39.41 19.964 39.41 19.964 39.5097 20.0637C39.5097 20.1635 39.6095 20.3629 39.6095 20.4626C39.7092 20.7618 39.7092 21.061 39.8089 21.3601V21.4599C39.8089 21.5596 39.8089 21.5596 39.8089 21.6593C39.8089 21.759 39.8089 21.9585 39.8089 22.0582C39.8089 22.3574 39.8089 22.6565 39.8089 22.9557C39.8089 23.0554 39.8089 23.2549 39.8089 23.3546C39.8089 23.3546 39.8089 23.3546 39.8089 23.4543V23.554C39.8089 23.6538 39.8089 23.6538 39.8089 23.7535C39.7092 24.3518 39.5098 24.8504 39.3103 25.4488V25.5485C39.2106 25.6482 39.2106 25.7479 39.1109 25.8477Z" fill="#081219"/>
</svg>
