<svg width="50" height="50" viewBox="0 0 50 50" fill="none" xmlns="http://www.w3.org/2000/svg">
<path d="M35.7055 10.5303C33.5217 12.0222 31.6949 13.9498 30.3527 16.1735C29.0106 13.9497 27.1838 12.0221 25.0001 10.5303C22.8164 12.0221 20.9895 13.9498 19.6474 16.1735C18.3053 13.9498 16.4784 12.0222 14.2947 10.5303C9.55475 13.7685 6.46643 19.041 6.46643 24.9999C6.46643 30.9587 9.55485 36.2316 14.2946 39.4697C16.4783 37.9778 18.3052 36.0502 19.6473 33.8265C20.9894 36.0503 22.8163 37.9778 25 39.4697C27.1838 37.9778 29.0106 36.0502 30.3527 33.8265C31.6949 36.0503 33.5217 37.9778 35.7055 39.4697C40.4453 36.2316 43.5336 30.9589 43.5336 24.9999C43.5336 19.0408 40.4453 13.7685 35.7055 10.5303Z" fill="#081219"/>
</svg>
