<svg width="50" height="50" viewBox="0 0 50 50" fill="none" xmlns="http://www.w3.org/2000/svg">
<path d="M16.0319 16.026L11.5478 7.05786L7.06372 16.026L11.5478 24.9942L16.0319 16.026Z" fill="#081219"/>
<path d="M25 16.026L20.5159 7.05786L16.0319 16.026L20.5159 24.9942L25 16.026Z" fill="#081219"/>
<path d="M33.9681 16.026L29.4841 7.05786L25 16.026L29.4841 24.9942L33.9681 16.026Z" fill="#081219"/>
<path d="M42.9363 16.026L38.4522 7.05786L33.9681 16.026L38.4522 24.9942L42.9363 16.026Z" fill="#081219"/>
<path d="M16.0319 33.974L11.5478 25.0059L7.06372 33.974L11.5478 42.9421L16.0319 33.974Z" fill="#081219"/>
<path d="M25 33.974L20.5159 25.0059L16.0319 33.974L20.5159 42.9421L25 33.974Z" fill="#081219"/>
<path d="M33.9681 33.974L29.4841 25.0059L25 33.974L29.4841 42.9421L33.9681 33.974Z" fill="#081219"/>
<path d="M42.9363 33.974L38.4522 25.0059L33.9681 33.974L38.4522 42.9421L42.9363 33.974Z" fill="#081219"/>
</svg>
