<svg width="50" height="50" viewBox="0 0 50 50" fill="none" xmlns="http://www.w3.org/2000/svg">
<path d="M25.0513 7.29919C15.007 7.29919 6.80753 15.277 6.80753 25.0499C6.80753 34.8227 15.007 42.8006 25.0513 42.8006C35.0956 42.8006 43.2951 34.8227 43.2951 25.0499C43.2951 15.277 35.0956 7.29919 25.0513 7.29919ZM34.6856 31.2327L37.8629 37.5153L31.4059 34.4238L31.9183 41.4044L27.2036 36.1191L24.9488 42.8006L22.694 36.1191L17.9793 41.4044L18.4917 34.4238L12.0347 37.5153L15.212 31.2327L8.03744 31.7313L13.4696 27.1441L6.60254 24.9502L13.4696 22.7563L8.03744 18.169L15.212 18.6676L12.1372 12.4848L18.5942 15.5762L18.0818 8.59558L22.7964 13.8809L25.0513 7.19946L27.3061 13.8809L32.0208 8.59558L31.5084 15.5762L37.9654 12.4848L34.7881 18.7673L41.9627 18.2687L36.5305 22.856L43.3976 25.0499L36.5305 27.2438L41.9627 31.831L34.6856 31.2327Z" fill="#081219"/>
<path d="M25.0512 13.6814C18.5941 13.6814 13.4695 18.7673 13.4695 24.9501C13.4695 31.2326 18.6966 36.2188 25.0512 36.2188C31.4058 36.2188 36.6329 31.1329 36.6329 24.9501C36.6329 18.7673 31.4058 13.6814 25.0512 13.6814ZM25.0512 34.0249C19.9265 34.0249 15.8268 30.036 15.8268 25.0498C15.8268 20.0637 19.9265 16.0747 25.0512 16.0747C30.1759 16.0747 34.2756 20.0637 34.2756 25.0498C34.2756 30.036 30.0734 34.0249 25.0512 34.0249Z" fill="#081219"/>
<path d="M25.0513 22.1578C23.4114 22.1578 22.079 23.4542 22.079 25.0498C22.079 26.6454 23.4114 27.9418 25.0513 27.9418C26.6912 27.9418 28.0236 26.6454 28.0236 25.0498C28.0236 23.4542 26.5887 22.1578 25.0513 22.1578Z" fill="#081219"/>
</svg>
