<svg width="50" height="50" viewBox="0 0 50 50" fill="none" xmlns="http://www.w3.org/2000/svg">
<path d="M36.5305 13.5817C32.8407 10.2908 28.1261 8.29636 23.3089 8.09692C22.6939 7.99719 22.079 7.99719 21.464 7.99719C15.9294 8.09692 10.5997 10.3905 6.8075 14.3795L13.3671 20.2631C15.5194 17.9695 18.4917 16.6731 21.7715 16.5734C24.9488 16.3739 28.0236 17.5706 30.4834 19.6648C32.8407 21.759 34.1731 24.6509 34.3781 27.8421C34.4806 31.0332 33.5582 33.7257 31.3033 36.1191L37.8629 42.0027C41.7576 38.1135 43.295 33.2271 43.1925 27.7423C42.9876 22.3573 40.6302 17.2714 36.5305 13.5817Z" fill="#081219"/>
</svg>
