<svg width="50" height="50" viewBox="0 0 50 50" fill="none" xmlns="http://www.w3.org/2000/svg">
<path d="M7.19946 7.69385V42.2091H42.7008V7.69385H7.19946ZM42.7008 25.0484L36.8172 30.7686L42.7008 36.4889L36.8172 42.2091L30.9335 36.4889L24.9502 42.2091L19.0665 36.4889L13.1828 42.2091L7.29919 36.4889L13.1828 30.7686L7.29919 25.0484L13.1828 19.3282L7.29919 13.511L13.1828 7.7908L19.0665 13.511L24.9502 7.7908L30.9335 13.511L36.8172 7.7908L42.7008 13.511L36.8172 19.2312L42.7008 25.0484Z" fill="#081219"/>
<path d="M19.0592 13.4892L13.136 19.2479L19.0592 25.0066L24.9825 19.2479L19.0592 13.4892Z" fill="#081219"/>
<path d="M19.0834 25.0166L13.1602 30.7753L19.0834 36.534L25.0066 30.7753L19.0834 25.0166Z" fill="#081219"/>
<path d="M30.916 13.4657L24.9928 19.2244L30.916 24.9831L36.8393 19.2244L30.916 13.4657Z" fill="#081219"/>
<path d="M30.9403 24.993L25.0171 30.7517L30.9403 36.5104L36.8636 30.7517L30.9403 24.993Z" fill="#081219"/>
</svg>
