<svg width="50" height="50" viewBox="0 0 50 50" fill="none" xmlns="http://www.w3.org/2000/svg">
<path d="M21.4977 13.3656L19.7465 15.0694C19.2629 15.5399 19.0211 16.1565 19.0211 16.7732C19.0211 17.3899 19.2629 18.0066 19.7465 18.4771C20.23 18.9476 20.8637 19.1829 21.4977 19.1829C22.1316 19.1829 22.7653 18.9476 23.2489 18.4771L25.0001 16.7732L26.7511 18.4771C27.2347 18.9476 27.8684 19.1829 28.5023 19.1829C29.1363 19.1829 29.77 18.9476 30.2535 18.4771C30.7371 18.0066 30.9789 17.3899 30.9789 16.7732C30.9789 16.1565 30.7371 15.5399 30.2535 15.0694L28.5023 13.3656L30.2535 11.6617C30.7371 11.1912 30.9789 10.5746 30.9789 9.95795C30.9789 9.34126 30.7371 8.72457 30.2535 8.25408C29.2864 7.31309 27.7184 7.31309 26.7512 8.25408L25.0002 9.95785L23.249 8.25408C22.2818 7.31309 20.7138 7.31309 19.7467 8.25408C19.2631 8.72457 19.0213 9.34126 19.0213 9.95795C19.0213 10.5746 19.2631 11.1912 19.7467 11.6617L21.4977 13.3656Z" fill="#081219"/>
<path d="M13.0424 16.7732L14.7936 18.4771C15.2772 18.9476 15.911 19.1829 16.5448 19.1829C17.1786 19.1829 17.8124 18.9476 18.2959 18.4771C18.7795 18.0066 19.0213 17.3899 19.0213 16.7732C19.0213 16.1565 18.7795 15.5399 18.2959 15.0694L16.5447 13.3656L18.2959 11.6617C18.7795 11.1912 19.0213 10.5746 19.0213 9.95795C19.0213 9.34126 18.7795 8.72457 18.2959 8.25408C17.3288 7.31309 15.7609 7.31309 14.7936 8.25408L13.0424 9.95795L11.2912 8.25408C10.3241 7.31309 8.75607 7.31309 7.78894 8.25408C6.82182 9.19507 6.82182 10.7207 7.78894 11.6617L9.54014 13.3656L7.78894 15.0694C6.82182 16.0104 6.82182 17.536 7.78894 18.4771C8.2725 18.9476 8.90622 19.1829 9.54004 19.1829C10.1739 19.1829 10.8077 18.9476 11.2912 18.4771L13.0424 16.7732Z" fill="#081219"/>
<path d="M28.5023 19.1829C27.8685 19.1829 27.2347 19.418 26.7511 19.8885L25.0001 21.5923L23.2489 19.8885C22.7653 19.418 22.1315 19.1829 21.4977 19.1829C20.8638 19.1829 20.23 19.418 19.7465 19.8885C19.2629 20.359 19.0211 20.9757 19.0211 21.5924C19.0211 22.2091 19.2629 22.8257 19.7465 23.2962L21.4977 25L19.7465 26.7039C19.2629 27.1744 19.0211 27.7911 19.0211 28.4077C19.0211 29.0244 19.2629 29.6411 19.7465 30.1116C20.23 30.5821 20.8637 30.8173 21.4977 30.8173C22.1316 30.8173 22.7653 30.5821 23.2489 30.1116L25.0001 28.4077L26.7511 30.1116C27.2347 30.5821 27.8684 30.8173 28.5023 30.8173C29.1363 30.8173 29.77 30.5821 30.2535 30.1116C30.7371 29.6411 30.9789 29.0245 30.9789 28.4077C30.9789 27.791 30.7371 27.1744 30.2535 26.7039L28.5024 25L30.2535 23.2962C30.7371 22.8257 30.9789 22.2092 30.9789 21.5924C30.9789 20.9756 30.7371 20.359 30.2535 19.8885C29.77 19.418 29.1362 19.1829 28.5023 19.1829Z" fill="#081219"/>
<path d="M42.211 15.0694L40.4598 13.3656L42.211 11.6617C43.1781 10.7208 43.1781 9.19517 42.211 8.25408C41.2437 7.31309 39.6758 7.31309 38.7087 8.25408L36.9575 9.95795L35.2063 8.25408C34.2392 7.31309 32.6712 7.31309 31.704 8.25408C31.2204 8.72457 30.9786 9.34126 30.9786 9.95795C30.9786 10.5746 31.2204 11.1912 31.704 11.6617L33.4552 13.3656L31.704 15.0694C31.2204 15.5399 30.9786 16.1565 30.9786 16.7732C30.9786 17.3899 31.2204 18.0066 31.704 18.4771C32.1875 18.9476 32.8213 19.1829 33.4552 19.1829C34.0891 19.1829 34.7228 18.9476 35.2063 18.4771L36.9575 16.7732L38.7087 18.4771C39.1922 18.9476 39.8259 19.1829 40.4599 19.1829C41.0938 19.1829 41.7275 18.9476 42.2111 18.4771C43.1782 17.5361 43.1781 16.0105 42.211 15.0694Z" fill="#081219"/>
<path d="M36.9575 21.5924L35.2063 19.8885C34.7228 19.418 34.089 19.1829 33.4552 19.1829C32.8214 19.1829 32.1875 19.418 31.704 19.8885C31.2204 20.359 30.9786 20.9757 30.9786 21.5924C30.9786 22.2091 31.2204 22.8257 31.704 23.2962L33.4552 25L31.704 26.7039C31.2204 27.1744 30.9786 27.7911 30.9786 28.4077C30.9786 29.0244 31.2204 29.6411 31.704 30.1116C32.1875 30.5821 32.8213 30.8173 33.4552 30.8173C34.0891 30.8173 34.7228 30.5821 35.2063 30.1116L36.9575 28.4077L38.7087 30.1116C39.1922 30.5821 39.8259 30.8173 40.4599 30.8173C41.0938 30.8173 41.7275 30.5821 42.2111 30.1116C43.1782 29.1706 43.1782 27.6451 42.2111 26.704L40.4599 25.0001L42.2111 23.2963C43.1782 22.3554 43.1782 20.8297 42.2111 19.8887C41.7275 19.4182 41.0937 19.1831 40.4599 19.1831C39.826 19.1831 39.1922 19.4182 38.7087 19.8887L36.9575 21.5924Z" fill="#081219"/>
<path d="M13.0424 28.4076L14.7936 30.1115C15.2772 30.582 15.911 30.8172 16.5448 30.8172C17.1786 30.8172 17.8124 30.582 18.2959 30.1115C18.7795 29.641 19.0213 29.0244 19.0213 28.4076C19.0213 27.7908 18.7795 27.1742 18.2959 26.7037L16.5448 24.9999L18.2959 23.2961C18.7795 22.8256 19.0213 22.209 19.0213 21.5922C19.0213 20.9755 18.7795 20.3589 18.2959 19.8884C17.8124 19.4179 17.1786 19.1827 16.5448 19.1827C15.911 19.1827 15.2772 19.4179 14.7936 19.8884L13.0424 21.5922L11.2912 19.8884C10.8077 19.4179 10.1739 19.1827 9.54004 19.1827C8.90622 19.1827 8.2725 19.4179 7.78894 19.8884C6.82182 20.8294 6.82182 22.355 7.78894 23.296L9.54014 24.9998L7.78894 26.7036C6.82182 27.6447 6.82182 29.1703 7.78894 30.1113C8.2725 30.5818 8.90622 30.817 9.54004 30.817C10.1739 30.817 10.8077 30.5818 11.2912 30.1113L13.0424 28.4076Z" fill="#081219"/>
<path d="M28.5023 36.6343L30.2534 34.9305C30.737 34.46 30.9788 33.8434 30.9788 33.2266C30.9788 32.6098 30.737 31.9933 30.2534 31.5228C29.7699 31.0523 29.136 30.817 28.5022 30.817C27.8684 30.817 27.2346 31.0523 26.751 31.5228L24.9999 33.2265L23.2487 31.5228C22.7652 31.0523 22.1314 30.817 21.4975 30.817C20.8637 30.817 20.2299 31.0523 19.7463 31.5228C19.2628 31.9933 19.021 32.6099 19.021 33.2266C19.021 33.8433 19.2628 34.46 19.7463 34.9305L21.4975 36.6343L19.7463 38.3381C19.2628 38.8086 19.021 39.4253 19.021 40.042C19.021 40.6587 19.2628 41.2753 19.7463 41.7458C20.7135 42.6868 22.2815 42.6868 23.2486 41.7458L24.9998 40.0419L26.7509 41.7458C27.718 42.6867 29.2861 42.6867 30.2532 41.7458C30.7368 41.2752 30.9786 40.6587 30.9786 40.0419C30.9786 39.4251 30.7368 38.8085 30.2532 38.338L28.5023 36.6343Z" fill="#081219"/>
<path d="M36.9575 33.2267L35.2063 31.5229C34.7228 31.0524 34.089 30.8171 33.4552 30.8171C32.8214 30.8171 32.1875 31.0524 31.704 31.5229C31.2204 31.9934 30.9786 32.6101 30.9786 33.2267C30.9786 33.8434 31.2204 34.4601 31.704 34.9306L33.4552 36.6344L31.704 38.3382C31.2204 38.8087 30.9786 39.4254 30.9786 40.0421C30.9786 40.6588 31.2204 41.2754 31.704 41.7459C32.6711 42.687 34.2391 42.687 35.2063 41.7459L36.9575 40.042L38.7087 41.7459C39.6758 42.6869 41.2437 42.6869 42.211 41.7459C43.1781 40.8049 43.1781 39.2792 42.211 38.3382L40.4598 36.6344L42.211 34.9306C43.1781 33.9896 43.1781 32.464 42.211 31.523C41.7274 31.0525 41.0936 30.8172 40.4598 30.8172C39.8259 30.8172 39.1921 31.0525 38.7086 31.523L36.9575 33.2267Z" fill="#081219"/>
<path d="M16.5447 36.6343L18.2958 34.9305C18.7794 34.46 19.0211 33.8434 19.0211 33.2266C19.0211 32.6098 18.7794 31.9933 18.2958 31.5228C17.8122 31.0523 17.1785 30.817 16.5447 30.817C15.9109 30.817 15.2771 31.0523 14.7935 31.5228L13.0423 33.2266L11.2911 31.5228C10.8075 31.0523 10.1737 30.817 9.53991 30.817C8.9061 30.817 8.27238 31.0523 7.78882 31.5228C6.8217 32.4637 6.8217 33.9894 7.78882 34.9304L9.54002 36.6342L7.78882 38.338C6.8217 39.279 6.8217 40.8047 7.78882 41.7457C8.75584 42.6867 10.3239 42.6867 11.2911 41.7457L13.0423 40.0418L14.7935 41.7457C15.7606 42.6866 17.3286 42.6866 18.2958 41.7457C18.7794 41.2751 19.0211 40.6586 19.0211 40.0418C19.0211 39.425 18.7794 38.8084 18.2958 38.3379L16.5447 36.6343Z" fill="#081219"/>
</svg>
