<svg width="50" height="50" viewBox="0 0 50 50" fill="none" xmlns="http://www.w3.org/2000/svg">
<path d="M36.6208 18.8169C35.1576 18.8169 33.8153 19.3279 32.7563 20.1775C31.6975 19.3279 30.3551 18.8169 28.8919 18.8169C27.4163 18.8169 26.0629 19.3356 25 20.1981C23.937 19.3356 22.5836 18.8169 21.108 18.8169C19.6448 18.8169 18.3025 19.3279 17.2436 20.1775C16.1847 19.3279 14.8423 18.8169 13.3791 18.8169C9.96436 18.8169 7.19604 21.5851 7.19604 25C7.19604 28.4149 9.96436 31.1831 13.3792 31.1831C14.8424 31.1831 16.1848 30.6722 17.2437 29.8224C18.3026 30.6721 19.6449 31.1831 21.1081 31.1831C22.5837 31.1831 23.9371 30.6645 25.0001 29.802C26.063 30.6645 27.4164 31.1831 28.892 31.1831C30.3552 31.1831 31.6976 30.6722 32.7564 29.8224C33.8153 30.6721 35.1577 31.1831 36.6209 31.1831C40.0358 31.1831 42.804 28.4148 42.804 25C42.804 21.5852 40.0356 18.8169 36.6208 18.8169Z" fill="#081219"/>
</svg>
