<svg width="50" height="50" viewBox="0 0 50 50" fill="none" xmlns="http://www.w3.org/2000/svg">
<path d="M7.52734 7.99951C7.52734 12.6941 11.4388 16.4998 16.2638 16.4998C16.2638 11.8052 12.3523 7.99951 7.52734 7.99951Z" fill="#081219"/>
<path d="M16.2638 16.4998C11.4388 16.4998 7.52734 20.3055 7.52734 25C12.3523 25 16.2638 21.1943 16.2638 16.4998Z" fill="#081219"/>
<path d="M25 7.99951C20.175 7.99951 16.2637 11.8052 16.2637 16.4998C21.0886 16.4998 25 12.6942 25 7.99951Z" fill="#081219"/>
<path d="M7.52734 42.0004C12.3523 42.0004 16.2638 38.1948 16.2638 33.5002C11.4388 33.5002 7.52734 37.3059 7.52734 42.0004Z" fill="#081219"/>
<path d="M16.2637 33.5002C16.2637 38.1948 20.175 42.0004 25 42.0004C25 37.3059 21.0886 33.5002 16.2637 33.5002Z" fill="#081219"/>
<path d="M25 25C25 20.3055 21.0886 16.4998 16.2636 16.4998C16.2636 21.1943 20.1751 25 25 25C20.1751 25 16.2636 28.8057 16.2636 33.5002C16.2636 28.8057 12.3522 25 7.52722 25C7.52722 29.6946 11.4387 33.5002 16.2636 33.5002C21.0886 33.5002 25 29.6946 25 25Z" fill="#081219"/>
<path d="M33.7363 16.4998C33.7363 11.8052 29.825 7.99951 25 7.99951C25 12.6941 28.9113 16.4998 33.7363 16.4998Z" fill="#081219"/>
<path d="M25 25C29.825 25 33.7363 21.1943 33.7363 16.4998C28.9113 16.4998 25 20.3055 25 25Z" fill="#081219"/>
<path d="M42.4727 25C42.4727 20.3055 38.5614 16.4998 33.7363 16.4998C33.7363 21.1943 37.6478 25 42.4727 25Z" fill="#081219"/>
<path d="M42.4727 7.99951C37.6478 7.99951 33.7363 11.8052 33.7363 16.4998C38.5613 16.4998 42.4727 12.6942 42.4727 7.99951Z" fill="#081219"/>
<path d="M25 42.0004C29.825 42.0004 33.7363 38.1948 33.7363 33.5002C28.9113 33.5002 25 37.3059 25 42.0004Z" fill="#081219"/>
<path d="M42.4727 42.0004C42.4727 37.3059 38.5614 33.5002 33.7363 33.5002C33.7363 38.1948 37.6478 42.0004 42.4727 42.0004Z" fill="#081219"/>
<path d="M42.4727 25C37.6477 25 33.7363 28.8056 33.7363 33.5002C33.7363 28.8056 29.825 25 25 25C25 29.6946 28.9113 33.5002 33.7363 33.5002C38.5613 33.5002 42.4727 29.6946 42.4727 25Z" fill="#081219"/>
</svg>
