<svg width="50" height="50" viewBox="0 0 50 50" fill="none" xmlns="http://www.w3.org/2000/svg">
<path d="M25 41.8532C34.3078 41.8532 41.8532 38.0805 41.8532 33.4266C41.8532 28.7727 34.3078 25 25 25C15.6923 25 8.14685 28.7727 8.14685 33.4266C8.14685 38.0805 15.6923 41.8532 25 41.8532Z" fill="#081219"/>
<path d="M25 25C34.3078 25 41.8532 22.4849 41.8532 19.3823C41.8532 16.2798 34.3078 13.7646 25 13.7646C15.6923 13.7646 8.14685 16.2798 8.14685 19.3823C8.14685 22.4849 15.6923 25 25 25Z" fill="#081219"/>
<path d="M41.8532 10.9557C41.8532 9.40436 34.3078 8.14685 25 8.14685C15.6923 8.14685 8.14685 9.40436 8.14685 10.9557C8.14685 12.5071 15.6922 13.7646 25 13.7646C34.3079 13.7646 41.8532 12.507 41.8532 10.9557Z" fill="#081219"/>
</svg>
