<svg width="50" height="50" viewBox="0 0 50 50" fill="none" xmlns="http://www.w3.org/2000/svg">
<path d="M25 16.5734C25 21.2242 21.2242 25 16.5734 25C11.9226 25 8.14681 21.2242 8.14681 16.5734V8.14685L16.5734 8.14685C21.2242 8.14685 25 11.9227 25 16.5734Z" fill="#081219"/>
<path d="M33.4267 25C28.7759 25 25.0001 21.2242 25.0001 16.5734C25.0001 11.9226 28.7759 8.14681 33.4267 8.14681H41.8533V16.5734C41.8533 21.2242 38.0775 25 33.4267 25Z" fill="#081219"/>
<path d="M25 33.4266C25 28.7758 28.7758 25 33.4266 25C38.0774 25 41.8532 28.7758 41.8532 33.4266V41.8531H33.4266C28.7758 41.8531 25 38.0773 25 33.4266Z" fill="#081219"/>
<path d="M16.5733 25C21.2241 25 24.9999 28.7758 24.9999 33.4266C24.9999 38.0774 21.2241 41.8532 16.5733 41.8532H8.14673V33.4266C8.14673 28.7758 11.9225 25 16.5733 25Z" fill="#081219"/>
</svg>
