<svg width="50" height="50" viewBox="0 0 50 50" fill="none" xmlns="http://www.w3.org/2000/svg">
<path fill-rule="evenodd" clip-rule="evenodd" d="M42.8005 17.2631C42.8005 15.1579 41.205 13.4737 39.2105 13.4737C37.2161 13.4737 35.6205 15.1579 35.6205 17.2631C35.6205 18.6316 35.6205 23.8947 35.6205 25.2631C35.6205 27.3684 34.0249 29.0526 32.0305 29.0526C30.036 29.0526 28.4404 27.3684 28.4404 25.2631C28.4404 23.8947 28.4404 12.2105 28.4404 10.8421C28.4404 8.73682 26.8449 7.05261 24.8504 7.05261C22.8559 7.05261 21.2604 8.73682 21.2604 10.8421C21.2604 12.2105 21.2604 23.8947 21.2604 25.2631C21.2604 27.3684 19.6648 29.0526 17.6704 29.0526C15.6759 29.0526 14.0803 27.3684 14.0803 25.2631C14.0803 23.8947 14.0803 18.6316 14.0803 17.2631C14.0803 15.1579 12.4848 13.4737 10.4903 13.4737C8.49584 13.4737 6.90027 15.1579 6.90027 17.2631V36.421C6.90027 40 9.59279 42.8421 12.9834 42.8421H36.4183C39.8089 42.8421 42.5014 40 42.5014 36.421L42.8005 17.2631Z" fill="#081219"/>
</svg>
