<svg width="50" height="50" viewBox="0 0 50 50" fill="none" xmlns="http://www.w3.org/2000/svg">
<path fill-rule="evenodd" clip-rule="evenodd" d="M42.68 21.9585V20.8615H35.5055C33.7631 16.374 29.2534 13.1829 24.0263 13.1829C18.7991 13.1829 14.2894 16.374 12.547 20.8615H7.21741V21.9585H12.2396C12.1371 22.3574 12.0346 22.856 11.9321 23.2549H7.21741V24.3518H11.8296C11.8296 24.5513 11.8296 24.7507 11.8296 25.0499C11.8296 25.2493 11.8296 25.4488 11.8296 25.748H7.21741V26.8449H12.0346C12.1371 27.3435 12.2396 27.7424 12.3421 28.1413H7.21741V29.2383H12.6495C14.3919 33.7258 18.9016 36.9169 24.1288 36.9169C29.3559 36.9169 33.8656 33.7258 35.608 29.2383H42.7825V28.1413H36.018C36.1205 27.7424 36.2229 27.2438 36.3254 26.8449H42.885V25.748H36.5304C36.5304 25.5485 36.5304 25.3491 36.5304 25.0499C36.5304 24.7507 36.5304 24.651 36.5304 24.3518H42.885C42.9875 23.9529 42.885 23.2549 42.885 23.2549H36.2229C36.1205 22.7563 36.018 22.3574 35.9155 21.9585H42.68ZM24.1288 16.5734C27.306 16.5734 30.1759 18.2687 31.6108 20.7618H16.6468C18.0817 18.2687 20.849 16.5734 24.1288 16.5734ZM24.1288 33.4266C20.9515 33.4266 18.0817 31.7313 16.6468 29.2383H31.6108C30.0734 31.7313 27.306 33.4266 24.1288 33.4266ZM32.1232 28.0416H16.0318C15.8268 27.6427 15.7243 27.1441 15.6218 26.7452H32.5332C32.4307 27.2438 32.3282 27.6427 32.1232 28.0416ZM32.7382 25.0499C32.7382 25.2493 32.7382 25.4488 32.7382 25.748H15.5193C15.5193 25.5485 15.5193 25.3491 15.5193 25.0499C15.5193 24.7507 15.5193 24.651 15.5193 24.3518H32.7382C32.7382 24.5513 32.7382 24.7507 32.7382 25.0499ZM32.5332 23.2549H15.6218C15.7243 22.7563 15.8268 22.3574 16.0318 21.9585H32.1232C32.3282 22.3574 32.4307 22.7563 32.5332 23.2549Z" fill="#081219"/>
</svg>
