<svg width="50" height="50" viewBox="0 0 50 50" fill="none" xmlns="http://www.w3.org/2000/svg">
<path d="M40.2078 35.5208C40.108 32.0305 40.0083 28.5402 39.9086 25.0499C39.9086 23.2549 39.8089 21.5596 39.8089 19.7646C39.8089 18.9668 39.8089 18.2687 39.7091 17.4709C39.6094 16.8726 39.41 16.1745 38.9114 15.7756C38.4127 15.3767 37.9141 15.277 37.4155 15.277C37.4155 15.1773 37.4155 15.1773 37.4155 15.0776C37.4155 14.1801 37.4155 13.2826 37.2161 12.3851C36.9169 11.687 36.4183 10.9889 35.7202 10.59C34.9224 10.0914 33.9252 10.2909 33.1274 10.6898C32.4294 10.9889 31.831 11.3878 31.133 11.7867C30.5346 12.1856 29.9363 12.5845 29.338 12.9834C27.4432 14.2798 25.7479 15.6759 24.0526 17.072C24.1524 15.7756 24.2521 14.4792 24.2521 13.0831C24.2521 12.2853 24.2521 11.4876 23.6537 10.7895C23.1551 10.1912 22.2576 10.0914 21.5596 10.0914C20.6621 10.0914 19.8643 10.0914 18.9668 10.0914C18.0693 10.0914 17.2715 10.0914 16.374 10.1912C14.8781 10.1912 13.2825 10.1912 12.0859 11.0887C11.687 11.7867 11.3878 12.4848 11.2881 13.2826C11.0886 14.0804 11.0886 14.8781 10.9889 15.6759C10.7895 17.4709 10.6898 19.1662 10.59 20.9612C10.2909 24.4515 10.0914 27.9418 9.99169 31.4322C9.99169 32.3297 9.89197 33.2272 9.89197 34.1247C9.89197 34.723 9.89197 35.4211 9.89197 36.0194C9.99169 36.7175 10.0914 37.4155 10.4903 38.0139C10.8892 38.7119 11.5873 39.1108 12.2853 39.41C12.9834 39.6094 13.7812 39.6094 14.5789 39.7092C15.4765 39.7092 16.2742 39.8089 17.1717 39.8089C18.9668 39.9086 20.6621 39.9086 22.4571 39.9086C25.9474 39.9086 29.4377 39.8089 32.928 39.6094C33.8255 39.5097 34.723 39.5097 35.6205 39.41C36.4183 39.3103 37.3158 39.3103 38.1136 39.2105C38.9114 39.1108 39.6094 38.7119 40.0083 38.0139C40.2078 37.1164 40.2078 36.3186 40.2078 35.5208ZM35.9197 17.9695C35.9197 18.7673 35.9197 19.6648 35.9197 20.4626C35.9197 20.8615 35.9197 21.1607 35.9197 21.5596C35.9197 21.6593 35.9197 21.8587 35.9197 21.9585C35.9197 22.0582 35.9197 22.0582 35.9197 22.1579V22.2576C35.9197 22.2576 35.9197 22.2576 35.9197 22.3574C35.9197 22.4571 35.8199 22.6565 35.8199 22.7563C35.8199 22.856 35.8199 22.9557 35.7202 22.9557C35.7202 22.9557 35.7202 22.9557 35.7202 23.0554C35.7202 23.1551 35.6205 23.1551 35.6205 23.2549C35.6205 23.2549 35.6205 23.3546 35.5208 23.3546C35.5208 23.4543 35.4211 23.4543 35.4211 23.554L35.3213 23.6538C35.2216 23.7535 35.0222 23.8532 34.9224 23.8532H34.8227C34.723 23.8532 34.6233 23.9529 34.5236 23.9529C34.4238 23.9529 34.4238 23.9529 34.3241 23.9529C34.3241 23.9529 34.3241 23.9529 34.2244 23.9529C34.0249 23.9529 33.9252 23.9529 33.7258 23.9529C32.928 23.9529 32.2299 23.9529 31.4321 23.8532C30.7341 23.8532 29.9363 23.8532 29.2382 23.7535C29.1385 23.7535 29.1385 23.7535 29.0388 23.7535C28.9391 23.7535 28.7396 23.6538 28.6399 23.6538L28.5402 23.554C28.5402 23.554 28.3407 23.4543 28.4404 23.4543L28.3407 23.3546C28.3407 23.3546 28.3407 23.2549 28.241 23.2549V23.1551V23.0554V22.9557C28.241 22.856 28.241 22.856 28.3407 22.7563V22.6565C28.3407 22.5568 28.4404 22.4571 28.4404 22.4571C28.4404 22.4571 28.6399 22.2576 28.5402 22.3574C28.6399 22.2576 28.6399 22.2576 28.7396 22.1579C28.8393 22.0582 29.0388 21.8587 29.1385 21.759C29.2382 21.759 29.2382 21.6593 29.338 21.6593L29.4377 21.5596C29.6371 21.4599 29.7368 21.3601 29.9363 21.1607C30.5346 20.6621 31.2327 20.2632 31.831 19.7646C33.1274 18.8671 34.4238 18.0693 35.8199 17.2715C35.9197 17.1718 36.1191 17.1718 36.2188 17.072C35.9197 17.4709 35.9197 17.6704 35.9197 17.9695ZM21.9585 31.5319C21.9585 31.6316 21.9585 31.6316 21.9585 31.6316C21.9585 31.7313 21.9585 31.831 21.8587 31.831C21.8587 31.831 21.8587 31.831 21.8587 31.9308C21.8587 32.0305 21.759 32.0305 21.759 32.1302L21.6593 32.2299C21.6593 32.2299 21.5596 32.3297 21.4598 32.3297C21.4598 32.3297 21.3601 32.3297 21.3601 32.4294C21.2604 32.4294 21.2604 32.5291 21.1607 32.5291H21.0609C20.8615 32.6288 20.5623 32.6288 20.3629 32.7285C20.2632 32.7285 20.2632 32.7285 20.1634 32.7285H20.0637C19.8643 32.7285 19.6648 32.7285 19.4654 32.8283C19.0665 32.8283 18.7673 32.8283 18.3684 32.8283H18.2687C18.169 32.8283 18.0693 32.8283 17.9695 32.8283C17.7701 32.8283 17.5706 32.7285 17.3712 32.7285C17.1717 32.7285 17.072 32.6288 16.8726 32.6288C16.7729 32.6288 16.6731 32.6288 16.6731 32.5291H16.5734C16.4737 32.5291 16.2742 32.4294 16.1745 32.3297L15.9751 32.2299L15.8753 32.1302C15.7756 32.1302 15.7756 32.0305 15.7756 31.9308C15.7756 31.9308 15.7756 31.9308 15.6759 31.831C15.6759 31.7313 15.5762 31.7313 15.5762 31.6316V31.5319V31.4322C15.5762 31.3324 15.5762 31.3324 15.4765 31.2327V31.133C15.4765 30.9335 15.4765 30.8338 15.4765 30.6344V30.5346C15.4765 30.4349 15.4765 30.4349 15.4765 30.3352C15.4765 30.1358 15.5762 29.9363 15.6759 29.8366V29.7369V29.6371C15.6759 29.5374 15.7756 29.4377 15.7756 29.4377C15.8753 29.2382 15.9751 29.1385 16.0748 28.9391C16.7729 27.7424 17.5706 26.5457 18.3684 25.4488C18.5679 25.1496 18.7673 24.9502 18.9668 24.651C18.9668 24.651 18.9668 24.5513 19.0665 24.5513C19.0665 24.4515 19.1662 24.4515 19.1662 24.3518C19.2659 24.2521 19.3657 24.0526 19.4654 23.9529C19.8643 23.4543 20.3629 22.856 20.7618 22.3574C21.3601 21.6593 21.9585 21.061 22.5568 20.4626C22.4571 21.5596 22.4571 22.7563 22.3573 23.8532C22.2576 25.5485 22.1579 27.1441 22.0582 28.8394C22.0582 29.6371 21.9585 30.4349 21.9585 31.2327C21.9585 31.3324 21.9585 31.4322 21.9585 31.4322C22.0582 31.4322 21.9585 31.4322 21.9585 31.5319ZM38.9114 36.7175C38.9114 36.6177 38.9114 36.6177 38.9114 36.7175C38.9114 36.8172 38.9114 36.8172 38.9114 36.8172C38.9114 36.9169 38.9114 37.0166 38.8116 37.1164C38.8116 37.1164 38.8116 37.1164 38.8116 37.2161C38.8116 37.2161 38.8116 37.3158 38.7119 37.3158L38.6122 37.4155C38.6122 37.4155 38.6122 37.4155 38.5125 37.4155L38.4127 37.5153H38.313C38.1136 37.615 38.0139 37.615 37.8144 37.615H37.7147C37.615 37.615 37.5152 37.615 37.5152 37.615C37.3158 37.615 37.1163 37.615 36.9169 37.7147C33.626 38.0139 30.2355 38.1136 26.9446 38.2133C23.6537 38.313 20.2632 38.313 16.9723 38.1136C16.1745 38.1136 15.277 38.0139 14.4792 38.0139C14.2798 38.0139 14.1801 38.0139 13.9806 38.0139C13.8809 38.0139 13.7812 38.0139 13.6814 38.0139H13.5817C13.3823 38.0139 13.2825 37.9141 13.0831 37.9141C12.9834 37.9141 12.8837 37.9141 12.8837 37.8144H12.7839C12.7839 37.8144 12.7839 37.8144 12.6842 37.8144C12.5845 37.7147 12.385 37.7147 12.2853 37.615C12.1856 37.5153 12.1856 37.5153 12.0859 37.4155L11.9862 37.3158C11.9862 37.3158 11.9862 37.3158 11.9862 37.4155C11.9862 37.4155 11.9862 37.4155 11.8864 37.3158C11.8864 37.3158 11.8864 37.3158 11.8864 37.2161C11.7867 37.1164 11.7867 37.0166 11.687 36.9169V36.8172C11.687 36.7175 11.687 36.7175 11.5873 36.6177C11.5873 36.518 11.4875 36.3186 11.4875 36.2189C11.4875 36.1191 11.4875 36.0194 11.4875 36.0194C11.4875 35.82 11.4875 35.7202 11.4875 35.5208C11.4875 34.8227 11.4875 34.1247 11.4875 33.4266C11.4875 32.6288 11.5873 31.7313 11.5873 30.9335C11.687 29.2382 11.7867 27.6427 11.8864 25.9474C12.0859 22.6565 12.2853 19.2659 12.5845 15.9751C12.5845 15.5762 12.6842 15.1773 12.6842 14.6787C12.6842 14.4792 12.6842 14.3795 12.6842 14.1801C12.6842 14.1801 12.6842 14.1801 12.6842 14.0804C12.6842 13.9806 12.6842 13.8809 12.7839 13.7812C12.7839 13.5817 12.8837 13.482 12.8837 13.2826C12.5845 13.0831 12.6842 12.9834 12.6842 12.9834C12.6842 12.9834 12.6842 12.8837 12.7839 12.8837C12.7839 12.784 12.8837 12.784 12.8837 12.6842C12.8837 12.6842 12.9834 12.4848 12.8837 12.5845C12.9834 12.4848 12.9834 12.3851 13.0831 12.3851C13.0831 12.3851 13.0831 12.3851 13.1828 12.2853C13.2825 12.1856 13.3823 12.1856 13.482 12.0859C13.482 12.0859 13.5817 12.0859 13.5817 11.9862C13.6814 11.9862 13.7812 11.8864 13.7812 11.8864C13.8809 11.8864 14.0803 11.7867 14.1801 11.7867C14.2798 11.7867 14.2798 11.7867 14.3795 11.7867H14.4792C15.1773 11.687 15.8753 11.687 16.5734 11.687C18.2687 11.687 19.8643 11.5873 21.5596 11.5873C21.6593 11.5873 21.8587 11.5873 21.9585 11.5873C21.9585 11.5873 21.9585 11.5873 22.0582 11.5873C22.1579 11.5873 22.2576 11.5873 22.3573 11.687H22.4571C22.4571 11.687 22.5568 11.7867 22.5568 11.687H22.6565C22.6565 11.687 22.6565 11.7867 22.7562 11.7867C22.7562 11.8864 22.7562 11.8864 22.856 11.9862C22.856 11.9862 22.856 11.9862 22.856 12.0859C22.856 12.1856 22.856 12.2853 22.856 12.3851C22.856 12.784 22.856 13.1828 22.7562 13.482C22.6565 15.0776 22.5568 16.5734 22.4571 18.169L22.3573 18.2687C20.2632 20.3629 18.3684 22.5568 16.6731 24.9502C16.2742 25.5485 15.8753 26.1468 15.4765 26.7452C15.0776 27.3435 14.6787 27.9418 14.3795 28.6399C13.9806 29.338 13.7812 30.2355 13.7812 31.0333C13.8809 31.831 14.1801 32.5291 14.8781 33.0277C15.4765 33.5263 16.1745 33.7258 16.8726 33.8255C17.6704 34.0249 18.3684 34.1247 19.1662 34.0249C20.2632 33.9252 21.4598 33.8255 22.2576 33.0277C22.7562 32.5291 22.9557 31.831 23.0554 31.0333C23.0554 30.6344 23.0554 30.3352 23.0554 29.9363C23.0554 29.5374 23.1551 29.0388 23.1551 28.6399C23.3546 25.349 23.554 22.0582 23.7535 18.7673C24.651 17.9695 25.5485 17.072 26.5457 16.374C26.8449 16.1745 27.0443 15.9751 27.3435 15.6759C27.4432 15.6759 27.4432 15.5762 27.5429 15.5762L27.6427 15.4765C27.7424 15.3767 27.9418 15.277 28.0416 15.1773C28.5402 14.7784 29.1385 14.3795 29.7368 13.9806C30.8338 13.1828 32.0305 12.4848 33.2271 11.7867C33.3269 11.7867 33.4266 11.687 33.4266 11.687C33.4266 11.687 33.5263 11.687 33.5263 11.5873H33.626C33.8255 11.4876 33.9252 11.4876 34.1247 11.3878H34.2244H34.3241C34.4238 11.3878 34.5236 11.3878 34.5236 11.4876C34.5236 11.4876 34.6233 11.4876 34.6233 11.5873C34.6233 11.5873 34.723 11.5873 34.723 11.687L34.8227 11.7867C34.8227 11.7867 34.8227 11.7867 34.9224 11.8864C34.9224 11.9862 35.0222 11.9862 35.0222 12.0859C35.0222 12.0859 35.1219 12.1856 35.1219 12.2853V12.3851C35.1219 12.4848 35.1219 12.4848 35.2216 12.5845C35.2216 12.6842 35.2216 12.784 35.3213 12.784V12.8837V12.9834C35.9197 13.8809 35.9197 14.6787 35.9197 15.4765C35.9197 15.5762 35.9197 15.6759 35.9197 15.7756C35.3213 16.0748 34.723 16.374 34.1247 16.7729C32.7285 17.5707 31.3324 18.4682 29.9363 19.3657C29.2382 19.8643 28.5402 20.2632 27.9418 20.8615C27.3435 21.3601 26.8449 21.9585 26.6454 22.7563C26.446 23.554 26.8449 24.3518 27.5429 24.8504C28.1413 25.2493 28.8393 25.349 29.4377 25.349C30.2355 25.4488 31.0332 25.4488 31.831 25.4488C32.6288 25.4488 33.3269 25.5485 34.1247 25.4488C34.9224 25.349 35.6205 25.1496 36.2188 24.651C36.7175 24.1524 37.0166 23.4543 37.1163 22.7563C37.2161 21.9585 37.2161 21.2604 37.2161 20.4626C37.2161 19.5651 37.2161 18.7673 37.2161 17.8698C37.2161 17.4709 37.2161 17.1718 37.2161 16.7729C37.2161 16.7729 37.2161 16.7729 37.3158 16.7729C37.4155 16.7729 37.4155 16.7729 37.5152 16.7729H37.615C37.615 16.7729 37.615 16.7729 37.7147 16.7729C37.7147 16.7729 37.8144 16.7729 37.8144 16.8726L37.9141 16.9723C37.9141 16.9723 37.9141 16.9723 37.9141 17.072C37.9141 17.1718 38.0139 17.1718 38.0139 17.2715C38.0139 17.3712 38.1136 17.4709 38.1136 17.6704C38.1136 17.7701 38.1136 17.7701 38.1136 17.8698V17.9695C38.1136 18.2687 38.1136 18.5679 38.2133 18.9668C38.2133 19.7646 38.2133 20.6621 38.313 21.4599C38.4127 24.7507 38.5125 28.1413 38.6122 31.4322C38.6122 32.2299 38.6122 33.1274 38.7119 33.9252C38.7119 34.723 38.8116 35.5208 38.8116 36.3186C38.9114 36.4183 38.9114 36.518 38.9114 36.7175Z" fill="#081219"/>
</svg>
