<svg width="50" height="50" viewBox="0 0 50 50" fill="none" xmlns="http://www.w3.org/2000/svg">
<path d="M40.806 41.4044H40.3074C23.1551 41.205 9.19385 27.0443 9.19385 9.89198C9.19385 9.69253 9.19385 9.39337 9.19385 9.19392V8.6953L9.69246 8.59558H24.0526V9.0942C24.0526 9.29364 24.0526 9.59281 24.0526 9.79226C24.0526 18.7673 31.3324 26.2466 40.4071 26.446H40.9058L40.806 41.4044ZM10.1911 9.59281C10.1911 9.69253 10.1911 9.79226 10.1911 9.79226C10.1911 26.2466 23.4542 39.8089 39.8088 40.3075V27.543C30.5346 27.0443 22.9556 19.2659 22.9556 9.89198C22.9556 9.79226 22.9556 9.69253 22.9556 9.69253L10.1911 9.59281Z" fill="#081219"/>
</svg>
