<svg width="50" height="50" viewBox="0 0 50 50" fill="none" xmlns="http://www.w3.org/2000/svg">
<path fill-rule="evenodd" clip-rule="evenodd" d="M16.6135 15.4737C17.0983 15.4737 17.583 15.3684 18.0678 15.1579C22.3337 13.6842 25.3393 13.7895 29.2174 16.2105C30.09 16.7368 30.8656 17.0526 31.9321 17.0526C34.6468 17.0526 36.8767 14.6316 36.8767 11.6842C36.8767 8.73685 34.6468 6.3158 31.9321 6.3158C30.8656 6.3158 30.09 6.63159 29.2174 7.1579C25.3393 9.47369 22.3337 9.68422 18.0678 8.21053C17.583 7.89474 17.1952 7.78948 16.6135 7.78948C14.6745 7.78948 13.1232 9.47369 13.1232 11.579C13.0263 13.6842 14.6745 15.4737 16.6135 15.4737Z" fill="#081219"/>
<path fill-rule="evenodd" clip-rule="evenodd" d="M31.9322 19.579C30.8657 19.579 30.09 19.8948 29.2175 20.4211C25.3394 22.7369 22.3338 22.9474 18.0679 21.4737C17.5831 21.2632 17.1953 21.1579 16.6136 21.1579C14.6745 21.1579 13.1233 22.8421 13.1233 24.9474C13.1233 27.0527 14.6745 28.7369 16.6136 28.7369C17.0984 28.7369 17.5831 28.6316 18.0679 28.4211C22.3338 26.9474 25.3394 27.0527 29.2175 29.4737C30.09 30 30.8657 30.3158 31.9322 30.3158C34.6468 30.3158 36.8768 27.8948 36.8768 24.9474C36.8768 22 34.6468 19.579 31.9322 19.579Z" fill="#081219"/>
<path fill-rule="evenodd" clip-rule="evenodd" d="M31.9322 32.9474C30.8657 32.9474 30.09 33.2632 29.2175 33.7895C25.3394 36.1053 22.3338 36.3158 18.0679 34.8421C17.5831 34.6316 17.1953 34.5263 16.6136 34.5263C14.6745 34.5263 13.1233 36.2105 13.1233 38.3158C13.1233 40.4211 14.6745 42.2105 16.6136 42.2105C17.0984 42.2105 17.5831 42.1053 18.0679 41.8948C22.3338 40.4211 25.3394 40.5263 29.2175 42.9474C30.09 43.4737 30.8657 43.7895 31.9322 43.7895C34.6468 43.7895 36.8768 41.3684 36.8768 38.4211C36.8768 35.3684 34.6468 32.9474 31.9322 32.9474Z" fill="#081219"/>
</svg>
