<svg width="50" height="50" viewBox="0 0 50 50" fill="none" xmlns="http://www.w3.org/2000/svg">
<path d="M25.5485 40.5069H32.928L29.2382 34.1246L25.5485 40.5069ZM27.9418 39.2105L29.2382 36.9169L30.5346 39.2105H27.9418Z" fill="#081219"/>
<path d="M25.5485 32.1302H32.928L29.2382 25.7479L25.5485 32.1302ZM27.9418 30.7341L29.2382 28.4404L30.5346 30.7341H27.9418Z" fill="#081219"/>
<path d="M25.5485 23.7535H32.928L29.2382 17.3712L25.5485 23.7535ZM27.9418 22.3574L29.2382 20.0637L30.5346 22.3574H27.9418Z" fill="#081219"/>
<path d="M25.5485 15.3768H32.928L29.2382 8.99451L25.5485 15.3768ZM27.9418 13.9807L29.2382 11.687L30.6343 13.9807H27.9418Z" fill="#081219"/>
<path d="M34.1246 40.5069H41.5041L37.8144 34.1246L34.1246 40.5069ZM36.518 39.2105L37.8144 36.9169L39.1108 39.2105H36.518Z" fill="#081219"/>
<path d="M34.1246 32.1302H41.5041L37.8144 25.7479L34.1246 32.1302ZM36.518 30.7341L37.8144 28.4404L39.1108 30.7341H36.518Z" fill="#081219"/>
<path d="M34.1246 23.7535H41.5041L37.8144 17.3712L34.1246 23.7535ZM36.518 22.3574L37.8144 20.0637L39.1108 22.3574H36.518Z" fill="#081219"/>
<path d="M37.8144 8.99451L34.1246 15.3768H41.5041L37.8144 8.99451ZM36.518 13.9807L37.8144 11.687L39.2105 13.9807H36.518Z" fill="#081219"/>
<path d="M17.072 40.5069H24.4515L20.7618 34.1246L17.072 40.5069ZM19.3656 39.2105L20.662 36.9169L21.9584 39.2105H19.3656Z" fill="#081219"/>
<path d="M17.072 32.1302H24.4515L20.7618 25.7479L17.072 32.1302ZM19.3656 30.7341L20.662 28.4404L21.9584 30.7341H19.3656Z" fill="#081219"/>
<path d="M17.072 23.7535H24.4515L20.7618 17.3712L17.072 23.7535ZM19.3656 22.3574L20.662 20.0637L21.9584 22.3574H19.3656Z" fill="#081219"/>
<path d="M17.072 15.3768H24.4515L20.7618 8.99451L17.072 15.3768ZM19.3656 13.9807L20.662 11.687L22.0582 13.9807H19.3656Z" fill="#081219"/>
<path d="M8.49585 40.5069H15.8754L12.1856 34.1246L8.49585 40.5069ZM10.7895 39.2105L12.0859 36.9169L13.3823 39.2105H10.7895Z" fill="#081219"/>
<path d="M8.49585 32.1302H15.8754L12.1856 25.7479L8.49585 32.1302ZM10.7895 30.7341L12.0859 28.4404L13.3823 30.7341H10.7895Z" fill="#081219"/>
<path d="M8.49585 23.7535H15.8754L12.1856 17.3712L8.49585 23.7535ZM10.7895 22.3574L12.0859 20.0637L13.3823 22.3574H10.7895Z" fill="#081219"/>
<path d="M8.49585 15.3768H15.8754L12.1856 8.99451L8.49585 15.3768ZM10.7895 13.9807L12.0859 11.687L13.482 13.9807H10.7895Z" fill="#081219"/>
</svg>
