<svg width="50" height="50" viewBox="0 0 50 50" fill="none" xmlns="http://www.w3.org/2000/svg">
<path fill-rule="evenodd" clip-rule="evenodd" d="M26.3462 7.19946C20.7618 7.19946 15.277 7.19946 9.6925 7.19946C9.6925 15.0776 9.6925 23.0554 9.6925 30.9335V36.1191C9.6925 39.0111 12.0859 41.4044 14.9778 41.4044C17.8698 41.4044 20.2631 39.0111 20.2631 36.1191V32.5291V30.9335V28.7396C20.4626 28.7396 22.1579 28.7396 22.1579 28.7396V38.2133C22.1579 40.7064 24.2521 42.8006 26.7451 42.8006C29.2382 42.8006 31.3324 40.7064 31.3324 38.2133V34.3241H32.2299V36.3186C32.2299 38.5125 34.0249 40.3075 36.2188 40.3075C38.4127 40.3075 40.2077 38.5125 40.2077 36.3186C40.2077 31.2327 40.2077 26.1468 40.2077 21.1607C40.3075 13.482 34.0249 7.19946 26.3462 7.19946Z" fill="#081219"/>
</svg>
