<svg width="50" height="50" viewBox="0 0 50 50" fill="none" xmlns="http://www.w3.org/2000/svg">
<path fill-rule="evenodd" clip-rule="evenodd" d="M43.295 19.3657C43.295 17.2715 43.295 15.1773 43.295 13.0831C43.295 9.79226 40.5277 7.19946 37.2479 7.19946C33.8656 7.19946 31.2008 9.89198 31.2008 13.0831C31.2008 15.1773 31.2008 17.2715 31.2008 19.3657C31.2008 22.6565 28.4335 25.2493 25.1537 25.2493C21.7715 25.2493 19.1066 22.5568 19.1066 19.3657C19.1066 17.2715 19.1066 15.1773 19.1066 13.0831C19.1066 9.79226 16.3393 7.19946 13.0595 7.19946C9.67727 7.19946 7.01245 9.89198 7.01245 13.0831V42.7008H43.6025C43.295 42.8006 43.295 22.6565 43.295 19.3657Z" fill="#081219"/>
</svg>
