<svg width="50" height="50" viewBox="0 0 50 50" fill="none" xmlns="http://www.w3.org/2000/svg">
<path fill-rule="evenodd" clip-rule="evenodd" d="M31.8311 32.8421C31.8311 34.8421 31.3325 36.7368 30.4349 38.421C27.543 43.6842 21.061 45.5789 16.0748 42.5263C11.0887 39.4737 9.29367 32.6316 12.1856 27.3684C13.0831 25.6842 14.4793 24.2105 16.0748 23.2632C20.9613 20.3158 22.5568 17.6842 24.1524 12C25.5485 7.05263 31.0333 4.63157 35.3214 7.26315C39.5097 9.89473 40.4072 15.8947 37.2161 19.6842C33.2272 24.2105 31.8311 26.3158 31.8311 32.8421ZM24.1524 27.5789C27.0444 29.2632 27.9419 33.1579 26.3463 36.2105C24.651 39.2632 21.061 40.2105 18.169 38.5263C15.277 36.7368 14.3795 32.9474 15.9751 29.8947C17.6704 26.8421 21.3602 25.8947 24.1524 27.5789Z" fill="#081219"/>
</svg>
