<svg width="50" height="50" viewBox="0 0 50 50" fill="none" xmlns="http://www.w3.org/2000/svg">
<path d="M39.7092 27.921C39.5098 24.9487 38.712 21.9764 37.4156 19.2091C36.3186 16.8518 34.8228 14.5969 32.928 12.7521C32.0305 11.8296 30.9336 11.1122 29.8366 10.4972C27.4433 9.06232 24.7507 8.44736 21.9585 8.75484C19.266 8.95983 16.6732 9.98476 14.4793 11.6246C12.4848 13.2645 10.8893 15.5194 10.3906 17.9792C10.0915 19.3116 10.0915 20.644 10.3906 21.874C10.6898 23.1039 11.1884 24.2313 11.9862 25.2562C12.784 26.2812 13.6815 27.2036 14.7784 27.921C15.9751 28.6385 17.2715 29.2535 18.6676 29.4584C19.6649 29.6634 20.7618 29.7659 21.7591 29.7659C21.7591 30.5859 21.7591 31.3033 21.7591 32.1233C21.7591 32.9432 21.7591 33.7632 21.7591 34.5831C21.7591 35.403 21.7591 36.1205 21.7591 36.9404C21.7591 37.6579 21.8588 38.3753 22.2577 39.0928C22.5568 39.7078 23.0555 40.1177 23.5541 40.5277C24.651 41.1427 25.9474 41.2451 27.2438 41.3476C28.9391 41.4501 30.5347 41.5526 32.23 41.3476C33.6261 41.1427 34.9225 40.7327 36.1192 39.9127C37.3158 39.0928 38.1136 38.0679 38.712 36.7355C39.3103 35.403 39.5098 33.9681 39.7092 32.4307C39.7092 30.8933 39.8089 29.3559 39.7092 27.921ZM13.2826 14.187C13.1829 14.2895 13.2826 14.2895 13.2826 14.187V14.187ZM20.9613 24.8463C20.8616 24.8463 20.8616 24.8463 20.8616 24.7438C20.5624 24.6413 20.3629 24.4363 20.1635 24.3338C20.1635 24.3338 20.0638 24.3338 20.0638 24.2313L19.964 24.1288C19.8643 24.0263 19.7646 23.9238 19.6649 23.8213C19.5652 23.7188 19.4654 23.6163 19.3657 23.5138L19.266 23.4114C19.266 23.3089 19.1663 23.3089 19.1663 23.2064C18.9668 23.0014 18.8671 22.6939 18.7674 22.4889V22.3864C18.7674 22.2839 18.6676 22.2839 18.6676 22.1814C18.6676 22.0789 18.5679 21.874 18.5679 21.7715C18.5679 21.669 18.4682 21.464 18.4682 21.3615C18.4682 21.3615 18.4682 21.3615 18.4682 21.259C18.4682 21.1565 18.4682 21.054 18.4682 21.054C18.4682 20.7465 18.4682 20.4391 18.4682 20.2341V20.1316C18.4682 20.0291 18.4682 20.0291 18.4682 19.9266C18.4682 19.8241 18.5679 19.6191 18.5679 19.5166C18.5679 19.4141 18.6676 19.2091 18.6676 19.1066V19.0041C18.6676 18.9017 18.7674 18.9017 18.7674 18.7992C18.8671 18.4917 19.0665 18.2867 19.1663 18.0817C19.1663 17.9792 19.266 17.9792 19.266 17.8767C19.266 17.8767 19.266 17.7742 19.3657 17.7742C19.4654 17.6717 19.5652 17.5692 19.6649 17.4668C19.8643 17.2618 20.0638 17.0568 20.2632 16.8518H20.3629C20.3629 16.8518 20.3629 16.8518 20.4627 16.7493C20.5624 16.7493 20.5624 16.6468 20.6621 16.6468C20.7618 16.5443 20.8616 16.4418 21.061 16.4418C21.3602 16.2368 21.5596 16.2368 21.8588 16.1343C22.1579 16.0318 22.4571 15.9294 22.856 15.9294C22.9557 15.9294 22.9557 15.9294 23.0555 15.9294H23.1552H23.2549C23.4543 15.9294 23.5541 15.9294 23.7535 15.9294C24.4516 15.9294 24.9502 16.0318 25.5485 16.1343C25.6483 16.1343 25.8477 16.2368 25.9474 16.2368C26.0471 16.2368 26.1469 16.3393 26.1469 16.3393C26.2466 16.3393 26.2466 16.3393 26.3463 16.4418C26.6455 16.5443 26.9447 16.7493 27.1441 16.9543C27.2438 17.0568 27.3435 17.1593 27.543 17.1593C27.543 17.1593 27.543 17.1593 27.6427 17.2618C27.7424 17.3643 27.7424 17.3643 27.8422 17.4668C28.0416 17.6717 28.2411 17.8767 28.4405 18.0817C28.5402 18.1842 28.6399 18.2867 28.7397 18.3892C28.7397 18.3892 28.7397 18.3892 28.8394 18.4917C28.9391 18.5942 28.9391 18.5942 29.0388 18.6967C29.2383 18.9017 29.338 19.2091 29.5375 19.5166C29.8366 20.0291 30.0361 20.5415 30.1358 21.1565C30.1358 21.259 30.2355 21.464 30.2355 21.5665C30.2355 21.669 30.2355 21.669 30.2355 21.7715V21.874V21.9764C30.2355 22.2839 30.3352 22.5914 30.2355 23.0014C30.2355 23.2064 30.2355 23.3089 30.2355 23.5138C30.2355 23.6163 30.2355 23.6163 30.2355 23.7188V23.8213C30.1358 24.1288 30.1358 24.4363 30.0361 24.7438C30.0361 24.8463 29.9363 24.9487 29.9363 24.9487V25.0512C29.8366 25.2562 29.8366 25.3587 29.7369 25.5637C29.6372 25.6662 29.5375 25.8712 29.5375 25.9737L29.4377 26.0762L29.338 26.1787L29.2383 26.2812C29.0388 26.4861 28.8394 26.6911 28.6399 26.8961C28.5402 26.8961 28.5402 26.9986 28.4405 26.9986C28.4405 26.9986 28.4405 26.9986 28.3408 26.9986L28.2411 27.1011C28.1413 27.2036 27.9419 27.3061 27.8422 27.4086C27.543 27.6136 27.3435 27.7161 27.0444 27.8186C26.9447 27.921 26.7452 27.921 26.6455 28.0235C26.5458 28.0235 26.446 28.126 26.2466 28.126C25.1496 28.536 23.953 28.8435 22.856 28.946C22.856 28.6385 22.856 28.4335 22.856 28.126C22.856 27.5111 22.856 26.8961 22.856 26.2812C23.3546 26.2812 23.7535 26.1787 24.1524 26.0762C25.3491 25.6662 26.3463 24.8463 26.9447 23.8213C27.543 22.5914 27.6427 20.9515 26.6455 19.8241C25.8477 18.9017 24.3519 18.5942 23.2549 19.3116C22.2577 20.0291 21.9585 21.3615 21.9585 22.5914C21.9585 23.3089 21.9585 24.1288 21.9585 24.8463C21.9585 25.0512 21.9585 25.1537 21.9585 25.3587C21.8588 25.3587 21.7591 25.3587 21.5596 25.2562C21.4599 25.2562 21.2604 25.1537 21.1607 25.1537C21.061 24.9487 21.061 24.8463 20.9613 24.8463ZM22.9557 21.7715C22.9557 21.669 22.9557 21.5665 22.9557 21.5665C22.9557 21.259 23.0555 21.054 23.1552 20.7465V20.644C23.1552 20.5415 23.2549 20.5415 23.2549 20.4391C23.2549 20.3366 23.3546 20.3366 23.3546 20.2341C23.3546 20.2341 23.3546 20.2341 23.3546 20.1316L23.4543 20.0291C23.4543 20.0291 23.4543 20.0291 23.5541 19.9266L23.6538 19.8241H23.7535C23.8532 19.8241 23.8532 19.7216 23.953 19.7216H24.0527C24.1524 19.7216 24.1524 19.7216 24.2521 19.6191C24.3519 19.6191 24.3519 19.6191 24.4516 19.6191H24.5513C24.651 19.6191 24.651 19.6191 24.7507 19.6191H24.8505C24.9502 19.6191 25.1496 19.7216 25.2494 19.7216H25.3491C25.4488 19.7216 25.4488 19.8241 25.5485 19.8241C25.6483 19.8241 25.6483 19.9266 25.748 19.9266L25.8477 20.0291C25.9474 20.1316 26.0471 20.2341 26.1469 20.3366C26.1469 20.3366 26.1469 20.4391 26.2466 20.4391C26.2466 20.5415 26.3463 20.5415 26.3463 20.644C26.3463 20.644 26.3463 20.7465 26.446 20.7465C26.446 20.849 26.5458 20.849 26.5458 20.9515C26.5458 21.054 26.5458 21.054 26.6455 21.1565V21.259C26.6455 21.259 26.6455 21.259 26.6455 21.3615C26.7452 21.9764 26.5458 22.5914 26.3463 23.1039C26.2466 23.2064 26.2466 23.3089 26.1469 23.5138C26.1469 23.6163 26.0471 23.6163 26.0471 23.7188L25.9474 23.8213C25.748 24.0263 25.5485 24.2313 25.3491 24.3338L25.2494 24.4363C25.1496 24.4363 25.1496 24.5388 25.0499 24.5388C24.9502 24.6413 24.7507 24.7438 24.651 24.7438C24.5513 24.7438 24.5513 24.8463 24.4516 24.8463C24.4516 24.8463 24.3519 24.8463 24.3519 24.9487C24.0527 24.8463 23.953 24.9487 23.7535 24.9487C23.6538 24.9487 23.4543 25.0512 23.3546 25.0512C23.2549 25.0512 23.2549 25.0512 23.1552 25.0512H23.0555C22.9557 25.0512 22.856 25.0512 22.7563 25.0512C22.7563 24.4363 22.7563 23.7188 22.7563 23.1039C22.7563 22.7964 22.7563 22.4889 22.7563 22.1814C22.856 22.0789 22.856 21.9764 22.9557 21.7715ZM24.4516 19.6191C24.3519 19.6191 24.3519 19.6191 24.4516 19.6191V19.6191ZM38.712 31.9183C38.6122 33.2507 38.4128 34.5831 37.9142 35.813C37.8145 36.1205 37.7147 36.3255 37.615 36.633C37.5153 36.9404 37.3158 37.2479 37.1164 37.4529C36.917 37.7604 36.8172 37.8629 36.5181 38.1704C36.4183 38.2728 36.3186 38.3753 36.2189 38.4778C36.1192 38.5803 36.1192 38.5803 36.0194 38.6828C36.0194 38.6828 36.0194 38.6828 35.9197 38.7853C35.9197 38.7853 35.82 38.7853 35.82 38.8878C35.6206 39.0928 35.3214 39.2978 35.0222 39.4003C34.9225 39.5028 34.723 39.5028 34.6233 39.6053C34.5236 39.6053 34.5236 39.7078 34.4239 39.7078H34.3242C34.3242 39.7078 34.3242 39.7078 34.2244 39.7078C33.6261 39.9127 33.0278 40.1177 32.3297 40.2202C30.8339 40.5277 29.338 40.4252 27.8422 40.3227C27.4433 40.3227 27.1441 40.2202 26.7452 40.2202C26.6455 40.2202 26.446 40.2202 26.3463 40.2202C26.2466 40.2202 26.2466 40.2202 26.1469 40.2202H26.0471H25.9474C25.6483 40.2202 25.3491 40.1177 25.1496 40.0152C25.0499 40.0152 24.8505 39.9127 24.7507 39.9127C24.651 39.9127 24.651 39.9127 24.5513 39.8102H24.4516H24.3519C24.1524 39.7078 23.8532 39.6053 23.6538 39.4003C23.6538 39.4003 23.6538 39.4003 23.5541 39.2978L23.4543 39.1953L23.3546 39.0928C23.3546 39.0928 23.3546 39.0928 23.2549 38.9903C23.2549 38.9903 23.2549 38.9903 23.2549 38.8878C23.1552 38.7853 23.0555 38.5803 23.0555 38.4778V38.3753C23.0555 38.2729 22.9557 38.1704 22.9557 38.0679C22.9557 37.9654 22.856 37.7604 22.856 37.6579V37.5554C22.856 37.4529 22.856 37.3504 22.856 37.2479C22.7563 36.5305 22.856 35.813 22.856 35.0956C22.856 34.2756 22.856 33.4557 22.856 32.7382C22.856 31.7133 22.856 30.6884 22.856 29.7659C22.9557 29.7659 23.0555 29.7659 23.1552 29.7659C24.5513 29.5609 25.9474 29.2535 27.2438 28.6385C28.4405 28.126 29.5375 27.2036 30.3352 26.0762C31.133 24.8463 31.4322 23.4114 31.3325 21.9764C31.133 19.3116 29.6372 16.6468 27.2438 15.3144C26.0471 14.6994 24.5513 14.2895 23.2549 14.4945C21.8588 14.5969 20.5624 15.1094 19.5652 16.1343C18.6676 16.9543 17.8699 18.1842 17.6704 19.4141C17.3712 20.644 17.5707 21.9764 18.169 23.2064C18.6676 24.3338 19.6649 25.2562 20.7618 25.7687C21.1607 25.9737 21.6593 26.0762 22.0582 26.1787C22.0582 26.4861 22.0582 26.8961 22.0582 27.2036C22.0582 27.8186 22.0582 28.331 22.0582 28.946C21.5596 28.946 21.061 28.946 20.5624 28.946C19.964 28.8435 19.266 28.741 18.6676 28.6385C17.0721 28.126 15.9751 27.6136 14.9779 26.8961C14.8782 26.8961 14.8782 26.7936 14.7784 26.7936C14.7784 26.7936 14.6787 26.7936 14.6787 26.6911C14.579 26.5886 14.4793 26.4861 14.2798 26.3837C14.0804 26.1787 13.8809 25.9737 13.6815 25.7687C13.482 25.5637 13.2826 25.3587 13.0832 25.0512C13.0832 25.0512 13.0832 25.0512 12.9834 24.9487C12.9834 24.8463 12.8837 24.8463 12.8837 24.7438C12.784 24.6413 12.6843 24.4363 12.5845 24.3338C12.3851 24.1288 12.2854 23.8213 12.0859 23.6163C12.0859 23.5138 11.9862 23.4114 11.9862 23.2064C11.9862 23.1039 11.8865 23.1039 11.8865 23.0014V22.8989V22.7964C11.687 22.2839 11.4876 21.669 11.3879 21.054C11.3879 20.9515 11.3879 20.9515 11.3879 20.849V20.7465C11.3879 20.7465 11.3879 20.7465 11.3879 20.644C11.3879 20.4391 11.3879 20.3366 11.3879 20.1316C11.3879 19.8241 11.3879 19.5166 11.3879 19.2091C11.3879 19.1066 11.3879 18.9017 11.3879 18.7992C11.3879 18.6967 11.3879 18.6967 11.3879 18.5942V18.4917V18.3892C11.3879 18.0817 11.4876 17.7742 11.5873 17.4668C11.687 17.1593 11.7868 16.8518 11.8865 16.6468C11.8865 16.5443 11.9862 16.5443 11.9862 16.4418V16.3393V16.2368V16.1343V16.0319C11.9862 15.9294 12.0859 15.8269 12.0859 15.8269C12.3851 15.3144 12.6843 14.8019 12.9834 14.2895C13.0832 14.187 13.1829 14.0845 13.2826 13.8795C13.2826 13.8795 13.2826 13.777 13.3823 13.777C13.482 13.6745 13.482 13.6745 13.5818 13.572C13.6815 13.6745 13.8809 13.4695 14.0804 13.2645C14.2798 13.0596 14.579 12.8546 14.7784 12.6496C14.8782 12.5471 14.9779 12.4446 15.0776 12.3421C15.1773 12.3421 15.1773 12.2396 15.2771 12.2396C15.2771 12.2396 15.2771 12.2396 15.3768 12.1371C15.3768 12.1371 15.4765 12.1371 15.4765 12.0346C15.9751 11.6246 16.4737 11.3172 17.0721 11.0097C17.3712 10.9072 17.6704 10.7022 17.9696 10.5997C17.8699 10.5997 17.9696 10.5997 18.0693 10.5997C18.0693 10.5997 18.0693 10.5997 18.169 10.5997H18.2688C18.3685 10.4972 18.5679 10.4972 18.6676 10.3947C19.266 10.1897 19.8643 9.98476 20.4627 9.88227C20.6621 9.88227 20.7618 9.77977 20.9613 9.77977C21.061 9.77977 21.1607 9.77977 21.1607 9.77977H21.2604H21.3602C21.6593 9.57479 21.9585 9.57479 22.2577 9.57479C22.856 9.57479 23.5541 9.57479 24.1524 9.57479C24.7507 9.67728 25.3491 9.67728 25.9474 9.88227C26.5458 9.98476 27.1441 10.1897 27.7424 10.3947C27.9419 10.4972 28.2411 10.5997 28.5402 10.7022C28.8394 10.8047 29.1386 11.0097 29.4377 11.2147C29.9363 11.5222 30.5347 11.8296 31.0333 12.2396L31.133 12.3421C31.2327 12.3421 31.2327 12.4446 31.3325 12.4446C31.4322 12.5471 31.5319 12.6496 31.7314 12.7521C31.9308 12.9571 32.23 13.162 32.4294 13.367C33.3269 14.2895 34.1247 15.2119 34.8228 16.1343C35.5208 17.1593 36.1192 18.2867 36.7175 19.4141C36.8172 19.7216 37.0167 20.0291 37.1164 20.2341C37.2161 20.4391 37.3158 20.7465 37.4156 21.054C37.7147 21.7715 37.9142 22.3864 38.1136 23.1039C38.5125 24.5388 38.712 25.8712 38.9114 27.3061C38.8117 28.946 38.8117 30.4834 38.712 31.9183Z" fill="#081219"/>
</svg>
