<svg width="50" height="50" viewBox="0 0 50 50" fill="none" xmlns="http://www.w3.org/2000/svg">
<path fill-rule="evenodd" clip-rule="evenodd" d="M41.8601 30.7687L41.7576 30.6718C42.4751 28.9266 42.7826 26.9876 42.7826 24.9516C42.7826 22.9156 42.3726 21.0734 41.7576 19.2313L41.8601 19.1344C42.885 18.5527 43.295 17.2923 42.6801 16.2258L41.7576 14.6746C41.1427 13.705 39.8102 13.3172 38.6828 13.8989L38.5803 13.9959C35.3006 10.5056 30.4834 8.17871 24.9488 8.17871C19.4141 8.17871 14.6994 10.5056 11.4197 14.0928L11.3172 13.9959C10.2922 13.4142 8.85734 13.802 8.24238 14.7715L7.31994 16.3228C6.70498 17.2923 7.11496 18.6496 8.13989 19.2313L8.24238 19.3283C7.52493 21.0734 7.21745 23.0125 7.21745 25.0485C7.21745 27.0845 7.62742 28.9266 8.24238 30.7687H8.13989C7.11496 31.3505 6.70498 32.6108 7.31994 33.6773L8.24238 35.2286C8.85734 36.1981 10.1897 36.5859 11.3172 36.0042L11.4197 35.9072C14.6994 39.4945 19.5166 41.8214 24.9488 41.8214C30.3809 41.8214 35.3006 39.4945 38.4778 35.9072L38.5803 36.0042C39.6053 36.5859 41.0402 36.1981 41.6551 35.2286L42.5776 33.6773C43.295 32.6108 42.9875 31.3505 41.8601 30.7687Z" fill="#081219"/>
</svg>
