<svg width="50" height="50" viewBox="0 0 50 50" fill="none" xmlns="http://www.w3.org/2000/svg">
<path fill-rule="evenodd" clip-rule="evenodd" d="M25.0499 7.19946C16.6731 7.19946 9.79224 14.0803 9.79224 22.3574V42.7008H40.2078V22.3574C40.2078 14.0803 33.3269 7.19946 25.0499 7.19946ZM16.1745 40.5069C14.4792 40.5069 13.1828 39.2105 13.1828 37.5153C13.1828 35.82 14.4792 34.5236 16.1745 34.5236C17.8698 34.5236 19.1662 35.82 19.1662 37.5153C19.1662 39.2105 17.7701 40.5069 16.1745 40.5069ZM24.651 40.5069C22.9557 40.5069 21.6593 39.2105 21.6593 37.5153C21.6593 35.82 22.9557 34.5236 24.651 34.5236C26.3463 34.5236 27.6427 35.82 27.6427 37.5153C27.6427 39.2105 26.2465 40.5069 24.651 40.5069ZM33.0277 40.5069C31.3324 40.5069 30.036 39.2105 30.036 37.5153C30.036 35.82 31.3324 34.5236 33.0277 34.5236C34.723 34.5236 36.0194 35.82 36.0194 37.5153C36.0194 39.2105 34.723 40.5069 33.0277 40.5069Z" fill="#081219"/>
</svg>
