<svg width="50" height="50" viewBox="0 0 50 50" fill="none" xmlns="http://www.w3.org/2000/svg">
<path d="M14.3795 11.8864V9.49304H12.4848V11.8864H10.0914V13.6814H12.4848V16.0748H14.3795V13.6814H16.7729V11.8864H14.3795Z" fill="#081219"/>
<path d="M14.3795 21.6593H12.4848V24.0527H10.0914V25.9474H12.4848V28.3407H14.3795V25.9474H16.7729V24.0527H14.3795V21.6593Z" fill="#081219"/>
<path d="M14.3795 33.9252H12.4848V36.3185H10.0914V38.1135H12.4848V40.5069H14.3795V38.1135H16.7729V36.3185H14.3795V33.9252Z" fill="#081219"/>
<path d="M25.9474 11.8864V9.49304H24.0527V11.8864H21.6593V13.6814H24.0527V16.0748H25.9474V13.6814H28.3407V11.8864H25.9474Z" fill="#081219"/>
<path d="M25.9474 21.6593H24.0527V24.0527H21.6593V25.9474H24.0527V28.3407H25.9474V25.9474H28.3407V24.0527H25.9474V21.6593Z" fill="#081219"/>
<path d="M25.9474 33.9252H24.0527V36.3185H21.6593V38.1135H24.0527V40.5069H25.9474V38.1135H28.3407V36.3185H25.9474V33.9252Z" fill="#081219"/>
<path d="M37.5153 11.8864V9.49304H35.6205V11.8864H33.2272V13.6814H35.6205V16.0748H37.5153V13.6814H39.9086V11.8864H37.5153Z" fill="#081219"/>
<path d="M37.5153 21.6593H35.6205V24.0527H33.2272V25.9474H35.6205V28.3407H37.5153V25.9474H39.9086V24.0527H37.5153V21.6593Z" fill="#081219"/>
<path d="M37.5153 33.9252H35.6205V36.3185H33.2272V38.1135H35.6205V40.5069H37.5153V38.1135H39.9086V36.3185H37.5153V33.9252Z" fill="#081219"/>
</svg>
