<svg width="50" height="50" viewBox="0 0 50 50" fill="none" xmlns="http://www.w3.org/2000/svg">
<path d="M9.26129 19.6754C10.3038 19.6754 11.1501 20.5218 11.1501 21.5643V30.3246H7.37244V21.5643C7.37244 20.5218 8.21879 19.6754 9.26129 19.6754Z" fill="#081219"/>
<path d="M13.196 19.6754C14.2385 19.6754 15.0848 20.5218 15.0848 21.5643V30.3246H11.307V21.5644C11.307 20.5219 12.1534 19.6754 13.196 19.6754Z" fill="#081219"/>
<path d="M17.1307 19.6754C18.1732 19.6754 19.0196 20.5218 19.0196 21.5644V30.3246H15.2418V21.5644C15.2418 20.5219 16.0881 19.6754 17.1307 19.6754Z" fill="#081219"/>
<path d="M21.0653 19.6754C22.1078 19.6754 22.9542 20.5218 22.9542 21.5643V30.3246H19.1764V21.5643C19.1764 20.5218 20.0228 19.6754 21.0653 19.6754Z" fill="#081219"/>
<path d="M24.9999 19.6754C26.0424 19.6754 26.8888 20.5218 26.8888 21.5643V30.3246H23.111V21.5644C23.111 20.5219 23.9573 19.6754 24.9999 19.6754Z" fill="#081219"/>
<path d="M28.9346 19.6754C29.9771 19.6754 30.8236 20.5218 30.8236 21.5644V30.3246H27.0458V21.5644C27.0458 20.5219 27.892 19.6754 28.9346 19.6754Z" fill="#081219"/>
<path d="M32.8693 19.6754C33.9118 19.6754 34.7582 20.5218 34.7582 21.5643V30.3246H30.9803V21.5643C30.9803 20.5218 31.8268 19.6754 32.8693 19.6754Z" fill="#081219"/>
<path d="M36.804 19.6754C37.8465 19.6754 38.6928 20.5218 38.6928 21.5643V30.3246H34.915V21.5644C34.915 20.5219 35.7614 19.6754 36.804 19.6754Z" fill="#081219"/>
<path d="M40.7387 19.6754C41.7812 19.6754 42.6277 20.5218 42.6277 21.5644V30.3246H38.8499V21.5644C38.8499 20.5219 39.6961 19.6754 40.7387 19.6754Z" fill="#081219"/>
</svg>
