<svg width="50" height="50" viewBox="0 0 50 50" fill="none" xmlns="http://www.w3.org/2000/svg">
<path d="M38.8117 17.2714L36.0194 13.5817C34.4239 11.5872 32.23 10.0914 29.6372 9.2936C22.0582 7.19942 13.2826 11.5872 9.99174 19.1662C8.29645 22.9557 8.29645 27.144 9.89201 30.5346C10.2909 31.3324 10.6898 32.0304 11.2881 32.7285L13.9807 36.4183C15.5762 38.5124 17.7701 39.9086 20.3629 40.7064C21.6593 41.1052 22.9557 41.205 24.2521 41.205C30.6344 41.205 37.2161 37.1163 40.0084 30.8338C42.1025 26.0471 41.7036 20.9612 38.8117 17.2714ZM11.7868 19.964C14.2798 14.3795 19.964 10.7894 25.6482 10.7894C26.7452 10.7894 27.9419 10.8892 29.0388 11.2881C31.2327 11.8864 33.1275 13.1828 34.4239 14.8781C34.723 15.1773 34.9225 15.5762 35.1219 15.975C35.2217 16.0748 35.2217 16.2742 35.3214 16.3739C35.4211 16.5734 35.5208 16.8726 35.7203 17.1717C35.82 17.3712 35.9197 17.5706 35.9197 17.6703C36.0194 17.9695 36.1192 18.2687 36.2189 18.5678C36.2189 18.6676 36.3186 18.867 36.3186 18.9667C36.4183 19.3656 36.5181 19.8642 36.5181 20.3629V20.4626C36.5181 20.8615 36.5181 21.2604 36.5181 21.759C36.5181 21.8587 36.5181 21.9584 36.5181 22.0581C36.5181 22.457 36.4183 22.7562 36.4183 23.1551C36.4183 23.2548 36.4183 23.4543 36.3186 23.554C36.2189 23.9529 36.1192 24.2521 36.0194 24.6509C36.0194 24.7507 35.9197 24.9501 35.9197 25.0498C35.7203 25.5485 35.6205 26.0471 35.4211 26.446C35.2217 26.8449 35.0222 27.2437 34.8228 27.6426C32.1302 32.3296 27.0444 35.421 21.9585 35.6205C21.061 35.6205 20.1635 35.6205 19.266 35.421C18.8671 35.3213 18.5679 35.3213 18.169 35.2216C17.8699 35.1219 17.471 35.0221 17.1718 34.9224C17.0721 34.9224 16.9723 34.8227 16.8726 34.8227C16.6732 34.723 16.374 34.6232 16.1746 34.5235C16.0748 34.5235 15.9751 34.4238 15.8754 34.4238C15.5762 34.2244 15.2771 34.1246 15.0776 33.9252C14.7784 33.7257 14.579 33.5263 14.2798 33.3268C14.1801 33.2271 14.1801 33.2271 14.0804 33.1274C13.8809 32.928 13.6815 32.8282 13.5818 32.6288C13.482 32.5291 13.482 32.5291 13.3823 32.4293C13.1829 32.2299 12.9834 31.9307 12.784 31.7313C12.2854 30.9335 11.9862 30.3352 11.687 29.6371C10.2909 26.7451 10.2909 23.3545 11.7868 19.964ZM38.2133 30.036C35.2217 36.7174 27.543 40.6066 21.061 38.8116C19.6649 38.4127 18.4682 37.8144 17.3712 36.9169C17.471 36.9169 17.5707 37.0166 17.6704 37.0166C18.0693 37.1163 18.4682 37.216 18.9668 37.3158C19.0665 37.3158 19.1663 37.3158 19.266 37.4155C19.6649 37.5152 20.0638 37.5152 20.4627 37.5152H20.5624C20.8615 37.5152 21.2604 37.5152 21.5596 37.5152C21.6593 37.5152 21.7591 37.5152 21.7591 37.5152C21.9585 37.5152 22.0582 37.5152 22.2577 37.5152C22.5568 37.5152 22.856 37.5152 23.0554 37.4155C23.2549 37.4155 23.4543 37.4155 23.5541 37.3158C23.8532 37.3158 24.1524 37.216 24.3518 37.216C24.5513 37.216 24.651 37.1163 24.8505 37.1163C25.1496 37.0166 25.5485 36.9169 25.8477 36.8172C25.9474 36.8172 26.0471 36.7174 26.1469 36.7174C26.5458 36.6177 26.9446 36.4183 27.4433 36.3185C27.6427 36.2188 27.7424 36.2188 27.9419 36.1191C28.241 36.0194 28.4405 35.9196 28.7397 35.7202C28.9391 35.6205 29.0388 35.5208 29.2383 35.421C29.4377 35.3213 29.7369 35.1219 29.9363 35.0221C30.1358 34.9224 30.2355 34.8227 30.4349 34.723C30.6344 34.5235 30.9336 34.4238 31.133 34.2244C31.2327 34.1246 31.4322 34.0249 31.5319 33.9252C31.8311 33.7257 32.1302 33.4266 32.4294 33.2271C32.5291 33.2271 32.5291 33.1274 32.6289 33.1274C32.928 32.8282 33.3269 32.5291 33.6261 32.2299C33.7258 32.1302 33.8255 32.0304 33.9253 31.9307C34.1247 31.7313 34.3241 31.4321 34.5236 31.2327C34.6233 31.1329 34.723 30.9335 34.8228 30.8338C35.0222 30.6343 35.2217 30.3352 35.3214 30.1357C35.4211 30.036 35.5208 29.8365 35.6205 29.7368C35.82 29.4376 35.9197 29.2382 36.1192 28.939C36.2189 28.8393 36.3186 28.6399 36.3186 28.5401C36.5181 28.1413 36.7175 27.7424 36.9169 27.2437C37.1164 26.7451 37.3158 26.2465 37.5153 25.7479C37.615 25.4487 37.7147 25.1496 37.7147 24.9501C37.8145 24.7507 37.8145 24.5512 37.9142 24.2521C38.0139 23.8532 38.0139 23.554 38.1136 23.1551C38.1136 23.0554 38.1136 22.8559 38.2133 22.7562C38.2133 22.3573 38.3131 21.9584 38.3131 21.6593C38.3131 21.5595 38.3131 21.4598 38.3131 21.3601C38.3131 21.1606 38.3131 20.9612 38.3131 20.7617C39.7092 23.4543 39.6095 26.7451 38.2133 30.036Z" fill="#081219"/>
</svg>
