<svg width="50" height="50" viewBox="0 0 50 50" fill="none" xmlns="http://www.w3.org/2000/svg">
<path d="M16.6236 8.24707C11.9974 8.24707 8.24707 11.9974 8.24707 16.6236H25C25 11.9974 21.2498 8.24707 16.6236 8.24707Z" fill="#081219"/>
<path d="M16.6235 16.6235C11.9974 16.6235 8.24707 20.3737 8.24707 25H25C25 20.3737 21.2497 16.6235 16.6235 16.6235Z" fill="#081219"/>
<path d="M33.3765 41.753C38.0028 41.753 41.753 38.0027 41.753 33.3766H25C25 38.0027 28.7504 41.753 33.3765 41.753Z" fill="#081219"/>
<path d="M41.753 25H25C25 29.6261 28.7503 33.3764 33.3764 33.3764C38.0026 33.3764 41.753 29.6261 41.753 25Z" fill="#081219"/>
<path d="M8.24707 33.3765C8.24707 38.0027 11.9974 41.753 16.6235 41.753V25C11.9974 25 8.24707 28.7504 8.24707 33.3765Z" fill="#081219"/>
<path d="M16.6235 33.3765C16.6235 38.0027 20.3738 41.753 25 41.753V25C20.3738 25 16.6235 28.7504 16.6235 33.3765Z" fill="#081219"/>
<path d="M41.7529 16.6236C41.7529 11.9974 38.0027 8.24707 33.3765 8.24707V25.0001C38.0027 25.0001 41.7529 21.2498 41.7529 16.6236Z" fill="#081219"/>
<path d="M33.3764 16.6236C33.3764 11.9974 29.6261 8.24707 25 8.24707V25.0001C29.6262 25.0001 33.3764 21.2498 33.3764 16.6236Z" fill="#081219"/>
</svg>
