<svg width="50" height="50" viewBox="0 0 50 50" fill="none" xmlns="http://www.w3.org/2000/svg">
<path d="M14.3264 11.5175C14.3264 9.65596 12.7335 8.14685 10.7686 8.14685C8.80364 8.14685 7.21069 9.65596 7.21069 11.5175C7.21069 13.379 8.80354 14.8881 10.7686 14.8881C12.7336 14.8881 14.3264 13.3791 14.3264 11.5175Z" fill="#081219"/>
<path d="M17.8843 14.8881C19.8493 14.8881 21.4422 13.379 21.4422 11.5175C21.4422 9.65594 19.8493 8.14685 17.8843 8.14685C15.9193 8.14685 14.3264 9.65594 14.3264 11.5175C14.3264 13.379 15.9193 14.8881 17.8843 14.8881Z" fill="#081219"/>
<path d="M14.3264 18.2587C14.3264 16.3972 12.7335 14.8881 10.7686 14.8881C8.80364 14.8881 7.21069 16.3972 7.21069 18.2587C7.21069 20.1202 8.80354 21.6293 10.7686 21.6293C12.7336 21.6293 14.3264 20.1202 14.3264 18.2587Z" fill="#081219"/>
<path d="M17.8843 21.6293C19.8493 21.6293 21.4422 20.1203 21.4422 18.2587C21.4422 16.3971 19.8493 14.8881 17.8843 14.8881C15.9193 14.8881 14.3264 16.3971 14.3264 18.2587C14.3264 20.1203 15.9193 21.6293 17.8843 21.6293Z" fill="#081219"/>
<path d="M25 14.8881C26.965 14.8881 28.5579 13.379 28.5579 11.5175C28.5579 9.65594 26.965 8.14685 25 8.14685C23.0351 8.14685 21.4421 9.65594 21.4421 11.5175C21.4421 13.379 23.0351 14.8881 25 14.8881Z" fill="#081219"/>
<path d="M32.1158 14.8881C34.0807 14.8881 35.6737 13.379 35.6737 11.5175C35.6737 9.65594 34.0807 8.14685 32.1158 8.14685C30.1508 8.14685 28.5579 9.65594 28.5579 11.5175C28.5579 13.379 30.1508 14.8881 32.1158 14.8881Z" fill="#081219"/>
<path d="M25 21.6293C26.965 21.6293 28.5579 20.1203 28.5579 18.2587C28.5579 16.3971 26.965 14.8881 25 14.8881C23.0351 14.8881 21.4421 16.3971 21.4421 18.2587C21.4421 20.1203 23.0351 21.6293 25 21.6293Z" fill="#081219"/>
<path d="M32.1158 21.6293C34.0807 21.6293 35.6737 20.1203 35.6737 18.2587C35.6737 16.3971 34.0807 14.8881 32.1158 14.8881C30.1508 14.8881 28.5579 16.3971 28.5579 18.2587C28.5579 20.1203 30.1508 21.6293 32.1158 21.6293Z" fill="#081219"/>
<path d="M14.3264 25C14.3264 23.1384 12.7335 21.6294 10.7686 21.6294C8.80364 21.6294 7.21069 23.1384 7.21069 25C7.21069 26.8617 8.80354 28.3707 10.7686 28.3707C12.7336 28.3707 14.3264 26.8616 14.3264 25Z" fill="#081219"/>
<path d="M17.8843 28.3707C19.8493 28.3707 21.4422 26.8616 21.4422 25C21.4422 23.1385 19.8493 21.6294 17.8843 21.6294C15.9193 21.6294 14.3264 23.1385 14.3264 25C14.3264 26.8616 15.9193 28.3707 17.8843 28.3707Z" fill="#081219"/>
<path d="M14.3264 31.7412C14.3264 29.8796 12.7335 28.3706 10.7686 28.3706C8.80364 28.3706 7.21069 29.8796 7.21069 31.7412C7.21069 33.6029 8.80354 35.1119 10.7686 35.1119C12.7336 35.1119 14.3264 33.6028 14.3264 31.7412Z" fill="#081219"/>
<path d="M17.8843 35.1119C19.8493 35.1119 21.4422 33.6028 21.4422 31.7412C21.4422 29.8797 19.8493 28.3706 17.8843 28.3706C15.9193 28.3706 14.3264 29.8797 14.3264 31.7412C14.3264 33.6028 15.9193 35.1119 17.8843 35.1119Z" fill="#081219"/>
<path d="M25 28.3707C26.965 28.3707 28.5579 26.8616 28.5579 25C28.5579 23.1385 26.965 21.6294 25 21.6294C23.0351 21.6294 21.4421 23.1385 21.4421 25C21.4421 26.8616 23.0351 28.3707 25 28.3707Z" fill="#081219"/>
<path d="M32.1158 28.3707C34.0807 28.3707 35.6737 26.8616 35.6737 25C35.6737 23.1385 34.0807 21.6294 32.1158 21.6294C30.1508 21.6294 28.5579 23.1385 28.5579 25C28.5579 26.8616 30.1508 28.3707 32.1158 28.3707Z" fill="#081219"/>
<path d="M25 35.1119C26.965 35.1119 28.5579 33.6028 28.5579 31.7412C28.5579 29.8797 26.965 28.3706 25 28.3706C23.0351 28.3706 21.4421 29.8797 21.4421 31.7412C21.4421 33.6028 23.0351 35.1119 25 35.1119Z" fill="#081219"/>
<path d="M32.1158 35.1119C34.0807 35.1119 35.6737 33.6028 35.6737 31.7412C35.6737 29.8797 34.0807 28.3706 32.1158 28.3706C30.1508 28.3706 28.5579 29.8797 28.5579 31.7412C28.5579 33.6028 30.1508 35.1119 32.1158 35.1119Z" fill="#081219"/>
<path d="M35.6736 38.4826C35.6736 40.3442 37.2664 41.8532 39.2315 41.8532C41.1965 41.8532 42.7894 40.3442 42.7894 38.4826C42.7894 36.621 41.1964 35.1121 39.2315 35.1121C37.2665 35.1121 35.6736 36.6211 35.6736 38.4826Z" fill="#081219"/>
<path d="M10.7683 35.1119C8.80329 35.1119 7.21045 36.6209 7.21045 38.4825C7.21045 40.344 8.80329 41.8531 10.7683 41.8531C12.7334 41.8531 14.3261 40.3441 14.3261 38.4825C14.3261 36.6208 12.7333 35.1119 10.7683 35.1119Z" fill="#081219"/>
<path d="M17.8843 35.1119C15.9194 35.1119 14.3264 36.6209 14.3264 38.4825C14.3264 40.344 15.9194 41.8531 17.8843 41.8531C19.8493 41.8531 21.4422 40.3441 21.4422 38.4825C21.4422 36.6208 19.8494 35.1119 17.8843 35.1119Z" fill="#081219"/>
<path d="M25 35.1119C23.0351 35.1119 21.4421 36.6209 21.4421 38.4825C21.4421 40.344 23.0351 41.8531 25 41.8531C26.965 41.8531 28.5579 40.3441 28.5579 38.4825C28.5579 36.6208 26.9651 35.1119 25 35.1119Z" fill="#081219"/>
<path d="M32.1158 35.1119C30.1508 35.1119 28.5579 36.6209 28.5579 38.4825C28.5579 40.344 30.1508 41.8531 32.1158 41.8531C34.0807 41.8531 35.6737 40.3441 35.6737 38.4825C35.6737 36.6208 34.0807 35.1119 32.1158 35.1119Z" fill="#081219"/>
<path d="M39.2315 14.8881C41.1964 14.8881 42.7894 13.379 42.7894 11.5175C42.7894 9.65594 41.1964 8.14685 39.2315 8.14685C37.2665 8.14685 35.6736 9.65594 35.6736 11.5175C35.6736 13.379 37.2665 14.8881 39.2315 14.8881Z" fill="#081219"/>
<path d="M39.2315 21.6293C41.1964 21.6293 42.7894 20.1203 42.7894 18.2587C42.7894 16.3971 41.1964 14.8881 39.2315 14.8881C37.2665 14.8881 35.6736 16.3971 35.6736 18.2587C35.6736 20.1203 37.2665 21.6293 39.2315 21.6293Z" fill="#081219"/>
<path d="M39.2315 28.3707C41.1964 28.3707 42.7894 26.8616 42.7894 25C42.7894 23.1385 41.1964 21.6294 39.2315 21.6294C37.2665 21.6294 35.6736 23.1385 35.6736 25C35.6736 26.8616 37.2665 28.3707 39.2315 28.3707Z" fill="#081219"/>
<path d="M39.2315 35.1119C41.1964 35.1119 42.7894 33.6028 42.7894 31.7412C42.7894 29.8797 41.1964 28.3706 39.2315 28.3706C37.2665 28.3706 35.6736 29.8797 35.6736 31.7412C35.6736 33.6028 37.2665 35.1119 39.2315 35.1119Z" fill="#081219"/>
</svg>
