<svg width="50" height="50" viewBox="0 0 50 50" fill="none" xmlns="http://www.w3.org/2000/svg">
<path d="M16.0253 11.5595C16.0253 9.08698 14.0208 7.08252 11.5483 7.08252C9.07575 7.08252 7.07129 9.08698 7.07129 11.5595C7.07129 14.0321 9.07575 16.0365 11.5483 16.0365C14.0209 16.0365 16.0253 14.0322 16.0253 11.5595ZM11.5483 13.7981C10.312 13.7981 9.30974 12.7959 9.30974 11.5595C9.30974 10.3231 10.3119 9.32097 11.5483 9.32097C12.7846 9.32097 13.7868 10.3231 13.7868 11.5595C13.7868 12.7959 12.7846 13.7981 11.5483 13.7981Z" fill="#081219"/>
<path d="M20.5024 16.0365C22.975 16.0365 24.9794 14.0321 24.9794 11.5595C24.9794 9.08698 22.9749 7.08252 20.5024 7.08252C18.0298 7.08252 16.0254 9.08698 16.0254 11.5595C16.0254 14.0321 18.0297 16.0365 20.5024 16.0365ZM20.5024 9.32097C21.7387 9.32097 22.7409 10.3231 22.7409 11.5595C22.7409 12.7959 21.7388 13.7981 20.5024 13.7981C19.2661 13.7981 18.2638 12.7959 18.2638 11.5595C18.2638 10.3231 19.266 9.32097 20.5024 9.32097Z" fill="#081219"/>
<path d="M7.07129 20.5136C7.07129 22.9861 9.07575 24.9906 11.5483 24.9906C14.0209 24.9906 16.0253 22.9861 16.0253 20.5136C16.0253 18.041 14.0208 16.0365 11.5483 16.0365C9.07575 16.0365 7.07129 18.041 7.07129 20.5136ZM11.5483 18.2751C12.7846 18.2751 13.7868 19.2772 13.7868 20.5136C13.7868 21.7499 12.7847 22.7521 11.5483 22.7521C10.312 22.7521 9.30974 21.7499 9.30974 20.5136C9.30974 19.2773 10.312 18.2751 11.5483 18.2751Z" fill="#081219"/>
<path d="M16.0253 20.5136C16.0253 22.9861 18.0297 24.9906 20.5023 24.9906C22.9749 24.9906 24.9793 22.9861 24.9793 20.5136C24.9793 18.041 22.9748 16.0365 20.5023 16.0365C18.0297 16.0365 16.0253 18.041 16.0253 20.5136ZM20.5024 18.2751C21.7386 18.2751 22.7409 19.2772 22.7409 20.5136C22.7409 21.7499 21.7387 22.7521 20.5024 22.7521C19.2661 22.7521 18.2638 21.7499 18.2638 20.5136C18.2638 19.2773 19.266 18.2751 20.5024 18.2751Z" fill="#081219"/>
<path d="M33.9748 11.5595C33.9748 9.08698 31.9703 7.08252 29.4978 7.08252C27.0252 7.08252 25.0208 9.08698 25.0208 11.5595C25.0208 14.0321 27.0252 16.0365 29.4978 16.0365C31.9703 16.0365 33.9748 14.0322 33.9748 11.5595ZM29.4976 13.7981C28.2614 13.7981 27.2591 12.7959 27.2591 11.5595C27.2591 10.3231 28.2613 9.32097 29.4976 9.32097C30.734 9.32097 31.7362 10.3231 31.7362 11.5595C31.7362 12.7959 30.734 13.7981 29.4976 13.7981Z" fill="#081219"/>
<path d="M42.9287 11.5595C42.9287 9.08698 40.9243 7.08252 38.4517 7.08252C35.9792 7.08252 33.9747 9.08698 33.9747 11.5595C33.9747 14.0321 35.9792 16.0365 38.4517 16.0365C40.9243 16.0365 42.9287 14.0322 42.9287 11.5595ZM38.4517 13.7981C37.2155 13.7981 36.2132 12.7959 36.2132 11.5595C36.2132 10.3231 37.2154 9.32097 38.4517 9.32097C39.688 9.32097 40.6903 10.3231 40.6903 11.5595C40.6903 12.7959 39.688 13.7981 38.4517 13.7981Z" fill="#081219"/>
<path d="M29.4976 16.0365C27.025 16.0365 25.0206 18.041 25.0206 20.5136C25.0206 22.9861 27.0251 24.9906 29.4976 24.9906C31.9702 24.9906 33.9746 22.9861 33.9746 20.5136C33.9747 18.041 31.9703 16.0365 29.4976 16.0365ZM29.4976 22.7522C28.2614 22.7522 27.2591 21.75 27.2591 20.5137C27.2591 19.2774 28.2613 18.2752 29.4976 18.2752C30.734 18.2752 31.7362 19.2773 31.7362 20.5137C31.7362 21.7499 30.734 22.7522 29.4976 22.7522Z" fill="#081219"/>
<path d="M33.9747 20.5136C33.9747 22.9861 35.9792 24.9906 38.4517 24.9906C40.9243 24.9906 42.9287 22.9861 42.9287 20.5136C42.9287 18.041 40.9243 16.0365 38.4517 16.0365C35.9792 16.0365 33.9747 18.041 33.9747 20.5136ZM38.4517 18.2751C39.688 18.2751 40.6903 19.2772 40.6903 20.5136C40.6903 21.7499 39.6881 22.7521 38.4517 22.7521C37.2155 22.7521 36.2132 21.7499 36.2132 20.5136C36.2132 19.2773 37.2155 18.2751 38.4517 18.2751Z" fill="#081219"/>
<path d="M16.0253 29.4864C16.0253 27.0139 14.0208 25.0094 11.5483 25.0094C9.07575 25.0094 7.07129 27.0139 7.07129 29.4864C7.07129 31.959 9.07575 33.9635 11.5483 33.9635C14.0209 33.9634 16.0253 31.959 16.0253 29.4864ZM11.5483 31.725C10.312 31.725 9.30974 30.7228 9.30974 29.4864C9.30974 28.2501 10.3119 27.2478 11.5483 27.2478C12.7846 27.2478 13.7868 28.25 13.7868 29.4864C13.7868 30.7227 12.7846 31.725 11.5483 31.725Z" fill="#081219"/>
<path d="M20.5024 33.9634C22.975 33.9634 24.9794 31.9589 24.9794 29.4863C24.9794 27.0137 22.9749 25.0093 20.5024 25.0093C18.0298 25.0093 16.0254 27.0137 16.0254 29.4863C16.0253 31.959 18.0297 33.9634 20.5024 33.9634ZM20.5024 27.2478C21.7387 27.2478 22.7409 28.25 22.7409 29.4864C22.7409 30.7227 21.7388 31.7249 20.5024 31.7249C19.2661 31.7249 18.2638 30.7228 18.2638 29.4864C18.2638 28.2501 19.266 27.2478 20.5024 27.2478Z" fill="#081219"/>
<path d="M7.07129 38.4405C7.07129 40.913 9.07575 42.9175 11.5483 42.9175C14.0209 42.9175 16.0253 40.913 16.0253 38.4405C16.0253 35.968 14.0208 33.9635 11.5483 33.9635C9.07575 33.9634 7.07129 35.9679 7.07129 38.4405ZM11.5483 36.2019C12.7846 36.2019 13.7868 37.2041 13.7868 38.4405C13.7868 39.6768 12.7847 40.6789 11.5483 40.6789C10.312 40.6789 9.30974 39.6768 9.30974 38.4405C9.30974 37.2041 10.312 36.2019 11.5483 36.2019Z" fill="#081219"/>
<path d="M16.0253 38.4405C16.0253 40.913 18.0297 42.9175 20.5023 42.9175C22.9749 42.9175 24.9793 40.913 24.9793 38.4405C24.9793 35.968 22.9748 33.9635 20.5023 33.9635C18.0297 33.9634 16.0253 35.9679 16.0253 38.4405ZM20.5024 36.2019C21.7386 36.2019 22.7409 37.2041 22.7409 38.4405C22.7409 39.6768 21.7387 40.6789 20.5024 40.6789C19.2661 40.6789 18.2638 39.6768 18.2638 38.4405C18.2638 37.2041 19.266 36.2019 20.5024 36.2019Z" fill="#081219"/>
<path d="M33.9748 29.4864C33.9748 27.0139 31.9703 25.0094 29.4978 25.0094C27.0252 25.0094 25.0208 27.0139 25.0208 29.4864C25.0208 31.959 27.0252 33.9635 29.4978 33.9635C31.9703 33.9635 33.9748 31.959 33.9748 29.4864ZM29.4976 31.725C28.2614 31.725 27.2591 30.7228 27.2591 29.4864C27.2591 28.2501 28.2613 27.2478 29.4976 27.2478C30.734 27.2478 31.7362 28.25 31.7362 29.4864C31.7362 30.7227 30.734 31.725 29.4976 31.725Z" fill="#081219"/>
<path d="M42.9287 29.4864C42.9287 27.0139 40.9243 25.0094 38.4517 25.0094C35.9792 25.0094 33.9747 27.0139 33.9747 29.4864C33.9747 31.959 35.9792 33.9635 38.4517 33.9635C40.9243 33.9635 42.9287 31.959 42.9287 29.4864ZM38.4517 31.725C37.2155 31.725 36.2132 30.7228 36.2132 29.4864C36.2132 28.2501 37.2154 27.2478 38.4517 27.2478C39.688 27.2478 40.6903 28.25 40.6903 29.4864C40.6903 30.7227 39.688 31.725 38.4517 31.725Z" fill="#081219"/>
<path d="M29.4976 33.9634C27.025 33.9634 25.0206 35.9678 25.0206 38.4404C25.0206 40.9129 27.0251 42.9174 29.4976 42.9174C31.9702 42.9174 33.9746 40.9129 33.9746 38.4404C33.9746 35.9678 31.9703 33.9634 29.4976 33.9634ZM29.4976 40.6789C28.2614 40.6789 27.2591 39.6768 27.2591 38.4405C27.2591 37.2042 28.2613 36.2019 29.4976 36.2019C30.734 36.2019 31.7362 37.2041 31.7362 38.4405C31.7362 39.6768 30.734 40.6789 29.4976 40.6789Z" fill="#081219"/>
<path d="M33.9747 38.4405C33.9747 40.913 35.9792 42.9175 38.4517 42.9175C40.9243 42.9175 42.9287 40.913 42.9287 38.4405C42.9287 35.968 40.9243 33.9635 38.4517 33.9635C35.9792 33.9635 33.9747 35.9679 33.9747 38.4405ZM38.4517 36.2019C39.688 36.2019 40.6903 37.2041 40.6903 38.4405C40.6903 39.6768 39.6881 40.6789 38.4517 40.6789C37.2155 40.6789 36.2132 39.6768 36.2132 38.4405C36.2132 37.2041 37.2155 36.2019 38.4517 36.2019Z" fill="#081219"/>
</svg>
