<svg width="50" height="50" viewBox="0 0 50 50" fill="none" xmlns="http://www.w3.org/2000/svg">
<path d="M39.2105 21.3601C37.3158 21.3601 35.6205 22.0582 34.2244 19.6648C32.8283 17.2715 34.3241 16.1745 35.2216 14.4792C36.2188 12.7839 35.6205 10.4903 33.9252 9.49308C32.2299 8.49585 29.9363 9.09418 28.9391 10.7895C27.9418 12.4848 27.7424 14.2798 24.9501 14.2798C22.2576 14.2798 21.9585 12.4848 20.9612 10.7895C19.964 8.99446 17.7701 8.49585 15.9751 9.49308C14.2798 10.4903 13.6814 12.6842 14.6787 14.4792C15.6759 16.1745 17.072 17.2715 15.6759 19.6648C14.2798 22.0582 12.6842 21.3601 10.6898 21.3601C8.69529 21.3601 7 22.9557 7 25.0499C7 27.0443 8.59557 28.7396 10.6898 28.7396C12.5845 28.7396 14.2798 28.0416 15.6759 30.4349C17.072 32.8283 15.5762 33.9252 14.6787 35.6205C13.6814 37.4155 14.2798 39.6094 15.9751 40.6067C17.6704 41.6039 19.964 41.0055 20.9612 39.3103C21.9585 37.615 22.1579 35.8199 24.9501 35.8199C27.7424 35.8199 27.9418 37.615 28.9391 39.3103C29.9363 41.0055 32.1302 41.6039 33.9252 40.6067C35.6205 39.6094 36.2188 37.4155 35.2216 35.6205C34.2244 33.9252 32.8283 32.8283 34.2244 30.4349C35.6205 28.0416 37.2161 28.7396 39.2105 28.7396C41.205 28.7396 42.9003 27.144 42.9003 25.0499C42.9003 22.9557 41.205 21.3601 39.2105 21.3601ZM24.9501 32.6288C20.7618 32.6288 17.3712 29.2382 17.3712 25.0499C17.3712 20.8615 20.7618 17.4709 24.9501 17.4709C29.1385 17.4709 32.5291 20.8615 32.5291 25.0499C32.6288 29.2382 29.2382 32.6288 24.9501 32.6288Z" fill="#081219"/>
<path d="M24.9501 19.5651C21.9584 19.5651 19.4653 22.0581 19.4653 25.0498C19.4653 28.0415 21.9584 30.5346 24.9501 30.5346C27.9418 30.5346 30.4349 28.0415 30.4349 25.0498C30.4349 21.9584 28.0415 19.5651 24.9501 19.5651Z" fill="#081219"/>
</svg>
