<svg width="50" height="50" viewBox="0 0 50 50" fill="none" xmlns="http://www.w3.org/2000/svg">
<path d="M19.7714 32.2551H19.0259C16.3961 32.2551 14.2642 34.387 14.2642 37.0169V37.7909C14.2642 40.4208 16.3961 42.5527 19.0259 42.5527H19.7714C22.4012 42.5527 24.5331 40.4208 24.5331 37.7909V37.0169C24.5331 34.387 22.4012 32.2551 19.7714 32.2551Z" fill="#081219"/>
<path d="M30.974 32.2551H30.2286C27.5987 32.2551 25.4668 34.387 25.4668 37.0169V37.7909C25.4668 40.4208 27.5987 42.5527 30.2286 42.5527H30.974C33.6039 42.5527 35.7358 40.4208 35.7358 37.7909V37.0169C35.7358 34.387 33.6039 32.2551 30.974 32.2551Z" fill="#081219"/>
<path d="M20.3673 22.9873H18.43C16.1293 22.9873 14.2642 24.8524 14.2642 27.1531C14.2642 29.4539 16.1293 31.319 18.43 31.319H20.3673C22.668 31.319 24.5331 29.4539 24.5331 27.1531C24.5331 24.8524 22.668 22.9873 20.3673 22.9873Z" fill="#081219"/>
<path d="M31.5699 22.9873H29.6326C27.3319 22.9873 25.4668 24.8524 25.4668 27.1531C25.4668 29.4539 27.3319 31.319 29.6326 31.319H31.5699C33.8707 31.319 35.7358 29.4539 35.7358 27.1531C35.7358 24.8524 33.8707 22.9873 31.5699 22.9873Z" fill="#081219"/>
<path d="M21.4438 15.8726H17.3535C15.6473 15.8726 14.2642 17.2557 14.2642 18.9618C14.2642 20.668 15.6473 22.0511 17.3535 22.0511H21.4438C23.15 22.0511 24.5331 20.668 24.5331 18.9618C24.5331 17.2557 23.15 15.8726 21.4438 15.8726Z" fill="#081219"/>
<path d="M32.6465 15.8726H28.5561C26.8499 15.8726 25.4668 17.2557 25.4668 18.9618C25.4668 20.668 26.8499 22.0511 28.5561 22.0511H32.6465C34.3526 22.0511 35.7358 20.668 35.7358 18.9618C35.7358 17.2557 34.3526 15.8726 32.6465 15.8726Z" fill="#081219"/>
<path d="M22.3331 10.5366H16.464C15.249 10.5366 14.2642 11.5215 14.2642 12.7365C14.2642 13.9516 15.2491 14.9364 16.464 14.9364H22.3331C23.5482 14.9364 24.5331 13.9515 24.5331 12.7365C24.5331 11.5215 23.5482 10.5366 22.3331 10.5366Z" fill="#081219"/>
<path d="M33.5356 10.5366H27.6665C26.4515 10.5366 25.4666 11.5215 25.4666 12.7365C25.4666 13.9516 26.4515 14.9364 27.6665 14.9364H33.5356C34.7507 14.9364 35.7355 13.9515 35.7355 12.7365C35.7355 11.5215 34.7506 10.5366 33.5356 10.5366Z" fill="#081219"/>
<path d="M23.4566 7.44727H15.3408C14.7462 7.44727 14.2642 7.92923 14.2642 8.52388C14.2642 9.11842 14.7461 9.60038 15.3408 9.60038H23.4566C24.0512 9.60038 24.5332 9.11842 24.5332 8.52388C24.5332 7.92933 24.0513 7.44727 23.4566 7.44727Z" fill="#081219"/>
<path d="M34.659 7.44727H26.5432C25.9486 7.44727 25.4666 7.92923 25.4666 8.52388C25.4666 9.11842 25.9485 9.60038 26.5432 9.60038H34.659C35.2536 9.60038 35.7355 9.11842 35.7355 8.52388C35.7355 7.92933 35.2536 7.44727 34.659 7.44727Z" fill="#081219"/>
</svg>
