<svg width="50" height="50" viewBox="0 0 50 50" fill="none" xmlns="http://www.w3.org/2000/svg">
<path d="M13.59 18.6191C11.6677 18.6191 8.98499 21.4761 7.59774 25.0001C6.2106 28.5241 6.64425 31.3809 8.5664 31.3809C10.4886 31.3809 13.1714 28.5241 14.5587 25.0001C15.9458 21.4761 15.5122 18.6191 13.59 18.6191Z" fill="#081219"/>
<path d="M20.5509 18.6191C18.6286 18.6191 15.9458 21.4761 14.5586 25.0001C13.1713 28.5241 13.6052 31.3809 15.5273 31.3809C17.4495 31.3809 20.1323 28.5241 21.5196 25.0001C22.9067 21.4761 22.4729 18.6191 20.5509 18.6191Z" fill="#081219"/>
<path d="M27.5118 18.6191C25.5895 18.6191 22.9067 21.4761 21.5197 25.0001C20.1324 28.5241 20.5662 31.3809 22.4884 31.3809C24.4105 31.3809 27.0934 28.5241 28.4806 25.0001C29.8678 21.4761 29.4339 18.6191 27.5118 18.6191Z" fill="#081219"/>
<path d="M34.4727 18.6191C32.5504 18.6191 29.8677 21.4761 28.4806 25.0001C27.0933 28.5241 27.5272 31.3809 29.4493 31.3809C31.3715 31.3809 34.0543 28.5241 35.4414 25.0001C36.8287 21.4761 36.3949 18.6191 34.4727 18.6191Z" fill="#081219"/>
<path d="M41.4337 18.6191C39.5114 18.6191 36.8287 21.4761 35.4414 25.0001C34.0543 28.5241 34.4881 31.3809 36.4103 31.3809C38.3324 31.3809 41.0153 28.5241 42.4023 25.0001C43.7897 21.4761 43.3558 18.6191 41.4337 18.6191Z" fill="#081219"/>
</svg>
