<svg width="50" height="50" viewBox="0 0 50 50" fill="none" xmlns="http://www.w3.org/2000/svg">
<path d="M9.97356 13.8646C11.8513 13.8646 13.3735 12.4226 13.3735 10.6437C13.3735 8.8648 11.8513 7.42273 9.97356 7.42273C8.09585 7.42273 6.57367 8.8648 6.57367 10.6437C6.57367 12.4226 8.09585 13.8646 9.97356 13.8646Z" fill="#081219"/>
<path d="M17.4867 13.8646C19.3645 13.8646 20.8866 12.4226 20.8866 10.6437C20.8866 8.8648 19.3645 7.42273 17.4867 7.42273C15.609 7.42273 14.0869 8.8648 14.0869 10.6437C14.0869 12.4226 15.609 13.8646 17.4867 13.8646Z" fill="#081219"/>
<path d="M25.5446 13.8231C27.398 13.5381 28.6567 11.8837 28.356 10.1278C28.0552 8.37185 26.3088 7.1794 24.4554 7.46434C22.6019 7.74929 21.3432 9.40373 21.644 11.1596C21.9447 12.9156 23.6911 14.108 25.5446 13.8231Z" fill="#081219"/>
<path d="M32.5132 13.8646C34.3909 13.8646 35.9131 12.4226 35.9131 10.6437C35.9131 8.8648 34.3909 7.42273 32.5132 7.42273C30.6355 7.42273 29.1133 8.8648 29.1133 10.6437C29.1133 12.4226 30.6355 13.8646 32.5132 13.8646Z" fill="#081219"/>
<path d="M40.0264 13.8646C41.9041 13.8646 43.4263 12.4226 43.4263 10.6437C43.4263 8.8648 41.9041 7.42273 40.0264 7.42273C38.1487 7.42273 36.6265 8.8648 36.6265 10.6437C36.6265 12.4226 38.1487 13.8646 40.0264 13.8646Z" fill="#081219"/>
<path d="M9.97356 21.0428C11.8513 21.0428 13.3735 19.6007 13.3735 17.8218C13.3735 16.043 11.8513 14.6009 9.97356 14.6009C8.09585 14.6009 6.57367 16.043 6.57367 17.8218C6.57367 19.6007 8.09585 21.0428 9.97356 21.0428Z" fill="#081219"/>
<path d="M17.4867 21.0428C19.3645 21.0428 20.8866 19.6007 20.8866 17.8218C20.8866 16.043 19.3645 14.6009 17.4867 14.6009C15.609 14.6009 14.0869 16.043 14.0869 17.8218C14.0869 19.6007 15.609 21.0428 17.4867 21.0428Z" fill="#081219"/>
<path d="M25 21.0428C26.8777 21.0428 28.3999 19.6007 28.3999 17.8218C28.3999 16.043 26.8777 14.6009 25 14.6009C23.1223 14.6009 21.6001 16.043 21.6001 17.8218C21.6001 19.6007 23.1223 21.0428 25 21.0428Z" fill="#081219"/>
<path d="M32.5132 21.0428C34.3909 21.0428 35.9131 19.6007 35.9131 17.8218C35.9131 16.043 34.3909 14.6009 32.5132 14.6009C30.6355 14.6009 29.1133 16.043 29.1133 17.8218C29.1133 19.6007 30.6355 21.0428 32.5132 21.0428Z" fill="#081219"/>
<path d="M40.0264 21.0428C41.9041 21.0428 43.4263 19.6007 43.4263 17.8218C43.4263 16.043 41.9041 14.6009 40.0264 14.6009C38.1487 14.6009 36.6265 16.043 36.6265 17.8218C36.6265 19.6007 38.1487 21.0428 40.0264 21.0428Z" fill="#081219"/>
<path d="M9.97356 28.221C11.8513 28.221 13.3735 26.7789 13.3735 25C13.3735 23.2211 11.8513 21.7791 9.97356 21.7791C8.09585 21.7791 6.57367 23.2211 6.57367 25C6.57367 26.7789 8.09585 28.221 9.97356 28.221Z" fill="#081219"/>
<path d="M17.4867 28.221C19.3645 28.221 20.8866 26.7789 20.8866 25C20.8866 23.2211 19.3645 21.7791 17.4867 21.7791C15.609 21.7791 14.0869 23.2211 14.0869 25C14.0869 26.7789 15.609 28.221 17.4867 28.221Z" fill="#081219"/>
<path d="M25 28.221C26.8777 28.221 28.3999 26.7789 28.3999 25C28.3999 23.2211 26.8777 21.7791 25 21.7791C23.1223 21.7791 21.6001 23.2211 21.6001 25C21.6001 26.7789 23.1223 28.221 25 28.221Z" fill="#081219"/>
<path d="M32.5132 28.221C34.3909 28.221 35.9131 26.7789 35.9131 25C35.9131 23.2211 34.3909 21.7791 32.5132 21.7791C30.6355 21.7791 29.1133 23.2211 29.1133 25C29.1133 26.7789 30.6355 28.221 32.5132 28.221Z" fill="#081219"/>
<path d="M40.0264 28.221C41.9041 28.221 43.4263 26.7789 43.4263 25C43.4263 23.2211 41.9041 21.7791 40.0264 21.7791C38.1487 21.7791 36.6265 23.2211 36.6265 25C36.6265 26.7789 38.1487 28.221 40.0264 28.221Z" fill="#081219"/>
<path d="M9.97356 35.3991C11.8513 35.3991 13.3735 33.9571 13.3735 32.1782C13.3735 30.3993 11.8513 28.9572 9.97356 28.9572C8.09585 28.9572 6.57367 30.3993 6.57367 32.1782C6.57367 33.9571 8.09585 35.3991 9.97356 35.3991Z" fill="#081219"/>
<path d="M17.4867 35.3991C19.3645 35.3991 20.8866 33.9571 20.8866 32.1782C20.8866 30.3993 19.3645 28.9572 17.4867 28.9572C15.609 28.9572 14.0869 30.3993 14.0869 32.1782C14.0869 33.9571 15.609 35.3991 17.4867 35.3991Z" fill="#081219"/>
<path d="M25.5446 35.3576C27.3981 35.0726 28.6568 33.4182 28.356 31.6623C28.0552 29.9063 26.3089 28.7139 24.4554 28.9988C22.602 29.2838 21.3433 30.9382 21.644 32.6941C21.9448 34.45 23.6912 35.6425 25.5446 35.3576Z" fill="#081219"/>
<path d="M32.5132 35.3991C34.3909 35.3991 35.9131 33.9571 35.9131 32.1782C35.9131 30.3993 34.3909 28.9572 32.5132 28.9572C30.6355 28.9572 29.1133 30.3993 29.1133 32.1782C29.1133 33.9571 30.6355 35.3991 32.5132 35.3991Z" fill="#081219"/>
<path d="M40.0264 35.3991C41.9041 35.3991 43.4263 33.9571 43.4263 32.1782C43.4263 30.3993 41.9041 28.9572 40.0264 28.9572C38.1487 28.9572 36.6265 30.3993 36.6265 32.1782C36.6265 33.9571 38.1487 35.3991 40.0264 35.3991Z" fill="#081219"/>
<path d="M9.97356 42.5772C11.8513 42.5772 13.3735 41.1351 13.3735 39.3563C13.3735 37.5774 11.8513 36.1353 9.97356 36.1353C8.09585 36.1353 6.57367 37.5774 6.57367 39.3563C6.57367 41.1351 8.09585 42.5772 9.97356 42.5772Z" fill="#081219"/>
<path d="M17.4867 42.5772C19.3645 42.5772 20.8866 41.1351 20.8866 39.3563C20.8866 37.5774 19.3645 36.1353 17.4867 36.1353C15.609 36.1353 14.0869 37.5774 14.0869 39.3563C14.0869 41.1351 15.609 42.5772 17.4867 42.5772Z" fill="#081219"/>
<path d="M25 42.5772C26.8777 42.5772 28.3999 41.1351 28.3999 39.3563C28.3999 37.5774 26.8777 36.1353 25 36.1353C23.1223 36.1353 21.6001 37.5774 21.6001 39.3563C21.6001 41.1351 23.1223 42.5772 25 42.5772Z" fill="#081219"/>
<path d="M32.5132 42.5772C34.3909 42.5772 35.9131 41.1351 35.9131 39.3563C35.9131 37.5774 34.3909 36.1353 32.5132 36.1353C30.6355 36.1353 29.1133 37.5774 29.1133 39.3563C29.1133 41.1351 30.6355 42.5772 32.5132 42.5772Z" fill="#081219"/>
<path d="M40.0264 42.5772C41.9041 42.5772 43.4263 41.1351 43.4263 39.3563C43.4263 37.5774 41.9041 36.1353 40.0264 36.1353C38.1487 36.1353 36.6265 37.5774 36.6265 39.3563C36.6265 41.1351 38.1487 42.5772 40.0264 42.5772Z" fill="#081219"/>
</svg>
