<svg width="50" height="50" viewBox="0 0 50 50" fill="none" xmlns="http://www.w3.org/2000/svg">
<path d="M11.7786 39.4115H38.2214C38.3968 39.2275 38.5671 39.039 38.7342 38.8478H11.2659C11.433 39.039 11.6033 39.2275 11.7786 39.4115Z" fill="#081219"/>
<path d="M25.0001 9.96967C15.0477 9.96967 6.97986 17.8195 6.97986 27.5029H43.0202C43.0202 17.8195 34.9523 9.96967 25.0001 9.96967Z" fill="#081219"/>
<path d="M12.3976 40.0304H37.6024C37.6558 39.9797 37.7106 39.9307 37.7633 39.8792H12.2366C12.2893 39.9307 12.3443 39.9798 12.3976 40.0304Z" fill="#081219"/>
<path d="M7.71315 32.4535H42.2869C42.5688 31.5208 42.7727 30.556 42.8921 29.5657H7.10803C7.22733 30.556 7.4313 31.5208 7.71315 32.4535Z" fill="#081219"/>
<path d="M10.5988 38.0417H39.4014C39.6391 37.7345 39.8645 37.4178 40.0815 37.0954H9.9187C10.1359 37.4179 10.3611 37.7345 10.5988 38.0417Z" fill="#081219"/>
<path d="M9.24246 36.0088H40.7574C41.1227 35.3697 41.4464 34.7051 41.7287 34.0201H8.27124C8.55351 34.7051 8.87718 35.3697 9.24246 36.0088Z" fill="#081219"/>
</svg>
