<svg width="50" height="50" viewBox="0 0 50 50" fill="none" xmlns="http://www.w3.org/2000/svg">
<path d="M12.3396 7.27551H7.27551V12.3396H12.3396V7.27551Z" fill="#081219"/>
<path d="M17.4037 12.3397H12.3396V17.4038H17.4037V12.3397Z" fill="#081219"/>
<path d="M22.4679 7.27551H17.4038V12.3396H22.4679V7.27551Z" fill="#081219"/>
<path d="M27.532 12.3397H22.4679V17.4038H27.532V12.3397Z" fill="#081219"/>
<path d="M32.5962 7.27551H27.5321V12.3396H32.5962V7.27551Z" fill="#081219"/>
<path d="M42.7244 7.27551H37.6603V12.3396H42.7244V7.27551Z" fill="#081219"/>
<path d="M37.6603 12.3397H32.5962V17.4038H37.6603V12.3397Z" fill="#081219"/>
<path d="M12.3396 17.4038H7.27551V22.4679H12.3396V17.4038Z" fill="#081219"/>
<path d="M17.4037 22.4679H12.3396V27.532H17.4037V22.4679Z" fill="#081219"/>
<path d="M22.4679 17.4038H17.4038V22.4679H22.4679V17.4038Z" fill="#081219"/>
<path d="M27.532 22.4679H22.4679V27.532H27.532V22.4679Z" fill="#081219"/>
<path d="M32.5962 17.4038H27.5321V22.4679H32.5962V17.4038Z" fill="#081219"/>
<path d="M42.7244 17.4038H37.6603V22.4679H42.7244V17.4038Z" fill="#081219"/>
<path d="M37.6603 22.4679H32.5962V27.532H37.6603V22.4679Z" fill="#081219"/>
<path d="M12.3396 27.532H7.27551V32.5962H12.3396V27.532Z" fill="#081219"/>
<path d="M17.4037 32.5962H12.3396V37.6603H17.4037V32.5962Z" fill="#081219"/>
<path d="M22.4679 27.532H17.4038V32.5962H22.4679V27.532Z" fill="#081219"/>
<path d="M27.532 32.5962H22.4679V37.6603H27.532V32.5962Z" fill="#081219"/>
<path d="M32.5962 27.532H27.5321V32.5962H32.5962V27.532Z" fill="#081219"/>
<path d="M42.7244 27.532H37.6603V32.5962H42.7244V27.532Z" fill="#081219"/>
<path d="M12.3396 37.6603H7.27551V42.7245H12.3396V37.6603Z" fill="#081219"/>
<path d="M22.4679 37.6603H17.4038V42.7245H22.4679V37.6603Z" fill="#081219"/>
<path d="M32.5962 37.6603H27.5321V42.7245H32.5962V37.6603Z" fill="#081219"/>
<path d="M42.7244 37.6603H37.6603V42.7245H42.7244V37.6603Z" fill="#081219"/>
<path d="M37.6603 32.5962H32.5962V37.6603H37.6603V32.5962Z" fill="#081219"/>
</svg>
