<svg width="50" height="50" viewBox="0 0 50 50" fill="none" xmlns="http://www.w3.org/2000/svg">
<path d="M41.083 7.2066V11.5966C41.083 20.4649 33.8682 27.6797 24.9999 27.6797C16.1316 27.6797 8.91796 20.4658 8.91696 11.5987V7.19623H8.10083V11.6511H8.10352C8.11768 16.1447 9.87151 20.3672 13.0505 23.5462C16.2423 26.738 20.486 28.4958 25 28.4958C29.5139 28.4958 33.7577 26.738 36.9496 23.5462C40.1261 20.3696 41.8792 16.1508 41.8962 11.6613H41.8992V7.2066H41.083Z" fill="#081219"/>
<path d="M14.6645 21.9321C17.4251 24.6928 21.0957 26.2133 25 26.2133C28.9043 26.2133 32.5748 24.6929 35.3356 21.9321C38.0809 19.1868 39.5967 15.5411 39.6135 11.6613H39.6166V7.2066H38.8005V11.5966C38.8005 19.2063 32.6097 25.3972 25 25.3972C17.3903 25.3972 11.1994 19.2063 11.1994 11.5966V7.19623H10.3833V11.6511H10.386C10.4002 15.535 11.9166 19.1843 14.6645 21.9321Z" fill="#081219"/>
<path d="M16.2786 20.3182C18.6082 22.6477 21.7054 23.9306 25 23.9306C28.2945 23.9306 31.3918 22.6477 33.7214 20.3182C36.0357 18.0039 37.314 14.9314 37.3309 11.6614H37.334V7.2066H36.5179V11.5966C36.5179 17.9477 31.351 23.1145 25 23.1145C18.6489 23.1145 13.482 17.9477 13.482 11.5966V7.19623H12.666V11.6511H12.6687C12.6829 14.9253 13.9619 18.0016 16.2786 20.3182Z" fill="#081219"/>
<path d="M24.9999 21.6481C30.5203 21.6481 35.0127 17.1737 35.048 11.6613H35.0512V7.2066H34.2352V11.5966C34.2352 16.6891 30.0921 20.832 24.9999 20.832C19.9076 20.832 15.7646 16.689 15.7646 11.5966V7.19623H14.9485V11.6511H14.9513C14.981 17.1682 19.4758 21.6481 24.9999 21.6481Z" fill="#081219"/>
<path d="M24.9998 19.3654C29.2613 19.3654 32.7264 15.9147 32.7621 11.6613H32.7687V7.2066H31.9526V11.5966C31.9526 15.4304 28.8336 18.5494 24.9998 18.5494C21.1659 18.5494 18.047 15.4304 18.047 11.5966V7.19623H17.231V11.6511H17.2364C17.2666 15.9092 20.7346 19.3654 24.9998 19.3654Z" fill="#081219"/>
<path d="M24.9999 17.0829C28.0029 17.0829 30.444 14.6561 30.4796 11.6613H30.4862V7.2066H29.6702V11.5966C29.6702 14.1718 27.5751 16.2668 24.9999 16.2668C22.4248 16.2668 20.3298 14.1718 20.3298 11.5966V7.19623H19.5137V11.6511H19.5192C19.5491 14.6505 21.9935 17.0829 24.9999 17.0829Z" fill="#081219"/>
<path d="M24.9999 14.8003C26.7442 14.8003 28.1616 13.3974 28.1971 11.6614H28.2037V7.2066H27.3876V11.5966C27.3876 12.9131 26.3165 13.9842 25 13.9842C23.6834 13.9842 22.6124 12.9131 22.6124 11.5966V7.19623H21.7964V11.6511H21.8019C21.8317 13.3919 23.252 14.8003 24.9999 14.8003Z" fill="#081219"/>
</svg>
