<svg width="50" height="50" viewBox="0 0 50 50" fill="none" xmlns="http://www.w3.org/2000/svg">
<path d="M32.0448 7.49634V24.1828C32.0448 28.5266 28.526 32.0615 24.1896 32.0933V31.4771C26.1168 31.4621 27.9268 30.7071 29.2912 29.3427C30.6482 27.9857 31.4011 26.1876 31.4242 24.2722H31.4286V7.49634H31.0057V24.1828C31.0057 27.9537 27.9531 31.0225 24.1897 31.0542V30.438C25.8394 30.423 27.3884 29.7761 28.5566 28.6079C29.7172 27.4472 30.3665 25.9102 30.3895 24.2722V7.49634H29.9667V24.1828C29.9667 27.3807 27.3803 29.9835 24.1897 30.0152V29.3988C27.0103 29.3674 29.3024 27.0888 29.3504 24.2722V7.49634H28.9276V24.1828C28.9276 26.8078 26.8073 28.9444 24.1897 28.9761V28.3568C26.4365 28.3252 28.2628 26.5148 28.3113 24.2722V7.49634H27.8886V24.1828C27.8886 26.2345 26.2339 27.9021 24.1898 27.9341V27.3178C25.8607 27.2864 27.2198 25.9465 27.2723 24.2808V24.1828V7.53254H26.8495V24.1833C26.8492 25.6619 25.6608 26.863 24.1898 26.895V26.2786C25.2878 26.2479 26.1817 25.3733 26.2332 24.2807V7.5084H25.8105V17.3979C23.6056 17.4131 21.5348 18.2761 19.9741 19.8367C18.4041 21.4066 17.5385 23.4925 17.5334 25.712L17.5325 25.7302C17.5325 25.7302 17.5325 25.731 17.5325 25.7313V42.4879H17.9552V25.7313C17.9552 21.3875 21.4739 17.8526 25.8104 17.8208V18.4369C23.8831 18.452 22.0732 19.207 20.7087 20.5713C19.3351 21.945 18.5775 23.77 18.5724 25.712L18.5715 42.4879H18.9942V25.7313C18.9942 21.9604 22.0468 18.8916 25.8104 18.8598V19.4761C24.1607 19.4911 22.6117 20.138 21.4435 21.3061C20.2661 22.4835 19.6165 24.0476 19.6115 25.712L19.6106 42.4879H20.0334V25.7313C20.0334 22.5334 22.6198 19.9306 25.8105 19.8989V20.5152C22.9662 20.5468 20.6613 22.8629 20.6507 25.712L20.6497 42.4879H21.0724V25.7313C21.0724 23.1063 23.1928 20.9697 25.8104 20.938V21.5573C23.5396 21.5893 21.7012 23.4363 21.6906 25.7121H21.6887V42.488H22.1116V25.7314C22.1116 23.6796 23.7663 22.0121 25.8104 21.9801V22.5965C24.1154 22.6283 22.7457 24.0048 22.7305 25.7038H22.7278V25.731V42.4519H23.1506V25.7315C23.1506 24.2527 24.3391 23.0511 25.8104 23.0193V23.6356C24.6801 23.6672 23.7691 24.5907 23.7673 25.728L23.7669 42.5039H24.1897V32.5164C26.3944 32.5013 28.4654 31.6383 30.026 30.0777C31.5793 28.5244 32.4402 26.4654 32.4632 24.2725H32.4676V7.49634H32.0448ZM25.8103 24.0582V24.1828C25.8103 25.0887 25.0879 25.8244 24.1896 25.8558V25.7313C24.1896 24.8254 24.9121 24.0897 25.8103 24.0582Z" fill="#081219"/>
</svg>
