<svg width="50" height="50" viewBox="0 0 50 50" fill="none" xmlns="http://www.w3.org/2000/svg">
<path d="M28.0971 25C28.0971 20.8288 34.6569 17.4474 42.749 17.4474V7.25098H32.5526C32.5526 15.343 29.1712 21.9028 25 21.9028C20.8288 21.9028 17.4474 15.343 17.4474 7.25098H7.25098V17.4474C15.343 17.4474 21.9028 20.8288 21.9028 25C21.9028 29.1712 15.3429 32.5526 7.25098 32.5526V42.749H17.4474C17.4474 34.6569 20.8288 28.0972 25 28.0972C29.1712 28.0972 32.5526 34.6571 32.5526 42.749H42.749V32.5526C34.6569 32.5526 28.0971 29.1712 28.0971 25Z" fill="#081219"/>
</svg>
