<svg width="50" height="50" viewBox="0 0 50 50" fill="none" xmlns="http://www.w3.org/2000/svg">
<path d="M42.4669 25C40.8766 23.4097 38.9605 22.3441 36.9334 21.8025C38.418 20.3199 39.5447 18.439 40.1268 16.2666C37.9544 15.6846 35.7622 15.7198 33.7359 16.2642C34.2803 14.2379 34.3155 12.0457 33.7334 9.8733C31.5611 10.4554 29.6801 11.582 28.1976 13.0666C27.6559 11.0397 26.5904 9.12349 25 7.5332C23.4097 9.12349 22.3441 11.0396 21.8025 13.0666C20.3199 11.582 18.439 10.4554 16.2666 9.8733C15.6846 12.0457 15.7198 14.2379 16.2642 16.2642C14.2379 15.7198 12.0457 15.6846 9.8733 16.2666C10.4554 18.439 11.582 20.32 13.0666 21.8025C11.0397 22.3441 9.12349 23.4097 7.5332 25C9.12349 26.5903 11.0396 27.6559 13.0666 28.1976C11.582 29.6802 10.4554 31.5611 9.8733 33.7334C12.0457 34.3155 14.2379 34.2803 16.2642 33.7359C15.7198 35.7622 15.6846 37.9544 16.2666 40.1268C18.439 39.5447 20.32 38.4181 21.8025 36.9334C22.3441 38.9604 23.4097 40.8766 25 42.4669C26.5903 40.8766 27.6559 38.9605 28.1975 36.9334C29.6801 38.4181 31.561 39.5447 33.7333 40.1268C34.3154 37.9544 34.2802 35.7622 33.7357 33.7359C35.762 34.2804 37.9542 34.3155 40.1266 33.7334C39.5445 31.5611 38.4179 29.6801 36.9332 28.1976C38.9602 27.656 40.8766 26.5903 42.4669 25Z" fill="#081219"/>
</svg>
