<svg width="50" height="50" viewBox="0 0 50 50" fill="none" xmlns="http://www.w3.org/2000/svg">
<path d="M42.8054 25.3545L42.7378 25.1767C42.396 24.3142 41.8444 23.437 41.0856 22.5049V11.3635H8.91431V22.5067C8.15248 23.4467 7.60066 24.3245 7.26407 25.1768L7.19458 25.3546L7.26407 25.5324C7.6024 26.3883 8.15453 27.2666 8.91431 28.2027V38.6366H41.0856V28.2039C41.8409 27.2753 42.392 26.3982 42.7338 25.5324L42.8054 25.3545ZM9.93115 12.3527H40.0689V21.3742C40.0244 21.3307 39.9605 21.3 39.9153 21.257C39.1569 20.5348 38.2906 19.8834 37.3396 19.295C37.1837 19.1987 37.0298 19.1055 36.8695 19.0127C35.8945 18.4497 34.8454 17.9561 33.7234 17.5433C33.5499 17.4793 33.3741 17.4252 33.1976 17.3651C32.0341 16.9692 30.8208 16.6434 29.5508 16.4219C29.4135 16.398 29.274 16.3862 29.1355 16.3645C27.7918 16.1522 26.4116 16.02 25.0001 16.02C23.5904 16.02 22.2119 16.1522 20.8692 16.3642C20.729 16.3864 20.5872 16.398 20.448 16.4224C19.1809 16.6437 17.9706 16.9687 16.8096 17.3636C16.6303 17.4247 16.4513 17.48 16.2751 17.545C15.1548 17.9572 14.1072 18.4503 13.1334 19.0122C12.9723 19.1052 12.818 19.1987 12.6616 19.2955C11.7096 19.8841 10.8422 20.5363 10.0829 21.2587C10.0383 21.3012 9.97522 21.3312 9.93125 21.3742L9.93115 12.3527ZM40.0688 37.6473H9.93115V29.3348C9.9746 29.3773 10.0374 29.4073 10.0816 29.4493C10.8412 30.1722 11.7088 30.8248 12.6616 31.4137C12.8167 31.5098 12.9702 31.6023 13.13 31.6946C14.1055 32.2576 15.1541 32.7511 16.2763 33.1638C16.4503 33.2278 16.6268 33.2824 16.8038 33.3425C17.9666 33.7384 19.1797 34.0637 20.4489 34.2852C20.5869 34.3091 20.7274 34.3207 20.8661 34.3426C22.2096 34.5546 23.5893 34.6871 25 34.6871C26.4124 34.6871 27.7936 34.5544 29.1383 34.3421C29.2752 34.3206 29.4131 34.3093 29.5489 34.2856C30.8224 34.0634 32.0392 33.7373 33.2052 33.3402C33.3772 33.2815 33.5492 33.2284 33.7183 33.1663C34.8444 32.7523 35.8975 32.2569 36.8758 31.6918C37.0324 31.6014 37.1823 31.5104 37.3345 31.4165C38.2875 30.8276 39.1558 30.1748 39.9154 29.4516C39.9606 29.4086 40.0243 29.3782 40.0688 29.3347V37.6473ZM40.184 27.735C37.1218 31.4139 31.3071 33.6978 25 33.6978C18.6968 33.6978 12.8781 31.414 9.81789 27.735L9.79309 27.7053C9.10321 26.8686 8.60601 26.094 8.28675 25.3545C8.60396 24.615 9.10146 23.8442 9.79309 23.0037L9.81789 22.974C12.8801 19.2951 18.6968 17.0093 25 17.0093C31.3032 17.0093 37.1218 19.2951 40.184 22.974C40.887 23.8165 41.3875 24.5971 41.7131 25.3545C41.3874 26.1158 40.883 26.8964 40.184 27.735Z" fill="#081219"/>
<path d="M25 31.6148C28.5535 31.6148 31.4342 28.812 31.4342 25.3545C31.4342 21.897 28.5535 19.0942 25 19.0942C21.4465 19.0942 18.5658 21.897 18.5658 25.3545C18.5658 28.812 21.4465 31.6148 25 31.6148Z" fill="#081219"/>
</svg>
