<svg width="50" height="50" viewBox="0 0 50 50" fill="none" xmlns="http://www.w3.org/2000/svg">
<path d="M42.7407 27.0191C42.7407 27.0191 42.7307 26.9576 42.7207 26.9371C42.7108 26.9064 42.6908 26.8756 42.6709 26.8551C42.6609 26.8244 42.641 26.8039 42.631 26.7834L30.405 12.0141C30.405 12.0141 30.385 11.9936 30.375 11.9834C30.375 11.9834 30.385 11.9936 30.385 12.0039C30.375 11.9936 30.3551 11.9731 30.3351 11.9629C30.3351 11.9629 30.3152 11.9526 30.3052 11.9424C30.3052 11.9424 30.3252 11.9424 30.3351 11.9526C30.3152 11.9424 30.3052 11.9321 30.2953 11.9219C30.2653 11.9014 30.2255 11.8809 30.2155 11.8809C30.1856 11.8604 30.1357 11.8399 30.0958 11.8399L17.052 10.0155C17.052 10.0155 16.9324 10.0155 16.9025 10.0258C16.8725 10.0258 16.8127 10.036 16.7928 10.0463C16.7628 10.0565 16.7429 10.077 16.723 10.0872C16.703 10.0872 16.6831 10.1077 16.6631 10.118C16.6432 10.1385 16.6232 10.159 16.6033 10.1795C16.5833 10.2 16.5634 10.2205 16.5534 10.2307L7.06977 24.959C7.06977 24.959 7.01991 25.082 7.00993 25.1127C6.99996 25.1435 6.98999 25.2562 6.98999 25.287C6.98999 25.3177 7.00993 25.369 7.01991 25.3997C7.01991 25.4305 7.0598 25.5227 7.07974 25.5535L14.8382 36.5407C14.918 36.6535 15.0277 36.7252 15.1573 36.7457L32.9977 39.9947C32.9977 39.9947 33.0775 39.9947 33.0875 39.9947C33.1673 39.9947 33.2471 39.9742 33.2969 39.9435C33.3268 39.9332 33.3568 39.9127 33.3867 39.882C33.3966 39.8717 33.4066 39.8615 33.4166 39.8512C33.4465 39.8307 33.4664 39.8102 33.4864 39.7897L42.6609 27.4188C42.6609 27.4188 42.6709 27.3983 42.6809 27.3983C42.6809 27.3983 42.6809 27.3983 42.6809 27.3881C42.6809 27.3881 42.7108 27.3266 42.7108 27.3163C42.7307 27.2753 42.7507 27.2241 42.7507 27.1523C42.7507 27.1318 42.7507 27.1011 42.7507 27.0703C42.7507 27.0396 42.7507 27.0191 42.7407 27.0089V27.0191ZM15.5063 31.3648L14.9379 34.9316L9.51298 27.2548L15.5063 31.3648ZM9.88196 22.4479L16.3939 12.3626L16.1745 16.8928L9.88196 22.4479ZM34.8127 26.2914L32.7086 38.7238L17.4709 31.2418L34.8027 26.2812L34.8127 26.2914ZM18.0194 17.19L29.7468 12.9776L34.4936 24.59L18.0293 17.19H18.0194ZM17.1218 17.9075L33.9451 25.4715L16.5833 30.4424L17.1218 17.9075ZM16.1146 18.2969L15.5961 30.1964L8.30633 25.1947L16.1146 18.2969ZM31.7313 15.1914L40.9158 26.2914L35.79 25.1332L31.7313 15.1914ZM17.1917 16.4008L17.4509 11.1019L27.9019 12.5573L17.1917 16.4008ZM29.5573 38.3241L15.8055 35.8233L16.4338 31.8875L29.5573 38.3241ZM35.8399 26.1992L41.3944 27.4496L33.9351 37.5041L35.8498 26.1889L35.8399 26.1992Z" fill="black"/>
</svg>
