<svg width="50" height="50" viewBox="0 0 50 50" fill="none" xmlns="http://www.w3.org/2000/svg">
<path d="M10.9829 25H15.6553V20.4506H20.3276V15.9012H25V11.3517H29.6723V6.80237H25H20.3276H15.6553H10.9829H6.31055V11.3517V15.9012V20.4506V25V29.5494H10.9829V25Z" fill="#081219"/>
<path d="M39.0171 6.80237V11.3517H34.3448V15.9012H29.6723V20.4506H25V25H20.3276V29.5494H15.6553V34.0988H10.9829V38.6482H6.31055V43.1977H10.9829H15.6553H20.3276H25H29.6723H34.3448H39.0171H43.6895V38.6482V34.0988V29.5494V25V20.4506V15.9012V11.3517V6.80237H39.0171ZM34.3448 34.0988H29.6723V29.5494H34.3448V34.0988Z" fill="#081219"/>
</svg>
