<svg width="50" height="50" viewBox="0 0 50 50" fill="none" xmlns="http://www.w3.org/2000/svg">
<path d="M42.909 25C42.909 23.048 41.3914 21.4415 39.4417 21.235C41.024 20.1076 41.5127 17.978 40.5096 16.2875C39.5065 14.597 37.3666 13.944 35.572 14.7137C36.3631 12.9675 35.6919 10.8855 33.9545 9.90953C32.217 8.93354 30.0283 9.40902 28.8696 10.9486C28.6573 9.05161 27.0062 7.57501 25 7.57501C22.9938 7.57501 21.3426 9.05161 21.1303 10.9486C19.9717 9.40902 17.7829 8.93354 16.0455 9.90953C14.308 10.8855 13.6369 12.9675 14.4279 14.7137C12.6333 13.944 10.4934 14.597 9.49031 16.2875C8.48721 17.978 8.97589 20.1076 10.5583 21.235C8.60856 21.4415 7.09094 23.048 7.09094 25C7.09094 26.952 8.60856 28.5585 10.5583 28.7651C8.97589 29.8924 8.48721 32.022 9.49031 33.7125C10.4934 35.403 12.6334 36.056 14.4279 35.2863C13.6369 37.0325 14.308 39.1145 16.0455 40.0905C17.7829 41.0665 19.9717 40.591 21.1303 39.0514C21.3426 40.9484 22.9938 42.425 25 42.425C27.0062 42.425 28.6573 40.9484 28.8696 39.0514C30.0283 40.591 32.217 41.0666 33.9545 40.0905C35.6919 39.1145 36.3631 37.0324 35.572 35.2863C37.3667 36.056 39.5065 35.403 40.5096 33.7125C41.5127 32.022 41.024 29.8924 39.4417 28.7651C41.3914 28.5585 42.909 26.952 42.909 25Z" fill="#02111B"/>
</svg>
