<svg width="50" height="50" viewBox="0 0 50 50" fill="none" xmlns="http://www.w3.org/2000/svg">
<path d="M42.958 24.7611L33.5904 6.98348C33.4123 6.64617 32.8618 6.64617 32.6836 6.98348L30.4245 11.2707L28.1655 6.98348C27.9874 6.64617 27.4369 6.64617 27.2586 6.98348L24.9997 11.2708L22.7405 6.98348C22.5633 6.64617 22.0109 6.64617 21.8337 6.98348L19.5748 11.2705L17.316 6.98348C17.2274 6.81477 17.0528 6.70972 16.8626 6.70972C16.6723 6.70972 16.4977 6.81477 16.4091 6.98348L7.04187 24.7611C6.96326 24.9102 6.96326 25.0889 7.04187 25.239L16.4093 43.0172C16.4979 43.1854 16.6725 43.2904 16.8628 43.2904C17.053 43.2904 17.2276 43.1854 17.3162 43.0172L19.575 38.7301L21.8339 43.0172C21.9224 43.1854 22.0971 43.2904 22.2873 43.2904C22.4775 43.2904 22.6522 43.1854 22.7407 43.0172L24.9999 38.7297L27.2588 43.0172C27.3479 43.1854 27.522 43.2904 27.7123 43.2904C27.9025 43.2904 28.0766 43.1854 28.1657 43.0172L30.4247 38.7299L32.6838 43.0172C32.7729 43.1854 32.947 43.2904 33.1372 43.2904C33.3274 43.2904 33.5016 43.1854 33.5907 43.0172L42.9581 25.239C43.037 25.0889 43.037 24.9102 42.958 24.7611ZM27.7122 8.32173L29.8453 12.3702L27.7122 16.4185L25.579 12.3701L27.7122 8.32173ZM17.8917 25.239L21.708 32.4823L19.5749 36.5312L13.4992 24.9998L19.5749 13.4691L21.7081 17.5179L17.8917 24.7611C17.8132 24.9102 17.8132 25.0889 17.8917 25.239ZM18.9242 24.9998L22.2874 18.6171L24.4204 22.6655L23.3162 24.7611C23.2376 24.9102 23.2376 25.0889 23.3162 25.239L24.4204 27.3344L22.2874 31.3829L18.9242 24.9998ZM22.8666 17.5177L24.9997 13.4695L27.1328 17.5179L24.9997 21.5661L22.8666 17.5177ZM24.9995 23.7647L25.6502 24.9998L24.9995 26.2351L24.3485 24.9998L24.9995 23.7647ZM24.9998 28.4343L27.1328 32.4824L24.9997 36.5309L22.8667 32.4826L24.9998 28.4343ZM25.579 27.3349L26.6832 25.239C26.7623 25.0889 26.7623 24.9102 26.6832 24.7611L25.5789 22.6651L27.7121 18.6171L31.0753 24.9998L27.7121 31.383L25.579 27.3349ZM32.1082 25.239C32.1872 25.0889 32.1872 24.9102 32.1082 24.7611L28.2914 17.5176L30.4246 13.4693L36.5002 24.9998L30.4246 36.531L28.2916 32.4826L32.1082 25.239ZM22.2872 8.32173L24.4205 12.3703L22.2875 16.4185L20.1542 12.3698L22.2872 8.32173ZM16.8628 41.679L8.07428 24.9998L16.8628 8.32163L18.9957 12.3698L12.4668 24.7611C12.3882 24.9102 12.3882 25.0889 12.4668 25.239L18.9957 37.6305L16.8628 41.679ZM22.2872 41.679L20.1542 37.6308L22.2874 33.582L24.4204 37.6302L22.2872 41.679ZM27.7122 41.679L25.5791 37.6304L27.7122 33.5821L29.8452 37.6304L27.7122 41.679ZM33.1371 41.679L31.0039 37.6305L37.5331 25.2391C37.6122 25.089 37.6122 24.9103 37.5331 24.7612L31.0038 12.37L33.1371 8.32173L41.9251 24.9999L33.1371 41.679Z" fill="#081219"/>
</svg>
