<svg width="50" height="50" viewBox="0 0 50 50" fill="none" xmlns="http://www.w3.org/2000/svg">
<path d="M42.9203 20.9413L42.8804 20.7465C42.8305 20.5416 42.6411 20.4083 42.4316 20.4596C33.7258 22.4684 29.4477 23.3601 27.4632 21.7305C25.5585 20.1623 25.4787 16.1139 25.4787 7.84266C25.4787 7.62742 25.3092 7.45319 25.0998 7.45319H24.9103C24.7009 7.45319 24.5314 7.62742 24.5314 7.84266C24.5314 16.1241 24.4516 20.1726 22.5469 21.7305C20.5624 23.3601 16.2843 22.4684 7.57845 20.4596C7.47872 20.4391 7.379 20.4596 7.29922 20.5108C7.21944 20.562 7.15961 20.6543 7.12969 20.7465L7.0898 20.9413C7.03994 21.1463 7.16958 21.3512 7.36903 21.4025C15.7956 23.3499 19.8843 24.385 20.7917 26.6604C21.789 29.1817 18.9469 33.6709 13.7812 41.8499C13.7314 41.9319 13.7114 42.0343 13.7314 42.1368C13.7513 42.2393 13.8111 42.3213 13.8909 42.3828L14.0505 42.4956C14.1103 42.5366 14.1801 42.5571 14.2499 42.5571C14.3696 42.5571 14.4893 42.4956 14.5591 42.3828C19.7247 34.2141 22.5369 29.9504 25.0001 29.9504C27.4632 29.9504 30.2754 34.2141 35.4411 42.3828C35.5507 42.5571 35.7801 42.6083 35.9596 42.4956L36.1192 42.3828C36.1989 42.3316 36.2588 42.2393 36.2787 42.1368C36.2987 42.0343 36.2787 41.9319 36.2289 41.8499C31.0632 33.6812 28.2211 29.1817 29.2183 26.6604C30.1258 24.3748 34.2145 23.3396 42.6411 21.4025C42.7408 21.382 42.8206 21.3205 42.8804 21.2283C42.9302 21.1463 42.9502 21.0335 42.9302 20.9413H42.9203ZM28.3408 26.2914C27.8023 27.6648 28.1014 29.2945 29.0089 31.3751C27.6228 29.8377 26.3463 28.9665 24.9901 28.9665C23.6339 28.9665 22.3574 29.8377 20.9812 31.3751C21.8887 29.3047 22.1978 27.6648 21.6494 26.2914C21.1807 25.0922 20.0638 24.2313 18.4782 23.5139C20.4627 23.6368 22.0283 23.3806 23.1153 22.4787C24.1125 21.6587 24.671 20.3673 24.9901 18.6557C25.3092 20.3776 25.8577 21.6587 26.8649 22.4787C27.9519 23.3806 29.5275 23.6266 31.512 23.5139C29.9264 24.2313 28.8194 25.1025 28.3408 26.2914Z" fill="black"/>
</svg>
