<svg width="50" height="50" viewBox="0 0 50 50" fill="none" xmlns="http://www.w3.org/2000/svg">
<path d="M42.8105 25C42.8105 22.6067 38.4626 21.3103 35.3812 20.702C37.1164 18.0892 39.2803 14.1003 37.5851 12.415C35.8898 10.7197 31.9008 12.8837 29.2981 14.6288C28.6798 11.5574 27.3834 7.19946 25 7.19946C22.6166 7.19946 21.3103 11.5474 20.702 14.6288C18.0892 12.8936 14.1003 10.7297 12.415 12.415C10.7297 14.1103 12.8837 18.0992 14.6288 20.702C11.5574 21.3202 7.19946 22.6067 7.19946 25C7.19946 27.3934 11.5474 28.6898 14.6288 29.2981C12.8936 31.9108 10.7297 35.8997 12.415 37.5851C14.1003 39.2803 18.0992 37.1164 20.702 35.3712C21.3202 38.4427 22.6067 42.8006 25 42.8006C27.3934 42.8006 28.6898 38.4527 29.2981 35.3712C31.9008 37.1064 35.8997 39.2704 37.5851 37.5851C39.2803 35.8997 37.1164 31.9009 35.3812 29.2981C38.4526 28.6798 42.8105 27.3934 42.8105 25ZM34.2344 28.261C34.0449 28.2909 33.8754 28.4105 33.7956 28.5801L33.6959 28.6L33.7557 28.6898C33.6959 28.8693 33.7258 29.0687 33.8355 29.2283C36.7873 33.4166 37.3956 36.0493 36.7175 36.7274C36.0394 37.3956 33.4067 36.7873 29.2183 33.8454C29.0587 33.7358 28.8593 33.7058 28.6798 33.7557L28.59 33.6959L28.5701 33.7956C28.4006 33.8853 28.2809 34.0449 28.251 34.2344C27.3734 39.2803 25.9474 41.574 24.99 41.574C24.0327 41.574 22.6067 39.2803 21.7291 34.2344C21.6992 34.0349 21.5695 33.8654 21.41 33.7856L21.39 33.6859L21.3003 33.7457L21.2305 33.7158L20.8914 33.7358L20.7618 33.8255C16.5734 36.7773 13.9407 37.3856 13.2626 36.7075C12.5845 36.0294 13.2028 33.3967 16.1446 29.2083C16.2543 29.0488 16.2842 28.8493 16.2344 28.6698L16.2942 28.5801L16.1945 28.5601C16.1047 28.3906 15.9452 28.2709 15.7557 28.241C10.7097 27.3635 8.41608 25.9374 8.41608 24.9801C8.41608 24.0227 10.7097 22.5967 15.7557 21.7191C15.9452 21.6892 16.1047 21.5695 16.1945 21.4L16.2942 21.3801L16.2344 21.2903C16.2942 21.1108 16.2643 20.9114 16.1446 20.7518C13.2028 16.5635 12.5845 13.9308 13.2626 13.2526C13.9407 12.5745 16.5734 13.1928 20.7618 16.1346C20.9213 16.2443 21.1208 16.2743 21.3003 16.2144L21.39 16.2743L21.41 16.1745C21.5795 16.0848 21.6992 15.9252 21.7291 15.7358C22.6067 10.6898 24.0327 8.39614 24.99 8.39614C25.9474 8.39614 27.3734 10.6898 28.251 15.7457C28.2909 15.9352 28.4105 16.0948 28.5701 16.1745L28.59 16.2743L28.6798 16.2144C28.8593 16.2743 29.0587 16.2443 29.2183 16.1247C33.4067 13.1828 36.0394 12.5646 36.7175 13.2427C37.3956 13.9208 36.7773 16.5535 33.8355 20.7418C33.7258 20.9014 33.6959 21.1008 33.7457 21.2804L33.6859 21.3701L33.7856 21.39C33.8754 21.5596 34.0349 21.6792 34.2244 21.7092C39.2704 22.5867 41.564 24.0128 41.564 24.9701C41.564 25.9274 39.2704 27.3535 34.2244 28.231L34.2344 28.261Z" fill="black"/>
</svg>
