<svg width="50" height="50" viewBox="0 0 50 50" fill="none" xmlns="http://www.w3.org/2000/svg">
<path d="M42.2408 42.7545C42.242 42.7473 42.2487 42.7425 42.2487 42.7349C42.2487 42.7243 42.2402 42.7177 42.2379 42.708C42.2359 42.6979 42.2407 42.6875 42.2361 42.6778L25.1118 7.20769C25.1109 7.20594 25.1083 7.20676 25.1073 7.20512C25.1069 7.2042 25.1057 7.204 25.1052 7.20318C25.1015 7.19641 25.0976 7.192 25.0928 7.18606C25.0872 7.17909 25.0821 7.17448 25.0753 7.16884C25.0698 7.16413 25.0662 7.16013 25.0602 7.15644C25.0574 7.1548 25.0561 7.15142 25.0531 7.14998C25.0523 7.14957 25.0522 7.14844 25.0514 7.14814C25.0499 7.14732 25.048 7.14855 25.0464 7.14793C25.0448 7.14721 25.044 7.14527 25.0422 7.14465C25.042 7.14455 25.0424 7.14475 25.0422 7.14465C25.039 7.14342 25.0354 7.14557 25.0322 7.14465C25.0289 7.14373 25.0277 7.13983 25.0242 7.13912C25.0193 7.13809 25.0163 7.14209 25.0115 7.14158C25.007 7.14106 25.0044 7.13666 24.9998 7.13666C24.9955 7.13666 24.993 7.14086 24.989 7.14127C24.9846 7.14168 24.9809 7.13768 24.9765 7.13861C24.973 7.13932 24.9716 7.14322 24.9681 7.14424C24.9649 7.14496 24.9621 7.1426 24.9589 7.14363C24.9584 7.14383 24.9582 7.14455 24.9577 7.14475C24.9563 7.14527 24.9555 7.14732 24.9541 7.14793C24.9522 7.14875 24.9501 7.14711 24.9482 7.14803C24.9478 7.14824 24.9478 7.14865 24.9475 7.14885C24.9447 7.15019 24.9437 7.15377 24.941 7.15521C24.9328 7.15982 24.9265 7.16433 24.9197 7.17069C24.9146 7.1753 24.9116 7.1797 24.9072 7.18503C24.9023 7.19098 24.8984 7.19549 24.8946 7.20215C24.8935 7.2041 24.8908 7.20461 24.8897 7.20656C24.8894 7.20717 24.8884 7.20687 24.8881 7.20748C24.888 7.20769 24.8875 7.20881 24.8874 7.20902L24.8867 7.21056C24.8866 7.21076 24.8868 7.21035 24.8867 7.21056L24.8831 7.21814L7.76451 42.6779C7.75992 42.6873 7.76471 42.6972 7.76251 42.7072C7.76002 42.7172 7.75134 42.7241 7.75134 42.735C7.75134 42.7428 7.75812 42.7475 7.75942 42.7548C7.76211 42.7716 7.7682 42.7835 7.77687 42.798C7.78565 42.8126 7.79333 42.8236 7.80679 42.8336C7.81267 42.8382 7.81387 42.8465 7.82065 42.8501C7.8387 42.8591 7.85765 42.8631 7.8762 42.8631H42.1244C42.1344 42.8631 42.1408 42.8545 42.1502 42.8521C42.1602 42.85 42.1704 42.8549 42.1799 42.8501C42.1867 42.8466 42.1878 42.8383 42.1937 42.8338C42.2072 42.8237 42.2151 42.8126 42.2239 42.7979C42.2323 42.7833 42.2382 42.7712 42.2408 42.7545ZM40.817 42.6067L33.0619 25.1279H33.4845L41.9227 42.6067H40.817ZM8.07694 42.6067L16.5152 25.1279H16.879L9.06749 42.6067H8.07694ZM21.5213 24.8717H19.0627L24.5531 8.94505L21.5213 24.8717ZM24.8752 8.58857V24.8717H21.7753L24.8752 8.58857ZM25.1245 8.64341L28.0865 24.8717H25.1245V8.64341ZM28.3407 24.8717L25.431 8.93111L30.8186 24.8717H28.3407ZM31.0826 24.8717L25.9919 9.80916L32.6752 24.8717H31.0826ZM32.9483 24.8717L28.2656 14.3174L33.3608 24.8717H32.9483ZM18.7985 24.8717H17.268L23.9607 9.89608L18.7985 24.8717ZM17.1535 25.1279H18.7101L12.6845 42.6067H9.34182L17.1535 25.1279ZM18.9745 25.1279H21.4726L18.146 42.6067H12.9489L18.9745 25.1279ZM21.7266 25.1279H24.8752V42.6067H18.4L21.7266 25.1279ZM25.1245 25.1279H28.1332L31.3246 42.6067H25.1245V25.1279ZM28.3874 25.1279H30.9052L36.8127 42.6067H31.5788L28.3874 25.1279ZM31.1693 25.1279H32.7889L40.544 42.6067H37.0767L31.1693 25.1279ZM16.9935 24.8717H16.6389L21.4145 14.9794L16.9935 24.8717Z" fill="#081219"/>
</svg>
