<svg width="50" height="50" viewBox="0 0 50 50" fill="none" xmlns="http://www.w3.org/2000/svg">
<path d="M42.7058 8.67465L26.6529 7.29419H23.3471L7.29419 8.67465V8.95897L22.7346 7.63115L7.29419 10.9146V11.2042L22.7934 7.90818L7.29419 13.2741V13.5738L22.8859 8.17594L7.29419 15.8434V16.1592L23.0107 8.43033L7.29419 18.7451V19.0838L23.1666 8.66688L7.29419 22.1597V22.5314L23.3499 8.88278L7.29419 26.3785V26.7975L23.5585 9.07444L7.29419 31.9167V32.405L23.7894 9.23859L7.29419 39.7947V40.3911L24.0387 9.37311L11.0621 42.7058H11.366L24.3025 9.47613L15.906 42.7058H16.1983L24.5772 9.54554L20.4525 42.7058H20.7379L24.8584 9.58034V42.7058H25.1416V9.58034L29.2621 42.7058H29.5475L25.4227 9.54554L33.8018 42.7058H34.094L25.6975 9.47613L38.634 42.7058H38.9379L25.9612 9.37311L42.7058 40.3911V39.7947L26.2106 9.23859L42.7058 32.405V31.9167L26.4415 9.07444L42.7058 26.7975V26.3785L26.6501 8.88278L42.7058 22.5314V22.1597L26.8334 8.66688L42.7058 19.0838V18.7451L26.9893 8.43033L42.7058 16.1592V15.8434L27.1141 8.17594L42.7058 13.5738V13.2741L27.2066 7.90818L42.7058 11.2042V10.9146L27.2654 7.63115L42.7058 8.95897V8.67465Z" fill="#081219"/>
</svg>
