<svg width="50" height="50" viewBox="0 0 50 50" fill="none" xmlns="http://www.w3.org/2000/svg">
<path d="M21.4623 8.70618C21.4623 9.35807 21.9909 9.8866 22.6428 9.8866H22.9097C23.5616 9.8866 24.0901 10.415 24.0901 11.067C24.0901 11.7189 23.5616 12.2474 22.9097 12.2474H21.1425C20.4906 12.2474 19.9621 12.776 19.9621 13.4279C19.9621 14.0798 20.4906 14.6083 21.1425 14.6083H22.9097C23.5616 14.6083 24.0901 15.1368 24.0901 15.7887C24.0901 16.4406 23.5616 16.9691 22.9097 16.9691H19.6424C18.9905 16.9691 18.462 17.4976 18.462 18.1495C18.462 18.8015 18.9905 19.33 19.6424 19.33H22.9097C23.5616 19.33 24.0901 19.8584 24.0901 20.5104C24.0901 20.9696 23.8205 21.3567 23.4376 21.5519H18.1421C17.4902 21.5519 16.9616 22.0803 16.9616 22.7323C16.9616 23.3842 17.4901 23.9127 18.1421 23.9127H22.9096C23.5615 23.9127 24.09 24.4412 24.09 25.0932C24.09 25.7451 23.5615 26.2736 22.9096 26.2736H16.6419C15.99 26.2736 15.4615 26.8021 15.4615 27.454C15.4615 28.1059 15.99 28.6344 16.6419 28.6344H22.91C23.5616 28.6345 24.09 29.163 24.09 29.8147C24.09 30.4666 23.5615 30.9952 22.9096 30.9952H15.1417C14.4898 30.9952 13.9613 31.5237 13.9613 32.1756C13.9613 32.8275 14.4898 33.356 15.1417 33.356H22.91C23.5616 33.3561 24.09 33.8845 24.09 34.5363C24.09 35.1882 23.5615 35.7167 22.9096 35.7167H13.6415C12.9896 35.7167 12.461 36.2453 12.461 36.8972C12.461 37.5491 12.9896 38.0776 13.6415 38.0776H22.9096C23.5615 38.0776 24.09 38.606 24.09 39.258C24.09 39.5979 23.9422 39.8987 23.7124 40.1141H12.1412C11.4893 40.1141 10.9608 40.6426 10.9608 41.2946C10.9608 41.9464 11.4892 42.475 12.1412 42.475H37.8587C38.5106 42.475 39.0391 41.9464 39.0391 41.2946C39.0391 40.6427 38.5106 40.1141 37.8587 40.1141H26.2875C26.0578 39.8987 25.9099 39.5978 25.9099 39.258C25.9099 38.6061 26.4384 38.0776 27.0903 38.0776H36.3585C37.0104 38.0776 37.5389 37.5492 37.5389 36.8972C37.5389 36.2453 37.0105 35.7167 36.3585 35.7167H27.0903C26.4384 35.7167 25.9099 35.1882 25.9099 34.5363C25.9099 33.8845 26.4383 33.3561 27.0899 33.356H34.8582C35.5101 33.356 36.0387 32.8275 36.0387 32.1756C36.0387 31.5237 35.5101 30.9952 34.8582 30.9952H27.0902C26.4383 30.9952 25.9098 30.4666 25.9098 29.8147C25.9098 29.163 26.4382 28.6345 27.0898 28.6344H33.3579C34.0098 28.6344 34.5383 28.1059 34.5383 27.454C34.5383 26.8021 34.0098 26.2736 33.3579 26.2736H27.0901C26.4382 26.2736 25.9097 25.7451 25.9097 25.0932C25.9097 24.4412 26.4382 23.9127 27.0901 23.9127H31.8577C32.5096 23.9127 33.0381 23.3842 33.0381 22.7323C33.0381 22.0804 32.5097 21.5519 31.8577 21.5519H26.5623C26.1794 21.3567 25.9097 20.9696 25.9097 20.5104C25.9097 19.8585 26.4382 19.33 27.0901 19.33H30.3574C31.0093 19.33 31.5379 18.8015 31.5379 18.1495C31.5379 17.4976 31.0094 16.9691 30.3574 16.9691H27.0901C26.4382 16.9691 25.9097 16.4406 25.9097 15.7887C25.9097 15.1368 26.4382 14.6083 27.0901 14.6083H28.8572C29.5091 14.6083 30.0376 14.0799 30.0376 13.4279C30.0376 12.776 29.5091 12.2474 28.8572 12.2474H27.0901C26.4382 12.2474 25.9097 11.7189 25.9097 11.067C25.9097 10.4151 26.4382 9.8866 27.0901 9.8866H27.3571C28.009 9.8866 28.5375 9.35807 28.5375 8.70618C28.5375 8.05429 28.009 7.52576 27.3571 7.52576H22.6425C21.9909 7.52586 21.4623 8.05429 21.4623 8.70618Z" fill="#081219"/>
</svg>
