<svg width="50" height="50" viewBox="0 0 50 50" fill="none" xmlns="http://www.w3.org/2000/svg">
<path d="M35.3324 37.2351C30.3158 35.4024 26.9458 30.5821 26.9458 25.2403C26.9458 19.8994 30.3158 15.079 35.3324 13.2459C35.5365 13.1709 35.6717 12.9747 35.6686 12.7565C35.6646 12.5383 35.5235 12.3461 35.3163 12.2781C33.935 11.8222 32.4957 11.5909 31.0393 11.5909C23.513 11.5909 17.3894 17.714 17.3894 25.2404C17.3894 32.7672 23.513 38.8908 31.0393 38.8908C32.4967 38.8908 33.936 38.6596 35.3172 38.2032C35.5243 38.1351 35.6655 37.9429 35.6685 37.7247C35.6716 37.5065 35.5365 37.3101 35.3324 37.2351ZM31.0395 37.8657C24.0782 37.8657 18.4145 32.2015 18.4145 25.2401C18.4145 18.2788 24.0782 12.6158 31.0395 12.6158C31.9023 12.6158 32.7571 12.7033 33.5968 12.877C28.9506 15.1811 25.9208 19.9765 25.9208 25.2403C25.9208 30.505 28.9515 35.3004 33.5968 37.6045C32.758 37.7776 31.9022 37.8657 31.0395 37.8657Z" fill="#081219"/>
<path d="M32.2145 39.2129C31.274 39.2129 30.51 39.9632 30.478 40.896C22.0913 40.5969 15.3562 33.6986 15.3562 25.2402C15.3562 16.7346 22.1667 9.80425 30.6194 9.57876C30.8463 10.2776 31.496 10.7876 32.2695 10.7876C33.2314 10.7876 34.0131 10.0059 34.0131 9.04498C34.0131 8.08359 33.2314 7.30188 32.2695 7.30188C31.48 7.30188 30.8193 7.833 30.6059 8.55445C21.5946 8.78741 14.3313 16.1737 14.3313 25.2402C14.3313 34.3646 21.6852 41.793 30.7757 41.936C31.0898 42.3954 31.6172 42.6981 32.2146 42.6981C33.1755 42.6981 33.9572 41.9164 33.9572 40.9555C33.9572 39.9946 33.1754 39.2129 32.2145 39.2129ZM32.2695 8.32681C32.6659 8.32681 32.9882 8.64915 32.9882 9.04498C32.9882 9.44081 32.6659 9.76264 32.2695 9.76264C31.8742 9.76264 31.5519 9.44081 31.5519 9.04498C31.5519 8.64915 31.8742 8.32681 32.2695 8.32681ZM32.2145 41.6731C31.8192 41.6731 31.4968 41.3508 31.4968 40.9555C31.4968 40.5602 31.8192 40.2378 32.2145 40.2378C32.6098 40.2378 32.9322 40.5602 32.9322 40.9555C32.9322 41.3508 32.6099 41.6731 32.2145 41.6731Z" fill="#081219"/>
</svg>
