<svg width="50" height="50" viewBox="0 0 50 50" fill="none" xmlns="http://www.w3.org/2000/svg">
<path d="M39.6094 8.99444C39.1108 8.3961 38.4128 7.99721 37.7147 7.89749C36.9169 7.79777 36.2189 7.99721 35.6205 8.49583C35.0222 8.99444 34.6233 9.6925 34.5236 10.3906L34.3241 12.1856C33.6261 11.4875 32.7286 11.0886 31.831 11.0886C30.9335 11.0886 30.1358 11.3878 29.4377 11.9861C28.8394 10.8892 27.6427 10.1911 26.3463 10.1911C25.1496 10.1911 24.0527 10.7895 23.4543 11.7867C22.7563 11.0886 21.8587 10.7895 20.9612 10.7895C19.0665 10.7895 17.5707 12.2853 17.5707 14.18V22.1579C16.4737 21.4598 15.277 21.1606 13.9806 21.3601C12.5845 21.5595 11.2881 22.2576 10.3906 23.3546C9.89199 23.9529 9.69254 24.7507 9.79226 25.5485C9.89199 26.3462 10.2909 27.0443 10.8892 27.5429L20.1635 34.723C20.2632 34.8227 20.4626 34.9224 20.5624 35.0221C20.6621 35.1219 20.7618 35.1219 20.8615 35.2216V42.0028H22.856V34.723C22.856 34.3241 22.6565 34.0249 22.3574 33.8255C22.1579 33.7257 22.0582 33.626 21.8587 33.4266L12.1856 25.8476C11.7867 25.5485 11.687 25.0498 11.8864 24.651C11.8864 24.5512 11.9862 24.5512 11.9862 24.4515C12.9834 23.2548 15.1773 22.9557 16.6732 24.0526L21.061 27.4432C21.3601 27.6426 21.8587 27.7424 22.1579 27.5429C23.554 26.6454 25.4488 26.9446 26.6455 28.0415C27.8421 29.2382 28.1413 31.1329 27.2438 32.6288C26.9446 33.1274 27.1441 33.7257 27.543 34.0249C28.0416 34.3241 28.6399 34.1246 28.9391 33.7257C30.3352 31.4321 29.9363 28.5401 28.0416 26.7451C26.3463 25.1496 23.9529 24.7507 21.8587 25.6482L19.5651 23.8532V21.759C19.964 21.9584 20.4626 22.0582 20.9612 22.1579H21.1607C22.0582 22.1579 22.9557 21.8587 23.554 21.1606C23.6538 21.0609 23.7535 20.9612 23.8532 20.8615C24.4515 21.5595 25.3491 22.0582 26.3463 22.1579H26.5457C27.4432 22.1579 28.3407 21.8587 28.9391 21.1606C29.0388 21.0609 29.1385 20.9612 29.2383 20.8615C29.8366 21.6593 30.7341 22.0582 31.7313 22.1579H31.9308C32.8283 22.1579 33.7258 21.8587 34.3241 21.1606C34.9225 20.662 35.2216 19.8642 35.4211 19.1662C35.6205 18.4681 35.9197 16.5734 36.6178 10.7895C36.6178 10.59 36.7175 10.2908 36.9169 10.1911C37.1164 9.99167 37.3158 9.99167 37.615 9.99167C37.8144 9.99167 38.1136 10.0914 38.2133 10.2908C38.313 10.4903 38.4128 10.6897 38.4128 10.9889L37.615 18.5679C37.615 18.6676 37.615 18.7673 37.615 18.7673V29.3379C37.615 31.3324 36.518 33.1274 34.8227 34.0249C34.5236 34.2244 34.3241 34.5235 34.3241 34.9224V42.3019H36.3186V35.5208C38.4128 34.1246 39.6094 31.831 39.6094 29.3379V18.7673L40.4072 11.2881C40.4072 10.2908 40.1081 9.59278 39.6094 8.99444ZM33.4266 18.5679C33.4266 18.9667 33.2272 19.3656 32.928 19.6648C32.6288 19.964 32.2299 20.0637 31.7313 20.0637C30.9335 20.0637 30.2355 19.2659 30.2355 18.4681V14.7784C30.2355 13.8809 30.9335 13.1828 31.831 13.1828C32.7286 13.1828 33.4266 13.8809 33.4266 14.7784V18.5679ZM24.8504 13.7811C24.8504 12.8836 25.5485 12.1856 26.446 12.1856C27.3435 12.1856 27.9419 12.9834 27.9419 13.7811V18.5679C27.9419 18.9667 27.7424 19.3656 27.4432 19.6648C27.1441 19.964 26.7452 20.0637 26.2466 20.0637C25.4488 20.0637 24.7507 19.2659 24.7507 18.4681L24.8504 13.7811ZM19.4654 14.2798C19.4654 13.482 20.1635 12.7839 20.9612 12.7839C21.8587 12.7839 22.6565 13.482 22.6565 14.4792V18.5679C22.6565 18.9667 22.4571 19.3656 22.1579 19.6648C21.8587 19.964 21.4599 20.1634 20.9612 20.0637C20.1635 20.0637 19.4654 19.2659 19.4654 18.4681V14.2798Z" fill="#081219"/>
</svg>
