<svg width="50" height="50" viewBox="0 0 50 50" fill="none" xmlns="http://www.w3.org/2000/svg">
<path d="M26.9681 7.53845L26.3121 9.08395L25.6562 7.53845L24.9997 9.08518L24.3432 7.53845L23.6875 9.08343L23.0318 7.53845L8.20972 42.4615H9.52157H10.8334H12.1453H37.8533H39.1651H40.4781H41.7899L26.9681 7.53845ZM25.6562 9.6618L25.8615 10.1457L25.6557 10.6307L25.4502 10.1468L25.6562 9.6618ZM25.205 11.6923L24.9999 12.1755L24.7945 11.6918L24.9997 11.2085L25.205 11.6923ZM24.3433 9.6618L24.5491 10.1468L24.344 10.6301L24.1382 10.1451L24.3433 9.6618ZM9.56126 41.3998L23.0318 9.6617L23.237 10.145L9.97222 41.3998H9.56126ZM10.8732 41.3998L23.6876 11.2067L23.8934 11.6917L11.2842 41.3998H10.8732ZM12.1851 41.3998L24.344 12.7533L24.5494 13.2372L12.596 41.3998H12.1851ZM13.497 41.3998L24.9999 14.2988L36.5019 41.3999L13.497 41.3998ZM25.4504 13.2373L25.6557 12.754L37.8138 41.3999H37.4028L25.4504 13.2373ZM26.1062 11.6923L26.3121 11.2073L39.1267 41.3998H38.7148L26.1062 11.6923ZM26.7627 10.1456L26.9681 9.6617L40.4387 41.3998H40.0277L26.7627 10.1456Z" fill="#081219"/>
</svg>
