<svg width="50" height="50" viewBox="0 0 50 50" fill="none" xmlns="http://www.w3.org/2000/svg">
<path d="M42.9861 24.6565H30.2225V20.1209C30.2225 19.9312 30.0684 19.7776 29.8792 19.7776H25.343V7.01401C25.343 6.82429 25.1889 6.67065 24.9997 6.67065C24.81 6.67065 24.6563 6.82429 24.6563 7.01401V19.7776H20.1207C19.931 19.7776 19.7774 19.9312 19.7774 20.1209V24.6565H7.01401C6.82429 24.6565 6.67065 24.8102 6.67065 24.9999C6.67065 25.1891 6.82429 25.3433 7.01401 25.3433H19.7776V29.8794C19.7776 30.0686 19.9312 30.2227 20.1209 30.2227H24.6565V42.9863C24.6565 43.1755 24.8102 43.3297 24.9999 43.3297C25.1891 43.3297 25.3433 43.1755 25.3433 42.9863V30.2225H29.8794C30.0686 30.2225 30.2227 30.0684 30.2227 29.8792V25.343H42.9863C43.1755 25.343 43.3297 25.1889 43.3297 24.9997C43.3295 24.8102 43.1753 24.6565 42.9861 24.6565ZM29.5359 20.4642V24.6564H25.3431V20.4642H29.5359ZM20.4642 20.4642H24.6564V24.6564H20.4642V20.4642ZM20.4642 29.5359V25.3431H24.6564V29.5359H20.4642ZM29.5359 29.5359H25.3431V25.3431H29.5359V29.5359Z" fill="#081219"/>
</svg>
