<svg width="50" height="50" viewBox="0 0 50 50" fill="none" xmlns="http://www.w3.org/2000/svg">
<path d="M24.8741 42.9841C24.6809 42.9841 24.5143 42.839 24.4928 42.6418C24.4867 42.5868 24.4802 42.5328 24.4742 42.4776L24.4556 42.3075C23.1075 30.1154 22.2937 22.7567 20.9434 22.5355C20.0827 22.384 18.5032 25.233 16.3288 29.734C15.8868 30.6789 15.404 31.7058 14.8785 32.8208C14.1283 34.4153 13.2996 36.1749 12.3972 38.1126C12.3077 38.3058 12.0785 38.3909 11.8868 38.2988C11.7467 38.2337 11.6646 38.0956 11.6646 37.9505C11.6646 37.8965 11.6761 37.8404 11.7007 37.7884L12.5289 36.0077C13.7851 33.3053 14.8481 31.0202 15.7643 29.1245C18.115 24.0804 19.4997 20.841 18.9337 20.3121C18.3337 19.7541 14.6514 21.8085 9.98506 24.4078L9.02819 24.9397C8.6588 25.1459 8.27855 25.3571 7.88662 25.5743C7.70049 25.6784 7.46773 25.6103 7.36411 25.4241C7.33162 25.3651 7.31604 25.301 7.31604 25.238C7.31604 25.1029 7.38758 24.9717 7.51426 24.9017L9.02665 24.0609C15.1717 20.6313 19.1008 18.2357 19.0357 16.7513C18.9987 15.9136 17.6945 15.0853 15.5446 14.0549C15.2012 13.8997 14.8405 13.7351 14.4601 13.5609C13.6891 13.2091 12.8367 12.8197 11.8929 12.4003C11.7498 12.3368 11.6646 12.1961 11.6646 12.049C11.6646 11.9964 11.6752 11.9434 11.6976 11.8929C11.7837 11.6982 12.0129 11.6121 12.2051 11.6977L12.6114 11.8784C13.8576 12.4319 14.9511 12.9179 15.8854 13.3658C18.5888 14.5884 20.1653 15.2094 21.1361 14.7681C22.3086 14.2381 22.9763 12.0556 24.2864 7.71525C24.2984 7.6762 24.3099 7.63715 24.322 7.5981C24.3836 7.39444 24.5998 7.28232 24.8004 7.34186C25.0036 7.40346 25.1178 7.61757 25.0577 7.8203C23.9067 11.6338 23.212 13.9359 23.8826 14.6169C24.5793 15.3236 27.1225 14.7131 31.6477 13.4359C33.073 13.009 34.7655 12.5375 36.7383 11.9881L37.8473 11.6788C38.0495 11.6232 38.2636 11.7418 38.3207 11.946C38.3308 11.9805 38.3347 12.0155 38.3347 12.0496C38.3347 12.2178 38.2236 12.3719 38.0535 12.4194C36.5501 12.8393 35.1849 13.2281 33.9498 13.5809C33.2872 13.7701 32.6617 13.9483 32.073 14.1149C28.6559 15.1364 26.4639 15.9826 26.4199 16.7923C26.3449 18.1655 32.4094 20.7184 39.9032 23.7271C40.0203 23.7737 40.1374 23.8207 40.2556 23.8683L42.1914 24.643C42.3415 24.7031 42.4326 24.8472 42.4326 24.9998C42.4326 25.0468 42.4236 25.0959 42.4056 25.1429C42.3255 25.3401 42.1023 25.4331 41.9051 25.3571C41.5338 25.2079 41.1684 25.0618 40.8111 24.9182L39.9693 24.5814C32.4936 21.5861 27.0926 19.4192 26.4711 20.2294C25.9306 20.9331 28.4979 24.6004 32.4224 29.8913C33.7897 31.6959 35.3611 33.8148 37.1758 36.262L38.2587 37.7213C38.3097 37.7904 38.3347 37.8705 38.3347 37.9505C38.3347 38.0676 38.2807 38.1837 38.1796 38.2588C38.0094 38.3849 37.7692 38.3508 37.6421 38.1798C36.412 36.5223 35.2699 34.9939 34.218 33.5867C33.3823 32.4676 32.6096 31.4337 31.901 30.4799C27.9634 25.2811 25.3521 22.1914 24.4197 22.5612C23.1024 23.0781 23.9598 30.8271 25.2569 42.5579C25.258 42.5719 25.259 42.5869 25.259 42.6009C25.259 42.7941 25.1139 42.9603 24.9167 42.9823C24.9027 42.9831 24.8882 42.9841 24.8741 42.9841ZM20.8956 21.7628C20.9532 21.7628 21.0107 21.7674 21.0677 21.7769C21.8944 21.9125 22.4775 22.9985 23.0025 25.3522C23.0405 23.1551 23.3948 22.1373 24.1385 21.8455C24.7571 21.6057 25.5433 21.955 26.6262 22.9469C25.6624 21.2899 25.4272 20.3266 25.8615 19.7611C26.2309 19.2811 26.9655 19.1856 28.3518 19.4973C26.4051 18.4148 25.6063 17.5856 25.6524 16.7508C25.6764 16.3049 25.9317 15.9101 26.4301 15.5317C24.8302 15.8044 23.8823 15.7108 23.3353 15.1563C23.0591 14.8756 22.9109 14.5027 22.8699 14.0168C22.459 14.75 22.0151 15.2149 21.4531 15.4686C20.846 15.7414 20.1589 15.7439 19.2772 15.5207C19.6075 15.9 19.7851 16.2909 19.8037 16.7173C19.8417 17.5746 19.2417 18.4529 17.7238 19.6275C18.5576 19.3843 19.1055 19.4199 19.4584 19.7501C19.9483 20.2075 19.9083 21.1188 19.3443 22.7733C19.9142 22.0901 20.4147 21.7628 20.8956 21.7628Z" fill="#081219"/>
</svg>
