<svg width="50" height="50" viewBox="0 0 50 50" fill="none" xmlns="http://www.w3.org/2000/svg">
<path d="M19.1066 30.1759C19.2091 34.4806 21.5664 38.2729 25.0512 40.3227C23.3088 41.3476 21.259 41.9626 19.1066 41.9626C12.547 41.9626 7.21741 36.633 7.21741 30.0734C7.21741 25.6662 9.57475 21.874 13.162 19.8241V19.9266C13.0595 24.3338 15.5193 28.126 19.1066 30.1759Z" fill="#081219"/>
<path d="M30.8933 30.0734V30.2784C29.151 31.3033 27.1011 31.8158 24.9487 31.8158C22.7964 31.8158 20.7465 31.2008 19.0042 30.2784V30.0734C19.0042 25.6662 21.3615 21.874 24.9487 19.8241C28.536 21.7715 30.8933 25.6662 30.8933 30.0734Z" fill="#081219"/>
<path d="M30.8933 30.0734V30.2784C29.151 31.3033 27.1011 31.8158 24.9487 31.8158C22.7964 31.8158 20.7465 31.2008 19.0042 30.2784V30.0734C19.0042 25.6662 21.3615 21.874 24.9487 19.8241C28.536 21.7715 30.8933 25.6662 30.8933 30.0734Z" fill="#081219"/>
<path d="M42.7825 30.0734C42.7825 36.633 37.4529 41.9626 30.8933 41.9626C28.741 41.9626 26.6911 41.3476 24.9487 40.3227C28.4335 38.2729 30.7908 34.4806 30.8933 30.1759C34.4806 28.126 36.8379 24.2313 36.8379 19.8241C40.4252 21.7715 42.7825 25.6662 42.7825 30.0734Z" fill="#081219"/>
<path d="M30.8933 30.0734V30.2784C29.151 31.3033 27.1011 31.8158 24.9487 31.8158C22.7964 31.8158 20.7465 31.2008 19.0042 30.2784V30.0734C19.0042 25.6662 21.3615 21.874 24.9487 19.8241C28.536 21.7715 30.8933 25.6662 30.8933 30.0734Z" fill="#081219"/>
<path d="M30.8934 18.1842C28.741 18.1842 26.6911 18.7992 24.9488 19.7216C23.2064 18.6967 21.1565 18.1842 19.0042 18.1842C16.8518 18.1842 14.802 18.7992 13.0596 19.8241C13.1621 13.2646 18.4917 8.03741 24.9488 8.03741C31.5083 8.03741 36.7355 13.2646 36.838 19.7216C35.0956 18.7992 33.1482 18.1842 30.8934 18.1842Z" fill="#081219"/>
</svg>
