<svg width="50" height="50" viewBox="0 0 50 50" fill="none" xmlns="http://www.w3.org/2000/svg">
<path d="M40.4138 16.0756C40.4138 16.072 40.4112 16.0691 40.4111 16.0655C40.4109 16.0567 40.4067 16.0501 40.4059 16.0413C40.4044 16.025 40.4085 16.0094 40.405 15.993C40.3988 15.9644 40.3838 15.9416 40.3723 15.9161C40.3658 15.9018 40.3624 15.8873 40.3543 15.8738C40.339 15.8485 40.3195 15.8286 40.2994 15.808C40.295 15.8035 40.2967 15.7962 40.292 15.7918C40.2879 15.788 40.2818 15.7901 40.2776 15.7865C40.2625 15.7734 40.2493 15.7586 40.2325 15.7482C40.2306 15.7469 40.2298 15.7445 40.2278 15.7432L25.2187 6.80164L25.2147 6.80051C25.1999 6.7918 25.1838 6.7876 25.1679 6.78104C25.1595 6.77755 25.1535 6.77048 25.1446 6.76761C25.1345 6.76453 25.1247 6.76679 25.1145 6.76464C25.0908 6.7589 25.0678 6.75357 25.0431 6.75285C25.0329 6.75254 25.0238 6.75398 25.0137 6.75449C24.9975 6.75541 24.9826 6.75869 24.9667 6.76166C24.9506 6.76464 24.935 6.76187 24.919 6.7672C24.9064 6.7713 24.8976 6.78083 24.8856 6.78616C24.875 6.79088 24.8635 6.79303 24.8532 6.79877C24.8503 6.80041 24.8469 6.79959 24.844 6.80123L9.77341 15.7427C9.77051 15.7445 9.76952 15.748 9.76663 15.7497C9.75147 15.7591 9.7404 15.7734 9.72664 15.7848C9.72115 15.7895 9.71337 15.7869 9.70809 15.7918C9.7026 15.797 9.7045 15.8057 9.69931 15.8112C9.68046 15.8305 9.66212 15.8487 9.64756 15.872C9.63838 15.8868 9.63439 15.9024 9.62731 15.9183C9.61624 15.9428 9.60109 15.9645 9.5951 15.992C9.59151 16.009 9.5956 16.0251 9.5942 16.042C9.59351 16.0503 9.58942 16.0566 9.58922 16.065C9.58902 16.0688 9.58643 16.0717 9.58643 16.0756V33.7897V33.8247V33.9688V33.9797V34.0148C9.58643 34.2143 9.73631 34.3731 9.92578 34.392L24.7996 43.1961C24.8087 43.2015 24.8198 43.1997 24.8293 43.2042C24.8445 43.2117 24.8564 43.2237 24.8731 43.2291C24.9106 43.2411 24.9486 43.2472 24.986 43.2472C25.023 43.2472 25.061 43.2411 25.0985 43.2291C25.115 43.2239 25.1268 43.2119 25.142 43.2045C25.1519 43.1998 25.1635 43.2017 25.173 43.1961L40.2269 34.2581C40.237 34.2521 40.2414 34.2404 40.2507 34.2335C40.2611 34.226 40.2708 34.2212 40.2804 34.2127C40.2838 34.2097 40.2887 34.2112 40.2921 34.208C40.3014 34.1993 40.2987 34.1849 40.307 34.1755C40.3416 34.1364 40.3661 34.0945 40.3827 34.0447C40.3876 34.0304 40.4018 34.023 40.4051 34.0078C40.4087 33.9911 40.4046 33.9751 40.406 33.9586C40.4068 33.9499 40.4111 33.9434 40.4112 33.9347C40.4113 33.9311 40.4138 33.9284 40.4138 33.9248V16.0756ZM29.1309 18.9408L38.9674 16.7122L32.171 24.3531L29.1309 18.9408ZM28.335 30.9371H21.6646L18.3296 24.9997L21.6627 19.0954L28.336 19.0638L31.6706 24.9997L28.335 30.9371ZM21.9589 18.3251L25.0285 8.41047L28.0433 18.2963L21.9589 18.3251ZM17.8299 24.3538L11.0373 16.7168L20.8671 18.973L17.8299 24.3538ZM17.392 25.0007L10.3343 32.9852V17.0657L17.392 25.0007ZM17.8299 25.6476L20.8668 31.0538L11.2195 33.1264L17.8299 25.6476ZM28.0403 31.7058L24.9875 41.5881L21.959 31.7058H28.0403ZM32.171 25.6464L38.9675 33.2882L29.1308 31.0592L32.171 25.6464ZM39.6659 17.0651V32.9352L32.6081 24.9997L39.6659 17.0651ZM28.8052 18.2273L25.6758 7.96217L39.0208 15.9129L28.8052 18.2273ZM21.1939 18.26L10.9783 15.9152L24.3821 7.96268L21.1939 18.26ZM21.1939 31.769L24.3409 42.0379L10.7745 34.0072L21.1939 31.769ZM28.8042 31.7724L39.0185 34.087L25.6342 42.0344L28.8042 31.7724Z" fill="#081219"/>
</svg>
