<svg width="50" height="50" viewBox="0 0 50 50" fill="none" xmlns="http://www.w3.org/2000/svg">
<path d="M42.6391 24.4568L31.2419 24.0263C30.4424 23.9955 29.6635 23.7803 28.9153 23.3806C29.1613 22.5709 29.561 21.8637 30.1042 21.2795L35.5056 15.4579C35.7926 15.1504 35.7106 14.7404 35.4851 14.5252C35.2698 14.2997 34.8599 14.2177 34.5421 14.5047L28.7205 19.9061C28.1363 20.4493 27.4291 20.849 26.6194 21.095C26.2197 20.3468 26.0045 19.5678 25.9737 18.7684L25.5432 7.37116C25.533 7.07393 25.2973 6.84845 25 6.84845C24.7028 6.84845 24.4671 7.07393 24.4568 7.37116L24.0264 18.7684C23.9956 19.5678 23.7804 20.3468 23.3806 21.095C22.5709 20.849 21.8637 20.4493 21.2795 19.9061L15.4579 14.5047C15.1504 14.2177 14.7405 14.2997 14.5252 14.5252C14.2998 14.7507 14.2178 15.1504 14.5047 15.4579L19.9061 21.2795C20.4493 21.8637 20.8491 22.5709 21.095 23.3806C20.3468 23.7803 19.5679 23.9955 18.7685 24.0263L7.37123 24.4568C7.074 24.467 6.84851 24.7027 6.84851 25C6.84851 25.2972 7.074 25.5329 7.37123 25.5432L18.7685 25.9737C19.5679 26.0044 20.3468 26.2196 21.095 26.6194C20.8491 27.4291 20.4493 28.1363 19.9061 28.7205L14.5047 34.5421C14.2178 34.8496 14.2998 35.2595 14.5252 35.4748C14.7815 35.7208 15.1914 35.7413 15.4579 35.4953L21.2795 30.0939C21.8637 29.5507 22.5709 29.1509 23.3806 28.905C23.7804 29.6532 23.9956 30.4321 24.0264 31.2316L24.4568 42.6288C24.4671 42.926 24.7028 43.1515 25 43.1515C25.2973 43.1515 25.533 42.926 25.5432 42.6288L25.9737 31.2316C26.0045 30.4321 26.2197 29.6532 26.6194 28.905C27.4291 29.1509 28.1363 29.5507 28.7205 30.0939L34.5421 35.4953C34.8599 35.7822 35.2596 35.7003 35.4748 35.4748C35.7003 35.2493 35.7823 34.8496 35.4953 34.5421L30.0939 28.7205C29.5507 28.1363 29.151 27.4291 28.905 26.6194C29.6532 26.2196 30.4322 26.0044 31.2316 25.9737L42.6288 25.5432C42.9261 25.5329 43.1516 25.2972 43.1516 25C43.1516 24.7027 42.9261 24.467 42.6288 24.4568H42.6391ZM25.8507 28.7307C25.451 29.5302 25.2358 30.3604 25.205 31.2111L25.0103 36.4382L24.8155 31.2111C24.7848 30.3604 24.5696 29.5302 24.1698 28.7307C24.7336 28.6385 25.2973 28.6385 25.861 28.7307H25.8507ZM25 27.8903C24.5798 27.8903 24.1698 27.9313 23.7496 28.0133C23.2884 27.3163 22.6837 26.7116 21.9867 26.2504C22.1507 25.4304 22.1507 24.5695 21.9867 23.7496C22.6837 23.2883 23.2884 22.6836 23.7496 21.9867C24.5696 22.1507 25.4305 22.1507 26.2505 21.9867C26.7219 22.6939 27.3164 23.2883 28.0236 23.7598C27.8596 24.59 27.8596 25.4304 28.0236 26.2606C27.3266 26.7219 26.7219 27.3266 26.2505 28.0338C25.8302 27.9518 25.4203 27.9108 25 27.9108V27.8903ZM21.7613 22.9604C21.4743 22.1097 21.0438 21.3717 20.4596 20.7465L16.9133 16.9133L20.7466 20.4698C21.3718 21.0437 22.1097 21.4845 22.9604 21.7612C22.6222 22.2224 22.2225 22.6221 21.7613 22.9604ZM21.2693 24.1493C21.3615 24.713 21.3615 25.2767 21.2693 25.8404C20.4698 25.4407 19.6294 25.2255 18.789 25.1947L13.5721 25L18.789 24.8052C19.6396 24.7745 20.4698 24.5593 21.2693 24.1595V24.1493ZM21.7613 27.0396C22.2225 27.3778 22.6222 27.7775 22.9604 28.2388C22.1097 28.5257 21.3615 28.9562 20.7466 29.5302L16.9133 33.0867L20.4698 29.2534C21.0438 28.6282 21.4845 27.8903 21.7715 27.0396H21.7613ZM24.1493 21.2692C24.5491 20.4698 24.7643 19.6293 24.795 18.7889L25 13.695L25.1948 18.7889C25.2255 19.6396 25.4408 20.4698 25.8405 21.2692C25.2768 21.3615 24.7131 21.3615 24.1493 21.2692ZM28.2388 22.9604C27.7776 22.6221 27.3779 22.2224 27.0396 21.7612C27.8903 21.4742 28.6385 21.0437 29.2535 20.4595L33.0867 16.903L29.5302 20.7363C28.9563 21.3615 28.5155 22.0994 28.2388 22.9501V22.9604ZM28.2388 27.0396C28.5258 27.8903 28.9563 28.6282 29.5302 29.2534L33.0765 33.0867L29.2432 29.5404C28.618 28.9665 27.8801 28.5257 27.0294 28.249C27.3676 27.7878 27.7673 27.3881 28.2286 27.0498L28.2388 27.0396ZM28.7308 25.8507C28.6385 25.287 28.6385 24.7232 28.7308 24.1595C29.5302 24.5593 30.3707 24.7745 31.2111 24.8052L36.428 25L31.2111 25.1947C30.3604 25.2255 29.5302 25.4407 28.7308 25.8404V25.8507Z" fill="black"/>
</svg>
