<svg width="50" height="50" viewBox="0 0 50 50" fill="none" xmlns="http://www.w3.org/2000/svg">
<path d="M8.25541 42.6488C8.23686 42.6488 8.21792 42.6467 8.19937 42.6418C8.12926 42.6258 8.06933 42.5788 8.03572 42.5137L7.95445 42.3576C7.89551 42.2444 7.92672 42.1043 8.02794 42.0293C13.3554 38.0697 19.3934 33.5837 19.1777 32.7749C19.0778 32.6468 18.2919 32.3395 12.5028 33.972C12.4385 33.9911 12.3621 33.9821 12.3037 33.945C12.2447 33.908 12.1995 33.8498 12.1849 33.7808L12.1479 33.6036C12.1207 33.4725 12.1957 33.3423 12.3203 33.3043L12.6169 33.2132C18.3213 31.4565 21.7507 30.4016 21.8398 29.4247C21.9172 28.581 19.3818 27.0436 16.4461 25.263C16.3375 25.1979 16.2937 25.0588 16.3442 24.9397L16.4138 24.7765C16.4426 24.7095 16.4976 24.6585 16.5657 24.6359C16.6334 24.6134 16.7069 24.6224 16.7688 24.659C19.7351 26.4581 22.2954 28.0075 22.832 27.457C23.4825 26.7814 22.3782 22.9429 20.5484 16.5826L20.4924 16.3865C20.4564 16.2608 20.5187 16.1273 20.6365 16.0771L20.7811 16.016C20.8463 15.989 20.9179 15.991 20.9823 16.0216C21.0451 16.0516 21.0933 16.1082 21.1142 16.1768C22.9017 22.047 23.6394 23.3983 23.9432 23.4979C24.5597 23.0375 24.6152 15.5452 24.6741 7.61254C24.6746 7.54448 24.7018 7.4754 24.7491 7.42784C24.7964 7.38029 24.8626 7.36676 24.9273 7.35077L25.0797 7.35282C25.217 7.35487 25.327 7.46997 25.3261 7.6111C25.2677 15.5729 25.2121 23.0516 25.9016 23.4911C26.182 23.409 26.9592 22.0768 28.8884 16.1699C28.9108 16.1018 28.9605 16.0463 29.0237 16.0173C29.088 15.9883 29.161 15.9878 29.2253 16.0168L29.3694 16.0818C29.4862 16.1349 29.5457 16.2705 29.5057 16.3957L29.4736 16.4973C27.5034 22.8876 26.3134 26.7455 26.9601 27.4422C27.4996 28.0237 30.1582 26.4613 33.2356 24.6566C33.2979 24.6205 33.3739 24.6131 33.4392 24.6366C33.5074 24.6601 33.5618 24.7127 33.5891 24.7802L33.6564 24.9448C33.705 25.0639 33.6592 25.2021 33.5502 25.2662C30.5187 27.0438 27.9009 28.5791 27.9749 29.4249C28.0606 30.3967 31.5588 31.4548 37.3551 33.2054L37.6784 33.3024C37.803 33.3405 37.879 33.4696 37.8527 33.6007L37.8167 33.7788C37.8021 33.8479 37.7612 33.908 37.7027 33.945C37.6453 33.981 37.5742 33.992 37.508 33.974C31.6083 32.3575 30.8584 32.7078 30.7718 32.8539C30.4942 33.6686 36.8516 38.2999 41.9604 42.0203C42.0626 42.0944 42.1045 42.2425 42.047 42.3555L41.9672 42.5116C41.9331 42.5767 41.8736 42.6238 41.8035 42.6418C41.7373 42.6568 41.6603 42.6438 41.601 42.6008C36.8145 39.1146 30.2526 34.3363 29.7667 35.0079C29.6606 35.161 29.6255 36.128 33.6573 42.1114C33.7274 42.2155 33.7137 42.3556 33.6251 42.4427L33.5073 42.5588C33.4556 42.6098 33.3846 42.6409 33.3135 42.6289C33.2414 42.6228 33.1762 42.5848 33.1333 42.5248L32.9298 42.2385C29.1493 36.9107 26.6533 33.3924 25.9189 33.7337C25.2305 34.041 25.2762 38.0577 25.3259 42.3105C25.3279 42.4517 25.2178 42.5678 25.0795 42.5698L24.9271 42.5718H24.9237C24.8585 42.5718 24.7962 42.5458 24.7494 42.4987C24.7021 42.4517 24.6754 42.3866 24.6744 42.3185C24.6247 38.0457 24.578 34.01 23.8709 33.7157C23.1142 33.4084 20.6845 36.9466 17.0121 42.3135L16.8709 42.5197C16.8295 42.5808 16.7648 42.6199 16.6932 42.6279C16.6211 42.6359 16.5505 42.6108 16.4979 42.5608L16.3776 42.4468C16.2871 42.3617 16.271 42.2206 16.3392 42.1164C20.2117 36.168 20.2974 35.085 20.1543 34.8959C19.6494 34.2353 13.1503 39.0706 8.40131 42.5999C8.35862 42.6318 8.30747 42.6488 8.25541 42.6488Z" fill="#081219"/>
</svg>
