<svg width="50" height="50" viewBox="0 0 50 50" fill="none" xmlns="http://www.w3.org/2000/svg">
<path d="M41.1039 21.8487C41.0263 21.7689 40.9294 21.729 40.8227 21.729H32.6593L38.428 15.7955C38.5055 15.7157 38.5443 15.616 38.5443 15.5063C38.5443 15.3966 38.5055 15.2969 38.428 15.2171L34.5014 11.1783C34.4238 11.0986 34.3269 11.0587 34.2202 11.0587C34.1039 11.0387 34.0166 11.0986 33.9391 11.1783L28.1704 17.1119V8.72515C28.1704 8.49579 27.9959 8.31628 27.7729 8.31628H22.2175C21.9945 8.31628 21.82 8.49579 21.82 8.72515V17.1218L16.0513 11.1883C15.9737 11.1085 15.8767 11.0686 15.7701 11.0686C15.6634 11.0686 15.5665 11.1085 15.4889 11.1883L11.5623 15.2271C11.4848 15.3069 11.446 15.4066 11.446 15.5163C11.446 15.626 11.4848 15.7257 11.5623 15.8055L17.331 21.739H9.17729C8.9543 21.739 8.77979 21.9185 8.77979 22.1479V27.862C8.77979 28.0914 8.9543 28.2709 9.17729 28.2709H17.3407L11.572 34.2044C11.4945 34.2842 11.4557 34.3839 11.4557 34.4936C11.4557 34.6033 11.4945 34.703 11.572 34.7828L15.4986 38.8216C15.5762 38.9013 15.6731 38.9412 15.7798 38.9412C15.8864 38.9412 15.9834 38.9013 16.0609 38.8216L21.8296 32.888V41.2847C21.8296 41.5141 22.0042 41.6936 22.2272 41.6936H27.7826C28.0055 41.6936 28.1801 41.5141 28.1801 41.2847V32.888L33.9488 38.8216C34.0263 38.9013 34.1136 38.9412 34.2299 38.9412C34.3366 38.9412 34.4335 38.9013 34.5111 38.8216L38.4377 34.7828C38.5928 34.6232 38.5928 34.3639 38.4377 34.2044L32.669 28.2709H40.8324C41.0457 28.2709 41.2299 28.0914 41.2299 27.862V22.1479C41.2299 22.0382 41.1911 21.9384 41.1136 21.8587L41.1039 21.8487ZM27.6274 31.5218C27.482 31.5817 27.385 31.7312 27.385 31.9008V40.8659H22.6247V31.9008C22.6247 31.7312 22.5277 31.5817 22.3823 31.5218C22.2369 31.462 22.0623 31.4919 21.946 31.6116L15.7798 37.954L12.4058 34.4936L18.572 28.1512C18.6884 28.0315 18.7175 27.862 18.6593 27.7024C18.6011 27.5529 18.4557 27.4531 18.2909 27.4531H9.5748V22.5567H18.2909C18.4557 22.5567 18.6011 22.457 18.6593 22.3074C18.7175 22.1578 18.6884 21.9783 18.572 21.8587L12.4058 15.5163L15.7701 12.0459L21.9363 18.3883C22.0526 18.508 22.2175 18.5379 22.3629 18.4781C22.5083 18.4182 22.6053 18.2686 22.6053 18.0991V9.13401H27.3657V18.0991C27.3657 18.2686 27.4626 18.4083 27.608 18.4781C27.7535 18.5379 27.928 18.508 28.0443 18.3883L34.2105 12.0459L37.5748 15.5163L31.4086 21.8587C31.2923 21.9783 31.2632 22.1479 31.3213 22.3074C31.3795 22.457 31.5249 22.5567 31.6898 22.5567H40.4058V27.4531H31.6898C31.5249 27.4531 31.3795 27.5529 31.3213 27.7024C31.2632 27.852 31.2923 28.0315 31.4086 28.1512L37.5748 34.4936L34.2105 37.954L28.0443 31.6116C27.928 31.4919 27.7632 31.462 27.6177 31.5218H27.6274Z" fill="black"/>
</svg>
