<svg width="50" height="50" viewBox="0 0 50 50" fill="none" xmlns="http://www.w3.org/2000/svg">
<path d="M40.2676 12.4036C39.061 11.3377 37.2261 11.1224 34.9324 11.7784C34.8726 9.62605 34.2244 8.06815 33.0477 7.2687C29.328 4.74737 21.2305 10.569 14.9978 20.2648C8.76512 29.9504 6.73077 39.8922 10.4504 42.4238C11.0488 42.8338 11.7668 43.0388 12.5845 43.0388C13.6715 43.0388 14.938 42.6596 16.354 41.9216C18.1191 42.9773 20.7219 42.6391 23.8233 41.0607C27.2338 39.3285 30.8937 36.2537 34.1346 32.4C40.8859 24.3748 43.6383 15.4067 40.2576 12.4036H40.2676ZM10.8593 41.7781C7.47869 39.4823 9.61276 30.0222 15.6161 20.685C20.6421 12.8751 26.9247 7.41219 30.9036 7.41219C31.5718 7.41219 32.1601 7.57618 32.6388 7.90416C33.646 8.59086 34.1845 10.0053 34.1945 12.0244C30.3452 13.3875 25.7679 16.9236 21.8986 21.5152C18.6576 25.3587 16.2244 29.5302 15.0477 33.2507C13.861 37.0019 14.0804 39.8923 15.6659 41.4091C13.6316 42.4033 11.9762 42.5366 10.8593 41.7781ZM15.7557 33.4864C16.9025 29.8582 19.2859 25.7892 22.4571 22.0072C26.1668 17.6 30.5147 14.1972 34.1646 12.8136C34.1147 13.7053 33.9851 14.6585 33.7756 15.6424C32.9081 19.6806 30.8139 24.426 27.872 28.9972C24.9302 33.5684 21.5097 37.4119 18.2388 39.8205C17.6405 40.2612 17.0322 40.6507 16.384 41.0197C16.3341 40.9889 16.2942 40.9582 16.2543 40.9274C14.8183 39.6463 14.6388 37.0122 15.7557 33.4864ZM17.1518 41.4706C17.6704 41.1632 18.179 40.8249 18.6776 40.456C22.0283 37.9961 25.5186 34.0809 28.5003 29.438C31.492 24.7848 33.6261 19.9573 34.5136 15.8269C34.7629 14.6892 34.9025 13.5925 34.9324 12.5676C37.0964 11.9014 38.7419 12.0654 39.779 12.9878C42.8405 15.7141 40.0582 24.1903 33.5762 31.8978C30.405 35.6695 26.825 38.6828 23.4942 40.374C20.8815 41.6961 18.6576 42.0753 17.1518 41.4706Z" fill="black"/>
</svg>
