<svg width="50" height="50" viewBox="0 0 50 50" fill="none" xmlns="http://www.w3.org/2000/svg">
<path d="M42.4215 24.9102L25.0897 7.57837C25.0897 7.57837 24.96 7.52851 24.9102 7.57837L7.57831 24.9102C7.57831 24.9102 7.52845 25.0399 7.57831 25.0897L24.9102 42.4316C24.9102 42.4316 24.97 42.4715 24.9999 42.4715C25.0298 42.4715 25.0598 42.4615 25.0897 42.4316L42.4315 25.0897C42.4315 25.0897 42.4814 24.9601 42.4315 24.9102H42.4215ZM41.7634 25L24.9999 41.7634L8.23648 25L24.9999 8.23655L41.7634 25Z" fill="black"/>
<path d="M24.9102 8.54572L9.4831 23.9729C9.4831 23.9729 9.43324 24.1025 9.4831 24.1524L24.9202 39.5895C24.9202 39.5895 24.9801 39.6294 25.01 39.6294C25.0399 39.6294 25.0698 39.6194 25.0997 39.5895L40.5368 24.1524C40.5368 24.1524 40.5867 24.0227 40.5368 23.9729L25.0897 8.54572C25.0897 8.54572 24.9601 8.49586 24.9102 8.54572ZM10.1413 24.0626L25 9.21386L39.8587 24.0726L25 38.9313L10.1413 24.0626Z" fill="black"/>
<path d="M38.6222 23.0454L25.0898 9.51301C25.0898 9.51301 24.9601 9.46314 24.9103 9.51301L11.3779 23.0454C11.3779 23.0454 11.328 23.1751 11.3779 23.2249L24.9103 36.7573C24.9103 36.7573 24.9701 36.7972 25 36.7972C25.03 36.7972 25.0599 36.7872 25.0898 36.7573L38.6222 23.2249C38.6222 23.2249 38.6621 23.1651 38.6621 23.1352C38.6621 23.1053 38.6521 23.0753 38.6222 23.0454ZM37.9541 23.1352L25 36.0892L12.046 23.1352L25 10.1811L37.9541 23.1352Z" fill="black"/>
<path d="M24.9104 10.4804L13.2827 22.1081C13.2827 22.1081 13.2328 22.2377 13.2827 22.2876L24.9104 33.9153C24.9104 33.9153 24.9702 33.9551 25.0001 33.9551C25.03 33.9551 25.0599 33.9452 25.0899 33.9153L36.7176 22.2876C36.7176 22.2876 36.7674 22.1579 36.7176 22.1081L25.0899 10.4804C25.0899 10.4804 24.9602 10.4305 24.9104 10.4804ZM13.9508 22.1978L25.0001 11.1485L36.0494 22.1978L25.0001 33.2471L13.9508 22.1978Z" fill="black"/>
<path d="M34.8127 21.1706L25.0897 11.4476C25.0897 11.4476 24.9601 11.3978 24.9102 11.4476L15.1872 21.1706C15.1872 21.1706 15.1373 21.3003 15.1872 21.3501L24.9102 31.0731C24.9102 31.0731 24.97 31.113 24.9999 31.113C25.0299 31.113 25.0598 31.103 25.0897 31.0731L34.8127 21.3501C34.8127 21.3501 34.8526 21.2903 34.8526 21.2604C34.8526 21.2305 34.8426 21.2005 34.8127 21.1706ZM34.1445 21.2604L24.9999 30.405L15.8553 21.2604L24.9999 12.1158L34.1445 21.2604Z" fill="black"/>
<path d="M24.9102 12.4249L17.0919 20.2432C17.0919 20.2432 17.052 20.303 17.052 20.333C17.052 20.3629 17.062 20.3928 17.0919 20.4227L24.9102 28.241C24.9102 28.241 24.97 28.2809 24.9999 28.2809C25.0298 28.2809 25.0598 28.2709 25.0897 28.241L32.908 20.4227C32.908 20.4227 32.9478 20.3629 32.9478 20.333C32.9478 20.303 32.9379 20.2731 32.908 20.2432L25.0897 12.4249C25.0897 12.4249 24.96 12.3751 24.9102 12.4249ZM17.76 20.323L24.9999 13.0831L32.2398 20.323L24.9999 27.5629L17.76 20.323Z" fill="black"/>
<path d="M31.0034 19.3058L25.0898 13.3922C25.0898 13.3922 24.9602 13.3424 24.9103 13.3922L18.9968 19.3058C18.9968 19.3058 18.9469 19.4354 18.9968 19.4853L24.9103 25.3989C24.9103 25.3989 24.9702 25.4388 25.0001 25.4388C25.03 25.4388 25.0599 25.4288 25.0898 25.3989L31.0034 19.4853C31.0034 19.4853 31.0433 19.4255 31.0433 19.3955C31.0433 19.3656 31.0333 19.3357 31.0034 19.3058ZM30.3353 19.3955L25.0001 24.7307L19.6649 19.3955L25.0001 14.0604L30.3353 19.3955Z" fill="black"/>
<path d="M24.9102 14.3596L20.9013 18.3684C20.9013 18.3684 20.8514 18.4981 20.9013 18.5479L24.9102 22.5568C24.9102 22.5568 24.97 22.5967 24.9999 22.5967C25.0298 22.5967 25.0598 22.5867 25.0897 22.5568L29.0985 18.5479C29.0985 18.5479 29.1384 18.4881 29.1384 18.4582C29.1384 18.4283 29.1285 18.3983 29.0985 18.3684L25.0897 14.3596C25.0897 14.3596 24.96 14.3097 24.9102 14.3596ZM21.5695 18.4582L24.9999 15.0277L28.4304 18.4582L24.9999 21.8886L21.5695 18.4582Z" fill="black"/>
<path d="M27.1939 17.431L25.0898 15.3268C25.0898 15.3268 24.9601 15.277 24.9103 15.3268L22.8061 17.431C22.8061 17.431 22.7562 17.5606 22.8061 17.6105L24.9103 19.7147C24.9103 19.7147 24.9701 19.7545 25 19.7545C25.0299 19.7545 25.0598 19.7446 25.0898 19.7147L27.1939 17.6105C27.1939 17.6105 27.2438 17.4809 27.1939 17.431ZM26.5258 17.5208L25 19.0465L23.4742 17.5208L25 15.995L26.5258 17.5208Z" fill="black"/>
</svg>
