<svg width="50" height="50" viewBox="0 0 50 50" fill="none" xmlns="http://www.w3.org/2000/svg">
<path d="M34.4088 16.4931C32.7484 16.4931 31.0881 16.9441 29.7147 17.7743C28.3412 16.9441 26.6809 16.4931 25.0205 16.4931C23.3601 16.4931 21.6894 16.9543 20.3058 17.7845C18.9221 16.9543 17.2515 16.4931 15.5911 16.4931C11.5119 16.4931 7.07393 19.1579 6.97144 25.0103C7.07393 30.8524 11.5119 33.507 15.5911 33.507C17.2617 33.507 18.9221 33.0457 20.3058 32.2155C21.6894 33.0457 23.3601 33.507 25.0205 33.507C26.6809 33.507 28.3412 33.056 29.7147 32.2258C31.0881 33.056 32.7484 33.507 34.4088 33.507C38.4881 33.507 42.926 30.8524 43.0285 25C42.926 19.1579 38.4881 16.5034 34.4088 16.5034V16.4931ZM39.4925 18.9734C39.8512 19.2604 40.1792 19.5679 40.4662 19.9164H39.4925V18.9734ZM42.2393 25.3895C42.1573 26.8859 41.7473 28.1978 41.0299 29.315H39.4925V25.3895H42.2393ZM40.4662 30.0837C40.1689 30.4322 39.841 30.7396 39.4925 31.0266V30.0837H40.4662ZM39.4925 24.6208V20.6953H41.0299C41.7473 21.8125 42.1573 23.1347 42.2393 24.6208H39.4925ZM38.7238 30.0837V31.5493C37.5759 32.2463 36.1922 32.6563 34.7983 32.7178V30.0837H38.7238ZM38.7238 25.3895V29.315H34.7983V25.3895H38.7238ZM38.7238 20.6851V24.6106H34.7983V20.6851H38.7238ZM38.7238 18.4507V19.9164H34.7983V17.2823C36.1922 17.3438 37.5759 17.7538 38.7238 18.4507ZM30.1041 19.9164V18.9734C30.4629 19.2604 30.7908 19.5679 31.0778 19.9164H30.1041ZM30.1041 25.3895H32.8509C32.7689 26.8859 32.3692 28.1978 31.6415 29.315H30.1041V25.3895ZM34.0296 20.6851V24.6106H33.6299C33.5581 23.1449 33.1994 21.8227 32.5537 20.6851H34.0296ZM34.0296 25.3895V29.3252H32.5537C33.1892 28.1773 33.5479 26.8654 33.6299 25.3895H34.0296ZM34.0296 19.9164H32.0617C31.6005 19.2809 31.0573 18.7275 30.4424 18.256C31.5288 17.6718 32.7587 17.3335 34.0296 17.2823V19.9164ZM32.8509 24.6208H30.1041V20.6953H31.6415C32.359 21.8125 32.7689 23.1347 32.8509 24.6208ZM32.0617 30.0837H34.0296V32.7178C32.7484 32.6665 31.5185 32.3283 30.4424 31.7441C31.0676 31.2726 31.6108 30.7191 32.0617 30.0837ZM30.1041 31.0266V30.0837H31.0778C30.7806 30.4322 30.4526 30.7396 30.1041 31.0266ZM29.3252 30.0837V31.0266C28.9665 30.7499 28.6487 30.4322 28.3515 30.0837H29.3252ZM26.5784 24.6208C26.6604 23.1244 27.0703 21.8022 27.7878 20.6953H29.3252V24.6208H26.5784ZM29.3252 25.3895V29.3252H27.7878C27.0703 28.2081 26.6604 26.8859 26.5784 25.3895H29.3252ZM27.3778 19.9164H25.4099V17.2823C26.6911 17.3335 27.9108 17.6718 29.0074 18.256C28.3822 18.7275 27.839 19.2809 27.3881 19.9164H27.3778ZM25.4099 24.6208V20.6953H26.8858C26.2504 21.8432 25.8917 23.1552 25.8097 24.6208H25.4099ZM25.4099 29.315V25.3793H25.8097C25.8814 26.8449 26.2401 28.1671 26.8858 29.315H25.4099ZM28.9972 31.7441C27.9108 32.3283 26.6809 32.6665 25.4099 32.7178V30.0837H27.3778C27.839 30.7191 28.3822 31.2726 28.9972 31.7441ZM28.3515 19.9164C28.6487 19.5679 28.9767 19.2604 29.3252 18.9734V19.9164H28.3515ZM22.2122 29.315H20.7055V25.3895H23.4216C23.3396 26.8859 22.9296 28.2081 22.2122 29.315ZM24.6412 30.0837V32.7178C23.3601 32.6563 22.1199 32.318 21.0232 31.7338C21.6382 31.2726 22.1712 30.7191 22.6221 30.0837H24.631H24.6412ZM20.7055 30.9959V30.0837H21.6484C21.3615 30.4219 21.0437 30.7294 20.7055 30.9959ZM20.7055 19.9164V19.0042C21.0437 19.2809 21.3615 19.5884 21.6484 19.9164H20.7055ZM21.0232 18.2662C22.1199 17.6718 23.3498 17.3335 24.6412 17.2721V19.9061H22.6324C22.1814 19.2707 21.6382 18.7275 21.0335 18.256L21.0232 18.2662ZM24.6412 20.6851V24.6106H24.1903C24.1185 23.1449 23.7598 21.8227 23.1141 20.6851H24.631H24.6412ZM23.4216 24.6208H20.7055V20.6953H22.2122C22.9296 21.8125 23.3396 23.1347 23.4216 24.6208ZM24.6412 25.3895V29.3252H23.1243C23.7598 28.1773 24.1185 26.8654 24.2005 25.3895H24.6515H24.6412ZM15.9703 24.6208V20.6953H17.4975C16.862 21.8432 16.5033 23.1552 16.4213 24.6208H15.9703ZM15.9703 29.315V25.3793H16.4213C16.493 26.8449 16.8518 28.1671 17.4975 29.315H15.9806H15.9703ZM19.9061 25.3895V29.3252H18.3994C17.682 28.2081 17.272 26.8859 17.19 25.3895H19.9061ZM19.9061 30.0837V30.9959C19.5678 30.7191 19.2501 30.4117 18.9631 30.0837H19.9061ZM19.5883 31.7338C18.4917 32.3283 17.2617 32.6665 15.9703 32.7178V30.0837H17.9894C18.4404 30.7191 18.9836 31.2624 19.5883 31.7338ZM19.9061 19.9164H18.9631C19.2501 19.5781 19.5576 19.2707 19.9061 19.0042V19.9164ZM17.9894 19.9164H15.9703V17.2823C17.2617 17.3438 18.4917 17.682 19.5883 18.2765C18.9734 18.7377 18.4404 19.2912 17.9894 19.9266V19.9164ZM18.3994 20.6851H19.9061V24.6106H17.19C17.272 23.1142 17.682 21.8022 18.3994 20.6851ZM10.5074 30.0837V31.0266C10.1487 30.7396 9.82074 30.4322 9.53376 30.0837H10.5074ZM10.5074 25.3895V29.315H8.97005C8.2526 28.1978 7.84263 26.8757 7.76063 25.3895H10.5074ZM10.5074 20.6851V24.6106H7.76063C7.84263 23.1142 8.2526 21.8022 8.97005 20.6851H10.5074ZM9.53376 19.9164C9.83099 19.5679 10.159 19.2604 10.5074 18.9734V19.9164H9.53376ZM11.2761 19.9164V18.4507C12.4241 17.7538 13.8077 17.3438 15.2016 17.2823V19.9164H11.2761ZM11.2761 24.6208V20.6953H15.2016V24.6208H11.2761ZM11.2761 29.315V25.3895H15.2016V29.315H11.2761ZM11.2761 31.5493V30.0837H15.2016V32.7178C13.8077 32.6563 12.4241 32.2463 11.2761 31.5493Z" fill="black"/>
</svg>
