<svg width="50" height="50" viewBox="0 0 50 50" fill="none" xmlns="http://www.w3.org/2000/svg">
<path d="M33.6017 42.4991C33.4845 42.4991 33.3704 42.4474 33.2963 42.352L29.3247 37.286L28.8022 41.496C28.7822 41.6615 28.6511 41.7939 28.4819 41.8203C28.3148 41.8417 28.1467 41.7608 28.0736 41.6109L25.3952 36.0969L23.2272 39.369C23.1422 39.4975 22.986 39.5627 22.8299 39.5335C22.6752 39.5033 22.5551 39.3855 22.5266 39.2346L21.5117 33.889L17.7743 35.8252C17.6462 35.8924 17.4885 35.8827 17.3689 35.7989C17.2503 35.7151 17.1903 35.5739 17.2148 35.4327L17.997 30.8965L13.029 31.1692C12.8833 31.1867 12.7402 31.1019 12.6696 30.9744C12.5986 30.8477 12.6096 30.692 12.6972 30.5751L15.1159 27.3546L9.49633 25.8918C9.33972 25.8509 9.22657 25.7194 9.21252 25.5626C9.19848 25.4059 9.28714 25.2569 9.4337 25.1907L13.1121 23.5351L7.50601 20.54C7.3534 20.4582 7.27633 20.2868 7.31835 20.1222C7.36037 19.9572 7.51104 19.8408 7.68568 19.8383L12.2223 19.7745L7.23267 15.6479C7.09409 15.5334 7.05709 15.3396 7.1436 15.1843C7.23113 15.0289 7.4193 14.9535 7.59201 15.0051L12.617 16.4761L8.68602 11.6906C8.5704 11.5504 8.5744 11.3492 8.69504 11.2129C8.8167 11.0761 9.0183 11.043 9.17952 11.134L14.3047 14.0347L11.7153 9.04561C11.6322 8.88535 11.6778 8.6901 11.8244 8.5806C11.97 8.47051 12.1752 8.47739 12.3138 8.59765L17.1026 12.739L16.0227 7.95534C15.9841 7.78391 16.0727 7.6096 16.2364 7.5356C16.3995 7.46211 16.5937 7.50838 16.7038 7.64809L20.676 12.7141L21.198 8.50461C21.2179 8.33907 21.3486 8.20714 21.5177 8.18031C21.6859 8.15109 21.8535 8.23925 21.9266 8.38973L24.605 13.9027L26.7725 10.6315C26.8586 10.5025 27.0217 10.4391 27.1698 10.4674C27.325 10.4971 27.4451 10.6153 27.4741 10.7658L28.4881 16.1104L32.2265 14.1749C32.3546 14.1096 32.5138 14.1188 32.6309 14.2017C32.75 14.285 32.81 14.4267 32.786 14.5669L32.0033 19.1041L36.9708 18.8304C37.139 18.8245 37.2601 18.8981 37.3302 19.0252C37.4012 19.1522 37.3913 19.3076 37.3031 19.4245L34.8839 22.6455L40.504 24.1083C40.6601 24.1492 40.7742 24.2807 40.7882 24.4375C40.8012 24.5942 40.7132 24.7428 40.566 24.809L36.8876 26.4646L42.4937 29.4592C42.6468 29.541 42.7239 29.7134 42.6818 29.8779C42.6398 30.0425 42.4886 30.1584 42.3145 30.1614L37.7774 30.2255L42.7679 34.3517C42.9061 34.4666 42.9431 34.6605 42.856 34.8162C42.7699 34.972 42.5827 35.047 42.4076 34.9954L37.3831 33.5239L41.3146 38.3085C41.4297 38.4497 41.4267 38.6504 41.3056 38.7867C41.1844 38.923 40.9792 38.9561 40.8211 38.8656L35.6954 35.9654L38.2848 40.9545C38.3679 41.1151 38.3218 41.3099 38.1757 41.419C38.0306 41.53 37.8244 41.5212 37.6863 41.4024L32.8969 37.2616L33.9769 42.0452C34.0159 42.2167 33.9269 42.391 33.7627 42.464C33.7118 42.4873 33.6567 42.4991 33.6017 42.4991ZM29.0565 35.9528C29.1746 35.9528 29.2888 36.0053 29.3618 36.0999L32.853 40.5533L31.8921 36.2965C31.856 36.1388 31.9291 35.9761 32.0733 35.8943C32.2155 35.8106 32.3976 35.8291 32.5227 35.9372L36.6895 39.5405L34.4254 35.1766C34.3494 35.0286 34.3813 34.8494 34.5055 34.7364C34.6285 34.6235 34.8138 34.6011 34.9619 34.6848L39.4299 37.213L36.0118 33.0536C35.9067 32.9261 35.8997 32.7459 35.9938 32.6106C36.0878 32.4742 36.261 32.4129 36.4231 32.4616L40.8691 33.7636L36.5002 30.1516C36.3781 30.0503 36.334 29.8867 36.388 29.7396C36.4421 29.5935 36.5832 29.4942 36.7434 29.4923L40.8481 29.4339L35.8506 26.7645C35.7235 26.6963 35.6464 26.5648 35.6514 26.4236C35.6565 26.2824 35.7425 26.1558 35.8747 26.0964L39.2798 24.5641L34.1431 23.227C34.02 23.1949 33.922 23.1063 33.8799 22.9904C33.8379 22.874 33.8569 22.7445 33.932 22.6451L36.203 19.6223L31.5669 19.8775C31.4327 19.8814 31.3367 19.838 31.2586 19.7534C31.1805 19.6691 31.1465 19.5542 31.1655 19.4422L31.8981 15.1918L28.3859 17.011C28.2788 17.0679 28.1497 17.0704 28.0386 17.0178C27.9285 16.9657 27.8504 16.8659 27.8273 16.7485L26.8935 11.8291L24.8756 14.8738C24.8001 14.9878 24.6654 15.0505 24.5278 15.0442C24.3882 15.0355 24.2651 14.9537 24.2054 14.8309L21.8012 9.88179L21.3253 13.7178C21.3067 13.8688 21.1956 13.994 21.045 14.0339C20.8939 14.0752 20.7338 14.0212 20.6381 13.8999L17.146 9.446L18.1074 13.7032C18.1435 13.8614 18.0699 14.0241 17.9262 14.1064C17.7831 14.1867 17.6009 14.1702 17.4767 14.063L13.3107 10.4601L15.5753 14.8235C15.6519 14.971 15.6194 15.1507 15.4958 15.2641C15.3726 15.3786 15.1854 15.3996 15.0388 15.3153L10.5702 12.7861L13.9879 16.9465C14.0929 17.0745 14.1005 17.2542 14.0059 17.3895C13.9118 17.5249 13.7356 17.5833 13.577 17.538L9.13145 16.2365L13.4994 19.8491C13.6215 19.9499 13.6666 20.114 13.6126 20.2606C13.5585 20.4072 13.4164 20.5055 13.2562 20.5079L9.15093 20.5658L14.149 23.2361C14.2761 23.3038 14.3532 23.4357 14.3481 23.5764C14.3431 23.7177 14.2565 23.8438 14.1254 23.9031L10.7203 25.436L15.8564 26.7731C15.979 26.8052 16.0776 26.8938 16.1196 27.0097C16.1622 27.1266 16.1427 27.2551 16.0676 27.3555L13.7976 30.3783L18.4342 30.1231C18.5448 30.1045 18.6639 30.1611 18.742 30.2467C18.8201 30.3315 18.8541 30.4454 18.8346 30.5584L18.1014 34.8082L21.6137 32.9891C21.7232 32.9336 21.8514 32.9317 21.9615 32.9823C22.0716 33.034 22.1502 33.1342 22.1723 33.2511L23.1066 38.171L25.124 35.1258C25.2 35.0118 25.3371 34.9368 25.4722 34.9553C25.6113 34.9641 25.7354 35.0459 25.7946 35.1686L28.1987 40.1188L28.6751 36.2818C28.6932 36.1308 28.8043 36.0061 28.9554 35.9652C28.9895 35.9567 29.0225 35.9528 29.0565 35.9528Z" fill="#081219"/>
</svg>
