<svg width="50" height="50" viewBox="0 0 50 50" fill="none" xmlns="http://www.w3.org/2000/svg">
<path d="M41.5096 14.9522C40.5125 13.2212 35.0419 15.4995 30.5121 17.7811C27.6134 15.4476 23.615 15.1449 20.4373 17.0777C17.2577 19.0118 15.58 22.765 16.1804 26.5009C12.0581 29.4831 7.49394 33.3121 8.49007 35.043C8.7291 35.4574 9.22383 35.6645 9.97225 35.6645C11.7351 35.6645 14.9141 34.5082 19.454 32.221L19.4567 32.2234L19.4711 32.2161C21.0865 33.5208 23.0432 34.1962 25.0145 34.1962C26.5804 34.1962 28.1523 33.7748 29.5614 32.918C32.7435 30.9806 34.4208 27.2248 33.8183 23.4863L33.8299 23.478L33.8289 23.4731C34.7917 22.7757 35.687 22.0962 36.5071 21.4424C36.8484 21.6667 37.2343 21.7834 37.622 21.7834C37.9756 21.7834 38.331 21.6872 38.6544 21.4906C39.1326 21.2004 39.4714 20.735 39.6097 20.181C39.7236 19.7245 39.6815 19.2563 39.5078 18.8291C41.3645 17.001 41.9926 15.7926 41.5096 14.9522ZM20.9456 17.9594C22.1965 17.1982 23.593 16.8244 24.9842 16.8244C26.8286 16.8244 28.6653 17.482 30.1417 18.7667C30.8293 19.3637 31.4028 20.0584 31.847 20.8311C32.0566 21.1946 32.2326 21.5785 32.3844 21.9744C32.4334 22.1024 32.4659 22.2384 32.5088 22.3695C32.5803 22.588 32.6433 22.8102 32.6973 23.0366C32.4603 23.2054 32.2177 23.3746 31.9753 23.5438C31.7452 23.7046 31.5191 23.8651 31.2849 24.0258C30.9312 24.2683 30.5696 24.5098 30.2081 24.751C30.0282 24.8712 29.8519 24.9922 29.6705 25.1117C29.2184 25.4098 28.7606 25.7043 28.3018 25.9973C28.2008 26.0617 28.1015 26.1277 28.0004 26.1918C27.4341 26.5506 26.8651 26.9042 26.297 27.2497C25.732 27.5937 25.1598 27.9344 24.5848 28.27C24.4243 28.3637 24.2628 28.4538 24.1019 28.5466C23.6881 28.7854 23.2738 29.0241 22.8593 29.2561C22.6464 29.3753 22.435 29.4887 22.2226 29.6057C21.8629 29.804 21.5029 30.003 21.1458 30.1942C20.8963 30.3279 20.6509 30.4543 20.4035 30.5841C20.1428 30.721 19.8819 30.8582 19.6242 30.9904C19.4578 30.8334 19.2995 30.6702 19.1482 30.5016C19.0562 30.3992 18.955 30.3037 18.8687 30.1972C18.6038 29.87 18.3609 29.5268 18.1516 29.1634C17.7071 28.3926 17.3905 27.5409 17.2104 26.633C16.5344 23.2152 18.0352 19.7295 20.9456 17.9594ZM9.34789 34.5205C9.11802 34.1212 10.6071 31.834 16.4128 27.5862C16.5059 27.9168 16.622 28.2366 16.7488 28.5508C16.7801 28.6285 16.8125 28.7054 16.846 28.782C16.9809 29.0914 17.1261 29.3953 17.2937 29.6861C17.5185 30.0768 17.7817 30.4431 18.0634 30.7964C18.147 30.9012 18.2376 31 18.326 31.1014C18.4367 31.2282 18.5372 31.3627 18.6552 31.4837C11.6642 34.9659 9.53826 34.8498 9.34789 34.5205ZM29.0529 32.0352C26.3631 33.6728 23.0019 33.5206 20.464 31.708C20.5581 31.6591 20.6564 31.602 20.7509 31.5525C21.6562 31.0787 22.5728 30.5841 23.4957 30.0655C23.632 29.989 23.7654 29.9111 23.9018 29.8337C24.8769 29.2804 25.8511 28.7131 26.8052 28.1327C27.3575 27.7967 27.9099 27.4527 28.4606 27.1042C28.6428 26.9889 28.8223 26.8711 29.0039 26.7548C29.37 26.52 29.7352 26.2854 30.097 26.0473C30.3145 25.9041 30.5276 25.7603 30.7431 25.6164C31.0634 25.4025 31.3819 25.189 31.6962 24.974C31.9252 24.8174 32.1487 24.6617 32.3738 24.505C32.5498 24.3825 32.731 24.26 32.9045 24.1377C33.2289 27.2969 31.7437 30.3987 29.0529 32.0352ZM33.5844 22.3999C33.491 22.07 33.3747 21.751 33.2478 21.4372C33.2173 21.3619 33.186 21.2874 33.1537 21.2131C33.0187 20.9036 32.8735 20.5996 32.7058 20.3086C32.4798 19.9164 32.2158 19.5491 31.9332 19.195C31.8495 19.0901 31.7589 18.9913 31.6704 18.8901C31.5591 18.7627 31.4582 18.6275 31.3395 18.5059C37.8156 15.2855 40.411 15.0578 40.6505 15.4747C40.6544 15.4797 40.8843 16.0387 38.9044 18.0105C38.8869 17.9957 38.8649 17.9896 38.8471 17.9754C38.6969 17.8562 38.5375 17.7526 38.365 17.6799C38.3596 17.6776 38.3538 17.6768 38.3483 17.6746C38.1773 17.6043 37.9977 17.5639 37.8156 17.5416C37.7823 17.5375 37.7504 17.5314 37.717 17.529C37.5361 17.5157 37.3548 17.5273 37.1749 17.5637C37.1403 17.5707 37.1075 17.5811 37.0732 17.59C36.8876 17.6377 36.7048 17.704 36.5331 17.8084C36.4101 17.8833 36.2975 17.9694 36.1955 18.0645C36.1643 18.0936 36.141 18.1287 36.1117 18.1595C36.0454 18.2294 35.9775 18.2983 35.9219 18.3758C35.8982 18.4088 35.8824 18.4462 35.8607 18.4803C35.809 18.5618 35.756 18.6427 35.7157 18.7301C35.6986 18.7671 35.6898 18.8074 35.6749 18.8453C35.6398 18.9342 35.6034 19.0226 35.5801 19.1153C35.569 19.1599 35.567 19.2066 35.5586 19.252C35.5421 19.3407 35.5234 19.4291 35.5178 19.5195C35.5145 19.5737 35.5219 19.6283 35.5226 19.6829C35.5237 19.7656 35.5208 19.848 35.5314 19.9307C35.5395 19.995 35.5599 20.0578 35.5737 20.1215C35.5896 20.1939 35.6001 20.2667 35.6236 20.3378C35.6466 20.408 35.683 20.4748 35.7137 20.5432C35.7404 20.6025 35.7596 20.6638 35.792 20.7215C35.1084 21.2638 34.3693 21.8259 33.5844 22.3999ZM38.6434 19.9262C38.5713 20.2149 38.3951 20.4572 38.1458 20.6088C37.7338 20.8595 37.2158 20.7845 36.7989 20.3706C36.7376 20.311 36.6849 20.26 36.6606 20.218C36.3558 19.689 36.5272 19.0033 37.0414 18.6901C37.1481 18.6251 37.2635 18.5898 37.38 18.5673C37.4114 18.5613 37.4427 18.5576 37.4745 18.5545C37.5805 18.5444 37.687 18.5464 37.791 18.5686C37.801 18.5707 37.8113 18.5699 37.8212 18.5724C37.9337 18.5997 38.04 18.6512 38.1401 18.7143C38.1647 18.7299 38.1884 18.7468 38.2119 18.7644C38.3092 18.8374 38.4008 18.9217 38.473 19.0289L38.474 19.0304C38.4739 19.0303 38.4741 19.0305 38.474 19.0304L38.5475 19.1395C38.6704 19.3828 38.7108 19.6576 38.6434 19.9262Z" fill="#081219"/>
</svg>
