<svg width="50" height="50" viewBox="0 0 50 50" fill="none" xmlns="http://www.w3.org/2000/svg">
<path d="M39.769 16.035C38.333 13.5917 36.4183 12.2455 34.374 12.2455C32.6687 12.2455 31.0133 13.2128 29.687 14.9679C28.3607 13.2128 26.7053 12.2455 25 12.2455C23.2948 12.2455 21.6394 13.2128 20.313 14.9679C18.9867 13.2128 17.3313 12.2455 15.6261 12.2455C11.4477 12.2455 8.04712 17.9696 8.04712 25.0001C8.04712 32.0305 11.4477 37.7546 15.6261 37.7546C17.3313 37.7546 18.9867 36.7873 20.313 35.0322C21.6394 36.7873 23.2948 37.7546 25 37.7546C26.7053 37.7546 28.3607 36.7873 29.687 35.0322C31.0133 36.7873 32.6687 37.7546 34.374 37.7546C38.5524 37.7546 41.9529 32.0305 41.9529 25.0001C41.9529 21.6194 41.1751 18.4383 39.769 16.035ZM34.374 37.0366C32.8383 37.0366 31.3225 36.1092 30.1058 34.4139C31.6815 32.0006 32.579 28.5801 32.579 25.0001C32.579 21.42 31.6815 18.0095 30.1058 15.5862C31.3225 13.8909 32.8283 12.9635 34.374 12.9635C38.1635 12.9635 41.2449 18.3585 41.2449 25.0001C41.2449 31.6416 38.1635 37.0366 34.374 37.0366ZM31.8709 25.0001C31.8709 28.3109 31.0831 31.4721 29.687 33.7557C28.3009 31.4721 27.5031 28.3109 27.5031 25.0001C27.5031 21.6893 28.2909 18.528 29.687 16.2444C31.0732 18.528 31.8709 21.6893 31.8709 25.0001ZM23.205 25.0001C23.205 21.42 22.3075 18.0095 20.7319 15.5862C21.9485 13.8909 23.4543 12.9635 24.9901 12.9635C26.5258 12.9635 28.0416 13.8909 29.2582 15.5862C27.6826 17.9995 26.7851 21.42 26.7851 25.0001C26.7851 28.5801 27.6826 31.9906 29.2582 34.4139C28.0416 36.1092 26.5358 37.0366 24.9901 37.0366C23.4444 37.0366 21.9385 36.1092 20.7319 34.4139C22.3075 32.0006 23.205 28.5801 23.205 25.0001ZM20.313 33.7557C18.9269 31.4721 18.1291 28.3109 18.1291 25.0001C18.1291 21.6893 18.9169 18.528 20.313 16.2444C21.6992 18.528 22.497 21.6893 22.497 25.0001C22.497 28.3109 21.7092 31.4721 20.313 33.7557ZM15.6261 37.0366C11.8366 37.0366 8.75515 31.6316 8.75515 25.0001C8.75515 18.3685 11.8366 12.9635 15.6261 12.9635C17.1618 12.9635 18.6776 13.8909 19.8842 15.5862C18.3086 17.9995 17.4111 21.42 17.4111 25.0001C17.4111 28.5801 18.3086 31.9906 19.8842 34.4139C18.6676 36.1092 17.1618 37.0366 15.6261 37.0366Z" fill="black"/>
</svg>
