<svg width="50" height="50" viewBox="0 0 50 50" fill="none" xmlns="http://www.w3.org/2000/svg">
<path d="M24.9998 43.1673C24.7877 43.1673 24.6155 42.9951 24.6155 42.783C24.6155 37.0879 24.6155 29.9993 21.886 28.423C20.86 27.8334 19.4252 28.0596 17.6196 29.1026C17.4349 29.2068 17.2002 29.1446 17.0946 28.9615C17.0596 28.9004 17.0431 28.8344 17.0431 28.7693C17.0431 28.6362 17.1122 28.507 17.2353 28.436C20.3706 26.6264 22.6361 25.3182 22.6361 24.3974C22.6361 23.4766 20.3706 22.1683 17.2353 20.3582C17.1122 20.2872 17.0431 20.158 17.0431 20.0254C17.0431 19.9603 17.0596 19.8938 17.0946 19.8332C17.2002 19.6501 17.4349 19.586 17.6196 19.6926C19.5624 20.8141 21.0742 21.0774 22.1137 20.4794C24.6155 19.035 24.6155 12.7568 24.6155 7.21778C24.6155 7.00562 24.7877 6.83344 24.9998 6.83344C25.212 6.83344 25.3842 7.00562 25.3842 7.21778C25.3842 12.7568 25.3842 19.035 27.8864 20.4794C28.9244 21.0789 30.4378 20.8146 32.3806 19.6926C32.5597 19.5871 32.7969 19.6486 32.906 19.8332C32.9411 19.8938 32.9571 19.9603 32.9571 20.0254C32.9571 20.158 32.888 20.2872 32.7649 20.3582C29.629 22.1683 27.364 23.4766 27.364 24.3974C27.364 25.3182 29.6291 26.6264 32.7649 28.436C32.888 28.507 32.9571 28.6362 32.9571 28.7693C32.9571 28.8344 32.9411 28.9004 32.906 28.9615C32.797 29.1457 32.5597 29.2047 32.3806 29.1026C30.576 28.0586 29.1386 27.8334 28.1137 28.423C25.3842 29.9994 25.3842 37.0879 25.3842 42.783C25.3842 42.9951 25.212 43.1673 24.9998 43.1673Z" fill="#081219"/>
</svg>
