<svg width="50" height="50" viewBox="0 0 50 50" fill="none" xmlns="http://www.w3.org/2000/svg">
<path d="M40.9158 24.495C41.259 24.6666 41.5988 24.8512 41.9237 25.067C41.6799 24.7569 41.4085 24.4667 41.1267 24.1858C38.4369 21.5003 34.6335 20.0087 30.8698 20.2461C30.7612 20.2515 30.6528 20.2586 30.5444 20.2666C32.5461 17.9229 35.5224 16.6042 38.5381 16.3776C38.9186 16.3497 39.3026 16.3349 39.6889 16.3546C39.3271 16.2114 38.9509 16.0997 38.5703 16.0013C34.9353 15.059 30.9164 15.7232 27.7724 17.8644C27.6806 17.9252 27.5905 17.9887 27.5001 18.0516C28.0937 14.9915 30.0307 12.3181 32.5327 10.5704C32.8487 10.3505 33.1742 10.1402 33.5182 9.95861C33.1353 10.0206 32.7551 10.1174 32.3778 10.228C28.7718 11.2813 25.6142 13.9234 23.9322 17.3947C23.8822 17.4945 23.8352 17.5958 23.7874 17.6968C22.814 14.7414 23.1918 11.43 24.5091 8.6297C24.6758 8.27678 24.8554 7.92725 25.0652 7.59308C24.7637 7.84378 24.4816 8.12301 24.2084 8.4128C21.5976 11.1795 20.1474 15.0916 20.3782 18.9628C20.3834 19.0745 20.3903 19.186 20.3981 19.2975C18.1195 17.2386 16.8375 14.1773 16.6171 11.0754C16.59 10.684 16.5756 10.289 16.5948 9.89169C16.4556 10.2639 16.3469 10.6508 16.2513 11.0423C15.3352 14.781 15.9809 18.9148 18.0627 22.1486C18.1217 22.2431 18.1835 22.3357 18.2447 22.4288C15.2696 21.8182 12.6705 19.8259 10.9713 17.2523C10.7575 16.9274 10.553 16.5926 10.3765 16.2387C10.4368 16.6326 10.5308 17.0236 10.6382 17.4117C11.6623 21.1207 14.231 24.3686 17.6058 26.0986C17.7029 26.15 17.8014 26.1984 17.8996 26.2476C15.0263 27.2488 11.8069 26.8602 9.08436 25.5052C8.74125 25.3337 8.40143 25.149 8.07654 24.9332C8.32028 25.2434 8.59175 25.5335 8.87349 25.8145C11.5634 28.4999 15.3667 29.9916 19.1304 29.7541C19.239 29.7487 19.3474 29.7417 19.4558 29.7337C17.4541 32.0774 14.4779 33.396 11.4621 33.6227C11.0816 33.6506 10.6976 33.6654 10.3113 33.6456C10.6731 33.7888 11.0493 33.9006 11.4299 33.9989C15.0649 34.9412 19.0838 34.2771 22.2278 32.1358C22.3196 32.0751 22.4097 32.0116 22.5001 31.9486C21.9065 35.0086 19.9696 37.6822 17.4675 39.4298C17.1515 39.6497 16.8261 39.8601 16.482 40.0416C16.8649 39.9796 17.2451 39.8829 17.6224 39.7724C21.2284 38.719 24.3861 36.077 26.068 32.6057C26.118 32.5059 26.165 32.4046 26.2128 32.3035C27.1862 35.2589 26.8084 38.5703 25.4911 41.3707C25.3244 41.7236 25.1448 42.0731 24.935 42.4073C25.2365 42.1566 25.5187 41.8773 25.7918 41.5876C28.4026 38.8208 29.8528 34.9088 29.622 31.0376C29.6168 30.9259 29.6099 30.8144 29.6021 30.7029C31.8807 32.7618 33.1627 35.8231 33.3831 38.9249C33.4102 39.3164 33.4246 39.7114 33.4054 40.1087C33.5446 39.7365 33.6533 39.3496 33.7489 38.9581C34.665 35.2193 34.0193 31.0855 31.9375 27.8517C31.8785 27.7573 31.8167 27.6646 31.7555 27.5716C34.7305 28.1823 37.3298 30.1745 39.0289 32.748C39.2427 33.073 39.4472 33.4078 39.6238 33.7617C39.5634 33.3678 39.4694 32.9768 39.3619 32.5886C38.3378 28.8797 35.7691 25.6318 32.3943 23.9018C32.2972 23.8503 32.1987 23.802 32.1005 23.7528C34.9738 22.7516 38.1933 23.1401 40.9158 24.495Z" fill="#02111B"/>
</svg>
