<svg width="50" height="50" viewBox="0 0 50 50" fill="none" xmlns="http://www.w3.org/2000/svg">
<path d="M42.2458 24.5944C37.1487 24.5944 34.0197 23.5175 33.1997 21.4796C32.3796 19.4432 33.8502 16.4125 37.4516 12.7142C37.5246 12.6391 37.5616 12.5411 37.5616 12.4425C37.5616 12.3444 37.5257 12.2458 37.4526 12.1707C37.3065 12.0206 37.0698 12.0206 36.9237 12.1707C30.8868 18.3674 29.5487 17.9725 29.3403 17.8319C29.2001 17.7353 28.5885 17.0276 30.3794 12.5896C30.3988 12.5416 30.4076 12.4916 30.4076 12.4425C30.4076 12.2918 30.321 12.1487 30.1769 12.0876C29.9879 12.0071 29.7688 12.0991 29.688 12.2953C27.903 16.7228 26.9807 16.7919 26.8112 16.7563C26.5668 16.7063 25.3495 16.0131 25.3495 7.24964C25.3495 7.03748 25.1819 6.8653 24.9755 6.8653C24.7691 6.8653 24.6015 7.03748 24.6015 7.24964C24.6015 16.0131 23.3842 16.7063 23.1403 16.7563C22.9792 16.7953 22.0559 16.7382 20.2626 12.2953C20.1842 12.0986 19.9646 12.0066 19.7743 12.0876C19.6302 12.1487 19.5435 12.2918 19.5435 12.4425C19.5435 12.4916 19.5528 12.5416 19.5722 12.5896C21.0491 16.251 21.2307 18.8023 20.0977 19.9678C18.9621 21.1344 16.4768 20.9497 12.9067 19.4308C12.7169 19.3522 12.4977 19.4428 12.4179 19.639C12.3989 19.6871 12.3897 19.7366 12.3897 19.7857C12.3892 19.9369 12.4763 20.0799 12.6204 20.1415C16.9448 21.9802 16.9994 22.924 16.9663 23.0947C16.9181 23.3449 16.2437 24.5945 7.70538 24.5945C7.49896 24.5945 7.33142 24.7667 7.33142 24.9789C7.33142 25.1911 7.49896 25.3632 7.70538 25.3632C16.2437 25.3632 16.9181 26.6134 16.9663 26.8636C16.9994 27.0338 16.9448 27.9776 12.6204 29.8164C12.4763 29.8775 12.3892 30.0216 12.3897 30.1727C12.3897 30.2208 12.3989 30.2708 12.4179 30.3189C12.4978 30.5151 12.7169 30.6102 12.9067 30.5271C17.2326 28.6874 17.9201 29.3179 18.0146 29.4611C18.1525 29.6743 18.5352 31.0476 12.4992 37.2442C12.4262 37.3193 12.3896 37.4184 12.3896 37.5165C12.3896 37.6146 12.4261 37.7126 12.4992 37.7877C12.6448 37.9368 12.8819 37.9388 13.028 37.7887C16.6327 34.0874 19.5879 32.575 21.5712 33.4237C23.554 34.2685 24.6018 37.4794 24.6018 42.7092C24.6018 42.9213 24.7694 43.0935 24.9758 43.0935C25.1822 43.0935 25.3498 42.9213 25.3498 42.7092C25.3498 33.9452 26.5671 33.2526 26.8115 33.2025C26.9752 33.1615 27.8964 33.2206 29.6883 37.6635C29.7682 37.8597 29.9863 37.9518 30.1772 37.8717C30.3213 37.8097 30.4079 37.6675 30.4079 37.5164C30.4079 37.4673 30.3991 37.4173 30.3797 37.3692C28.5888 32.9301 29.2004 32.2235 29.3406 32.1265C29.549 31.9853 30.8871 31.5909 36.924 37.7886C37.0701 37.9387 37.3068 37.9377 37.4529 37.7876C37.5258 37.7125 37.5619 37.6145 37.5619 37.5164C37.5619 37.4183 37.525 37.3192 37.4519 37.2441C31.4168 31.0475 31.7996 29.6743 31.9379 29.461C32.0314 29.3179 32.7189 28.6873 37.0448 30.527C37.2357 30.6101 37.4547 30.516 37.5336 30.3188C37.5531 30.2707 37.5618 30.2207 37.5618 30.1726C37.5618 30.0215 37.4752 29.8773 37.3311 29.8163C33.0072 27.9776 32.9527 27.0338 32.9858 26.8635C33.0335 26.6134 33.7084 25.3631 42.2461 25.3631C42.4526 25.3631 42.6201 25.191 42.6201 24.9788C42.6201 24.7666 42.4523 24.5944 42.2458 24.5944ZM32.2511 26.7134C32.141 27.2839 32.4839 27.8795 33.3078 28.5211C32.2754 28.3799 31.6288 28.5501 31.3153 29.0345C30.991 29.534 30.8917 30.4428 32.5122 32.7159C30.2976 31.0524 29.4144 31.1525 28.9244 31.4878C28.454 31.8111 28.2866 32.4808 28.4268 33.5337C27.8007 32.686 27.2173 32.3406 26.6651 32.4477C26.0136 32.5818 25.2044 33.2985 24.8216 37.177C24.2666 34.8129 23.2761 33.3175 21.8572 32.7129C21.4004 32.5187 20.9116 32.4216 20.3915 32.4216C19.2935 32.4216 18.0552 32.8541 16.683 33.7158C19.0826 30.6961 19.0047 29.6021 18.6361 29.0345C18.3211 28.5501 17.6681 28.3759 16.6437 28.5221C17.4681 27.8795 17.8098 27.284 17.6998 26.7135C17.5858 26.125 17.0308 25.4093 14.3196 24.9789C17.0309 24.5485 17.5859 23.8333 17.6998 23.2443C17.8133 22.6558 17.4461 22.0422 16.5658 21.3766C18.4069 21.6823 19.7693 21.3931 20.6263 20.5113C21.4833 19.63 21.7627 18.2353 21.4658 16.3451C22.1149 17.2504 22.7162 17.6308 23.2864 17.5101C23.86 17.393 24.5563 16.8225 24.9755 14.038C25.3942 16.8225 26.0906 17.393 26.6651 17.5101C27.2163 17.6252 27.8007 17.2719 28.4268 16.4251C28.2866 17.478 28.454 18.1472 28.9244 18.471C29.4795 18.8529 30.5459 18.9304 33.486 16.4661C32.2501 18.5405 31.9219 20.3166 32.5082 21.7739C33.0955 23.2323 34.5513 24.2502 36.8555 24.8208C33.0789 25.214 32.3806 26.0448 32.2511 26.7134Z" fill="#081219"/>
</svg>
