<svg width="50" height="50" viewBox="0 0 50 50" fill="none" xmlns="http://www.w3.org/2000/svg">
<path d="M10.7373 42.4027C9.7581 42.4027 8.77878 42.4027 7.79956 42.4027C11.1933 41.1091 13.7116 39.8155 15.5295 38.5219C16.411 38.5219 17.2926 38.5219 18.1741 38.5219C16.4539 39.8156 14.0334 41.1091 10.7373 42.4027Z" fill="#081219"/>
<path d="M16.6111 42.4027C15.6324 42.4027 14.6538 42.4027 13.675 42.4027C16.8734 41.1091 19.1962 39.8155 20.8186 38.5219C21.6996 38.5219 22.5807 38.5219 23.4617 38.5219C21.937 39.8156 19.7118 41.1091 16.6111 42.4027Z" fill="#081219"/>
<path d="M22.4867 42.4027C21.5075 42.4027 20.5282 42.4027 19.549 42.4027C22.5519 41.1091 24.6793 39.8155 26.1065 38.5219C26.988 38.5219 27.8695 38.5219 28.7511 38.5219C27.4216 39.8156 25.392 41.1091 22.4867 42.4027Z" fill="#081219"/>
<path d="M28.3622 42.4027C27.383 42.4027 26.4037 42.4027 25.4244 42.4027C28.232 41.1091 30.164 39.8155 31.3957 38.5219C32.2772 38.5219 33.1588 38.5219 34.0403 38.5219C32.9063 39.8156 31.072 41.1091 28.3622 42.4027Z" fill="#081219"/>
<path d="M34.2378 42.4027C33.2586 42.4027 32.2793 42.4027 31.3 42.4027C33.9122 41.1091 35.6487 39.8155 36.6849 38.5219C37.5665 38.5219 38.448 38.5219 39.3296 38.5219C38.391 39.8156 36.7522 41.1091 34.2378 42.4027Z" fill="#081219"/>
<path d="M20.8187 38.522C19.9372 38.522 19.0556 38.522 18.1741 38.522C19.8942 37.2283 20.9139 35.9347 21.4083 34.6412C22.1922 34.6412 22.976 34.6412 23.7598 34.6412C23.3632 35.9347 22.4412 37.2283 20.8187 38.522Z" fill="#081219"/>
<path d="M26.1064 38.522C25.2249 38.522 24.3433 38.522 23.4618 38.522C24.9866 37.2283 25.8109 35.9347 26.1099 34.6412C26.8938 34.6412 27.6775 34.6412 28.4614 34.6412C28.2601 35.9347 27.5335 37.2283 26.1064 38.522Z" fill="#081219"/>
<path d="M31.3956 38.522C30.5141 38.522 29.6325 38.522 28.751 38.522C30.0803 37.2283 30.7092 35.9347 30.8128 34.6412C31.5967 34.6412 32.3805 34.6412 33.1643 34.6412C33.1585 35.9347 32.6273 37.2283 31.3956 38.522Z" fill="#081219"/>
<path d="M36.685 38.522C35.8035 38.522 34.9219 38.522 34.0404 38.522C35.1743 37.2283 35.6078 35.9347 35.516 34.6412C36.2999 34.6412 37.0836 34.6412 37.8675 34.6412C38.0569 35.9347 37.7211 37.2283 36.685 38.522Z" fill="#081219"/>
<path d="M41.9742 38.522C41.0927 38.522 40.2111 38.522 39.3296 38.522C40.268 37.2283 40.5061 35.9347 40.2189 34.6412C41.0028 34.6412 41.7866 34.6412 42.5704 34.6412C42.9553 35.9347 42.815 37.2283 41.9742 38.522Z" fill="#081219"/>
<path d="M21.4083 34.6411C20.6244 34.6411 19.8406 34.6411 19.0568 34.6411C19.6489 33.3476 19.7157 32.0539 19.4324 30.7604C20.1185 30.7604 20.8047 30.7604 21.4908 30.7604C21.8718 32.054 21.9027 33.3476 21.4083 34.6411Z" fill="#081219"/>
<path d="M26.11 34.6411C25.3266 34.6411 24.5433 34.6411 23.7599 34.6411C24.1567 33.3476 24.028 32.0539 23.5492 30.7604C24.2349 30.7604 24.9207 30.7604 25.6063 30.7604C26.1828 32.054 26.409 33.3476 26.11 34.6411Z" fill="#081219"/>
<path d="M30.8128 34.6411C30.029 34.6411 29.2452 34.6411 28.4613 34.6411C28.6626 33.3476 28.3386 32.0539 27.6646 30.7604C28.3506 30.7604 29.0368 30.7604 29.7229 30.7604C30.4948 32.054 30.9165 33.3476 30.8128 34.6411Z" fill="#081219"/>
<path d="M35.5158 34.6411C34.7319 34.6411 33.9482 34.6411 33.1643 34.6411C33.1702 33.3476 32.6508 32.0539 31.7812 30.7604C32.4673 30.7604 33.1535 30.7604 33.8396 30.7604C34.8069 32.054 35.4241 33.3476 35.5158 34.6411Z" fill="#081219"/>
<path d="M40.2189 34.6411C39.435 34.6411 38.6512 34.6411 37.8674 34.6411C37.6778 33.3476 36.963 32.0539 35.8979 30.7604C36.584 30.7604 37.2702 30.7604 37.9563 30.7604C39.1191 32.054 39.9317 33.3476 40.2189 34.6411Z" fill="#081219"/>
<path d="M23.5491 30.7604C22.863 30.7604 22.1769 30.7604 21.4908 30.7604C21.1097 29.4669 20.3785 28.1733 19.4722 26.8797C20.0606 26.8797 20.649 26.8797 21.2374 26.8797C22.2414 28.1733 23.0703 29.4669 23.5491 30.7604Z" fill="#081219"/>
<path d="M27.6646 30.7604C26.9785 30.7604 26.2923 30.7604 25.6062 30.7604C25.0298 29.4669 24.1032 28.1733 23.0015 26.8797C23.5899 26.8797 24.1783 26.8797 24.7667 26.8797C25.9662 28.1733 26.9905 29.4669 27.6646 30.7604Z" fill="#081219"/>
<path d="M31.7812 30.7604C31.0952 30.7604 30.409 30.7604 29.7229 30.7604C28.951 29.4669 27.829 28.1733 26.5319 26.8797C27.1203 26.8797 27.7087 26.8797 28.2971 26.8797C29.6919 28.1733 30.9117 29.4669 31.7812 30.7604Z" fill="#081219"/>
<path d="M35.898 30.7604C35.2119 30.7604 34.5257 30.7604 33.8397 30.7604C32.8723 29.4669 31.5549 28.1733 30.0624 26.8797C30.6508 26.8797 31.2392 26.8797 31.8276 26.8797C33.4178 28.1733 34.833 29.4669 35.898 30.7604Z" fill="#081219"/>
<path d="M40.0147 30.7604C39.3286 30.7604 38.6424 30.7604 37.9563 30.7604C36.7936 29.4669 35.2807 28.1733 33.5928 26.8797C34.1812 26.8797 34.7696 26.8797 35.358 26.8797C37.1436 28.1733 38.7543 29.4669 40.0147 30.7604Z" fill="#081219"/>
<path d="M19.4722 26.8796C18.8838 26.8796 18.2954 26.8796 17.7069 26.8796C16.8988 25.5868 15.9159 24.294 14.9329 23.0012C15.4236 23.0012 15.9143 23.0012 16.4051 23.0012C17.4858 24.294 18.5663 25.5868 19.4722 26.8796Z" fill="#081219"/>
<path d="M23.0016 26.8796C22.4135 26.8796 21.8255 26.8796 21.2375 26.8796C20.2341 25.5868 19.0557 24.294 17.8774 23.0012C18.3679 23.0012 18.8583 23.0012 19.3488 23.0012C20.6247 24.294 21.9006 25.5868 23.0016 26.8796Z" fill="#081219"/>
<path d="M26.532 26.8796C25.9436 26.8796 25.3552 26.8796 24.7668 26.8796C23.5681 25.5868 22.1945 24.294 20.8209 23.0012C21.3117 23.0012 21.8024 23.0012 22.2931 23.0012C23.7644 24.294 25.2356 25.5868 26.532 26.8796Z" fill="#081219"/>
<path d="M30.0624 26.8796C29.4739 26.8796 28.8855 26.8796 28.2971 26.8796C26.9031 25.5868 25.3342 24.294 23.7654 23.0012C24.2561 23.0012 24.7469 23.0012 25.2376 23.0012C26.9041 24.294 28.5707 25.5868 30.0624 26.8796Z" fill="#081219"/>
<path d="M33.5928 26.8796C33.0043 26.8796 32.4159 26.8796 31.8275 26.8796C30.2382 25.5868 28.4741 24.294 26.7098 23.0012C27.2006 23.0012 27.6913 23.0012 28.182 23.0012C30.0439 24.294 31.9058 25.5868 33.5928 26.8796Z" fill="#081219"/>
<path d="M17.8773 23.0012C17.3866 23.0012 16.8958 23.0012 16.4051 23.0012C15.3238 21.7076 14.2424 20.4141 13.3361 19.1204C13.7291 19.1204 14.1221 19.1204 14.5151 19.1204C15.5192 20.4141 16.6983 21.7075 17.8773 23.0012Z" fill="#081219"/>
<path d="M20.8209 23.0012C20.3302 23.0012 19.8394 23.0012 19.3487 23.0012C18.0721 21.7076 16.7953 20.4141 15.6936 19.1204C16.0867 19.1204 16.4796 19.1204 16.8727 19.1204C18.0721 20.4141 19.4465 21.7075 20.8209 23.0012Z" fill="#081219"/>
<path d="M23.7654 23.0012C23.2747 23.0012 22.784 23.0012 22.2932 23.0012C20.8211 21.7076 19.3489 20.4141 18.0518 19.1204C18.4448 19.1204 18.8378 19.1204 19.2308 19.1204C20.6257 20.4141 22.1956 21.7075 23.7654 23.0012Z" fill="#081219"/>
<path d="M26.7099 23.0012C26.2191 23.0012 25.7284 23.0012 25.2376 23.0012C23.5701 21.7076 21.9025 20.4141 20.4099 19.1204C20.803 19.1204 21.1959 19.1204 21.589 19.1204C23.1793 20.4141 24.9446 21.7075 26.7099 23.0012Z" fill="#081219"/>
<path d="M29.6544 23.0012C29.1637 23.0012 28.6729 23.0012 28.1822 23.0012C26.3192 21.7076 24.4561 20.4141 22.7682 19.1204C23.1612 19.1204 23.5542 19.1204 23.9473 19.1204C25.7329 20.4141 27.6937 21.7075 29.6544 23.0012Z" fill="#081219"/>
<path d="M13.3361 19.1204C12.943 19.1204 12.5501 19.1204 12.157 19.1204C11.3484 17.8269 10.7149 16.5333 10.4315 15.2398C10.7268 15.2398 11.0222 15.2398 11.3175 15.2398C11.6985 16.5333 12.4298 17.8269 13.3361 19.1204Z" fill="#081219"/>
<path d="M15.6936 19.1204C15.3008 19.1204 14.908 19.1204 14.5152 19.1204C13.5111 17.8269 12.6822 16.5333 12.2034 15.2398C12.4985 15.2398 12.7936 15.2398 13.0888 15.2398C13.6652 16.5333 14.5919 17.8269 15.6936 19.1204Z" fill="#081219"/>
<path d="M18.0517 19.1204C17.6586 19.1204 17.2657 19.1204 16.8726 19.1204C15.6732 17.8269 14.6489 16.5333 13.9747 15.2398C14.27 15.2398 14.5654 15.2398 14.8607 15.2398C15.6326 16.5333 16.7545 17.8269 18.0517 19.1204Z" fill="#081219"/>
<path d="M20.4099 19.1204C20.0169 19.1204 19.6238 19.1204 19.2309 19.1204C17.836 17.8269 16.6163 16.5333 15.7467 15.2398C16.042 15.2398 16.3374 15.2398 16.6327 15.2398C17.6 16.5333 18.9174 17.8269 20.4099 19.1204Z" fill="#081219"/>
<path d="M22.768 19.1204C22.375 19.1204 21.982 19.1204 21.589 19.1204C19.9987 17.8269 18.5836 16.5333 17.5186 15.2398C17.8138 15.2398 18.1092 15.2398 18.4045 15.2398C19.5673 16.5333 21.0802 17.8269 22.768 19.1204Z" fill="#081219"/>
<path d="M12.2033 15.2398C11.908 15.2398 11.6127 15.2398 11.3174 15.2398C10.9363 13.9462 10.9055 12.6525 11.3999 11.359C11.5975 11.359 11.7951 11.359 11.9927 11.359C11.5959 12.6525 11.7246 13.9462 12.2033 15.2398Z" fill="#081219"/>
<path d="M13.9748 15.2398C13.6795 15.2398 13.3841 15.2398 13.0888 15.2398C12.5124 13.9462 12.2861 12.6525 12.5852 11.359C12.7828 11.359 12.9804 11.359 13.178 11.359C12.9767 12.6525 13.3007 13.9462 13.9748 15.2398Z" fill="#081219"/>
<path d="M15.7466 15.2398C15.4513 15.2398 15.1559 15.2398 14.8607 15.2398C14.0888 13.9462 13.6671 12.6525 13.7708 11.359C13.9684 11.359 14.166 11.359 14.3636 11.359C14.3576 12.6525 14.8771 13.9462 15.7466 15.2398Z" fill="#081219"/>
<path d="M17.5185 15.2398C17.2233 15.2398 16.9279 15.2398 16.6326 15.2398C15.6654 13.9462 15.0483 12.6525 14.9564 11.359C15.154 11.359 15.3516 11.359 15.5492 11.359C15.7388 12.6525 16.4535 13.9462 17.5185 15.2398Z" fill="#081219"/>
<path d="M19.2905 15.2398C18.9952 15.2398 18.6998 15.2398 18.4045 15.2398C17.2418 13.9463 16.4293 12.6526 16.142 11.359C16.3396 11.359 16.5372 11.359 16.7348 11.359C17.1198 12.6525 18.0301 13.9462 19.2905 15.2398Z" fill="#081219"/>
<path d="M11.3999 11.359C11.2023 11.359 11.0047 11.359 10.8071 11.359C11.3992 10.0654 12.5166 8.77189 14.3345 7.47829C14.4345 7.47819 14.5343 7.47819 14.6342 7.47829C12.9141 8.77189 11.8944 10.0654 11.3999 11.359Z" fill="#081219"/>
<path d="M12.5852 11.359C12.3877 11.359 12.1902 11.359 11.9928 11.359C12.3894 10.0654 13.3115 8.77187 14.9338 7.47816C15.0337 7.47806 15.1335 7.47806 15.2333 7.47816C13.7086 8.77187 12.8843 10.0654 12.5852 11.359Z" fill="#081219"/>
<path d="M13.7708 11.359C13.5732 11.359 13.3756 11.359 13.178 11.359C13.3793 10.0654 14.106 8.77187 15.533 7.47816C15.6329 7.47806 15.7327 7.47806 15.8327 7.47816C14.5033 8.77187 13.8744 10.0654 13.7708 11.359Z" fill="#081219"/>
<path d="M14.9565 11.359C14.7589 11.359 14.5613 11.359 14.3636 11.359C14.3695 10.0654 14.9007 8.77189 16.1324 7.47829C16.2323 7.47819 16.3321 7.47819 16.4321 7.47829C15.2981 8.77189 14.8646 10.0654 14.9565 11.359Z" fill="#081219"/>
<path d="M16.1421 11.359C15.9445 11.359 15.7469 11.359 15.5493 11.359C15.3598 10.0654 15.6956 8.77189 16.7317 7.47829C16.8316 7.47819 16.9314 7.47819 17.0314 7.47829C16.0929 8.77189 15.8549 10.0654 16.1421 11.359Z" fill="#081219"/>
</svg>
