<svg width="50" height="50" viewBox="0 0 50 50" fill="none" xmlns="http://www.w3.org/2000/svg">
<path d="M43.4899 11.4111C43.4871 11.3587 43.4737 11.3076 43.4479 11.2584C43.4444 11.2518 43.4441 11.2441 43.4403 11.2376C43.4392 11.236 43.4393 11.2339 43.4383 11.2323C43.4054 11.1799 43.36 11.1414 43.31 11.111C43.3053 11.108 43.3033 11.1025 43.2985 11.0997L37.2644 7.70757C37.1431 7.63849 36.9909 7.63849 36.8696 7.70757L31.0336 10.9889L25.1971 7.70767C25.1914 7.70439 25.1844 7.70573 25.1785 7.70275C25.1242 7.67539 25.0651 7.65612 24.9997 7.65612C24.9344 7.65612 24.8753 7.67539 24.821 7.70275C24.8151 7.70562 24.8082 7.70439 24.8024 7.70757L18.9662 10.9887L13.1298 7.70757C13.0075 7.63849 12.8574 7.63849 12.7351 7.70757L6.70152 11.0997C6.69615 11.1027 6.69394 11.1089 6.68878 11.1122C6.63699 11.1443 6.59036 11.1845 6.55752 11.2398C6.5571 11.2405 6.55699 11.2411 6.55657 11.2418C6.52457 11.2965 6.51205 11.3551 6.5092 11.4139C6.50889 11.4205 6.50415 11.4259 6.50415 11.4325V18.2162C6.50415 18.3533 6.5792 18.4804 6.70152 18.549L12.5377 21.8301V28.3919C12.5377 28.3985 12.5425 28.4039 12.5428 28.4105C12.5456 28.4692 12.558 28.5277 12.59 28.5823C12.6242 28.6407 12.6734 28.6905 12.7351 28.7253L18.5713 32.0064V38.5672C18.5713 38.7044 18.6464 38.8314 18.7687 38.9005L24.8023 42.2926C24.8085 42.2961 24.8158 42.2947 24.8222 42.2978C24.8762 42.3248 24.9348 42.3437 24.9996 42.3437C25.0645 42.3437 25.1232 42.3248 25.1771 42.2978C25.1833 42.2947 25.1909 42.2961 25.197 42.2926L31.2311 38.9005C31.3534 38.8314 31.4285 38.7044 31.4285 38.5672V32.0061L37.2642 28.7253C37.315 28.6966 37.3519 28.6533 37.3845 28.6079C37.3914 28.5983 37.4029 28.5944 37.4091 28.5842C37.4419 28.5287 37.4542 28.469 37.4568 28.4091C37.4571 28.4031 37.4615 28.3982 37.4615 28.392V21.8302L43.2983 18.5491C43.4206 18.4805 43.4956 18.3534 43.4956 18.2163V11.4325C43.4958 11.4248 43.4904 11.4186 43.4899 11.4111ZM37.067 8.48437L42.3273 11.4412C40.0498 12.7888 37.6863 14.1476 37.1123 14.4063L31.8229 11.4326L37.067 8.48437ZM31.034 31.3398L25.3945 28.1696V22.2739L36.2769 28.3919L31.034 31.3398ZM24.9997 34.7326L19.7557 31.7841L24.9997 28.8353L30.244 31.784L24.9997 34.7326ZM13.7226 28.392L24.605 22.2741V28.1696L18.9656 31.34L13.7226 28.392ZM36.6723 15.0463V20.9424L31.4287 17.9945V12.0985L36.6723 15.0463ZM30.6391 17.9943L25.3945 20.9424V8.70616L30.6391 11.6546V17.9943ZM24.605 20.9423L19.3609 17.9944V11.6544L24.605 8.70626V20.9423ZM13.3272 21.8301L18.966 18.66L24.2101 21.6082L13.3272 27.7257V21.8301ZM13.3272 20.9424V15.0463L18.5713 12.0982V17.9945L13.3272 20.9424ZM25.7896 21.6082L31.0339 18.66L36.6723 21.8301V27.7258L25.7896 21.6082ZM12.9325 8.48437L18.1769 11.4325L12.9325 14.3808L7.68815 11.4325L12.9325 8.48437ZM7.29362 17.9945V12.0982L12.5377 15.0464V20.9424L7.29362 17.9945ZM19.3609 32.4501L24.605 35.3983V41.2938L19.3609 38.3449V32.4501ZM30.6391 38.3449L25.3945 41.2938V35.3983L30.6391 32.4498V38.3449ZM37.4617 20.9424V15.081C38.048 14.8233 39.3909 14.0825 42.7064 12.1166V17.9945L37.4617 20.9424Z" fill="#081219"/>
</svg>
