<svg width="50" height="50" viewBox="0 0 50 50" fill="none" xmlns="http://www.w3.org/2000/svg">
<path d="M25.0499 11.2881C17.4709 11.2881 11.2881 17.4709 11.2881 24.9501C11.2881 32.5291 17.4709 38.6122 24.9501 38.6122C32.4294 38.6122 38.7119 32.5291 38.7119 24.9501C38.7119 17.4709 32.5291 11.2881 25.0499 11.2881ZM27.6427 18.6676L25.6482 22.856V22.9557C25.4488 23.3546 24.8504 23.3546 24.5512 22.9557V22.856L22.5568 18.6676C19.3656 12.5845 30.6343 12.5845 27.6427 18.6676ZM23.4543 23.4543C23.7535 23.9529 23.4543 24.4515 22.9557 24.4515H22.856L18.2687 24.1524C11.4875 23.6537 17.072 13.9806 20.8615 19.6648L23.4543 23.4543ZM18.2687 25.8476L22.856 25.5485H22.9557C23.4543 25.5485 23.7535 26.0471 23.4543 26.446C23.4543 26.446 23.4543 26.5457 23.3546 26.5457L20.7618 30.4349C17.072 36.1191 11.3878 26.3463 18.2687 25.8476ZM22.3573 31.3324L24.3518 27.144V27.0443C24.5512 26.6454 25.1496 26.6454 25.4488 27.0443V27.144L27.4432 31.3324C30.6343 37.4155 19.3656 37.4155 22.3573 31.3324ZM29.1385 30.4349L26.5457 26.5457C26.5457 26.5457 26.5457 26.446 26.446 26.446C26.1468 26.0471 26.446 25.5485 26.9446 25.5485H27.0443L31.6316 25.8476C38.6122 26.3463 32.928 36.1191 29.1385 30.4349ZM31.7313 24.1524L27.144 24.4515H27.0443C26.5457 24.4515 26.2465 23.9529 26.5457 23.554C26.5457 23.554 26.5457 23.4543 26.6454 23.4543L29.2382 19.5651C32.928 13.8809 38.6122 23.6537 31.7313 24.1524Z" fill="#081219"/>
<path d="M25.0499 7.49866C15.3768 7.49866 7.49866 15.3768 7.49866 24.9502C7.49866 34.5236 15.3768 42.5014 25.0499 42.5014C34.723 42.5014 42.6012 34.6233 42.6012 24.9502C42.6012 15.2771 34.6233 7.49866 25.0499 7.49866ZM25.0499 40.6067C16.4737 40.6067 9.49312 33.6261 9.49312 25.0499C9.49312 16.4737 16.4737 9.49312 25.0499 9.49312C33.6261 9.49312 40.6067 16.4737 40.6067 25.0499C40.6067 33.6261 33.6261 40.6067 25.0499 40.6067Z" fill="#081219"/>
</svg>
