<svg width="50" height="50" viewBox="0 0 50 50" fill="none" xmlns="http://www.w3.org/2000/svg">
<path d="M16.6731 12.5845C18.0693 12.5845 19.1662 11.4876 19.1662 10.0915C19.1662 8.69534 18.0693 7.59839 16.6731 7.59839C15.277 7.59839 14.1801 8.69534 14.1801 10.0915C14.1801 11.4876 15.277 12.5845 16.6731 12.5845Z" fill="#081219"/>
<path d="M27.7423 12.5845C29.1385 12.5845 30.2354 11.4876 30.2354 10.0915C30.2354 8.69534 29.1385 7.59839 27.7423 7.59839C26.3462 7.59839 25.2493 8.69534 25.2493 10.0915C25.2493 11.4876 26.3462 12.5845 27.7423 12.5845Z" fill="#081219"/>
<path d="M22.2576 15.8753C23.6537 15.8753 24.7507 14.7784 24.7507 13.3822C24.7507 11.9861 23.6537 10.8892 22.2576 10.8892C20.8615 10.8892 19.7645 11.9861 19.7645 13.3822C19.7645 14.7784 20.8615 15.8753 22.2576 15.8753Z" fill="#081219"/>
<path d="M22.2576 37.4155C20.8615 37.4155 19.7645 38.5125 19.7645 39.9086C19.7645 41.3047 20.8615 42.4017 22.2576 42.4017C23.6537 42.4017 24.7507 41.3047 24.7507 39.9086C24.7507 38.5125 23.6537 37.4155 22.2576 37.4155Z" fill="#081219"/>
<path d="M38.8117 20.8615C37.4156 20.8615 36.3186 21.9584 36.3186 23.3545C36.3186 24.7506 37.4156 25.8476 38.8117 25.8476C40.2078 25.8476 41.3048 24.7506 41.3048 23.3545C41.3048 21.9584 40.2078 20.8615 38.8117 20.8615Z" fill="#081219"/>
<path d="M38.8117 14.1801C37.4156 14.1801 36.3186 15.277 36.3186 16.6731C36.3186 18.0693 37.4156 19.1662 38.8117 19.1662C40.2078 19.1662 41.3048 18.0693 41.3048 16.6731C41.3048 15.277 40.2078 14.1801 38.8117 14.1801Z" fill="#081219"/>
<path d="M38.8117 34.1246C37.4156 34.1246 36.3186 35.2216 36.3186 36.6177C36.3186 38.0138 37.4156 39.1108 38.8117 39.1108C40.2078 39.1108 41.3048 38.0138 41.3048 36.6177C41.3048 35.2216 40.2078 34.1246 38.8117 34.1246Z" fill="#081219"/>
<path d="M38.8117 27.4432C37.4156 27.4432 36.3186 28.5402 36.3186 29.9363C36.3186 31.3324 37.4156 32.4294 38.8117 32.4294C40.2078 32.4294 41.3048 31.3324 41.3048 29.9363C41.3048 28.5402 40.2078 27.4432 38.8117 27.4432Z" fill="#081219"/>
<path d="M38.8117 7.59839C37.4156 7.59839 36.3186 8.69534 36.3186 10.0915C36.3186 11.4876 37.4156 12.5845 38.8117 12.5845C40.2078 12.5845 41.3048 11.4876 41.3048 10.0915C41.3048 8.69534 40.2078 7.59839 38.8117 7.59839Z" fill="#081219"/>
<path d="M11.1884 15.8753C12.5845 15.8753 13.6815 14.7784 13.6815 13.3822C13.6815 11.9861 12.5845 10.8892 11.1884 10.8892C9.79227 10.8892 8.69531 11.9861 8.69531 13.3822C8.69531 14.7784 9.79227 15.8753 11.1884 15.8753Z" fill="#081219"/>
<path d="M11.1884 35.8199C12.5845 35.8199 13.6815 34.7229 13.6815 33.3268C13.6815 31.9307 12.5845 30.8337 11.1884 30.8337C9.79227 30.8337 8.69531 31.9307 8.69531 33.3268C8.69531 34.7229 9.79227 35.8199 11.1884 35.8199Z" fill="#081219"/>
<path d="M11.1884 37.4155C9.79227 37.4155 8.69531 38.5125 8.69531 39.9086C8.69531 41.3047 9.79227 42.4017 11.1884 42.4017C12.5845 42.4017 13.6815 41.3047 13.6815 39.9086C13.6815 38.5125 12.5845 37.4155 11.1884 37.4155Z" fill="#081219"/>
<path d="M11.1884 29.1385C12.5845 29.1385 13.6815 28.0415 13.6815 26.6454C13.6815 25.2493 12.5845 24.1523 11.1884 24.1523C9.79227 24.1523 8.69531 25.2493 8.69531 26.6454C8.69531 28.0415 9.79227 29.1385 11.1884 29.1385Z" fill="#081219"/>
<path d="M11.1884 22.5568C12.5845 22.5568 13.6815 21.4599 13.6815 20.0638C13.6815 18.6676 12.5845 17.5707 11.1884 17.5707C9.79227 17.5707 8.69531 18.6676 8.69531 20.0638C8.69531 21.4599 9.79227 22.5568 11.1884 22.5568Z" fill="#081219"/>
<path d="M33.3268 37.4155C31.9307 37.4155 30.8337 38.5125 30.8337 39.9086C30.8337 41.3047 31.9307 42.4017 33.3268 42.4017C34.7229 42.4017 35.8199 41.3047 35.8199 39.9086C35.8199 38.5125 34.7229 37.4155 33.3268 37.4155Z" fill="#081219"/>
<path d="M27.7423 25.8476C29.1192 25.8476 30.2354 24.7314 30.2354 23.3545C30.2354 21.9776 29.1192 20.8615 27.7423 20.8615C26.3655 20.8615 25.2493 21.9776 25.2493 23.3545C25.2493 24.7314 26.3655 25.8476 27.7423 25.8476Z" fill="#081219"/>
<path d="M16.6731 34.1246C15.277 34.1246 14.1801 35.2216 14.1801 36.6177C14.1801 38.0138 15.277 39.1108 16.6731 39.1108C18.0693 39.1108 19.1662 38.0138 19.1662 36.6177C19.2659 35.2216 18.0693 34.1246 16.6731 34.1246Z" fill="#081219"/>
<path d="M33.3269 35.8199C34.723 35.8199 35.82 34.7229 35.82 33.3268C35.82 31.9307 34.723 30.8337 33.3269 30.8337C31.9308 30.8337 30.8338 31.9307 30.8338 33.3268C30.7341 34.7229 31.9308 35.8199 33.3269 35.8199Z" fill="#081219"/>
<path d="M22.2576 35.8199C23.6537 35.8199 24.7507 34.7229 24.7507 33.3268C24.7507 31.9307 23.6537 30.8337 22.2576 30.8337C20.8615 30.8337 19.7645 31.9307 19.7645 33.3268C19.7645 34.7229 20.8615 35.8199 22.2576 35.8199Z" fill="#081219"/>
<path d="M16.6731 27.4432C15.277 27.4432 14.1801 28.5402 14.1801 29.9363C14.1801 31.3324 15.277 32.4294 16.6731 32.4294C18.0693 32.4294 19.1662 31.3324 19.1662 29.9363C19.2659 28.5402 18.0693 27.4432 16.6731 27.4432Z" fill="#081219"/>
<path d="M33.3268 24.1523C31.9307 24.1523 30.8337 25.2493 30.8337 26.6454C30.8337 28.0415 31.9307 29.1385 33.3268 29.1385C34.7229 29.1385 35.8199 28.0415 35.8199 26.6454C35.8199 25.2493 34.7229 24.1523 33.3268 24.1523Z" fill="#081219"/>
<path d="M16.6731 14.1801C15.277 14.1801 14.1801 15.277 14.1801 16.6731C14.1801 18.0693 15.277 19.1662 16.6731 19.1662C18.0693 19.1662 19.1662 18.0693 19.1662 16.6731C19.2659 15.277 18.0693 14.1801 16.6731 14.1801Z" fill="#081219"/>
<path d="M27.7423 39.1108C29.1385 39.1108 30.2354 38.0138 30.2354 36.6177C30.2354 35.2216 29.1385 34.1246 27.7423 34.1246C26.3462 34.1246 25.2493 35.2216 25.2493 36.6177C25.2493 38.0138 26.3462 39.1108 27.7423 39.1108Z" fill="#081219"/>
<path d="M22.2576 24.1523C20.8615 24.1523 19.7645 25.2493 19.7645 26.6454C19.7645 28.0415 20.8615 29.1385 22.2576 29.1385C23.6537 29.1385 24.7507 28.0415 24.7507 26.6454C24.7507 25.2493 23.6537 24.1523 22.2576 24.1523Z" fill="#081219"/>
<path d="M22.2576 17.4709C20.8615 17.4709 19.7645 18.5679 19.7645 19.964C19.7645 21.3601 20.8615 22.4571 22.2576 22.4571C23.6537 22.4571 24.7507 21.3601 24.7507 19.964C24.7507 18.6676 23.6537 17.4709 22.2576 17.4709Z" fill="#081219"/>
<path d="M27.7423 19.2659C29.1385 19.2659 30.2354 18.169 30.2354 16.7729C30.2354 15.3767 29.1385 14.2798 27.7423 14.2798C26.3462 14.2798 25.2493 15.3767 25.2493 16.7729C25.2493 18.0693 26.3462 19.2659 27.7423 19.2659Z" fill="#081219"/>
<path d="M27.7423 27.4432C26.3462 27.4432 25.2493 28.5402 25.2493 29.9363C25.2493 31.3324 26.3462 32.4294 27.7423 32.4294C29.1385 32.4294 30.2354 31.3324 30.2354 29.9363C30.2354 28.5402 29.1385 27.4432 27.7423 27.4432Z" fill="#081219"/>
<path d="M33.3268 17.4709C31.9307 17.4709 30.8337 18.5679 30.8337 19.964C30.8337 21.3601 31.9307 22.4571 33.3268 22.4571C34.7229 22.4571 35.8199 21.3601 35.8199 19.964C35.8199 18.6676 34.7229 17.4709 33.3268 17.4709Z" fill="#081219"/>
<path d="M33.3269 15.8753C34.723 15.8753 35.82 14.7784 35.82 13.3822C35.82 11.9861 34.723 10.8892 33.3269 10.8892C31.9308 10.8892 30.8338 11.9861 30.8338 13.3822C30.7341 14.7784 31.9308 15.8753 33.3269 15.8753Z" fill="#081219"/>
<path d="M16.6731 25.8476C18.0693 25.8476 19.1662 24.7506 19.1662 23.3545C19.1662 21.9584 18.0693 20.8615 16.6731 20.8615C15.277 20.8615 14.1801 21.9584 14.1801 23.3545C14.1801 24.7506 15.277 25.8476 16.6731 25.8476Z" fill="#081219"/>
<path d="M16.6731 7.59839C18.0693 7.59839 19.1662 8.69534 19.1662 10.0915C19.1662 11.4876 18.0693 12.5845 16.6731 12.5845C15.277 12.5845 14.1801 11.4876 14.1801 10.0915C14.1801 8.69534 15.277 7.59839 16.6731 7.59839Z" fill="#081219"/>
<path d="M22.2576 10.8892C23.6537 10.8892 24.7507 11.9861 24.7507 13.3822C24.7507 14.7784 23.6537 15.8753 22.2576 15.8753C20.8615 15.8753 19.7645 14.7784 19.7645 13.3822C19.7645 11.9861 20.8615 10.8892 22.2576 10.8892Z" fill="#081219"/>
<path d="M11.1884 10.8892C12.5845 10.8892 13.6815 11.9861 13.6815 13.3822C13.6815 14.7784 12.5845 15.8753 11.1884 15.8753C9.79227 15.8753 8.69531 14.7784 8.69531 13.3822C8.69531 11.9861 9.79227 10.8892 11.1884 10.8892Z" fill="#081219"/>
<path d="M11.1884 17.4709C12.5845 17.4709 13.6815 18.5679 13.6815 19.964C13.6815 21.3601 12.5845 22.4571 11.1884 22.4571C9.79227 22.4571 8.69531 21.3601 8.69531 19.964C8.69531 18.6676 9.79227 17.4709 11.1884 17.4709Z" fill="#081219"/>
<path d="M11.1884 24.1523C12.5845 24.1523 13.6815 25.2493 13.6815 26.6454C13.6815 28.0415 12.5845 29.1385 11.1884 29.1385C9.79227 29.1385 8.69531 28.0415 8.69531 26.6454C8.69531 25.2493 9.79227 24.1523 11.1884 24.1523Z" fill="#081219"/>
<path d="M27.7423 34.1246C29.1385 34.1246 30.2354 35.2216 30.2354 36.6177C30.2354 38.0138 29.1385 39.1108 27.7423 39.1108C26.3462 39.1108 25.2493 38.0138 25.2493 36.6177C25.2493 35.2216 26.3462 34.1246 27.7423 34.1246Z" fill="#081219"/>
<path d="M27.7423 32.5291C26.3462 32.5291 25.2493 31.4322 25.2493 30.036C25.2493 28.6399 26.3462 27.543 27.7423 27.543C29.1385 27.543 30.2354 28.6399 30.2354 30.036C30.2354 31.3324 29.1385 32.5291 27.7423 32.5291Z" fill="#081219"/>
<path d="M22.2576 30.7341C23.6537 30.7341 24.7507 31.8311 24.7507 33.2272C24.7507 34.6233 23.6537 35.7203 22.2576 35.7203C20.8615 35.7203 19.7645 34.6233 19.7645 33.2272C19.7645 31.9308 20.8615 30.7341 22.2576 30.7341Z" fill="#081219"/>
<path d="M16.6731 20.8615C18.0693 20.8615 19.1662 21.9584 19.1662 23.3545C19.1662 24.7506 18.0693 25.8476 16.6731 25.8476C15.277 25.8476 14.1801 24.7506 14.1801 23.3545C14.1801 21.9584 15.277 20.8615 16.6731 20.8615Z" fill="#081219"/>
<path d="M33.3268 29.1385C31.9307 29.1385 30.8337 28.0415 30.8337 26.6454C30.8337 25.2493 31.9307 24.1523 33.3268 24.1523C34.7229 24.1523 35.8199 25.2493 35.8199 26.6454C35.8199 28.0415 34.7229 29.1385 33.3268 29.1385Z" fill="#081219"/>
<path d="M33.3269 30.7341C34.723 30.7341 35.82 31.8311 35.82 33.2272C35.82 34.6233 34.723 35.7203 33.3269 35.7203C31.9308 35.7203 30.8338 34.6233 30.8338 33.2272C30.7341 31.9308 31.9308 30.7341 33.3269 30.7341Z" fill="#081219"/>
<path d="M38.8117 25.8476C37.4156 25.8476 36.3186 24.7506 36.3186 23.3545C36.3186 21.9584 37.4156 20.8615 38.8117 20.8615C40.2078 20.8615 41.3048 21.9584 41.3048 23.3545C41.3048 24.7506 40.2078 25.8476 38.8117 25.8476Z" fill="#081219"/>
<path d="M11.1884 30.7341C12.5845 30.7341 13.6815 31.8311 13.6815 33.2272C13.6815 34.6233 12.5845 35.7203 11.1884 35.7203C9.79227 35.7203 8.69531 34.6233 8.69531 33.2272C8.69531 31.9308 9.79227 30.7341 11.1884 30.7341Z" fill="#081219"/>
<path d="M38.8117 12.5845C37.4156 12.5845 36.3186 11.4876 36.3186 10.0915C36.3186 8.69534 37.4156 7.59839 38.8117 7.59839C40.2078 7.59839 41.3048 8.69534 41.3048 10.0915C41.3048 11.4876 40.2078 12.5845 38.8117 12.5845Z" fill="#081219"/>
<path d="M11.1884 42.4017C9.79227 42.4017 8.69531 41.3047 8.69531 39.9086C8.69531 38.5125 9.79227 37.4155 11.1884 37.4155C12.5845 37.4155 13.6815 38.5125 13.6815 39.9086C13.6815 41.3047 12.5845 42.4017 11.1884 42.4017Z" fill="#081219"/>
<path d="M22.2576 42.4017C20.8615 42.4017 19.7645 41.3047 19.7645 39.9086C19.7645 38.5125 20.8615 37.4155 22.2576 37.4155C23.6537 37.4155 24.7507 38.5125 24.7507 39.9086C24.7507 41.3047 23.6537 42.4017 22.2576 42.4017Z" fill="#081219"/>
<path d="M33.3268 42.4017C31.9307 42.4017 30.8337 41.3047 30.8337 39.9086C30.8337 38.5125 31.9307 37.4155 33.3268 37.4155C34.7229 37.4155 35.8199 38.5125 35.8199 39.9086C35.8199 41.3047 34.7229 42.4017 33.3268 42.4017Z" fill="#081219"/>
<path d="M16.6731 19.2659C15.277 19.2659 14.1801 18.169 14.1801 16.7729C14.1801 15.3767 15.277 14.2798 16.6731 14.2798C18.0693 14.2798 19.1662 15.3767 19.1662 16.7729C19.2659 18.0693 18.0693 19.2659 16.6731 19.2659Z" fill="#081219"/>
<path d="M27.7423 20.8615C29.1385 20.8615 30.2354 21.9584 30.2354 23.3545C30.2354 24.7506 29.1385 25.8476 27.7423 25.8476C26.3462 25.8476 25.2493 24.7506 25.2493 23.3545C25.2493 21.9584 26.3462 20.8615 27.7423 20.8615Z" fill="#081219"/>
<path d="M27.7423 14.1801C29.1385 14.1801 30.2354 15.277 30.2354 16.6731C30.2354 18.0693 29.1385 19.1662 27.7423 19.1662C26.3462 19.1662 25.2493 18.0693 25.2493 16.6731C25.2493 15.277 26.3462 14.1801 27.7423 14.1801Z" fill="#081219"/>
<path d="M16.6731 39.1108C15.277 39.1108 14.1801 38.0138 14.1801 36.6177C14.1801 35.2216 15.277 34.1246 16.6731 34.1246C18.0693 34.1246 19.1662 35.2216 19.1662 36.6177C19.2659 38.0138 18.0693 39.1108 16.6731 39.1108Z" fill="#081219"/>
<path d="M22.2576 22.5568C20.8615 22.5568 19.7645 21.4599 19.7645 20.0638C19.7645 18.6676 20.8615 17.5707 22.2576 17.5707C23.6537 17.5707 24.7507 18.6676 24.7507 20.0638C24.7507 21.4599 23.6537 22.5568 22.2576 22.5568Z" fill="#081219"/>
<path d="M33.3269 10.8892C34.723 10.8892 35.82 11.9861 35.82 13.3822C35.82 14.7784 34.723 15.8753 33.3269 15.8753C31.9308 15.8753 30.8338 14.7784 30.8338 13.3822C30.7341 11.9861 31.9308 10.8892 33.3269 10.8892Z" fill="#081219"/>
</svg>
