<svg width="50" height="50" viewBox="0 0 50 50" fill="none" xmlns="http://www.w3.org/2000/svg">
<path fill-rule="evenodd" clip-rule="evenodd" d="M24.9502 7.19946C15.1773 7.19946 7.19946 15.1773 7.19946 24.9502C7.19946 34.723 15.1773 42.7008 24.9502 42.7008C34.723 42.7008 42.7008 34.723 42.7008 24.9502V7.19946H24.9502ZM24.9502 36.6177C18.5679 36.6177 13.2826 31.4321 13.2826 24.9502C13.2826 18.5679 18.4682 13.2826 24.9502 13.2826C31.3324 13.2826 36.6177 18.4682 36.6177 24.9502C36.6177 31.4321 31.4321 36.6177 24.9502 36.6177Z" fill="#081219"/>
<path fill-rule="evenodd" clip-rule="evenodd" d="M24.9502 18.2687C28.64 18.2687 31.6317 21.2604 31.6317 24.9501C31.6317 28.6399 28.64 31.7313 24.9502 31.7313C21.2605 31.7313 18.2688 28.7396 18.2688 24.9501C18.2688 21.2604 21.2605 18.2687 24.9502 18.2687Z" fill="#081219"/>
</svg>
