<svg width="50" height="50" viewBox="0 0 50 50" fill="none" xmlns="http://www.w3.org/2000/svg">
<g clip-path="url(#clip0_11_6554)">
<path d="M42.8421 20.5624C42.3158 20.5624 41.8948 20.9613 41.8948 21.4599C41.8948 20.9613 41.4737 20.5624 40.9474 20.5624C40.4211 20.5624 40 20.9613 40 21.4599C40 20.9613 39.579 20.5624 39.0527 20.5624C38.5264 20.5624 38.1053 20.9613 38.1053 21.4599C38.1053 20.9613 37.6843 20.5624 37.1579 20.5624C36.6316 20.5624 36.2106 20.9613 36.2106 21.4599C36.2106 20.9613 35.7895 20.5624 35.2632 20.5624C34.7369 20.5624 34.3158 20.9613 34.3158 21.4599C34.3158 20.9613 33.8948 20.5624 33.3685 20.5624C32.8421 20.5624 32.4211 20.9613 32.4211 21.4599C32.4211 20.9613 32 20.5624 31.4737 20.5624C30.9474 20.5624 30.5264 20.9613 30.5264 21.4599C30.5264 20.9613 30.1053 20.5624 29.579 20.5624C29.0527 20.5624 28.6316 20.9613 28.6316 21.4599C28.6316 20.9613 28.2106 20.5624 27.6842 20.5624C27.1579 20.5624 26.7369 20.9613 26.7369 21.4599C26.7369 20.9613 26.3158 20.5624 25.7895 20.5624C25.2632 20.5624 24.8421 20.9613 24.8421 21.4599C24.8421 20.9613 24.4211 20.5624 23.8948 20.5624C23.3685 20.5624 22.9474 20.9613 22.9474 21.4599C22.9474 20.9613 22.5264 20.5624 22 20.5624C21.4737 20.5624 21.0527 20.9613 21.0527 21.4599C21.0527 20.9613 20.6316 20.5624 20.1053 20.5624C19.579 20.5624 19.1579 20.9613 19.1579 21.4599C19.1579 20.9613 18.7369 20.5624 18.2106 20.5624C17.6842 20.5624 17.2632 20.9613 17.2632 21.4599C17.2632 20.9613 16.8421 20.5624 16.3158 20.5624C15.7895 20.5624 15.3685 20.9613 15.3685 21.4599C15.3685 20.9613 14.9474 20.5624 14.4211 20.5624C13.8948 20.5624 13.4737 20.9613 13.4737 21.4599C13.4737 20.9613 13.0527 20.5624 12.5264 20.5624C12 20.5624 11.579 20.9613 11.579 21.4599C11.579 20.9613 11.1579 20.5624 10.6316 20.5624C10.1053 20.5624 9.68425 20.9613 9.68425 21.4599C9.68425 20.9613 9.2632 20.5624 8.73688 20.5624C8.21056 20.5624 7.78951 20.9613 7.78951 21.4599C7.78951 20.9613 7.36846 20.5624 6.84214 20.5624C6.31583 20.5624 5.89478 20.9613 5.89478 21.4599V28.5402C5.89478 29.0388 6.31583 29.4377 6.84214 29.4377C7.36846 29.4377 7.78951 29.0388 7.78951 28.5402C7.78951 29.0388 8.21056 29.4377 8.73688 29.4377C9.2632 29.4377 9.68425 29.0388 9.68425 28.5402C9.68425 29.0388 10.1053 29.4377 10.6316 29.4377C11.1579 29.4377 11.579 29.0388 11.579 28.5402C11.579 29.0388 12 29.4377 12.5264 29.4377C13.0527 29.4377 13.4737 29.0388 13.4737 28.5402C13.4737 29.0388 13.8948 29.4377 14.4211 29.4377C14.9474 29.4377 15.3685 29.0388 15.3685 28.5402C15.3685 29.0388 15.7895 29.4377 16.3158 29.4377C16.8421 29.4377 17.2632 29.0388 17.2632 28.5402C17.2632 29.0388 17.6842 29.4377 18.2106 29.4377C18.7369 29.4377 19.1579 29.0388 19.1579 28.5402C19.1579 29.0388 19.579 29.4377 20.1053 29.4377C20.6316 29.4377 21.0527 29.0388 21.0527 28.5402C21.0527 29.0388 21.4737 29.4377 22 29.4377C22.5264 29.4377 22.9474 29.0388 22.9474 28.5402C22.9474 29.0388 23.3685 29.4377 23.8948 29.4377C24.4211 29.4377 24.8421 29.0388 24.8421 28.5402C24.8421 29.0388 25.2632 29.4377 25.7895 29.4377C26.3158 29.4377 26.7369 29.0388 26.7369 28.5402C26.7369 29.0388 27.1579 29.4377 27.6842 29.4377C28.2106 29.4377 28.6316 29.0388 28.6316 28.5402C28.6316 29.0388 29.0527 29.4377 29.579 29.4377C30.1053 29.4377 30.5264 29.0388 30.5264 28.5402C30.5264 29.0388 30.9474 29.4377 31.4737 29.4377C32 29.4377 32.4211 29.0388 32.4211 28.5402C32.4211 29.0388 32.8421 29.4377 33.3685 29.4377C33.8948 29.4377 34.3158 29.0388 34.3158 28.5402C34.3158 29.0388 34.7369 29.4377 35.2632 29.4377C35.7895 29.4377 36.2106 29.0388 36.2106 28.5402C36.2106 29.0388 36.6316 29.4377 37.1579 29.4377C37.6843 29.4377 38.1053 29.0388 38.1053 28.5402C38.1053 29.0388 38.5264 29.4377 39.0527 29.4377C39.579 29.4377 40 29.0388 40 28.5402C40 29.0388 40.4211 29.4377 40.9474 29.4377C41.4737 29.4377 41.8948 29.0388 41.8948 28.5402C41.8948 29.0388 42.3158 29.4377 42.8421 29.4377C43.3685 29.4377 43.7895 29.0388 43.7895 28.5402V21.4599C43.7895 20.9613 43.3685 20.5624 42.8421 20.5624Z" fill="#081219"/>
</g>
<defs>
<clipPath id="clip0_11_6554">
<rect width="50" height="50" fill="white"/>
</clipPath>
</defs>
</svg>
