<svg width="50" height="50" viewBox="0 0 50 50" fill="none" xmlns="http://www.w3.org/2000/svg">
<path d="M7.42238 11.9861C7.62737 12.1856 7.72986 12.2853 8.03734 12.2853C8.34482 12.2853 8.44731 12.1856 8.54981 11.9861L9.57474 10.9889L10.5997 11.9861C10.8047 12.1856 10.9071 12.2853 11.1121 12.2853C11.3171 12.1856 11.5221 12.1856 11.6246 11.9861C11.9321 11.6869 11.9321 11.1883 11.6246 10.8892L10.7022 9.99166L11.7271 8.99443C12.0346 8.69526 12.0346 8.19664 11.7271 7.89747C11.4196 7.5983 10.9071 7.5983 10.5997 7.89747L9.57474 8.8947L8.54981 7.89747C8.24233 7.5983 7.72986 7.5983 7.42238 7.89747C7.1149 8.19664 7.1149 8.59553 7.42238 8.99443L8.44731 9.99166L7.42238 10.9889C7.1149 11.1883 7.1149 11.6869 7.42238 11.9861Z" fill="#081219"/>
<path d="M38.5804 11.9861C38.7854 12.1856 38.8878 12.2853 39.0928 12.2853C39.2978 12.2853 39.5028 12.1856 39.6053 11.9861L40.6302 10.9889L41.6552 11.9861C41.8601 12.1856 41.9626 12.2853 42.1676 12.2853C42.3726 12.2853 42.5776 12.1856 42.6801 11.9861C42.9876 11.6869 42.9876 11.1883 42.6801 10.8892L41.6552 9.89192L42.6801 8.89469C42.9876 8.59552 42.9876 8.09691 42.6801 7.79774C42.3726 7.49857 41.8601 7.49857 41.5527 7.79774L40.5277 8.79497L39.5028 7.79774C39.1953 7.49857 38.6829 7.49857 38.3754 7.79774C38.0679 8.09691 38.0679 8.59552 38.3754 8.89469L39.4003 9.89192L38.5804 10.9889C38.3754 11.1883 38.3754 11.6869 38.5804 11.9861Z" fill="#081219"/>
<path d="M12.6496 16.9723C12.752 17.1718 12.957 17.2715 13.162 17.2715C13.367 17.2715 13.572 17.1718 13.6745 16.9723L14.6994 15.9751L15.7243 16.9723C15.9293 17.1718 16.0318 17.2715 16.2368 17.2715C16.4418 17.2715 16.6468 17.1718 16.7493 16.9723C17.0568 16.6732 17.0568 16.1745 16.7493 15.8754L15.9293 14.9779L16.9543 13.9806C17.2617 13.6815 17.2617 13.1828 16.9543 12.8837C16.6468 12.5845 16.1343 12.5845 15.8268 12.8837L14.8019 13.8809L13.777 12.8837C13.4695 12.5845 12.957 12.5845 12.752 12.8837C12.4446 13.1828 12.3421 13.6815 12.6496 13.9806L13.6745 14.9779L12.6496 15.8754C12.3421 16.2743 12.3421 16.7729 12.6496 16.9723Z" fill="#081219"/>
<path d="M17.8768 22.0581C18.0817 22.2576 18.1842 22.3573 18.3892 22.3573C18.5942 22.3573 18.7992 22.2576 18.9017 22.0581L19.9266 21.0609L20.9516 22.0581C21.1565 22.2576 21.259 22.3573 21.464 22.3573C21.669 22.3573 21.874 22.2576 21.9765 22.0581C22.284 21.759 22.284 21.2603 21.9765 20.9612L20.9516 19.9639L21.9765 18.9667C22.284 18.6675 22.284 18.1689 21.9765 17.8698C21.669 17.5706 21.1565 17.5706 20.8491 17.8698L19.8241 18.867L18.7992 17.8698C18.4917 17.5706 17.9793 17.5706 17.6718 17.8698C17.3643 18.1689 17.3643 18.6675 17.6718 18.9667L18.6967 19.9639L17.6718 20.9612C17.5693 21.2603 17.5693 21.759 17.8768 22.0581Z" fill="#081219"/>
<path d="M23.1039 27.1441C23.3089 27.3435 23.4114 27.4432 23.6164 27.4432C23.8214 27.4432 24.0264 27.3435 24.1289 27.1441L25.1538 26.1468L26.1787 27.1441C26.3837 27.3435 26.4862 27.4432 26.6912 27.4432C26.8962 27.4432 27.1012 27.3435 27.2037 27.1441C27.5111 26.8449 27.5111 26.3463 27.2037 26.0471L26.1787 25.0499L27.2037 24.0527C27.5111 23.7535 27.5111 23.2549 27.2037 22.9557C26.8962 22.6565 26.3837 22.6565 26.0762 22.9557L25.0513 23.9529L24.0264 22.9557C23.7189 22.6565 23.2064 22.6565 22.8989 22.9557C22.5915 23.2549 22.5915 23.7535 22.8989 24.0527L23.9239 25.0499L22.8989 26.0471C22.694 26.2466 22.694 26.7452 23.1039 27.1441Z" fill="#081219"/>
<path d="M28.2286 32.0304C28.4336 32.2299 28.536 32.3296 28.741 32.3296C28.946 32.3296 29.151 32.2299 29.2535 32.0304L30.2784 31.0332L31.3034 32.0304C31.5083 32.2299 31.6108 32.3296 31.8158 32.3296C32.0208 32.3296 32.2258 32.2299 32.3283 32.0304C32.6358 31.7312 32.6358 31.2326 32.3283 30.9335L31.3034 29.9362L32.3283 28.939C32.6358 28.6398 32.6358 28.1412 32.3283 27.8421C32.0208 27.5429 31.5083 27.5429 31.2009 27.8421L30.1759 28.8393L29.151 27.8421C28.8435 27.5429 28.3311 27.5429 28.0236 27.8421C27.7161 28.1412 27.7161 28.6398 28.0236 28.939L29.0485 29.9362L28.0236 30.9335C28.0236 31.3324 28.0236 31.831 28.2286 32.0304Z" fill="#081219"/>
<path d="M33.4557 37.1164C33.6607 37.3158 33.7632 37.4155 33.9682 37.4155C34.1732 37.4155 34.3782 37.3158 34.4807 37.1164L35.5056 36.1191L36.5305 37.1164C36.7355 37.3158 36.838 37.4155 37.043 37.4155C37.248 37.4155 37.453 37.3158 37.5555 37.1164C37.8629 36.8172 37.8629 36.3186 37.5555 36.0194L36.5305 35.0222L37.5555 34.0249C37.8629 33.7258 37.8629 33.2272 37.5555 32.928C37.248 32.6288 36.7355 32.6288 36.428 32.928L35.4031 33.9252L34.3782 32.928C34.0707 32.6288 33.5582 32.6288 33.2508 32.928C32.9433 33.2272 32.9433 33.7258 33.2508 34.0249L34.2757 35.0222L33.2508 36.0194C33.1483 36.3186 33.1483 36.8172 33.4557 37.1164Z" fill="#081219"/>
<path d="M18.0818 11.9861C18.2868 12.1856 18.3893 12.2853 18.5942 12.2853C18.7992 12.2853 19.0042 12.1856 19.1067 11.9861L20.1316 10.9889L21.1566 11.9861C21.3615 12.1856 21.464 12.2853 21.669 12.2853C21.874 12.2853 22.079 12.1856 22.1815 11.9861C22.489 11.6869 22.489 11.1883 22.1815 10.8892L21.1566 9.89193L22.284 8.99443C22.5915 8.69526 22.5915 8.19664 22.284 7.89747C21.9765 7.5983 21.464 7.5983 21.1566 7.89747L20.1316 8.8947L19.1067 7.89747C18.7992 7.5983 18.2868 7.5983 18.0818 7.89747C17.7743 8.19664 17.7743 8.69526 18.0818 8.99443L19.1067 9.99166L18.0818 10.9889C17.6718 11.1883 17.6718 11.6869 18.0818 11.9861Z" fill="#081219"/>
<path d="M23.2063 16.9723C23.4113 17.1718 23.5138 17.2715 23.7188 17.2715C23.9238 17.2715 24.1288 17.1718 24.2312 16.9723L25.2562 15.9751L26.2811 16.9723C26.4861 17.1718 26.5886 17.2715 26.7936 17.2715C26.9986 17.2715 27.2035 17.1718 27.306 16.9723C27.6135 16.6732 27.6135 16.1745 27.306 15.8754L26.2811 14.8781L27.511 13.9806C27.8185 13.6815 27.8185 13.1828 27.511 12.8837C27.2035 12.5845 26.6911 12.5845 26.3836 12.8837L25.3587 13.8809L24.3337 12.8837C24.0263 12.5845 23.5138 12.5845 23.3088 12.8837C22.8988 13.2826 22.8988 13.6815 23.2063 13.9806L24.2312 14.9779L23.2063 15.9751C22.8988 16.2743 22.8988 16.7729 23.2063 16.9723Z" fill="#081219"/>
<path d="M28.4335 22.0581C28.6385 22.2576 28.741 22.3573 28.946 22.3573C29.151 22.3573 29.356 22.2576 29.4585 22.0581L30.4834 21.0609L31.5083 22.0581C31.7133 22.2576 31.8158 22.3573 32.0208 22.3573C32.2258 22.3573 32.4307 22.2576 32.5332 22.0581C32.8407 21.759 32.8407 21.2603 32.5332 20.9612L31.5083 19.9639L32.5332 18.9667C32.8407 18.6675 32.8407 18.1689 32.5332 17.8698C32.2258 17.5706 31.7133 17.5706 31.4058 17.8698L30.3809 18.867L29.356 17.8698C29.0485 17.5706 28.536 17.5706 28.2285 17.8698C27.9211 18.1689 27.9211 18.6675 28.2285 18.9667L29.2535 19.9639L28.2285 20.9612C28.0235 21.2603 28.0235 21.759 28.4335 22.0581Z" fill="#081219"/>
<path d="M33.5582 27.1441C33.7631 27.3435 33.8656 27.4432 34.0706 27.4432C34.2756 27.4432 34.4806 27.3435 34.5831 27.1441L35.608 26.1468L36.6329 27.1441C36.8379 27.3435 36.9404 27.4432 37.1454 27.4432C37.3504 27.4432 37.5554 27.3435 37.6579 27.1441C37.9654 26.8449 37.9654 26.3463 37.6579 26.0471L36.6329 25.0499L37.6579 24.0527C37.9654 23.7535 37.9654 23.2549 37.6579 22.9557C37.3504 22.6565 36.8379 22.6565 36.5305 22.9557L35.5055 23.9529L34.4806 22.9557C34.1731 22.6565 33.6606 22.6565 33.3532 22.9557C33.0457 23.2549 33.0457 23.7535 33.3532 24.0527L34.3781 25.0499L33.3532 26.0471C33.3532 26.2466 33.3532 26.7452 33.5582 27.1441Z" fill="#081219"/>
<path d="M28.536 11.9861C28.741 12.1856 28.8435 12.2853 29.0485 12.2853C29.2535 12.2853 29.4585 12.1856 29.561 11.9861L30.5859 10.9889L31.6108 11.9861C31.8158 12.1856 31.9183 12.2853 32.1233 12.2853C32.3283 12.2853 32.5333 12.1856 32.6358 11.9861C32.9432 11.6869 32.9432 11.1883 32.6358 10.8892L31.8158 9.99166L32.8407 8.99443C33.1482 8.69526 33.1482 8.19664 32.8407 7.89747C32.5333 7.5983 32.0208 7.5983 31.7133 7.89747L30.6884 8.8947L29.6635 7.89747C29.356 7.5983 28.8435 7.5983 28.536 7.89747C28.2286 8.19664 28.2286 8.69526 28.536 8.99443L29.561 9.99166L28.6385 10.9889C28.2286 11.1883 28.2286 11.6869 28.536 11.9861Z" fill="#081219"/>
<path d="M7.42241 42.2022C7.6274 42.4016 7.72989 42.5013 7.93488 42.5013C8.13986 42.5013 8.34485 42.4016 8.44734 42.2022L9.47227 41.2049L10.4972 42.2022C10.7022 42.4016 10.8047 42.5013 11.0097 42.5013C11.2147 42.5013 11.4196 42.4016 11.5221 42.2022C11.8296 41.903 11.8296 41.4044 11.5221 41.1052L10.4972 40.108L11.5221 39.1108C11.8296 38.8116 11.8296 38.313 11.5221 38.0138C11.2147 37.7146 10.7022 37.7146 10.3947 38.0138L9.36978 39.011L8.34485 38.0138C8.03737 37.7146 7.52491 37.7146 7.21743 38.0138C6.90995 38.313 6.90995 38.8116 7.21743 39.1108L8.24236 40.108L7.42241 41.2049C7.11493 41.5041 7.11493 42.0027 7.42241 42.2022Z" fill="#081219"/>
<path d="M38.5804 42.2022C38.7854 42.4016 38.8878 42.5013 39.0928 42.5013C39.2978 42.5013 39.5028 42.4016 39.6053 42.2022L40.6302 41.2049L41.6552 42.2022C41.8601 42.4016 41.9626 42.5013 42.1676 42.5013C42.3726 42.5013 42.5776 42.4016 42.6801 42.2022C42.9876 41.903 42.9876 41.4044 42.6801 41.1052L41.6552 40.108L42.6801 39.1108C42.9876 38.8116 42.9876 38.313 42.6801 38.0138C42.3726 37.7146 41.8601 37.7146 41.5527 38.0138L40.5277 39.011L39.5028 38.0138C39.1953 37.7146 38.6829 37.7146 38.3754 38.0138C38.0679 38.313 38.0679 38.8116 38.3754 39.1108L39.4003 40.108L38.5804 41.2049C38.3754 41.5041 38.3754 42.0027 38.5804 42.2022Z" fill="#081219"/>
<path d="M18.0817 42.2022C18.2867 42.4016 18.3892 42.5013 18.5942 42.5013C18.7992 42.5013 19.0042 42.4016 19.1066 42.2022L20.1316 41.2049L21.1565 42.2022C21.3615 42.4016 21.464 42.5013 21.669 42.5013C21.874 42.5013 22.0789 42.4016 22.1814 42.2022C22.4889 41.903 22.4889 41.4044 22.1814 41.1052L21.1565 40.108L22.1814 39.1108C22.4889 38.8116 22.4889 38.313 22.1814 38.0138C21.874 37.7146 21.3615 37.7146 21.054 38.0138L20.0291 39.011L19.0042 38.0138C18.6967 37.7146 18.1842 37.7146 17.8767 38.0138C17.5692 38.313 17.5692 38.8116 17.8767 39.1108L18.9017 40.108L18.0817 41.2049C17.6717 41.5041 17.6717 42.0027 18.0817 42.2022Z" fill="#081219"/>
<path d="M28.536 42.2022C28.741 42.4016 28.8435 42.5013 29.0484 42.5013C29.2534 42.5013 29.4584 42.4016 29.5609 42.2022L30.5858 41.2049L31.6108 42.2022C31.8158 42.4016 31.9183 42.5013 32.1232 42.5013C32.3282 42.5013 32.5332 42.4016 32.6357 42.2022C32.9432 41.903 32.9432 41.4044 32.6357 41.1052L31.7133 40.2077L32.7382 39.2105C33.0457 38.9113 33.0457 38.4127 32.7382 38.1135C32.4307 37.8144 31.9183 37.8144 31.6108 38.1135L30.5858 39.1108L29.5609 38.1135C29.2534 37.8144 28.741 37.8144 28.4335 38.1135C28.126 38.4127 28.126 38.9113 28.4335 39.2105L29.4584 40.2077L28.536 41.2049C28.2285 41.5041 28.2285 42.0027 28.536 42.2022Z" fill="#081219"/>
<path d="M33.7632 16.9723C33.9681 17.1718 34.0706 17.2715 34.2756 17.2715C34.4806 17.2715 34.6856 17.1718 34.7881 16.9723L35.813 15.9751L36.8379 16.9723C37.0429 17.1718 37.1454 17.2715 37.3504 17.2715C37.5554 17.2715 37.7604 17.1718 37.8629 16.9723C38.1704 16.6732 38.1704 16.1745 37.8629 15.8754L36.9404 14.9779L37.9654 13.9806C38.2729 13.6815 38.2729 13.1828 37.9654 12.8837C37.6579 12.5845 37.1454 12.5845 36.8379 12.8837L35.813 13.8809L34.7881 12.8837C34.4806 12.5845 33.9681 12.5845 33.6607 12.8837C33.3532 13.1828 33.3532 13.6815 33.6607 13.9806L34.6856 14.9779L33.6607 15.9751C33.4557 16.2743 33.4557 16.7729 33.7632 16.9723Z" fill="#081219"/>
<path d="M7.42246 32.0304C7.62744 32.2299 7.72994 32.3296 7.93492 32.3296C8.13991 32.3296 8.3449 32.2299 8.44739 32.0304L9.57481 31.1329L10.5997 32.1302C10.8047 32.3296 10.9072 32.4293 11.1122 32.4293C11.3172 32.4293 11.5222 32.3296 11.6247 32.1302C11.9322 31.831 11.9322 31.3324 11.6247 31.0332L10.5997 30.036L11.6247 29.0387C11.9322 28.7396 11.9322 28.241 11.6247 27.9418C11.3172 27.6426 10.8047 27.6426 10.4973 27.9418L9.47232 28.939L8.44739 27.9418C8.13991 27.6426 7.62744 27.6426 7.31996 27.9418C7.01249 28.241 7.01249 28.7396 7.31996 29.0387L8.3449 30.036L7.31996 31.0332C7.11498 31.3324 7.11498 31.831 7.42246 32.0304Z" fill="#081219"/>
<path d="M12.3421 37.1164C12.547 37.3158 12.6495 37.4155 12.8545 37.4155C13.0595 37.4155 13.2645 37.3158 13.367 37.1164L14.4944 36.1191L15.5193 37.1164C15.7243 37.3158 15.8268 37.4155 16.0318 37.4155C16.2368 37.4155 16.4418 37.3158 16.5443 37.1164C16.8518 36.8172 16.8518 36.3186 16.5443 36.0194L15.5193 35.0222L16.5443 34.0249C16.8518 33.7258 16.8518 33.2272 16.5443 32.928C16.2368 32.6288 15.7243 32.6288 15.4169 32.928L14.4944 34.0249L13.4695 33.0277C13.162 32.7285 12.6495 32.7285 12.3421 33.0277C12.0346 33.3269 12.0346 33.8255 12.3421 34.1247L13.367 35.1219L12.3421 36.1191C12.1371 36.3186 12.1371 36.8172 12.3421 37.1164Z" fill="#081219"/>
<path d="M7.42246 22.0581C7.62744 22.2576 7.72994 22.3573 7.93492 22.3573C8.13991 22.3573 8.3449 22.2576 8.44739 22.0581L9.57481 21.0609L10.5997 22.0581C10.8047 22.2576 10.9072 22.3573 11.1122 22.3573C11.3172 22.3573 11.5222 22.2576 11.6247 22.0581C11.9322 21.759 11.9322 21.2603 11.6247 20.9612L10.5997 19.9639L11.6247 18.9667C11.9322 18.6675 11.9322 18.1689 11.6247 17.8698C11.3172 17.5706 10.8047 17.5706 10.4973 17.8698L9.47232 18.867L8.44739 17.8698C8.13991 17.5706 7.62744 17.5706 7.31996 17.8698C7.01249 18.1689 7.01249 18.6675 7.31996 18.9667L8.3449 19.9639L7.31996 20.9612C7.11498 21.2603 7.11498 21.759 7.42246 22.0581Z" fill="#081219"/>
<path d="M38.5804 32.0304C38.7854 32.2299 38.8878 32.3296 39.0928 32.3296C39.2978 32.3296 39.5028 32.2299 39.6053 32.0304L40.6302 31.0332L41.6552 32.0304C41.8601 32.2299 41.9626 32.3296 42.1676 32.3296C42.3726 32.3296 42.5776 32.2299 42.6801 32.0304C42.9876 31.7312 42.9876 31.2326 42.6801 30.9335L41.6552 29.9362L42.6801 28.939C42.9876 28.6398 42.9876 28.1412 42.6801 27.8421C42.3726 27.5429 41.8601 27.5429 41.5527 27.8421L40.5277 28.8393L39.5028 27.8421C39.1953 27.5429 38.6829 27.5429 38.3754 27.8421C38.0679 28.1412 38.0679 28.6398 38.3754 28.939L39.4003 29.9362L38.3754 30.9335C38.3754 31.3324 38.3754 31.831 38.5804 32.0304Z" fill="#081219"/>
<path d="M38.5804 22.0581C38.7854 22.2576 38.8878 22.3573 39.0928 22.3573C39.2978 22.3573 39.5028 22.2576 39.6053 22.0581L40.6302 21.0609L41.6552 22.0581C41.8601 22.2576 41.9626 22.3573 42.1676 22.3573C42.3726 22.3573 42.5776 22.2576 42.6801 22.0581C42.9876 21.759 42.9876 21.2603 42.6801 20.9612L41.6552 19.9639L42.6801 18.9667C42.9876 18.6675 42.9876 18.1689 42.6801 17.8698C42.3726 17.5706 41.8601 17.5706 41.5527 17.8698L40.5277 18.867L39.5028 17.8698C39.1953 17.5706 38.6829 17.5706 38.3754 17.8698C38.0679 18.1689 38.0679 18.6675 38.3754 18.9667L39.4003 19.9639L38.3754 20.9612C38.3754 21.2603 38.3754 21.759 38.5804 22.0581Z" fill="#081219"/>
<path d="M12.5471 27.1441C12.7521 27.3435 12.8546 27.4432 13.0596 27.4432C13.2646 27.4432 13.4695 27.3435 13.572 27.1441L14.597 26.1468L15.6219 27.1441C15.8269 27.3435 15.9294 27.4432 16.1344 27.4432C16.3393 27.4432 16.5443 27.3435 16.6468 27.1441C16.9543 26.8449 16.9543 26.3463 16.6468 26.0471L15.6219 25.0499L16.6468 24.0527C16.9543 23.7535 16.9543 23.2549 16.6468 22.9557C16.3393 22.6565 15.8269 22.6565 15.5194 22.9557L14.4945 23.9529L13.6745 22.9557C13.367 22.6565 12.8546 22.6565 12.5471 22.9557C12.2396 23.2549 12.2396 23.7535 12.5471 24.0527L13.572 25.0499L12.5471 26.0471C12.1371 26.2466 12.1371 26.7452 12.5471 27.1441Z" fill="#081219"/>
<path d="M17.6718 32.0304C17.8768 32.2299 17.9793 32.3296 18.1842 32.3296C18.3892 32.3296 18.5942 32.2299 18.6967 32.0304L19.7216 31.0332L20.7466 32.0304C20.9515 32.2299 21.054 32.3296 21.259 32.3296C21.464 32.3296 21.669 32.2299 21.7715 32.0304C22.079 31.7312 22.079 31.2326 21.7715 30.9335L20.7466 29.9362L21.7715 28.939C22.079 28.6398 22.079 28.1412 21.7715 27.8421C21.464 27.5429 20.9516 27.5429 20.6441 27.8421L19.6191 28.8393L18.7992 27.9418C18.4917 27.6426 17.9793 27.6426 17.6718 27.9418C17.3643 28.2409 17.3643 28.7396 17.6718 29.0387L18.6967 30.036L17.6718 31.0332C17.3643 31.3324 17.3643 31.831 17.6718 32.0304Z" fill="#081219"/>
<path d="M22.8989 37.1164C23.1039 37.3158 23.2064 37.4155 23.4114 37.4155C23.6164 37.4155 23.8214 37.3158 23.9239 37.1164L24.9488 36.1191L25.9737 37.1164C26.1787 37.3158 26.2812 37.4155 26.4862 37.4155C26.6912 37.4155 26.8962 37.3158 26.9987 37.1164C27.3061 36.8172 27.3061 36.3186 26.9987 36.0194L25.9737 35.0222L26.9987 34.0249C27.3061 33.7258 27.3061 33.2272 26.9987 32.928C26.6912 32.6288 26.1787 32.6288 25.8712 32.928L24.8463 33.9252L24.0264 33.0277C23.7189 32.7285 23.2064 32.7285 22.8989 33.0277C22.5915 33.3269 22.5915 33.8255 22.8989 34.1247L23.9239 35.1219L22.8989 36.1191C22.5915 36.3186 22.5915 36.8172 22.8989 37.1164Z" fill="#081219"/>
</svg>
