<svg width="50" height="50" viewBox="0 0 50 50" fill="none" xmlns="http://www.w3.org/2000/svg">
<path d="M38.6118 15.0671C35.6055 15.0671 33.0546 16.9636 32.1537 19.5939C32.0431 19.9168 31.5688 19.9168 31.4582 19.5939C30.5572 16.9635 28.0063 15.0671 25.0001 15.0671C21.9938 15.0671 19.4429 16.9636 18.5419 19.5939C18.4313 19.9168 17.957 19.9168 17.8465 19.5939C16.9454 16.9635 14.3945 15.0671 11.3883 15.0671H10.1783C8.54623 15.0671 7.22314 16.3545 7.22314 17.9425V32.0577C7.22314 33.6457 8.54623 34.9331 10.1783 34.9331H11.3883C14.3945 34.9331 16.9454 33.0366 17.8465 30.4063C17.957 30.0834 18.4313 30.0834 18.5419 30.4063C19.4429 33.0367 21.9938 34.9331 25.0001 34.9331C28.0063 34.9331 30.5572 33.0366 31.4582 30.4063C31.5689 30.0834 32.0431 30.0834 32.1537 30.4063C33.0547 33.0367 35.6055 34.9331 38.6118 34.9331H39.8217C41.4538 34.9331 42.7769 33.6457 42.7769 32.0577V17.9425C42.7769 16.3545 41.4538 15.0671 39.8217 15.0671H38.6118Z" fill="#081219"/>
</svg>
