<svg width="50" height="50" viewBox="0 0 50 50" fill="none" xmlns="http://www.w3.org/2000/svg">
<path d="M24.9488 7.19946C16.5444 7.19946 9.57483 13.9806 9.57483 22.2576V42.7008H40.5277V22.2576C40.4252 13.9806 33.4557 7.19946 24.9488 7.19946ZM24.9488 34.2244C18.3892 34.2244 13.0596 29.0388 13.0596 22.6565C13.0596 16.1745 18.3892 10.9889 24.9488 10.9889C31.5083 10.9889 36.838 16.1745 36.838 22.5568C36.9405 29.0388 31.6108 34.2244 24.9488 34.2244Z" fill="#081219"/>
<path d="M24.9488 12.8837C19.4142 12.8837 15.007 17.2715 15.007 22.5568C15.007 27.9418 19.5167 32.2299 24.9488 32.2299C30.4834 32.2299 34.8906 27.8421 34.8906 22.5568C34.9931 17.2715 30.4834 12.8837 24.9488 12.8837ZM34.2757 22.6565C34.2757 23.6537 33.4557 24.4515 32.4308 24.4515C31.4059 24.4515 30.5859 24.1524 29.8685 25.349C29.151 26.5457 29.8685 27.1441 30.3809 27.9418C30.8934 28.8393 30.5859 29.9363 29.6635 30.4349C28.741 30.9335 27.6136 30.6344 27.1011 29.7369C26.5887 28.9391 26.4862 28.0416 25.0513 28.0416C23.6164 28.0416 23.5139 28.9391 23.0014 29.7369C22.489 30.6344 21.3615 30.9335 20.4391 30.4349C19.5167 29.9363 19.2092 28.8393 19.7216 27.9418C20.2341 27.1441 20.9516 26.5457 20.2341 25.349C19.5167 24.1524 18.6967 24.4515 17.6718 24.4515C16.6468 24.4515 15.8269 23.6537 15.8269 22.6565C15.8269 21.6593 16.6468 20.7618 17.6718 20.7618C18.6967 20.7618 19.5167 21.061 20.2341 19.8643C20.9516 18.6676 20.2341 18.0693 19.7216 17.2715C19.2092 16.374 19.5167 15.277 20.4391 14.7784C21.3615 14.2798 22.489 14.579 23.0014 15.4765C23.5139 16.2742 23.6164 17.1718 25.0513 17.1718C26.4862 17.1718 26.5887 16.2742 27.1011 15.4765C27.6136 14.579 28.741 14.2798 29.6635 14.7784C30.5859 15.277 30.8934 16.374 30.3809 17.2715C29.8685 18.0693 29.151 18.6676 29.8685 19.8643C30.5859 21.061 31.4059 20.7618 32.4308 20.7618C33.4557 20.7618 34.2757 21.5596 34.2757 22.6565Z" fill="#081219"/>
<path d="M24.9487 18.7673C22.7963 18.7673 21.054 20.4626 21.054 22.5568C21.054 24.651 22.7963 26.3463 24.9487 26.3463C27.101 26.3463 28.8434 24.651 28.8434 22.5568C28.9459 20.4626 27.2035 18.7673 24.9487 18.7673ZM24.9487 25.3491C23.4113 25.3491 22.0789 24.1524 22.0789 22.5568C22.0789 21.061 23.3088 19.7646 24.9487 19.7646C26.4861 19.7646 27.8185 20.9612 27.8185 22.5568C27.8185 24.1524 26.5886 25.3491 24.9487 25.3491Z" fill="#081219"/>
</svg>
