<svg width="50" height="50" viewBox="0 0 50 50" fill="none" xmlns="http://www.w3.org/2000/svg">
<path fill-rule="evenodd" clip-rule="evenodd" d="M41.6039 23.4003H39.9086C39.9086 23.0125 39.8089 22.5277 39.7092 22.1399L41.3047 21.6551C41.8034 21.4612 42.1025 20.9765 41.9031 20.3947L41.5042 19.1344C41.3047 18.6496 40.8061 18.3587 40.2078 18.5526L38.6122 19.0374C38.4128 18.6496 38.2133 18.2618 38.0139 17.874L39.41 16.9044C39.8089 16.6136 39.9086 15.9349 39.6095 15.5471L38.8117 14.4806C38.5125 14.0928 37.8144 13.9959 37.4155 14.2867L36.0194 15.2562C35.7203 14.9654 35.4211 14.6745 35.1219 14.3837L36.1191 13.0263C36.4183 12.6385 36.3186 11.9598 35.9197 11.669L34.8227 10.8934C34.4239 10.6025 33.7258 10.6995 33.4266 11.0873L32.4294 12.3477C32.0305 12.1537 31.6316 11.9598 31.2327 11.7659L31.7313 10.2147C31.9308 9.72992 31.6316 9.14821 31.133 8.9543L29.8366 8.56649C29.338 8.37258 28.7396 8.66344 28.5402 9.14821L28.0416 10.6995C27.6427 10.6025 27.1441 10.5055 26.7452 10.5055V8.85735C26.7452 8.27563 26.2466 7.88782 25.748 7.88782H24.3518C23.7535 7.88782 23.3546 8.37258 23.3546 8.85735V10.4086C22.9557 10.4086 22.4571 10.5055 22.0582 10.6025L21.5596 9.14821C21.3601 8.66344 20.8615 8.37258 20.2632 8.56649L18.9668 8.9543C18.4682 9.14821 18.169 9.63297 18.3685 10.2147L18.8671 11.669C18.4682 11.8629 18.0693 12.0568 17.6704 12.2507L16.6732 10.9903C16.374 10.6025 15.6759 10.5055 15.277 10.7964L14.0804 11.572C13.6815 11.8629 13.5818 12.5416 13.8809 12.9294L14.8782 14.1898C14.579 14.4806 14.1801 14.7715 13.8809 15.1593L12.5845 14.1898C12.0859 13.8989 11.4876 13.9959 11.1884 14.3837L10.3906 15.4501C10.0914 15.9349 10.1912 16.5166 10.5901 16.8075L11.8865 17.6801C11.687 18.0679 11.4876 18.4557 11.2881 18.8435L9.79228 18.3587C9.29366 18.1648 8.69532 18.4557 8.49588 18.9404L8.09699 20.2008C7.89754 20.6856 8.19671 21.2673 8.69532 21.4612L10.1912 22.0429C10.0914 22.4308 9.99172 22.9155 9.99172 23.3033H8.39616C7.79782 23.3033 7.39893 23.7881 7.39893 24.2729V25.6302C7.39893 26.2119 7.89754 26.5997 8.39616 26.5997H9.99172C10.0914 27.0845 10.0914 27.4723 10.1912 27.8601L8.69532 28.3449C8.19671 28.5388 7.89754 29.0236 8.09699 29.6053L8.49588 30.8657C8.69532 31.3504 9.19394 31.6413 9.79228 31.4474L11.2881 30.9626C11.4876 31.3504 11.687 31.7382 11.8865 32.126L10.5901 32.9986C10.1912 33.2895 10.0914 33.9682 10.3906 34.356L11.1884 35.6164C11.4876 36.0042 12.1856 36.1011 12.5845 35.8103L13.8809 34.8407C14.1801 35.1316 14.4793 35.4224 14.8782 35.8103L13.8809 37.0706C13.5818 37.4585 13.6815 38.1371 14.0804 38.428L15.1773 39.2036C15.5762 39.4945 16.2743 39.3975 16.5734 39.0097L17.5707 37.7493C17.9696 37.9432 18.3685 38.1371 18.7673 38.331L18.2687 39.7853C18.0693 40.2701 18.3685 40.8518 18.8671 41.0457L20.1635 41.4335C20.6621 41.6274 21.2604 41.3366 21.4599 40.8518L21.9585 39.3975C22.3574 39.4945 22.856 39.5914 23.2549 39.5914V41.1427C23.2549 41.7244 23.7535 42.1122 24.2521 42.1122H25.6482C26.2466 42.1122 26.6455 41.6274 26.6455 41.1427V39.4945C27.0444 39.3975 27.543 39.3975 27.9419 39.3006L28.4405 40.8518C28.6399 41.3366 29.1385 41.6274 29.7369 41.4335L31.0333 41.0457C31.5319 40.8518 31.8311 40.367 31.6316 39.7853L31.133 38.2341C31.5319 38.0402 31.9308 37.8463 32.3297 37.6524L33.3269 38.9127C33.6261 39.3006 34.3241 39.3975 34.723 39.1067L35.82 38.331C36.2189 38.0402 36.3186 37.3615 36.0194 36.9737L35.0222 35.6164C35.3214 35.3255 35.6205 35.0346 35.9197 34.7438L37.3158 35.7133C37.7147 36.0042 38.4128 35.9072 38.7119 35.5194L39.5097 34.4529C39.8089 34.0651 39.7092 33.3864 39.3103 33.0956L37.9142 32.126C38.1136 31.7382 38.3131 31.3504 38.5125 30.9626L40.1081 31.4474C40.6067 31.6413 41.205 31.3504 41.4045 30.8657L41.8034 29.6053C42.0028 29.1205 41.7036 28.5388 41.205 28.3449L39.6095 27.8601C39.7092 27.4723 39.8089 26.9875 39.8089 26.5997H41.5042C42.1025 26.5997 42.5014 26.115 42.5014 25.6302V24.2729C42.6011 23.7881 42.1025 23.4003 41.6039 23.4003Z" fill="#081219"/>
</svg>
