<svg width="50" height="50" viewBox="0 0 50 50" fill="none" xmlns="http://www.w3.org/2000/svg">
<path fill-rule="evenodd" clip-rule="evenodd" d="M21.6594 32.2299C21.7591 34.6232 21.4599 37.0166 20.7619 39.2105C19.5652 42.6011 15.1774 43.3988 13.0832 40.5069C11.6871 38.6121 11.9862 35.9196 13.9807 34.5235C14.0804 34.4238 14.1801 34.324 14.3796 34.2243C16.2743 32.8282 18.2688 31.9307 20.4627 31.3324C20.4627 31.1329 20.4627 30.9335 20.363 30.8337C20.0638 28.8393 19.3657 26.9445 18.3685 25.1495C16.0749 26.047 13.6815 26.4459 11.2882 26.3462C10.8893 26.3462 10.4904 26.2465 10.0915 26.1468C7.79788 25.4487 6.6012 22.9556 7.29926 20.662C7.99732 18.3684 10.4904 17.1717 12.784 17.8698C13.1829 17.9695 13.5818 18.1689 13.9807 18.4681C14.0804 18.5678 14.1801 18.6675 14.3796 18.7673C16.2743 20.0637 17.7702 21.7589 18.9669 23.6537C19.1663 23.554 19.3657 23.4542 19.5652 23.3545C21.3602 22.457 22.9558 21.2603 24.3519 19.7645C22.856 17.9695 21.6594 15.7756 20.9613 13.3822C20.8616 12.9833 20.7619 12.5844 20.7619 12.1855C20.7619 9.79219 22.6566 7.79773 25.1497 7.79773C26.2466 7.79773 27.3436 8.19662 28.1414 8.99441C29.338 10.0914 29.8367 11.7866 29.338 13.4819C29.338 13.5817 29.2383 13.7811 29.2383 13.8808C28.5403 16.0747 27.4433 18.0692 26.0472 19.7645C27.543 21.3601 29.338 22.6565 31.3325 23.554C32.6289 21.5595 34.3242 19.7645 36.3187 18.3684C37.0167 17.8698 37.9142 17.5706 38.8117 17.5706C41.2051 17.5706 43.0998 19.565 43.0998 21.9584C43.0998 24.3517 41.2051 26.3462 38.8117 26.3462C38.6123 26.3462 38.5126 26.3462 38.3131 26.3462C36.0195 26.3462 33.7259 25.9473 31.6317 25.0498C31.5319 25.2493 31.4322 25.4487 31.3325 25.6481C30.435 27.4432 29.8367 29.3379 29.6372 31.3324C31.9308 31.9307 34.1247 33.0276 36.1192 34.5235C36.4184 34.8227 36.7175 35.1218 37.0167 35.421C38.4128 37.3157 38.0139 40.108 36.0195 41.5041C35.6206 41.8033 35.2217 42.0027 34.8228 42.1024C33.2272 42.6011 31.4322 42.1024 30.3353 41.0055C30.2355 40.9058 30.0361 40.7063 29.9364 40.5069C29.7369 40.2077 29.5375 39.9085 29.4378 39.5096C29.4378 39.5096 29.4378 39.4099 29.338 39.4099C29.2383 39.3102 29.2383 39.1108 29.1386 38.9113C28.4405 36.7174 28.1414 34.4238 28.2411 32.2299C26.0472 31.7312 23.8533 31.831 21.6594 32.2299ZM21.5597 31.0332C23.7536 30.6343 26.0472 30.6343 28.3408 31.0332C28.64 28.939 29.2383 26.9445 30.1358 25.0498C30.2356 24.8504 30.3353 24.7506 30.435 24.5512C28.3408 23.554 26.5458 22.2576 24.9502 20.5623C23.5541 22.0581 21.8588 23.3545 19.9641 24.3517C19.7646 24.4515 19.6649 24.5512 19.4655 24.5512C20.4627 26.3462 21.1608 28.3407 21.4599 30.5346C21.5597 30.734 21.5597 30.8337 21.5597 31.0332ZM14.6788 35.421C13.2826 36.4182 12.9835 38.4127 13.9807 39.8088C15.5763 41.903 18.6677 41.3047 19.5652 38.9113C20.2633 36.9168 20.5624 34.7229 20.4627 32.6288C18.568 33.1274 16.6732 34.0249 14.9779 35.2216C14.9779 35.2216 14.7785 35.3213 14.6788 35.421ZM29.4378 32.4293C29.338 34.4238 29.6372 36.518 30.2355 38.5124C30.2355 38.6121 30.3353 38.7119 30.3353 38.7119C30.3353 38.7119 30.3353 38.8116 30.435 38.8116C30.5347 39.3102 30.8339 39.7091 31.1331 40.0083C32.23 41.1052 34.025 41.3047 35.3214 40.4072C36.7175 39.4099 37.0167 37.4155 36.0195 36.0193C35.82 35.8199 35.6206 35.5207 35.4211 35.421C33.5264 34.0249 31.5319 33.0276 29.4378 32.4293ZM28.1414 12.1855V12.0858C28.1414 11.1883 27.7425 10.3905 27.2439 9.89191C26.9447 9.59274 26.4461 9.29357 26.0472 9.09413C24.3519 8.59551 22.6566 9.49302 22.0583 11.0886C22.0583 11.0886 22.0583 11.0886 22.0583 11.1883C21.9585 11.4875 21.9585 11.7866 21.9585 12.0858C21.9585 12.385 21.9585 12.6842 22.0583 12.9833C22.6566 15.1772 23.7536 17.072 25.05 18.7673C26.3464 17.1717 27.2439 15.3767 27.9419 13.3822C27.9419 13.2825 27.9419 13.1828 27.9419 13.083C28.0416 12.7839 28.1414 12.4847 28.1414 12.1855ZM32.23 24.0526C34.1247 24.7506 36.1192 25.1495 38.2134 25.1495C38.3131 25.1495 38.5126 25.1495 38.6123 25.1495C40.4073 25.1495 41.7037 23.7534 41.7037 21.9584C41.7037 20.2631 40.3076 18.7673 38.6123 18.7673C37.9142 18.7673 37.3159 18.9667 36.8173 19.3656C34.9225 20.5623 33.4267 22.1578 32.23 24.0526ZM17.7702 24.0526C16.6732 22.3573 15.2771 20.8614 13.5818 19.6648C13.4821 19.565 13.3824 19.4653 13.1829 19.3656C12.9835 19.2659 12.6843 19.0664 12.3851 18.9667C10.6898 18.4681 8.99455 19.3656 8.39621 20.9612C7.8976 22.6565 8.79511 24.3517 10.3907 24.9501C10.6898 25.0498 10.989 25.0498 11.2882 25.1495C13.4821 25.1495 15.676 24.8504 17.7702 24.0526Z" fill="#081219"/>
</svg>
