<svg width="50" height="50" viewBox="0 0 50 50" fill="none" xmlns="http://www.w3.org/2000/svg">
<path d="M24.9501 9.9917C16.6731 9.9917 9.9917 16.6731 9.9917 24.9501C9.9917 33.3269 16.6731 40.0083 24.9501 40.0083C33.2272 40.0083 40.0083 33.2272 40.0083 24.9501C40.0083 16.6731 33.3269 9.9917 24.9501 9.9917ZM31.4321 25.0499C31.4321 25.349 31.4321 25.6482 31.3324 25.8477L35.0222 25.9474C35.2216 25.9474 35.3213 25.9474 35.5208 26.0471C36.6177 26.446 37.3158 27.6427 36.9169 28.8393C36.518 30.036 35.3213 30.6344 34.1247 30.2355C33.8255 30.1357 33.6261 30.036 33.4266 29.8366L30.6344 27.9418C30.3352 28.5402 29.9363 29.0388 29.5374 29.4377L32.4294 31.6316C32.5291 31.7313 32.7285 31.831 32.8283 32.0305C33.5263 33.0277 33.3269 34.3241 32.3297 35.1219C31.3324 35.82 29.9363 35.6205 29.2382 34.6233C29.0388 34.4238 28.9391 34.1247 28.9391 33.9252L27.8421 30.7341C27.2438 31.0333 26.6454 31.2327 26.0471 31.3324L27.0443 34.8227C27.0443 35.0222 27.1441 35.1219 27.1441 35.3213C27.1441 36.518 26.1468 37.5152 24.9501 37.5152C23.7535 37.5152 22.7562 36.518 22.7562 35.3213C22.7562 35.0222 22.856 34.723 22.9557 34.5236L23.8532 31.3324C23.2549 31.2327 22.6565 31.0333 22.0582 30.7341L20.8615 34.1247C20.7618 34.3241 20.6621 34.4238 20.5623 34.6233C19.8643 35.6205 18.4682 35.82 17.4709 35.1219C16.4737 34.4238 16.2742 33.0277 16.9723 32.0305C17.1718 31.831 17.3712 31.6316 17.5706 31.4321L20.2632 29.4377C19.8643 28.9391 19.4654 28.4405 19.1662 27.9418L16.1745 30.036C16.0748 30.1357 15.8754 30.2355 15.6759 30.2355C14.579 30.6344 13.2826 29.9363 12.8837 28.8393C12.4848 27.6427 13.0831 26.446 14.2798 26.0471C14.579 25.9474 14.7784 25.9474 15.0776 25.9474L18.4682 25.8477C18.4682 25.5485 18.3684 25.2493 18.3684 24.9501C18.3684 24.5513 18.3684 24.2521 18.4682 23.9529H14.7784C14.579 23.9529 14.4792 23.9529 14.2798 23.8532C13.1828 23.4543 12.4848 22.2576 12.8837 21.061C13.2826 19.8643 14.4792 19.2659 15.6759 19.6648C15.9751 19.7646 16.1745 19.8643 16.374 20.0637L19.1662 22.0582C19.4654 21.4598 19.8643 20.9612 20.2632 20.5623L17.2715 18.2687C17.1718 18.169 16.9723 18.0693 16.8726 17.8698C16.1745 16.8726 16.374 15.5762 17.3712 14.7784C18.3684 14.0803 19.7646 14.2798 20.4626 15.277C20.6621 15.4765 20.7618 15.7756 20.7618 15.9751L21.9585 19.2659C22.5568 18.9668 23.1551 18.7673 23.7535 18.6676L22.6565 15.0776C22.6565 14.8781 22.5568 14.7784 22.5568 14.579C22.5568 13.3823 23.554 12.3851 24.7507 12.3851C25.9474 12.3851 26.9446 13.3823 26.9446 14.579C26.9446 14.8781 26.8449 15.1773 26.7452 15.3767L25.7479 18.7673C26.3463 18.867 26.9446 19.0665 27.5429 19.3657L28.8393 15.7756C28.9391 15.5762 28.9391 15.4765 29.1385 15.277C29.8366 14.2798 31.2327 14.0803 32.2299 14.7784C33.2272 15.4765 33.4266 16.8726 32.7285 17.8698C32.5291 18.0693 32.3297 18.2687 32.1302 18.4682L29.338 20.5623C29.7369 20.9612 30.1357 21.5596 30.4349 22.0582L33.5263 19.964C33.6261 19.8643 33.8255 19.7646 34.0249 19.7646C35.1219 19.3657 36.4183 20.0637 36.8172 21.1607C37.2161 22.3574 36.6177 23.554 35.4211 23.9529C35.3213 23.9529 35.0222 23.9529 34.723 23.9529L31.2327 24.0526C31.3324 24.3518 31.4321 24.7507 31.4321 25.0499Z" fill="#081219"/>
<path d="M24.9502 7.29919C15.1773 7.29919 7.29919 15.1773 7.29919 24.9502C7.29919 34.723 15.277 42.7009 25.0499 42.7009C34.8227 42.7009 42.8006 34.723 42.8006 24.9502C42.7009 15.1773 34.8227 7.29919 24.9502 7.29919ZM24.9502 40.6067C16.374 40.6067 9.39338 33.6261 9.39338 25.0499C9.39338 16.4737 16.374 9.4931 24.9502 9.4931C33.5263 9.4931 40.507 16.4737 40.507 25.0499C40.6067 33.6261 33.6261 40.6067 24.9502 40.6067Z" fill="#081219"/>
<path d="M24.9501 20.0637C22.2576 20.0637 19.964 22.2576 19.964 25.0499C19.964 27.8421 22.1579 30.036 24.9501 30.036C27.7424 30.036 29.9363 27.8421 29.9363 25.0499C29.9363 22.2576 27.7424 20.0637 24.9501 20.0637ZM28.1413 26.0471C27.5429 27.7424 25.6482 28.7396 23.9529 28.1413C22.2576 27.5429 21.2604 25.7479 21.8587 23.9529C22.4571 22.2576 24.2521 21.2604 26.0471 21.8587C27.7424 22.4571 28.7396 24.3518 28.1413 26.0471Z" fill="#081219"/>
</svg>
