<svg width="50" height="50" viewBox="0 0 50 50" fill="none" xmlns="http://www.w3.org/2000/svg">
<path d="M17.3643 21.0609C18.1843 21.0609 19.0042 21.4598 19.4142 22.2576L26.8962 34.8227C27.5111 35.9196 27.2037 37.3158 26.0762 38.0138C25.6663 38.2133 25.3588 38.313 24.8463 38.313C24.0264 38.313 23.2064 37.9141 22.7965 37.1163L15.3145 24.5512C14.6995 23.4543 15.007 22.0582 16.1344 21.3601C16.5444 21.1606 16.8519 21.0609 17.3643 21.0609ZM17.2618 18.2687C16.3394 18.2687 15.5194 18.4681 14.6995 18.9667C12.2397 20.3629 11.3172 23.4543 12.7521 25.8476L20.2341 38.4127C21.1566 40.0083 22.8989 40.9058 24.7438 40.9058C25.6663 40.9058 26.4862 40.7064 27.3062 40.2077C29.766 38.8116 30.6884 35.7202 29.2535 33.3268L21.874 20.8615C20.8491 19.1662 19.1067 18.2687 17.2618 18.2687Z" fill="#081219"/>
<path d="M30.2784 21.0609C31.0984 21.0609 31.9183 21.4598 32.3283 22.2576L39.8103 34.8227C40.4252 35.9196 40.1178 37.3158 38.9903 38.0138C38.5804 38.2133 38.2729 38.313 37.7604 38.313C36.9405 38.313 36.1205 37.9141 35.7106 37.1163L28.2286 24.5512C27.6136 23.4543 27.9211 22.0582 29.0485 21.3601C29.4585 21.1606 29.8685 21.0609 30.2784 21.0609ZM30.2784 18.2687C29.356 18.2687 28.5361 18.4681 27.7161 18.9667C25.2563 20.3629 24.3338 23.4543 25.7687 25.8476L33.2507 38.4127C34.1732 40.0083 35.9156 40.9058 37.7604 40.9058C38.6829 40.9058 39.5028 40.7064 40.3228 40.2077C42.7826 38.8116 43.705 35.7202 42.2701 33.3268L34.7881 20.7618C33.8657 19.1662 32.1233 18.2687 30.2784 18.2687Z" fill="#081219"/>
<path d="M24.9488 11.7868C26.1787 11.7868 27.2036 12.784 27.2036 13.9807C27.2036 15.1773 26.1787 16.1746 24.9488 16.1746C23.7188 16.1746 22.6939 15.1773 22.6939 13.9807C22.6939 12.784 23.7188 11.7868 24.9488 11.7868ZM24.9488 8.99451C22.0789 8.99451 19.8241 11.1884 19.8241 13.9807C19.8241 16.7729 22.0789 18.8671 24.8463 18.8671C27.6136 18.8671 29.8684 16.6732 29.8684 13.9807C29.9709 11.1884 27.7161 8.99451 24.9488 8.99451Z" fill="#081219"/>
<path d="M12.1372 33.9252C13.3671 33.9252 14.392 34.9224 14.392 36.1191C14.392 37.3158 13.3671 38.313 12.1372 38.313C10.9072 38.313 9.8823 37.3158 9.8823 36.1191C9.8823 34.8227 10.9072 33.9252 12.1372 33.9252ZM12.1372 31.1329C9.36984 31.1329 7.11499 33.3268 7.11499 36.0194C7.11499 38.7119 9.36984 40.9058 12.1372 40.9058C14.9045 40.9058 17.1593 38.7119 17.1593 36.0194C17.1593 33.3268 14.9045 31.1329 12.1372 31.1329Z" fill="#081219"/>
</svg>
