<svg width="50" height="50" viewBox="0 0 50 50" fill="none" xmlns="http://www.w3.org/2000/svg">
<path d="M35.1118 8.14683V33.9883C35.1118 34.6079 34.6078 35.1119 33.9882 35.1119C33.3687 35.1119 32.8648 34.6079 32.8648 33.9883V16.0116C32.8648 11.6749 29.3367 8.14673 24.9999 8.14673C20.6632 8.14673 17.1351 11.6749 17.1351 16.0116V33.9883C17.1351 34.6079 16.6311 35.1119 16.0115 35.1119C15.3919 35.1119 14.888 34.6079 14.888 33.9883V8.14683H8.14673V33.9883C8.14673 38.3251 11.6749 41.8532 16.0116 41.8532C20.3482 41.8532 23.8764 38.3251 23.8764 33.9883V16.0116C23.8764 15.3921 24.3804 14.8881 24.9999 14.8881C25.6194 14.8881 26.1235 15.3921 26.1235 16.0116V33.9883C26.1235 38.3251 29.6516 41.8532 33.9883 41.8532C38.3251 41.8532 41.8532 38.3251 41.8532 33.9883V8.14683H35.1118Z" fill="#081219"/>
</svg>
