<svg width="50" height="50" viewBox="0 0 50 50" fill="none" xmlns="http://www.w3.org/2000/svg">
<path fill-rule="evenodd" clip-rule="evenodd" d="M43.2951 7.59839V42.4017H6.70508V7.59839H43.2951ZM19.2092 13.2826H30.6885C32.5333 13.2826 33.9682 14.7784 33.9682 16.4737C33.9682 18.2687 32.4308 19.6649 30.6885 19.6649H19.2092C17.3644 19.6649 15.9295 18.2687 15.9295 16.4737C15.9295 14.6787 17.4669 13.2826 19.2092 13.2826ZM19.2092 31.2327H30.6885C32.5333 31.2327 33.9682 32.6289 33.9682 34.4239C33.9682 36.2189 32.4308 37.615 30.6885 37.615H19.2092C17.3644 37.615 15.9295 36.2189 15.9295 34.4239C15.9295 32.6289 17.4669 31.2327 19.2092 31.2327ZM19.2092 22.2577H30.6885C32.5333 22.2577 33.9682 23.6538 33.9682 25.4488C33.9682 27.2438 32.4308 28.6399 30.6885 28.6399H19.2092C17.3644 28.6399 15.9295 27.2438 15.9295 25.4488C15.9295 23.6538 17.4669 22.2577 19.2092 22.2577Z" fill="#081219"/>
</svg>
