<svg width="50" height="50" viewBox="0 0 50 50" fill="none" xmlns="http://www.w3.org/2000/svg">
<path d="M27.1439 40.9474C22.7561 40.9474 18.6675 39.3684 15.2769 36.3158C11.4874 32.9474 9.1938 28.3158 8.79491 23.0526C8.39601 18 9.89186 12.9473 13.083 9.05261L19.0664 14.3158C17.2714 16.6316 16.3739 19.4737 16.5733 22.5263C16.7727 25.5789 18.1689 28.2105 20.2631 30.1052C22.457 32 25.1495 32.9474 28.0414 32.7368C30.8337 32.5263 33.4265 31.0526 35.2215 28.8421L41.2049 34.1052C38.0137 38.1052 33.6259 40.5263 28.6398 40.9474C28.1412 40.9474 27.6426 40.9474 27.1439 40.9474Z" fill="#081219"/>
</svg>
