<svg width="50" height="50" viewBox="0 0 50 50" fill="none" xmlns="http://www.w3.org/2000/svg">
<path d="M7.09961 7.59692V42.403H42.9002V7.59692H7.09961ZM30.2353 35.0346H19.7644C18.5678 35.0346 17.5705 34.0651 17.5705 32.9016C17.5705 31.7382 18.5678 30.7687 19.7644 30.7687H30.2353C31.432 30.7687 32.4292 31.7382 32.4292 32.9016C32.4292 34.0651 31.432 35.0346 30.2353 35.0346ZM30.2353 27.0845H19.7644C18.5678 27.0845 17.5705 26.1149 17.5705 24.9515C17.5705 23.7881 18.5678 22.8185 19.7644 22.8185H30.2353C31.432 22.8185 32.4292 23.7881 32.4292 24.9515C32.4292 26.1149 31.432 27.0845 30.2353 27.0845ZM30.2353 19.2313H19.7644C18.5678 19.2313 17.5705 18.2617 17.5705 17.0983C17.5705 15.9349 18.5678 14.9653 19.7644 14.9653H30.2353C31.432 14.9653 32.4292 15.9349 32.4292 17.0983C32.4292 18.2617 31.432 19.2313 30.2353 19.2313Z" fill="#081219"/>
</svg>
