<svg width="50" height="50" viewBox="0 0 50 50" fill="none" xmlns="http://www.w3.org/2000/svg">
<path d="M7.14087 36.7491C7.14087 36.8968 7.14675 37.0426 7.15214 37.1889H18.9486H19.3027H30.7087H31.0987H42.8593V25.4122V24.5878V12.8111C37.1641 12.8111 32.4211 16.7413 31.0987 22.0268V12.811C25.3614 12.811 20.583 16.7965 19.3027 22.1411V12.811C12.5856 12.811 7.14097 18.2558 7.14097 24.9724C7.14097 25.12 7.14685 25.2658 7.15224 25.4121H14.9925C10.411 27.156 7.14087 31.5561 7.14087 36.7491ZM31.0986 33.8034V25.4121H38.5489C34.8691 26.8131 32.0675 29.9316 31.0986 33.8034ZM19.3027 33.9179V25.4121H26.7884C23.0713 26.8271 20.2428 29.9921 19.3027 33.9179Z" fill="#081219"/>
</svg>
