<svg width="50" height="50" viewBox="0 0 50 50" fill="none" xmlns="http://www.w3.org/2000/svg">
<path fill-rule="evenodd" clip-rule="evenodd" d="M39.8103 25.0499C39.8103 22.7563 38.5804 20.6621 36.633 19.5651C38.5804 18.4682 39.8103 16.374 39.8103 14.0804C39.8103 10.4904 36.838 7.59839 33.1482 7.59839C33.0457 7.59839 32.9432 7.59839 32.9432 7.59839H25.7687C16.2369 7.49866 8.44739 15.0776 8.44739 24.2521V42.5014C8.44739 42.5014 32.8407 42.5014 33.1482 42.5014C36.838 42.5014 39.8103 39.6095 39.8103 36.0194C39.8103 33.7258 38.5804 31.6316 36.633 30.5347C38.4779 29.4377 39.8103 27.3435 39.8103 25.0499Z" fill="#081219"/>
</svg>
