<svg width="50" height="50" viewBox="0 0 50 50" fill="none" xmlns="http://www.w3.org/2000/svg">
<path d="M36.8527 19.0626V20.365C35.8367 19.5518 34.55 19.0626 33.1474 19.0626V20.365C32.1314 19.5518 30.8447 19.0626 29.4421 19.0626V20.3651C28.4261 19.5518 27.1393 19.0626 25.7367 19.0626V20.365C24.7208 19.5518 23.434 19.0626 22.0314 19.0626V20.365C21.0155 19.5518 19.7287 19.0626 18.3261 19.0626V20.3651C17.3102 19.5518 16.0234 19.0626 14.6208 19.0626V20.365C13.6048 19.5518 12.3181 19.0626 10.9155 19.0626V20.365C9.89953 19.5518 8.61281 19.0626 7.21021 19.0626V30.9375C8.61281 30.9375 9.89953 30.4484 10.9155 29.6352V30.9375C12.3181 30.9375 13.6048 30.4484 14.6208 29.6352V30.9375C16.0234 30.9375 17.3102 30.4484 18.3261 29.6352V30.9375C19.7287 30.9375 21.0155 30.4484 22.0314 29.6352V30.9375C23.434 30.9375 24.7208 30.4484 25.7367 29.6352V30.9375C27.1393 30.9375 28.4261 30.4484 29.4421 29.6352V30.9375C30.8447 30.9375 32.1314 30.4484 33.1474 29.6352V30.9375C34.55 30.9375 35.8367 30.4484 36.8527 29.6352V30.9375C40.1319 30.9375 42.7901 28.2793 42.7901 25.0001C42.7901 21.7209 40.1319 19.0626 36.8527 19.0626Z" fill="#081219"/>
</svg>
