<svg width="50" height="50" viewBox="0 0 50 50" fill="none" xmlns="http://www.w3.org/2000/svg">
<path fill-rule="evenodd" clip-rule="evenodd" d="M43.295 24.9473C43.295 29.2631 39.9127 32.8421 35.7105 32.8421C34.0706 32.8421 32.9432 32.421 31.5083 31.5789C25.5637 28.2105 20.9515 27.8947 14.3919 30.1052C13.6745 30.3158 12.957 30.5263 12.1371 30.5263C9.16479 30.5263 6.70496 28 6.70496 24.9473C6.70496 21.8947 9.16479 19.3684 12.1371 19.3684C13.0595 19.3684 13.572 19.5789 14.3919 19.7895C20.9515 22 25.5637 21.6842 31.5083 18.3158C32.8407 17.5789 33.9681 17.0526 35.7105 17.0526C39.8102 17.1579 43.295 20.6316 43.295 24.9473Z" fill="#081219"/>
</svg>
