<svg width="50" height="50" viewBox="0 0 50 50" fill="none" xmlns="http://www.w3.org/2000/svg">
<path fill-rule="evenodd" clip-rule="evenodd" d="M39.1953 38.0139C39.0928 37.8144 38.9903 37.615 38.8878 37.5153C36.5304 33.1274 36.7354 29.338 37.4529 22.856C37.5554 22.0582 37.6579 21.2604 37.6579 20.4626C37.6579 13.1828 31.6108 7.19946 24.0263 7.19946C16.6468 7.29919 10.4972 13.1828 10.4972 20.5623C10.4972 26.446 14.3919 31.4321 19.8241 33.1274C26.3836 35.4211 29.8684 36.9169 32.9432 41.205C33.5581 42.1025 34.6856 42.7008 35.813 42.7008C37.7604 42.7008 39.2977 41.205 39.2977 39.3103C39.5027 38.8117 39.4002 38.4128 39.1953 38.0139Z" fill="#081219"/>
</svg>
