<svg width="50" height="50" viewBox="0 0 50 50" fill="none" xmlns="http://www.w3.org/2000/svg">
<path d="M40.4252 26.6455C40.2202 26.5457 39.9128 26.5457 39.7078 26.5457L34.3781 26.446C34.4806 25.9474 34.4806 25.4488 34.4806 25.0499C34.4806 24.651 34.4806 24.2521 34.3781 23.8532L39.2978 23.7535C39.7078 23.7535 40.1177 23.7535 40.4252 23.6538C42.0651 23.1552 42.9875 21.3601 42.3726 19.7646C41.8601 18.169 40.0152 17.2715 38.3754 17.7701C38.1704 17.8698 37.8629 17.9696 37.6579 18.0693L33.2507 20.9612C32.8407 20.1635 32.3283 19.4654 31.7133 18.7673L35.5055 15.8754C35.813 15.6759 36.1205 15.3768 36.3255 15.0776C37.3504 13.6815 37.0429 11.7867 35.608 10.7895C34.1731 9.79227 32.2258 10.0914 31.2008 11.3878C30.9959 11.5873 30.8934 11.7867 30.7909 11.9862L29.0485 16.7729C28.2285 16.374 27.4086 16.0748 26.4862 15.9751L27.8186 11.4876C27.9211 11.0887 28.0236 10.7895 28.0236 10.3906C28.0236 8.69532 26.5886 7.29919 24.8463 7.29919C23.1039 7.29919 21.669 8.69532 21.669 10.3906C21.669 10.6898 21.669 10.8892 21.7715 11.0887L23.3089 15.9751C22.3864 16.1745 21.5665 16.374 20.7465 16.7729L19.1067 12.3851C19.0042 11.9862 18.7992 11.687 18.5942 11.3878C17.5693 9.99172 15.6219 9.69255 14.187 10.7895C12.7521 11.7867 12.4446 13.6815 13.4695 15.0776C13.6745 15.0776 13.8795 15.277 13.982 15.4765L18.1842 18.6676C17.5693 19.266 17.0568 20.0637 16.6468 20.8615L12.6496 18.0693C12.3421 17.8698 12.0346 17.6704 11.6247 17.4709C9.98477 16.9723 8.24239 17.8698 7.62743 19.4654C7.11496 21.061 7.93491 22.856 9.5748 23.3546C9.77978 23.4543 10.0873 23.4543 10.2922 23.4543L15.7244 23.6538C15.6219 24.0527 15.6219 24.4515 15.6219 24.8504C15.6219 25.3491 15.6219 25.8477 15.7244 26.3463L10.7022 26.446C10.2922 26.446 9.88227 26.446 9.5748 26.5457C7.93491 27.0443 7.01247 28.8394 7.62743 30.4349C8.13989 32.0305 9.98477 32.928 11.6247 32.4294C11.8296 32.3297 12.1371 32.2299 12.3421 32.1302L16.8518 29.1385C17.2618 29.9363 17.8767 30.6344 18.4917 31.2327L14.4945 34.2244C14.187 34.4238 13.8795 34.723 13.6745 35.0222C12.6496 36.4183 12.9571 38.313 14.392 39.3103C15.8269 40.3075 17.7742 40.0083 18.7992 38.7119C18.9017 38.5125 19.1067 38.313 19.2091 38.1136L21.054 33.1275C21.874 33.5263 22.6939 33.8255 23.6164 33.9252L22.1814 38.6122C22.079 39.0111 21.9765 39.3103 21.9765 39.7092C21.9765 41.4045 23.4114 42.8006 25.1537 42.8006C26.8961 42.8006 28.331 41.4045 28.331 39.7092C28.331 39.41 28.331 39.2106 28.2285 39.0111L26.5886 33.9252C27.5111 33.8255 28.331 33.5263 29.151 33.1275L30.7909 37.7147C30.8934 38.1136 31.0983 38.4128 31.3033 38.7119C32.3283 40.1081 34.2756 40.4072 35.7105 39.3103C37.1454 38.313 37.4529 36.4183 36.428 35.0222C36.3255 34.8227 36.1205 34.6233 35.9155 34.5236L31.6108 31.3324C32.2258 30.7341 32.8407 30.036 33.2507 29.2383L37.3504 31.9308C37.6579 32.1302 37.9654 32.3297 38.3754 32.5291C40.0152 33.0277 41.7576 32.1302 42.3726 30.5347C42.9875 28.8394 42.0651 27.1441 40.4252 26.6455ZM24.9488 31.9308C20.9515 31.9308 17.7742 28.8394 17.7742 24.9502C17.7742 21.061 20.9515 17.9696 24.9488 17.9696C28.946 17.9696 32.1233 21.061 32.1233 24.9502C32.1233 28.8394 28.8435 31.9308 24.9488 31.9308Z" fill="#081219"/>
<path d="M29.4585 26.446C28.6385 28.8393 25.9737 30.2354 23.4114 29.3379C20.9516 28.5401 19.5167 25.9473 20.4391 23.4543C21.3615 20.9612 23.9239 19.6648 26.4862 20.4626C28.946 21.3601 30.2784 24.0526 29.4585 26.446Z" fill="#081219"/>
<path d="M26.3837 20.5623C23.9239 19.7645 21.1566 21.0609 20.3366 23.554C19.5167 26.0471 20.8491 28.6399 23.3089 29.4377C25.7687 30.2354 28.5361 28.939 29.356 26.5457C30.2784 24.0526 28.946 21.3601 26.3837 20.5623Z" fill="#081219"/>
</svg>
