<svg width="50" height="50" viewBox="0 0 50 50" fill="none" xmlns="http://www.w3.org/2000/svg">
<path d="M42.8437 23.8799L37.3806 17.9917C36.6265 17.041 35.1651 17.0508 34.3981 17.9917C33.8614 18.6499 32.2159 20.5965 32.2159 20.5965C32.2159 20.5965 30.5703 18.6499 30.0337 17.9917C29.2666 17.0509 27.819 17.0515 27.0512 17.9917C26.5473 18.6086 25.0001 20.4312 25.0001 20.4312C25.0001 20.4312 23.4529 18.6086 22.9491 17.9917C22.1812 17.0515 20.7336 17.0509 19.9665 17.9917C19.4299 18.6499 17.7843 20.5965 17.7843 20.5965C17.7843 20.5965 16.1387 18.6499 15.6022 17.9917C14.8351 17.0509 13.3738 17.041 12.6196 17.9917L7.15632 23.8799C6.63279 24.5398 6.63279 25.4602 7.15632 26.1202L12.6194 33.0058C13.3736 33.9563 14.8273 33.9406 15.602 33.0058C16.1337 32.3641 17.7841 30.4831 17.7841 30.4831C17.7841 30.4831 19.4346 32.3641 19.9663 33.0058C20.741 33.9406 22.1729 33.9396 22.9489 33.0058C23.4479 32.4053 25 30.6483 25 30.6483C25 30.6483 26.552 32.4052 27.051 33.0058C27.827 33.9396 29.259 33.9406 30.0336 33.0058C30.5653 32.3641 32.2158 30.4831 32.2158 30.4831C32.2158 30.4831 33.8662 32.3641 34.398 33.0058C35.1726 33.9406 36.6264 33.9563 37.3805 33.0058L42.8436 26.1202C43.3672 25.4602 43.3673 24.5399 42.8437 23.8799Z" fill="#081219"/>
</svg>
