<svg width="50" height="50" viewBox="0 0 50 50" fill="none" xmlns="http://www.w3.org/2000/svg">
<path d="M41.0853 26.6316H41.0155C31.7213 26.4316 24.1524 18.2527 24.1524 8.42107V7.4737C24.1524 7.17897 23.933 6.94739 23.6537 6.94739H8.99446C8.71524 6.94739 8.49585 7.17897 8.49585 7.4737V8.42107C8.49585 17.6211 11.8366 26.2737 17.9197 32.7895C24.0826 39.2948 32.2499 42.9474 40.9058 43.0527H41.0055C41.2848 43.0527 41.5042 42.8211 41.5042 42.5263C41.5042 36.7684 41.5241 28.0632 41.5939 27.2842C41.5939 27.2421 41.6039 27.2 41.6039 27.1579C41.6039 26.8632 41.3546 26.6211 41.0853 26.6316ZM9.69253 8.21055H22.856V8.42107C22.856 13.5474 24.7108 18.3895 28.0914 22.0527C31.4421 25.5895 35.7601 27.6421 40.3075 27.8737V41.779C23.3845 41.179 9.69253 26.3263 9.69253 8.42107V8.21055Z" fill="black"/>
</svg>
