<svg width="50" height="50" viewBox="0 0 50 50" fill="none" xmlns="http://www.w3.org/2000/svg">
<path d="M14.5354 8.0304H7.55896V14.8182H14.5354V8.0304Z" fill="#081219"/>
<path d="M14.5354 21.6061H7.55896V28.3939H14.5354V21.6061Z" fill="#081219"/>
<path d="M14.5354 35.1818H7.55896V41.9697H14.5354V35.1818Z" fill="#081219"/>
<path d="M21.5118 14.8182H14.5354V21.6061H21.5118V14.8182Z" fill="#081219"/>
<path d="M21.5118 28.3939H14.5354V35.1818H21.5118V28.3939Z" fill="#081219"/>
<path d="M28.4881 8.0304H21.5117V14.8182H28.4881V8.0304Z" fill="#081219"/>
<path d="M28.4881 21.6061H21.5117V28.3939H28.4881V21.6061Z" fill="#081219"/>
<path d="M28.4881 35.1818H21.5117V41.9697H28.4881V35.1818Z" fill="#081219"/>
<path d="M35.4647 14.8182H28.4883V21.6061H35.4647V14.8182Z" fill="#081219"/>
<path d="M35.4647 28.3939H28.4883V35.1818H35.4647V28.3939Z" fill="#081219"/>
<path d="M42.441 8.0304H35.4646V14.8182H42.441V8.0304Z" fill="#081219"/>
<path d="M42.441 21.6061H35.4646V28.3939H42.441V21.6061Z" fill="#081219"/>
<path d="M42.441 35.1818H35.4646V41.9697H42.441V35.1818Z" fill="#081219"/>
</svg>
