<svg width="50" height="50" viewBox="0 0 50 50" fill="none" xmlns="http://www.w3.org/2000/svg">
<path d="M9.09062 26.89L8.97056 26.7508C8.39336 26.0809 7.29431 26.4894 7.29431 27.3736C7.29431 27.6023 7.37638 27.8233 7.52577 27.9965L9.09082 29.8116C9.47126 30.253 10.155 30.253 10.5356 29.8116L11.6095 28.5659C11.99 28.1247 12.6739 28.1247 13.0543 28.5659L14.1284 29.8116C14.5089 30.253 15.1928 30.253 15.5732 29.8116L16.6471 28.5659C17.0278 28.1247 17.7115 28.1247 18.0921 28.5659L19.166 29.8116C19.5465 30.253 20.2304 30.253 20.6108 29.8116L21.6849 28.5659C22.0654 28.1247 22.7493 28.1247 23.1297 28.5659L24.2036 29.8116C24.4121 30.0533 24.7095 30.1499 25.0002 30.1269C25.2907 30.15 25.5883 30.0533 25.7966 29.8116L26.8705 28.5659C27.251 28.1247 27.9349 28.1247 28.3153 28.5659L29.3894 29.8116C29.7699 30.253 30.4538 30.253 30.8342 29.8116L31.9083 28.5659C32.2888 28.1247 32.9725 28.1247 33.3531 28.5659L34.427 29.8116C34.8075 30.253 35.4914 30.253 35.8718 29.8116L36.9459 28.5659C37.3264 28.1247 38.0103 28.1247 38.3907 28.5659L39.4648 29.8116C39.8453 30.253 40.5292 30.253 40.9096 29.8116L42.4746 27.9965C42.624 27.8234 42.706 27.6023 42.706 27.3736C42.706 26.4894 41.6072 26.0811 41.0298 26.7508L40.9097 26.89L42.4747 25.0749C42.6241 24.9016 42.7061 24.6806 42.7061 24.452C42.7061 23.8249 42.1524 23.4593 41.6248 23.5258L42.4746 22.5402C42.624 22.3671 42.706 22.146 42.706 21.9172C42.706 21.0331 41.6072 20.6248 41.0298 21.2944L40.9097 21.4337C40.5293 21.875 39.8454 21.875 39.4649 21.4337L38.3908 20.188C38.0104 19.7467 37.3265 19.7467 36.946 20.188L35.8719 21.4337C35.4915 21.875 34.8076 21.875 34.4271 21.4337L33.3532 20.188C32.9728 19.7467 32.2889 19.7467 31.9084 20.188L30.8343 21.4337C30.4539 21.875 29.77 21.875 29.3895 21.4337L28.3154 20.188C27.935 19.7467 27.2511 19.7467 26.8706 20.188C26.8706 20.188 26.2994 20.8929 26.0823 21.1025C25.1141 22.0373 24.9664 21.9428 23.9182 21.1025L23.1299 20.188C22.7495 19.7467 22.0656 19.7467 21.6851 20.188L20.611 21.4337C20.2306 21.875 19.5467 21.875 19.1662 21.4337L18.0923 20.188C17.7119 19.7467 17.028 19.7467 16.6473 20.188L15.5734 21.4337C15.193 21.875 14.5091 21.875 14.1286 21.4337L13.0545 20.188C12.6741 19.7467 11.9902 19.7467 11.6097 20.188L10.5358 21.4337C10.1552 21.875 9.47146 21.875 9.09082 21.4337L8.97075 21.2944C8.39356 20.6248 7.29451 21.0331 7.29451 21.9172C7.29451 22.146 7.37658 22.367 7.52597 22.5402L8.37571 23.5258C7.84827 23.4593 7.29441 23.8249 7.29441 24.452C7.29441 24.6805 7.37648 24.9016 7.52587 25.0749L9.09062 26.89Z" fill="#081219"/>
</svg>
