<svg width="50" height="50" viewBox="0 0 50 50" fill="none" xmlns="http://www.w3.org/2000/svg">
<path d="M21.874 20.8615C20.4391 18.4682 17.2618 17.5707 14.802 18.9668C12.3421 20.3629 11.4197 23.4543 12.8546 25.8477L20.2341 38.4128C21.669 40.8061 24.8463 41.7037 27.3061 40.3075C29.766 38.9114 30.6884 35.82 29.2535 33.4266L21.874 20.8615ZM42.2701 33.3269L34.8906 20.7618C33.4557 18.3685 30.2784 17.471 27.8186 18.8671C25.3588 20.2632 24.4363 23.3546 25.8712 25.748L33.2507 38.3131C34.6856 40.7064 37.8629 41.6039 40.3227 40.2078C42.7826 38.9114 43.705 35.82 42.2701 33.3269ZM24.9488 18.8671C27.7161 18.8671 29.9709 16.6732 29.9709 13.9807C29.9709 11.2881 27.7161 8.99451 24.9488 8.99451C22.079 8.99451 19.8241 11.2881 19.8241 13.9807C19.8241 16.6732 22.079 18.8671 24.9488 18.8671ZM12.1372 31.133C9.36984 31.133 7.11499 33.3269 7.11499 36.0194C7.11499 38.712 9.36984 40.9059 12.1372 40.9059C14.9045 40.9059 17.1593 38.712 17.1593 36.0194C17.1593 33.3269 14.9045 31.133 12.1372 31.133Z" fill="#081219"/>
</svg>
