<svg width="50" height="50" viewBox="0 0 50 50" fill="none" xmlns="http://www.w3.org/2000/svg">
<path fill-rule="evenodd" clip-rule="evenodd" d="M37.6149 19.7645C36.518 19.7645 35.421 19.7645 34.4238 19.7645C31.0332 19.8642 28.3407 22.7562 28.3407 26.0471V42.8005H29.1385V33.9252C29.1385 29.8365 32.5291 26.446 36.6177 26.446H37.6149C39.41 26.446 41.0055 24.9501 41.0055 23.0554C41.0055 21.1606 39.5097 19.7645 37.6149 19.7645Z" fill="#081219"/>
<path fill-rule="evenodd" clip-rule="evenodd" d="M34.5236 16.7729H35.7203C38.3131 16.7729 40.507 14.579 40.507 11.9862C40.507 9.39337 38.3131 7.19946 35.7203 7.19946C34.4239 7.19946 34.1247 7.19946 32.8283 7.19946C28.3408 7.39891 24.7507 11.0887 24.7507 15.5762V16.7729V42.8006H26.0471V25.1496C26.0471 20.5623 29.8366 16.7729 34.5236 16.7729Z" fill="#081219"/>
<path fill-rule="evenodd" clip-rule="evenodd" d="M14.3795 32.6288C13.482 32.6288 12.5845 32.6288 11.687 32.6288C10.1912 32.6288 8.99451 33.9252 8.99451 35.421C8.99451 36.9169 10.1912 38.2133 11.7868 38.2133H12.5845C15.9751 38.2133 18.7674 39.4099 18.7674 42.8005H19.4654V37.8144C19.3657 35.1219 17.1718 32.7285 14.3795 32.6288Z" fill="#081219"/>
<path fill-rule="evenodd" clip-rule="evenodd" d="M16.2743 21.4598C15.1773 21.4598 14.0804 21.4598 12.9834 21.4598C10.7895 21.4598 8.99451 23.2549 8.99451 25.4488C8.99451 27.6427 10.7895 29.4377 12.9834 29.4377H14.6787C18.4682 29.4377 21.5596 32.5291 21.5596 36.3186V42.8006H22.9557V29.338V28.3407C22.9557 24.651 19.964 21.6593 16.2743 21.4598Z" fill="#081219"/>
</svg>
