<svg width="50" height="50" viewBox="0 0 50 50" fill="none" xmlns="http://www.w3.org/2000/svg">
<path d="M9.57473 30.9958C12.4445 37.4529 19.1066 41.6551 25.7686 41.6551C27.101 41.6551 28.4335 41.4501 29.7659 41.1426C32.4307 40.4252 34.6855 38.8878 36.3254 36.7354L39.1952 32.9432C39.7077 32.2257 40.2202 31.5083 40.6301 30.6883C42.27 27.2036 42.27 22.8989 40.5276 19.0041C37.0429 11.2146 28.0235 6.70495 20.3365 8.8573C17.5692 9.67725 15.3143 11.2146 13.6745 13.2645L10.8047 17.0567C7.83235 20.849 7.42238 26.0761 9.57473 30.9958ZM38.6828 29.7659C38.3753 30.4833 37.9653 31.0983 37.5553 31.6108C37.3504 31.8158 37.1454 32.1232 36.9404 32.3282C36.8379 32.4307 36.8379 32.4307 36.7354 32.5332C36.5304 32.7382 36.4279 32.8407 36.2229 33.0457C36.1204 33.1482 36.1204 33.1482 36.0179 33.2507C35.813 33.4556 35.5055 33.6606 35.198 33.8656C34.8905 34.0706 34.583 34.1731 34.3781 34.3781C34.2756 34.3781 34.1731 34.4806 34.0706 34.4806C33.8656 34.5831 33.6606 34.6856 33.3531 34.7881C33.2506 34.7881 33.1481 34.8905 33.0456 34.8905C32.7382 34.993 32.4307 35.0955 32.0207 35.198C31.6107 35.3005 31.3033 35.403 30.8933 35.403C29.9709 35.608 29.0484 35.608 28.126 35.608C22.8988 35.403 17.6717 32.3282 14.9044 27.4086C14.6994 26.9986 14.4944 26.5886 14.2894 26.1786C14.0844 25.6662 13.8794 25.1537 13.7769 24.7437C13.7769 24.6412 13.6745 24.4363 13.6745 24.3338C13.572 23.9238 13.4695 23.6163 13.367 23.2063C13.367 23.1038 13.367 22.8989 13.2645 22.7964C13.162 22.3864 13.162 22.0789 13.162 21.6689C13.162 21.5664 13.162 21.464 13.162 21.3615C13.162 20.9515 13.162 20.439 13.162 20.029V19.9266C13.162 19.4141 13.2645 19.0041 13.367 18.4917C13.367 18.3892 13.4695 18.1842 13.4695 18.0817C13.572 17.7742 13.6745 17.4667 13.7769 17.1592C13.8794 16.9543 13.8794 16.7493 13.9819 16.6468C14.0844 16.3393 14.1869 16.1343 14.3919 15.8268C14.4944 15.9293 14.5969 15.7243 14.5969 15.6218C14.8019 15.2119 15.0069 14.9044 15.3143 14.4944C16.6468 12.752 18.5941 11.4196 20.849 10.8047C21.9764 10.4972 23.1038 10.2922 24.3337 10.2922C30.0733 10.2922 36.0179 14.0844 38.5803 19.7216C40.1177 23.3088 40.1177 26.7936 38.6828 29.7659ZM11.1121 20.439C11.1121 20.644 11.1121 20.849 11.1121 21.054C11.1121 21.1565 11.1121 21.259 11.1121 21.3615C11.1121 21.7714 11.1121 22.1814 11.2146 22.4889C11.2146 22.5914 11.2146 22.7964 11.3171 22.8989C11.3171 23.3088 11.4196 23.6163 11.5221 24.0263C11.5221 24.2313 11.6246 24.4363 11.7271 24.7437C11.8296 25.0512 11.8296 25.3587 11.9321 25.5637C12.1371 26.0761 12.342 26.5886 12.547 27.1011C12.752 27.511 12.957 28.0235 13.162 28.4335C13.2645 28.536 13.367 28.741 13.367 28.8435C13.572 29.1509 13.6745 29.4584 13.8794 29.6634C13.9819 29.7659 14.0844 29.9709 14.1869 30.0734C14.3919 30.2784 14.5969 30.5858 14.6994 30.7908C14.8019 30.8933 14.9044 31.0983 15.0069 31.2008C15.3143 31.6108 15.5193 31.8158 15.7243 32.1232C15.8268 32.2257 15.9293 32.3282 16.0318 32.4307C16.3393 32.7382 16.7492 33.0457 17.0567 33.3532C17.1592 33.3532 17.1592 33.4556 17.2617 33.4556C17.5692 33.7631 17.8767 33.9681 18.1842 34.1731C18.2866 34.2756 18.4916 34.3781 18.5941 34.4806C18.7991 34.6856 19.1066 34.7881 19.3116 34.993C19.5166 35.0955 19.6191 35.198 19.824 35.3005C20.029 35.403 20.3365 35.608 20.5415 35.7105C20.7465 35.813 20.849 35.9155 21.054 36.018C21.3614 36.1205 21.5664 36.223 21.8739 36.4279C22.0789 36.5304 22.1814 36.5304 22.3864 36.6329C22.7963 36.8379 23.2063 36.9404 23.7188 37.0429C23.8213 37.0429 23.9238 37.1454 24.0263 37.1454C24.3337 37.2479 24.7437 37.3504 25.0512 37.4529C25.2562 37.4529 25.3587 37.5554 25.5637 37.5554C25.8711 37.6579 26.1786 37.6579 26.3836 37.6579C26.5886 37.6579 26.7936 37.6579 26.8961 37.7604C27.2035 37.7604 27.511 37.7604 27.716 37.8628C27.921 37.8628 28.0235 37.8628 28.2285 37.8628C28.331 37.8628 28.4335 37.8628 28.4335 37.8628C28.7409 37.8628 29.1509 37.8628 29.4584 37.8628H29.5609C29.9709 37.8628 30.3808 37.7604 30.7908 37.7604C30.8933 37.7604 30.9958 37.7604 31.0983 37.6579C31.5083 37.5554 31.9182 37.4529 32.4307 37.3504C32.5332 37.3504 32.6357 37.2479 32.7382 37.2479C31.6107 38.0678 30.3808 38.7853 28.9459 39.1953C22.1814 41.1426 14.2894 37.0429 11.3171 30.1759C9.98471 26.7936 9.88221 23.4113 11.1121 20.439Z" fill="#081219"/>
</svg>
