<svg width="50" height="50" viewBox="0 0 50 50" fill="none" xmlns="http://www.w3.org/2000/svg">
<path d="M35.2215 29.4585C32.3296 31.9183 28.6398 33.2507 24.7506 33.2507C20.4625 33.2507 16.3739 31.4058 13.3822 28.2285C10.3905 25.0513 8.69521 21.259 8.79494 16.8518H15.6758C15.6758 19.4141 16.5733 21.5665 18.3683 23.4114C20.1634 25.2562 22.457 26.2812 24.9501 26.2812C27.4431 26.2812 29.8365 25.3587 31.5318 23.5139C33.3268 21.7715 34.324 19.4141 34.324 16.8518H41.2049C41.2049 21.259 39.4099 25.4612 36.3185 28.536C35.9196 28.8435 35.6204 29.151 35.2215 29.4585Z" fill="#081219"/>
</svg>
