<svg width="50" height="50" viewBox="0 0 50 50" fill="none" xmlns="http://www.w3.org/2000/svg">
<path d="M26.0454 40.2576H32.7792L29.3559 34.6233L26.0454 40.2576ZM27.5418 39.3601L29.3559 36.3186L31.1701 39.3601H27.5521H27.5418Z" fill="black"/>
<path d="M26.0454 31.8809H32.7792L29.3559 26.2466L26.0454 31.8809ZM27.5418 30.9834L29.3559 27.9419L31.1701 30.9834H27.5521H27.5418Z" fill="black"/>
<path d="M26.0454 23.5041H32.7792L29.3559 17.8698L26.0454 23.5041ZM27.5418 22.6066L29.3559 19.565L31.1701 22.6066H27.5521H27.5418Z" fill="black"/>
<path d="M26.0454 15.1274H32.7792L29.3559 9.49304L26.0454 15.1274ZM27.5418 14.2299L29.3559 11.1883L31.1701 14.2299H27.5521H27.5418Z" fill="black"/>
<path d="M34.8599 40.2576H41.5937L38.1704 34.6233L34.8599 40.2576ZM36.3563 39.3601L38.1704 36.3186L39.9845 39.3601H36.3665H36.3563Z" fill="black"/>
<path d="M34.8599 31.8809H41.5937L38.1704 26.2466L34.8599 31.8809ZM36.3563 30.9834L38.1704 27.9419L39.9845 30.9834H36.3665H36.3563Z" fill="black"/>
<path d="M34.8599 23.5041H41.5937L38.1704 17.8698L34.8599 23.5041ZM36.3563 22.6066L38.1704 19.565L39.9845 22.6066H36.3665H36.3563Z" fill="black"/>
<path d="M38.1704 9.49304L34.8599 15.1274H41.5937L38.1704 9.49304ZM36.3563 14.2299L38.1704 11.1883L39.9845 14.2299H36.3665H36.3563Z" fill="black"/>
<path d="M17.3335 40.2576H24.0673L20.644 34.6233L17.3335 40.2576ZM18.8299 39.3601L20.644 36.3186L22.4581 39.3601H18.8401H18.8299Z" fill="black"/>
<path d="M17.3335 31.8809H24.0673L20.644 26.2466L17.3335 31.8809ZM18.8299 30.9834L20.644 27.9419L22.4581 30.9834H18.8401H18.8299Z" fill="black"/>
<path d="M17.3335 23.5041H24.0673L20.644 17.8698L17.3335 23.5041ZM18.8299 22.6066L20.644 19.565L22.4581 22.6066H18.8401H18.8299Z" fill="black"/>
<path d="M17.3335 15.1274H24.0673L20.644 9.49304L17.3335 15.1274ZM18.8299 14.2299L20.644 11.1883L22.4581 14.2299H18.8401H18.8299Z" fill="black"/>
<path d="M8.51917 40.2576H15.1402L11.8297 34.6233L8.51917 40.2576ZM10.0156 39.3601L11.8297 36.3186L13.6438 39.3601H10.0258H10.0156Z" fill="black"/>
<path d="M8.51917 31.8809H15.1402L11.8297 26.2466L8.51917 31.8809ZM10.0156 30.9834L11.8297 27.9419L13.6438 30.9834H10.0258H10.0156Z" fill="black"/>
<path d="M8.51917 23.5041H15.1402L11.8297 17.8698L8.51917 23.5041ZM10.0156 22.6066L11.8297 19.565L13.6438 22.6066H10.0258H10.0156Z" fill="black"/>
<path d="M8.40637 15.1274H15.1402L11.8296 9.49304L8.40637 15.1274ZM10.0155 14.2299L11.8296 11.1883L13.6438 14.2299H10.0258H10.0155Z" fill="black"/>
</svg>
