<svg width="50" height="50" viewBox="0 0 50 50" fill="none" xmlns="http://www.w3.org/2000/svg">
<path d="M41.0055 20.5624C40.4072 20.5624 39.7091 21.061 39.011 21.7591C38.9113 21.061 38.5124 20.5624 37.9141 20.5624C37.3158 20.5624 36.6177 21.061 35.9196 21.7591C35.8199 21.061 35.421 20.5624 34.8227 20.5624C34.2243 20.5624 33.5263 21.061 32.8282 21.7591C32.7285 21.061 32.3296 20.5624 31.7313 20.5624C31.1329 20.5624 30.4349 21.061 29.7368 21.7591C29.6371 21.061 29.2382 20.5624 28.6399 20.5624C28.0415 20.5624 27.3435 21.061 26.6454 21.7591C26.5457 21.061 26.1468 20.5624 25.5484 20.5624C24.9501 20.5624 24.252 21.061 23.554 21.7591C23.4543 21.061 23.0554 20.5624 22.457 20.5624C21.8587 20.5624 21.1606 21.061 20.4626 21.7591C20.3628 21.061 19.964 20.5624 19.3656 20.5624C18.7673 20.5624 18.0692 21.061 17.3712 21.7591C17.2714 21.061 16.8725 20.5624 16.2742 20.5624C15.6759 20.5624 14.9778 21.061 14.2797 21.7591C14.18 21.061 13.7811 20.5624 13.1828 20.5624C11.8864 20.5624 10.0914 22.5568 9.19387 24.9502C8.29636 27.3435 8.59553 29.338 9.89193 29.338C11.1883 29.338 11.1883 28.8394 11.8864 28.1413C11.9861 28.8394 12.385 29.338 12.9833 29.338C13.5817 29.338 14.2797 28.8394 14.9778 28.1413C15.0775 28.8394 15.4764 29.338 16.0748 29.338C16.6731 29.338 17.3712 28.8394 18.0692 28.1413C18.1689 28.8394 18.5678 29.338 19.1662 29.338C19.7645 29.338 20.4626 28.8394 21.1606 28.1413C21.2604 28.8394 21.6592 29.338 22.2576 29.338C22.8559 29.338 23.554 28.8394 24.252 28.1413C24.3518 28.8394 24.7507 29.338 25.349 29.338C25.9473 29.338 26.6454 28.8394 27.3435 28.1413C27.4432 28.8394 27.8421 29.338 28.4404 29.338C29.0387 29.338 29.7368 28.8394 30.4349 28.1413C30.5346 28.8394 30.9335 29.338 31.5318 29.338C32.1302 29.338 32.8282 28.8394 33.5263 28.1413C33.626 28.8394 34.0249 29.338 34.6232 29.338C35.2216 29.338 35.9196 28.8394 36.6177 28.1413C36.7174 28.8394 37.1163 29.338 37.7146 29.338C39.011 29.338 40.8061 27.3435 41.7036 24.9502C42.6011 22.5568 42.3019 20.5624 41.0055 20.5624Z" fill="#081219"/>
</svg>
