<svg width="50" height="50" viewBox="0 0 50 50" fill="none" xmlns="http://www.w3.org/2000/svg">
<path d="M41.309 21.8283L36.0541 16.5734L41.309 11.3185C42.0346 10.5929 42.0346 9.41659 41.309 8.691C40.5834 7.96542 39.4071 7.96552 38.6815 8.691L33.4266 13.9459L28.1717 8.691C27.4461 7.96552 26.2698 7.96552 25.5442 8.691C25.1814 9.05379 25 9.52927 25 10.0048C25 10.4802 25.1814 10.9557 25.5442 11.3185L30.7991 16.5734L25.5442 21.8283C25.1814 22.1911 25 22.6666 25 23.1421C25 23.6175 25.1814 24.093 25.5442 24.4558C25.907 24.8186 26.3825 25 26.8579 25C27.3334 25 27.8089 24.8186 28.1717 24.4558L33.4266 19.2009L38.6815 24.4558C39.0443 24.8186 39.5198 25 39.9952 25C40.4707 25 40.9462 24.8186 41.309 24.4558C42.0346 23.7303 42.0346 22.5539 41.309 21.8283Z" fill="#081219"/>
<path d="M16.5733 19.2008L21.8282 24.4557C22.191 24.8185 22.6665 24.9999 23.142 24.9999C23.6175 24.9999 24.093 24.8185 24.4557 24.4557C24.8185 24.093 24.9999 23.6175 24.9999 23.142C24.9999 22.6665 24.8185 22.191 24.4557 21.8282L19.2008 16.5733L24.4557 11.3184C24.8185 10.9557 24.9999 10.4802 24.9999 10.0047C24.9999 9.52921 24.8185 9.05373 24.4557 8.69094C23.7302 7.96546 22.5538 7.96546 21.8282 8.69094L16.5733 13.9458L11.3183 8.69084C10.5928 7.96536 9.41643 7.96536 8.69084 8.69084C7.96536 9.41643 7.96536 10.5928 8.69084 11.3183L13.9457 16.5732L8.69094 21.8282C7.96546 22.5538 7.96546 23.7302 8.69094 24.4557C9.05373 24.8185 9.52921 24.9999 10.0047 24.9999C10.4802 24.9999 10.9557 24.8185 11.3184 24.4557L16.5733 19.2008Z" fill="#081219"/>
<path d="M33.4266 30.7991L28.1717 25.5442C27.8089 25.1814 27.3334 25 26.8579 25C26.3825 25 25.907 25.1814 25.5442 25.5442C25.1814 25.907 25 26.3825 25 26.8579C25 27.3334 25.1814 27.8089 25.5442 28.1717L30.7991 33.4266L25.5442 38.6816C25.1814 39.0444 25 39.5199 25 39.9953C25 40.4708 25.1814 40.9463 25.5442 41.3091C26.2697 42.0347 27.4461 42.0347 28.1717 41.3091L33.4266 36.0542L38.6815 41.3091C39.4071 42.0347 40.5834 42.0347 41.309 41.3091C42.0346 40.5835 42.0346 39.4072 41.309 38.6816L36.0541 33.4266L41.309 28.1717C42.0346 27.4462 42.0346 26.2698 41.309 25.5442C40.9462 25.1814 40.4707 25 39.9952 25C39.5198 25 39.0443 25.1814 38.6815 25.5442L33.4266 30.7991Z" fill="#081219"/>
<path d="M19.2008 33.4266L24.4557 28.1717C24.8185 27.8089 24.9999 27.3334 24.9999 26.8579C24.9999 26.3825 24.8185 25.907 24.4557 25.5442C24.093 25.1814 23.6175 25 23.142 25C22.6665 25 22.191 25.1814 21.8282 25.5442L16.5733 30.7991L11.3183 25.5442C10.9556 25.1814 10.4801 25 10.0046 25C9.52911 25 9.05363 25.1814 8.69084 25.5442C7.96536 26.2698 7.96536 27.4461 8.69084 28.1717L13.9458 33.4266L8.69084 38.6816C7.96536 39.4071 7.96536 40.5835 8.69084 41.3091C9.41643 42.0347 10.5928 42.0347 11.3183 41.3091L16.5733 36.0541L21.8282 41.3091C22.5537 42.0347 23.7302 42.0347 24.4557 41.3091C24.8185 40.9463 24.9999 40.4708 24.9999 39.9953C24.9999 39.5199 24.8185 39.0444 24.4557 38.6816L19.2008 33.4266Z" fill="#081219"/>
</svg>
