<svg width="50" height="50" viewBox="0 0 50 50" fill="none" xmlns="http://www.w3.org/2000/svg">
<path d="M35.663 35.0285C36.8654 35.0285 37.9644 34.1199 38.8113 32.619C39.2442 34.1199 39.8058 35.0285 40.4203 35.0285C41.7876 35.0285 42.8962 30.5386 42.8962 25C42.8962 19.4614 41.7877 14.9714 40.4203 14.9714C39.8058 14.9714 39.2442 15.88 38.8113 17.3808C37.9644 15.88 36.8654 14.9714 35.663 14.9714C34.6194 14.9714 33.6536 15.6569 32.8629 16.8188C31.6049 15.6568 30.0686 14.9714 28.4084 14.9714C26.5473 14.9714 24.8403 15.8299 23.5084 17.2591C21.7753 15.83 19.5542 14.9714 17.1324 14.9714C11.5937 14.9714 7.10376 19.4614 7.10376 25C7.10376 30.5386 11.5936 35.0285 17.1323 35.0285C19.5542 35.0285 21.7752 34.17 23.5083 32.7409C24.8402 34.17 26.5472 35.0285 28.4083 35.0285C30.0685 35.0285 31.6048 34.3431 32.8628 33.1812C33.6536 34.3431 34.6194 35.0285 35.663 35.0285Z" fill="#081219"/>
</svg>
