<svg width="50" height="50" viewBox="0 0 50 50" fill="none" xmlns="http://www.w3.org/2000/svg">
<path d="M25.5485 40.5069H32.928L29.2382 34.1246L25.5485 40.5069Z" fill="#081219"/>
<path d="M25.5485 32.1302H32.928L29.2382 25.7479L25.5485 32.1302Z" fill="#081219"/>
<path d="M25.5485 23.7535H32.928L29.2382 17.3712L25.5485 23.7535Z" fill="#081219"/>
<path d="M25.5485 15.3768H32.928L29.2382 8.99451L25.5485 15.3768Z" fill="#081219"/>
<path d="M34.1246 40.5069H41.5041L37.8144 34.1246L34.1246 40.5069Z" fill="#081219"/>
<path d="M34.1246 32.1302H41.5041L37.8144 25.7479L34.1246 32.1302Z" fill="#081219"/>
<path d="M34.1246 23.7535H41.5041L37.8144 17.3712L34.1246 23.7535Z" fill="#081219"/>
<path d="M37.8144 8.99451L34.1246 15.3768H41.5041L37.8144 8.99451Z" fill="#081219"/>
<path d="M17.072 40.5069H24.4515L20.7618 34.1246L17.072 40.5069Z" fill="#081219"/>
<path d="M17.072 32.1302H24.4515L20.7618 25.7479L17.072 32.1302Z" fill="#081219"/>
<path d="M17.072 23.7535H24.4515L20.7618 17.3712L17.072 23.7535Z" fill="#081219"/>
<path d="M17.072 15.3768H24.4515L20.7618 8.99451L17.072 15.3768Z" fill="#081219"/>
<path d="M8.49585 40.5069H15.8754L12.1856 34.1246L8.49585 40.5069Z" fill="#081219"/>
<path d="M8.49585 32.1302H15.8754L12.1856 25.7479L8.49585 32.1302Z" fill="#081219"/>
<path d="M8.49585 23.7535H15.8754L12.1856 17.3712L8.49585 23.7535Z" fill="#081219"/>
<path d="M8.49585 15.3768H15.8754L12.1856 8.99451L8.49585 15.3768Z" fill="#081219"/>
</svg>
