<svg width="50" height="50" viewBox="0 0 50 50" fill="none" xmlns="http://www.w3.org/2000/svg">
<path d="M25.0512 7.19946C14.9044 7.19946 6.70496 15.1773 6.70496 24.9502C6.70496 34.723 14.9044 42.7008 24.9487 42.7008C34.993 42.7008 43.1925 34.723 43.1925 24.9502C43.295 15.1773 35.0955 7.19946 25.0512 7.19946ZM25.0512 38.0139C17.6717 38.0139 11.7271 32.2299 11.7271 25.0499C11.7271 17.8698 17.6717 12.0859 25.0512 12.0859C32.4307 12.0859 38.3753 17.8698 38.3753 25.0499C38.3753 32.1302 32.3282 38.0139 25.0512 38.0139Z" fill="#081219"/>
<path d="M32.5333 26.446C31.2009 26.446 29.9709 26.3462 28.8435 26.0471C25.8712 25.4487 24.9488 24.8504 28.4335 23.9529C29.356 23.7534 30.3809 23.554 31.4058 23.554C32.6358 23.554 33.5582 23.3546 34.2757 22.8559C34.8906 22.457 35.3006 21.759 35.3006 20.9612C35.3006 20.1634 34.9931 19.4654 34.4806 18.867C33.8657 18.2687 33.2507 17.9695 32.5333 17.9695C31.6108 17.9695 30.5859 18.7673 29.4585 20.3629C29.356 20.4626 29.356 20.5623 29.2535 20.662C28.6385 21.5595 28.0236 22.2576 27.5111 22.8559C24.0263 26.2465 26.0762 21.0609 26.7937 19.5651C27.6136 17.8698 28.0236 16.8726 28.0236 16.4737C28.0236 15.6759 27.8186 15.0775 27.3061 14.6787C26.7937 14.18 26.0762 13.9806 25.2563 13.9806C24.4363 13.9806 23.7189 14.18 23.2064 14.6787C22.6939 15.1773 22.3865 15.7756 22.3865 16.5734C22.3865 16.9723 22.7964 17.8698 23.6164 19.5651C24.3338 21.0609 26.3837 26.1468 22.8989 22.8559C22.284 22.2576 21.669 21.5595 21.1565 20.662C21.054 20.5623 20.9516 20.3629 20.8491 20.1634C19.8241 18.6676 18.9017 17.9695 17.7743 17.9695C17.0568 17.9695 16.4419 18.2687 15.9294 18.867C15.4169 19.4654 15.1095 20.1634 15.1095 20.8615C15.1095 21.5595 15.4169 22.1579 15.9294 22.6565C16.4419 23.1551 17.0568 23.4543 17.7743 23.4543C19.1067 23.4543 20.3366 23.554 21.464 23.8532C24.3338 24.4515 25.4613 25.0498 21.874 25.9474C20.9516 26.1468 19.9266 26.2465 18.9017 26.2465C17.6718 26.2465 16.7493 26.446 16.0319 26.9446C15.4169 27.4432 15.007 28.0415 15.007 28.939C15.007 29.7368 15.3144 30.3352 15.8269 31.0332C16.4419 31.6316 17.0568 31.9307 17.7743 31.9307C18.6967 31.9307 19.7216 31.1329 20.7466 29.5374C20.8491 29.4377 20.9516 29.2382 20.9516 29.2382C21.5665 28.3407 22.079 27.6426 22.6939 27.0443C26.1787 23.7534 24.2313 28.7396 23.4114 30.3352C22.5914 31.9307 22.1815 33.0277 22.1815 33.3269C22.1815 34.1246 22.3865 34.723 22.8989 35.1219C23.4114 35.5208 24.1288 35.8199 24.9488 35.8199C25.7687 35.8199 26.4862 35.6205 26.9986 35.1219C27.5111 34.6233 27.8186 34.0249 27.8186 33.2271C27.8186 32.8282 27.4086 31.831 26.5887 30.2354C25.7687 28.6399 23.7189 23.6537 27.3061 26.9446C27.9211 27.5429 28.536 28.241 29.0485 29.0388C29.151 29.1385 29.2535 29.3379 29.356 29.5374C30.3809 31.0332 31.3034 31.7313 32.3283 31.7313C33.0457 31.7313 33.6607 31.4321 34.1732 30.8338C34.6856 30.2354 34.9931 29.5374 34.9931 28.8393C34.9931 28.1413 34.6856 27.5429 34.1732 27.0443C33.8657 26.7451 33.2507 26.446 32.5333 26.446Z" fill="#081219"/>
</svg>
