<svg width="50" height="50" viewBox="0 0 50 50" fill="none" xmlns="http://www.w3.org/2000/svg">
<path d="M29.561 11.9862C28.0236 9.39339 24.3338 8.69533 21.874 10.7895C20.0291 12.3851 19.7216 15.0776 20.9515 17.0721L27.9211 28.8394C29.151 30.9336 31.7133 32.0305 33.9682 31.2327C37.0429 30.2355 38.2729 26.7452 36.7355 24.1524L29.561 11.9862ZM24.2313 24.1524L17.1593 12.1856C15.8269 9.99173 12.9571 8.89478 10.5997 9.99173C7.83242 11.1884 6.80749 14.3795 8.34488 16.8726L15.4169 28.8394C16.7493 31.0333 19.6191 32.1302 21.9765 31.0333C24.6413 29.8366 25.6662 26.6455 24.2313 24.1524ZM25.0513 30.9336C22.3864 30.9336 20.1316 33.0277 20.1316 35.7203C20.1316 38.4128 22.2839 40.507 25.0513 40.507C27.7161 40.507 29.9709 38.4128 29.9709 35.7203C29.9709 33.0277 27.8186 30.9336 25.0513 30.9336ZM37.4529 9.59284C34.7881 9.59284 32.5333 11.687 32.5333 14.3795C32.5333 17.0721 34.6856 19.1662 37.4529 19.1662C40.1177 19.1662 42.3726 17.0721 42.3726 14.3795C42.3726 11.687 40.2202 9.59284 37.4529 9.59284Z" fill="#081219"/>
</svg>
