<svg width="50" height="50" viewBox="0 0 50 50" fill="none" xmlns="http://www.w3.org/2000/svg">
<path d="M37.508 24.8293C39.2278 23.6624 40.2392 22.2446 40.2392 20.7144C40.2392 18.2193 37.5577 16.0207 33.4839 14.7271C36.3989 13.9578 38.2548 12.8002 38.2548 11.5051C38.2548 9.1887 32.3204 7.31091 25 7.31091C17.6795 7.31091 11.7452 9.1887 11.7452 11.5051C11.7452 12.8002 13.601 13.9578 16.516 14.7271C12.4423 16.0207 9.76081 18.2193 9.76081 20.7144C9.76081 22.2446 10.7723 23.6624 12.492 24.8293C9.61262 26.7264 7.84583 29.2766 7.84583 32.0835C7.84583 37.9408 15.5261 42.6891 25.0001 42.6891C34.4741 42.6891 42.1543 37.9408 42.1543 32.0835C42.1543 29.2766 40.3875 26.7264 37.508 24.8293Z" fill="#081219"/>
</svg>
