<svg width="50" height="50" viewBox="0 0 50 50" fill="none" xmlns="http://www.w3.org/2000/svg">
<path d="M25 19.5563C32.4704 22.1067 40.2791 17.0304 42.441 8.21804C34.9706 5.66771 27.1621 10.7441 25 19.5563C22.838 10.7441 15.0294 5.66771 7.55896 8.21804C9.72095 17.0304 17.5296 22.1067 25 19.5563Z" fill="#081219"/>
<path d="M7.55896 19.331C9.72095 28.1432 17.5295 33.2195 24.9999 30.6692C22.838 21.8569 15.0294 16.7806 7.55896 19.331Z" fill="#081219"/>
<path d="M25 30.6692C32.4704 33.2195 40.2791 28.1432 42.441 19.331C34.9706 16.7806 27.1621 21.8569 25 30.6692Z" fill="#081219"/>
<path d="M7.55896 30.4438C9.72095 39.256 17.5295 44.3323 24.9999 41.7819C22.8379 32.9697 15.0294 27.8934 7.55896 30.4438Z" fill="#081219"/>
<path d="M25 41.7819C32.4704 44.3323 40.2791 39.256 42.441 30.4438C34.9706 27.8934 27.1621 32.9697 25 41.7819Z" fill="#081219"/>
</svg>
