<svg width="50" height="50" viewBox="0 0 50 50" fill="none" xmlns="http://www.w3.org/2000/svg">
<path fill-rule="evenodd" clip-rule="evenodd" d="M38.5124 25.4487C37.7146 25.4487 37.0166 25.6482 36.3185 26.0471C37.9141 24.5512 38.2133 22.0581 36.9169 20.2631C35.5207 18.2687 32.7285 17.8698 30.734 19.2659C30.1357 19.7645 29.6371 20.3629 29.3379 21.0609C29.7368 18.867 28.5401 16.6731 26.3462 15.975C24.0526 15.1773 21.5595 16.4737 20.7617 18.7673C20.5623 19.4653 20.4626 20.2631 20.662 20.9612C19.7645 18.9667 17.4709 17.9695 15.277 18.6676C12.9833 19.4653 11.6869 21.9584 12.4847 24.252C12.6842 25.0498 13.1828 25.6482 13.6814 26.1468C11.7867 25.0498 9.29359 25.5484 7.99719 27.4432C6.60106 29.4376 6.99996 32.2299 8.99442 33.626C9.7922 34.2244 10.6897 34.5235 11.5872 34.4238L25.0498 34.3241H38.5124C40.9058 34.3241 42.9002 32.3296 42.9002 29.9363C42.9002 27.5429 40.9058 25.4487 38.5124 25.4487Z" fill="#081219"/>
</svg>
