<svg width="50" height="50" viewBox="0 0 50 50" fill="none" xmlns="http://www.w3.org/2000/svg">
<path d="M13.167 30.7236L7.24377 36.4823L13.167 42.241L19.0903 36.4823L13.167 30.7236Z" fill="#081219"/>
<path d="M25.0238 30.7L19.1006 36.4587L25.0238 42.2174L30.9471 36.4587L25.0238 30.7Z" fill="#081219"/>
<path d="M36.8103 30.7451L30.8871 36.5038L36.8103 42.2625L42.7336 36.5038L36.8103 30.7451Z" fill="#081219"/>
<path d="M13.2134 19.2646L7.29016 25.0233L13.2134 30.782L19.1366 25.0233L13.2134 19.2646Z" fill="#081219"/>
<path d="M25.0702 19.241L19.147 24.9998L25.0702 30.7585L30.9935 24.9998L25.0702 19.241Z" fill="#081219"/>
<path d="M36.8566 19.2861L30.9333 25.0448L36.8566 30.8035L42.7798 25.0448L36.8566 19.2861Z" fill="#081219"/>
<path d="M13.1892 7.73714L7.26599 13.4958L13.1892 19.2546L19.1125 13.4958L13.1892 7.73714Z" fill="#081219"/>
<path d="M25.046 7.7137L19.1228 13.4724L25.046 19.2311L30.9693 13.4724L25.046 7.7137Z" fill="#081219"/>
<path d="M36.8324 7.75875L30.9092 13.5175L36.8324 19.2762L42.7557 13.5175L36.8324 7.75875Z" fill="#081219"/>
</svg>
