<svg width="50" height="50" viewBox="0 0 50 50" fill="none" xmlns="http://www.w3.org/2000/svg">
<path d="M21.0356 37.5251C24.9002 36.7854 28.1352 34.2952 29.91 30.9177V35.5502C29.91 36.8203 31.0748 37.7639 32.3221 37.5251C38.212 36.3975 42.6629 31.2185 42.6629 25C42.6629 18.7815 38.2119 13.6024 32.3221 12.4748C31.0748 12.236 29.91 13.1797 29.91 14.4497V19.0822C28.1351 15.7047 24.9001 13.2145 21.0356 12.4747C19.7882 12.2359 18.6235 13.1796 18.6235 14.4496V19.0821C16.8486 15.7046 13.6136 13.2144 9.74901 12.4746C8.50168 12.2358 7.33691 13.1795 7.33691 14.4495V35.55C7.33691 36.8201 8.50168 37.7637 9.74901 37.5249C13.6137 36.7852 16.8487 34.295 18.6235 30.9175V35.55C18.6235 36.8201 19.7882 37.7639 21.0356 37.5251Z" fill="#081219"/>
</svg>
