<svg width="50" height="50" viewBox="0 0 50 50" fill="none" xmlns="http://www.w3.org/2000/svg">
<path d="M38.813 17.1381C37.6889 17.9488 36.7486 18.9961 36.0577 20.2042C35.367 18.996 34.4266 17.9487 33.3026 17.1381C32.1785 17.9488 31.2382 18.9961 30.5473 20.2042C29.8565 18.996 28.9162 17.9487 27.7921 17.1381C26.6442 17.9659 25.6945 19.0449 25.0001 20.2858C24.3056 19.0449 23.3558 17.9659 22.208 17.1381C21.0839 17.9488 20.1436 18.9961 19.4528 20.2042C18.762 18.996 17.8216 17.9487 16.6976 17.1381C15.5735 17.9488 14.6332 18.9961 13.9424 20.2042C13.2515 18.996 12.3112 17.9487 11.1871 17.1381C8.7474 18.8976 7.15771 21.7624 7.15771 24.9999C7.15771 28.2374 8.7474 31.1023 11.1871 32.8617C12.3111 32.0512 13.2515 31.0039 13.9424 29.7957C14.6332 31.0039 15.5735 32.0512 16.6976 32.8617C17.8217 32.0512 18.762 31.0039 19.4529 29.7957C20.1437 31.0039 21.084 32.0512 22.2081 32.8617C23.356 32.034 24.3057 30.9549 25.0002 29.7141C25.6946 30.9549 26.6444 32.034 27.7922 32.8617C28.9162 32.0512 29.8566 31.0039 30.5474 29.7957C31.2383 31.0039 32.1786 32.0512 33.3027 32.8617C34.4268 32.0512 35.3671 31.0039 36.0579 29.7957C36.7488 31.0039 37.6891 32.0512 38.8132 32.8617C41.2529 31.1023 42.8426 28.2376 42.8426 24.9999C42.8426 21.7622 41.2527 18.8975 38.813 17.1381Z" fill="#081219"/>
</svg>
