<svg width="50" height="50" viewBox="0 0 50 50" fill="none" xmlns="http://www.w3.org/2000/svg">
<path d="M39.4924 27.5555C38.207 26.2343 36.6111 25.432 34.9465 25.1353C36.6112 24.8386 38.207 24.0362 39.4924 22.715C42.8077 19.3075 42.8077 13.7831 39.4924 10.3757C36.1771 6.96831 30.8018 6.96831 27.4866 10.3757C26.0738 11.8277 25.2688 13.6648 25.0601 15.558C25.0222 15.2203 24.9704 14.8817 24.8926 14.5426C23.8154 9.85267 19.2431 6.94832 14.6798 8.05545C10.1167 9.16258 7.29085 13.862 8.36806 18.552C9.17093 22.0473 11.9159 24.5481 15.1508 25.1384C13.4936 25.4381 11.9056 26.2399 10.6256 27.5556C7.3102 30.963 7.3102 36.4875 10.6256 39.895C13.9409 43.3025 19.3161 43.3025 22.6315 39.895C24.0461 38.4412 24.8515 36.6013 25.059 34.7056C25.2665 36.6014 26.0719 38.4413 27.4865 39.895C30.8018 43.3025 36.1771 43.3025 39.4925 39.895C42.8079 36.4875 42.8078 30.963 39.4924 27.5555ZM25.059 32.7449C24.8515 30.8491 24.0461 29.0093 22.6315 27.5555C21.344 26.2322 19.7449 25.4295 18.0772 25.134C18.245 25.1039 18.4128 25.0799 18.5808 25.0391C22.1656 24.1693 24.6685 21.0802 25.0588 17.5225C25.2657 19.4193 26.0714 21.2604 27.4867 22.7149C28.772 24.036 30.3678 24.8384 32.0324 25.1351C30.3678 25.4317 28.7719 26.2342 27.4865 27.5554C26.0719 29.0092 25.2665 30.8492 25.059 32.7449Z" fill="#081219"/>
</svg>
