<svg width="50" height="50" viewBox="0 0 50 50" fill="none" xmlns="http://www.w3.org/2000/svg">
<path d="M25.0525 7.54944H24.9476C15.5995 7.54954 8.02132 15.3382 8.02112 24.9461V42.4505H17.6469V32.5572V29.9162V24.9463C17.6469 22.942 18.4063 21.0576 19.7852 19.6403C21.1642 18.2231 22.9976 17.4426 24.9478 17.4426H25.0521C27.0023 17.4426 28.8357 18.2231 30.2147 19.6403C31.5936 21.0576 32.353 22.942 32.353 24.9463V32.5572V42.4505H41.9789V24.9458C41.9786 15.338 34.4006 7.54954 25.0525 7.54944Z" fill="#081219"/>
<path d="M24.9771 39.1035C27.7068 39.1035 29.9196 36.8292 29.9196 34.0237C29.9196 31.2183 27.7068 28.944 24.9771 28.944C22.2475 28.944 20.0347 31.2183 20.0347 34.0237C20.0347 36.8292 22.2475 39.1035 24.9771 39.1035Z" fill="#081219"/>
</svg>
