<svg width="50" height="50" viewBox="0 0 50 50" fill="none" xmlns="http://www.w3.org/2000/svg">
<path d="M43.1401 23.8447C43.1401 23.2066 42.6084 22.6894 41.9527 22.6894C42.6084 22.6894 43.1401 22.1721 43.1401 21.5341C43.1401 20.896 42.6084 20.3788 41.9527 20.3788H8.04725C7.39129 20.3788 6.85986 20.896 6.85986 21.5341C6.85986 22.1721 7.39129 22.6894 8.04725 22.6894C7.39129 22.6894 6.85986 23.2066 6.85986 23.8447C6.85986 24.4827 7.39129 24.9999 8.04725 24.9999C7.39129 24.9999 6.85986 25.5172 6.85986 26.1552C6.85986 26.7933 7.39129 27.3105 8.04725 27.3105C7.39129 27.3105 6.85986 27.8278 6.85986 28.4658C6.85986 29.1038 7.39129 29.6211 8.04725 29.6211H41.9527C42.6084 29.6211 43.1401 29.1038 43.1401 28.4658C43.1401 27.8278 42.6084 27.3105 41.9527 27.3105C42.6084 27.3105 43.1401 26.7933 43.1401 26.1552C43.1401 25.5172 42.6084 24.9999 41.9527 24.9999C42.6084 24.9999 43.1401 24.4827 43.1401 23.8447Z" fill="#081219"/>
</svg>
