<svg width="50" height="50" viewBox="0 0 50 50" fill="none" xmlns="http://www.w3.org/2000/svg">
<path d="M11.5274 43.0049L16.0266 38.5058L20.5257 43.0049L25.0001 38.5306L29.4744 43.0049L33.9735 38.5058L38.4727 43.0049L42.9911 38.4865L38.4966 33.9921L42.9911 29.4977L38.4931 25L42.9909 20.5021L38.4964 16.0077L42.9909 11.5133L38.4725 6.995L33.9733 11.4941L29.4743 6.995L25 11.4693L20.5256 6.995L16.0266 11.4941L11.5274 6.995L7.00903 11.5134L11.5035 16.0078L7.00903 20.5022L11.5068 25L7.00903 29.4978L11.5035 33.9922L7.00903 38.4866L11.5274 43.0049ZM25 20.5462L29.4537 25L25 29.4537L20.5462 25L25 20.5462ZM25 29.5418L29.4503 33.9922L25 38.4424L20.5496 33.9921L25 29.5418ZM33.9733 29.517L38.4485 33.9922L33.9733 38.4673L29.4982 33.9922L33.9733 29.517ZM33.9733 29.4785L29.4948 25L33.9733 20.5214L38.4519 25L33.9733 29.4785ZM33.9733 20.4829L29.4982 16.0077L33.9733 11.5326L38.4485 16.0077L33.9733 20.4829ZM25 20.4581L20.5496 16.0077L25 11.5575L29.4503 16.0078L25 20.4581ZM16.0266 20.4829L11.5514 16.0077L16.0266 11.5326L20.5017 16.0077L16.0266 20.4829ZM16.0266 20.5214L20.5051 25L16.0266 29.4785L11.5479 25L16.0266 20.5214ZM16.0266 29.517L20.5017 33.9922L16.0266 38.4673L11.5514 33.9922L16.0266 29.517Z" fill="#081219"/>
</svg>
