<svg width="50" height="50" viewBox="0 0 50 50" fill="none" xmlns="http://www.w3.org/2000/svg">
<path d="M28.097 28.8503C30.361 28.143 31.9151 26.6845 31.9151 25C31.9151 23.3155 30.361 21.857 28.097 21.1497C24.4574 19.9688 24.4574 16.6001 28.097 15.4192C30.361 14.7119 31.9151 13.2534 31.9151 11.5689C31.9151 9.19101 28.8192 7.26337 25.0001 7.26337C21.181 7.26337 18.0851 9.19101 18.0851 11.5689C18.0851 13.2535 19.6392 14.7119 21.9032 15.4192C25.5428 16.6001 25.5428 19.9688 21.9032 21.1497C19.6392 21.857 18.0851 23.3155 18.0851 25C18.0851 26.6845 19.6392 28.143 21.9032 28.8503C25.5428 30.0312 25.5428 33.3999 21.9032 34.5808C19.6392 35.2881 18.0851 36.7466 18.0851 38.4311C18.0851 40.809 21.1811 42.7366 25.0001 42.7366C28.8191 42.7366 31.9151 40.809 31.9151 38.4311C31.9151 36.7465 30.361 35.2881 28.097 34.5808C24.4574 33.3999 24.4574 30.0312 28.097 28.8503Z" fill="#081219"/>
</svg>
