<svg width="50" height="50" viewBox="0 0 50 50" fill="none" xmlns="http://www.w3.org/2000/svg">
<path d="M38.4771 20.9365C38.4637 17.3554 37.0653 13.9903 34.5316 11.4567C31.9857 8.91077 28.6006 7.50867 25 7.50867C21.3994 7.50867 18.0145 8.91077 15.4684 11.4567C12.9224 14.0026 11.5209 17.3862 11.5205 20.9861V42.4914H12.1663V20.9881C12.1662 13.9116 17.9235 8.15437 25.0001 8.15437C32.0766 8.15437 37.8339 13.9116 37.8339 20.9881V42.4417H38.4797V20.9365H38.4771Z" fill="#081219"/>
<path d="M33.244 12.7443C31.042 10.5423 28.1142 9.32959 25.0001 9.32959C21.8859 9.32959 18.9583 10.5423 16.7563 12.7443C14.5543 14.9463 13.3421 17.8727 13.3416 20.9861V42.4914H13.9875V20.9881C13.9875 14.9157 18.9277 9.9753 25.0002 9.9753C31.0726 9.9753 36.013 14.9157 36.013 20.9881V42.4417H36.6588V20.9364H36.6562C36.6427 17.8418 35.4336 14.934 33.244 12.7443Z" fill="#081219"/>
<path d="M31.9562 14.0319C30.0981 12.1739 27.6277 11.1506 25 11.1506C22.3723 11.1506 19.9019 12.174 18.0438 14.0319C16.1863 15.8896 15.163 18.359 15.1626 20.986V42.4913H15.8084V20.9881C15.8084 15.9198 19.9318 11.7964 25.0001 11.7964C30.0683 11.7964 34.1917 15.9199 34.1917 20.9881V42.4417H34.8375V20.9365H34.835C34.8216 18.3283 33.8019 15.8778 31.9562 14.0319Z" fill="#081219"/>
<path d="M25 12.9718C20.5804 12.9718 16.9847 16.5667 16.9836 20.9861V42.4914H17.6294V20.9881C17.6294 16.9239 20.9359 13.6175 25.0001 13.6175C29.0643 13.6175 32.3707 16.9239 32.3707 20.9881V42.4417H33.0165V20.9365H33.0139C32.9857 16.5402 29.4028 12.9718 25 12.9718Z" fill="#081219"/>
<path d="M25 14.7928C21.5847 14.7928 18.806 17.5711 18.8049 20.9861L18.8047 42.4914H19.4505V20.9881C19.4505 17.9281 21.94 15.4386 25.0001 15.4386C28.0602 15.4386 30.5497 17.928 30.5497 20.9881V42.4417H31.1956V20.9365H31.1903C31.1617 17.5447 28.3984 14.7928 25 14.7928Z" fill="#081219"/>
<path d="M25 16.6139C22.5888 16.6139 20.6271 18.5752 20.6259 20.9861L20.6257 42.4914H21.2715V20.9881C21.2715 18.9323 22.9441 17.2597 25 17.2597C27.0559 17.2597 28.7285 18.9323 28.7285 20.9881V42.4417H29.3743V20.9365H29.369C29.3405 18.5488 27.3942 16.6139 25 16.6139Z" fill="#081219"/>
<path d="M25 18.4349C23.5929 18.4349 22.4481 19.5794 22.447 20.9862L22.4468 42.4914H23.0927V20.9881C23.0927 19.9364 23.9484 19.0806 25.0001 19.0806C26.0518 19.0806 26.9076 19.9364 26.9076 20.9881V42.4418H27.5534V20.9365H27.5481C27.5197 19.553 26.3902 18.4349 25 18.4349Z" fill="#081219"/>
</svg>
