<svg width="50" height="50" viewBox="0 0 50 50" fill="none" xmlns="http://www.w3.org/2000/svg">
<path d="M33.9298 25H33.7418C38.5729 25 42.4893 21.0836 42.4893 16.2525V7.41663H33.6535C28.8224 7.41663 24.906 11.333 24.906 16.1641C24.9059 11.3329 20.9895 7.41663 16.1584 7.41663H7.32251V16.2525C7.32251 21.0836 11.2389 25 16.07 25H16.258C11.4268 25 7.51049 28.9164 7.51049 33.7475V42.5833H16.3463C21.1774 42.5833 25.0938 38.6669 25.0938 33.8358C25.0938 38.6669 29.0103 42.5833 33.8413 42.5833H42.6772V33.7475C42.6772 28.9164 38.7609 25 33.9298 25Z" fill="#081219"/>
</svg>
