<svg width="50" height="50" viewBox="0 0 50 50" fill="none" xmlns="http://www.w3.org/2000/svg">
<path d="M41.9966 24.8205C41.9851 24.7029 41.9619 24.589 41.9292 24.4791C41.9129 24.4245 41.8938 24.3707 41.8721 24.3181C41.8074 24.1613 41.7211 24.0159 41.6177 23.8864C41.3055 23.4974 40.8341 23.2498 40.3055 23.2498H31.3472L39.1057 18.6427C39.9192 18.1599 40.1973 17.0902 39.7281 16.2534C39.2587 15.4166 38.2187 15.1304 37.4052 15.6132L29.6467 20.2203L34.1259 12.2402C34.5952 11.4034 34.317 10.3337 33.5034 9.8509C32.6899 9.36814 31.6499 9.65435 31.1805 10.4911L26.7014 18.4713V9.25775C26.7014 8.29153 25.9402 7.50861 25.0009 7.50861C24.0615 7.50861 23.3003 8.29153 23.3003 9.25775V18.4721L18.8213 10.4919C18.3519 9.65514 17.3119 9.36904 16.4984 9.8517C15.6848 10.3345 15.4067 11.4042 15.8759 12.241L20.3551 20.2211L12.5966 15.614C11.7831 15.1312 10.7431 15.4174 10.2737 16.2542C9.80436 17.091 10.0826 18.1607 10.8961 18.6435L18.6546 23.2506H9.69557C9.46095 23.2506 9.23708 23.2995 9.03377 23.3877C8.42365 23.6536 7.99512 24.2748 7.99512 24.9997C7.99512 25.0599 7.99783 25.1201 8.00394 25.1788C8.01548 25.2964 8.03865 25.4104 8.07132 25.5203C8.08761 25.5748 8.10671 25.6287 8.12843 25.6812C8.1931 25.8379 8.27948 25.9835 8.38283 26.1129C8.69502 26.5019 9.16641 26.7496 9.69499 26.7496H18.6533L10.8949 31.3567C10.0814 31.8394 9.80319 32.9092 10.2724 33.7459C10.7418 34.5827 11.7818 34.8688 12.5953 34.3861L20.3538 29.779L15.8747 37.7592C15.4053 38.596 15.6836 39.6657 16.4971 40.1484C17.3106 40.6312 18.3507 40.345 18.82 39.5082L23.2991 31.5281V40.7424C23.2991 41.7086 24.0603 42.4915 24.9997 42.4915C25.9391 42.4915 26.7002 41.7086 26.7002 40.7424V31.5281L31.1794 39.5082C31.6487 40.345 32.6887 40.6311 33.5023 40.1484C34.3158 39.6657 34.594 38.596 34.1247 37.7592L29.6456 29.779L37.404 34.3861C38.2176 34.8689 39.2576 34.5827 39.7269 33.7459C40.1963 32.9092 39.918 31.8394 39.1045 31.3567L31.346 26.7496H40.3044C40.539 26.7496 40.7629 26.7006 40.9662 26.6124C41.5763 26.3466 42.0048 25.7253 42.0048 25.0004C42.0048 24.9403 42.0027 24.8793 41.9966 24.8205Z" fill="#081219"/>
</svg>
