<svg width="50" height="50" viewBox="0 0 50 50" fill="none" xmlns="http://www.w3.org/2000/svg">
<path d="M11.6324 37.7895C11.6324 40.3997 13.7485 42.516 16.3589 42.516C18.9694 42.516 21.0853 40.3997 21.0853 37.7895C21.0853 35.1792 18.9693 33.0631 16.3589 33.0631C13.7486 33.0631 11.6324 35.1791 11.6324 37.7895Z" fill="#081219"/>
<path d="M38.3676 7.48407H30.9407V12.1519C30.3346 9.7051 28.1406 7.88416 25.5064 7.88416C22.8723 7.88416 20.6783 9.7051 20.0721 12.1519V7.48407H12.6453V33.0631H22.427V42.516H38.3675L38.3676 7.48407ZM25.5065 19.1151H20.0722V14.8473C20.6783 17.2941 22.8725 19.1151 25.5065 19.1151C28.1406 19.1151 30.3346 17.2941 30.9408 14.8473V19.1151H25.5065Z" fill="#081219"/>
</svg>
