<svg width="50" height="50" viewBox="0 0 50 50" fill="none" xmlns="http://www.w3.org/2000/svg">
<path d="M10.9231 21.1929C10.9231 13.6285 17.2255 7.49634 25 7.49634C32.7745 7.49634 39.0769 13.6285 39.0769 21.1929C39.0769 25.219 37.2913 28.8393 34.4488 31.3453C31.9508 29.143 28.6366 27.8011 25 27.8011C21.3636 27.8011 18.0492 29.143 15.5512 31.3453C12.7086 28.8394 10.9231 25.2191 10.9231 21.1929Z" fill="#081219"/>
<path d="M25 34.8894C28.6365 34.8894 31.9508 33.5475 34.4488 31.3452C37.2913 33.8512 39.0769 37.4714 39.0769 41.4976V42.5036H10.9231V41.4976C10.9231 37.4715 12.7086 33.8513 15.5512 31.3452C18.0491 33.5475 21.3634 34.8894 25 34.8894Z" fill="#081219"/>
</svg>
