<svg width="50" height="50" viewBox="0 0 50 50" fill="none" xmlns="http://www.w3.org/2000/svg">
<path d="M43.2924 32.0592C39.2855 32.0592 36.0371 28.8987 36.0371 25C36.0371 21.1014 39.2855 17.9408 43.2924 17.9408V7.20197H32.2554C32.2554 11.1006 29.007 14.2612 25.0001 14.2612C20.9931 14.2612 17.7447 11.1006 17.7447 7.20197H6.70752V17.9407C10.7145 17.9407 13.9628 21.1013 13.9628 24.9999C13.9628 28.8986 10.7145 32.0591 6.70752 32.0591V42.7979H17.7447C17.7447 38.8992 20.993 35.7387 25 35.7387C29.0069 35.7387 32.2553 38.8992 32.2553 42.7979H43.2923L43.2924 32.0592Z" fill="#081219"/>
</svg>
