<svg width="50" height="50" viewBox="0 0 50 50" fill="none" xmlns="http://www.w3.org/2000/svg">
<path d="M39.4081 25.7545L39.3503 25L39.4081 24.2455C39.5236 22.7403 40.3608 21.5517 41.4209 21.3877L42.5984 21.2056L41.4209 21.0235C40.3608 20.8596 39.5236 19.671 39.4081 18.1658L39.2799 16.494L39.1516 18.1658C39.0362 19.671 38.199 20.8596 37.1388 21.0235L36.4239 21.134L35.709 21.0235C34.6488 20.8596 33.8117 19.671 33.6962 18.1658L33.5679 16.494L33.4397 18.1658C33.3242 19.671 32.4871 20.8596 31.4269 21.0235L30.712 21.134L29.9971 21.0235C28.9369 20.8596 28.0997 19.671 27.9843 18.1658L27.856 16.494L27.7278 18.1658C27.6123 19.671 26.7751 20.8596 25.715 21.0235L25 21.134L24.2851 21.0235C23.225 20.8596 22.3878 19.671 22.2723 18.1658L22.1441 16.494L22.0158 18.1658C21.9004 19.671 21.0632 20.8596 20.003 21.0235L19.2881 21.134L18.5732 21.0235C17.513 20.8596 16.6758 19.671 16.5604 18.1658L16.4321 16.494L16.3039 18.1658C16.1884 19.671 15.3513 20.8596 14.2911 21.0235L13.5762 21.134L12.8613 21.0235C11.8011 20.8596 10.9638 19.671 10.8485 18.1658L10.7202 16.494L10.592 18.1658C10.4765 19.671 9.63932 20.8596 8.57916 21.0235L7.40173 21.2056L8.57916 21.3877C9.63932 21.5517 10.4766 22.7403 10.592 24.2455L10.6498 25L10.592 25.7545C10.4765 27.2596 9.63932 28.4483 8.57916 28.6123L7.40173 28.7944L8.57916 28.9764C9.63932 29.1404 10.4766 30.329 10.592 31.8342L10.7202 33.506L10.8485 31.8342C10.9639 30.329 11.8011 29.1404 12.8613 28.9764L13.5762 28.866L14.2911 28.9764C15.3513 29.1404 16.1884 30.329 16.3039 31.8342L16.4321 33.506L16.5604 31.8342C16.6759 30.329 17.513 29.1404 18.5732 28.9764L19.2881 28.866L20.003 28.9764C21.0632 29.1404 21.9004 30.329 22.0158 31.8342L22.1441 33.506L22.2723 31.8342C22.3878 30.329 23.225 29.1404 24.2851 28.9764L25 28.866L25.715 28.9764C26.7751 29.1404 27.6124 30.329 27.7278 31.8342L27.856 33.506L27.9843 31.8342C28.0997 30.329 28.9369 29.1404 29.9971 28.9764L30.712 28.866L31.4269 28.9764C32.4871 29.1404 33.3243 30.329 33.4397 31.8342L33.5679 33.506L33.6962 31.8342C33.8117 30.329 34.6488 29.1404 35.709 28.9764L36.4239 28.866L37.1388 28.9764C38.199 29.1404 39.0362 30.329 39.1516 31.8342L39.2799 33.506L39.4081 31.8342C39.5236 30.329 40.3608 29.1404 41.4209 28.9764L42.5984 28.7944L41.4209 28.6123C40.3608 28.4483 39.5236 27.2597 39.4081 25.7545ZM16.3037 25.7545C16.1882 27.2596 15.3511 28.4483 14.2909 28.6123L13.576 28.7228L12.8611 28.6123C11.8009 28.4483 10.9636 27.2597 10.8483 25.7545L10.7904 25L10.8483 24.2455C10.9637 22.7403 11.8009 21.5517 12.8611 21.3877L13.576 21.2772L14.2909 21.3877C15.3511 21.5517 16.1882 22.7403 16.3037 24.2455L16.3615 25L16.3037 25.7545ZM22.0157 25.7545C21.9003 27.2596 21.0631 28.4483 20.0029 28.6123L19.288 28.7228L18.5731 28.6123C17.5129 28.4483 16.6757 27.2597 16.5603 25.7545L16.5025 25L16.5603 24.2455C16.6758 22.7403 17.5129 21.5517 18.5731 21.3877L19.288 21.2772L20.0029 21.3877C21.0631 21.5517 21.9003 22.7403 22.0157 24.2455L22.0736 25L22.0157 25.7545ZM27.7277 25.7545C27.6122 27.2596 26.775 28.4483 25.7149 28.6123L24.9999 28.7228L24.285 28.6123C23.2249 28.4483 22.3877 27.2597 22.2722 25.7545L22.2144 25L22.2722 24.2455C22.3877 22.7403 23.2249 21.5517 24.285 21.3877L24.9999 21.2772L25.7149 21.3877C26.775 21.5517 27.6123 22.7403 27.7277 24.2455L27.7855 25L27.7277 25.7545ZM33.4397 25.7545C33.3242 27.2596 32.4871 28.4483 31.4269 28.6123L30.712 28.7228L29.9971 28.6123C28.9369 28.4483 28.0997 27.2597 27.9843 25.7545L27.9264 25L27.9843 24.2455C28.0997 22.7403 28.9369 21.5517 29.9971 21.3877L30.712 21.2772L31.4269 21.3877C32.4871 21.5517 33.3243 22.7403 33.4397 24.2455L33.4975 25L33.4397 25.7545ZM39.1516 25.7545C39.0362 27.2596 38.199 28.4483 37.1388 28.6123L36.4239 28.7228L35.709 28.6123C34.6488 28.4483 33.8117 27.2597 33.6962 25.7545L33.6384 25L33.6962 24.2455C33.8117 22.7403 34.6488 21.5517 35.709 21.3877L36.4239 21.2772L37.1388 21.3877C38.199 21.5517 39.0362 22.7403 39.1516 24.2455L39.2095 25L39.1516 25.7545Z" fill="#081219"/>
</svg>
