<svg width="50" height="50" viewBox="0 0 50 50" fill="none" xmlns="http://www.w3.org/2000/svg">
<path d="M25.0001 7.27094C14.9366 7.27094 6.77856 15.2085 6.77856 25C6.77856 34.7915 14.9366 42.729 25.0001 42.729C35.0636 42.729 43.2216 34.7914 43.2216 25C43.2216 15.2086 35.0636 7.27094 25.0001 7.27094ZM34.8186 34.4618L24.8806 25.2012L28.1541 38.2052H21.3681L24.6417 25.2012L14.7036 34.4618L11.3106 28.7435L24.5223 25.0001L11.3106 21.2567L14.7036 15.5383L24.6417 24.7988L21.3681 11.7949H28.1541L24.8806 24.7988L34.8186 15.5383L38.2117 21.2567L25 25.0001L38.2117 28.7435L34.8186 34.4618Z" fill="#081219"/>
</svg>
