<svg width="50" height="50" viewBox="0 0 50 50" fill="none" xmlns="http://www.w3.org/2000/svg">
<path d="M43.1412 9.88629H6.85889V10.7657H43.1412V9.88629Z" fill="#081219"/>
<path d="M43.1412 11.6126H6.85889V12.4921H43.1412V11.6126Z" fill="#081219"/>
<path d="M43.1412 13.339H6.85889V14.2184H43.1412V13.339Z" fill="#081219"/>
<path d="M28.4712 34.0552C29.0938 33.8292 29.686 33.5454 30.2425 33.2083H43.1411V32.3288H31.4774C31.792 32.0655 32.0862 31.7811 32.3647 31.4819H43.1411V30.6025H33.095C33.2947 30.3298 33.4815 30.0482 33.6518 29.7555H43.1411V28.8761H34.1059C34.2301 28.6004 34.3399 28.3176 34.4377 28.0291H43.1411V27.1497H34.6871C34.752 26.8719 34.8018 26.5892 34.8415 26.3028H43.1411V25.4233H34.9202C34.9264 25.2819 34.9421 25.1428 34.9421 24.9998C34.9421 24.8568 34.9264 24.7178 34.9202 24.5764H43.1411V23.6969H34.8415C34.8018 23.4105 34.7521 23.1278 34.6872 22.85H43.1411V21.9705H34.4377C34.34 21.682 34.2301 21.3993 34.1059 21.1236H43.1411V20.2441H33.6518C33.4815 19.9514 33.2947 19.6698 33.0951 19.3971H43.1411V18.5177H32.3647C32.0862 18.2184 31.7919 17.9342 31.4773 17.6707H43.1411V16.7913H30.2424C29.6859 16.4541 29.0938 16.1705 28.4711 15.9443H43.1411V15.0649H6.85889V15.9443H21.529C20.9063 16.1705 20.3141 16.4541 19.7576 16.7913H6.85889V17.6707H18.5227C18.2082 17.9342 17.9139 18.2184 17.6354 18.5177H6.85889V19.3971H16.9051C16.7054 19.6698 16.5186 19.9514 16.3482 20.2441H6.85889V21.1236H15.8942C15.7699 21.3993 15.6602 21.682 15.5624 21.9705H6.85889V22.85H15.3128C15.2479 23.1278 15.1982 23.4105 15.1585 23.6969H6.85889V24.5764H15.0799C15.0736 24.7178 15.0579 24.8569 15.0579 24.9998C15.0579 25.1427 15.0736 25.2819 15.0799 25.4233H6.85889V26.3028H15.1585C15.1982 26.5892 15.248 26.8719 15.3129 27.1497H6.85889V28.0291H15.5623C15.6601 28.3176 15.7698 28.6004 15.8941 28.8761H6.85889V29.7555H16.3482C16.5186 30.0482 16.7055 30.3298 16.9052 30.6025H6.85889V31.4819H17.6353C17.9138 31.7811 18.2082 32.0654 18.5227 32.3288H6.85889V33.2083H19.7575C20.314 33.5453 20.9062 33.8292 21.5288 34.0552H6.85889V34.9347H43.1412V34.0552H28.4712Z" fill="#081219"/>
<path d="M43.1412 35.7817H6.85889V36.6611H43.1412V35.7817Z" fill="#081219"/>
<path d="M43.1412 37.508H6.85889V38.3875H43.1412V37.508Z" fill="#081219"/>
<path d="M43.1412 39.2344H6.85889V40.1138H43.1412V39.2344Z" fill="#081219"/>
</svg>
