<svg width="50" height="50" viewBox="0 0 50 50" fill="none" xmlns="http://www.w3.org/2000/svg">
<path d="M38.6735 19.9608C37.2325 19.9608 36.4685 19.3855 35.8546 18.9232C35.3313 18.5293 34.9533 18.2446 34.115 18.2446C33.2768 18.2446 32.8991 18.5292 32.3759 18.9232C31.7621 19.3855 30.9981 19.9609 29.5572 19.9609C28.1162 19.9609 27.3522 19.3856 26.7383 18.9233C26.2153 18.5293 25.8372 18.2447 24.9992 18.2447C24.1612 18.2447 23.7832 18.5293 23.2601 18.9233C22.6463 19.3856 21.8823 19.961 20.4413 19.961C19.0004 19.961 18.2365 19.3856 17.6227 18.9233C17.0997 18.5294 16.7217 18.2447 15.8837 18.2447C15.0457 18.2447 14.6676 18.5293 14.1446 18.9233C13.5306 19.3856 12.7667 19.9609 11.3257 19.9609C9.88476 19.9609 9.12088 19.3856 8.50705 18.9232C7.98402 18.5293 7.60603 18.2446 6.76794 18.2446V16.5283C8.20889 16.5283 8.97288 17.1037 9.58671 17.566C10.1097 17.9599 10.4877 18.2447 11.3257 18.2447C12.1637 18.2447 12.5418 17.96 13.0648 17.566C13.6787 17.1037 14.4427 16.5284 15.8837 16.5284C17.3246 16.5284 18.0885 17.1038 18.7023 17.5661C19.2254 17.96 19.6034 18.2448 20.4413 18.2448C21.2793 18.2448 21.6573 17.9601 22.1804 17.5661C22.7943 17.1038 23.5583 16.5284 24.9992 16.5284C26.4402 16.5284 27.2041 17.1037 27.8181 17.566C28.3412 17.96 28.7192 18.2447 29.5572 18.2447C30.3952 18.2447 30.7732 17.96 31.2963 17.566C31.9101 17.1037 32.6742 16.5283 34.115 16.5283C35.5559 16.5283 36.3202 17.1036 36.9341 17.5659C37.4573 17.9599 37.8353 18.2446 38.6735 18.2446C39.5117 18.2446 39.8898 17.9598 40.413 17.5659C41.027 17.1036 41.7911 16.5283 43.2321 16.5283V18.2446C42.3939 18.2446 42.0158 18.5293 41.4926 18.9232C40.8787 19.3855 40.1146 19.9608 38.6735 19.9608Z" fill="#081219"/>
<path d="M38.6735 24.5067C37.2325 24.5067 36.4685 23.9314 35.8546 23.4691C35.3313 23.0751 34.9533 22.7905 34.115 22.7905C33.2768 22.7905 32.8991 23.0751 32.3759 23.4691C31.7621 23.9314 30.9981 24.5068 29.5572 24.5068C28.1162 24.5068 27.3522 23.9315 26.7383 23.4692C26.2153 23.0752 25.8372 22.7906 24.9992 22.7906C24.1612 22.7906 23.7832 23.0752 23.2601 23.4692C22.6463 23.9315 21.8823 24.5069 20.4413 24.5069C19.0004 24.5069 18.2365 23.9315 17.6227 23.4692C17.0997 23.0753 16.7217 22.7906 15.8837 22.7906C15.0457 22.7906 14.6676 23.0752 14.1446 23.4692C13.5306 23.9315 12.7667 24.5068 11.3257 24.5068C9.88476 24.5068 9.12088 23.9315 8.50705 23.4691C7.98402 23.0752 7.60603 22.7905 6.76794 22.7905V21.0742C8.20889 21.0742 8.97288 21.6496 9.58671 22.1119C10.1097 22.5059 10.4877 22.7906 11.3257 22.7906C12.1637 22.7906 12.5418 22.5059 13.0648 22.1119C13.6787 21.6496 14.4427 21.0743 15.8837 21.0743C17.3246 21.0743 18.0885 21.6497 18.7023 22.112C19.2254 22.506 19.6034 22.7907 20.4413 22.7907C21.2793 22.7907 21.6573 22.506 22.1804 22.112C22.7943 21.6497 23.5583 21.0743 24.9992 21.0743C26.4402 21.0743 27.2041 21.6496 27.8181 22.1119C28.3412 22.5059 28.7192 22.7906 29.5572 22.7906C30.3952 22.7906 30.7732 22.5059 31.2963 22.1119C31.9101 21.6496 32.6742 21.0742 34.115 21.0742C35.5559 21.0742 36.3202 21.6495 36.9341 22.1118C37.4573 22.5058 37.8353 22.7905 38.6735 22.7905C39.5117 22.7905 39.8898 22.5057 40.413 22.1118C41.027 21.6495 41.7911 21.0742 43.2321 21.0742V22.7905C42.3939 22.7905 42.0158 23.0752 41.4926 23.4691C40.8787 23.9314 40.1146 24.5067 38.6735 24.5067Z" fill="#081219"/>
<path d="M38.6735 29.0525C37.2325 29.0525 36.4685 28.4772 35.8546 28.0148C35.3313 27.6209 34.9533 27.3362 34.115 27.3362C33.2768 27.3362 32.8991 27.6208 32.3759 28.0148C31.7621 28.4772 30.9981 29.0526 29.5572 29.0526C28.1162 29.0526 27.3522 28.4773 26.7383 28.0149C26.2153 27.6209 25.8372 27.3363 24.9992 27.3363C24.1612 27.3363 23.7832 27.6209 23.2601 28.0149C22.6463 28.4773 21.8823 29.0527 20.4413 29.0527C19.0004 29.0527 18.2365 28.4773 17.6227 28.0149C17.0997 27.621 16.7217 27.3363 15.8837 27.3363C15.0457 27.3363 14.6676 27.6209 14.1446 28.0149C13.5306 28.4773 12.7667 29.0526 11.3257 29.0526C9.88476 29.0526 9.12088 28.4773 8.50705 28.0148C7.98402 27.6209 7.60603 27.3362 6.76794 27.3362V25.62C8.20889 25.62 8.97288 26.1954 9.58671 26.6577C10.1097 27.0516 10.4877 27.3363 11.3257 27.3363C12.1637 27.3363 12.5418 27.0517 13.0648 26.6577C13.6787 26.1954 14.4427 25.6201 15.8837 25.6201C17.3246 25.6201 18.0885 26.1955 18.7023 26.6578C19.2254 27.0517 19.6034 27.3364 20.4413 27.3364C21.2793 27.3364 21.6573 27.0518 22.1804 26.6578C22.7943 26.1955 23.5583 25.6201 24.9992 25.6201C26.4402 25.6201 27.2041 26.1954 27.8181 26.6577C28.3412 27.0517 28.7192 27.3363 29.5572 27.3363C30.3952 27.3363 30.7732 27.0517 31.2963 26.6577C31.9101 26.1954 32.6742 25.62 34.115 25.62C35.5559 25.62 36.3202 26.1953 36.9341 26.6576C37.4573 27.0516 37.8353 27.3362 38.6735 27.3362C39.5117 27.3362 39.8898 27.0515 40.413 26.6576C41.027 26.1953 41.7911 25.62 43.2321 25.62V27.3362C42.3939 27.3362 42.0158 27.6209 41.4926 28.0148C40.8787 28.4772 40.1146 29.0525 38.6735 29.0525Z" fill="#081219"/>
<path d="M38.6735 33.4718C37.2325 33.4718 36.4685 32.8965 35.8546 32.4342C35.3313 32.0401 34.9533 31.7555 34.115 31.7555C33.2768 31.7555 32.8991 32.0401 32.3759 32.4342C31.7621 32.8965 30.9981 33.4719 29.5572 33.4719C28.1162 33.4719 27.3522 32.8966 26.7383 32.4343C26.2153 32.0402 25.8372 31.7556 24.9992 31.7556C24.1612 31.7556 23.7832 32.0402 23.2601 32.4343C22.6463 32.8966 21.8823 33.472 20.4413 33.472C19.0004 33.472 18.2365 32.8966 17.6227 32.4343C17.0997 32.0403 16.7217 31.7556 15.8837 31.7556C15.0457 31.7556 14.6676 32.0402 14.1446 32.4343C13.5306 32.8966 12.7667 33.4719 11.3257 33.4719C9.88476 33.4719 9.12088 32.8966 8.50705 32.4342C7.98402 32.0402 7.60603 31.7555 6.76794 31.7555V30.0393C8.20889 30.0393 8.97288 30.6147 9.58671 31.077C10.1097 31.471 10.4877 31.7556 11.3257 31.7556C12.1637 31.7556 12.5418 31.471 13.0648 31.077C13.6787 30.6147 14.4427 30.0394 15.8837 30.0394C17.3246 30.0394 18.0885 30.6148 18.7023 31.0771C19.2254 31.4711 19.6034 31.7557 20.4413 31.7557C21.2793 31.7557 21.6573 31.4711 22.1804 31.0771C22.7943 30.6148 23.5583 30.0394 24.9992 30.0394C26.4402 30.0394 27.2041 30.6147 27.8181 31.077C28.3412 31.471 28.7192 31.7556 29.5572 31.7556C30.3952 31.7556 30.7732 31.471 31.2963 31.077C31.9101 30.6147 32.6742 30.0393 34.115 30.0393C35.5559 30.0393 36.3202 30.6146 36.9341 31.0769C37.4573 31.4709 37.8353 31.7555 38.6735 31.7555C39.5117 31.7555 39.8898 31.4708 40.413 31.0769C41.027 30.6146 41.7911 30.0393 43.2321 30.0393V31.7555C42.3939 31.7555 42.0158 32.0402 41.4926 32.4342C40.8787 32.8965 40.1146 33.4718 38.6735 33.4718Z" fill="#081219"/>
</svg>
