<svg width="50" height="50" viewBox="0 0 50 50" fill="none" xmlns="http://www.w3.org/2000/svg">
<path d="M7.59885 8.10065H7.49634V18.8284H7.52097C10.9294 18.8284 13.6925 21.5916 13.6925 25C13.6925 28.4084 10.9294 31.1716 7.52097 31.1716H7.49634V41.8993H7.59885C16.932 41.8993 24.4981 34.3332 24.4981 25C24.4981 15.6667 16.932 8.10065 7.59885 8.10065Z" fill="#081219"/>
<path d="M42.4012 41.8994H42.5037V31.1716H42.4791C39.0707 31.1716 36.3075 28.4085 36.3075 25C36.3075 21.5916 39.0707 18.8285 42.4791 18.8285H42.5037V8.10077H42.4012C33.068 8.10077 25.502 15.6669 25.502 25C25.502 34.3333 33.068 41.8994 42.4012 41.8994Z" fill="#081219"/>
</svg>
