<svg width="50" height="50" viewBox="0 0 50 50" fill="none" xmlns="http://www.w3.org/2000/svg">
<path d="M33.0764 7.77844C31.6055 7.77844 30.2421 8.62459 29.0381 9.9902C27.8341 8.62469 26.4709 7.77844 24.9999 7.77844C23.529 7.77844 22.1657 8.62459 20.9617 9.9902C19.7577 8.62469 18.3945 7.77844 16.9235 7.77844C12.2884 7.77844 8.51709 15.5041 8.51709 25.0002C8.51709 34.4963 12.2884 42.2216 16.9237 42.2216C18.3946 42.2216 19.7579 41.3754 20.9619 40.0098C22.1659 41.3753 23.5292 42.2216 25.0001 42.2216C26.4711 42.2216 27.8344 41.3754 29.0384 40.0098C30.2424 41.3753 31.6056 42.2216 33.0766 42.2216C37.7122 42.2216 41.4832 34.4963 41.4832 25.0002C41.4832 15.5041 37.712 7.77844 33.0764 7.77844ZM25 8.89943C26.2426 8.89943 27.401 9.56777 28.4428 10.6528C26.769 12.9289 25.5439 16.4182 25 20.4855C24.4562 16.4185 23.2311 12.9295 21.5573 10.6531C22.599 9.56767 23.7574 8.89943 25 8.89943ZM29.0386 11.3255C31.2534 14.1623 32.7465 19.207 32.7465 25.0001C32.7465 30.7932 31.2534 35.8379 29.0386 38.6747C26.8237 35.8379 25.3304 30.7932 25.3304 25.0001C25.3304 19.207 26.8237 14.1623 29.0386 11.3255ZM24.6698 25.0002C24.6698 30.7933 23.1768 35.8377 20.9619 38.6745C18.7471 35.8377 17.254 30.7933 17.254 25.0002C17.254 19.2071 18.7471 14.1627 20.9619 11.3259C23.1768 14.1627 24.6698 19.2071 24.6698 25.0002ZM16.9237 41.1009C12.6526 41.1009 9.17762 33.8781 9.17762 25.0001C9.17762 16.1221 12.6526 8.89943 16.9237 8.89943C18.1662 8.89943 19.3247 9.56777 20.3665 10.6532C18.0966 13.7403 16.5935 19.0124 16.5935 25.0002C16.5935 30.988 18.0966 36.2604 20.3665 39.3473C19.3248 40.4326 18.1664 41.1009 16.9237 41.1009ZM25 41.1009C23.7575 41.1009 22.5991 40.4325 21.5573 39.3472C23.2311 37.071 24.4561 33.5821 25 29.5147C25.5438 33.5821 26.7693 37.071 28.4431 39.3472C27.4014 40.4325 26.2427 41.1009 25 41.1009ZM33.0764 41.1009C31.8338 41.1009 30.6754 40.4325 29.6336 39.3472C31.9035 36.2603 33.4066 30.9879 33.4066 25.0001C33.4066 19.0123 31.9035 13.7402 29.6336 10.6531C30.6753 9.56767 31.8337 8.89933 33.0764 8.89933C37.3478 8.89933 40.8228 16.1221 40.8228 25.0001C40.8228 33.8781 37.3479 41.1009 33.0764 41.1009Z" fill="#081219"/>
</svg>
