<svg width="50" height="50" viewBox="0 0 50 50" fill="none" xmlns="http://www.w3.org/2000/svg">
<path d="M37.931 11.9311C37.931 9.34636 35.7775 7.25098 33.1209 7.25098H16.8791C14.2226 7.25098 12.069 9.34636 12.069 11.9311C12.069 14.5158 14.2226 16.6112 16.8791 16.6112H18.969C18.8284 16.6112 18.6909 16.6219 18.5572 16.6415C19.6419 16.8002 20.4653 17.5736 20.4653 18.5045C20.4653 19.3308 19.8164 20.0326 18.9121 20.291H16.8791C14.2226 20.291 12.069 22.3863 12.069 24.9711C12.069 24.9807 12.0697 24.9902 12.0697 24.9999C12.0697 25.0096 12.069 25.019 12.069 25.0287C12.069 27.6134 14.2226 29.7088 16.8791 29.7088H18.969C18.8284 29.7088 18.6909 29.7196 18.5572 29.7391C19.6419 29.8978 20.4653 30.6712 20.4653 31.6021C20.4653 32.4284 19.8164 33.1302 18.9121 33.3886H16.8791C14.2226 33.3886 12.069 35.484 12.069 38.0687C12.069 40.6534 14.2226 42.7488 16.8791 42.7488H33.1209C35.7775 42.7488 37.931 40.6534 37.931 38.0687C37.931 35.484 35.7775 33.3886 33.1209 33.3886H31.0284C30.1256 33.1295 29.4781 32.4275 29.4781 31.6021C29.4781 30.6551 30.3302 29.8704 31.4427 29.7308C31.3269 29.7163 31.2082 29.7087 31.0874 29.7087H33.1209C35.7775 29.7087 37.931 27.6133 37.931 25.0286C37.931 25.0189 37.9303 25.0095 37.9303 24.9998C37.9303 24.9901 37.931 24.9806 37.931 24.971C37.931 22.3862 35.7775 20.2909 33.1209 20.2909H31.0284C30.1256 20.0318 29.4781 19.3298 29.4781 18.5044C29.4781 17.5573 30.3302 16.7727 31.4427 16.6331C31.3269 16.6186 31.2082 16.611 31.0874 16.611H33.1209C35.7775 16.611 37.931 14.5158 37.931 11.9311Z" fill="#081219"/>
</svg>
