<svg width="50" height="50" viewBox="0 0 50 50" fill="none" xmlns="http://www.w3.org/2000/svg">
<path d="M42.9201 12.2454C42.6717 9.58553 34.7659 7.44727 24.9999 7.44727C15.2339 7.44727 7.32843 9.58563 7.0799 12.2454C7.06864 12.1737 7.03369 12.1037 7.03369 12.0312V16.4456C7.03369 17.6707 8.72601 18.7772 11.4276 19.6388C8.82074 20.4701 7.18969 21.5317 7.0799 22.7067C7.06864 22.635 7.03369 22.565 7.03369 22.4925V26.9068C7.03369 28.1929 8.87485 29.3535 11.8207 30.2306C8.97327 31.0784 7.19538 32.1936 7.0799 33.429C7.06864 33.3573 7.03369 33.2873 7.03369 33.2148V37.6291C7.03369 40.3485 15.0775 42.5528 24.9999 42.5528C34.9223 42.5528 42.9663 40.3485 42.9663 37.6291V33.2148C42.9663 33.2874 42.9314 33.3573 42.9201 33.429C42.8046 32.1936 41.0267 31.0784 38.1793 30.2306C41.1252 29.3535 42.9663 28.1929 42.9663 26.9068V22.4925C42.9663 22.5651 42.9314 22.635 42.9201 22.7067C42.8103 21.5317 41.1793 20.4701 38.5724 19.6388C41.274 18.7773 42.9663 17.6707 42.9663 16.4456V12.0312C42.9663 12.1038 42.9314 12.1737 42.9201 12.2454ZM12.4161 9.29773C15.7715 8.37798 20.2404 7.87169 24.9998 7.87169C29.7592 7.87169 34.2281 8.37798 37.5835 9.29773C40.6782 10.1458 42.5258 11.2946 42.5258 12.3708C42.5258 13.0641 41.7692 13.6715 41.0555 14.0902C37.8546 12.4502 31.7466 11.4371 24.9997 11.4371C18.2527 11.4371 12.145 12.4501 8.9439 14.0902C8.23022 13.6716 7.4738 13.0641 7.4738 12.3708C7.4738 11.2946 9.32159 10.1458 12.4161 9.29773ZM40.6967 14.4081C37.6338 15.9237 31.7691 16.9549 24.9999 16.9549C18.2307 16.9549 12.366 15.9237 9.30306 14.4081C12.366 12.8927 18.231 11.8614 24.9999 11.8614C31.7689 11.8614 37.6338 12.8927 40.6967 14.4081ZM9.30295 35.5916C12.3659 34.0762 18.2309 33.0449 24.9998 33.0449C31.7687 33.0449 37.6337 34.0762 40.6966 35.5916C37.6337 37.107 31.769 38.1383 24.9998 38.1383C18.2306 38.1383 12.3659 37.107 9.30295 35.5916ZM37.5836 30.4809C40.6783 31.3289 42.5259 32.4779 42.5259 33.5542C42.5259 34.2473 41.7693 34.8547 41.0556 35.2735C37.8547 33.6336 31.7467 32.6205 24.9998 32.6205C18.2529 32.6205 12.1451 33.6335 8.94401 35.2735C8.23032 34.8548 7.4739 34.2473 7.4739 33.5542C7.4739 32.478 9.32148 31.3289 12.416 30.4809C12.4608 30.4687 12.5156 30.4604 12.561 30.4482C15.791 31.3004 20.1623 31.8304 24.9998 31.8304C29.8373 31.8304 34.2085 31.3002 37.4386 30.4482C37.4837 30.4603 37.5387 30.4686 37.5836 30.4809ZM9.30295 24.8694C12.3659 23.354 18.2309 22.3226 24.9998 22.3226C31.7687 22.3226 37.6337 23.354 40.6966 24.8694C37.6337 26.3848 31.769 27.4161 24.9998 27.4161C18.2306 27.4161 12.3659 26.3848 9.30295 24.8694ZM42.526 22.8319C42.526 23.525 41.7694 24.1324 41.0557 24.5512C37.8549 22.9113 31.7468 21.8982 24.9999 21.8982C18.253 21.8982 12.1452 22.9112 8.94411 24.5512C8.23043 24.1325 7.47401 23.525 7.47401 22.8319C7.47401 21.7964 9.2158 20.7002 12.1016 19.8626C15.3684 20.7886 19.9289 21.3693 24.9998 21.3693C30.0707 21.3693 34.6317 20.7884 37.8982 19.8626C40.7841 20.7002 42.526 21.7964 42.526 22.8319Z" fill="#081219"/>
</svg>
