<svg width="50" height="50" viewBox="0 0 50 50" fill="none" xmlns="http://www.w3.org/2000/svg">
<path d="M38.5476 28.2617C35.1768 28.2617 35.1768 29.76 31.8059 29.76C28.4432 29.76 28.4343 28.2692 25.0881 28.262C21.7427 28.2695 21.7335 29.76 18.3711 29.76C15 29.76 15 28.2617 11.6289 28.2617C8.96476 28.2617 8.44143 29.0544 6.68091 29.4986V31.2486C8.44123 31.6929 8.96456 32.4854 11.6284 32.4854C14.9992 32.4854 14.9992 30.9871 18.3701 30.9871C21.7327 30.9871 21.7417 32.4778 25.0879 32.4851C28.4333 32.4775 28.4425 30.9871 31.8049 30.9871C35.176 30.9871 35.176 32.4854 38.547 32.4854C41.1202 32.4854 41.6962 31.7459 43.319 31.295V29.4519C41.6965 29.001 41.1206 28.2617 38.5476 28.2617Z" fill="#081219"/>
<path d="M38.8325 24.3865C35.4699 24.3865 35.461 22.8958 32.1147 22.8885C32.0503 22.8887 31.9876 22.8895 31.9257 22.8908C31.8434 22.8892 31.7592 22.8882 31.6725 22.8882C28.3816 22.8882 28.303 24.3161 25.1642 24.3838C22.0253 24.3161 21.9468 22.8882 18.6555 22.8882C18.5686 22.8882 18.4841 22.8891 18.4017 22.8908C18.3398 22.8896 18.2772 22.8887 18.2129 22.8886C14.8676 22.8962 14.8583 24.3866 11.4961 24.3866C8.9285 24.3866 8.31631 23.5175 6.68103 23.1032V26.8969C8.31579 26.4825 8.92819 25.6136 11.4952 25.6136C14.8578 25.6136 14.8667 27.1044 18.213 27.1117C18.277 27.1115 18.3393 27.1107 18.4009 27.1094C18.4835 27.1111 18.5681 27.112 18.6552 27.112C21.9462 27.112 22.0248 25.684 25.1635 25.6163C28.3025 25.684 28.381 27.112 31.6722 27.112C31.7587 27.112 31.8428 27.111 31.9249 27.1094C31.9871 27.1106 32.0501 27.1115 32.1148 27.1117C35.4602 27.1041 35.4694 25.6136 38.8318 25.6136C41.2206 25.6136 41.9169 26.3659 43.3192 26.8044V23.196C41.9173 23.6345 41.2208 24.3865 38.8325 24.3865Z" fill="#081219"/>
<path d="M38.5476 17.5146C35.1768 17.5146 35.1768 19.0129 31.8059 19.0129C28.4432 19.0129 28.4343 17.5222 25.0881 17.5149C21.7427 17.5225 21.7335 19.0129 18.3711 19.0129C15 19.0129 15 17.5146 11.6289 17.5146C8.96476 17.5146 8.44143 18.3073 6.68091 18.7516V20.5015C8.44123 20.9459 8.96456 21.7384 11.6284 21.7384C14.9992 21.7384 14.9992 20.24 18.3701 20.24C21.7327 20.24 21.7417 21.7308 25.0879 21.7381C28.4333 21.7305 28.4425 20.24 31.8049 20.24C35.176 20.24 35.176 21.7384 38.547 21.7384C41.1202 21.7384 41.6962 20.9988 43.319 20.548V18.7048C41.6965 18.2539 41.1206 17.5146 38.5476 17.5146Z" fill="#081219"/>
</svg>
