<svg width="50" height="50" viewBox="0 0 50 50" fill="none" xmlns="http://www.w3.org/2000/svg">
<path d="M40.098 9.90191C39.2504 9.05427 38.1135 8.58557 36.9069 8.58557C35.7002 8.58557 34.5734 9.05427 33.7157 9.90191C33.1972 10.4205 32.8282 11.0487 32.6088 11.7767C31.8808 11.9961 31.2526 12.3651 30.734 12.8836C30.2155 13.4022 29.8465 14.0304 29.6271 14.7584C28.8991 14.9778 28.2709 15.3468 27.7523 15.8654C27.2337 16.3839 26.8648 17.0122 26.6454 17.7401C25.9174 17.9595 25.2891 18.3285 24.7706 18.8471C24.252 19.3656 23.8831 19.9939 23.6637 20.7219C22.9357 20.9413 22.3074 21.3102 21.7889 21.8288C21.2703 22.3473 20.9013 22.9756 20.6819 23.7036C19.954 23.923 19.3257 24.2919 18.8072 24.8105C18.2886 25.3291 17.9196 25.9573 17.7002 26.6853C16.9722 26.9047 16.344 27.2737 15.8254 27.7922C15.3069 28.3008 14.9379 28.939 14.7185 29.667C13.9905 29.8864 13.3623 30.2554 12.8437 30.7739C12.3252 31.2825 11.9562 31.9208 11.7368 32.6487C11.0088 32.8681 10.3806 33.2371 9.862 33.7557C9.01435 34.6033 8.54565 35.7401 8.54565 36.9468C8.54565 38.1534 9.01435 39.2803 9.862 40.1379C10.7096 40.9856 11.8465 41.4642 13.0531 41.4642C14.2598 41.4642 15.3867 40.9955 16.2443 40.1379C16.7628 39.6194 17.1318 38.9911 17.3512 38.2631C18.0792 38.0437 18.7074 37.6748 19.226 37.1562C19.7445 36.6377 20.1135 36.0094 20.3329 35.2814C21.0509 35.062 21.6991 34.6831 22.2077 34.1745C22.7263 33.6559 23.0952 33.0277 23.3146 32.2997C24.0326 32.0803 24.6808 31.7014 25.1894 31.1928C25.698 30.6842 26.077 30.046 26.2963 29.318C27.0243 29.0986 27.6526 28.7296 28.1711 28.2111C28.6897 27.6925 29.0587 27.0642 29.2781 26.3363C29.9961 26.1169 30.6443 25.7379 31.1529 25.2293C31.6714 24.7108 32.0404 24.0825 32.2598 23.3545C32.9878 23.1352 33.616 22.7662 34.1346 22.2476C34.6531 21.7291 35.0221 21.1008 35.2415 20.3728C35.9695 20.1534 36.5977 19.7845 37.1163 19.2659C37.6349 18.7473 38.0038 18.1191 38.2232 17.3911C38.9512 17.1717 39.5795 16.8027 40.098 16.2842C40.9457 15.4365 41.4243 14.2997 41.4243 13.0931C41.4243 11.8864 40.9556 10.7595 40.098 9.90191ZM11.6171 33.3069C11.4177 34.713 11.8664 36.1191 12.8736 37.1263C13.7213 37.9739 14.8581 38.4526 16.0648 38.4526C16.2642 38.4526 16.4736 38.4327 16.693 38.4027C16.4936 38.8914 16.2144 39.3202 15.8554 39.6892C15.1174 40.4271 14.1301 40.836 13.093 40.836C12.0559 40.836 11.0686 40.4271 10.3307 39.6892C8.80493 38.1634 8.80493 35.6803 10.3307 34.1545C10.6897 33.7955 11.1285 33.5063 11.6271 33.3169L11.6171 33.3069ZM16.9024 37.7446C16.5933 37.8144 16.324 37.8443 16.0747 37.8443C15.0276 37.8443 14.0504 37.4354 13.3124 36.6975C12.365 35.7501 11.9861 34.4238 12.2753 33.1075C12.5844 33.0377 12.8437 33.0077 13.103 33.0077C14.1501 33.0077 15.1274 33.4166 15.8653 34.1545C16.6033 34.8925 17.0121 35.8798 17.0121 36.9169C17.0121 37.1762 16.9822 37.4454 16.9124 37.7446H16.9024ZM14.5988 30.3252C14.4792 31.1828 14.5988 32.0504 14.9678 32.8282C14.3794 32.559 13.7412 32.4194 13.093 32.4194C12.8836 32.4194 12.6742 32.4293 12.4648 32.4593C12.6642 31.9606 12.9434 31.5318 13.3024 31.1629C13.6614 30.8039 14.1002 30.5147 14.5988 30.3252ZM17.5506 37.5352C17.5806 37.3158 17.6005 37.1063 17.6005 36.9069C17.6005 36.2587 17.4609 35.6304 17.1916 35.0521C17.9595 35.4111 18.7473 35.5606 19.6747 35.4111C19.4753 35.8997 19.1961 36.3385 18.8371 36.6975C18.4781 37.0565 18.0393 37.3457 17.5506 37.5352ZM19.8742 34.7629C19.565 34.8327 19.2958 34.8626 19.0465 34.8626C17.9994 34.8626 17.0221 34.4537 16.2842 33.7158C15.3368 32.7684 14.9578 31.4421 15.247 30.1257C15.5562 30.0559 15.8155 30.026 16.0747 30.026C17.1218 30.026 18.0991 30.4349 18.8371 31.1728C19.575 31.9108 19.9839 32.898 19.9839 33.9352C19.9839 34.1944 19.954 34.4637 19.8842 34.7629H19.8742ZM17.5706 27.3534C17.4509 28.2111 17.5706 29.0786 17.9396 29.8565C17.3512 29.5872 16.713 29.4476 16.0648 29.4476C15.8554 29.4476 15.6459 29.4576 15.4365 29.4875C15.636 28.9889 15.9152 28.5601 16.2742 28.1911C16.6332 27.8221 17.072 27.5429 17.5706 27.3534ZM20.5224 34.5534C20.5523 34.334 20.5722 34.1246 20.5722 33.9252C20.5722 33.277 20.4326 32.6487 20.1634 32.0703C20.9313 32.4293 21.7191 32.5789 22.6465 32.4293C22.447 32.918 22.1678 33.3468 21.8088 33.7158C21.4498 34.0748 21.021 34.354 20.5224 34.5534ZM22.8559 31.7811C22.5468 31.8509 22.2775 31.8809 22.0282 31.8809C20.9811 31.8809 20.0038 31.472 19.2659 30.734C18.3185 29.7867 17.9396 28.4604 18.2288 27.144C18.5379 27.0742 18.7972 27.0443 19.0565 27.0443C20.1035 27.0443 21.0808 27.4532 21.8188 28.1911C22.5567 28.9291 22.9656 29.9163 22.9656 30.9534C22.9656 31.2127 22.9357 31.482 22.8659 31.7811H22.8559ZM19.2559 25.2094C19.6149 24.8504 20.0537 24.5612 20.5523 24.3717C20.4326 25.2293 20.5523 26.0969 20.9213 26.8748C20.3329 26.6055 19.6947 26.4659 19.0465 26.4659C18.8371 26.4659 18.6276 26.4759 18.4182 26.5058C18.6177 26.0072 18.8969 25.5784 19.2559 25.2094ZM24.7905 30.744C24.4315 31.103 23.9927 31.3922 23.5041 31.5817C23.534 31.3623 23.554 31.1529 23.554 30.9534C23.554 30.3052 23.4144 29.677 23.1451 29.0986C23.7235 29.3678 24.3517 29.5075 24.9999 29.5075C25.1994 29.5075 25.4088 29.4875 25.6282 29.4576C25.4288 29.9462 25.1495 30.375 24.7905 30.744ZM25.8277 28.8094C25.5185 28.8792 25.2493 28.9091 24.9999 28.9091C23.9529 28.9091 22.9756 28.5003 22.2376 27.7623C21.2903 26.8149 20.9113 25.4886 21.2005 24.1723C21.5096 24.1025 21.7789 24.0726 22.0282 24.0726C23.0753 24.0726 24.0526 24.4814 24.7905 25.2194C25.5285 25.9573 25.9373 26.9446 25.9373 27.9817C25.9373 28.241 25.9074 28.5102 25.8376 28.8094H25.8277ZM23.524 21.39C23.4044 22.2476 23.524 23.1152 23.893 23.8931C23.3047 23.6238 22.6664 23.4842 22.0182 23.4842C21.8088 23.4842 21.5994 23.4942 21.39 23.5241C21.5894 23.0255 21.8686 22.5967 22.2276 22.2277C22.5867 21.8687 23.0254 21.5795 23.524 21.39ZM26.4858 28.6C26.5257 28.3806 26.5357 28.1712 26.5357 27.9717C26.5357 27.3235 26.3961 26.6953 26.1268 26.1169C26.8947 26.4759 27.6925 26.6255 28.6099 26.4759C28.4105 26.9645 28.1313 27.3933 27.7722 27.7623C27.4132 28.1213 26.9844 28.4005 26.4858 28.6ZM28.8094 25.8277C28.5002 25.8975 28.231 25.9274 27.9817 25.9274C26.9346 25.9274 25.9573 25.5185 25.2193 24.7806C24.272 23.8332 23.893 22.5069 24.1822 21.1906C24.4914 21.1208 24.7606 21.0908 25.0099 21.0908C26.057 21.0908 27.0343 21.4997 27.7722 22.2376C28.5102 22.9756 28.9191 23.9629 28.9191 25C28.9191 25.2593 28.8891 25.5185 28.8193 25.8277H28.8094ZM26.5058 18.4183C26.3861 19.2759 26.5058 20.1435 26.8747 20.9213C26.2864 20.6521 25.6481 20.5124 24.9999 20.5124C24.7905 20.5124 24.5811 20.5224 24.3717 20.5523C24.5711 20.0537 24.8504 19.6249 25.2094 19.2559C25.5684 18.8969 26.0072 18.6077 26.5058 18.4183ZM30.744 24.7906C30.385 25.1496 29.9562 25.4288 29.4576 25.6282C29.4975 25.4088 29.5074 25.1994 29.5074 25C29.5074 24.3518 29.3678 23.7235 29.0986 23.1451C29.677 23.4144 30.3052 23.554 30.9534 23.554C31.1529 23.554 31.3623 23.534 31.5817 23.5041C31.3822 23.9928 31.103 24.4316 30.744 24.7906ZM31.7811 22.8559C31.472 22.9257 31.2027 22.9557 30.9534 22.9557C29.9063 22.9557 28.929 22.5468 28.1911 21.8088C27.2437 20.8615 26.8648 19.5352 27.154 18.2188C27.4531 18.149 27.7324 18.1191 27.9817 18.1191C29.0288 18.1191 30.006 18.528 30.744 19.2659C31.4819 20.0039 31.8908 20.9911 31.8908 22.0282C31.8908 22.2875 31.8609 22.5568 31.7911 22.8559H31.7811ZM29.4775 15.4365C29.3578 16.2942 29.4775 17.1617 29.8465 17.9396C29.2581 17.6703 28.6199 17.5307 27.9717 17.5307C27.7623 17.5307 27.5529 17.5407 27.3434 17.5706C27.5429 17.072 27.8221 16.6432 28.1811 16.2742C28.5401 15.9052 28.9789 15.626 29.4775 15.4365ZM32.4393 22.6465C32.4792 22.4271 32.4891 22.2177 32.4891 22.0183C32.4891 21.3701 32.3495 20.7418 32.0803 20.1634C32.6587 20.4327 33.2869 20.5723 33.9351 20.5723C34.1346 20.5723 34.344 20.5523 34.5634 20.5224C34.3639 21.0111 34.0847 21.4498 33.7257 21.8088C33.3667 22.1678 32.9379 22.4471 32.4393 22.6465ZM34.7628 19.8742C34.4537 19.944 34.1844 19.9739 33.9351 19.9739C32.888 19.9739 31.9108 19.5651 31.1728 18.8271C30.2254 17.8798 29.8465 16.5534 30.1357 15.2371C30.4349 15.1673 30.7141 15.1374 30.9634 15.1374C32.0105 15.1374 32.9878 15.5462 33.7257 16.2842C34.4637 17.0221 34.8725 18.0094 34.8725 19.0465C34.8725 19.3058 34.8426 19.5651 34.7728 19.8742H34.7628ZM32.4592 12.4648C32.3396 13.3224 32.4592 14.19 32.8282 14.9678C32.2398 14.6986 31.6016 14.559 30.9534 14.559C30.744 14.559 30.5346 14.569 30.3252 14.5989C30.5246 14.1003 30.8038 13.6714 31.1628 13.3025C31.5218 12.9435 31.9606 12.6543 32.4592 12.4648ZM35.411 19.6748C35.4509 19.4554 35.4609 19.246 35.4609 19.0465C35.4609 18.3983 35.3213 17.7701 35.052 17.1917C35.8199 17.5507 36.6077 17.7003 37.5351 17.5507C37.3357 18.0393 37.0565 18.4781 36.6975 18.8371C36.3385 19.1961 35.9096 19.4753 35.411 19.6748ZM37.7445 16.9025C37.4354 16.9723 37.1662 17.0022 36.9168 17.0022C35.8698 17.0022 34.8925 16.5933 34.1545 15.8554C33.2072 14.908 32.8282 13.5817 33.1174 12.2654C33.4166 12.1955 33.6958 12.1656 33.9451 12.1656C34.9922 12.1656 35.9695 12.5745 36.7074 13.3124C37.4454 14.0504 37.8542 15.0376 37.8542 16.0748C37.8542 16.334 37.8243 16.6033 37.7545 16.9025H37.7445ZM38.3927 16.6931C38.4326 16.4737 38.4426 16.2642 38.4426 16.0648C38.4426 14.8581 37.9739 13.7313 37.1163 12.8737C36.2687 12.026 35.1418 11.5673 33.9551 11.5673C33.7357 11.5673 33.5163 11.5872 33.2969 11.6172C33.4964 11.1185 33.7756 10.6897 34.1346 10.3208C34.8725 9.5828 35.8498 9.17394 36.8969 9.17394C37.944 9.17394 38.9213 9.5828 39.6592 10.3208C40.3972 11.0587 40.806 12.046 40.806 13.0831C40.806 14.1202 40.3972 15.1075 39.6592 15.8454C39.3002 16.2044 38.8714 16.4836 38.3728 16.6831L38.3927 16.6931Z" fill="black"/>
</svg>
