<svg width="50" height="50" viewBox="0 0 50 50" fill="none" xmlns="http://www.w3.org/2000/svg">
<path d="M24.9998 43.1673C24.7877 43.1673 24.6155 42.9951 24.6155 42.783C24.6155 37.0879 24.6155 29.9993 21.886 28.423C20.86 27.8334 19.4252 28.0596 17.6196 29.1026C17.4349 29.2068 17.2002 29.1446 17.0946 28.9615C17.0596 28.9004 17.0431 28.8344 17.0431 28.7693C17.0431 28.6362 17.1122 28.507 17.2353 28.436C20.3706 26.6264 22.6361 25.3182 22.6361 24.3974C22.6361 23.4766 20.3706 22.1683 17.2353 20.3582C17.1122 20.2872 17.0431 20.158 17.0431 20.0254C17.0431 19.9603 17.0596 19.8938 17.0946 19.8332C17.2002 19.6501 17.4349 19.586 17.6196 19.6926C19.5624 20.8141 21.0742 21.0774 22.1137 20.4794C24.6155 19.035 24.6155 12.7568 24.6155 7.21778C24.6155 7.00562 24.7877 6.83344 24.9998 6.83344C25.212 6.83344 25.3842 7.00562 25.3842 7.21778C25.3842 12.7568 25.3842 19.035 27.8864 20.4794C28.9244 21.0789 30.4378 20.8146 32.3806 19.6926C32.5597 19.5871 32.7969 19.6486 32.906 19.8332C32.9411 19.8938 32.9571 19.9603 32.9571 20.0254C32.9571 20.158 32.888 20.2872 32.7649 20.3582C29.629 22.1683 27.364 23.4766 27.364 24.3974C27.364 25.3182 29.6291 26.6264 32.7649 28.436C32.888 28.507 32.9571 28.6362 32.9571 28.7693C32.9571 28.8344 32.9411 28.9004 32.906 28.9615C32.797 29.1457 32.5597 29.2047 32.3806 29.1026C30.576 28.0586 29.1386 27.8334 28.1137 28.423C25.3842 29.9994 25.3842 37.0879 25.3842 42.783C25.3842 42.9951 25.212 43.1673 24.9998 43.1673ZM20.6224 27.3339C21.2304 27.3339 21.7809 27.475 22.2703 27.7573C23.8338 28.6602 24.6125 30.8812 24.9998 33.6536C25.3872 30.8811 26.1659 28.6601 27.7293 27.7573C28.2187 27.475 28.7692 27.3339 29.3778 27.3339C29.3839 27.3339 29.3898 27.3339 29.3959 27.3339C27.4741 26.1278 26.5953 25.3191 26.5953 24.3973C26.5953 23.5025 27.4231 22.7153 29.2278 21.5672C28.5722 21.5922 28.0127 21.4401 27.5022 21.1449C26.09 20.3296 25.3683 18.4204 24.9999 15.9772C24.6316 18.4204 23.9104 20.3296 22.4982 21.1449C21.9873 21.4406 21.4232 21.5933 20.7726 21.5672C22.5768 22.7153 23.405 23.5025 23.405 24.3973C23.405 25.3191 22.5258 26.1279 20.604 27.3339C20.6104 27.3339 20.6163 27.3339 20.6224 27.3339Z" fill="#081219"/>
</svg>
