<svg width="50" height="50" viewBox="0 0 50 50" fill="none" xmlns="http://www.w3.org/2000/svg">
<path d="M43.3361 23.2986C43.2028 22.9194 42.7724 22.7247 42.3931 22.8579C42.1471 22.9501 41.9627 23.1654 41.9217 23.4216L26.9884 26.1582L36.9507 20.5108C37.1455 20.6645 37.4017 20.726 37.6375 20.6543C38.0269 20.5313 38.2422 20.1213 38.1294 19.7319C38.0679 19.5474 37.9449 19.3936 37.7707 19.3014C37.5965 19.2091 37.4017 19.1886 37.207 19.2501C36.8483 19.3629 36.6433 19.7114 36.6945 20.0701L26.9167 25.615L34.1219 18.0305C34.3884 18.1432 34.6754 18.1022 34.8906 17.9075C35.1981 17.641 35.2186 17.1695 34.9521 16.8723C34.8189 16.7288 34.6447 16.6366 34.4499 16.6263C34.2552 16.6161 34.0604 16.6776 33.917 16.8108C33.671 17.026 33.6095 17.3848 33.753 17.6717L26.1685 25.656L29.5507 15.7551C29.7762 15.7551 29.9812 15.6526 30.1145 15.4681C30.2375 15.3144 30.2784 15.1197 30.2579 14.9249C30.2272 14.7302 30.1247 14.556 29.971 14.4432C29.8172 14.3305 29.6225 14.2792 29.4278 14.2997C29.233 14.3305 29.0588 14.433 28.946 14.5867C28.7103 14.9044 28.7616 15.3452 29.069 15.6014L26.1275 24.2108L28.0543 9.03158C28.3823 8.95983 28.6181 8.6626 28.6181 8.32438C28.6181 7.9144 28.2901 7.58643 27.8801 7.58643C27.4701 7.58643 27.1422 7.9144 27.1422 8.32438C27.1422 8.60111 27.2959 8.84709 27.5316 8.97008L25.5023 24.9897L24.6823 20.4698C25.0103 20.2751 25.1333 19.8548 24.9693 19.5064C24.7848 19.1476 24.3441 19.0042 23.9854 19.1784C23.6266 19.3629 23.4729 19.8036 23.6574 20.1623C23.7599 20.3673 23.9546 20.5108 24.1801 20.5518L25.0308 25.2767L20.6031 17.6307C20.7773 17.4155 20.8183 17.1285 20.7158 16.8825C20.6338 16.6981 20.5006 16.5648 20.3161 16.4931C20.1316 16.4213 19.9369 16.4213 19.7524 16.4931C19.5679 16.5751 19.4347 16.7083 19.3629 16.8928C19.2912 17.0773 19.2912 17.272 19.3629 17.4565C19.4962 17.7742 19.8242 17.9485 20.1521 17.887L24.2621 24.9897L15.2017 15.5911C15.2837 15.4271 15.294 15.2324 15.2427 15.0582C15.1812 14.8737 15.0582 14.7199 14.884 14.6277C14.7098 14.5355 14.515 14.515 14.3203 14.5765C14.1358 14.6379 13.982 14.7609 13.8898 14.9352C13.7976 15.1094 13.7771 15.3042 13.8386 15.4989C13.9001 15.6834 14.023 15.8371 14.1973 15.9294C14.392 16.0319 14.6175 16.0421 14.8327 15.9499L24.5696 26.0557L17.7845 23.5036C17.7845 23.2269 17.6308 22.9706 17.3848 22.8476C17.0261 22.6734 16.5854 22.8169 16.4009 23.1756C16.2164 23.5343 16.3701 23.9853 16.7289 24.1596C17.0261 24.303 17.3848 24.2313 17.6001 23.9853L24.3851 26.5374L8.01695 27.8903C7.91446 27.6648 7.69922 27.5008 7.44299 27.4701C7.04327 27.4188 6.67429 27.7058 6.62304 28.1055C6.60255 28.3003 6.65379 28.495 6.77678 28.6488C6.89978 28.8025 7.07401 28.905 7.26875 28.9255C7.62748 28.9665 7.9657 28.741 8.0682 28.3925L24.2109 27.0601L11.1225 33.4659C11.1225 33.4659 11.0302 33.3839 10.979 33.3634C10.8048 33.2712 10.61 33.2404 10.4255 33.2917C10.2411 33.3429 10.0771 33.4659 9.98482 33.6402C9.79008 33.9886 9.91307 34.4396 10.2615 34.6446C10.4358 34.7471 10.6305 34.7676 10.815 34.7163C10.9995 34.6651 11.1635 34.5421 11.2557 34.3679C11.3275 34.2346 11.3582 34.0809 11.348 33.9374L24.6926 27.4086L19.9676 33.6299C19.6192 33.5274 19.2399 33.6914 19.0862 34.0296C19.0042 34.2039 18.994 34.4089 19.0657 34.5934C19.1375 34.7778 19.2707 34.9213 19.4552 35.0033C19.6294 35.0853 19.8344 35.0853 20.0189 35.0238C20.2034 34.9521 20.3469 34.8188 20.4289 34.6343C20.5314 34.4089 20.5109 34.1526 20.3776 33.9374L24.8463 28.0645L21.0336 39.7897C20.9823 39.7897 20.9208 39.7897 20.8696 39.8102C20.6748 39.8615 20.5211 39.9845 20.4186 40.1485C20.3161 40.3227 20.2956 40.5174 20.3469 40.7019C20.3981 40.8967 20.5211 41.0504 20.6953 41.1529C20.8696 41.2554 21.0643 41.2759 21.2488 41.2247C21.6383 41.1222 21.874 40.7122 21.7715 40.3227C21.7305 40.169 21.6383 40.0357 21.5153 39.9435L25.615 27.3368L33.4557 41.2144C33.2302 41.4809 33.22 41.8806 33.4557 42.1573C33.5992 42.3316 33.8145 42.4238 34.0194 42.4238C34.1834 42.4238 34.3474 42.3726 34.4909 42.2496C34.7984 41.9934 34.8394 41.5219 34.5832 41.2144C34.4192 41.0094 34.1629 40.9172 33.9067 40.9582L26.0967 27.1319L40.5483 31.6211C40.5483 31.8363 40.6507 32.0208 40.8045 32.1438C41.1222 32.4 41.5834 32.3488 41.8397 32.0413C42.0959 31.7235 42.0447 31.2623 41.7372 31.0061C41.4194 30.7499 40.9582 30.8011 40.702 31.1188C40.702 31.1188 40.702 31.1188 40.702 31.1291L26.6399 26.7629L42.0447 23.9341C42.2189 24.2313 42.5879 24.3748 42.9158 24.2518C43.1003 24.1903 43.2438 24.0468 43.3361 23.8726C43.4181 23.6983 43.4283 23.4934 43.3566 23.3089L43.3361 23.2986Z" fill="black"/>
</svg>
