<svg width="50" height="50" viewBox="0 0 50 50" fill="none" xmlns="http://www.w3.org/2000/svg">
<path d="M38.3629 22.5169C40.6167 20.7119 41.574 19.2061 41.1352 18.149C40.4471 16.5036 36.4782 16.5136 30.4848 18.1789C29.4377 17.7701 28.3806 17.4111 27.3435 17.1019C17.7103 14.2499 8.815 15.4765 7.52857 19.8244C6.89034 21.9884 8.17677 24.5413 11.1485 27.0443C8.22663 29.1584 6.95018 30.9036 7.44879 32.1102C7.95738 33.3269 10.1712 33.646 13.8111 33.0476C15.4565 32.7784 17.3014 32.3296 19.3158 31.7213C20.4028 32.1501 21.5396 32.5391 22.6865 32.8781C26.1469 33.9053 29.6072 34.4438 32.6987 34.4438C33.7158 34.4438 34.6931 34.3839 35.6006 34.2742C39.41 33.7856 41.8632 32.3296 42.5014 30.1656C43.1696 27.892 41.6638 25.1197 38.3629 22.5169ZM22.8959 32.1601C22.1081 31.9208 21.3003 31.6615 20.4826 31.3623C22.2975 30.774 24.1524 30.0958 26.0172 29.318C30.764 27.3535 34.9125 25.1097 37.7446 22.9856C40.8959 25.4089 42.3618 27.9418 41.7635 29.9463C41.215 31.8011 38.9912 33.0676 35.4909 33.5163C31.8909 33.9751 27.4133 33.4864 22.8859 32.1501L22.8959 32.1601ZM8.14685 31.821C7.88757 31.1928 8.68536 29.7368 11.7269 27.5629L11.7568 27.5429C13.5219 28.9191 15.7358 30.1956 18.1989 31.2626C16.5435 31.7313 15.0277 32.0803 13.6815 32.2997C9.99173 32.918 8.40613 32.4493 8.13688 31.821H8.14685ZM8.25655 20.0338C8.94464 17.6903 12.3252 16.2942 17.3014 16.2942C20.343 16.2942 23.7435 16.8227 27.1341 17.8299C27.8222 18.0294 28.5302 18.2687 29.2682 18.5379C27.0942 19.1961 24.8405 20.0039 22.5568 20.9512C18.3984 22.6765 14.589 24.6709 11.7768 26.6055C8.98453 24.3119 7.6981 21.9285 8.25655 20.0438V20.0338ZM40.4372 18.4382C40.7363 19.1562 39.7491 20.4526 37.7347 22.0283C36.0394 20.7917 33.9552 19.6349 31.6815 18.6576C34.2144 18.0094 36.3784 17.6704 37.9541 17.6704C39.3502 17.6704 40.2277 17.9396 40.4372 18.4382ZM19.3457 30.9235C16.6931 29.8565 14.2998 28.5402 12.405 27.0942C15.1474 25.2294 18.8372 23.3047 22.846 21.6493C25.4089 20.5922 28.0416 19.6648 30.4748 18.9867C32.9779 19.974 35.2615 21.1906 37.1064 22.497C34.2942 24.5512 30.1757 26.7751 25.728 28.61C23.564 29.5075 21.41 30.2853 19.3457 30.9136V30.9235Z" fill="black"/>
</svg>
