<svg width="50" height="50" viewBox="0 0 50 50" fill="none" xmlns="http://www.w3.org/2000/svg">
<path d="M24.9488 38.7219C22.8784 38.7219 21.1975 40.3574 21.1975 42.4216V42.8006H28.3105L28.7 42.7507V42.3718C28.7 40.3574 27.0191 38.7219 24.9488 38.7219ZM22.0994 41.943C22.3147 40.5967 23.5139 39.5596 24.9488 39.5596C26.3837 39.5596 27.5828 40.5967 27.7981 41.943H22.0994Z" fill="black"/>
<path d="M24.9488 33.4565C22.8784 33.4565 21.1975 35.092 21.1975 37.1563V37.5352H28.3105L28.7 37.4854V37.1064C28.7 35.092 27.0191 33.4565 24.9488 33.4565ZM22.0994 36.6876C22.3147 35.3413 23.5139 34.3042 24.9488 34.3042C26.3837 34.3042 27.5828 35.3413 27.7981 36.6876H22.0994Z" fill="black"/>
<path d="M24.9488 28.2012C22.8784 28.2012 21.1975 29.8366 21.1975 31.9009V32.2798H28.3105L28.7 32.23V31.851C28.7 29.8366 27.0191 28.2012 24.9488 28.2012ZM22.0994 31.4222C22.3147 30.076 23.5139 29.0388 24.9488 29.0388C26.3837 29.0388 27.5828 30.076 27.7981 31.4222H22.0994Z" fill="black"/>
<path d="M24.9488 22.9457C22.8784 22.9457 21.1975 24.5811 21.1975 26.6454V27.0243H28.3105L28.7 26.9745V26.5955C28.7 24.5811 27.0191 22.9457 24.9488 22.9457ZM22.0994 26.1667C22.3147 24.8205 23.5139 23.7834 24.9488 23.7834C26.3837 23.7834 27.5828 24.8205 27.7981 26.1667H22.0994Z" fill="black"/>
<path d="M24.9488 17.6803C22.8784 17.6803 21.1975 19.3158 21.1975 21.38V21.759H28.3105L28.7 21.7091V21.3302C28.7 19.3158 27.0191 17.6803 24.9488 17.6803ZM22.0994 20.9113C22.3147 19.5651 23.5139 18.5279 24.9488 18.5279C26.3837 18.5279 27.5828 19.5651 27.7981 20.9113H22.0994Z" fill="black"/>
<path d="M24.9488 12.4249C22.8784 12.4249 21.1975 14.0604 21.1975 16.1246V16.5036H28.3105L28.7 16.4537V16.0748C28.7 14.0604 27.0191 12.4249 24.9488 12.4249ZM22.0994 15.646C22.3147 14.2997 23.5139 13.2626 24.9488 13.2626C26.3837 13.2626 27.5828 14.2997 27.7981 15.646H22.0994Z" fill="black"/>
<path d="M24.9488 7.15955C22.8784 7.15955 21.1975 8.795 21.1975 10.8593V11.2382H28.3105L28.7 11.1884V10.8094C28.7 8.795 27.0191 7.15955 24.9488 7.15955ZM22.0994 10.3906C22.3147 9.04431 23.5139 8.00719 24.9488 8.00719C26.3837 8.00719 27.5828 9.04431 27.7981 10.3906H22.0994Z" fill="black"/>
</svg>
