<svg width="50" height="50" viewBox="0 0 50 50" fill="none" xmlns="http://www.w3.org/2000/svg">
<path d="M42.0655 21.0546C42.0818 20.9868 42.0871 20.9155 42.0649 20.8441C42.0647 20.8436 42.0651 20.8431 42.0649 20.8426C42.0642 20.8405 42.0622 20.8396 42.0615 20.8376C42.0393 20.7687 41.9972 20.7157 41.9474 20.6724C41.9357 20.6621 41.926 20.653 41.9132 20.6443C41.8589 20.6077 41.7981 20.5852 41.7324 20.5823C41.7276 20.5821 41.7241 20.5778 41.7192 20.5778L29.1154 20.5758L25.1787 7.76762C25.1776 7.76413 25.1739 7.76321 25.1728 7.75983C25.1231 7.6108 24.992 7.50226 24.834 7.50195C24.834 7.50195 24.8335 7.50195 24.833 7.50195C24.675 7.50195 24.5438 7.60998 24.4938 7.75921C24.4925 7.7628 24.4886 7.76393 24.4874 7.76762L20.5501 20.5772L7.9198 20.6579C7.91573 20.6579 7.91292 20.6614 7.90884 20.6617C7.84136 20.6641 7.7797 20.6878 7.72483 20.7261C7.71339 20.7341 7.70456 20.7424 7.69409 20.7517C7.6428 20.7966 7.59879 20.8516 7.57659 20.9236C7.57649 20.9237 7.57668 20.9234 7.57659 20.9236C7.57649 20.9238 7.5761 20.9244 7.5761 20.9247C7.57571 20.9258 7.57639 20.9268 7.5761 20.9279C7.55526 20.9985 7.5601 21.0689 7.57639 21.1358C7.57998 21.1508 7.5826 21.1637 7.58783 21.1781C7.6113 21.2427 7.64833 21.2995 7.70107 21.3427C7.70437 21.3454 7.70476 21.3503 7.70815 21.353L17.9038 29.1866L13.9675 41.9943C13.9664 41.9981 13.9686 42.0017 13.9675 42.0055C13.9485 42.0741 13.9502 42.144 13.9673 42.2118C13.971 42.2264 13.976 42.2383 13.9812 42.2524C14.0055 42.3178 14.0409 42.3791 14.0986 42.4235C14.0984 42.4235 14.0987 42.4236 14.0986 42.4235C14.0989 42.4237 14.0993 42.4242 14.0996 42.4245C14.1506 42.464 14.2114 42.4757 14.2713 42.4833C14.2856 42.4851 14.2982 42.4976 14.3126 42.4976C14.313 42.4976 14.3138 42.4972 14.3142 42.4972C14.3817 42.4969 14.4451 42.4711 14.5031 42.4326C14.5104 42.4278 14.5196 42.43 14.5266 42.4245L24.8344 34.5084L35.0972 42.2905C35.104 42.2957 35.113 42.2935 35.12 42.2981C35.1781 42.3366 35.2417 42.3625 35.3094 42.3625C35.3092 42.3625 35.3096 42.3625 35.3094 42.3625C35.3457 42.3624 35.378 42.3386 35.4129 42.3271C35.45 42.315 35.4893 42.3148 35.5224 42.2895C35.5231 42.289 35.5234 42.2882 35.524 42.2876C35.524 42.2877 35.5241 42.2875 35.524 42.2876C35.5242 42.2874 35.5245 42.287 35.5247 42.2868C35.5823 42.2419 35.6179 42.1807 35.6418 42.115C35.6469 42.1013 35.6518 42.0899 35.6554 42.0757C35.6722 42.0089 35.6734 41.94 35.6548 41.8722C35.6536 41.8675 35.6563 41.8628 35.6547 41.8581L31.7027 29.2087L41.9339 21.2719C41.9369 21.2695 41.9371 21.2653 41.94 21.263C41.9932 21.2192 42.0303 21.1618 42.0538 21.0965C42.0593 21.0823 42.0621 21.0695 42.0655 21.0546ZM20.5434 21.3462C20.6151 21.4305 20.7068 21.4799 20.8196 21.4781L24.035 26.1727L10.1754 21.4123L20.5434 21.3462ZM28.3865 21.1238L25.1413 25.8136L25.1892 10.2886L28.4217 20.805C28.3667 20.905 28.3517 21.0203 28.3865 21.1238ZM24.4157 25.4178L21.2482 20.7933L24.462 10.3373L24.4157 25.4178ZM24.3896 33.8994L15.9761 40.3613L24.4071 28.1769L24.3896 33.8994ZM25.1351 27.7789L33.7018 40.2862L25.1166 33.776L25.1351 27.7789ZM29.1348 21.3446L39.4121 21.3463L25.952 25.9443L29.1348 21.3446ZM9.99168 22.1569L23.4781 26.7894L18.3166 28.5526L9.99168 22.1569ZM18.5928 29.4323C18.693 29.3851 18.7693 29.3007 18.7986 29.1955L24.0399 27.4052L15.3613 39.9471L18.5928 29.4323ZM34.2297 39.7467L25.9325 27.6324L30.9874 29.3687L34.2297 39.7467ZM31.2099 28.6371L25.8367 26.7915L39.6912 22.0589L31.2099 28.6371Z" fill="#081219"/>
</svg>
