<svg width="50" height="50" viewBox="0 0 50 50" fill="none" xmlns="http://www.w3.org/2000/svg">
<path d="M26.6475 26.046C26.6201 25.5779 26.5961 25.1439 26.5771 24.8001L26.5412 24.1086C35.9381 23.7363 43.3473 20.0068 43.3473 15.4681C43.3473 10.6837 35.1168 6.79126 24.9996 6.79126C14.883 6.79126 6.65247 10.6838 6.65247 15.4681C6.65247 19.9744 13.9544 23.6865 23.2552 24.1037C23.2855 24.7266 23.3084 25.4257 23.2918 26.047C13.7984 26.4619 6.65247 30.1621 6.65247 34.6795C6.65247 39.4639 14.883 43.3564 24.9996 43.3564C35.1168 43.3564 43.3473 39.4638 43.3473 34.6795C43.3474 30.2222 36.0207 26.4422 26.6475 26.046ZM6.9088 15.4681C6.9088 10.8249 15.0242 7.04749 24.9998 7.04749C34.9758 7.04749 43.0912 10.8249 43.0912 15.4681C43.0912 20.1114 34.9758 23.8893 24.9998 23.8893C15.0242 23.8893 6.9088 20.1114 6.9088 15.4681ZM23.3023 28.8733L23.3004 28.8734C23.3561 28.4679 23.4097 28.0637 23.4462 27.6539L23.4515 27.592L23.464 27.4459L23.4629 27.446C23.4938 27.0775 23.5273 26.6346 23.5416 26.1718L23.5423 26.1483C23.562 25.5045 23.558 24.7616 23.5293 24.1102C24.0158 24.1286 24.5036 24.1455 25 24.1455C25.4337 24.1455 25.8586 24.1288 26.2849 24.1147L26.3221 24.8142C26.3412 25.165 26.3644 25.5875 26.3904 26.0337L26.3982 26.1749C26.3991 26.1896 26.4002 26.2058 26.4011 26.2207C26.4243 26.6132 26.4506 27.0233 26.4787 27.4351C26.4788 27.4372 26.4789 27.439 26.4791 27.4411L26.4884 27.5851L26.4964 27.6982C26.5715 28.7572 26.6634 29.7611 26.7695 30.3908L26.7927 30.5278C26.7987 30.5709 26.8057 30.6139 26.8126 30.6459C26.8947 31.0334 26.9992 31.4151 27.1008 31.7885L27.0979 31.788L27.1264 31.8902C27.1273 31.8935 27.128 31.8968 27.1288 31.9001L27.1559 31.9977C27.1736 32.0647 27.1898 32.1326 27.2059 32.2004C27.229 32.2955 27.2519 32.3905 27.279 32.4837L27.3281 32.6509C27.4041 32.9081 27.4822 33.1743 27.5803 33.4196C27.6053 33.4816 27.6343 33.5427 27.6714 33.6128C27.7405 33.7489 27.8056 33.878 27.8056 34.0202C27.8056 34.7118 26.4804 35.2963 24.912 35.2963C23.3437 35.2963 22.0184 34.7118 22.0184 34.0202C22.0184 33.8341 22.1306 33.6119 22.2386 33.3976C22.3026 33.2706 22.3632 33.1515 22.4018 33.0373C22.505 32.7287 22.5853 32.4052 22.6632 32.0915L22.6655 32.0834L22.6974 31.9553C22.7165 31.8792 22.7355 31.8032 22.7555 31.728C22.844 31.3887 22.9156 31.0374 22.9846 30.6981L23.0403 30.427C23.1268 29.9994 23.2 29.5688 23.2643 29.1327L23.2794 29.0305L23.3023 28.8733ZM22.5072 31.6639C22.4887 31.733 22.4711 31.8032 22.4535 31.8732C22.2981 31.9058 22.1574 31.9476 22.0103 31.9853C21.898 32.0142 21.7796 32.039 21.6723 32.0708C21.5169 32.1168 21.3763 32.1708 21.2317 32.2228C21.1327 32.2583 21.027 32.29 20.9333 32.3281C20.7972 32.3836 20.677 32.4462 20.5523 32.5069C20.4657 32.549 20.3716 32.5875 20.2907 32.6319C20.1759 32.695 20.0783 32.7646 19.9753 32.8322C19.9007 32.8811 19.8178 32.9268 19.7496 32.9779C19.6579 33.0467 19.5845 33.1211 19.5046 33.1936C19.443 33.2494 19.3722 33.3025 19.3177 33.3605C19.2456 33.4374 19.1933 33.5192 19.1342 33.5996C19.0909 33.6583 19.0375 33.7143 19.0014 33.7747C18.9468 33.8663 18.914 33.9623 18.8763 34.0572C18.8551 34.1105 18.8225 34.1616 18.8068 34.2159C18.763 34.367 18.7402 34.5218 18.7402 34.6794C18.7402 36.395 21.4897 37.7393 24.9999 37.7393C28.51 37.7393 31.2605 36.3951 31.2605 34.6794C31.2605 34.5194 31.2361 34.3621 31.1894 34.2083C31.1749 34.1605 31.1444 34.1157 31.1256 34.0687C31.0837 33.964 31.0447 33.8589 30.982 33.7582C30.9497 33.7065 30.9013 33.6585 30.8637 33.6079C30.7955 33.5159 30.7318 33.4231 30.6466 33.3354C30.5969 33.2843 30.5317 33.238 30.4764 33.1885C30.3846 33.1064 30.2977 33.0227 30.1911 32.9454C30.1247 32.8973 30.0438 32.8546 29.9718 32.8084C29.8587 32.7359 29.7505 32.6617 29.6242 32.5946C29.5421 32.5509 29.4469 32.5135 29.3595 32.4723C29.2265 32.4096 29.0979 32.3448 28.9529 32.2881C28.8542 32.2493 28.7433 32.2177 28.6394 32.182C28.4912 32.131 28.3472 32.0777 28.1886 32.0329C28.0674 31.9987 27.9346 31.9727 27.8078 31.9422C27.6647 31.908 27.5283 31.8691 27.3781 31.84L27.3759 31.8319C27.2659 31.4284 27.1517 31.0111 27.0626 30.5908C27.0621 30.5882 27.0616 30.5839 27.0611 30.5813C27.1544 30.5912 27.2458 30.6029 27.3377 30.614C27.475 30.6306 27.613 30.6465 27.7472 30.666C27.8667 30.6832 27.9825 30.7036 28.0996 30.7231C28.2255 30.744 28.3525 30.7639 28.4755 30.7872C28.595 30.8099 28.7103 30.8357 28.827 30.8606C28.942 30.8852 29.0585 30.9087 29.1706 30.9353C29.2863 30.9629 29.3974 30.9935 29.5099 31.0232C29.6175 31.0516 29.7268 31.0789 29.8315 31.1093C29.9412 31.1412 30.0458 31.1761 30.152 31.21C30.2525 31.2422 30.3551 31.2732 30.4525 31.3071C30.5574 31.3437 30.6568 31.3832 30.7578 31.422C30.8494 31.457 30.9434 31.4908 31.0318 31.5276C31.1308 31.5686 31.2236 31.6126 31.3186 31.6557C31.4019 31.6935 31.4879 31.7302 31.5679 31.7694C31.6596 31.8144 31.7446 31.8623 31.8318 31.9092C31.9075 31.9499 31.986 31.9894 32.0581 32.0315C32.1416 32.0801 32.2176 32.1313 32.2963 32.1817C32.3643 32.2251 32.4354 32.2675 32.4998 32.3121C32.5739 32.3636 32.6401 32.4176 32.7093 32.4707C32.7698 32.5171 32.8338 32.5625 32.8905 32.6101C32.9555 32.6647 33.0121 32.7216 33.0719 32.7777C33.1237 32.8262 33.1795 32.8738 33.2273 32.9235C33.2833 32.9817 33.3305 33.0421 33.381 33.1016C33.4233 33.1517 33.4701 33.2005 33.5084 33.2515C33.5556 33.314 33.593 33.3786 33.634 33.4424C33.6661 33.4924 33.7029 33.5414 33.7311 33.5923C33.7683 33.6592 33.7952 33.7281 33.8255 33.7962C33.8476 33.8459 33.875 33.8947 33.8934 33.9451C33.9213 34.0211 33.9378 34.099 33.9569 34.1765C33.9678 34.2204 33.9845 34.2636 33.9925 34.3079C34.0147 34.4304 34.0262 34.5544 34.0262 34.6796C34.0262 37.0388 30.0616 38.8875 25.0001 38.8875C19.939 38.8875 15.9748 37.0388 15.9748 34.6796C15.9748 34.5574 15.986 34.4362 16.0076 34.3164C16.0154 34.2729 16.0317 34.2306 16.0423 34.1875C16.0609 34.1116 16.077 34.0354 16.1041 33.9606C16.121 33.914 16.1462 33.8688 16.1664 33.8227C16.1968 33.7529 16.2243 33.6827 16.262 33.6141C16.2876 33.5675 16.3214 33.5225 16.3503 33.4765C16.3919 33.4102 16.4306 33.3434 16.4789 33.2785C16.5136 33.2319 16.5561 33.1869 16.5941 33.141C16.6457 33.0788 16.6945 33.0161 16.7522 32.9553C16.7957 32.9096 16.8462 32.8658 16.8931 32.821C16.9545 32.7622 17.0134 32.7026 17.0803 32.6453C17.1321 32.6011 17.1906 32.5589 17.2456 32.5157C17.316 32.4603 17.3841 32.4044 17.4598 32.3508C17.5207 32.3076 17.588 32.2667 17.6521 32.2247C17.7302 32.1736 17.8062 32.1217 17.889 32.0724C17.9588 32.0308 18.0347 31.9916 18.1078 31.9514C18.1928 31.9045 18.2757 31.8569 18.3651 31.8119C18.4432 31.7725 18.5271 31.7355 18.6085 31.6976C18.7005 31.6546 18.7908 31.611 18.887 31.5699C18.9726 31.5333 19.0635 31.4994 19.1523 31.4643C19.2508 31.4255 19.3478 31.3857 19.4502 31.3488C19.5458 31.3144 19.6462 31.2826 19.745 31.2499C19.847 31.2161 19.9476 31.1815 20.0528 31.1497C20.159 31.1176 20.2698 31.0884 20.3792 31.0583C20.4831 31.0297 20.5857 31.0003 20.6924 30.9737C20.8082 30.9448 20.9283 30.9188 21.0474 30.8923C21.1542 30.8684 21.2598 30.8436 21.369 30.8216C21.4937 30.7966 21.6223 30.7746 21.7501 30.7522C21.859 30.733 21.9667 30.7129 22.0777 30.6956C22.2117 30.6747 22.3495 30.6572 22.4866 30.639C22.5705 30.6281 22.6538 30.6165 22.7388 30.6066C22.6636 30.9602 22.5975 31.3184 22.5072 31.6639ZM24.9117 35.5524C26.6783 35.5524 28.0615 34.8798 28.0615 34.02C28.0615 33.8168 27.9754 33.6466 27.8944 33.4865C27.8664 33.4325 27.8393 33.3794 27.8183 33.3244C27.7242 33.0912 27.6482 32.8299 27.5741 32.5787L27.525 32.4105C27.4989 32.3215 27.4769 32.2314 27.4549 32.1413C27.4534 32.1348 27.4519 32.1286 27.4505 32.1224C27.5689 32.1469 27.6835 32.1739 27.7973 32.2017C27.9114 32.2294 28.0287 32.2552 28.1378 32.286C28.2805 32.3264 28.4125 32.3726 28.5461 32.418C28.649 32.453 28.756 32.4858 28.8534 32.5236C28.9789 32.5723 29.0923 32.6266 29.2082 32.6797C29.299 32.7213 29.3947 32.7607 29.4793 32.8048C29.5868 32.8609 29.6804 32.922 29.7776 32.9818C29.8545 33.0293 29.9378 33.0746 30.0081 33.1242C30.0976 33.1874 30.1714 33.2554 30.2497 33.3219C30.3102 33.3735 30.3784 33.423 30.432 33.4765C30.5038 33.5481 30.5577 33.6238 30.6167 33.6985C30.6585 33.7513 30.7091 33.8023 30.7441 33.8565C30.7988 33.9415 30.833 34.0299 30.8707 34.1178C30.891 34.1652 30.922 34.211 30.9372 34.2592C30.9806 34.3967 31.0039 34.5371 31.0039 34.6796C31.0039 36.2521 28.3665 37.4832 24.9994 37.4832C21.6329 37.4832 18.996 36.2521 18.996 34.6796C18.996 34.5415 19.0183 34.405 19.0599 34.2711C19.0734 34.2272 19.1013 34.1854 19.1191 34.1423C19.1558 34.0534 19.1903 33.9641 19.2446 33.878C19.2764 33.8276 19.3226 33.78 19.3602 33.7307C19.4179 33.655 19.4717 33.5786 19.5426 33.5059C19.5933 33.4539 19.6575 33.4055 19.7148 33.3553C19.7898 33.2894 19.8609 33.2225 19.9467 33.1598C20.0168 33.1085 20.0994 33.0614 20.1764 33.0124C20.2654 32.9558 20.3509 32.8981 20.4486 32.8448C20.5383 32.7961 20.6391 32.7519 20.7359 32.7061C20.8365 32.6586 20.9342 32.6097 21.0422 32.5654C21.1502 32.5213 21.2682 32.4822 21.3834 32.4417C21.4942 32.4026 21.6025 32.3624 21.7197 32.3269C21.8446 32.2891 21.9783 32.2567 22.1101 32.2232C22.1987 32.2006 22.2873 32.1779 22.3789 32.1574C22.3117 32.4254 22.2442 32.6985 22.1579 32.955C22.1254 33.0511 22.0694 33.1631 22.0093 33.2813C21.8932 33.5115 21.7616 33.7728 21.7616 34.02C21.7618 34.8798 23.1455 35.5524 24.9117 35.5524ZM22.4032 30.3925C22.2937 30.4074 22.1822 30.4202 22.0747 30.4368C21.9369 30.4581 21.8039 30.4836 21.6694 30.5077C21.5573 30.5279 21.443 30.5462 21.3332 30.5683C21.2094 30.5933 21.0906 30.6221 20.9698 30.6495C20.8546 30.6756 20.7374 30.7 20.625 30.7283C20.5174 30.7555 20.415 30.7861 20.3103 30.8151C20.1913 30.848 20.0703 30.8796 19.955 30.915C19.8592 30.9444 19.7688 30.9771 19.6756 31.0081C19.5587 31.0471 19.4398 31.0847 19.3272 31.1261C19.2404 31.158 19.1595 31.1928 19.0753 31.2261C18.9626 31.2707 18.8477 31.3142 18.7397 31.3613C18.6656 31.3936 18.5972 31.4288 18.5255 31.4622C18.4149 31.5136 18.3024 31.5644 18.1975 31.6185C18.1324 31.6521 18.0733 31.6882 18.0104 31.7227C17.9065 31.7798 17.8007 31.8361 17.7031 31.8957C17.6437 31.9319 17.5909 31.9705 17.534 32.0076C17.4404 32.0686 17.3447 32.1289 17.2577 32.1922C17.2037 32.2315 17.1567 32.273 17.1053 32.3132C17.0235 32.377 16.9394 32.4401 16.8643 32.5061C16.8146 32.5496 16.7725 32.5955 16.7258 32.64C16.6574 32.7051 16.5862 32.7694 16.5244 32.8363C16.4803 32.8841 16.4446 32.9338 16.4038 32.9823C16.3484 33.0484 16.2898 33.1136 16.2409 33.1812C16.2016 33.2355 16.1715 33.2917 16.1365 33.3469C16.0959 33.411 16.0509 33.474 16.0161 33.5393C15.9822 33.6028 15.9585 33.6683 15.9302 33.7329C15.9044 33.7918 15.8735 33.8497 15.8524 33.9094C15.8252 33.987 15.8094 34.0664 15.7903 34.1453C15.7787 34.1937 15.7609 34.2413 15.7524 34.2901C15.73 34.4186 15.7184 34.5484 15.7184 34.6797C15.7184 37.183 19.7951 39.1438 24.9999 39.1438C30.2047 39.1438 34.2822 37.183 34.2822 34.6797C34.2822 34.5456 34.2704 34.4128 34.2473 34.2816C34.2396 34.2381 34.2234 34.1958 34.2134 34.1526C34.193 34.0657 34.1746 33.9784 34.1444 33.893C34.1275 33.8453 34.1018 33.7991 34.0818 33.7521C34.0484 33.673 34.0178 33.5935 33.9761 33.516C33.9484 33.4649 33.912 33.4156 33.8808 33.3652C33.8365 33.2936 33.7959 33.2214 33.7447 33.1516C33.7077 33.101 33.6622 33.0528 33.6216 33.0031C33.5663 32.9356 33.5146 32.8673 33.4529 32.8014C33.4061 32.7515 33.3511 32.7041 33.3007 32.6552C33.2357 32.5921 33.1741 32.5283 33.1032 32.4671C33.0494 32.4207 32.9879 32.3768 32.9308 32.3314C32.8539 32.2703 32.7798 32.2083 32.697 32.1493C32.6375 32.1069 32.571 32.0672 32.5087 32.0259C32.4198 31.9671 32.3335 31.9074 32.2388 31.8509C32.1724 31.8114 32.0994 31.7745 32.0302 31.736C31.9308 31.6809 31.8339 31.6247 31.7289 31.572C31.6574 31.5362 31.5799 31.5032 31.5058 31.4684C31.3957 31.4168 31.2878 31.3643 31.1722 31.3154C31.0958 31.2831 31.0138 31.2538 30.9351 31.2227C30.8139 31.1748 30.6943 31.126 30.5675 31.0811C30.4912 31.054 30.4101 31.03 30.3319 31.004C30.1963 30.959 30.0619 30.9134 29.9209 30.8719C29.8411 30.8484 29.757 30.828 29.6756 30.8057C29.5297 30.7657 29.3849 30.7251 29.2337 30.6889C29.1526 30.6694 29.0675 30.653 28.9849 30.6346C28.8269 30.5996 28.6698 30.5641 28.5067 30.5331C28.4274 30.5181 28.3446 30.506 28.2642 30.492C28.0926 30.462 27.9213 30.432 27.7445 30.4067C27.6662 30.3955 27.585 30.3873 27.5058 30.3771C27.3445 30.3562 27.1848 30.3336 27.0195 30.3168C26.9956 30.1738 26.9718 30.0178 26.9485 29.8311C26.9471 29.8204 26.9457 29.8133 26.9444 29.8024C26.944 29.7998 26.9437 29.7972 26.9434 29.7946C26.9201 29.6044 26.8972 29.3786 26.8746 29.1461C27.0705 29.1606 27.263 29.1794 27.4555 29.1982C27.5911 29.2114 27.7288 29.2219 27.8627 29.2372C28.0771 29.2618 28.2856 29.2929 28.4951 29.3227C28.6323 29.3423 28.7721 29.3591 28.9071 29.3809C29.1081 29.4133 29.3025 29.4518 29.4985 29.4889C29.6347 29.5147 29.7738 29.5379 29.9074 29.5658C30.096 29.6054 30.2774 29.6508 30.4606 29.6947C30.5937 29.7265 30.7302 29.7559 30.8604 29.79C31.0372 29.8363 31.206 29.8881 31.3772 29.9383C31.5052 29.9759 31.637 30.0112 31.7617 30.0509C31.9274 30.1037 32.0842 30.1616 32.2438 30.2181C32.3646 30.2608 32.4895 30.3012 32.6067 30.346C32.7603 30.4047 32.9044 30.4683 33.0516 30.5303C33.1651 30.5782 33.283 30.6237 33.3924 30.6735C33.534 30.7378 33.6654 30.8068 33.8002 30.8744C33.9041 30.9264 34.0132 30.9763 34.1129 31.0304C34.2439 31.1011 34.3636 31.1761 34.487 31.2498C34.5794 31.3049 34.677 31.358 34.765 31.4147C34.8841 31.4915 34.9911 31.5722 35.1018 31.6518C35.1821 31.7095 35.2684 31.7652 35.3443 31.8243C35.451 31.9074 35.5445 31.994 35.642 32.0796C35.7095 32.1387 35.7834 32.1961 35.8463 32.2565C35.9391 32.3456 36.018 32.438 36.1008 32.5294C36.1553 32.5897 36.2169 32.6482 36.267 32.7095C36.3443 32.804 36.4064 32.9015 36.4729 32.9981C36.5148 33.0592 36.5645 33.1188 36.602 33.1806C36.6631 33.2814 36.7078 33.3848 36.7567 33.4877C36.7853 33.5479 36.8222 33.6067 36.8465 33.6675C36.8921 33.7814 36.9202 33.8976 36.9504 34.0134C36.964 34.0652 36.986 34.1158 36.9965 34.1679C37.0302 34.3367 37.0476 34.5073 37.0476 34.6794C37.0476 37.7742 31.6427 40.2915 24.9996 40.2915C18.3571 40.2915 12.9527 37.7742 12.9527 34.6794C12.9527 34.5091 12.9699 34.3401 13.0032 34.1729C13.0145 34.1161 13.0382 34.061 13.0533 34.0047C13.0825 33.8951 13.1084 33.7852 13.1512 33.6774C13.1791 33.6073 13.2208 33.5394 13.2544 33.4701C13.299 33.3781 13.3381 33.2851 13.3926 33.1947C13.4353 33.1239 13.4909 33.0554 13.5395 32.9857C13.5997 32.8991 13.6543 32.8116 13.7233 32.7268C13.7797 32.6574 13.8484 32.5908 13.9105 32.5228C13.9855 32.4406 14.0554 32.3571 14.1386 32.2768C14.21 32.2078 14.2932 32.1418 14.3705 32.0745C14.4576 31.9984 14.5396 31.921 14.6339 31.8469C14.7215 31.7782 14.8205 31.7129 14.9141 31.6459C15.0108 31.5769 15.1025 31.5063 15.2053 31.4393C15.307 31.3731 15.4193 31.3107 15.5269 31.2466C15.6339 31.1829 15.7364 31.1175 15.8492 31.0559C15.9641 30.9932 16.0888 30.9345 16.2094 30.8741C16.326 30.8157 16.4383 30.7555 16.5601 30.6995C16.686 30.6415 16.8212 30.5879 16.9525 30.5324C17.0799 30.4786 17.2035 30.423 17.3358 30.3716C17.4732 30.3184 17.6188 30.2699 17.7612 30.2193C17.8966 30.1714 18.0286 30.1215 18.1684 30.076C18.3188 30.0272 18.477 29.9835 18.6324 29.9378C18.7736 29.8963 18.9117 29.8527 19.0567 29.8139C19.2144 29.7716 19.3793 29.7346 19.5415 29.6957C19.6934 29.6592 19.8426 29.6207 19.9982 29.5872C20.1611 29.5521 20.3303 29.5224 20.497 29.4907C20.6591 29.4599 20.8189 29.4271 20.9844 29.3994C21.1534 29.3712 21.3279 29.3487 21.5004 29.324C21.6709 29.2996 21.8395 29.2731 22.0131 29.2522C22.1858 29.2314 22.3633 29.2165 22.539 29.1993C22.6914 29.1844 22.843 29.1683 22.9975 29.1561C22.9354 29.5678 22.8687 29.9608 22.7925 30.3401C22.6604 30.3549 22.5331 30.3749 22.4032 30.3925ZM22.6018 28.9354C22.3919 28.9551 22.1802 28.9725 21.9748 28.997C21.8166 29.0159 21.6645 29.0405 21.5091 29.0621C21.3082 29.0901 21.1049 29.1158 20.9087 29.1482C20.7543 29.1737 20.6065 29.205 20.4552 29.2331C20.2661 29.2685 20.0744 29.3016 19.8904 29.3411C19.738 29.3738 19.593 29.412 19.4443 29.4475C19.2697 29.4891 19.0919 29.5284 18.9225 29.5738C18.7725 29.614 18.6307 29.6596 18.485 29.7026C18.3259 29.7495 18.1632 29.7941 18.0093 29.8442C17.8621 29.8922 17.7242 29.9454 17.582 29.9962C17.4392 30.0473 17.2923 30.096 17.1546 30.1499C17.0073 30.2076 16.8702 30.2705 16.729 30.3313C16.607 30.3838 16.4803 30.4338 16.3631 30.4885C16.22 30.5553 16.088 30.6273 15.952 30.6973C15.8471 30.7513 15.7367 30.8029 15.6363 30.8589C15.5035 30.9328 15.3827 31.0114 15.2578 31.0885C15.1657 31.1453 15.0678 31.1998 14.9801 31.2582C14.855 31.3416 14.743 31.4295 14.627 31.5161C14.5518 31.5723 14.4701 31.6264 14.399 31.6839C14.2851 31.7759 14.1852 31.872 14.0818 31.9671C14.0208 32.0232 13.9527 32.0773 13.8955 32.1345C13.7977 32.2322 13.7148 32.3339 13.6281 32.4345C13.578 32.4929 13.5207 32.5491 13.4745 32.608C13.3937 32.7115 13.3285 32.8181 13.2598 32.9241C13.2212 32.9835 13.1748 33.0412 13.1402 33.1013C13.0763 33.212 13.0292 33.3259 12.9789 33.4391C12.953 33.4971 12.9188 33.5537 12.8965 33.6125C12.8516 33.7312 12.824 33.8526 12.7941 33.9738C12.7803 34.0292 12.7579 34.0835 12.7473 34.1395C12.7138 34.3174 12.6967 34.4976 12.6967 34.6796C12.6967 37.9155 18.2157 40.548 24.9999 40.548C31.784 40.548 37.304 37.9155 37.304 34.6796C37.304 34.4988 37.2863 34.3198 37.2518 34.1426C37.2389 34.0764 37.2122 34.0119 37.1946 33.9463C37.1652 33.8362 37.1405 33.7256 37.0981 33.6174C37.0671 33.538 37.0212 33.461 36.9834 33.3827C36.9391 33.2906 36.9013 33.1974 36.8478 33.1069C36.7969 33.0206 36.7309 32.9372 36.6719 32.8525C36.6163 32.7727 36.5678 32.6916 36.5053 32.6132C36.4343 32.5243 36.3488 32.4389 36.2691 32.352C36.2039 32.281 36.1458 32.2083 36.0748 32.1387C35.9842 32.0498 35.8798 31.9646 35.7802 31.8782C35.7066 31.8143 35.6398 31.7484 35.5613 31.686C35.4535 31.6002 35.3327 31.5187 35.2162 31.4357C35.1327 31.3764 35.0559 31.3149 34.968 31.257C34.8446 31.1756 34.7088 31.0988 34.5769 31.0205C34.4842 30.9655 34.3974 30.9082 34.3007 30.8548C34.1619 30.7781 34.0117 30.7065 33.8647 30.6333C33.7634 30.5829 33.6677 30.53 33.5627 30.4813C33.4112 30.4109 33.2489 30.3457 33.0897 30.2791C32.979 30.2327 32.8733 30.1838 32.7591 30.1392C32.5967 30.0758 32.4247 30.0182 32.2554 29.9588C32.1345 29.9164 32.0181 29.8712 31.8937 29.8308C31.7207 29.7746 31.5389 29.7244 31.3596 29.6723C31.2301 29.6347 31.1046 29.5942 30.972 29.5589C30.7878 29.5097 30.5955 29.4669 30.4055 29.4222C30.2693 29.3903 30.137 29.3552 29.998 29.3256C29.8031 29.284 29.6008 29.2491 29.4006 29.2123C29.2589 29.1862 29.1204 29.1572 28.9761 29.1336C28.7723 29.1003 28.5619 29.074 28.3533 29.0457C28.2054 29.0256 28.0604 29.0024 27.9101 28.985C27.698 28.9604 27.4801 28.9431 27.2635 28.9238C27.1249 28.9115 26.9899 28.8947 26.8498 28.8847C26.8164 28.512 26.7853 28.1184 26.7561 27.715C27.0102 27.7289 27.2588 27.7498 27.5086 27.7692C27.6996 27.7842 27.8942 27.795 28.0824 27.8131C28.3478 27.8387 28.6053 27.8732 28.865 27.905C29.0578 27.9287 29.2542 27.9485 29.4437 27.9755C29.6877 28.0102 29.9229 28.0533 30.1611 28.0935C30.358 28.1268 30.559 28.1564 30.7519 28.1934C30.972 28.2355 31.1826 28.2853 31.3973 28.332C31.5972 28.3756 31.8015 28.4158 31.9963 28.4631C32.1974 28.512 32.3885 28.5681 32.5839 28.6211C32.7807 28.6744 32.9821 28.7246 33.1729 28.7819C33.3552 28.8365 33.5265 28.8978 33.7031 28.956C33.895 29.0192 34.0918 29.0797 34.2768 29.1468C34.4417 29.2068 34.5951 29.2728 34.7543 29.3357C34.9376 29.4082 35.1259 29.4781 35.3013 29.5546C35.4509 29.6196 35.5879 29.6905 35.7315 29.7584C35.9028 29.8394 36.0795 29.9179 36.242 30.0027C36.3774 30.0732 36.4996 30.149 36.6289 30.2222C36.7847 30.3102 36.9462 30.396 37.0926 30.4877C37.2139 30.5635 37.3209 30.6442 37.4355 30.7223C37.5744 30.8169 37.7198 30.9093 37.8487 31.0072C37.955 31.0879 38.046 31.1729 38.1454 31.2557C38.266 31.3562 38.3933 31.4546 38.5034 31.5579C38.5982 31.647 38.6764 31.7401 38.7632 31.8312C38.8601 31.9329 38.9649 32.0326 39.0516 32.1367C39.1339 32.2355 39.1978 32.3382 39.2706 32.439C39.3433 32.5398 39.425 32.6387 39.4881 32.7414C39.5578 32.8548 39.6072 32.9721 39.6648 33.0878C39.7114 33.1815 39.7685 33.2734 39.8069 33.3684C39.8638 33.5089 39.8978 33.6527 39.9364 33.7959C39.9562 33.8694 39.9875 33.9413 40.0025 34.0155C40.0465 34.2343 40.0692 34.4559 40.0692 34.6797C40.0692 38.5482 33.3091 41.6961 24.9995 41.6961C16.6905 41.6961 9.9304 38.5482 9.9304 34.6797C9.9304 34.4567 9.95295 34.236 9.99681 34.018C10.0107 33.9493 10.0401 33.8826 10.0581 33.8145C10.0973 33.6666 10.133 33.5182 10.1917 33.3731C10.2261 33.288 10.278 33.2058 10.3188 33.1216C10.3798 32.9965 10.4342 32.8702 10.5094 32.7476C10.5634 32.6596 10.6344 32.575 10.6955 32.4884C10.7767 32.3732 10.8509 32.2567 10.9444 32.1443C11.0166 32.0573 11.1052 31.9745 11.1846 31.8893C11.2854 31.7812 11.3791 31.6715 11.4911 31.5663C11.5827 31.4801 11.6901 31.3984 11.7891 31.3142C11.9061 31.2147 12.0162 31.1134 12.1432 31.0169C12.2557 30.9315 12.3831 30.851 12.5031 30.768C12.6332 30.678 12.7566 30.5856 12.8955 30.4986C13.0266 30.4164 13.1721 30.3396 13.3107 30.2601C13.4542 30.1779 13.5913 30.0933 13.7426 30.0142C13.8894 29.9375 14.0495 29.8667 14.2033 29.793C14.3616 29.7172 14.5139 29.6389 14.6794 29.5666C14.8414 29.4957 15.0155 29.4312 15.1841 29.3637C15.3552 29.2953 15.5208 29.2241 15.6985 29.1592C15.8795 29.0931 16.0719 29.0339 16.2596 28.9716C16.4377 28.9125 16.6107 28.8503 16.7946 28.7949C16.9896 28.736 17.1954 28.6842 17.3967 28.6294C17.5859 28.5779 17.7706 28.5232 17.9651 28.4755C18.1694 28.4254 18.3831 28.3828 18.5929 28.3368C18.7954 28.2926 18.994 28.2452 19.2015 28.205C19.4146 28.1638 19.6364 28.1303 19.8545 28.0935C20.0691 28.0573 20.28 28.0179 20.4993 27.9861C20.7211 27.9539 20.9506 27.9299 21.1769 27.9024C21.4014 27.8751 21.6229 27.8445 21.8517 27.8218C22.0789 27.7994 22.3131 27.7852 22.5443 27.7675C22.756 27.7513 22.9657 27.7325 23.1805 27.7206C23.1677 27.8556 23.1539 27.9933 23.137 28.1383C23.1329 28.1742 23.1301 28.2065 23.1257 28.2433C23.1038 28.4251 23.0759 28.6295 23.0464 28.84C23.0441 28.8576 23.0416 28.8751 23.0392 28.8928C22.8908 28.9037 22.7482 28.9217 22.6018 28.9354ZM24.9998 43.1003C15.0242 43.1003 6.9088 39.3229 6.9088 34.6796C6.9088 30.3785 14.0868 26.7119 23.2756 26.3024C23.2614 26.689 23.2335 27.0744 23.2018 27.4594C22.9674 27.4723 22.7406 27.4953 22.5099 27.5131C22.2844 27.5305 22.0557 27.5436 21.8339 27.5657C21.5731 27.5914 21.3208 27.6266 21.0653 27.6584C20.863 27.6838 20.6567 27.7047 20.4579 27.7337C20.1886 27.7729 19.9289 27.8214 19.6666 27.8673C19.491 27.8981 19.3106 27.9245 19.1381 27.9582C18.862 28.0122 18.5968 28.0751 18.3293 28.1362C18.18 28.1703 18.0256 28.2003 17.8791 28.2366C17.6071 28.3041 17.3472 28.3801 17.0854 28.4549C16.9532 28.4927 16.8152 28.5266 16.6856 28.5662C16.418 28.6481 16.1636 28.7381 15.9082 28.8275C15.7956 28.8668 15.677 28.9025 15.5668 28.9433C15.3095 29.0385 15.0667 29.1414 14.8232 29.2441C14.7253 29.2853 14.6212 29.3231 14.5257 29.3656C14.2818 29.4738 14.0536 29.5893 13.8253 29.7047C13.7417 29.747 13.6512 29.7862 13.5697 29.8293C13.3456 29.9483 13.1381 30.074 12.9309 30.1998C12.857 30.2446 12.7756 30.2866 12.7039 30.3323C12.5004 30.4619 12.3148 30.5977 12.1296 30.7338C12.0666 30.7801 11.9958 30.8237 11.9351 30.8707C11.7596 31.0064 11.603 31.1477 11.4461 31.289C11.3887 31.3406 11.3227 31.3898 11.2679 31.4423C11.1187 31.5851 10.9895 31.733 10.8598 31.8808C10.8118 31.9354 10.7549 31.9876 10.7098 32.0429C10.592 32.1871 10.4951 32.3359 10.3965 32.4843C10.3549 32.5468 10.3033 32.6072 10.2651 32.6705C10.1734 32.8229 10.1039 32.9794 10.0329 33.1356C10.0046 33.1978 9.96576 33.2579 9.94085 33.3208C9.87803 33.4793 9.83846 33.6414 9.79757 33.8032C9.78158 33.8665 9.75442 33.928 9.74191 33.9918C9.69723 34.2183 9.67427 34.4477 9.67427 34.6795C9.67427 38.6892 16.549 41.9521 24.9996 41.9521C33.4503 41.9521 40.3255 38.6892 40.3255 34.6795C40.3255 34.447 40.3025 34.2168 40.2577 33.9895C40.2422 33.9107 40.2094 33.8344 40.1887 33.7562C40.1496 33.609 40.1154 33.461 40.058 33.3166C40.0242 33.2313 39.9729 33.149 39.9328 33.0647C39.869 32.9308 39.8117 32.7957 39.7327 32.6646C39.6788 32.5751 39.6076 32.4894 39.5467 32.4014C39.4621 32.2791 39.3848 32.1555 39.2872 32.0362C39.2172 31.9506 39.1308 31.8692 39.0541 31.785C38.947 31.6676 38.8465 31.5485 38.7269 31.4342C38.6389 31.3501 38.5354 31.2708 38.4408 31.1887C38.3151 31.0796 38.196 30.9686 38.0591 30.8629C37.9515 30.7798 37.8287 30.7018 37.7142 30.6209C37.5732 30.5213 37.4386 30.4196 37.2876 30.3236C37.1679 30.2474 37.0344 30.1768 36.9085 30.103C36.7468 30.0082 36.5907 29.911 36.4191 29.8202C36.2871 29.7503 36.1424 29.6862 36.0046 29.6188C35.8242 29.5305 35.6492 29.4399 35.4595 29.3559C35.312 29.2906 35.1524 29.2317 34.9996 29.1692C34.8061 29.0902 34.6176 29.0085 34.4156 28.9341C34.255 28.8748 34.0833 28.8223 33.9176 28.766C33.7094 28.6954 33.5056 28.6221 33.2897 28.5563C33.1207 28.5048 32.9417 28.4604 32.7682 28.4121C32.544 28.3496 32.3237 28.2845 32.092 28.2273C31.9072 28.1817 31.7129 28.1435 31.5235 28.1014C31.2921 28.05 31.0644 27.9954 30.8265 27.9493C30.6251 27.9103 30.4151 27.8793 30.2093 27.8443C29.9732 27.8041 29.741 27.7605 29.4994 27.7256C29.283 27.6943 29.0588 27.6716 28.8381 27.6447C28.5976 27.6154 28.3603 27.5826 28.115 27.5587C27.8841 27.5363 27.646 27.5228 27.4111 27.5052C27.1862 27.4884 26.9655 27.4663 26.7372 27.454C26.7361 27.4376 26.735 27.4215 26.7338 27.4051C26.7084 27.0299 26.6847 26.6602 26.6632 26.3009C35.8871 26.6965 43.0911 30.3637 43.0911 34.6794C43.0912 39.3228 34.9758 43.1003 24.9998 43.1003Z" fill="#081219"/>
<path d="M40.3256 15.4681C40.3256 11.458 33.4504 8.1955 24.9997 8.1955C16.549 8.1955 9.67432 11.458 9.67432 15.4681C9.67432 19.4788 16.549 22.7412 24.9997 22.7412C33.4504 22.7412 40.3256 19.4788 40.3256 15.4681ZM9.93055 15.4681C9.93055 11.5991 16.6907 8.45173 24.9997 8.45173C33.3092 8.45173 40.0694 11.5991 40.0694 15.4681C40.0694 19.3371 33.3092 22.485 24.9997 22.485C16.6907 22.485 9.93055 19.3371 9.93055 15.4681Z" fill="#081219"/>
<path d="M37.3039 15.4681C37.3039 12.2322 31.7839 9.59979 24.9997 9.59979C18.2155 9.59979 12.6965 12.2322 12.6965 15.4681C12.6965 18.704 18.2156 21.337 24.9997 21.337C31.7838 21.337 37.3039 18.704 37.3039 15.4681ZM12.9528 15.4681C12.9528 12.3739 18.3571 9.85603 24.9997 9.85603C31.6427 9.85603 37.0477 12.3738 37.0477 15.4681C37.0477 18.5629 31.6428 21.0808 24.9997 21.0808C18.3571 21.0808 12.9528 18.563 12.9528 15.4681Z" fill="#081219"/>
<path d="M34.2821 15.4681C34.2821 12.9648 30.2044 11.004 24.9997 11.004C19.795 11.004 15.7183 12.9648 15.7183 15.4681C15.7183 17.9714 19.7949 19.9322 24.9997 19.9322C30.2045 19.9322 34.2821 17.9714 34.2821 15.4681ZM15.9745 15.4681C15.9745 13.1085 19.9386 11.2603 24.9997 11.2603C30.0613 11.2603 34.0259 13.1084 34.0259 15.4681C34.0259 17.8278 30.0612 19.676 24.9997 19.676C19.9386 19.676 15.9745 17.8278 15.9745 15.4681Z" fill="#081219"/>
<path d="M31.2605 15.4681C31.2605 13.7526 28.51 12.4083 24.9998 12.4083C21.4896 12.4083 18.7401 13.7526 18.7401 15.4681C18.7401 17.1841 21.4896 18.5283 24.9998 18.5283C28.51 18.5283 31.2605 17.1841 31.2605 15.4681ZM18.9963 15.4681C18.9963 13.8962 21.6333 12.6645 24.9998 12.6645C28.3669 12.6645 31.0042 13.8962 31.0042 15.4681C31.0042 17.0405 28.3669 18.2721 24.9998 18.2721C21.6332 18.2722 18.9963 17.0405 18.9963 15.4681Z" fill="#081219"/>
<path d="M28.2388 15.4681C28.2388 14.3926 26.5703 13.8126 24.9998 13.8126C23.4304 13.8126 21.7618 14.3926 21.7618 15.4681C21.7618 16.5436 23.4303 17.1241 24.9998 17.1241C26.5702 17.1241 28.2388 16.5436 28.2388 15.4681ZM22.0181 15.4681C22.0181 14.6038 23.566 14.0689 24.9998 14.0689C26.4341 14.0689 27.9826 14.6039 27.9826 15.4681C27.9826 16.3329 26.4342 16.8678 24.9998 16.8678C23.566 16.8678 22.0181 16.3329 22.0181 15.4681Z" fill="#081219"/>
</svg>
