<svg width="50" height="50" viewBox="0 0 50 50" fill="none" xmlns="http://www.w3.org/2000/svg">
<path d="M22.2077 25.0499V7.29917C22.2077 7.15956 22.098 7.04987 21.9584 7.04987H21.6592C21.5196 7.04987 21.4099 7.15956 21.4099 7.29917V24.8704L9.38333 42.5612C9.33347 42.641 9.3235 42.7407 9.37336 42.8205C9.41325 42.9003 9.503 42.9501 9.59275 42.9501H9.89192C9.9717 42.9501 10.0515 42.9103 10.1013 42.8405L21.9983 25.2992C22.118 25.2792 22.2177 25.1795 22.2177 25.0499H22.2077Z" fill="black"/>
<path d="M40.6166 42.5612L28.59 24.8704V7.29917C28.59 7.15956 28.4803 7.04987 28.3407 7.04987H28.0415C27.9019 7.04987 27.7922 7.15956 27.7922 7.29917V25.0499C27.7922 25.0997 27.8122 25.1496 27.8321 25.1895L39.8986 42.8405C39.9485 42.9103 40.0183 42.9501 40.108 42.9501H40.4072C40.4969 42.9501 40.5867 42.9003 40.6266 42.8205C40.6665 42.7407 40.6665 42.641 40.6166 42.5612Z" fill="black"/>
<path d="M27.2936 24.9003V7.29917C27.2936 7.15956 27.1839 7.04987 27.0443 7.04987H26.7452C26.6055 7.04987 26.4958 7.15956 26.4958 7.29917V25.0499C26.4958 25.0499 26.4959 25.1097 26.5158 25.1496L33.7956 42.8006C33.8355 42.8903 33.9252 42.9501 34.0249 42.9501H34.3241C34.4039 42.9501 34.4837 42.9103 34.5335 42.8405C34.5834 42.7706 34.5834 42.6809 34.5535 42.6111L27.2936 24.9103V24.9003Z" fill="black"/>
<path d="M25.9971 7.29917C25.9971 7.15956 25.8874 7.04987 25.7478 7.04987H25.5484C25.4088 7.04987 25.2991 7.15956 25.2991 7.29917V25.0798L27.6924 42.7308C27.7124 42.8504 27.8121 42.9501 27.9417 42.9501H28.2409C28.3107 42.9501 28.3805 42.9202 28.4304 42.8604C28.4802 42.8105 28.5002 42.7308 28.4902 42.6609L25.9971 24.9501V7.29917Z" fill="black"/>
<path d="M24.4516 7.04987H24.2522C24.1126 7.04987 24.0029 7.15956 24.0029 7.29917V24.9202L21.5098 42.6709C21.4998 42.7407 21.5198 42.8105 21.5697 42.8704C21.6195 42.9202 21.6893 42.9601 21.7591 42.9601H22.0583C22.178 42.9601 22.2877 42.8704 22.3076 42.7407L24.701 25.0598V7.29917C24.701 7.15956 24.5913 7.04987 24.4516 7.04987Z" fill="black"/>
<path d="M23.5042 25.0499V7.29917C23.5042 7.15956 23.3945 7.04987 23.2549 7.04987H22.9557C22.8161 7.04987 22.7064 7.15956 22.7064 7.29917V24.9003L15.4466 42.6011C15.4167 42.6809 15.4266 42.7706 15.4665 42.8305C15.5164 42.9003 15.5862 42.9402 15.676 42.9402H15.9751C16.0748 42.9402 16.1646 42.8803 16.2045 42.7806L23.3247 25.2792C23.4244 25.2493 23.5042 25.1496 23.5042 25.0399V25.0499Z" fill="black"/>
</svg>
