<svg width="50" height="50" viewBox="0 0 50 50" fill="none" xmlns="http://www.w3.org/2000/svg">
<path d="M42.2701 24.3518H29.8685L41.8602 21.2604L41.5527 20.0637L29.561 23.1551L40.3228 17.1717L39.6053 16.0748L28.946 22.0582L37.658 13.5817L36.7355 12.6842L28.0236 21.1606L34.1732 10.7895L33.0458 10.0914L26.8962 20.5623L30.0735 8.89472L28.8436 8.59555L25.6663 20.2631V8.19666H24.3339V20.2631L21.1566 8.59555L19.9267 8.89472L23.1039 20.5623L16.9544 10.0914L15.8269 10.7895L21.9765 21.1606L13.2646 12.6842L12.3422 13.5817L21.0541 22.0582L10.3948 16.0748L9.67735 17.1717L20.4391 23.1551L8.44743 20.0637L8.13995 21.2604L20.1316 24.3518H7.72998V25.6482H20.1316L8.13995 28.7396L8.44743 29.9363L20.4391 26.8449L9.67735 32.8282L10.3948 33.9252L21.0541 27.9418L12.3422 36.4183L13.2646 37.3158L21.9765 28.8393L15.8269 39.2105L16.9544 39.9086L23.1039 29.4377L19.9267 41.1052L21.1566 41.4044L24.3339 29.7368V41.8033H25.6663V29.7368L28.8436 41.4044L30.0735 41.1052L26.8962 29.4377L33.0458 39.9086L34.1732 39.2105L28.0236 28.8393L36.7355 37.3158L37.658 36.4183L28.946 27.9418L39.6053 33.9252L40.3228 32.8282L29.561 26.8449L41.5527 29.9363L41.8602 28.7396L29.8685 25.6482H42.2701V24.3518Z" fill="#081219"/>
</svg>
