<svg width="50" height="50" viewBox="0 0 50 50" fill="none" xmlns="http://www.w3.org/2000/svg">
<path d="M24.8328 6.53754C21.5109 6.53754 18.9088 14.5719 18.9088 24.8281C18.9088 35.0849 21.511 43.1193 24.8328 43.1193C28.155 43.1193 30.7572 35.0849 30.7572 24.8281C30.7572 14.5719 28.1551 6.53754 24.8328 6.53754ZM24.8328 7.22424C26.7468 7.22424 28.7616 11.2497 29.6376 17.7431C28.5704 14.7488 26.8349 12.8263 24.8328 12.8263C22.8309 12.8263 21.0954 14.7488 20.0283 17.7432C20.9041 11.2497 22.9187 7.22424 24.8328 7.22424ZM24.8328 13.5129C27.3556 13.5129 29.4671 17.3596 29.9726 22.4701C29.1184 20.3322 27.1393 18.8338 24.8329 18.8338C22.5269 18.8338 20.548 20.3317 19.6935 22.4692C20.1992 17.359 22.3105 13.5129 24.8328 13.5129ZM26.9344 23.9735C27.3297 23.9735 27.6604 23.739 27.8566 23.405C28.0355 23.8412 28.1384 24.3212 28.1384 24.8284C28.1384 26.786 26.6584 28.3729 24.8328 28.3729C23.0072 28.3729 21.5272 26.786 21.5272 24.8284C21.5272 22.8707 23.0072 21.2838 24.8328 21.2838C25.4153 21.2838 25.9546 21.4594 26.4299 21.7431C26.0757 21.9414 25.8261 22.3271 25.8261 22.7853C25.8262 23.4414 26.3223 23.9735 26.9344 23.9735ZM24.8328 42.4327C22.9187 42.4327 20.9042 38.4071 20.0284 31.9137C21.0955 34.9081 22.831 36.8306 24.8328 36.8306C26.8348 36.8306 28.5704 34.9081 29.6375 31.9139C28.7615 38.4072 26.7468 42.4327 24.8328 42.4327ZM24.8328 36.144C22.3105 36.144 20.1992 32.2975 19.6936 27.1874C20.5481 29.3248 22.5269 30.8228 24.8329 30.8228C27.1393 30.8228 29.1184 29.3244 29.9726 27.1865C29.467 32.2971 27.3556 36.144 24.8328 36.144Z" fill="#081219"/>
</svg>
