<svg width="50" height="50" viewBox="0 0 50 50" fill="none" xmlns="http://www.w3.org/2000/svg">
<path d="M37.8543 24.5612C28.979 21.1906 27.5429 16.1845 25.5385 9.24377L25 7.35901L24.4615 9.24377C22.467 16.1845 21.0211 21.1906 12.1457 24.5612L10.9989 25L12.1457 25.4388C21.0111 28.8094 22.4571 33.8155 24.4615 40.7562L25 42.641L25.5385 40.7562C27.533 33.8155 28.979 28.8094 37.8543 25.4388L39.0011 25L37.8543 24.5612ZM36.4382 25C28.4604 28.3706 26.7651 33.2072 25 39.2803C23.2349 33.2072 21.5396 28.3706 13.5618 25C21.5396 21.6294 23.2349 16.7928 25 10.7197C26.7651 16.7928 28.4604 21.6294 36.4382 25Z" fill="black"/>
</svg>
