<svg width="50" height="50" viewBox="0 0 50 50" fill="none" xmlns="http://www.w3.org/2000/svg">
<path d="M24.1823 18.3883C24.3917 18.3883 24.5613 18.2188 24.5613 18.0094C24.5613 17.8 24.3917 17.6304 24.1823 17.6304C24.1524 17.6304 21.1707 17.6205 19.1164 16.713C18.5878 16.4437 17.6106 15.7656 17.0621 14.2299C16.4637 12.5446 16.4239 8.74513 16.4239 8.70524C16.4239 8.49582 16.2543 8.32629 16.0449 8.32629C15.8355 8.32629 15.666 8.49582 15.666 8.70524C15.666 8.8648 15.6161 12.5645 15.0277 14.2299C14.4793 15.7656 13.502 16.4437 12.9834 16.703C10.9191 17.6205 7.93743 17.6304 7.90751 17.6304C7.69809 17.6304 7.52856 17.8 7.52856 18.0094C7.52856 18.2188 7.69809 18.3883 7.90751 18.3883C7.93743 18.3883 10.9191 18.3983 12.9734 19.3058C13.502 19.575 14.4793 20.2532 15.0277 21.7889C15.6261 23.4543 15.666 27.154 15.666 27.3136C15.666 27.523 15.8355 27.6925 16.0449 27.6925C16.2543 27.6925 16.4239 27.523 16.4239 27.3136C16.4239 27.2737 16.4637 23.4742 17.0621 21.7889C17.6106 20.2532 18.5878 19.575 19.1064 19.3158C21.1707 18.3983 24.1524 18.3883 24.1823 18.3883ZM20.7618 18.0094C20.0139 18.169 19.3557 18.3784 18.7873 18.6277H18.7773C18.1391 18.9568 16.9823 19.7545 16.3441 21.5396C16.2244 21.8687 16.1247 22.2676 16.0349 22.7462C15.9452 22.2676 15.8455 21.8687 15.7258 21.5396C15.0876 19.7545 13.9208 18.9568 13.2726 18.6277C12.7142 18.3784 12.056 18.169 11.3081 18.0094C12.056 17.8498 12.7241 17.6404 13.2926 17.3911C13.9308 17.072 15.0876 16.2642 15.7258 14.4892C15.8455 14.1601 15.9452 13.7612 16.0349 13.2825C16.1247 13.7612 16.2244 14.1601 16.3441 14.4892C16.9823 16.2742 18.1391 17.072 18.7873 17.4011C19.3457 17.6504 20.0039 17.8598 20.7518 18.0194L20.7618 18.0094Z" fill="black"/>
<path d="M42.1026 27.882C42.1026 27.882 37.8544 27.862 34.9424 26.5756C34.1746 26.1867 32.7685 25.2094 31.9807 23.0155C31.123 20.6221 31.0732 15.287 31.0732 15.2371C31.0732 15.0277 30.9037 14.8582 30.6942 14.8582C30.4848 14.8582 30.3153 15.0277 30.3153 15.2471C30.3153 15.8055 30.2255 20.7318 29.4078 23.0255C28.62 25.2194 27.2239 26.1967 26.466 26.5856C23.5341 27.882 19.3358 27.9019 19.2859 27.9019C19.0765 27.9019 18.907 28.0715 18.907 28.2809C18.907 28.4903 19.0765 28.6598 19.2859 28.6598C19.3258 28.6598 23.5341 28.6798 26.446 29.9662C27.2139 30.3551 28.62 31.3324 29.4078 33.5363C30.2255 35.8299 30.3153 40.7562 30.3153 41.3147C30.3153 41.5241 30.4848 41.6936 30.6942 41.6936C30.9037 41.6936 31.0732 41.5241 31.0732 41.3147C31.0732 41.2648 31.123 35.9296 31.9807 33.5363C32.7685 31.3424 34.1646 30.3651 34.9225 29.9762C37.8544 28.6798 42.0627 28.6598 42.1026 28.6598C42.312 28.6598 42.4815 28.4903 42.4815 28.2809C42.4815 28.0715 42.312 27.9019 42.1026 27.9019V27.882ZM38.1136 28.2609C36.9668 28.4604 35.7003 28.7795 34.6134 29.2582H34.6034C33.7358 29.6969 32.1502 30.8039 31.2726 33.2471C31.0433 33.8953 30.8538 34.7529 30.6942 35.8199C30.5447 34.7529 30.3552 33.8953 30.1158 33.2471C29.2383 30.8039 27.6527 29.6969 26.7652 29.2582C25.6682 28.7695 24.4117 28.4604 23.2649 28.2609C24.4117 28.0615 25.6782 27.7424 26.7751 27.2537C27.6427 26.8149 29.2283 25.708 30.1059 23.2648C30.3352 22.6266 30.5247 21.759 30.6843 20.6919C30.8339 21.759 31.0233 22.6266 31.2627 23.2648C32.1402 25.708 33.7258 26.8149 34.6134 27.2637C35.7103 27.7523 36.9668 28.0615 38.1136 28.2609Z" fill="black"/>
</svg>
