<svg width="50" height="50" viewBox="0 0 50 50" fill="none" xmlns="http://www.w3.org/2000/svg">
<path d="M13.7549 30.6799V7.29419H11.6232V30.6799H10.7828V42.7058H14.5954V30.6799H13.7549Z" fill="#081219"/>
<path d="M32.1414 7.29419V30.6799H31.301V42.7058H35.1136V7.29419H32.1414Z" fill="#081219"/>
<path d="M9.65137 30.6799V7.29419H6.80237V42.7058H10.4916V30.6799H9.65137Z" fill="#081219"/>
<path d="M30.1696 30.6799V7.29419H28.0378V30.6799H27.1974V42.7058H31.01V30.6799H30.1696Z" fill="#081219"/>
<path d="M26.0659 30.6799V7.29419H23.9341V30.6799H23.0938V42.7058H26.9063V30.6799H26.0659Z" fill="#081219"/>
<path d="M21.9622 30.6799V7.29419H18.9901V42.7058H22.8025V30.6799H21.9622Z" fill="#081219"/>
<path d="M15.7267 7.29419V30.6799H14.8864V42.7058H18.6989V7.29419H15.7267Z" fill="#081219"/>
<path d="M40.3488 7.29419V30.6799H39.5084V42.7058H43.1977V7.29419H40.3488Z" fill="#081219"/>
<path d="M38.3769 30.6799V7.29419H35.4048V42.7058H39.2172V30.6799H38.3769Z" fill="#081219"/>
</svg>
