<svg width="50" height="50" viewBox="0 0 50 50" fill="none" xmlns="http://www.w3.org/2000/svg">
<path d="M24.9998 7.66718C15.1768 7.66718 7.18555 15.4425 7.18555 24.9999C7.18555 34.5574 15.1768 42.3336 24.9998 42.3336C34.8227 42.3336 42.8149 34.5573 42.8149 24.9999C42.8149 15.4426 34.8227 7.66718 24.9998 7.66718ZM24.9998 41.835C15.4596 41.835 7.69801 34.2827 7.69801 24.9999C7.69801 15.7176 15.4596 8.16579 24.9998 8.16579C34.5404 8.16579 42.3024 15.7176 42.3024 24.9999C42.3024 34.2826 34.5404 41.835 24.9998 41.835Z" fill="#081219"/>
<path d="M12.7291 23.5123C12.7137 23.5123 12.6981 23.5108 12.6826 23.5084C12.5435 23.4835 12.4514 23.3535 12.4764 23.2182C13.6069 17.1958 19.8951 13.1505 25.0588 13.1505C30.1735 13.1505 36.4242 17.0254 37.5752 22.7936C37.6023 22.9289 37.5122 23.0599 37.373 23.0863C37.2289 23.1121 37.0987 23.0239 37.0727 22.889C35.9857 17.4437 29.8692 13.6491 25.0587 13.6491C20.1013 13.6491 14.0647 17.5304 12.9808 23.3077C12.9584 23.428 12.8503 23.5123 12.7291 23.5123Z" fill="#081219"/>
<path d="M28.7802 25.0944C27.7213 25.0944 27.1498 26.9359 27.1498 28.6694C27.1498 30.4019 27.7213 32.2435 28.7802 32.2435C29.8402 32.2435 30.4117 30.4019 30.4117 28.6694C30.4117 26.9358 29.8402 25.0944 28.7802 25.0944ZM28.7802 31.7448C28.2528 31.7448 27.6622 30.4291 27.6622 28.6693C27.6622 26.9086 28.2528 25.5929 28.7802 25.5929C29.3087 25.5929 29.8993 26.9085 29.8993 28.6693C29.8993 30.4291 29.3087 31.7448 28.7802 31.7448Z" fill="#081219"/>
<path d="M21.2194 25.0944C20.1599 25.0944 19.5884 26.9359 19.5884 28.6694C19.5884 30.4019 20.1599 32.2435 21.2194 32.2435C22.2788 32.2435 22.8503 30.4019 22.8503 28.6694C22.8503 26.9358 22.2788 25.0944 21.2194 25.0944ZM21.2194 31.7448C20.6914 31.7448 20.1008 30.4291 20.1008 28.6693C20.1008 26.9086 20.6914 25.5929 21.2194 25.5929C21.7473 25.5929 22.3379 26.9085 22.3379 28.6693C22.3379 30.4291 21.7474 31.7448 21.2194 31.7448Z" fill="#081219"/>
</svg>
