<svg width="50" height="50" viewBox="0 0 50 50" fill="none" xmlns="http://www.w3.org/2000/svg">
<path d="M42.149 24.7122L31.0642 24.2809C30.1374 24.245 29.2786 23.9527 28.5184 23.5019C28.7457 22.6304 29.152 21.7992 29.7827 21.1L35.0345 15.2773C35.2098 15.0832 35.1614 14.8383 35.0234 14.6965C34.8874 14.5541 34.6476 14.5085 34.4593 14.6856L28.7934 20.0838C28.1132 20.732 27.3046 21.1494 26.4568 21.3831C26.0182 20.6017 25.7337 19.7188 25.6986 18.7663L25.2795 7.37353C25.2734 7.21354 25.1566 7.09711 25.0004 7.09711H24.9994C24.8438 7.09711 24.7259 7.21303 24.7199 7.37353L24.3003 18.7663C24.2654 19.7189 23.981 20.6017 23.5423 21.3832C22.6945 21.1494 21.8858 20.732 21.2055 20.0838L15.5401 14.6856C15.3517 14.507 15.1129 14.5546 14.9754 14.697C14.8374 14.8383 14.7896 15.0833 14.9643 15.2774L20.2166 21.1001C20.8473 21.7993 21.2536 22.6303 21.4809 23.5017C20.7206 23.9526 19.8616 24.245 18.9346 24.2809L7.84989 24.7122C7.69372 24.7184 7.58093 24.8396 7.58093 25.0006C7.58093 25.1611 7.69432 25.2812 7.84989 25.2874L18.9347 25.7182C19.8616 25.7542 20.7206 26.0466 21.4809 26.4975C21.2536 27.3689 20.8473 28.1999 20.2166 28.899L14.9643 34.7223C14.7895 34.9159 14.8374 35.1613 14.9749 35.3021C15.0505 35.3798 15.1557 35.4295 15.2666 35.4295C15.3582 35.4295 15.4545 35.3953 15.5401 35.3136L21.2055 29.9159C21.8858 29.2676 22.6945 28.85 23.5424 28.6164C23.981 29.3977 24.2654 30.2804 24.3003 31.2329L24.7199 42.6256C24.726 42.7861 24.8439 42.9031 24.9994 42.9031H25.0004C25.1566 42.9031 25.2735 42.786 25.2795 42.6256L25.6986 31.2329C25.7337 30.2803 26.0181 29.3977 26.4567 28.6164C27.3045 28.8501 28.1132 29.2676 28.7934 29.9158L34.4593 35.3135C34.6476 35.4926 34.8874 35.446 35.0234 35.3021C35.1614 35.1613 35.2098 34.9159 35.0345 34.7223L29.7827 28.899C29.152 28.1998 28.7458 27.3687 28.5184 26.4973C29.2786 26.0465 30.1373 25.7542 31.0641 25.7183L42.1489 25.2875C42.3051 25.2812 42.4189 25.1612 42.4189 25.0007C42.4191 24.8395 42.3052 24.7183 42.149 24.7122Z" fill="#081219"/>
</svg>
