<svg width="50" height="50" viewBox="0 0 50 50" fill="none" xmlns="http://www.w3.org/2000/svg">
<path d="M30.4697 42.0789C30.4957 42.0507 30.5061 42.0127 30.5009 41.9747L28.0874 26.0785L31.6332 41.8832C31.6403 41.9163 31.6611 41.9455 31.6905 41.9631C31.7194 41.9796 31.7539 41.9845 31.7861 41.9747L34.8518 41.0253C34.8845 41.0146 34.9115 40.9912 34.9262 40.9591C34.9418 40.9269 34.9418 40.8899 34.9285 40.8577L29.0673 26.3376L35.7527 40.3728C35.7693 40.4079 35.8 40.4322 35.8365 40.44C35.8734 40.4478 35.9112 40.438 35.9396 40.4137L38.1253 38.5146C38.1736 38.4728 38.1822 38.3998 38.1472 38.3481L29.9564 26.1613L38.6343 37.6051C38.6599 37.6382 38.6997 37.6557 38.7409 37.6518C38.7816 37.649 38.8181 37.6236 38.8375 37.5866L40.1175 35.0868C40.1417 35.0381 40.1322 34.9767 40.0939 34.9388L30.562 25.546L40.2676 34.0545C40.3008 34.0838 40.3466 34.0925 40.3878 34.077C40.429 34.0614 40.4584 34.0244 40.466 33.9805L40.9181 31.1738C40.9271 31.1252 40.9043 31.0745 40.8622 31.0472L30.774 24.6202L40.7718 30.1192C40.811 30.1406 40.8588 30.1386 40.8963 30.1133C40.9332 30.088 40.9564 30.0451 40.9498 29.9974L40.689 27.1012C40.6847 27.0525 40.652 27.0096 40.6062 26.994L30.6069 23.5904L40.3122 26.0903C40.3548 26.1009 40.3998 26.0883 40.4296 26.0552C40.4604 26.022 40.4713 25.9714 40.4571 25.9325L39.5946 23.0947C39.5794 23.044 39.5349 23.009 39.4838 23.007L30.1454 22.6272L39.0374 22.1602C39.0786 22.1578 39.116 22.1343 39.1364 22.0974C39.1567 22.0599 39.1562 22.0151 39.1387 21.9776L37.7753 19.3126C37.7479 19.2595 37.6878 19.2337 37.632 19.2518L29.5628 21.833L37.087 18.4712C37.1211 18.4557 37.1466 18.4255 37.1561 18.3885C37.1646 18.35 37.1576 18.3116 37.1353 18.2814L35.351 15.8687C35.3307 15.8414 35.3008 15.8239 35.2682 15.8205C35.2351 15.8166 35.2024 15.8268 35.1769 15.8482L28.9952 21.1514L34.561 15.1325C34.5825 15.1095 34.5944 15.0787 34.5944 15.0466C34.5949 15.0189 34.5807 14.9799 34.5565 14.9561L32.4176 12.8706C32.3902 12.8438 32.3519 12.8316 32.3145 12.8385C32.2766 12.8448 32.2444 12.8692 32.2269 12.9037L28.4079 20.4652L31.539 12.2566C31.5599 12.201 31.541 12.1397 31.4941 12.1071L29.065 10.4321C29.03 10.4082 28.9855 10.4043 28.9476 10.4223C28.9092 10.4398 28.8827 10.4768 28.877 10.5197L27.6897 19.7748L28.1082 9.97054C28.1091 9.91599 28.0812 9.87071 28.0348 9.85077L25.3894 8.68311C25.3487 8.66506 25.3024 8.67144 25.2673 8.69917C25.2327 8.72689 25.2137 8.77127 25.2218 8.81654L26.7982 19.2135L24.3793 8.42204C24.3679 8.37427 24.331 8.33727 24.2837 8.3281L21.5162 7.78521C21.4726 7.77643 21.4271 7.79298 21.3997 7.82859C21.3723 7.86419 21.3637 7.91285 21.3817 7.95523L25.8245 18.9633L20.4964 7.78072C20.4746 7.73495 20.4273 7.70772 20.378 7.71161L17.6294 7.93369C17.5859 7.93708 17.548 7.96391 17.5291 8.0043C17.511 8.04568 17.5139 8.09245 17.5394 8.12895L24.9364 19.1365L16.6733 8.24134C16.6391 8.19606 16.5795 8.18101 16.5293 8.20334L14.0071 9.3364C13.9701 9.35345 13.9427 9.38805 13.936 9.42894C13.9313 9.46843 13.9427 9.51171 13.9711 9.54093L24.3244 19.745L13.2174 10.004C13.1691 9.96116 13.0962 9.96505 13.0517 10.0123L11.0379 12.1607C11.0123 12.1884 10.9971 12.224 11.0047 12.2629C11.0095 12.3004 11.0303 12.3335 11.0615 12.3534L24.1094 20.6677L10.5323 13.1988C10.5019 13.1817 10.4651 13.1793 10.4329 13.192C10.3997 13.2047 10.3741 13.2314 10.3618 13.265L9.20391 16.4295C9.19256 16.4617 9.19344 16.4972 9.20769 16.5269C9.22281 16.5576 9.24841 16.581 9.27963 16.5916L24.2799 21.6986L9.1054 17.789C9.06943 17.7792 9.03065 17.788 9.00127 17.8119C8.9719 17.8357 8.95483 17.8718 8.95483 17.9097V17.9112L8.99458 21.9045C8.99555 21.9707 9.04665 22.0248 9.11103 22.0276L24.7409 22.6626L9.40082 23.4685C9.36291 23.4705 9.32888 23.491 9.30706 23.5231C9.28719 23.5552 9.27963 23.5961 9.29291 23.6332L10.733 27.999C10.7539 28.0633 10.8211 28.0983 10.8836 28.0778L25.321 23.4569L11.6476 29.5688C11.6144 29.5834 11.5889 29.6126 11.5794 29.6487C11.5709 29.6828 11.5757 29.7227 11.5965 29.7539L14.3621 33.8538C14.381 33.882 14.4113 33.9016 14.4454 33.9063C14.4785 33.9112 14.5126 33.9005 14.5391 33.8781L25.8923 24.1425L15.6839 35.1753C15.662 35.2007 15.6489 35.2328 15.6507 35.2679C15.6525 35.303 15.6687 35.3351 15.6942 35.3565L19.3868 38.5313C19.4152 38.5556 19.4521 38.5654 19.4881 38.5585C19.5241 38.5507 19.5553 38.5264 19.5723 38.4933L26.4802 24.8218L20.9206 39.3931C20.8979 39.4574 20.9253 39.5255 20.9849 39.5529L25.0056 41.3555C25.0401 41.371 25.0803 41.3691 25.1135 41.3496C25.1466 41.331 25.1688 41.297 25.1741 41.258L27.1984 25.5098L26.5082 41.6573C26.5058 41.7245 26.5541 41.782 26.619 41.7879L30.3707 42.1189C30.4076 42.1218 30.4445 42.1073 30.4697 42.0789ZM37.6076 19.5206L38.8356 21.9211L28.3881 22.4699L37.6076 19.5206ZM35.2344 16.1232L36.8487 18.3057L28.1697 22.1836L35.2344 16.1232ZM32.368 13.1657L34.3018 15.051L27.9421 21.9279L32.368 13.1657ZM29.0921 10.751L31.2782 12.2585L27.6927 21.6582L29.0921 10.751ZM25.4951 9.00093L27.8621 10.0454L27.3769 21.4128L25.4951 9.00093ZM21.6913 8.07291L24.1606 8.55736L27.0011 21.2273L21.6913 8.07291ZM17.8586 8.16485L20.3146 7.9667L26.6269 21.2136L17.8586 8.16485ZM14.2703 9.49027L16.5398 8.4706L26.3226 21.3694L14.2703 9.49027ZM11.3162 12.2225L13.1474 10.2699L26.1541 21.6772L11.3162 12.2225ZM9.47557 16.3959L10.5398 13.4855L26.1484 22.072L9.47557 16.3959ZM9.23609 21.7833L9.19916 18.07L26.3017 22.4767L9.23609 21.7833ZM34.6536 40.8256L31.8401 41.6972L27.88 24.045L34.6536 40.8256ZM37.885 38.3969L35.9024 40.1196L28.2603 24.0758L37.885 38.3969ZM39.8605 35.0536L38.7102 37.2993L28.5722 23.9302L39.8605 35.0536ZM40.6653 31.2156L40.2615 33.7224L28.7265 23.6093L40.6653 31.2156ZM40.4551 27.2053L40.6875 29.7899L28.7336 23.2153L40.4551 27.2053ZM39.389 23.2528L40.1612 25.7941L28.5889 22.8136L39.389 23.2528ZM10.9242 27.8042L9.57407 23.7092L26.494 22.82L10.9242 27.8042ZM14.4851 33.5996L11.8795 29.7363L26.7325 23.0976L14.4851 33.5996ZM19.4265 38.241L15.9489 35.2503L26.9399 23.3722L19.4265 38.241ZM24.955 41.0613L21.1885 39.3726L27.1951 23.6311L24.955 41.0613ZM26.7558 41.5492L27.5099 23.8918L30.2376 41.857L26.7558 41.5492Z" fill="#081219"/>
</svg>
