<svg width="50" height="50" viewBox="0 0 50 50" fill="none" xmlns="http://www.w3.org/2000/svg">
<path d="M24.9999 16.015C15.0274 16.015 6.92017 23.9031 6.92017 33.6062C6.92017 33.8156 7.0944 33.9851 7.30964 33.9851H18.3789C18.5941 33.9851 18.7684 33.8156 18.7684 33.6062C18.7684 30.2654 21.5664 27.543 24.9999 27.543C28.4335 27.543 31.2315 30.2654 31.2315 33.6062C31.2315 33.8156 31.4058 33.9851 31.621 33.9851H42.6903C42.9055 33.9851 43.0797 33.8156 43.0797 33.6062C43.0797 23.9031 34.9725 16.015 24.9999 16.015ZM32.0002 33.2272C31.7952 29.6471 28.7102 26.7851 24.9999 26.7851C21.2897 26.7851 18.2047 29.6571 17.9997 33.2272H7.69911C7.9041 24.1325 15.6116 16.7729 24.9999 16.7729C34.3883 16.7729 42.0855 24.1325 42.3008 33.2272H32.0105H32.0002Z" fill="black"/>
</svg>
