<svg width="50" height="50" viewBox="0 0 50 50" fill="none" xmlns="http://www.w3.org/2000/svg">
<path d="M25.0008 42.3336C34.8237 42.3336 42.815 34.5583 42.815 25.0008C42.815 15.4434 34.8237 7.66718 25.0008 7.66718C15.1779 7.66718 7.18555 15.4434 7.18555 25.0008C7.18555 34.5583 15.1779 42.3336 25.0008 42.3336ZM25.0008 8.16579C34.541 8.16579 42.3025 15.718 42.3025 25.0008C42.3025 34.2831 34.541 41.835 25.0008 41.835C15.4601 41.835 7.69811 34.2831 7.69811 25.0008C7.69801 15.718 15.4601 8.16579 25.0008 8.16579Z" fill="#081219"/>
<path d="M37.2714 26.4883C37.2869 26.4883 37.3025 26.4898 37.3179 26.4922C37.457 26.5171 37.5492 26.6471 37.5241 26.7824C36.3936 32.8048 30.1054 36.8502 24.9417 36.8502C19.8271 36.8502 13.5763 32.9752 12.4253 27.207C12.3983 27.0717 12.4884 26.9407 12.6275 26.9144C12.7717 26.8885 12.9018 26.9767 12.9279 27.1116C14.0148 32.5569 20.1314 36.3515 24.9418 36.3515C29.8993 36.3515 35.9358 32.4702 37.0198 26.6929C37.0422 26.5726 37.1504 26.4883 37.2714 26.4883Z" fill="#081219"/>
<path d="M21.2204 24.9063C22.2793 24.9063 22.8508 23.0648 22.8508 21.3313C22.8508 19.5988 22.2793 17.7572 21.2204 17.7572C20.1604 17.7572 19.5889 19.5988 19.5889 21.3313C19.5889 23.0648 20.1604 24.9063 21.2204 24.9063ZM21.2204 18.2558C21.7478 18.2558 22.3383 19.5715 22.3383 21.3313C22.3383 23.092 21.7478 24.4077 21.2204 24.4077C20.6919 24.4077 20.1013 23.0921 20.1013 21.3313C20.1013 19.5716 20.6919 18.2558 21.2204 18.2558Z" fill="#081219"/>
<path d="M28.7812 24.9063C29.8407 24.9063 30.4122 23.0648 30.4122 21.3313C30.4122 19.5988 29.8407 17.7572 28.7812 17.7572C27.7218 17.7572 27.1503 19.5988 27.1503 21.3313C27.1502 23.0648 27.7218 24.9063 28.7812 24.9063ZM28.7812 18.2558C29.3092 18.2558 29.8997 19.5715 29.8997 21.3313C29.8997 23.092 29.3092 24.4077 28.7812 24.4077C28.2533 24.4077 27.6627 23.0921 27.6627 21.3313C27.6626 19.5716 28.2532 18.2558 28.7812 18.2558Z" fill="#081219"/>
</svg>
