<svg width="50" height="50" viewBox="0 0 50 50" fill="none" xmlns="http://www.w3.org/2000/svg">
<path d="M42.6453 19.2596C42.6453 12.7474 34.7298 7.44965 25 7.44965C15.2702 7.44965 7.35474 12.7474 7.35474 19.2596C7.35474 21.834 8.60576 24.2112 10.7028 26.1538C11.2106 27.4948 12.1215 28.7259 13.3525 29.7868C13.7741 31.1734 14.7393 32.4253 16.0792 33.4506C16.3617 34.8823 17.3794 36.1556 18.8698 37.0946C18.8698 37.0977 18.8692 37.1006 18.8692 37.1036C18.8692 38.6115 20.0469 39.9321 21.8036 40.6693C22.0664 41.7504 23.3719 42.5504 25.0001 42.5504C26.6288 42.5504 27.9345 41.7504 28.1971 40.6692C29.9538 39.9319 31.1315 38.6115 31.1315 37.1037C31.1315 37.1006 31.1308 37.0977 31.1308 37.0946C32.6213 36.1556 33.6388 34.8824 33.9213 33.4508C35.2614 32.4254 36.2267 31.1733 36.6482 29.7863C37.8788 28.7254 38.7895 27.4945 39.2972 26.1538C41.3944 24.2112 42.6453 21.8339 42.6453 19.2596ZM38.6633 25.7412C38.0963 26.2519 37.4724 26.7327 36.7835 27.1725C36.0419 23.2383 31.0465 20.1838 25 20.1838C18.9542 20.1838 13.9583 23.2385 13.217 27.1729C12.5279 26.7331 11.9038 26.2522 11.3368 25.7414C11.1111 25.0903 10.9814 24.4158 10.9814 23.7208C10.9814 18.6719 17.2701 14.5647 25 14.5647C32.7295 14.5647 39.0187 18.672 39.0187 23.7208C39.0187 24.4158 38.889 25.0902 38.6633 25.7412ZM35.9697 29.4051C35.2852 29.9675 34.5018 30.4741 33.6367 30.918C33.4639 30.5232 33.2356 30.1445 32.954 29.7874C34.0835 29.4036 35.1486 28.948 36.1226 28.4171C36.106 28.7528 36.0546 29.0823 35.9697 29.4051ZM33.2623 32.6424C33.2623 32.7803 33.2462 32.9157 33.2303 33.0511C32.3082 33.7105 31.2057 34.258 29.9692 34.6612C29.4327 34.154 28.7385 33.7293 27.9299 33.4278C29.8413 33.1687 31.6188 32.6607 33.1867 31.9574C33.2313 32.1821 33.2623 32.4097 33.2623 32.6424ZM25 38.7387C26.283 38.7387 27.3654 39.3669 27.4819 40.1368C26.7357 40.3871 25.8997 40.5423 25 40.5423C24.1004 40.5423 23.2646 40.3872 22.5186 40.1369C22.635 39.3668 23.717 38.7387 25 38.7387ZM19.6772 36.7234C19.7534 36.2889 19.9516 35.8819 20.2582 35.5113C21.7124 35.9387 23.3144 36.1793 25 36.1793C26.6859 36.1793 28.288 35.9387 29.7422 35.5113C30.0488 35.8818 30.247 36.2886 30.3232 36.7231C28.884 37.5099 27.0275 37.9868 25 37.9868C22.9727 37.9868 21.1163 37.5101 19.6772 36.7234ZM16.7383 32.6424C16.7383 32.4098 16.7692 32.1822 16.814 31.9575C18.3817 32.6607 20.1592 33.1686 22.0706 33.4278C21.2619 33.7293 20.5678 34.1539 20.0313 34.6612C18.7949 34.258 17.6923 33.7105 16.7704 33.0512C16.7543 32.9157 16.7383 32.7803 16.7383 32.6424ZM29.1138 34.9131C27.8393 35.244 26.4537 35.4314 25 35.4314C23.5464 35.4314 22.1608 35.244 20.8864 34.9131C21.8746 34.1576 23.3416 33.6658 25 33.6658C26.6584 33.6658 28.1255 34.1576 29.1138 34.9131ZM25 32.877C22.0416 32.877 19.2987 32.2718 17.0341 31.2459C17.214 30.8174 17.4697 30.4095 17.7994 30.0306C20.0011 30.6927 22.4339 31.0695 25 31.0695C27.5661 31.0695 29.999 30.6927 32.2009 30.0305C32.5307 30.4093 32.7863 30.8171 32.9662 31.2456C30.7016 32.2717 27.9585 32.877 25 32.877ZM13.8779 28.4173C14.8518 28.9481 15.9169 29.4037 17.0463 29.7875C16.7647 30.1447 16.5365 30.5234 16.3636 30.9183C15.4986 30.4745 14.7154 29.9681 14.0309 29.4059C13.946 29.0829 13.8946 28.7532 13.8779 28.4173ZM18.3998 29.4417C19.9084 28.1436 22.3014 27.2988 25 27.2988C27.6985 27.2988 30.0916 28.1435 31.6004 29.4416C29.5714 30.0074 27.3409 30.3217 25 30.3217C22.6591 30.3217 20.4287 30.0075 18.3998 29.4417ZM32.4104 29.1857C30.783 27.5959 28.0701 26.5508 25 26.5508C21.93 26.5508 19.2173 27.5959 17.5899 29.1858C16.2533 28.7563 15.0165 28.218 13.9062 27.583C14.3767 23.8651 19.1676 20.9316 25 20.9316C30.8322 20.9316 35.6233 23.865 36.0943 27.5825C34.984 28.2178 33.7471 28.7562 32.4104 29.1857ZM12.0833 27.2787C12.4171 27.5193 12.7652 27.7496 13.1276 27.9709C13.1249 28.0417 13.1117 28.1109 13.1117 28.1821C13.1117 28.3171 13.132 28.4486 13.1419 28.5819C12.7415 28.167 12.379 27.7348 12.0833 27.2787ZM14.5862 30.735C15.0656 31.0552 15.587 31.3454 16.1278 31.6193C16.0601 31.8882 16.019 32.1625 16.0054 32.442C15.4208 31.9207 14.9425 31.3481 14.5862 30.735ZM17.0671 34.1214C17.803 34.5666 18.6164 34.9535 19.5003 35.2654C19.2677 35.5883 19.0905 35.9326 18.9861 36.2955C18.1015 35.6864 17.4349 34.9455 17.0671 34.1214ZM19.6881 37.5523C20.6251 38.0171 21.6971 38.3612 22.8592 38.5537C22.3191 38.8835 21.9379 39.3332 21.8058 39.8557C20.665 39.3138 19.8832 38.4947 19.6881 37.5523ZM25 41.8024C24.0833 41.8024 23.2722 41.4791 22.836 41.0157C23.5102 41.1902 24.2375 41.2901 25 41.2901C25.7627 41.2901 26.4903 41.1902 27.1644 41.0157C26.728 41.4792 25.9168 41.8024 25 41.8024ZM28.1947 39.8556C28.0625 39.3332 27.6814 38.8835 27.1412 38.5537C28.3033 38.3612 29.3754 38.0171 30.3125 37.5523C30.1173 38.4946 29.3356 39.3137 28.1947 39.8556ZM31.0143 36.2953C30.9099 35.9325 30.7326 35.5883 30.5001 35.2655C31.3841 34.9536 32.1974 34.5668 32.9333 34.1216C32.5654 34.9455 31.8989 35.6862 31.0143 36.2953ZM33.9951 32.4418C33.9817 32.1623 33.9404 31.888 33.8727 31.619C34.4136 31.345 34.9349 31.0548 35.4144 30.7346C35.0582 31.3478 34.5798 31.9204 33.9951 32.4418ZM36.8588 28.5812C36.8687 28.4481 36.8889 28.3168 36.8889 28.1821C36.8889 28.1108 36.8758 28.0416 36.873 27.9707C37.2352 27.7495 37.5832 27.5193 37.9167 27.2788C37.6212 27.7346 37.2588 28.1665 36.8588 28.5812ZM25 13.8167C16.8576 13.8167 10.2334 18.2594 10.2334 23.7208C10.2334 24.0522 10.26 24.3795 10.3076 24.7028C8.91101 23.0938 8.10266 21.2386 8.10266 19.2595C8.10266 13.1598 15.6827 8.19747 25 8.19747C34.3169 8.19747 41.8974 13.1598 41.8974 19.2595C41.8974 21.2386 41.089 23.0937 39.6924 24.7028C39.7401 24.3796 39.7666 24.0523 39.7666 23.7208C39.7666 18.2594 33.1424 13.8167 25 13.8167Z" fill="#081219"/>
</svg>
