<svg width="50" height="50" viewBox="0 0 50 50" fill="none" xmlns="http://www.w3.org/2000/svg">
<path d="M42.9773 21.021C42.926 20.8615 42.7826 20.7518 42.6186 20.7218L30.7191 19.0365L25.3997 8.55564C25.2562 8.26645 24.7438 8.26645 24.6003 8.55564L19.2809 19.0465L7.38144 20.7318C7.21746 20.7518 7.07397 20.8714 7.02272 21.031C6.97147 21.1905 7.02272 21.3601 7.13546 21.4797L15.7449 29.6471L13.7155 41.175C13.6848 41.3346 13.7565 41.5041 13.8898 41.6038C13.9717 41.6637 14.064 41.6836 14.1562 41.6836C14.228 41.6836 14.2997 41.6637 14.3612 41.6338L25 36.1889L35.6388 41.6338C35.7823 41.7135 35.977 41.6936 36.1103 41.6038C36.2435 41.5041 36.3152 41.3446 36.2845 41.175L34.2551 29.6471L42.8645 21.4797C42.9875 21.3601 43.0285 21.1905 42.9773 21.031V21.021ZM25.2152 35.3014C25.1537 35.2714 25.082 35.2515 25 35.2515C24.918 35.2515 24.8565 35.2714 24.795 35.3014L14.7507 40.4371L16.6673 29.5573C16.6878 29.4177 16.6468 29.2681 16.5341 29.1684L8.40638 21.4698L19.6396 19.8842C19.7831 19.8642 19.9163 19.7745 19.9778 19.6448L25 9.74235L30.0222 19.6448C30.0837 19.7745 30.2169 19.8642 30.3604 19.8842L41.5936 21.4698L33.4659 29.1784C33.3634 29.2781 33.3122 29.4277 33.3429 29.5673L35.2596 40.4471L25.2152 35.3113V35.3014Z" fill="black"/>
</svg>
