<svg width="50" height="50" viewBox="0 0 50 50" fill="none" xmlns="http://www.w3.org/2000/svg">
<path d="M42.4834 26.3116C42.1601 25.441 40.9604 24.8168 39.1967 24.5743C42.3081 24.1029 42.4017 23.7971 42.4426 23.6637L42.4591 23.5785C42.464 23.5527 42.4601 23.526 42.4493 23.502L42.425 23.4504C42.2166 22.9916 39.1519 23.3486 36.8399 23.6885C38.7467 22.7955 41.1511 21.4292 40.9886 20.282C40.9594 20.0736 40.8445 19.9007 40.6487 19.7683C39.968 19.3121 38.2881 19.3607 35.872 19.9007C37.5207 18.9167 40.9205 16.817 40.9828 16.1991C40.9916 16.112 40.9683 16.0287 40.9205 15.9712C40.8688 15.9099 40.7919 15.8646 40.5874 15.9055L40.9604 15.6606C41.0061 15.6309 41.0266 15.5754 41.012 15.5233L40.9565 15.3208C40.9467 15.2823 40.9185 15.2511 40.8805 15.2375C40.8435 15.2219 40.8016 15.2282 40.7685 15.2497L35.6207 18.6309C37.3045 16.6028 40.0449 13.0351 39.522 11.8713C39.448 11.7072 39.3125 11.6021 39.1305 11.567C39.0876 11.5587 39.0409 11.5548 38.9902 11.5548C38.1518 11.5548 36.4271 12.7201 34.1336 14.8269C36.1359 12.1727 36.095 11.8021 36.0803 11.6687C36.0697 11.5694 36.0209 11.489 35.9459 11.4476C35.8544 11.3994 35.607 11.2606 34.0313 13.1212C34.4705 12.3377 34.7958 11.638 34.751 11.3507C34.7335 11.2411 34.676 11.1583 34.5884 11.1213C34.1355 10.9582 32.5696 13.2107 31.3688 15.0786C32.2657 12.5398 33.2981 9.16386 32.6932 8.55864C32.6085 8.47298 32.4956 8.43738 32.3748 8.46121C31.6113 8.59614 30.2119 11.1485 29.1679 13.2774C29.539 11.8312 29.8564 10.1738 29.5643 9.57193C29.4669 9.37278 29.3062 9.2919 29.1222 9.34356C28.6479 9.48277 28.0363 10.6232 27.4685 12.3689C27.6439 10.8014 27.7159 9.38983 27.5123 9.08598C27.4412 8.98077 27.3243 8.94626 27.2221 8.99782C27.1539 9.03242 27.0049 9.10831 26.7673 10.1339C26.7877 9.07281 26.7391 8.14619 26.5325 7.89638C26.4439 7.78828 26.3144 7.76445 26.2044 7.84333C25.8032 8.12235 25.5431 10.3982 25.4 12.1546C25.0066 7.62075 24.6131 7.56091 24.3935 7.56091C24.3906 7.56091 24.3876 7.56091 24.3847 7.56091C24.19 7.57697 23.7571 7.61297 23.686 12.7648C23.4357 11.3152 23.0451 9.64014 22.5504 9.4015C22.4229 9.33917 22.2408 9.34984 22.1082 9.56514C21.8473 9.98777 21.8039 11.1642 21.9743 12.7667C21.2931 10.7148 20.6021 9.32551 20.1888 9.23835C20.0524 9.20814 19.9327 9.27974 19.8665 9.42733C19.6975 9.80129 19.8908 10.8696 20.1923 12.0427C18.2163 7.62035 17.7527 7.52152 17.5891 7.48692C17.5073 7.47036 17.4318 7.49081 17.3724 7.54486C17.2336 7.6734 16.8816 7.99969 18.5965 13.108C16.9765 10.3179 15.5566 8.70473 14.8812 8.91794C14.7147 8.9696 14.6008 9.12387 14.5603 9.35134C14.4459 9.99555 14.927 11.3385 15.8707 13.0545C14.0936 11.0649 12.607 9.99505 12.028 10.333C11.9282 10.391 11.806 10.5146 11.7865 10.7776C11.7301 11.528 12.6304 13.0384 14.2879 15.0021C11.4228 12.7433 9.66401 11.691 9.04702 11.8507C8.92187 11.8849 8.83282 11.9652 8.78854 12.0835C8.54023 12.7487 9.9908 14.6667 13.1033 17.7913C10.5415 16.2083 7.95635 14.8931 7.51906 15.435C7.45474 15.5139 7.42652 15.6215 7.43969 15.7394C7.51079 16.3738 9.11084 17.5215 10.3959 18.3473C8.90631 17.8707 8.68822 18.1901 8.60545 18.3099C8.53484 18.4126 8.50951 18.5499 8.53484 18.697C8.62439 19.2107 9.45319 20.0165 10.8073 20.9076C11.8255 21.5772 13.0297 22.2204 14.3259 22.7891C11.8089 22.6655 10.4523 23.6749 10.0356 24.6491C9.82965 25.1332 9.81987 25.6639 10.0092 26.1421C10.5376 27.4802 12.1181 27.858 13.371 27.9369C11.1681 28.6781 9.59191 29.7756 9.35965 30.7679C9.30072 31.0192 9.33143 31.2529 9.44831 31.4458C9.76582 31.9648 10.6695 32.0895 11.99 31.8177C9.9177 32.9318 9.87971 33.2006 9.86265 33.3242C9.85049 33.407 9.86993 33.4927 9.91331 33.5511C10.2342 33.9845 13.369 32.4399 15.1147 31.5323C13.4888 33.1723 12.7312 34.6156 13.0233 35.5553C13.1246 35.8815 13.3403 36.1075 13.6636 36.2273C14.4602 36.5244 15.8771 36.1221 17.6029 35.1248C15.1458 38.4895 13.8068 41.305 13.9251 42.1473C13.9489 42.3217 14.0293 42.4444 14.1457 42.4921C14.1846 42.5106 14.2284 42.5193 14.2752 42.5193C14.5649 42.5193 15.029 42.1288 15.6596 41.3545C15.3045 42.0937 15.3309 42.2164 15.3459 42.2866C15.3664 42.381 15.4248 42.4511 15.4983 42.4725C15.511 42.4774 15.5343 42.4803 15.548 42.4803C15.9604 42.4803 17.7902 39.55 19.1464 37.203C18.9077 38.2333 18.9925 38.8799 19.1318 39.2646C19.3543 39.8811 19.851 40.1713 20.4567 40.0359C21.3931 39.8334 22.5724 38.6676 23.3296 36.4978C23.1188 39.9988 23.3511 40.0544 23.5035 40.0904C23.5536 40.1089 23.6082 40.0991 23.6558 40.0679C23.7605 40.0007 23.9636 39.8703 24.3707 37.1249C24.5527 39.2634 25.0942 41.0155 25.7944 41.6008C25.9551 41.7352 26.1167 41.7936 26.2775 41.7819C26.4236 41.7682 26.5589 41.6893 26.6709 41.554C27.0107 41.142 27.1169 40.2802 27.1188 39.3891C27.4665 40.6279 27.8171 41.3106 28.1647 41.4226C28.2543 41.4498 28.4822 41.4849 28.6448 41.1547C29.0616 40.3162 28.8103 37.7579 28.0673 35.035C29.2515 36.5776 30.2624 37.4482 30.8847 37.4482C30.8885 37.4482 30.8914 37.4482 30.8953 37.4482C31.0891 37.4453 31.2488 37.3586 31.3569 37.1989C31.6939 36.6993 31.4348 35.6679 31.0317 34.659C32.1721 36.1578 34.0545 38.5009 34.4255 38.2779C34.4937 38.2409 34.5404 38.1639 34.5512 38.0715C34.5638 37.9595 34.5892 37.7169 33.2735 35.9417C35.267 37.423 36.9537 37.4823 37.7591 36.8298C38.1281 36.5308 38.32 36.0741 38.2986 35.5443C38.2771 35.0058 37.9724 33.652 35.7607 31.9839C37.7999 32.6831 40.5852 33.4826 41.45 32.9879C41.6049 32.8992 41.6983 32.7727 41.7275 32.6119C41.9116 31.5991 39.2365 29.929 36.6985 28.5899C40.07 29.0369 42.0148 28.2656 42.4589 27.242C42.5896 26.9436 42.5984 26.6223 42.4834 26.3116Z" fill="#081219"/>
</svg>
