<svg width="50" height="50" viewBox="0 0 50 50" fill="none" xmlns="http://www.w3.org/2000/svg">
<path d="M42.3318 25C42.3318 24.6909 42.3318 24.3518 37.0864 24.0527C35.3213 23.9529 33.247 23.8731 30.9035 23.8333C33.0476 22.8959 34.9423 22.0283 36.5379 21.2604C41.2747 18.9768 41.1451 18.6576 41.0254 18.3784C40.9058 18.0892 40.7761 17.7801 35.8099 19.5053C34.1445 20.0837 32.1999 20.8117 30.006 21.6693C31.6215 19.984 33.0376 18.4582 34.2243 17.1419C37.7246 13.2227 37.4853 12.9734 37.2659 12.754C37.0465 12.5346 36.8071 12.2953 32.8781 15.7956C31.5617 16.9723 30.0359 18.3884 28.3407 20.0139C29.1983 17.8299 29.9163 15.8754 30.5046 14.21C32.2398 9.24379 31.9207 9.11415 31.6315 8.99448C31.3523 8.87481 31.0232 8.75515 28.7495 13.482C27.9817 15.0676 27.124 16.9623 26.1767 19.1164C26.1268 16.7729 26.057 14.6986 25.9573 12.9335C25.6581 7.68811 25.3091 7.68811 25.0099 7.68811C24.7107 7.68811 24.3617 7.68811 24.0625 12.9335C23.9628 14.6986 23.883 16.7729 23.8431 19.1164C22.9058 16.9723 22.0382 15.0776 21.2703 13.482C18.9866 8.7352 18.6675 8.87481 18.3883 8.99448C18.1091 9.11415 17.79 9.24379 19.5251 14.21C20.1135 15.8754 20.8315 17.8299 21.6891 20.0139C20.0038 18.3884 18.4781 16.9723 17.1517 15.7956C13.2227 12.2953 12.9833 12.5346 12.7639 12.754C12.5445 12.9734 12.3052 13.2128 15.8055 17.1419C16.9822 18.4682 18.4082 19.984 20.0238 21.6792C17.8398 20.8316 15.8952 20.1036 14.2199 19.5153C9.25368 17.7801 9.12404 18.0992 9.00437 18.3784C8.8847 18.6576 8.75506 18.9768 13.4919 21.2604C15.0775 22.0283 16.9722 22.8959 19.1263 23.8333C16.7828 23.8831 14.7085 23.9529 12.9434 24.0527C7.698 24.3518 7.698 24.7009 7.698 25C7.698 25.2992 7.698 25.6482 12.9434 25.9474C14.7085 26.0471 16.7828 26.1269 19.1263 26.1668C17.0121 27.0942 15.0775 27.9817 13.4919 28.7396C8.75506 31.0233 8.8847 31.3424 9.00437 31.6216C9.0642 31.7612 9.15395 31.851 9.43318 31.851C10.0315 31.851 11.5972 31.4022 14.2099 30.4948C15.8653 29.9164 17.8598 29.1684 20.0138 28.3308C18.3983 30.0161 16.9822 31.5418 15.7955 32.8582C12.2952 36.7773 12.5346 37.0266 12.754 37.246C12.7938 37.2859 12.8537 37.3457 12.9833 37.3457C13.2925 37.3457 14.0304 36.9668 17.1318 34.2045C18.4581 33.0178 19.9839 31.6017 21.6692 29.9862C20.8215 32.1601 20.0936 34.1147 19.5052 35.7901C17.77 40.7563 18.0891 40.8859 18.3684 41.0056C18.3983 41.0155 18.4481 41.0355 18.508 41.0355C18.7174 41.0355 19.0764 41.0355 21.2603 36.518C22.0282 34.9324 22.8858 33.0377 23.8332 30.8837C23.883 33.2272 23.9528 35.3014 24.0526 37.0665C24.3517 42.3119 24.7008 42.3119 24.9999 42.3119C25.2991 42.3119 25.6481 42.3119 25.9473 37.0665C26.047 35.3014 26.1268 33.2272 26.1667 30.8837C27.0941 32.9978 27.9817 34.9324 28.7395 36.518C30.9135 41.0355 31.2725 41.0355 31.4919 41.0355C31.5517 41.0355 31.6016 41.0155 31.6315 41.0056C31.9107 40.8859 32.2299 40.7563 30.5046 35.7901C29.9163 34.1147 29.1883 32.1601 28.3407 29.9862C30.026 31.6017 31.5418 33.0178 32.8681 34.2045C35.9695 36.9768 36.7074 37.3457 37.0166 37.3457C37.1462 37.3457 37.216 37.2759 37.2559 37.246C37.4753 37.0266 37.7146 36.7873 34.2143 32.8582C33.0376 31.5319 31.6116 30.0061 29.9961 28.3208C32.19 29.1784 34.1445 29.9064 35.7999 30.4848C38.4127 31.4022 39.9783 31.841 40.5767 31.841C40.8559 31.841 40.9556 31.7513 41.0055 31.6117C41.1251 31.3324 41.2548 31.0133 36.5179 28.7297C34.9423 27.9718 32.9977 27.0842 30.8836 26.1568C33.2271 26.1069 35.3013 26.0371 37.0664 25.9374C42.3118 25.6382 42.3118 25.2892 42.3118 24.99L42.3318 25ZM29.6171 26.1967C32.0304 27.2438 34.2443 28.241 36.0193 29.0986C38.5423 30.3053 39.6492 30.9435 40.1479 31.2826C39.5695 31.1729 38.3229 30.8338 35.6902 29.9064C33.8354 29.2482 31.5617 28.4006 29.1185 27.4333C28.7395 27.0344 28.3407 26.6355 27.9418 26.2266C28.5102 26.2266 29.0686 26.2166 29.6171 26.2067V26.1967ZM26.2166 27.9419C26.6254 28.3407 27.0243 28.7297 27.4232 29.1186C28.3805 31.5419 29.2382 33.8155 29.8963 35.6903C30.8238 38.323 31.1628 39.5696 31.2725 40.1479C30.9434 39.6593 30.2952 38.5424 29.0886 36.0194C28.231 34.2244 27.2238 32.0105 26.1866 29.6172C26.1866 29.0687 26.2066 28.5003 26.2066 27.9419H26.2166ZM32.9977 16.384C35.072 14.5191 36.0991 13.7313 36.5877 13.4022C36.2587 13.9009 35.4808 14.918 33.606 16.9923C32.2797 18.4682 30.6243 20.2432 28.7994 22.118C28.2908 22.3175 27.7623 22.5269 27.2437 22.7463C27.4531 22.2178 27.6625 21.6992 27.862 21.1906C29.7368 19.3756 31.5118 17.7103 32.9877 16.384H32.9977ZM35.6902 20.1036C38.3229 19.1762 39.5695 18.8371 40.1479 18.7274C39.6592 19.0565 38.5423 19.7047 36.0193 20.9114C34.2443 21.759 32.0304 22.7662 29.6171 23.8133C29.0686 23.8133 28.5102 23.7934 27.9418 23.7934C28.3407 23.3845 28.7296 22.9856 29.1185 22.5867C31.5517 21.6194 33.8254 20.7718 35.6902 20.1136V20.1036ZM26.2265 26.8349L26.5656 26.9745C26.6952 27.2837 26.8149 27.5928 26.9346 27.902C26.6952 27.6726 26.4659 27.4432 26.2265 27.2039V26.8449V26.8349ZM27.1938 26.2266C27.4332 26.466 27.6625 26.7053 27.8919 26.9346C27.5828 26.815 27.2736 26.6853 26.9645 26.5657L26.8249 26.2266H27.1839H27.1938ZM26.8348 23.7734L26.9745 23.4344C27.2836 23.3047 27.5927 23.1851 27.9019 23.0654C27.6725 23.3047 27.4431 23.5341 27.2038 23.7734H26.8448H26.8348ZM26.2864 26.2864L26.2265 26.2665V26.2366H26.2564L26.2764 26.2964L26.2864 26.2864ZM26.2265 23.7734V23.7435L26.2864 23.7236L26.2664 23.7834H26.2365L26.2265 23.7734ZM26.6055 24.3319V24.302H26.6753L26.6354 24.3418H26.6055V24.3319ZM26.7351 25L26.7551 24.9801L26.8049 25L26.7551 25.02L26.7351 25ZM26.6354 25.6482L26.6753 25.6881H26.6154L26.6055 25.6582H26.6354V25.6482ZM27.503 24.7108L27.1639 24.5712L27.4232 24.3119C27.7523 24.3119 28.0913 24.3119 28.4204 24.3119C28.1213 24.4416 27.8121 24.5712 27.503 24.7009V24.7108ZM28.4204 25.6781C28.0913 25.6781 27.7623 25.6781 27.4232 25.6781L27.1739 25.4189L27.503 25.2792C27.8121 25.4089 28.1213 25.5385 28.4204 25.6682V25.6781ZM26.2265 22.8061C26.4659 22.5668 26.7052 22.3374 26.9346 22.1081C26.8149 22.4172 26.6853 22.7263 26.5656 23.0355L26.2265 23.1751V22.8161V22.8061ZM26.1966 20.3828C27.2337 17.9895 28.231 15.7756 29.0986 13.9806C30.3052 11.4576 30.9434 10.3407 31.2825 9.8521C31.1728 10.4305 30.8337 11.677 29.9063 14.3097C29.2481 16.1845 28.3905 18.4582 27.4332 20.8815C27.0343 21.2604 26.6354 21.6593 26.2265 22.0582C26.2265 21.4898 26.2166 20.9313 26.2066 20.3828H26.1966ZM28.8094 27.872C30.6343 29.7568 32.2897 31.5319 33.616 32.9978C35.4808 35.082 36.2686 36.0992 36.5977 36.5878C36.0991 36.2587 35.0819 35.4709 33.0077 33.6061C31.5318 32.2798 29.7567 30.6144 27.8819 28.7995C27.6825 28.2909 27.4731 27.7623 27.2636 27.2438C27.7922 27.4532 28.3107 27.6626 28.8193 27.8621L28.8094 27.872ZM29.7268 25.6582C29.2182 25.4388 28.7096 25.2194 28.1811 25C28.6997 24.7806 29.2182 24.5612 29.7268 24.3418C32.3395 24.3817 34.7728 24.4615 36.7473 24.5712C39.5395 24.7208 40.816 24.8903 41.3944 25.01C40.816 25.1297 39.5395 25.2892 36.7473 25.4488C34.7728 25.5585 32.3395 25.6382 29.7268 25.6781V25.6582ZM24.9999 28.1812C25.2193 28.6997 25.4387 29.2183 25.6581 29.7269C25.6182 32.3396 25.5384 34.7729 25.4287 36.7474C25.2792 39.5396 25.1096 40.8161 24.99 41.3945C24.8703 40.8161 24.7107 39.5396 24.5512 36.7474C24.4415 34.7729 24.3617 32.3396 24.3218 29.7269C24.5412 29.2183 24.7606 28.7097 24.98 28.1812H24.9999ZM24.3418 20.2732C24.3817 17.6604 24.4614 15.2272 24.5711 13.2527C24.7207 10.4604 24.8902 9.18396 25.0099 8.60556C25.1296 9.18396 25.2991 10.4604 25.4487 13.2527C25.5584 15.2272 25.6382 17.6604 25.6781 20.2732C25.4587 20.7817 25.2393 21.2903 25.0199 21.8189C24.8005 21.3003 24.5811 20.7817 24.3617 20.2732H24.3418ZM25.6781 28.4205C25.5484 28.1214 25.4188 27.8122 25.2891 27.5031L25.4287 27.174L25.688 27.4333C25.688 27.7723 25.688 28.1014 25.688 28.4305L25.6781 28.4205ZM24.3118 27.4233L24.5711 27.174L24.7107 27.5031C24.5811 27.8122 24.4515 28.1214 24.3218 28.4205C24.3218 28.0914 24.3218 27.7623 24.3218 27.4233H24.3118ZM24.3517 26.6355L24.3118 26.6754V26.6155L24.3418 26.6056V26.6355H24.3517ZM24.3218 21.5795C24.4515 21.8787 24.5811 22.1878 24.7107 22.497L24.5711 22.8261L24.3118 22.5668C24.3118 22.2277 24.3118 21.8986 24.3118 21.5696L24.3218 21.5795ZM25.6481 23.3646L25.688 23.3247V23.3845L25.6581 23.3945V23.3646H25.6481ZM24.9999 26.7352L25.0199 26.7551L24.9999 26.805L24.98 26.7551L24.9999 26.7352ZM25.698 25.1396L25.5883 25.3989L25.3889 25.5984L25.1296 25.7081H25.0697H24.8504L24.5911 25.5984L24.3916 25.3989L24.2819 25.1396V25.0798V24.8604L24.3817 24.6211L24.5811 24.4117L24.8404 24.302H24.9002H25.1196L25.3789 24.4117L25.5783 24.6111L25.688 24.8704V25.01V25.1496L25.698 25.1396ZM24.98 23.2349L24.9999 23.1851L25.0199 23.2349L24.9999 23.2549L24.98 23.2349ZM25.688 22.5768L25.4287 22.836L25.2891 22.5069C25.4188 22.1978 25.5484 21.8887 25.6781 21.5895C25.6781 21.9186 25.6781 22.2477 25.6781 22.5867L25.688 22.5768ZM24.3517 23.3646V23.3945L24.3118 23.3845V23.3247L24.3517 23.3646ZM25.6481 26.6355V26.6056L25.688 26.6155V26.6754L25.6481 26.6355ZM23.8033 29.6172C22.7661 32.0205 21.7589 34.2244 20.9013 36.0194C19.6947 38.5424 19.0564 39.6493 18.7174 40.1479C18.8271 39.5696 19.1661 38.323 20.0936 35.6903C20.7517 33.8255 21.6094 31.5518 22.5667 29.1186C22.9656 28.7396 23.3645 28.3407 23.7733 27.9419C23.7733 28.5103 23.7833 29.0687 23.7933 29.6172H23.8033ZM22.0581 26.2166C21.6592 26.6255 21.2703 27.0244 20.8814 27.4233C18.4481 28.3906 16.1745 29.2482 14.3096 29.8964C11.6769 30.8238 10.4404 31.1529 9.85201 31.2726C10.3407 30.9435 11.4576 30.2953 13.9805 29.0986C15.7656 28.251 17.9695 27.2438 20.3828 26.2067C20.9312 26.2067 21.4897 26.2266 22.0581 26.2266V26.2166ZM23.7733 27.2039C23.534 27.4432 23.2947 27.6726 23.0653 27.902C23.185 27.5928 23.3146 27.2837 23.4343 26.9745L23.7733 26.8349V27.1939V27.2039ZM23.165 26.2266L23.0254 26.5657C22.7163 26.6953 22.4071 26.815 22.098 26.9346C22.3274 26.6953 22.5567 26.466 22.7961 26.2266H23.1551H23.165ZM22.806 23.7734C22.5767 23.5341 22.3373 23.2948 22.108 23.0654C22.4171 23.1851 22.7263 23.3147 23.0354 23.4344L23.175 23.7734H22.816H22.806ZM23.7733 26.2266V26.2565L23.7135 26.2765L23.7335 26.2166H23.7634L23.7733 26.2266ZM23.2648 25L23.2448 25.02L23.195 25L23.2448 24.9801L23.2648 25ZM23.3645 24.3518L23.3246 24.3119H23.3844L23.3944 24.3418H23.3645V24.3518ZM23.3944 25.6682V25.6981H23.3246L23.3645 25.6582H23.3944V25.6682ZM23.7135 23.7136L23.7733 23.7335V23.7635H23.7434L23.7235 23.7036L23.7135 23.7136ZM22.4969 24.7108C22.1877 24.5812 21.8786 24.4515 21.5794 24.3219C21.9085 24.3219 22.2376 24.3219 22.5767 24.3219L22.826 24.5812L22.4969 24.7208V24.7108ZM22.4969 25.2892L22.826 25.4288L22.5767 25.6881C22.2376 25.6881 21.9085 25.6881 21.5794 25.6881C21.8786 25.5585 22.1877 25.4288 22.4969 25.2992V25.2892ZM23.7733 23.1651L23.4343 23.0255C23.3046 22.7164 23.185 22.4072 23.0653 22.0981C23.3046 22.3274 23.534 22.5568 23.7733 22.7961V23.1551V23.1651ZM23.7833 22.0582C23.3745 21.6593 22.9756 21.2704 22.5767 20.8815C21.6094 18.4382 20.7517 16.1646 20.1035 14.3097C19.1761 11.677 18.8371 10.4305 18.7274 9.8521C19.0564 10.3407 19.7046 11.4576 20.9113 13.9806C21.7689 15.7657 22.7661 17.9795 23.8132 20.3828C23.8132 20.9313 23.7933 21.4997 23.7933 22.0582H23.7833ZM21.1905 22.128C19.3656 20.2432 17.7102 18.4682 16.3839 17.0022C14.5191 14.928 13.7312 13.9009 13.4022 13.4122C13.9008 13.7413 14.9179 14.5191 16.9922 16.3939C18.4681 17.7202 20.2332 19.3756 22.1179 21.2006C22.3174 21.7092 22.5268 22.2377 22.7362 22.7563C22.2077 22.5468 21.6891 22.3374 21.1805 22.138L21.1905 22.128ZM20.3828 23.8033C17.9794 22.7662 15.7656 21.759 13.9805 20.9014C11.4576 19.6948 10.3407 19.0565 9.85201 18.7175C10.4304 18.8272 11.6769 19.1662 14.3096 20.0937C16.1745 20.7518 18.4481 21.6094 20.8814 22.5668C21.2603 22.9657 21.6592 23.3646 22.0581 23.7734C21.4897 23.7734 20.9312 23.7834 20.3828 23.7934V23.8033ZM20.2731 24.3418C20.7817 24.5612 21.2902 24.7806 21.8188 25C21.3002 25.2194 20.7817 25.4388 20.2731 25.6582C17.6603 25.6183 15.2271 25.5385 13.2526 25.4288C10.4603 25.2792 9.18387 25.1097 8.60548 24.99C9.18387 24.8704 10.4603 24.7009 13.2526 24.5513C15.2271 24.4416 17.6603 24.3618 20.2731 24.3219V24.3418ZM22.7462 27.2538C22.5368 27.7823 22.3274 28.3009 22.1279 28.8094C20.2132 30.6643 18.488 32.2798 17.0022 33.6161C14.9279 35.4809 13.9008 36.2687 13.4121 36.5978C13.7412 36.0992 14.529 35.082 16.3938 33.0078C17.7102 31.5418 19.3756 29.7668 21.2005 27.882C21.7091 27.6826 22.2376 27.4732 22.7562 27.2637L22.7462 27.2538Z" fill="black"/>
</svg>
