<svg width="50" height="50" viewBox="0 0 50 50" fill="none" xmlns="http://www.w3.org/2000/svg">
<path d="M37.3504 26.2466H37.2787C37.0327 26.2466 36.8174 26.4161 36.7764 26.6455C35.7105 32.2998 29.8069 36.0992 24.9487 36.0992C20.0906 36.0992 14.2485 32.3895 13.1825 27.0643C13.1313 26.7951 12.8648 26.6156 12.5778 26.6654C12.4446 26.6953 12.3318 26.7651 12.2498 26.8748C12.1781 26.9845 12.1474 27.1142 12.1679 27.2538C13.3465 33.1474 19.7216 37.0964 24.9385 37.0964C30.1554 37.0964 36.6227 32.9679 37.7706 26.825C37.8219 26.5557 37.6374 26.2964 37.3402 26.2466H37.3504Z" fill="black"/>
<path d="M24.9999 7.41882C15.0376 7.41882 6.93042 15.3069 6.93042 25C6.93042 34.6931 15.0376 42.5812 24.9999 42.5812C34.9623 42.5812 43.0695 34.6931 43.0695 25C43.0695 15.3069 34.9623 7.41882 24.9999 7.41882ZM24.9999 41.5839C15.6013 41.5839 7.95535 34.1446 7.95535 25C7.95535 15.8554 15.6013 8.41605 24.9999 8.41605C34.3986 8.41605 42.0445 15.8554 42.0445 25C42.0445 34.1446 34.3986 41.5839 24.9999 41.5839Z" fill="black"/>
<path d="M21.218 25.1595C22.4582 25.1595 23.1039 23.2349 23.1039 21.3401C23.1039 19.4454 22.4582 17.5208 21.218 17.5208C19.9779 17.5208 19.3322 19.4454 19.3322 21.3401C19.3322 23.2349 19.9779 25.1595 21.218 25.1595ZM21.218 18.508C21.4845 18.508 22.079 19.575 22.079 21.3302C22.079 23.0853 21.4845 24.1523 21.218 24.1523C20.9515 24.1523 20.3571 23.0853 20.3571 21.3302C20.3571 19.575 20.9515 18.508 21.218 18.508Z" fill="black"/>
<path d="M28.782 25.1595C30.0222 25.1595 30.6679 23.2349 30.6679 21.3401C30.6679 19.4454 30.0222 17.5208 28.782 17.5208C27.5418 17.5208 26.8961 19.4454 26.8961 21.3401C26.8961 22.2676 27.0499 23.185 27.3266 23.8731C27.7571 24.9401 28.3515 25.1695 28.782 25.1695V25.1595ZM28.2593 19.226C28.4643 18.7075 28.6897 18.508 28.7717 18.508C29.0382 18.508 29.6327 19.575 29.6327 21.3302C29.6327 23.0853 29.0382 24.1523 28.7717 24.1523C28.5053 24.1523 27.9108 23.0853 27.9108 21.3302C27.9108 20.5424 28.0338 19.7944 28.2593 19.216V19.226ZM27.8596 23.7834C27.8596 23.7834 27.8288 23.7135 27.8083 23.6737C27.7673 23.5839 27.7366 23.4842 27.7058 23.3845C27.7468 23.5241 27.7981 23.6537 27.8596 23.7734V23.7834Z" fill="black"/>
</svg>
