<svg width="50" height="50" viewBox="0 0 50 50" fill="none" xmlns="http://www.w3.org/2000/svg">
<path d="M42.0578 34.1662H7.94207C7.81154 34.1662 7.70304 34.062 7.69326 33.928C7.68399 33.7948 7.77703 33.6757 7.90607 33.6568L15.2884 32.5548L8.01318 29.1286C7.90019 29.0755 7.84275 28.9455 7.87785 28.8233C7.91245 28.7012 8.02684 28.6181 8.15199 28.6421L16.0753 29.8012L10.034 24.4063C9.94042 24.3231 9.92098 24.1816 9.98769 24.0745C10.0554 23.9674 10.1892 23.9269 10.3008 23.9799L17.5853 27.387L13.2677 20.4612C13.201 20.3541 13.2204 20.213 13.3144 20.1294C13.4065 20.0459 13.5467 20.0454 13.6406 20.1294L19.6961 25.5073L17.4514 17.6127C17.4163 17.4901 17.4742 17.3605 17.5867 17.3074C17.6982 17.2543 17.8321 17.2939 17.8998 17.402L22.2355 24.3152L22.2466 16.0893C22.2466 15.9622 22.3377 15.854 22.4604 15.836C22.5871 15.8235 22.7005 15.895 22.7351 16.0172L24.9998 23.9069L27.265 16.0172C27.3001 15.8951 27.4189 15.8195 27.5396 15.836C27.6623 15.854 27.7538 15.9621 27.7538 16.0893L27.7645 24.3152L32.1002 17.402C32.1654 17.2939 32.3008 17.2544 32.4128 17.3074C32.5258 17.3605 32.5832 17.49 32.5491 17.6127L30.3044 25.5073L36.3598 20.1294C36.4534 20.0463 36.5926 20.0463 36.686 20.1294C36.7796 20.213 36.799 20.3541 36.7328 20.4612L32.4157 27.387L39.6992 23.9799C39.8102 23.9268 39.9446 23.9669 40.0118 24.0745C40.079 24.1816 40.0596 24.3232 39.966 24.4063L33.9251 29.8012L41.8474 28.6421C41.9692 28.6221 42.0869 28.7011 42.122 28.8233C42.1561 28.9454 42.0987 29.0755 41.9867 29.1286L34.711 32.5548L42.0938 33.6568C42.2234 33.6758 42.3159 33.7949 42.3061 33.928C42.2973 34.062 42.1883 34.1662 42.0578 34.1662ZM11.3949 33.6537H38.6045L33.8033 32.9371C33.6942 32.9211 33.6086 32.8329 33.593 32.7199C33.5765 32.6078 33.6349 32.4987 33.7352 32.4506L40.2172 29.3979L33.1587 30.4308C33.0477 30.4478 32.9425 30.3867 32.8968 30.2836C32.851 30.1805 32.8763 30.0584 32.9601 29.9843L38.3426 25.177L31.8529 28.2127C31.7525 28.2608 31.6328 28.2327 31.5617 28.1477C31.4887 28.0616 31.4799 27.9364 31.5392 27.8414L35.3859 21.6713L29.9907 26.4632C29.908 26.5373 29.7862 26.5483 29.6937 26.4842C29.6001 26.4231 29.5573 26.3061 29.5884 26.1969L31.5888 19.1635L27.7255 25.3232C27.6652 25.4183 27.5522 25.4622 27.446 25.4303C27.3398 25.3983 27.2668 25.2982 27.2668 25.1841L27.257 17.8554L25.2392 24.8847C25.2071 24.9937 25.1097 25.0679 24.9997 25.0679C24.8892 25.0679 24.7918 24.9937 24.7607 24.8847L22.7429 17.8553L22.7331 25.184C22.7331 25.298 22.6601 25.3982 22.5539 25.4302C22.4463 25.4621 22.3348 25.4182 22.2744 25.3231L18.4116 19.1634L20.4114 26.1968C20.4426 26.3059 20.4003 26.423 20.3072 26.4841C20.2133 26.5471 20.0925 26.5362 20.0093 26.4631L14.614 21.6712L18.4608 27.8413C18.5207 27.9364 18.5119 28.0615 18.4393 28.1476C18.3667 28.2326 18.2479 28.2607 18.1476 28.2126L11.6579 25.1769L17.0404 29.9842C17.1237 30.0583 17.1495 30.1804 17.1037 30.2835C17.058 30.3866 16.9499 30.4467 16.8418 30.4307L9.78216 29.3978L16.2642 32.4505C16.365 32.4986 16.4229 32.6077 16.4074 32.7198C16.3918 32.8329 16.3055 32.921 16.1965 32.937L11.3949 33.6537Z" fill="#081219"/>
</svg>
