<svg width="50" height="50" viewBox="0 0 50 50" fill="none" xmlns="http://www.w3.org/2000/svg">
<path d="M42.6011 25.0499C39.5097 24.651 37.0167 22.1579 36.7175 19.0665C37.0167 15.9751 39.5097 13.482 42.6011 13.0831C39.41 12.6842 36.9169 10.1911 36.7175 7C36.518 10.1911 34.025 12.6842 30.8338 13.0831C27.7424 12.6842 25.2493 10.0914 24.9502 7C24.7507 10.1911 22.2577 12.6842 19.0665 13.0831C15.9751 12.6842 13.5818 10.0914 13.2826 7C13.0831 10.1911 10.5901 12.6842 7.39893 13.0831C10.4903 13.482 12.9834 15.9751 13.2826 19.0665C12.9834 22.1579 10.4903 24.651 7.39893 25.0499C10.4903 25.4488 12.9834 27.9418 13.2826 31.0332C12.9834 34.1247 10.4903 36.6177 7.39893 37.0166C10.5901 37.4155 13.0831 39.9086 13.2826 43.0997C13.5818 39.9086 15.9751 37.3158 19.1662 36.9169C22.2577 37.3158 24.7507 39.8089 25.0499 43C25.2493 39.8089 27.7424 37.3158 30.9336 36.9169C34.025 37.3158 36.518 39.8089 36.8172 43C37.0167 39.8089 39.5097 37.2161 42.7009 36.9169C39.6095 36.518 37.1164 34.0249 36.8172 30.9335C37.0167 27.8421 39.5097 25.349 42.6011 25.0499ZM30.8338 13.0831C33.9252 13.482 36.3186 15.9751 36.6178 19.0665C36.3186 22.1579 33.9252 24.651 30.8338 25.0499C27.7424 24.651 25.3491 22.1579 25.0499 19.0665C25.3491 15.8753 27.7424 13.482 30.8338 13.0831ZM19.1662 13.0831C22.2577 13.482 24.651 15.9751 24.9502 19.0665C24.651 22.1579 22.2577 24.651 19.1662 25.0499C16.0748 24.651 13.6815 22.1579 13.3823 19.0665C13.5818 15.8753 16.0748 13.482 19.1662 13.0831ZM19.1662 36.9169C16.0748 36.518 13.6815 34.0249 13.3823 30.9335C13.6815 27.8421 16.0748 25.349 19.1662 24.9501C22.2577 25.349 24.651 27.8421 24.9502 30.9335C24.651 34.1247 22.2577 36.518 19.1662 36.9169ZM30.8338 36.9169C27.7424 36.518 25.3491 34.0249 25.0499 30.9335C25.3491 27.8421 27.7424 25.349 30.8338 24.9501C33.9252 25.349 36.3186 27.8421 36.6178 30.9335C36.4183 34.1247 33.9252 36.518 30.8338 36.9169Z" fill="#081219"/>
</svg>
