<svg width="50" height="50" viewBox="0 0 50 50" fill="none" xmlns="http://www.w3.org/2000/svg">
<path d="M43.1822 24.9692L42.3008 19.4346C42.3008 19.4346 42.3008 19.4141 42.3008 19.4039C42.3008 19.4039 42.3008 19.3834 42.3008 19.3731C42.3008 19.3731 42.3008 19.3731 42.3008 19.3629L39.759 14.351C39.759 14.351 39.759 14.3305 39.7385 14.3202C39.7385 14.3202 39.7384 14.2997 39.7282 14.2895L35.7617 10.3332C35.7617 10.3332 35.7412 10.3127 35.731 10.3025C35.731 10.3025 35.7207 10.3025 35.7105 10.3025L30.6986 7.74015C30.6986 7.74015 30.6781 7.74015 30.6678 7.74015C30.6678 7.74015 30.6678 7.74015 30.6473 7.74015L25.0922 6.86896C25.0922 6.86896 25.0614 6.86896 25.0512 6.86896C25.0512 6.86896 25.0307 6.86896 25.0204 6.86896L19.4756 7.74015C19.4756 7.74015 19.4551 7.74015 19.4448 7.74015H19.4243C19.4243 7.74015 19.4243 7.74015 19.4141 7.74015L14.4227 10.2922C14.4227 10.2922 14.4022 10.2922 14.3919 10.3025C14.3919 10.3025 14.3919 10.3025 14.3817 10.3127C14.3817 10.3127 14.3817 10.3127 14.3714 10.323L10.3844 14.2997C10.3844 14.2997 10.3844 14.2997 10.3844 14.31C10.3844 14.31 10.3844 14.31 10.3742 14.3202C10.3742 14.3202 10.3742 14.3202 10.3742 14.3305L7.83236 19.3424C7.83236 19.3424 7.83236 19.3526 7.82211 19.3629C7.82211 19.3629 7.82211 19.3834 7.82211 19.3936C7.82211 19.3936 7.82211 19.4039 7.82211 19.4141L6.93042 24.959C6.93042 24.959 6.93042 24.9795 6.93042 24.9897C6.93042 24.9897 6.93042 24.9897 6.93042 25C6.93042 25 6.93042 25 6.93042 25.0102C6.93042 25.0102 6.93042 25.0205 6.93042 25.0307L7.82211 30.6064C7.82211 30.6064 7.82211 30.6166 7.82211 30.6269C7.82211 30.6269 7.82211 30.6269 7.82211 30.6371L10.3742 35.6593C10.3742 35.6593 10.3742 35.6695 10.3844 35.6798C10.3844 35.6798 10.3844 35.6798 10.3947 35.69L14.3714 39.6565C14.3714 39.6565 14.3919 39.677 14.4022 39.6872C14.4022 39.6872 14.4124 39.6975 14.4227 39.6975L19.4346 42.2598C19.4346 42.2598 19.4346 42.2598 19.4448 42.2598C19.4448 42.2598 19.4551 42.2598 19.4653 42.2598C19.4653 42.2598 19.4756 42.2598 19.4858 42.2598L25.0717 43.131L30.6473 42.2598C30.6473 42.2598 30.6678 42.2598 30.6781 42.2598C30.6781 42.2598 30.6986 42.2598 30.7088 42.2598C30.7088 42.2598 30.7088 42.2598 30.7191 42.2598L35.731 39.6975C35.731 39.6975 35.7412 39.6975 35.7515 39.6872C35.7515 39.6872 35.7515 39.6872 35.7617 39.677C35.7617 39.677 35.7617 39.677 35.772 39.677L39.759 35.7003C39.759 35.7003 39.759 35.6798 39.7692 35.6695C39.7692 35.6695 39.7692 35.6593 39.7795 35.649L42.3315 30.6269C42.3315 30.6269 42.3315 30.6064 42.3315 30.5961C42.3315 30.5961 42.3315 30.5961 42.3315 30.5859L43.2232 25.0205C43.2232 25.0205 43.2232 25.0102 43.2232 25V24.9795C43.2232 24.9795 43.2232 24.9692 43.2232 24.959L43.1822 24.9692ZM23.6368 28.6282L22.8783 28.2388L22.9603 28.126L23.688 28.495L23.647 28.618L23.6368 28.6282ZM21.7612 27.1318L21.3717 26.3734L21.5049 26.3324L21.8739 27.0601L21.7612 27.1421V27.1318ZM21.9764 27.4188L22.0891 27.3368L22.6631 27.9108L22.5811 28.0235L21.9764 27.4188ZM20.3365 28.167L19.7011 26.9064L21.0335 26.4759L21.4742 27.3368L20.3365 28.167ZM19.5883 26.5681L19.3628 25.1742H20.767L20.9207 26.1274L19.5883 26.5579V26.5681ZM19.3628 24.8257L19.5883 23.4318L20.9207 23.8623L20.767 24.8155H19.3628V24.8257ZM16.3188 21.9867L17.4565 19.7421L20.0393 21.6177L19.3526 22.9706L16.3188 21.9867ZM19.2398 23.3191L19.0041 24.8257H15.8063L16.206 22.3352L19.2398 23.3191ZM19.0041 25.1742L19.2398 26.6809L16.206 27.6648L15.8063 25.1742H19.0041ZM19.3526 27.0191L20.0393 28.372L17.4565 30.2476L16.3188 28.003L19.3526 27.0191ZM17.6717 19.4551L19.4551 17.6717L21.3307 20.2546L20.2545 21.3307L17.6717 19.4551ZM19.7011 23.0834L20.3365 21.8329L21.4742 22.6631L21.0335 23.5241L19.7011 23.0936V23.0834ZM20.5415 21.546L21.5357 20.5518L22.3556 21.6895L21.6689 22.3762L20.5312 21.546H20.5415ZM20.2545 28.6692L21.3307 29.7454L19.4551 32.3282L17.6717 30.5449L20.2545 28.6692ZM21.6792 27.6341L22.3659 28.3208L21.5357 29.4584L20.5415 28.4642L21.6792 27.6443V27.6341ZM21.2692 26.0249L21.136 25.1845H21.2692L21.3922 25.9839L21.259 26.0249H21.2692ZM21.136 24.8257L21.2692 23.9853L21.4024 24.0263L21.2794 24.8257H21.1462H21.136ZM21.8739 22.9501L21.5049 23.6778L21.3717 23.6368L21.7612 22.8784L21.8739 22.9604V22.9501ZM22.5811 21.9764L22.6631 22.0892L22.0891 22.6631L21.9764 22.5811L22.5811 21.9764ZM22.6631 21.4742L21.8432 20.3365L23.0936 19.6908L23.524 21.0233L22.6631 21.464V21.4742ZM21.6177 20.0393L19.7421 17.4565L21.9867 16.3086L22.9706 19.3424L21.6177 20.0393ZM17.1695 19.5269L15.9806 21.8739L12.3011 20.6748L14.0434 17.2515L17.1695 19.5269ZM15.8576 22.2224L15.4373 24.8257H11.5734L12.1781 21.0335L15.8576 22.2327V22.2224ZM15.4476 25.1742L15.8678 27.7775L12.1883 28.9767L11.5836 25.1845H15.4476V25.1742ZM15.9703 28.126L17.1592 30.4731L14.0332 32.7485L12.2908 29.3149L15.9703 28.126ZM17.3745 30.7601L19.2398 32.6152L16.9645 35.7413L14.2382 33.0252L17.3642 30.7498L17.3745 30.7601ZM19.7421 32.5332L21.6177 29.9504L22.9706 30.6371L21.9867 33.6709L19.7421 32.523V32.5332ZM21.8329 29.6634L22.6529 28.5257L23.5138 28.9665L23.0833 30.2989L21.8329 29.6634ZM23.6778 21.505L22.9501 21.8739L22.8681 21.7612L23.6265 21.3717L23.6675 21.505H23.6778ZM24.8257 19.3629V20.767L23.8725 20.9208L23.4421 19.5883L24.836 19.3731L24.8257 19.3629ZM24.8257 15.8064V19.0041L23.3191 19.2399L22.3351 16.2061L24.8257 15.8166V15.8064ZM24.8257 11.5836V15.4476L22.2224 15.8576L21.0232 12.1781L24.8257 11.5836ZM19.3936 17.2413C19.3936 17.2413 19.3833 17.2413 19.3731 17.2413C19.3731 17.2413 19.3731 17.2413 19.3628 17.2515C19.3628 17.2515 19.3628 17.2515 19.3526 17.2618L17.3745 19.2296L14.2484 16.9543L17.0977 14.1152L20.685 12.2806L21.8842 15.9601L19.4038 17.231L19.3936 17.2413ZM19.5268 32.8305L21.8739 34.0296L20.6747 37.7091L17.2515 35.9565L19.5268 32.8305ZM24.8257 34.5523V38.4163L21.0232 37.8219L22.2224 34.1424L24.8257 34.5523ZM24.8257 30.9958V34.1834L22.3351 33.7939L23.3191 30.7601L24.8257 30.9958ZM24.8257 29.2329V30.6371L23.4318 30.4219L23.8623 29.0895L24.8155 29.2432L24.8257 29.2329ZM24.8257 21.136V21.2692L24.0263 21.3922L23.9853 21.259L24.836 21.1257L24.8257 21.136ZM24.8257 7.21743V11.2249L20.9105 11.8399L19.6703 8.02713L24.8155 7.21743H24.8257ZM17.0465 13.7462L14.6891 10.5075L19.3321 8.13987L20.5722 11.9526L17.0465 13.7565V13.7462ZM10.7124 14.4022L14.4022 10.7227L16.7595 13.9615L13.9614 16.7595L10.7227 14.4022H10.7124ZM13.7462 17.0465L11.9526 20.5723L8.13984 19.3321L10.4972 14.6892L13.736 17.0465H13.7462ZM11.8398 20.9105L11.2146 24.8155H7.20715L8.0271 19.6703L11.8398 20.9105ZM11.2146 25.1742L11.8398 29.0792L8.0271 30.3194L7.20715 25.1742H11.2146ZM11.9526 29.4277L13.7462 32.9534L10.5074 35.3108L8.15009 30.6576L11.9628 29.4174L11.9526 29.4277ZM13.9512 33.2507L16.7493 36.0487L14.3919 39.2875L10.7022 35.608L13.9409 33.2507H13.9512ZM14.6891 39.4925L17.0465 36.2537L20.5722 38.0576L19.3321 41.8703L14.6891 39.4925ZM20.9105 38.1703L24.8155 38.7853V42.7928L19.6703 41.9831L20.9105 38.1703ZM23.975 28.7307L24.016 28.6077L24.8155 28.7307V28.864L23.975 28.7307ZM22.2531 26.9986L21.7714 26.0557L21.6074 25.0102L21.7714 23.9546L22.2531 23.0116L23.0013 22.2634L23.9443 21.7817L24.9897 21.6177L26.0351 21.7817L26.9781 22.2634L27.7263 23.0116L28.208 23.9546L28.372 25L28.208 26.0454L27.7263 26.9883L26.9781 27.7365L26.0351 28.2183L24.9897 28.3823L23.9443 28.2183L23.0013 27.7365L22.2531 26.9883V26.9986ZM26.3631 21.3717L27.1216 21.7612L27.0396 21.8739L26.3119 21.505L26.3529 21.3717H26.3631ZM27.4188 28.0235L27.3368 27.9108L27.9108 27.3368L28.0235 27.4188L27.4188 28.0235ZM28.2387 22.8681L28.6282 23.6266L28.5052 23.6676L28.1362 22.9399L28.249 22.8579L28.2387 22.8681ZM28.0235 22.5811L27.9108 22.6631L27.3368 22.0892L27.4188 21.9764L28.0235 22.5811ZM27.0191 19.3526L28.003 16.3188L30.2476 17.4667L28.372 20.0496L27.0191 19.3526ZM29.6634 21.8329L30.2988 23.0936L28.9664 23.5241L28.5257 22.6631L29.6634 21.8329ZM30.6371 25.1742L30.4116 26.5681L29.0792 26.1377L29.2329 25.1845H30.6371V25.1742ZM30.4116 23.4318L30.6371 24.8257H29.2329L29.0792 23.8726L30.4116 23.4421V23.4318ZM30.6473 22.9809L29.9606 21.628L32.5434 19.7523L33.6811 21.9969L30.6473 22.9809ZM30.2988 26.9166L29.6634 28.167L28.5257 27.3471L28.9664 26.4861L30.2988 26.9166ZM33.6811 28.0133L32.5434 30.2579L29.9606 28.3823L30.6473 27.0191L33.6811 28.003V28.0133ZM30.7601 26.6809L30.9958 25.1742H34.1936L33.7939 27.6648L30.7601 26.6809ZM30.9958 24.8257L30.7601 23.3191L33.7939 22.3352L34.1936 24.8257H30.9958ZM29.7454 21.3307L28.6692 20.2546L30.5448 17.6717L32.3282 19.4551L29.7454 21.3307ZM28.3207 22.3659L27.634 21.6792L28.454 20.5415L29.4481 21.5357L28.3105 22.3659H28.3207ZM28.7307 23.975L28.8639 24.8155H28.7307L28.6077 24.016L28.7307 23.975ZM28.8639 25.1742L28.7307 26.0147L28.6077 25.9737L28.7307 25.1742H28.8639ZM29.4584 28.454L28.4642 29.4482L27.6443 28.3105L28.331 27.6238L29.4686 28.454H29.4584ZM28.126 27.0498L28.495 26.3221L28.618 26.3631L28.2285 27.1216L28.1157 27.0396L28.126 27.0498ZM32.3282 30.5449L30.5448 32.3282L28.6692 29.7454L29.7454 28.6692L32.3282 30.5449ZM34.0296 21.8739L32.8407 19.5269L35.9667 17.2515L37.7091 20.6748L34.0398 21.8637L34.0296 21.8739ZM32.6254 19.2399L30.7601 17.3745L33.0354 14.2485L35.7515 16.9645L32.6254 19.2399ZM28.167 20.3365L27.347 21.4742L26.4861 21.0335L26.9166 19.7011L28.167 20.3468V20.3365ZM26.3221 28.495L27.0498 28.126L27.1318 28.2388L26.3734 28.6282L26.3324 28.5052L26.3221 28.495ZM27.3368 28.5257L28.1567 29.6634L26.9063 30.3091L26.4758 28.9767L27.3368 28.536V28.5257ZM28.3822 29.9606L30.2578 32.5435L28.0132 33.6914L27.0293 30.6576L28.3822 29.9606ZM35.7515 33.0354L33.0252 35.7515L30.7498 32.6255L32.6152 30.7601L35.7412 33.0354H35.7515ZM32.8407 30.4731L34.0296 28.126L37.6988 29.3149L35.9565 32.7382L32.8304 30.4731H32.8407ZM34.1423 27.7775L34.5626 25.1742H38.4265L37.8218 28.9665L34.1526 27.7673L34.1423 27.7775ZM34.5523 24.8257L34.1423 22.2224L37.8116 21.0335L38.4163 24.8257H34.5523ZM30.4731 17.1695L28.126 15.9703L29.3252 12.2908L32.7484 14.0435L30.4731 17.1695ZM25.1844 15.4476V11.5836L28.9767 12.1781L27.7775 15.8576L25.1742 15.4476H25.1844ZM25.1844 15.8064L27.675 16.1958L26.6911 19.2296L25.1844 18.9939V15.7961V15.8064ZM25.1742 20.767V19.3629L26.5681 19.5781L26.1376 20.9105L25.1844 20.7568L25.1742 20.767ZM25.1742 30.6371V29.2329L26.1274 29.0792L26.5578 30.4116L25.1639 30.6269L25.1742 30.6371ZM25.1742 34.1834V30.9958L26.6808 30.7601L27.6648 33.7939L25.1742 34.1834ZM25.1742 38.4163V34.5523L27.7775 34.1424L28.9767 37.8219L25.1742 38.4163ZM30.4731 32.8305L32.7382 35.9565L29.3149 37.7091L28.1157 34.0296L30.4628 32.8305H30.4731ZM41.9728 19.6806L42.7927 24.8257H38.7853L38.1601 20.9208L41.9626 19.6806H41.9728ZM38.0473 20.5723L36.2537 17.0465L39.4925 14.6892L41.8498 19.3321L38.0371 20.5723H38.0473ZM36.0487 16.7493L33.2506 13.9512L35.608 10.7124L39.2977 14.3919L36.059 16.7493H36.0487ZM35.3108 10.5075L32.9534 13.7462L29.4277 11.9424L30.6678 8.12962L35.3108 10.4972V10.5075ZM29.0894 11.8296L25.1844 11.2147V7.21743L30.3296 8.02713L29.0894 11.8399V11.8296ZM26.0249 21.2692L25.9839 21.4025L25.1844 21.2795V21.1462L26.0249 21.2795V21.2692ZM25.1742 28.864V28.7307L25.9736 28.6077L26.0146 28.7307L25.1742 28.864ZM25.1742 42.7825V38.775L29.0894 38.1601L30.3296 41.9728L25.1844 42.7825H25.1742ZM32.9534 36.2537L35.3108 39.4925L30.6678 41.8601L29.4277 38.0473L32.9534 36.2435V36.2537ZM39.2875 35.5978L35.5977 39.2773L33.2404 36.0385L36.0385 33.2404L39.2772 35.5978H39.2875ZM36.2537 32.9534L38.0473 29.4277L41.8498 30.6678L39.4925 35.3108L36.2537 32.9534ZM38.1601 29.0895L38.7853 25.1845H42.7927L41.9728 30.3296L38.1703 29.0895H38.1601Z" fill="black"/>
</svg>
