<svg width="50" height="50" viewBox="0 0 50 50" fill="none" xmlns="http://www.w3.org/2000/svg">
<path d="M36.053 42.165C30.5177 33.6473 27.7357 29.553 25 29.553C22.2644 29.553 19.4822 33.6473 13.947 42.165L13.7794 42.0563C19.1587 33.7781 22.122 29.2183 21.0206 26.5144C20.0193 24.0561 15.7491 22.9984 6.95837 21.0246L7.00204 20.8297C16.0764 22.8669 20.5352 23.7689 22.7119 22.0269C24.807 20.3499 24.9001 16.237 24.9001 7.83508H25.1C25.1 16.237 25.193 20.35 27.2882 22.0269C29.4647 23.7693 33.9233 22.8671 42.998 20.8297L43.0418 21.0246C34.2509 22.9983 29.9809 24.0561 28.9795 26.5144C27.878 29.2183 30.8414 33.7781 36.2208 42.0563L36.053 42.165Z" fill="#081219"/>
</svg>
