<svg width="50" height="50" viewBox="0 0 50 50" fill="none" xmlns="http://www.w3.org/2000/svg">
<path d="M22.184 24.2281C20.4174 19.6137 26.7146 17.1107 30.4117 18.2487C36.3686 20.2055 38.2068 27.7378 35.702 32.9117C32.6457 38.8404 25.2398 41.3523 19.489 40.7585C15.3336 43.4766 32.5011 42.5152 36.856 33.4227C41.5731 23.5745 30.932 10.3493 21.5754 19.7366C20.6677 21.2087 20.0035 22.5931 20.8383 24.5068C21.6823 26.4413 23.8046 25.152 24.721 26.2933C25.0271 26.6747 24.7779 27.4857 24.5089 27.7637C21.0084 30.0253 17.4266 25.4085 17.562 22.1842C17.5197 19.6695 18.8566 17.2219 21.1223 15.647C30.7558 9.04363 41.8861 18.8443 41.3735 28.9088C41.3584 29.6201 42.6253 29.6467 42.6409 28.9337C42.8316 24.29 40.6423 19.5066 37.2899 16.0961C29.4171 8.08709 12.4699 14.0046 16.9059 25.4726C18.0767 29.1088 25.0309 32.1005 26.3133 27.1979C26.513 26.3535 25.5319 25.2617 26.1448 24.7803C27.8362 23.4519 29.1197 27.0768 28.0933 29.0044C26.9888 31.1567 24.2566 32.49 21.8014 32.3852C12.5008 31.9883 10.8231 19.6914 16.5953 14.2111C19.3251 10.8385 27.5352 8.58301 30.8163 9.32575C31.1831 9.37372 31.4573 9.03825 31.4437 8.6945C31.0936 7.25779 26.5695 8.19818 25.2671 8.33989C16.8075 9.25993 9.43423 17.6666 12.4215 26.2008C16.8278 39.2996 34.2422 32.4755 28.7518 24.3817C27.9904 23.6524 26.9201 23.3262 25.8392 23.4772C25.288 23.5856 24.8747 22.8925 25.1959 22.5144C28.524 19.9723 32.0119 24.0696 32.2793 27.136C32.5394 29.3494 31.7363 31.6379 30.0835 33.4074C19.3709 42.8053 6.29046 30.0803 9.2603 18.1927C9.31339 17.8991 9.11179 17.6197 8.81046 17.5675C7.2172 17.361 7.3896 21.5443 7.35475 22.5786C7.18317 27.6732 10.1467 32.244 13.8796 35.064C21.4331 41.4067 35.6922 36.2178 33.5248 26.1505C32.7704 22.8476 29.6955 19.7177 26.0602 20.4289C24.1483 20.7389 23.5024 22.4373 23.53 23.7976C23.583 24.4199 22.6844 24.8699 22.2684 24.3396" fill="#081219"/>
</svg>
