<svg width="50" height="50" viewBox="0 0 50 50" fill="none" xmlns="http://www.w3.org/2000/svg">
<path d="M41.5842 34.1662H8.4161C8.28919 34.1662 8.1837 34.062 8.1742 33.928C8.16519 33.7948 8.25564 33.6757 8.3811 33.6568L15.5583 32.5548L8.48523 29.1286C8.37538 29.0755 8.31954 28.9455 8.35366 28.8233C8.38731 28.7012 8.49851 28.6181 8.62019 28.6421L16.3234 29.8012L10.4499 24.4063C10.3589 24.3231 10.34 24.1816 10.4049 24.0745C10.4707 23.9674 10.6008 23.9269 10.7093 23.9799L17.7914 27.387L13.5938 20.4612C13.5289 20.3541 13.5478 20.213 13.6392 20.1294C13.7287 20.0459 13.865 20.0454 13.9564 20.1294L19.8437 25.5073L17.6612 17.6127C17.6271 17.4901 17.6834 17.3605 17.7928 17.3074C17.9012 17.2543 18.0314 17.2939 18.0972 17.402L22.3125 24.3152L22.3233 16.0893C22.3233 15.9622 22.4118 15.854 22.5312 15.836C22.6543 15.8235 22.7646 15.895 22.7982 16.0172L25 23.9069L27.2023 16.0172C27.2364 15.8951 27.3519 15.8195 27.4693 15.836C27.5885 15.854 27.6775 15.9621 27.6775 16.0893L27.6879 24.3152L31.9031 17.402C31.9665 17.2939 32.0982 17.2544 32.2071 17.3074C32.3169 17.3605 32.3728 17.49 32.3396 17.6127L30.1572 25.5073L36.0445 20.1294C36.1354 20.0463 36.2708 20.0463 36.3616 20.1294C36.4526 20.213 36.4715 20.3541 36.4071 20.4612L32.2099 27.387L39.291 23.9799C39.399 23.9268 39.5297 23.9669 39.595 24.0745C39.6603 24.1816 39.6414 24.3232 39.5505 24.4063L33.6774 29.8012L41.3796 28.6421C41.498 28.6221 41.6125 28.7011 41.6466 28.8233C41.6798 28.9454 41.6239 29.0755 41.5151 29.1286L34.4415 32.5548L41.6192 33.6568C41.7451 33.6758 41.8351 33.7949 41.8256 33.928C41.8171 34.062 41.711 34.1662 41.5842 34.1662Z" fill="#081219"/>
</svg>
