<svg width="50" height="50" viewBox="0 0 50 50" fill="none" xmlns="http://www.w3.org/2000/svg">
<path d="M35.6278 25C39.7194 24.2117 42.7986 20.7846 42.7986 16.6757C42.7986 11.9838 38.7838 8.1803 33.8314 8.1803C29.3928 8.1803 25.7173 11.2383 25.0001 15.2499C24.2829 11.2383 20.6074 8.1803 16.1688 8.1803C11.2162 8.1803 7.20135 11.9838 7.20135 16.6757C7.20135 20.7846 10.2807 24.2117 14.3722 25C10.2806 25.7883 7.20135 29.2155 7.20135 33.3244C7.20135 38.0162 11.2162 41.8197 16.1687 41.8197C20.6071 41.8197 24.2827 38.7618 25 34.7502C25.7171 38.7618 29.3927 41.8197 33.8312 41.8197C38.7838 41.8197 42.7985 38.0161 42.7985 33.3244C42.7985 29.2155 39.7194 25.7883 35.6278 25ZM25 31.8985C24.3822 28.4431 21.5719 25.6948 17.9652 25C21.5719 24.3051 24.3822 21.5569 25 18.1015C25.6178 21.5569 28.4282 24.3051 32.0348 25C28.4282 25.6948 25.6178 28.4431 25 31.8985Z" fill="#081219"/>
</svg>
