<svg width="50" height="50" viewBox="0 0 50 50" fill="none" xmlns="http://www.w3.org/2000/svg">
<path d="M41.0094 22.2077C40.251 21.6393 39.4618 21.0509 39.267 20.4925C39.062 19.8941 39.3593 18.9368 39.636 18.0094C40.0152 16.7529 40.4047 15.4664 39.7488 14.5789C39.0825 13.6814 37.6784 13.6515 36.3255 13.6116C35.3416 13.5916 34.3269 13.5617 33.8144 13.1928C33.3122 12.8337 32.974 11.9163 32.6562 11.0188C32.2053 9.77225 31.7338 8.47585 30.6371 8.12682C29.5917 7.79774 28.454 8.54566 27.3573 9.28361C26.5271 9.83209 25.6765 10.4105 25 10.4105C24.3235 10.4105 23.4729 9.84206 22.6427 9.28361C21.546 8.55563 20.4186 7.79774 19.3731 8.12682C18.2765 8.47585 17.805 9.76228 17.354 11.0188C17.0363 11.9163 16.6981 12.8337 16.1958 13.1928C15.6834 13.5617 14.6687 13.5817 13.6848 13.6116C12.3319 13.6415 10.938 13.6814 10.2615 14.5789C9.59529 15.4664 9.99502 16.7628 10.3742 18.0094C10.651 18.9368 10.9482 19.8842 10.7432 20.4925C10.5587 21.0509 9.76953 21.6393 9.00083 22.2077C7.90416 23.0155 6.77673 23.8531 6.77673 25C6.77673 26.1468 7.90416 26.9844 9.00083 27.8022C9.75928 28.3706 10.5485 28.949 10.733 29.5174C10.938 30.1157 10.6407 31.0731 10.364 32.0005C9.98477 33.257 9.58504 34.5534 10.2512 35.431C10.9175 36.3285 12.3216 36.3584 13.6745 36.3983C14.6585 36.4182 15.6731 36.4482 16.1856 36.8171C16.6878 37.1761 17.026 38.1036 17.354 38.9911C17.805 40.2376 18.2765 41.534 19.3731 41.8831C19.5371 41.9329 19.7216 41.9628 19.9061 41.9628C20.808 41.9628 21.7407 41.3346 22.6632 40.7263C23.4934 40.1778 24.344 39.5994 25.0103 39.5994C25.6765 39.5994 26.5374 40.1678 27.3676 40.7263C28.2798 41.3346 29.2227 41.9628 30.1144 41.9628C30.2886 41.9628 30.4731 41.9329 30.6474 41.8831C31.744 41.534 32.2155 40.2476 32.6665 38.9911C32.9842 38.0936 33.3224 37.1761 33.8247 36.8171C34.3371 36.4482 35.3621 36.4282 36.3357 36.3983C37.6886 36.3684 39.0825 36.3285 39.7488 35.431C40.415 34.5434 40.0152 33.247 39.636 32.0005C39.3593 31.0731 39.062 30.1257 39.267 29.5174C39.4515 28.959 40.2407 28.3706 41.0094 27.8022C42.1061 26.9944 43.2335 26.1468 43.2335 25.0099C43.2335 23.8731 42.1061 23.0254 41.0094 22.2177V22.2077ZM38.4163 29.2382C38.1294 30.0958 38.4573 31.1828 38.7751 32.2299C39.0928 33.277 39.4208 34.3639 39.0211 34.9124C38.6111 35.4609 37.4324 35.4908 36.2947 35.5207C35.1776 35.5506 34.0194 35.5806 33.2814 36.0991C32.5537 36.6177 32.1745 37.6747 31.8055 38.6919C31.4263 39.739 31.0368 40.826 30.3501 41.0454C29.7147 41.2448 28.7717 40.6166 27.8493 39.9983C26.9064 39.37 25.9327 38.7218 24.9898 38.7218C24.0468 38.7218 23.0731 39.37 22.1302 39.9983C21.259 40.5767 20.2648 41.2349 19.6294 41.0454C18.9529 40.826 18.5532 39.739 18.174 38.6919C17.805 37.6747 17.4258 36.6177 16.6981 36.0991C15.9601 35.5806 14.8019 35.5506 13.6848 35.5207C12.5471 35.4908 11.3787 35.4609 10.9687 34.9124C10.569 34.3739 10.897 33.2869 11.2147 32.2299C11.5324 31.1828 11.8604 30.0958 11.5734 29.2382C11.2967 28.4205 10.4357 27.7822 9.52355 27.1041C8.60111 26.426 7.64792 25.718 7.64792 25C7.64792 24.2819 8.60111 23.5739 9.52355 22.8958C10.4357 22.2177 11.2967 21.5795 11.5734 20.7617C11.8604 19.9041 11.5324 18.8171 11.2147 17.77C10.897 16.7229 10.569 15.636 10.9687 15.0875C11.3787 14.539 12.5573 14.5091 13.6848 14.4792C14.8019 14.4493 15.9601 14.4193 16.6981 13.9008C17.4258 13.3822 17.805 12.3252 18.174 11.308C18.5532 10.2609 18.9427 9.17391 19.6294 8.95452C20.2648 8.7451 21.2078 9.38333 22.1302 10.0016C23.0731 10.6299 24.0366 11.2781 24.9898 11.2781C25.9429 11.2781 26.9064 10.6299 27.8493 10.0016C28.7615 9.3933 29.7044 8.75508 30.3501 8.95452C31.0266 9.17391 31.4161 10.2609 31.8055 11.308C32.1745 12.3252 32.5537 13.3822 33.2814 13.9008C34.0194 14.4293 35.1776 14.4493 36.2947 14.4792C37.4324 14.5091 38.6008 14.539 39.0108 15.0875C39.4105 15.626 39.0826 16.713 38.7648 17.77C38.4471 18.8171 38.1191 19.9041 38.4061 20.7617C38.6828 21.5795 39.5438 22.2177 40.456 22.8958C41.3784 23.5739 42.3316 24.2819 42.3316 25C42.3316 25.718 41.3784 26.426 40.456 27.1041C39.5438 27.7822 38.6931 28.4205 38.4163 29.2382Z" fill="black"/>
</svg>
