<svg width="50" height="50" viewBox="0 0 50 50" fill="none" xmlns="http://www.w3.org/2000/svg">
<path d="M39.3755 26.3746C41.3615 26.0013 42.6857 25.4978 42.6857 24.827C42.6857 24.0843 41.0273 23.4191 39.1583 22.9695C41.1622 22.6167 42.3511 22.1871 42.3511 21.722C42.3511 20.5273 34.5825 19.559 24.9994 19.559C15.4163 19.559 7.64768 20.5273 7.64768 21.722C7.64768 22.1974 8.89272 22.6355 10.9782 22.9925C9.12408 23.4247 7.31421 24.0694 7.31421 24.827C7.31421 25.4977 8.63783 26.0012 10.6231 26.3745C7.32767 26.9733 7.31421 27.6251 7.31421 27.9318C7.31421 29.9166 18.8817 30.4411 24.9985 30.4411C31.1163 30.4411 42.6857 29.9166 42.6857 27.9318C42.6858 27.625 42.6722 26.9738 39.3755 26.3746ZM7.97358 24.877C8.14989 24.5344 10.1704 23.7305 13.0526 23.288C16.1649 23.6569 20.3648 23.885 24.9994 23.885C29.7107 23.885 33.977 23.6501 37.1038 23.2701C40.0172 23.7077 41.8725 24.5217 42.0206 24.806C41.7012 25.5597 35.4558 26.6496 24.9986 26.6496C19.8826 26.6496 15.7829 26.3881 12.8834 26.0414L12.879 26.0401L12.8755 26.0405C9.85455 25.679 8.13952 25.2253 7.97358 24.877ZM24.9985 29.7545C14.5436 29.7545 8.29877 28.6644 7.97886 27.9528C7.99053 27.9258 8.31433 27.2836 12.9523 26.7233C16.7617 27.1813 21.6806 27.3363 24.9985 27.3363C28.3171 27.3363 33.237 27.1814 37.047 26.7233C41.6319 27.2767 42.0011 27.9109 42.0205 27.9109C41.7012 28.6644 35.4558 29.7545 24.9985 29.7545Z" fill="#081219"/>
</svg>
