<svg width="50" height="50" viewBox="0 0 50 50" fill="none" xmlns="http://www.w3.org/2000/svg">
<path d="M42.4309 21.4223C42.4309 20.0788 41.2819 18.8502 39.3202 17.8446C41.2819 16.8391 42.4309 15.6105 42.4309 14.2669C42.4309 10.7849 34.7745 8.05707 24.9998 8.05707C15.2252 8.05707 7.56873 10.7849 7.56873 14.2669C7.56873 15.6105 8.71773 16.8391 10.6794 17.8446C8.71773 18.8502 7.56873 20.0788 7.56873 21.4223C7.56873 22.7658 8.71763 23.9944 10.6791 24.9999C8.71763 26.0054 7.56873 27.2341 7.56873 28.5778C7.56873 29.9212 8.71783 31.1498 10.6798 32.1553C8.71793 33.161 7.56873 34.3898 7.56873 35.7337C7.56873 39.2152 15.2252 41.943 24.9998 41.943C34.7745 41.943 42.4309 39.2152 42.4309 35.7337C42.4309 34.3899 41.2818 33.161 39.3198 32.1553C41.2817 31.1498 42.4309 29.9211 42.4309 28.5778C42.4309 27.2341 41.282 26.0054 39.3205 24.9999C41.282 23.9944 42.4309 22.7658 42.4309 21.4223ZM8.31665 14.2669C8.31665 11.3063 15.9565 8.80499 24.9998 8.80499C34.0431 8.80499 41.683 11.3063 41.683 14.2669C41.683 15.4391 40.4721 16.5357 38.464 17.4371C35.2915 16.0704 30.4794 15.2126 24.9998 15.2126C19.5202 15.2126 14.7082 16.0703 11.5356 17.4371C9.52748 16.5358 8.31665 15.4391 8.31665 14.2669ZM37.4653 17.8446C34.3811 18.9896 29.9029 19.7283 24.9998 19.7283C20.0967 19.7283 15.6184 18.9896 12.5343 17.8446C15.6185 16.6995 20.0967 15.9605 24.9998 15.9605C29.9029 15.9605 34.3812 16.6994 37.4653 17.8446ZM41.683 35.7337C41.683 38.6943 34.0431 41.1951 24.9998 41.1951C15.9565 41.1951 8.31665 38.6942 8.31665 35.7337C8.31665 34.5614 9.52778 33.4644 11.5363 32.5629C14.7089 33.9294 19.5206 34.7871 24.9998 34.7871C30.479 34.7871 35.2907 33.9294 38.4633 32.5629C40.4718 33.4644 41.683 34.5614 41.683 35.7337ZM12.5346 32.1555C15.6187 31.0103 20.0969 30.2714 24.9998 30.2714C29.9027 30.2714 34.381 31.0103 37.465 32.1555C34.381 33.3004 29.9027 34.0392 24.9998 34.0392C20.0969 34.0392 15.6187 33.3004 12.5346 32.1555ZM41.683 28.5778C41.683 29.7499 40.4719 30.8466 38.4638 31.748C35.2912 30.3812 30.4792 29.5233 24.9998 29.5233C19.5204 29.5233 14.7084 30.3812 11.5358 31.748C9.52768 30.8466 8.31665 29.7499 8.31665 28.5778C8.31665 27.4056 9.52748 26.309 11.5354 25.4075C14.7079 26.7743 19.5201 27.6321 24.9998 27.6321C30.4795 27.6321 35.2916 26.7743 38.4642 25.4075C40.4721 26.309 41.683 27.4057 41.683 28.5778ZM12.534 25.0001C15.6181 23.8549 20.0966 23.1159 24.9998 23.1159C29.903 23.1159 34.3815 23.8549 37.4656 25.0001C34.3815 26.1453 29.903 26.8843 24.9998 26.8843C20.0966 26.8843 15.6181 26.1452 12.534 25.0001ZM38.4644 24.5925C35.2919 23.2257 30.4796 22.368 24.9998 22.368C19.52 22.368 14.7077 23.2257 11.5352 24.5925C9.52738 23.6911 8.31665 22.5944 8.31665 21.4223C8.31665 20.2502 9.52768 19.1533 11.5357 18.2519C14.7082 19.6186 19.5203 20.4763 24.9998 20.4763C30.4793 20.4763 35.2913 19.6187 38.4639 18.2519C40.472 19.1533 41.683 20.2502 41.683 21.4223C41.683 22.5944 40.4722 23.691 38.4644 24.5925Z" fill="#081219"/>
</svg>
