<svg width="50" height="50" viewBox="0 0 50 50" fill="none" xmlns="http://www.w3.org/2000/svg">
<path d="M42.7007 38.1734H16.683C15.6559 38.1734 14.8182 37.3357 14.8182 36.2986C14.8182 35.2615 15.6559 34.4338 16.683 34.4338H33.3168C34.7827 34.4338 35.9694 33.2471 35.9694 31.7811C35.9694 30.3152 34.7827 29.1285 33.3168 29.1285H16.683C15.6559 29.1285 14.8182 28.2908 14.8182 27.2537C14.8182 26.2166 15.6559 25.3889 16.683 25.3889H33.3168C34.7827 25.3889 35.9694 24.2022 35.9694 22.7363C35.9694 21.2703 34.7827 20.0836 33.3168 20.0836H16.683C15.6559 20.0836 14.8182 19.246 14.8182 18.2088C14.8182 17.1717 15.6559 16.344 16.683 16.344H33.3168C34.7827 16.344 35.9694 15.1573 35.9694 13.6914C35.9694 12.2255 34.7827 11.0388 33.3168 11.0388H7.2891C7.14949 11.0388 7.03979 11.1485 7.03979 11.2881V11.5673C7.03979 11.7069 7.14949 11.8166 7.2891 11.8166H33.3168C34.3439 11.8166 35.1916 12.6543 35.1916 13.6814C35.1916 14.7086 34.3539 15.5462 33.3168 15.5462H16.683C15.2171 15.5462 14.0304 16.7329 14.0304 18.1989C14.0304 19.6648 15.2171 20.8515 16.683 20.8515H33.3168C34.3439 20.8515 35.1916 21.6892 35.1916 22.7163C35.1916 23.7435 34.3539 24.5811 33.3168 24.5811H16.683C15.2171 24.5811 14.0304 25.7678 14.0304 27.2338C14.0304 28.6997 15.2171 29.8864 16.683 29.8864H33.3168C34.3439 29.8864 35.1916 30.7241 35.1916 31.7512C35.1916 32.7784 34.3539 33.626 33.3168 33.626H16.683C15.2171 33.626 14.0304 34.8127 14.0304 36.2787C14.0304 37.7446 15.2171 38.9313 16.683 38.9313H42.7107C42.8503 38.9313 42.96 38.8216 42.96 38.682V38.4027C42.96 38.2631 42.8503 38.1534 42.7107 38.1534L42.7007 38.1734Z" fill="black"/>
</svg>
