<svg width="50" height="50" viewBox="0 0 50 50" fill="none" xmlns="http://www.w3.org/2000/svg">
<path d="M42.2458 24.5944C37.1487 24.5944 34.0197 23.5175 33.1997 21.4796C32.3796 19.4432 33.8502 16.4125 37.4516 12.7142C37.5246 12.6391 37.5616 12.5411 37.5616 12.4425C37.5616 12.3444 37.5257 12.2458 37.4526 12.1707C37.3065 12.0206 37.0698 12.0206 36.9237 12.1707C30.8868 18.3674 29.5487 17.9725 29.3403 17.8319C29.2001 17.7353 28.5885 17.0276 30.3794 12.5896C30.3988 12.5416 30.4076 12.4916 30.4076 12.4425C30.4076 12.2918 30.321 12.1487 30.1769 12.0876C29.9879 12.0071 29.7688 12.0991 29.688 12.2953C27.903 16.7228 26.9807 16.7919 26.8112 16.7563C26.5668 16.7063 25.3495 16.0131 25.3495 7.24964C25.3495 7.03748 25.1819 6.8653 24.9755 6.8653C24.7691 6.8653 24.6015 7.03748 24.6015 7.24964C24.6015 16.0131 23.3842 16.7063 23.1403 16.7563C22.9792 16.7953 22.0559 16.7382 20.2626 12.2953C20.1842 12.0986 19.9646 12.0066 19.7743 12.0876C19.6302 12.1487 19.5435 12.2918 19.5435 12.4425C19.5435 12.4916 19.5528 12.5416 19.5722 12.5896C21.0491 16.251 21.2307 18.8023 20.0977 19.9678C18.9621 21.1344 16.4768 20.9497 12.9067 19.4308C12.7169 19.3522 12.4977 19.4428 12.4179 19.639C12.3989 19.6871 12.3897 19.7366 12.3897 19.7857C12.3892 19.9369 12.4763 20.0799 12.6204 20.1415C16.9448 21.9802 16.9994 22.924 16.9663 23.0947C16.9181 23.3449 16.2437 24.5945 7.70538 24.5945C7.49896 24.5945 7.33142 24.7667 7.33142 24.9789C7.33142 25.1911 7.49896 25.3632 7.70538 25.3632C16.2437 25.3632 16.9181 26.6134 16.9663 26.8636C16.9994 27.0338 16.9448 27.9776 12.6204 29.8164C12.4763 29.8775 12.3892 30.0216 12.3897 30.1727C12.3897 30.2208 12.3989 30.2708 12.4179 30.3189C12.4978 30.5151 12.7169 30.6102 12.9067 30.5271C17.2326 28.6874 17.9201 29.3179 18.0146 29.4611C18.1525 29.6743 18.5352 31.0476 12.4992 37.2442C12.4262 37.3193 12.3896 37.4184 12.3896 37.5165C12.3896 37.6146 12.4261 37.7126 12.4992 37.7877C12.6448 37.9368 12.8819 37.9388 13.028 37.7887C16.6327 34.0874 19.5879 32.575 21.5712 33.4237C23.554 34.2685 24.6018 37.4794 24.6018 42.7092C24.6018 42.9213 24.7694 43.0935 24.9758 43.0935C25.1822 43.0935 25.3498 42.9213 25.3498 42.7092C25.3498 33.9452 26.5671 33.2526 26.8115 33.2025C26.9752 33.1615 27.8964 33.2206 29.6883 37.6635C29.7682 37.8597 29.9863 37.9518 30.1772 37.8717C30.3213 37.8097 30.4079 37.6675 30.4079 37.5164C30.4079 37.4673 30.3991 37.4173 30.3797 37.3692C28.5888 32.9301 29.2004 32.2235 29.3406 32.1265C29.549 31.9853 30.8871 31.5909 36.924 37.7886C37.0701 37.9387 37.3068 37.9377 37.4529 37.7876C37.5258 37.7125 37.5619 37.6145 37.5619 37.5164C37.5619 37.4183 37.525 37.3192 37.4519 37.2441C31.4168 31.0475 31.7996 29.6743 31.9379 29.461C32.0314 29.3179 32.7189 28.6873 37.0448 30.527C37.2357 30.6101 37.4547 30.516 37.5336 30.3188C37.5531 30.2707 37.5618 30.2207 37.5618 30.1726C37.5618 30.0215 37.4752 29.8773 37.3311 29.8163C33.0072 27.9776 32.9527 27.0338 32.9858 26.8635C33.0335 26.6134 33.7084 25.3631 42.2461 25.3631C42.4526 25.3631 42.6201 25.191 42.6201 24.9788C42.6201 24.7666 42.4523 24.5944 42.2458 24.5944Z" fill="#081219"/>
</svg>
