<svg width="50" height="50" viewBox="0 0 50 50" fill="none" xmlns="http://www.w3.org/2000/svg">
<path d="M24.9997 7.00745C15.3468 7.00745 7.49365 15.0788 7.49365 24.9998C7.49365 34.9218 15.3468 42.9932 24.9997 42.9932C34.6536 42.9932 42.5068 34.9218 42.5068 24.9998C42.5068 15.0788 34.6536 7.00745 24.9997 7.00745ZM24.9997 42.2245C15.7593 42.2245 8.24157 34.4974 8.24157 24.9998C8.24157 15.5027 15.7593 7.77614 24.9997 7.77614C34.2407 7.77614 41.7589 15.5027 41.7589 24.9998C41.7589 34.4974 34.2407 42.2245 24.9997 42.2245Z" fill="#081219"/>
<path d="M24.9998 25.1069C32.222 25.1069 37.8801 22.7428 37.8801 19.7255C37.8801 16.7082 32.222 14.3446 24.9998 14.3446C17.7777 14.3446 12.1206 16.7083 12.1206 19.7255C12.1206 22.7427 17.7777 25.1069 24.9998 25.1069ZM37.1321 19.7255C37.1321 21.8263 33.2046 23.6476 28.0502 24.1777C29.49 23.2085 30.4378 21.5747 30.4378 19.7255C30.4378 17.8761 29.4897 16.2422 28.0495 15.2733C33.2043 15.8033 37.1321 17.6246 37.1321 19.7255ZM24.9998 24.3377C22.4137 24.3377 20.3098 22.2688 20.3098 19.7255C20.3098 17.1822 22.4138 15.1133 24.9998 15.1133C27.5864 15.1133 29.6899 17.1822 29.6899 19.7255C29.6899 22.2688 27.5864 24.3377 24.9998 24.3377ZM21.9501 15.2733C20.51 16.2423 19.5618 17.8761 19.5618 19.7255C19.5618 21.5747 20.5097 23.2085 21.9495 24.1777C16.7955 23.6476 12.8685 21.8263 12.8685 19.7255C12.8685 17.6247 16.7958 15.8033 21.9501 15.2733Z" fill="#081219"/>
<path d="M38.1479 29.6671H35.5847C35.3783 29.6671 35.2108 29.8392 35.2108 30.0514C35.2108 30.2636 35.3783 30.4358 35.5847 30.4358H36.319C34.7511 33.8721 31.7924 36.3929 28.0987 37.3721C24.2486 38.397 20.2937 37.5653 17.2543 35.098C15.7201 33.8527 14.5061 32.2422 13.683 30.4358H14.415C14.6214 30.4358 14.789 30.2636 14.789 30.0514C14.789 29.8392 14.6214 29.6671 14.415 29.6671H11.8522C11.6458 29.6671 11.4783 29.8392 11.4783 30.0514C11.4783 30.2636 11.6458 30.4358 11.8522 30.4358H12.8504C13.7188 32.4859 15.0723 34.3063 16.7907 35.7005C19.1114 37.5853 21.9326 38.5691 24.8533 38.5691C25.9903 38.5691 27.1414 38.42 28.2847 38.1167C32.3154 37.0487 35.5318 34.2511 37.1508 30.4358H38.1479C38.3543 30.4358 38.5219 30.2636 38.5219 30.0514C38.5219 29.8392 38.3543 29.6671 38.1479 29.6671Z" fill="#081219"/>
</svg>
