<svg width="50" height="50" viewBox="0 0 50 50" fill="none" xmlns="http://www.w3.org/2000/svg">
<path d="M37.6579 12.6842C34.2756 9.39333 29.7762 7.57837 25 7.57837C20.2238 7.57837 15.7244 9.39333 12.3421 12.6842C8.95986 15.975 7.09448 20.3429 7.09448 25C7.09448 29.657 8.95986 34.0249 12.3421 37.3158C15.7244 40.6066 20.2238 42.4216 25 42.4216C29.7762 42.4216 34.2756 40.6066 37.6579 37.3158C41.0402 34.0249 42.9056 29.6471 42.9056 25C42.9056 20.3529 41.0402 15.975 37.6579 12.6842ZM25 13.4022C26.0557 13.4022 26.9064 12.5645 26.9064 11.5473C26.9064 11.2581 26.8347 10.969 26.7014 10.7196C27.5521 11.2581 28.0953 12.1955 28.0953 13.2327C28.0953 14.898 26.7014 16.2543 24.9898 16.2543C23.2781 16.2543 21.8842 14.898 21.8842 13.2327C21.8842 12.1955 22.4377 11.2681 23.2781 10.7196C23.1449 10.969 23.0732 11.2482 23.0732 11.5473C23.0732 12.5745 23.9341 13.4022 24.9795 13.4022H25ZM25 12.6244C24.3851 12.6244 23.8931 12.1457 23.8931 11.5473C23.8931 10.949 24.3851 10.4703 25 10.4703C25.615 10.4703 26.1069 10.949 26.1069 11.5473C26.1069 12.1457 25.615 12.6244 25 12.6244ZM21.095 13.2227C21.095 15.3169 22.8477 17.0221 25 17.0221C27.1524 17.0221 28.905 15.3169 28.905 13.2227C28.905 12.4149 28.6488 11.667 28.2081 11.0487C29.3765 11.9562 30.1042 13.3523 30.1042 14.908C30.1042 17.6504 27.8186 19.8742 25 19.8742C22.1815 19.8742 19.8959 17.6504 19.8959 14.908C19.8959 13.3523 20.6236 11.9662 21.792 11.0487C21.3513 11.667 21.095 12.4249 21.095 13.2227ZM19.0862 14.908C19.0862 18.0792 21.7407 20.662 25 20.662C28.2593 20.662 30.9139 18.0792 30.9139 14.908C30.9139 13.5717 30.4322 12.3252 29.6225 11.328C31.1599 12.5944 32.113 14.4892 32.113 16.5933C32.113 20.4027 28.9255 23.5041 25.0103 23.5041C21.095 23.5041 17.9075 20.4027 17.9075 16.5933C17.9075 14.4991 18.8607 12.6044 20.3981 11.328C19.5884 12.3252 19.1067 13.5717 19.1067 14.908H19.0862ZM17.0876 16.5933C17.0876 20.8316 20.6338 24.2919 25 24.2919C29.3662 24.2919 32.9125 20.8415 32.9125 16.5933C32.9125 14.7385 32.2258 13.0133 31.0574 11.657C32.9432 13.2825 34.1014 15.6559 34.1014 18.2687C34.1014 23.1551 30.0119 27.1241 25 27.1241C19.9881 27.1241 15.8986 23.1451 15.8986 18.2687C15.8986 15.6559 17.0568 13.2825 18.9529 11.6471C17.7948 12.9933 17.0978 14.7285 17.0978 16.5834L17.0876 16.5933ZM15.0889 18.2687C15.0889 23.5839 19.5371 27.9119 25 27.9119C30.4629 27.9119 34.9111 23.5839 34.9111 18.2687C34.9111 15.8953 34.0092 13.6814 32.5025 11.9762C34.7369 13.9606 36.1103 16.8127 36.1103 19.944C36.1103 25.8975 31.1291 30.744 25.0103 30.744C18.8914 30.744 13.9103 25.8975 13.9103 19.944C13.9103 16.8127 15.2837 13.9606 17.518 11.9762C16.0114 13.6814 15.1094 15.8953 15.1094 18.2687H15.0889ZM13.0903 19.954C13.0903 26.3462 18.4302 31.5418 25 31.5418C31.5698 31.5418 36.9097 26.3462 36.9097 19.954C36.9097 17.072 35.7925 14.3695 33.9374 12.3152C36.5202 14.6587 38.1089 17.9894 38.1089 21.6393C38.1089 28.6698 32.2258 34.3939 25 34.3939C17.7743 34.3939 11.8912 28.6698 11.8912 21.6393C11.8912 17.9894 13.4798 14.6587 16.0626 12.3152C14.1973 14.3795 13.0903 17.072 13.0903 19.954ZM11.0917 21.6393C11.0917 29.0986 17.3335 35.1717 25 35.1717C32.6665 35.1717 38.9083 29.0986 38.9083 21.6393C38.9083 18.2388 37.5862 15.0576 35.3723 12.6443C38.3139 15.3468 40.1075 19.1562 40.1075 23.3246C40.1075 31.4321 33.3327 38.0238 25 38.0238C16.6673 38.0238 9.89254 31.4221 9.89254 23.3147C9.89254 19.1462 11.6862 15.3368 14.6277 12.6343C12.4139 15.0476 11.0917 18.2288 11.0917 21.6293V21.6393ZM9.0931 23.3147C9.0931 27.4532 10.7432 31.3324 13.7565 34.2642C16.7698 37.1961 20.7568 38.8016 25 38.8016C29.2432 38.8016 33.2405 37.1961 36.2435 34.2642C39.2466 31.3324 40.9069 27.4532 40.9069 23.3147C40.9069 19.5252 39.513 15.9352 36.961 13.113C40.1587 16.1545 42.0959 20.3828 42.0959 24.99C42.0959 34.1645 34.4191 41.6338 24.9898 41.6338C15.5604 41.6338 7.89393 34.1745 7.89393 25C7.89393 20.3928 9.8413 16.1645 13.0288 13.123C10.4768 15.9451 9.08285 19.5252 9.08285 23.3246L9.0931 23.3147Z" fill="black"/>
</svg>
