<svg width="50" height="50" viewBox="0 0 50 50" fill="none" xmlns="http://www.w3.org/2000/svg">
<path d="M42.9724 30.8721C39.3954 29.2945 37.6775 28.07 37.9771 27.9179C39.3222 27.318 40.0607 27.4807 42.4585 27.6911C45.2802 25.7855 35.4707 26.4811 35.2977 25.4718C35.6012 24.275 42.4416 25.6491 41.2975 23.7323C39.047 23.5468 36.8458 23.3379 36.887 22.5062C36.7252 21.7101 38.1433 20.2754 41.1674 19.0746C41.4131 18.9767 41.5364 18.6918 41.4421 18.4377C41.3771 18.1403 41.0711 17.9288 40.7853 18.0492C37.7331 19.2617 35.8227 19.7245 34.8997 19.8325C35.0483 19.5337 36.6513 19.137 36.2927 18.367C36.1787 18.0788 35.8584 17.9219 35.5872 18.084C31.3339 20.4415 33.2911 17.0951 36.2335 13.6521C36.4537 13.4207 36.3843 13.062 36.1432 12.8775C35.9948 12.6842 35.6342 12.6957 35.4668 12.8904C34.0599 14.4008 33.1593 15.2025 32.609 15.6272C32.5607 15.1963 34.4578 13.7707 33.8603 12.9108C33.0294 12.2404 32.3334 14.2611 31.9392 14.4303C32.1181 13.6527 33.3883 11.9275 34.0387 10.0844C33.2506 8.24326 30.571 15.1012 26.0721 13.8343C22.834 13.2358 22.943 11.2395 22.3477 7.87588C22.2921 7.56026 21.9664 7.41237 21.6832 7.50621C20.8511 7.83888 21.6637 9.20698 21.4619 9.8139C20.8612 14.2287 17.1278 12.7429 13.1099 7.6507C12.9596 7.4358 12.6418 7.38843 12.4396 7.55337C12.1796 7.70814 12.0681 8.05269 12.2597 8.31117C15.7897 13.1537 16.2699 17.6014 15.2595 18.9497C14.7142 20.1547 13.012 18.667 12.2633 19.4197C11.8859 20.1079 12.8752 20.3121 13.2542 20.5097C12.8683 20.92 7.80107 18.411 7.03586 19.5737C6.95909 19.828 7.11262 20.1187 7.36199 20.1872C10.5767 21.1499 12.1569 22.4477 12.0565 23.233C11.8822 24.9773 7.32407 23.9754 7.03278 25.3151C8.11736 26.5024 11.0917 25.3969 12.0873 25.7196C17.6915 26.0963 15.6124 33.1609 11.9866 36.5248C11.6372 36.8397 11.9422 37.4413 12.3629 37.4641C12.8194 37.4264 13.1089 36.8733 13.44 36.6446C13.3882 38.7937 15.5875 35.8524 15.9097 35.6418C15.8744 36.3787 13.2564 38.2732 13.5557 39.7789C14.4907 40.4833 17.4527 35.5337 17.6839 36.0101C17.7195 36.4057 16.5917 37.9688 16.0921 39.5167C16.1865 39.8894 16.7193 40.1016 16.9878 39.8013C16.6262 40.3727 15.2624 43.1444 17.0759 42.0721C18.6437 38.919 21.2348 37.1266 23.6905 37.5056C25.5865 37.8007 26.9719 39.4494 27.3952 41.9156C27.4469 42.2389 27.7718 42.3904 28.0547 42.2965C29.0159 41.5059 27.7531 39.2166 27.9192 38.4302C29.191 38.0694 27.437 35.4091 28.9855 34.8273C29.8642 34.3913 32.0943 34.9486 34.6606 38.2692C34.8241 38.4823 35.124 38.517 35.3304 38.3491C35.586 38.1951 35.6912 37.8316 35.492 37.5855C32.5178 33.3762 31.0558 29.4995 34.8012 31.6105C35.1949 31.8665 35.6657 31.3964 35.5687 30.9732C35.3369 30.4854 34.3736 30.102 34.3215 29.9059C35.4727 29.0102 43.6161 32.9552 42.9724 30.8721Z" fill="#081219"/>
</svg>
