<svg width="50" height="50" viewBox="0 0 50 50" fill="none" xmlns="http://www.w3.org/2000/svg">
<path d="M42.0637 19.0144C42.0637 19.0144 42.0637 18.9939 42.0637 18.9837C42.0637 18.9837 42.0637 18.9632 42.0637 18.9529L40.561 14.9045C40.561 14.9045 40.561 14.8942 40.561 14.884C40.561 14.884 40.561 14.8737 40.561 14.8635L37.982 11.2967C37.982 11.2967 37.9723 11.2762 37.9626 11.2659V11.2557L34.6178 8.58063C34.6178 8.58063 34.5984 8.56013 34.5887 8.56013C34.5887 8.56013 34.5887 8.56013 34.579 8.56013C34.579 8.56013 34.579 8.56013 34.5693 8.56013L30.8463 7.09448C30.8463 7.09448 30.8366 7.09448 30.8269 7.09448C30.8269 7.09448 30.8075 7.09448 30.7978 7.09448L27.1718 6.95099C27.1718 6.95099 27.1427 6.95099 27.1233 6.95099C27.1233 6.95099 27.1233 6.95099 27.1136 6.95099L23.9917 8.08866C23.9917 8.08866 23.982 8.08866 23.9723 8.08866C23.9723 8.08866 23.9529 8.08866 23.9432 8.09891C23.9432 8.09891 23.9432 8.09891 23.9335 8.09891C23.9335 8.09891 23.9239 8.09891 23.9142 8.10916L21.5485 10.3025C21.5485 10.3025 21.5291 10.323 21.5291 10.3333C21.5291 10.3333 21.5194 10.3538 21.5097 10.364L20.1039 13.3568C20.1039 13.3568 20.1039 13.3671 20.1039 13.3773C20.1039 13.3773 20.1039 13.3978 20.1039 13.4081L19.8131 15.8371L19.1538 15.5399H19.1344C19.1344 15.5399 19.115 15.5399 19.1053 15.5399L15.1108 15.1709C15.1108 15.1709 15.0914 15.1709 15.0817 15.1709C15.0721 15.1709 15.0624 15.1709 15.043 15.1709L11.7078 16.2779H11.6884C11.6884 16.2779 11.6884 16.2779 11.6787 16.2779C11.669 16.2779 11.6593 16.2881 11.6496 16.2984L9.24518 18.6352C9.24518 18.6352 9.22579 18.6557 9.22579 18.6659C9.22579 18.6659 9.2161 18.6864 9.2064 18.6967L7.90723 21.956V21.9765C7.90723 21.9765 7.90723 21.997 7.90723 22.0072L7.72302 25.8097C7.72302 25.8097 7.72302 25.82 7.72302 25.8302C7.72302 25.8302 7.72302 25.8507 7.72302 25.861L8.61499 29.8582C8.61499 29.8582 8.61499 29.8787 8.61499 29.8889C8.61499 29.8889 8.61499 29.8992 8.61499 29.9094L10.4377 33.7837C10.4377 33.7837 10.4377 33.8042 10.4571 33.8144C10.4571 33.8144 10.4571 33.8144 10.4571 33.8247L13.0651 37.3197C13.0651 37.3197 13.0651 37.3197 13.0651 37.3299C13.0651 37.3299 13.0651 37.3299 13.0748 37.3299L16.2646 40.1792C16.2646 40.1792 16.2646 40.1792 16.2743 40.1792C16.2743 40.1792 16.284 40.1792 16.2937 40.1895L19.8421 42.1471C19.8421 42.1471 19.8421 42.1471 19.8615 42.1471C19.8615 42.1471 19.8809 42.1471 19.8906 42.1574L23.5263 43.0593C23.5263 43.0593 23.5554 43.0593 23.5748 43.0593C23.5748 43.0593 23.5748 43.0593 23.5845 43.0593L26.9973 42.7416C26.9973 42.7416 27.0263 42.7416 27.036 42.7416C27.0457 42.7416 27.0651 42.7416 27.0651 42.7313L29.9543 41.1324C29.9543 41.1324 29.964 41.1324 29.9737 41.1222C29.9737 41.1222 29.9931 41.1119 29.9931 41.1017C29.9931 41.1017 30.0028 41.0914 30.0125 41.0812L32.0194 38.2421C32.0194 38.2421 32.0291 38.2216 32.0388 38.2114C32.0388 38.2114 32.0388 38.1909 32.0485 38.1806L32.892 34.3166C32.892 34.3166 32.892 34.2961 32.892 34.2859C32.892 34.2859 32.892 34.2654 32.892 34.2551L32.5624 31.4878L33.464 31.6416L36.6441 31.0984C36.6441 31.0984 36.6732 31.0984 36.6926 31.0984C36.6926 31.0984 36.6926 31.0984 36.7022 31.0984C36.7022 31.0984 36.7119 31.0984 36.7216 31.0984L39.4169 29.4585C39.4169 29.4585 39.4363 29.4482 39.446 29.438C39.446 29.438 39.4557 29.438 39.4654 29.4277C39.4654 29.4277 39.4654 29.4277 39.4751 29.4175L41.4045 26.7219C41.4045 26.7219 41.4142 26.7117 41.4239 26.7014C41.4239 26.7014 41.4239 26.7014 41.4239 26.6809C41.4239 26.6809 41.4239 26.6707 41.4239 26.6604C41.4239 26.6604 41.4239 26.6604 41.4239 26.6502L42.3449 23.1244C42.3449 23.1244 42.3449 23.1039 42.3449 23.0937V23.0732L42.0637 19.0657V19.0144ZM33.561 31.2726L32.8726 28.946L34.9668 28.5463L36.3241 30.8011L33.561 31.2726ZM23.6427 42.7211L22.8962 39.882L25.1745 39.6053L26.6676 42.4341L23.6427 42.7211ZM18.8823 15.8576L19.0956 19.0144L16.4197 18.7069L15.3047 15.5194L18.892 15.8576H18.8823ZM22.3629 15.0787L22.1205 16.8826L20.0845 15.9704L20.3463 13.7155L22.3629 15.0787ZM30.5554 7.40196L30.41 10.3025L27.9862 10.159L27.3269 7.26872L30.5554 7.40196ZM34.2203 8.80611L33.2216 11.3992L30.7299 10.3845L30.8754 7.4942L34.2106 8.80611H34.2203ZM19.7258 39.1953V41.7166L16.536 39.964L17.2535 37.8527L19.7258 39.1851V39.1953ZM18.1649 34.8291L17.0984 37.3094L14.9363 35.3928L16.6524 33.4967L18.1649 34.8189V34.8291ZM22.1884 20.7671L21.8491 22.8989L20.036 22.038L19.5028 19.5166L22.1884 20.7568V20.7671ZM30.3712 10.6715L29.964 13.6335L28.4031 13.5105L28.0444 10.528L30.3712 10.6612V10.6715ZM31.1178 26.1992L30.8754 26.1684L30.7203 25.779L31.1178 26.2094V26.1992ZM25.5042 18.8299L25.4363 19.1784L24.4765 18.3687L24.6316 17.3028L25.5042 18.8197V18.8299ZM26.0083 17.8255L25.6787 18.4405L24.7286 16.7903L25.3006 15.6936L26.018 17.8153L26.0083 17.8255ZM26.2701 17.5488L25.5236 15.3247L26.4737 14.515L26.8227 17.0978L26.2701 17.5385V17.5488ZM26.338 17.9485L26.6676 17.682L26.115 19.4141L25.9599 19.5371L26.338 17.9485ZM30.5748 17.4668L32.0194 14.884L33.4058 16.0114L31.3892 18.1432L30.5845 17.477L30.5748 17.4668ZM23.8754 31.9491L24.5734 29.6942L24.777 29.5507L24.302 31.6518L23.8754 31.9388V31.9491ZM22.4502 24.8668L22.4696 24.8873H22.4502V24.8668ZM23.2161 26.4554L22.9058 26.0455L23.3615 25.6355L23.6718 26.0455L23.2161 26.4657V26.4554ZM22.5471 25.287L22.741 25.1128L23.0901 25.41L22.741 25.7277L22.5471 25.287ZM20.482 26.8654L22.266 25.5022L22.4599 25.9635L20.7244 27.4291L20.482 26.8654ZM22.6441 26.2709L22.9543 26.6912L21.2867 28.2695L20.8989 27.7468L22.6441 26.2709ZM25.1552 28.0646L24.6995 26.9884L25.3297 27.0396L26.018 28.6795L25.1552 28.0543V28.0646ZM24.3504 27.0294L24.5056 27.3984L24.1468 27.2241L24.3504 27.0294ZM24.6122 27.8083H24.6801L24.7867 28.0646L23.6136 29.5302L23.187 29.4585L24.6219 27.8083H24.6122ZM24.1662 26.7219L23.8269 27.0396L23.4488 26.7117L23.8657 26.3222L24.1565 26.7219H24.1662ZM23.8657 27.4804L24.2632 27.6751L22.7992 29.3662L22.3047 29.1202L23.8657 27.4804ZM24.8934 28.4848L24.9225 28.6488L24.3408 29.4175L24.1178 29.4585L24.9031 28.4848H24.8934ZM25.3878 29.4892L25.2521 28.5565L26.2701 29.2842L26.4931 30.8626L25.3878 29.479V29.4892ZM24.5153 26.6194L23.7009 25.5227L23.9239 25.1128L25.0679 26.6707L24.5056 26.6194H24.5153ZM20.6759 24.5388L20.705 24.4773L21.1801 24.1903H21.1995L20.6662 24.5388H20.6759ZM17.748 25.4612L18.0388 24.8873L20.2784 24.5798L20.1136 24.8873L17.748 25.4612ZM20.3366 25.5227L20.3851 25.1435L21.5873 24.3748L21.8297 24.4876L20.3463 25.5125L20.3366 25.5227ZM17.4959 26.6809L17.5831 25.861L20.0263 25.2665L19.9682 25.7482L17.4959 26.6809ZM19.9876 26.1172L20.0845 26.7014L17.6607 28.0133L17.4862 27.0601L19.9876 26.1172ZM20.1912 27.0499L20.4529 27.6546L18.1842 29.3355L17.7576 28.372L20.1912 27.0601V27.0499ZM20.3075 25.9635L22.0914 24.7335L22.1593 25.1538L20.3948 26.4964L20.3075 25.9737V25.9635ZM20.6081 24.1083L20.5111 24.1801L18.5236 24.4568L18.8144 24.2211L20.5984 24.1083H20.6081ZM14.2867 25L14.8878 23.7189L17.6995 24.8155L17.3504 25.5227L14.2964 25H14.2867ZM17.2438 25.8712L17.1468 26.7732L14.0444 26.9371L14.1801 25.3485L17.2438 25.8712ZM17.1565 27.1319L17.3408 28.1568L14.4031 29.0485L14.0637 27.2959L17.1565 27.1319ZM17.4474 28.495L17.9031 29.5302L15.3047 31.1291L14.5194 29.3867L17.4474 28.5053V28.495ZM20.6372 27.9621L21.0444 28.5155L19.018 30.5244L18.3685 29.643L20.6372 27.9621ZM23.1967 26.9474L23.5845 27.2754L22.0139 28.9255L21.5388 28.5155L23.2064 26.9474H23.1967ZM22.9349 29.7762L23.4391 29.8582L22.3823 32.3488L21.5485 32.195L22.9349 29.7762ZM22.7604 32.3283L23.7978 29.8889L24.1856 29.8172L23.4488 32.2155L22.7604 32.3385V32.3283ZM24.8837 30.6269L24.8643 30.7396V30.7601L24.8837 30.6269ZM26.561 31.5186L26.3089 32.9432L25.1939 30.7704L25.32 29.9709L26.5513 31.5186H26.561ZM26.5319 29.028L25.669 26.9884L27.4432 26.4144L28.6939 29.4175L26.5319 29.028ZM27.6081 25.984L25.4751 23.0834L27.133 21.1155L28.2383 22.6324L28.723 23.2884C28.723 23.2884 28.723 23.2884 28.7327 23.2986L29.1496 23.8726C29.1496 23.8726 29.1496 23.8828 29.1593 23.8931L29.4696 24.3133C29.4696 24.3133 29.4696 24.3236 29.4793 24.3338L29.6538 24.5695C29.6538 24.5695 29.6538 24.5798 29.6635 24.59L29.964 25L27.5887 25.984H27.6081ZM29.8768 13.982L29.0721 16.8108L28.2189 16.7288L28.4031 13.8693L29.8768 13.982ZM29.0914 20.3981L27.8795 21.5358L27.5596 21.1053L28.6358 20.0189L29.0914 20.3981ZM28.5679 19.5679L28.0444 19.3322L29.2563 17.2208L30.0804 17.5795L28.5582 19.5679H28.5679ZM32.6787 21.9047L30.536 22.7247L30.4682 22.1712L32.5817 21.0233L32.6787 21.9047ZM29.3241 20.6543L29.6926 21.1565L28.4031 22.2737L28.0831 21.833L29.3338 20.6646L29.3241 20.6543ZM29.8671 21.4743L30.0901 22.0175L28.9169 22.9502L28.6261 22.5504L29.8768 21.4743H29.8671ZM30.2161 22.8887L29.3338 23.5446L29.1108 23.2371L30.1579 22.4069L30.2161 22.8887ZM30.1482 23.3704L30.0901 23.6779L29.6538 23.9853L29.5374 23.8214L30.1482 23.3704ZM30.3712 21.833L30.1385 21.2488L32.1455 19.7626L32.5042 20.6748L30.3712 21.833ZM32.2521 23.4626L31.9516 23.9443L30.187 24.2108L30.3421 23.9443L32.2424 23.4626H32.2521ZM30.4585 23.5446L30.536 23.1039L32.6302 22.3045L32.4848 23.0322L30.4585 23.5446ZM32.8241 20.5416L32.4363 19.5679L34.8989 18.051L35.5485 19.7216L32.8241 20.5416ZM29.964 20.9413L29.5762 20.4186L31.3795 18.6352L31.9709 19.4551L29.9543 20.9515L29.964 20.9413ZM29.3435 20.1623L28.8588 19.7626L30.3906 17.764L31.1468 18.3892L29.3435 20.1726V20.1623ZM28.9072 17.1491L27.705 19.2297L27.2299 19.1784L28.1316 17.0773L28.8975 17.1491H28.9072ZM27.7341 17.1593L26.8615 19.1784L26.5125 19.2707L27.133 17.3335L27.7341 17.1593ZM27.4335 19.5576L26.7549 20.2956L26.5319 20.1111L27.0457 19.5166L27.4239 19.5576H27.4335ZM27.8408 19.6294L28.3158 19.8446L27.3463 20.8286L27.2881 20.7568C27.2881 20.7568 27.2784 20.7363 27.2687 20.7261C27.2687 20.7261 27.259 20.7158 27.2493 20.7056L27.036 20.5211L27.8504 19.6294H27.8408ZM30.1191 24.6105L30.0998 24.5798L31.3408 24.3953L31.1468 24.5286L30.1191 24.6105ZM35.7521 22.0687L35.4322 23.5139L32.8338 23.0424L32.9986 22.202L35.7521 22.0687ZM33.0083 21.8432L32.9017 20.8798L35.6164 20.0599L35.7812 21.71L33.0083 21.8432ZM32.2618 19.2502L31.6219 18.379L33.6385 16.2471L34.7147 17.7333L32.2521 19.2502H32.2618ZM30.284 17.2823L29.4017 16.8928L30.2161 14.0538L31.7383 14.6892L30.2937 17.272L30.284 17.2823ZM27.8795 16.7493L27.1427 16.9646L26.7937 14.3202L28.0637 13.9205L27.8795 16.7493ZM26.3574 19.6806L26.4834 19.6499L26.2798 19.8856L26.2216 19.8446L26.3477 19.6909L26.3574 19.6806ZM25.5042 26.6707L24.1178 24.795L25.2424 23.3704L27.259 26.1069L25.4945 26.6707H25.5042ZM23.6912 24.8258L23.4585 25.2563L22.4986 24.4466L22.2853 23.6369L23.6815 24.8258H23.6912ZM21.1995 23.8008L20.3851 22.5914L21.8394 23.2781L22.0914 24.2313L21.1995 23.8008ZM19.9197 23.6061L18.3781 22.1507L19.7937 22.3352L20.7147 23.7189L19.91 23.6061H19.9197ZM18.7853 23.8521L16.5457 22.4377L17.8158 22.0892L19.4931 23.6676L18.7853 23.8418V23.8521ZM15.1302 23.4421L16.1191 22.5914L18.4557 24.0673L17.8934 24.5183L15.1302 23.4421ZM18.0776 29.8274L18.766 30.7601L16.6524 32.9945L15.4793 31.4263L18.0679 29.8377L18.0776 29.8274ZM21.7812 29.2022L20.0554 31.4673L19.2507 30.7704L21.277 28.7615L21.7812 29.192V29.2022ZM22.0624 29.397L22.6053 29.6635L21.2092 32.1028L20.3463 31.6621L22.0721 29.397H22.0624ZM22.6344 32.7075L23.4197 32.564L23.7978 35.772L22.392 35.977L22.6247 32.6973L22.6344 32.7075ZM24.3601 32.0413L25.2327 34.9316L24.1178 35.6388L23.7396 32.4513L24.3504 32.0413H24.3601ZM25.0194 31.1599L26.2022 33.4659L25.4945 34.5934L24.6413 31.7851L25.0194 31.1496V31.1599ZM26.9003 31.3546L26.6191 29.4072L28.8297 29.8069L29.2078 32.6973L26.8906 31.3546H26.9003ZM31.1759 24.8975L32.8047 26.0147L31.651 26.2607L30.5167 25.041L31.1856 24.8873L31.1759 24.8975ZM34.2493 25.2153L33.241 25.8917L31.5153 24.7028L32.0776 24.3031L34.2493 25.205V25.2153ZM32.3103 24.0161L32.7078 23.3806L35.2673 23.8521L34.5499 24.959L32.3103 24.0263V24.0161ZM35.8781 19.6294L35.1995 17.8665L37.6524 16.5341L38.6413 19.1477L35.8781 19.6191V19.6294ZM35.025 17.559L33.8906 15.9909L35.8006 13.9L37.4876 16.2266L35.0347 17.559H35.025ZM25.3588 15.0069L23.8851 12.7828L25.4072 11.4402L26.4058 14.1358L25.3685 15.0172L25.3588 15.0069ZM25.1261 15.2837L24.4765 16.5238L22.7507 14.9557L23.6718 13.1006L25.1261 15.2837ZM22.169 23.0834L22.4986 20.9823L25.0097 23.1039L23.8754 24.5388L22.1593 23.0834H22.169ZM12.1538 21.3205L13.7341 19.8856L15.8671 22.3557L14.7909 23.2781L12.1538 21.3205ZM14.5776 23.5549L13.9474 24.9078L11.0582 23.6574L11.9502 21.5972L14.5776 23.5549ZM13.8504 25.2563L13.705 26.9269L10.8255 26.4862L10.9903 24.0161L13.8504 25.2563ZM13.7147 27.2856L14.0734 29.1202L11.4169 29.52L10.8546 26.8551L13.7147 27.2856ZM14.1801 29.4585L15.0042 31.2828L12.7549 32.4718L11.543 29.8479L14.1801 29.4585ZM15.1884 31.6006L16.4197 33.2507L14.7036 35.1468L12.9391 32.7792L15.1884 31.6006ZM16.8851 33.2507L18.9986 31.0164L19.8518 31.7543L18.32 34.5011L16.8851 33.2405V33.2507ZM21.3934 32.5333L22.295 32.7075L22.0624 35.9873L20.5014 35.6593L21.3934 32.5435V32.5333ZM28.6358 35.977L27.4142 37.8219L25.6399 35.0033L26.4252 33.7427L28.6358 35.9668V35.977ZM26.5804 33.4147L26.8712 31.7441L29.2369 33.1175L28.7521 35.5978L26.5707 33.4147H26.5804ZM29.0914 29.479L27.7729 26.3017L30.1579 25.3075L31.8934 29.5712L29.0914 29.479ZM31.8255 28.495L31.0305 26.5477L31.4765 26.6092L32.3588 28.577L31.8255 28.495ZM38.2244 25.0513L37.0319 26.8039L34.8504 25.1435L35.6261 23.9546L38.2244 25.0615V25.0513ZM35.7618 23.6164L36.1011 22.079L38.9225 22.4582L38.3698 24.7335L35.7618 23.6164ZM36.1205 21.7202L35.9557 19.9779L38.7286 19.5064L38.9419 22.0995L36.1205 21.7202ZM33.6482 15.7449L32.1939 14.556L33.3865 11.9014L35.5582 13.654L33.6482 15.7449ZM31.8934 14.3817L30.2937 13.7053L30.7009 10.7432L33.0956 11.7169L31.9031 14.3715L31.8934 14.3817ZM26.7064 13.9718L25.6981 11.2557L27.705 10.5792L28.0637 13.5515L26.7064 13.9718ZM22.6635 15.3452L24.3408 16.8723L24.1565 18.1227L23.3421 17.436L23.3227 17.4258C23.3227 17.4258 23.3131 17.4258 23.3034 17.4258L22.4405 17.0363L22.6635 15.3554V15.3452ZM26.9003 20.8593L25.2327 22.8272L22.5762 20.5826L23.3324 17.8768L26.9003 20.8593ZM17.9709 21.7305L16.5942 19.0862L19.1344 19.3732L19.6773 21.9457L17.9709 21.7202V21.7305ZM16.1676 22.1712L14.054 19.7216L16.1967 19.0862L17.6025 21.7817L16.1579 22.1712H16.1676ZM20.1427 31.9491L21.0734 32.4205L20.1815 35.5261L18.6108 34.6959L20.1524 31.9388L20.1427 31.9491ZM22.0624 36.346L22.4696 39.4925L20.0748 38.9391L20.4239 35.9975L22.0624 36.346ZM23.8851 36.1308L25.0291 39.2568L22.8186 39.5233L22.4017 36.346L23.8754 36.1308H23.8851ZM25.3878 35.2493L27.1718 38.0781L25.3588 39.1543L24.205 36.0078L25.3975 35.2493H25.3878ZM29.5859 32.9022L29.1787 29.8377L32 29.9299L32.4848 34.0194L29.5762 32.9022H29.5859ZM33.1732 26.3017L34.7244 28.2286L32.7466 28.6078L31.8352 26.5887L33.1829 26.3017H33.1732ZM34.6081 25.3895L36.7604 27.0294L35.0734 28.1158L33.4931 26.1479L34.6081 25.3895ZM41.7438 19.2194L41.9959 22.8169L39.2812 22.161L39.0582 19.4654L41.7438 19.2194ZM38.9903 19.1067L37.9529 16.3804L40.2992 15.2119L41.6565 18.8607L38.9903 19.1067ZM37.7881 16.0729L36.0333 13.654L37.7881 11.6759L40.1344 14.9147L37.7881 16.0831V16.0729ZM33.5222 11.5632L34.5111 8.98035L37.5457 11.4094L35.7909 13.3876L33.5222 11.5632ZM25.5624 10.9277L24.2341 8.3244L26.9973 7.31996L27.6565 10.2205L25.5624 10.9277ZM23.6718 12.5061L21.8588 10.4358L23.9335 8.50888L25.2618 11.102L23.6718 12.5164V12.5061ZM23.4488 12.7828L22.4793 14.7405L20.4335 13.3466L21.6649 10.733L23.4488 12.7828ZM22.2757 20.4083L19.4349 19.0964L19.2313 15.9704L23.0416 17.682L22.2757 20.4083ZM13.8214 19.4244L11.9696 16.5238L14.9363 15.5399L16.061 18.7582L13.8117 19.4244H13.8214ZM11.8823 21.095L9.54574 18.7684L11.669 16.7083L13.5208 19.6089L11.8823 21.095ZM11.6787 21.3718L10.7576 23.5036L8.20779 21.9355L9.35183 19.0657L11.669 21.3718H11.6787ZM10.6607 23.8521L10.4862 26.4042L7.9848 25.6662L8.14962 22.3045L10.651 23.8418L10.6607 23.8521ZM10.4959 26.7834L11.0776 29.5405L8.83798 29.6327L8.04297 26.0659L10.4959 26.7834ZM11.1842 29.8992L12.4446 32.6358L10.6025 33.4864L8.96402 29.9914L11.1745 29.8992H11.1842ZM12.6288 32.933L14.4709 35.4031L13.1524 36.92L10.7964 33.7734L12.6191 32.933H12.6288ZM14.7036 35.6695L16.9529 37.6682L16.2452 39.759L13.3754 37.1967L14.6939 35.6798L14.7036 35.6695ZM17.3795 37.5247L18.4557 35.0238L20.1039 35.895L19.7549 38.8058L17.3795 37.5247ZM20.0457 41.8704V39.3081L22.5374 39.882L23.2743 42.6698L20.0457 41.8704ZM27.3754 38.3651L29.5665 40.9377L27.0167 42.3521L25.5042 39.4823L27.3851 38.3651H27.3754ZM27.6275 38.1294L28.9072 36.2025L31.6122 38.2011L29.838 40.7225L27.6372 38.1396L27.6275 38.1294ZM29.043 35.8745L29.5471 33.2712L32.4848 34.4089L31.7286 37.8629L29.043 35.8745ZM32.4848 31.1291L32.32 29.7455C32.32 29.7455 32.32 29.7147 32.32 29.7045V29.684L31.9903 28.8845L32.5236 28.9665L33.2022 31.2521L32.4945 31.1291H32.4848ZM37.0416 27.2651L39.0291 29.2432L36.6538 30.6884L35.277 28.4028L37.0416 27.2651ZM37.2937 27.0191L38.5347 25.1948L41.007 26.6297L39.3006 29.0075L37.2937 27.0191ZM38.6801 24.877L39.2521 22.5094L41.9765 23.1756L41.1524 26.3119L38.6801 24.877Z" fill="black"/>
</svg>
