<svg width="50" height="50" viewBox="0 0 50 50" fill="none" xmlns="http://www.w3.org/2000/svg">
<path d="M42.1125 20.3429C40.507 19.1163 36.3784 18.6277 30.8039 18.9867C30.4349 18.9767 30.1158 18.9268 29.8865 18.8471C29.707 18.7773 29.4576 18.6177 29.2881 18.2387C29.1086 17.8598 28.9889 16.9822 28.959 16.6731L28.4604 16.723C28.4903 17.0321 28.5302 17.9097 28.4205 18.3185C28.3208 18.7174 28.1014 18.9169 27.9518 19.0166C27.6227 19.1961 27.184 19.3058 26.8948 19.3556C26.097 19.4554 25.2892 19.5651 24.4615 19.7047C14.2998 21.3501 6.85044 24.6011 7.12967 27.2737C7.17953 27.7224 7.42884 28.1313 7.88756 28.4703C8.33631 28.8094 8.99449 29.0986 9.8521 29.3279C9.75238 29.5773 9.71249 29.8266 9.73244 30.0659C9.76235 30.5845 10.0316 31.0532 10.5302 31.482C12.046 32.7684 15.7956 33.5363 20.5624 33.5363C22.118 33.5363 23.7136 33.4565 25.3291 33.2969C33.8853 32.4493 40.4571 29.7169 40.2776 27.0742C40.2477 26.5556 39.9784 26.0869 39.4798 25.6581C39.3402 25.5385 39.1707 25.4188 38.9912 25.3091C40.9457 24.3717 43.0299 23.0055 42.8804 21.5396C42.8305 21.0908 42.5812 20.682 42.1225 20.3429H42.1125ZM25.4189 28.4304C24.9601 28.5002 24.5114 28.5701 24.0626 28.6399C23.8532 28.6399 23.6737 28.6 23.5341 28.5601C23.4045 28.5102 23.225 28.4005 23.0853 28.1313C22.9457 27.8421 22.836 27.1739 22.8061 26.9446L22.3075 27.0044C22.3374 27.2338 22.3873 27.9119 22.3175 28.221C22.2477 28.5102 22.0981 28.6698 21.9984 28.7396C21.8588 28.8194 21.6892 28.8892 21.5097 28.949C17.2615 29.3878 13.4421 29.3678 10.9191 28.8892C12.6344 26.9645 18.2986 25.1695 24.7407 24.5313C26.3463 24.3717 27.9319 24.2919 29.4676 24.2919C32.6588 24.2919 35.461 24.6609 37.3158 25.2991C34.1446 26.5955 29.9463 27.7025 25.4189 28.4304ZM10.5103 29.4875C11.9363 29.7867 13.7712 29.9462 15.8455 29.9462C17.6305 29.9462 19.6648 29.8266 21.8887 29.5872C21.9585 29.5972 22.0383 29.6171 22.0981 29.6271C22.2277 29.677 22.4072 29.7867 22.5468 30.0559C22.6865 30.3451 22.7961 31.0133 22.8261 31.2426L23.3247 31.1828C23.2948 30.9534 23.2449 30.2753 23.3147 29.9662C23.3845 29.657 23.554 29.5074 23.6338 29.4476C23.6937 29.4077 23.7635 29.3778 23.8333 29.3479L24.0128 29.3279C24.5114 29.2581 25.01 29.1983 25.5186 29.1086C30.4549 28.3108 34.9524 27.0941 38.1934 25.6681C38.5624 25.8476 38.8316 26.0171 39.0311 26.1767C39.3801 26.4759 39.5696 26.795 39.5895 27.1141C39.7191 29.0687 33.9851 31.7512 25.2493 32.6188C18.7374 33.267 12.8637 32.5789 10.959 30.9634C10.61 30.6642 10.4205 30.3451 10.4006 30.026C10.3906 29.8565 10.4305 29.677 10.5103 29.4875ZM38.2133 24.9102C35.451 23.7036 30.2853 23.2947 24.6809 23.8432C17.7402 24.5313 11.8565 26.5257 10.2011 28.7196C9.34352 28.5002 8.70529 28.241 8.29643 27.9219C7.99726 27.6925 7.8377 27.4532 7.80778 27.1939C7.59836 25.2393 14.2898 22.0382 24.5812 20.3728C25.5385 20.2232 26.5258 20.0836 27.7025 19.944C27.8222 19.964 27.9419 19.9939 28.0516 20.0238C28.2311 20.0936 28.4804 20.2532 28.6499 20.6321C28.8294 21.011 28.9491 21.8886 28.979 22.1977L29.4776 22.1479C29.4477 21.8387 29.4078 20.9612 29.5175 20.5523C29.6172 20.1534 29.8366 19.954 29.9862 19.8543C30.0859 19.7944 30.2056 19.7446 30.3552 19.6947C31.8111 19.585 33.0676 19.5351 34.1945 19.5351C37.8543 19.5351 40.5967 20.0238 41.7136 20.8714C42.0128 21.1008 42.1823 21.3501 42.2022 21.6094C42.302 22.5268 40.856 23.7235 38.2233 24.9102H38.2133Z" fill="black"/>
</svg>
