<svg width="50" height="50" viewBox="0 0 50 50" fill="none" xmlns="http://www.w3.org/2000/svg">
<path d="M42.4286 22.9676H35.2173L41.8796 20.208L40.3241 16.4527L33.6618 19.2124L38.761 14.1132L35.8868 11.239L30.7876 16.3382L33.5473 9.67587L29.792 8.12039L27.0324 14.7827V7.57141H22.9676V14.7827L20.208 8.12039L16.4527 9.67587L19.2124 16.3382L14.1132 11.239L11.239 14.1132L16.3382 19.2124L9.67587 16.4527L8.12039 20.208L14.7827 22.9676H7.57141V27.0324H14.7827L8.12039 29.792L9.67587 33.5473L16.3382 30.7876L11.239 35.8868L14.1132 38.761L19.2124 33.6618L16.4527 40.3241L20.208 41.8796L22.9676 35.2173V42.4286H27.0324V35.2173L29.792 41.8796L33.5473 40.3241L30.7876 33.6618L35.8868 38.761L38.761 35.8868L33.6618 30.7876L40.3241 33.5473L41.8796 29.792L35.2173 27.0324H42.4286V22.9676Z" fill="#02111B"/>
</svg>
