<svg width="50" height="50" viewBox="0 0 50 50" fill="none" xmlns="http://www.w3.org/2000/svg">
<path d="M24.518 42.4246C24.3177 42.4246 24.1541 42.2571 24.1541 42.0512C24.1541 38.3849 24.1541 30.6927 23.1775 30.4935C22.6513 30.3611 21.2999 33.0418 19.1501 38.3772C19.0752 38.5651 18.8622 38.6578 18.6789 38.582C18.538 38.522 18.45 38.3862 18.45 38.2346L18.4803 38.0842C21.1567 31.4419 21.3572 29.7977 21.0532 29.5896C20.2171 29.0068 13.5258 35.9071 11.0041 38.4984L10.9215 38.5832L10.7465 38.6081C10.649 38.6081 10.5538 38.5674 10.4861 38.495L10.4068 38.4112L10.3826 38.2347C10.3826 38.1317 10.4217 38.0367 10.4927 37.9665C13.0112 35.3775 19.7112 28.4908 19.158 27.641C18.9571 27.332 17.3551 27.5346 10.8863 30.2889L10.779 30.3342L10.5009 30.2437L10.3886 30.0341L10.3825 29.9424C10.3825 29.792 10.47 29.6562 10.6055 29.5973C17.0765 26.8432 18.3492 25.8258 18.2782 25.4581C18.0839 24.4543 11.1226 24.4543 7.55603 24.4543C7.35568 24.4543 7.19214 24.2869 7.19214 24.0798C7.19214 23.8739 7.35568 23.7058 7.55603 23.7058C11.1226 23.7058 18.084 23.7058 18.2782 22.7021C18.3492 22.3338 17.0765 21.3165 10.6072 18.5628C10.47 18.5034 10.3826 18.3682 10.3826 18.2171L10.4062 18.0847C10.4866 17.8838 10.7013 17.7933 10.8846 17.8708C16.0245 20.0587 19.6627 21.2881 20.7351 20.1917C21.8042 19.0923 20.6058 15.3503 18.4776 10.0692L18.4501 9.92554C18.4501 9.77334 18.5381 9.63815 18.6746 9.57984C18.8629 9.5001 19.0748 9.59224 19.1508 9.7841C21.3004 15.1183 22.6613 17.7679 23.1782 17.6665C24.1542 17.4668 24.1542 11.615 24.1542 7.94938C24.1542 7.74347 24.3177 7.57538 24.5181 7.57538C24.7196 7.57538 24.8825 7.74347 24.8825 7.94938C24.8825 11.615 24.8825 17.4669 25.8591 17.6665C26.2015 17.7316 27.2066 16.4298 29.8854 9.78236C29.9625 9.59285 30.1705 9.49887 30.361 9.57922C30.4986 9.63805 30.5867 9.77324 30.5867 9.92544L30.558 10.0709C27.8794 16.7177 27.6789 18.3619 27.9828 18.5706C28.8371 19.1505 35.5113 12.2519 38.0326 9.66122C38.1746 9.51414 38.4069 9.51639 38.5467 9.66122L38.6293 9.74608L38.6535 9.92595C38.6535 10.0278 38.614 10.1228 38.5435 10.1936C36.0255 12.7825 29.3261 19.6687 29.8787 20.5191C30.0813 20.832 31.6832 20.6244 38.1504 17.8712C38.3354 17.7915 38.5501 17.8836 38.626 18.0737L38.6535 18.2169C38.6535 18.3691 38.5655 18.5043 38.429 18.5626C31.9596 21.3163 30.6869 22.3336 30.7584 22.7019C30.9521 23.7056 38.8774 23.7056 42.4446 23.7056C42.645 23.7056 42.8079 23.8736 42.8079 24.0796C42.8079 24.2867 42.645 24.4541 42.4446 24.4541C38.8774 24.4541 30.9521 24.4541 30.7584 25.4579C30.6868 25.8256 31.9595 26.8428 38.429 29.596C38.5655 29.6549 38.6535 29.7907 38.6535 29.9422L38.6359 30.0588C38.5489 30.2772 38.3288 30.3654 38.1493 30.2873C31.6865 27.5365 30.0813 27.326 29.8786 27.6406C29.326 28.4903 36.0254 35.377 38.5466 37.9695L38.6292 38.0544L38.6534 38.2342C38.6534 38.3372 38.6116 38.4356 38.5401 38.5047L38.4586 38.5828L38.2891 38.6077C38.1921 38.6077 38.0975 38.567 38.0292 38.4946C35.5091 35.9045 28.7765 29.0109 27.9838 29.5892C27.6788 29.7973 27.8792 31.4426 30.559 38.0906L30.5866 38.2343C30.5866 38.3859 30.4985 38.5217 30.362 38.5806C30.1704 38.6553 29.9634 38.5647 29.8864 38.378C27.734 33.0359 26.3622 30.3767 25.8601 30.4932C24.8824 30.6924 24.8824 38.3847 24.8824 42.0509C24.8824 42.2571 24.7195 42.4246 24.518 42.4246ZM10.6066 38.0875C10.6055 38.0886 10.6038 38.0908 10.6022 38.092C10.6038 38.0897 10.6049 38.0886 10.6066 38.0875Z" fill="#081219"/>
</svg>
