<svg width="50" height="50" viewBox="0 0 50 50" fill="none" xmlns="http://www.w3.org/2000/svg">
<path d="M24.9997 7.00745C15.3468 7.00745 7.49365 15.0788 7.49365 24.9998C7.49365 34.9218 15.3468 42.9932 24.9997 42.9932C34.6536 42.9932 42.5068 34.9218 42.5068 24.9998C42.5068 15.0788 34.6536 7.00745 24.9997 7.00745ZM24.9997 42.2245C15.7593 42.2245 8.24157 34.4974 8.24157 24.9998C8.24157 15.5027 15.7593 7.77614 24.9997 7.77614C34.2407 7.77614 41.7589 15.5027 41.7589 24.9998C41.7589 34.4974 34.2407 42.2245 24.9997 42.2245Z" fill="#081219"/>
<path d="M38.1479 29.6671H35.5847C35.3783 29.6671 35.2108 29.8392 35.2108 30.0514C35.2108 30.2636 35.3783 30.4358 35.5847 30.4358H36.319C34.7511 33.8721 31.7924 36.3929 28.0987 37.3721C24.2486 38.397 20.2937 37.5653 17.2543 35.098C15.7201 33.8527 14.5061 32.2422 13.683 30.4358H14.415C14.6214 30.4358 14.789 30.2636 14.789 30.0514C14.789 29.8392 14.6214 29.6671 14.415 29.6671H11.8522C11.6458 29.6671 11.4783 29.8392 11.4783 30.0514C11.4783 30.2636 11.6458 30.4358 11.8522 30.4358H12.8504C13.7188 32.4859 15.0723 34.3063 16.7907 35.7005C19.1114 37.5853 21.9326 38.5691 24.8533 38.5691C25.9903 38.5691 27.1414 38.42 28.2847 38.1167C32.3154 37.0487 35.5318 34.2511 37.1508 30.4358H38.1479C38.3543 30.4358 38.5219 30.2636 38.5219 30.0514C38.5219 29.8392 38.3543 29.6671 38.1479 29.6671Z" fill="#081219"/>
<path d="M20.4621 27.2569C22.0197 27.2569 22.4312 22.5466 22.4312 20.0564C22.4312 17.5661 22.0197 12.8563 20.4621 12.8563C18.9039 12.8563 18.4924 17.5661 18.4924 20.0564C18.4924 22.5466 18.9039 27.2569 20.4621 27.2569ZM20.4621 13.625C20.8272 13.625 21.6833 15.813 21.6833 20.0564C21.6833 24.2997 20.8272 26.4882 20.4621 26.4882C20.0969 26.4882 19.2404 24.2997 19.2404 20.0564C19.2404 15.813 20.0969 13.625 20.4621 13.625Z" fill="#081219"/>
<path d="M29.538 27.2569C31.0952 27.2569 31.5071 22.5466 31.5071 20.0564C31.5071 17.5661 31.0952 12.8563 29.538 12.8563C27.9808 12.8563 27.5688 17.5661 27.5688 20.0564C27.5688 22.5466 27.9808 27.2569 29.538 27.2569ZM29.538 13.625C29.9032 13.625 30.7592 15.813 30.7592 20.0564C30.7592 24.2997 29.9032 26.4882 29.538 26.4882C29.1728 26.4882 28.3168 24.2997 28.3168 20.0564C28.3168 15.813 29.1728 13.625 29.538 13.625Z" fill="#081219"/>
</svg>
