<svg width="50" height="50" viewBox="0 0 50 50" fill="none" xmlns="http://www.w3.org/2000/svg">
<path d="M21.7404 10.1579L9.33325 21.912C8.98746 22.2396 9.23241 22.7997 9.72135 22.7997H22.1284C22.4316 22.7997 22.6772 22.5669 22.6772 22.2797V10.5256C22.6774 10.0623 22.0861 9.83039 21.7404 10.1579Z" fill="#081219"/>
<path d="M22.1284 27.2004H9.72135C9.23241 27.2004 8.98746 27.7605 9.33325 28.0881L21.7404 39.8421C22.0862 40.1697 22.6774 39.9377 22.6774 39.4744V27.7204C22.6774 27.4333 22.4316 27.2004 22.1284 27.2004Z" fill="#081219"/>
<path d="M27.8714 22.7996H40.2784C40.7674 22.7996 41.0123 22.2396 40.6665 21.912L28.2595 10.1579C27.9137 9.83027 27.3225 10.0623 27.3225 10.5255V22.2796C27.3225 22.5668 27.5683 22.7996 27.8714 22.7996Z" fill="#081219"/>
<path d="M27.3225 27.7204V39.4744C27.3225 39.9377 27.9137 40.1697 28.2595 39.8421L40.6665 28.0881C41.0123 27.7605 40.7674 27.2004 40.2784 27.2004H27.8714C27.5683 27.2004 27.3225 27.4333 27.3225 27.7204Z" fill="#081219"/>
<path d="M25.1496 7.29419H24.8506V42.7058H25.1496V7.29419Z" fill="#081219"/>
<path d="M43.6895 24.8584H6.31055V25.1417H43.6895V24.8584Z" fill="#081219"/>
</svg>
