<svg width="50" height="50" viewBox="0 0 50 50" fill="none" xmlns="http://www.w3.org/2000/svg">
<path d="M24.0742 42.7561L24.0715 23.0494C24.0715 22.5639 24.4869 22.1694 25.0004 22.1694C25.5129 22.1694 25.9285 22.563 25.9285 23.0494L25.9321 42.7561H24.0742Z" fill="#081219"/>
<path d="M21.6782 20.8243H11.5901C11.0766 20.8243 10.6611 20.4307 10.6611 19.9443C10.6611 19.4578 11.0766 19.0642 11.5901 19.0642H21.6782C22.1917 19.0642 22.6071 19.4578 22.6071 19.9443C22.6072 20.4306 22.1918 20.8243 21.6782 20.8243Z" fill="#081219"/>
<path d="M38.4099 20.8234H28.3218C27.8083 20.8234 27.3928 20.4298 27.3928 19.9433C27.3928 19.4569 27.8083 19.0633 28.3218 19.0633H38.4099C38.9233 19.0633 39.3388 19.4569 39.3388 19.9433C39.3388 20.4298 38.9233 20.8234 38.4099 20.8234Z" fill="#081219"/>
<path d="M22.0557 18.1256C21.8225 18.1256 21.5903 18.0431 21.4098 17.8781L16.94 13.7811C16.5717 13.4433 16.5617 12.8856 16.9182 12.5365C17.2765 12.1867 17.8626 12.1781 18.2319 12.5159L22.7017 16.6129C23.07 16.9507 23.08 17.5084 22.7235 17.8575C22.5411 18.0362 22.2988 18.1256 22.0557 18.1256Z" fill="#081219"/>
<path d="M27.9443 18.1256C27.7011 18.1256 27.4599 18.0362 27.2766 17.8574C26.9191 17.5085 26.9301 16.9507 27.2984 16.6129L31.7674 12.5159C32.1375 12.1781 32.7253 12.1893 33.081 12.5365C33.4385 12.8854 33.4276 13.4432 33.0592 13.781L28.5903 17.8781C28.4106 18.043 28.1766 18.1256 27.9443 18.1256Z" fill="#081219"/>
<path d="M17.5868 27.6191C17.3436 27.6191 17.1014 27.5298 16.9191 27.351C16.5625 27.0021 16.5725 26.4443 16.9409 26.1065L21.4106 22.0094C21.7808 21.6726 22.3696 21.6819 22.7243 22.0301C23.0809 22.379 23.0709 22.9368 22.7025 23.2746L18.2328 27.3716C18.0521 27.5367 17.8191 27.6191 17.5868 27.6191Z" fill="#081219"/>
<path d="M25.0005 17.6314C24.4879 17.6314 24.0715 17.2378 24.0715 16.7513L24.0706 8.12407C24.0706 7.63852 24.486 7.24402 24.9995 7.24402C25.512 7.24402 25.9285 7.63763 25.9285 8.12407L25.9302 16.7513C25.9303 17.2369 25.5139 17.6314 25.0005 17.6314Z" fill="#081219"/>
</svg>
