<svg width="50" height="50" viewBox="0 0 50 50" fill="none" xmlns="http://www.w3.org/2000/svg">
<path d="M43.1782 19.3467C43.0791 19.1334 42.8609 19.0504 42.6767 19.1519C37.3218 22.1645 32.014 21.1425 28.5148 19.0235C32.3863 17.7887 36.1107 14.9512 39.5989 10.5742C39.743 10.3938 39.7401 10.1094 39.592 9.93382C39.4458 9.75763 39.2066 9.75404 39.0555 9.92603C35.7224 13.7158 31.936 16.0151 28.0516 16.6203C29.0995 15.0014 29.8162 13.6286 30.4097 12.4936C30.8081 11.7307 31.1514 11.0724 31.5178 10.4798C31.6349 10.2904 31.6129 10.0264 31.4677 9.86812C31.3206 9.71038 31.0984 9.70741 30.9532 9.86514C30.4548 10.395 29.9543 11.0128 29.4249 11.6669C28.52 12.7833 27.5071 14.0343 26.1028 15.3832C25.6945 12.4399 25.5393 10.1782 25.3832 7.57658C25.369 7.33633 25.2009 7.15051 24.9997 7.15051C24.798 7.15051 24.6308 7.33633 24.6164 7.57647C24.4612 10.1763 24.3061 12.4368 23.8972 15.3831C22.4929 14.0335 21.48 12.7827 20.5757 11.6662C20.0462 11.012 19.5463 10.3949 19.0484 9.86504C18.9012 9.70853 18.679 9.70976 18.5338 9.86801C18.3882 10.0264 18.3662 10.2904 18.4833 10.4792C18.8482 11.0712 19.1914 11.7283 19.5888 12.4888C20.1823 13.6256 20.8995 14.9989 21.9489 16.6203C18.0639 16.015 14.2775 13.7158 10.9444 9.92603C10.7928 9.75332 10.5545 9.75753 10.4075 9.93371C10.2599 10.1094 10.2568 10.3943 10.401 10.5741C13.8902 14.9511 17.6146 17.7887 21.4855 19.0234C17.9863 21.1424 12.68 22.1644 7.32315 19.1518C7.13948 19.0503 6.91932 19.1333 6.82216 19.3466C6.72459 19.5599 6.7826 19.8262 6.95479 19.9553C12.9547 24.4583 19.3315 23.548 23.5179 21.0975C23.6125 25.7511 23.8772 34.1013 24.6174 42.4383C24.6384 42.6725 24.8031 42.8493 24.9997 42.8493C25.1959 42.8493 25.361 42.6725 25.382 42.4395C26.1237 34.0929 26.3879 25.7475 26.482 21.0975C30.6668 23.5467 37.0446 24.4583 43.0451 19.9553C43.2172 19.8263 43.2753 19.56 43.1782 19.3467ZM32.2383 16.2815C30.6689 17.2718 29.0691 17.9725 27.447 18.3824C27.0623 18.3155 26.6802 18.2308 26.2999 18.1288C26.626 17.9765 26.9524 17.8144 27.2805 17.6354C28.9563 17.4792 30.6183 17.0251 32.2383 16.2815ZM28.9033 13.6107C28.3817 14.5562 27.7514 15.6237 26.9429 16.8104C26.5484 17.0249 26.1559 17.2173 25.7647 17.3913C25.8873 17.1001 26.0207 16.8161 26.1355 16.5183C27.2532 15.488 28.1389 14.5147 28.9033 13.6107ZM24.9997 12.6817C25.1092 13.7536 25.2499 14.89 25.4334 16.1466C25.2991 16.4939 25.1456 16.8271 25.0003 17.1655C24.8549 16.8267 24.7013 16.4931 24.5668 16.1453C24.7501 14.8886 24.8908 13.7527 24.9997 12.6817ZM21.0967 13.61C21.8605 14.5142 22.7457 15.4868 23.863 16.5164C23.9783 16.8148 24.1117 17.099 24.2347 17.3907C23.8437 17.2168 23.4517 17.0247 23.0576 16.8104C22.2495 15.6236 21.6182 14.5562 21.0967 13.61ZM17.7626 16.2815C19.3832 17.0252 21.0445 17.4793 22.7201 17.6355C23.0484 17.8144 23.375 17.9767 23.7011 18.1289C23.3208 18.231 22.9385 18.3156 22.5535 18.3825C20.9315 17.9727 19.3321 17.2724 17.7626 16.2815ZM12.9252 21.8855C16.7685 22.2568 20.2501 21.0073 22.671 19.2884C23.1762 19.2004 23.6759 19.0753 24.1734 18.9296C23.9905 19.2886 23.8162 19.6499 23.6164 20.0057C22.1074 20.9661 17.9899 23.1151 12.9252 21.8855ZM24.9997 37.4766C24.5218 30.5404 24.3422 24.1264 24.2753 20.4781C24.5343 20.0144 24.7681 19.5457 25.0001 19.0763C25.2321 19.5454 25.4658 20.0136 25.7247 20.4767C25.6578 24.1217 25.4797 30.5334 24.9997 37.4766ZM26.3798 19.9998C26.1817 19.6458 26.008 19.2864 25.8263 18.9292C26.3242 19.0751 26.824 19.2005 27.3295 19.2884C29.6938 20.9674 33.0673 22.1965 36.8096 21.9088C32.8251 22.7747 29.066 21.7141 26.3798 19.9998Z" fill="#081219"/>
</svg>
