<svg width="50" height="50" viewBox="0 0 50 50" fill="none" xmlns="http://www.w3.org/2000/svg">
<path d="M41.1749 15.6659C40.8159 15.0476 40.1079 14.6687 39.0608 14.5291C41.1351 12.1856 41.863 10.3208 41.1749 9.13407C40.4071 7.81773 37.9938 7.58837 34.3738 8.49585C30.8436 9.38338 26.5356 11.2283 22.2575 13.7014C13.1827 18.9468 7.28908 25.1296 8.83478 27.8022C9.18381 28.4006 9.89185 28.7795 10.9489 28.9191C8.87467 31.2726 8.14669 33.1374 8.83478 34.3341C9.18381 34.9324 9.89185 35.3114 10.9489 35.451C8.87467 37.8044 8.14669 39.6693 8.83478 40.8659C9.29351 41.6537 10.3007 42.0526 11.8464 42.0526C12.8935 42.0526 14.17 41.8632 15.6259 41.5042C19.1561 40.6166 23.4542 38.7717 27.7423 36.2986C32.0204 33.8255 35.7799 31.0233 38.3129 28.4105C40.9157 25.728 41.9229 23.5241 41.165 22.1978C40.806 21.5795 40.0979 21.2006 39.0508 21.0609C41.1251 18.7175 41.8531 16.8526 41.165 15.6659H41.1749ZM37.9639 28.0615C35.4608 30.6443 31.7511 33.4166 27.5029 35.8698C23.2647 38.323 19.0065 40.1479 15.5162 41.0255C12.1755 41.8632 9.89185 41.7136 9.26359 40.6266C8.66525 39.5895 9.48298 37.7745 11.5672 35.5108C11.5971 35.5108 11.6171 35.5108 11.647 35.5108C11.7168 35.5108 11.7866 35.5208 11.8564 35.5208C12.9035 35.5208 14.1799 35.3313 15.6359 34.9723C19.1661 34.0848 23.4741 32.2399 27.7522 29.7668C32.0303 27.2936 35.7899 24.4914 38.3229 21.8787C38.4026 21.7989 38.4725 21.7191 38.5423 21.6393L38.632 21.5396C39.719 21.6094 40.4569 21.9285 40.7461 22.4471C41.3744 23.544 40.3672 25.5884 37.9639 28.0615ZM38.1434 8.44599C39.4896 8.44599 40.3871 8.7651 40.7461 9.38338C41.3245 10.3906 40.4769 12.2454 38.4226 14.4992C37.2957 14.4593 35.9395 14.6388 34.3639 15.0377C30.8337 15.9252 26.5256 17.7701 22.2475 20.2432C17.7201 22.856 13.8508 25.7778 11.3378 28.4803C10.2808 28.4105 9.55279 28.0914 9.25362 27.5629C7.87744 25.1695 13.811 19.1562 22.4968 14.1402C26.7351 11.687 30.9932 9.86205 34.4835 8.98449C35.8996 8.62549 37.1262 8.44599 38.1434 8.44599ZM37.9838 14.9778C37.9838 14.9778 37.9738 14.9878 37.9639 14.9978C35.4608 17.5806 31.7511 20.3529 27.5029 22.8061C23.2547 25.2593 18.9966 27.0842 15.5162 27.9618C14.1899 28.2909 13.0231 28.4704 12.0259 28.4803C14.529 25.8975 18.2387 23.1252 22.5068 20.672C26.745 18.2188 31.0032 16.3939 34.4935 15.5163C35.8298 15.1773 37.0065 14.9978 37.9838 14.9878V14.9778ZM11.5672 28.969C11.5672 28.969 11.6171 28.969 11.647 28.969C11.7168 28.969 11.7866 28.979 11.8564 28.979C12.9035 28.979 14.1799 28.7895 15.6359 28.4305C19.1661 27.5429 23.4741 25.6981 27.7522 23.2249C32.0303 20.7518 35.7899 17.9496 38.3229 15.3368C38.4026 15.2571 38.4725 15.1773 38.5423 15.0975L38.632 14.9978C39.719 15.0676 40.4569 15.3867 40.7461 15.9053C41.3245 16.9125 40.4769 18.7673 38.4226 21.0211C37.3057 20.9812 35.9395 21.1607 34.3639 21.5596C30.8337 22.4471 26.5256 24.292 22.2475 26.7651C17.7201 29.3778 13.8409 32.2997 11.3378 34.9922C10.2708 34.9224 9.55279 34.6033 9.25362 34.0748C8.65528 33.0377 9.47301 31.2227 11.5572 28.959L11.5672 28.969ZM37.9838 21.5097C37.9838 21.5097 37.9738 21.5197 37.9639 21.5296C35.4608 24.1125 31.7412 26.8848 27.5029 29.328C23.2547 31.7812 18.9966 33.6061 15.5162 34.4837C14.1999 34.8127 13.0231 34.9922 12.0259 35.0022C14.529 32.4194 18.2387 29.6471 22.5068 27.1939C26.745 24.7407 31.0032 22.9158 34.4935 22.0382C35.8298 21.6992 37.0065 21.5197 37.9838 21.4997V21.5097Z" fill="black"/>
</svg>
