<svg width="50" height="50" viewBox="0 0 50 50" fill="none" xmlns="http://www.w3.org/2000/svg">
<path d="M41.6615 25.9067H40.8231V23.5936C40.8231 23.3814 40.6555 23.2093 40.4491 23.2093H39.5659V20.9106C39.5659 20.6985 39.3983 20.5263 39.1919 20.5263H38.3778V18.4589C38.3778 18.2467 38.2102 18.0746 38.0038 18.0746H37.1312V15.8645C37.1312 15.6523 36.9637 15.4802 36.7573 15.4802H35.5837V13.0124C35.5837 12.8003 35.4162 12.6281 35.2098 12.6281H33.7207V10.335C33.7207 10.1228 33.5532 9.95065 33.3467 9.95065H31.5286V8.26218C31.5286 8.05002 31.361 7.87783 31.1546 7.87783H28.9917V7.22474C28.9917 7.01258 28.8242 6.84039 28.6178 6.84039H10.1913C9.98492 6.84039 9.81738 7.01258 9.81738 7.22474V23.5405C9.81738 23.7527 9.98492 23.9249 10.1913 23.9249H12.2778V25.5093C12.2778 25.7215 12.4454 25.8937 12.6518 25.8937H14.3941V27.4201C14.3941 27.6322 14.5616 27.8044 14.768 27.8044H16.1806V29.9343C16.1806 30.1465 16.3481 30.3187 16.5546 30.3187H17.6516V32.6238C17.6516 32.8359 17.8192 33.0081 18.0256 33.0081H18.8222V35.055C18.8222 35.2672 18.9897 35.4393 19.1961 35.4393H19.9338V37.3441C19.9338 37.5562 20.1013 37.7284 20.3077 37.7284H21.1156V39.8644C21.1156 40.0765 21.2831 40.2487 21.4896 40.2487H22.2511V42.3997C22.2511 42.6118 22.4187 42.784 22.6251 42.784H41.6616C41.8681 42.784 42.0356 42.6118 42.0356 42.3997V26.291C42.0355 26.0789 41.868 25.9067 41.6615 25.9067ZM10.5653 7.60909H28.2437V8.26218V10.3351V13.0124V15.8645V18.4588V20.9105V22.499V23.1561H21.4896H20.3077H19.1961H18.0256H16.5546H14.768H12.6518H10.5653V7.60909ZM13.0258 23.9249H14.768H16.5546H18.0256H19.1961H20.3077H21.4896H28.6177C28.8241 23.9249 28.9916 23.7527 28.9916 23.5405V22.4991V20.9106V18.4589V15.8645V13.0124V10.335V8.64653H30.7806V10.3351V25.1251H14.768H13.0258V23.9249ZM15.142 25.8937H31.1546C31.361 25.8937 31.5286 25.7215 31.5286 25.5093V10.7193H32.9728V13.0124V27.0356H16.5546H15.142V25.8937ZM16.9285 27.8044H33.3468C33.5533 27.8044 33.7208 27.6322 33.7208 27.4201V13.3968H34.8359V15.8645V29.5499H18.0256H16.9285V27.8044ZM18.3995 30.3187H35.2098C35.4162 30.3187 35.5837 30.1465 35.5837 29.9343V16.2488H36.3833V18.4588V32.2393H19.1961H18.3995V30.3187ZM19.5701 33.0081H36.7573C36.9637 33.0081 37.1312 32.8359 37.1312 32.6238V18.8433H37.6298V20.9106V34.6706H20.3077H19.5701V33.0081ZM20.6817 35.4393H38.0037C38.2101 35.4393 38.3777 35.2672 38.3777 35.055V21.295H38.8178V23.5936V36.9597H21.4896H20.6817V35.4393ZM21.8635 37.7284H39.1919C39.3983 37.7284 39.5659 37.5562 39.5659 37.3441V23.978H40.0751V26.291V39.48H22.6251H21.8635V37.7284ZM41.2876 42.0153H22.9991V40.2487H40.4491C40.6555 40.2487 40.8231 40.0765 40.8231 39.8644V26.6754H41.2876V42.0153Z" fill="#081219"/>
</svg>
