<svg width="50" height="50" viewBox="0 0 50 50" fill="none" xmlns="http://www.w3.org/2000/svg">
<path d="M42.2946 14.3947H39.7797C39.7228 13.3164 39.4677 12.2371 38.9546 11.1583H41.1542C41.2233 11.1583 41.2788 11.1007 41.2788 11.0302C41.2788 10.9597 41.2233 10.9021 41.1542 10.9021H38.828C38.2345 9.74716 37.3437 8.59309 36.0726 7.44189C36.019 7.39433 35.9412 7.39935 35.8963 7.45336C35.8505 7.50646 35.8554 7.58753 35.907 7.63406C37.1141 8.72746 37.9749 9.81563 38.5602 10.9021H35.394C34.9493 9.75146 34.2869 8.6018 33.337 7.4549C33.2932 7.40284 33.2143 7.39484 33.1617 7.44035C33.1091 7.48637 33.1032 7.56693 33.148 7.62104C34.0505 8.71106 34.6919 9.80548 35.1257 10.9021H31.9682C31.6726 9.75813 31.2327 8.61502 30.6033 7.47489C30.5692 7.41237 30.4913 7.39279 30.4339 7.42631C30.3735 7.46136 30.353 7.53946 30.3871 7.60095C30.9925 8.69773 31.4219 9.79882 31.7118 10.9019H28.5452C28.3979 9.76715 28.179 8.63337 27.8669 7.50287C27.8483 7.43481 27.7851 7.3933 27.713 7.41483C27.6468 7.43389 27.6088 7.50492 27.6274 7.57297C27.9327 8.67939 28.1484 9.78969 28.294 10.9019H25.1245V7.53792C25.1245 7.46741 25.069 7.40981 24.9999 7.40981C24.9312 7.40981 24.8752 7.46741 24.8752 7.53792V10.9019H21.7057C21.8513 9.78969 22.0671 8.67928 22.3724 7.57297C22.3913 7.50492 22.3529 7.43389 22.2867 7.41483C22.22 7.39382 22.1518 7.43481 22.1328 7.50287C21.8208 8.63337 21.602 9.76715 21.4547 10.9019H18.2887C18.5787 9.79882 19.008 8.69773 19.6134 7.60095C19.647 7.53936 19.6261 7.46136 19.5662 7.42631C19.5053 7.39125 19.4298 7.41329 19.3962 7.47489C18.7668 8.61502 18.3269 9.75802 18.0313 10.9021H14.8744C15.3083 9.80548 15.9499 8.71116 16.8525 7.62104C16.8974 7.56693 16.8911 7.48637 16.8384 7.44035C16.7869 7.39484 16.7085 7.4013 16.6627 7.4549C15.713 8.6018 15.0506 9.75146 14.6061 10.9021H11.4396C12.0249 9.81573 12.8856 8.72746 14.0927 7.63406C14.1443 7.58753 14.1496 7.50646 14.1038 7.45336C14.0586 7.39986 13.9787 7.39535 13.9281 7.44189C12.6569 8.59309 11.7661 9.74716 11.1726 10.9021H8.84553C8.77692 10.9021 8.72088 10.9597 8.72088 11.0302C8.72088 11.1007 8.77692 11.1583 8.84553 11.1583H11.0461C10.5329 12.2371 10.2779 13.3163 10.2208 14.3947H7.7051C7.63649 14.3947 7.58044 14.4523 7.58044 14.5228C7.58044 14.5933 7.63649 14.6509 7.7051 14.6509H10.207C10.181 15.7313 10.3497 16.8106 10.6503 17.8869H8.30792C8.23931 17.8869 8.18327 17.9445 8.18327 18.015C8.18327 18.0855 8.23931 18.1431 8.30792 18.1431H10.7257C11.049 19.2254 11.5005 20.3049 12.021 21.3795H10.0726C10.004 21.3795 9.94797 21.4371 9.94797 21.5076C9.94797 21.5781 10.004 21.6357 10.0726 21.6357H12.1466C12.6825 22.7199 13.2812 23.7992 13.881 24.8717H12.4181C12.3495 24.8717 12.2935 24.9293 12.2935 24.9998C12.2935 25.0708 12.3495 25.1279 12.4181 25.1279H14.0241C14.6332 26.2166 15.235 27.2944 15.7719 28.3638H13.7163C13.6477 28.3638 13.5916 28.4209 13.5916 28.4919C13.5916 28.5629 13.6477 28.62 13.7163 28.62H15.8953C16.4305 29.7062 16.891 30.7842 17.2226 31.857H15.4809C15.4123 31.857 15.3562 31.9141 15.3562 31.9851C15.3562 32.0561 15.4123 32.1132 15.4809 32.1132H17.2955C17.6088 33.1957 17.7775 34.2734 17.7501 35.3491H16.0832C16.0146 35.3491 15.9586 35.4062 15.9586 35.4772C15.9586 35.5483 16.0146 35.6053 16.0832 35.6053H17.742C17.682 36.6845 17.4106 37.7622 16.8723 38.8413H14.9428C14.8742 38.8413 14.8181 38.8983 14.8181 38.9694C14.8181 39.0404 14.8742 39.0975 14.9428 39.0975H16.7536C16.1683 40.1838 15.3076 41.2721 14.1004 42.3655C14.0488 42.4125 14.0435 42.4936 14.0893 42.5467C14.1141 42.5747 14.1482 42.5897 14.1828 42.5897C14.212 42.5897 14.2417 42.5788 14.2651 42.5578C15.5362 41.4065 16.4272 40.2526 17.0207 39.0976H18.7704C18.3365 40.1942 17.6948 41.2886 16.7923 42.3786C16.7475 42.4326 16.7538 42.5137 16.8064 42.5588C16.8298 42.5798 16.8585 42.5898 16.8873 42.5898C16.9224 42.5898 16.9574 42.5749 16.9822 42.5448C17.9319 41.3979 18.5942 40.2482 19.0386 39.0977H20.8081C20.518 40.2009 20.0887 41.3019 19.4831 42.3987C19.4495 42.4598 19.4704 42.5378 19.5304 42.5728C19.5498 42.5848 19.5707 42.5898 19.5917 42.5898C19.6351 42.5898 19.6773 42.5668 19.7003 42.5247C20.3297 41.3846 20.7696 40.2415 21.0652 39.0976H22.8429C22.6974 40.2098 22.4816 41.3203 22.1763 42.4266C22.1574 42.4946 22.1957 42.5656 22.262 42.5847C22.2731 42.5877 22.2848 42.5897 22.2961 42.5897C22.3506 42.5897 22.4003 42.5527 22.4158 42.4967C22.728 41.3662 22.9468 40.2325 23.0941 39.0976H24.8754V42.4616C24.8754 42.5326 24.9314 42.5897 25.0001 42.5897C25.0692 42.5897 25.1247 42.5326 25.1247 42.4616V39.0976H26.9067C27.0539 40.2324 27.2725 41.3662 27.5847 42.4967C27.6002 42.5527 27.6499 42.5897 27.7044 42.5897C27.7151 42.5897 27.7269 42.5877 27.7386 42.5847C27.8048 42.5656 27.8428 42.4946 27.8242 42.4266C27.5189 41.3201 27.3032 40.2098 27.1576 39.0976H28.9354C29.2311 40.2415 29.6711 41.3846 30.3007 42.5247C30.3232 42.5668 30.366 42.5898 30.4088 42.5898C30.4303 42.5898 30.4507 42.5848 30.4702 42.5728C30.5305 42.5378 30.551 42.4597 30.5169 42.3987C29.9114 41.3019 29.4821 40.2009 29.1921 39.0977H30.9617C31.4064 40.2482 32.0688 41.3979 33.0187 42.5448C33.043 42.5749 33.0781 42.5898 33.1131 42.5898C33.1413 42.5898 33.1706 42.5798 33.194 42.5588C33.2466 42.5138 33.2524 42.4327 33.2077 42.3786C32.3051 41.2886 31.6634 40.1942 31.2297 39.0976H32.9791C33.5726 40.2525 34.4636 41.4065 35.7347 42.5578C35.7591 42.5788 35.7883 42.5897 35.8175 42.5897C35.8516 42.5897 35.8866 42.5748 35.9111 42.5467C35.9568 42.4936 35.9519 42.4125 35.9004 42.3655C34.6931 41.2721 33.8322 40.1839 33.2469 39.0975H35.057C35.1261 39.0975 35.1817 39.0404 35.1817 38.9694C35.1817 38.8983 35.1261 38.8413 35.057 38.8413H33.1283C32.5899 37.7621 32.3186 36.6844 32.2585 35.6053H33.9167C33.9858 35.6053 34.0413 35.5483 34.0413 35.4772C34.0413 35.4062 33.9858 35.3491 33.9167 35.3491H32.2505C32.223 34.2733 32.3917 33.1957 32.705 32.1132H34.5195C34.5886 32.1132 34.6442 32.0561 34.6442 31.9851C34.6442 31.9141 34.5886 31.857 34.5195 31.857H32.7779C33.1094 30.7842 33.5698 29.7062 34.1049 28.62H36.2842C36.3533 28.62 36.4089 28.5629 36.4089 28.4919C36.4089 28.4209 36.3533 28.3638 36.2842 28.3638H34.2283C34.7652 27.2943 35.367 26.2166 35.9759 25.1279H37.5824C37.6515 25.1279 37.7071 25.0708 37.7071 24.9998C37.7071 24.9293 37.6515 24.8717 37.5824 24.8717H36.119C36.7189 23.7992 37.3176 22.7199 37.8538 21.6357H39.9284C39.9975 21.6357 40.053 21.5781 40.053 21.5076C40.053 21.4371 39.9975 21.3795 39.9284 21.3795H37.979C38.4997 20.3049 38.9512 19.2254 39.2746 18.1431H41.6928C41.7619 18.1431 41.8174 18.0855 41.8174 18.015C41.8174 17.9445 41.7619 17.8869 41.6928 17.8869H39.35C39.6508 16.8105 39.8195 15.7313 39.7935 14.6509H42.2946C42.3637 14.6509 42.4193 14.5933 42.4193 14.5228C42.4193 14.4523 42.3637 14.3947 42.2946 14.3947ZM38.6791 11.1582C39.2175 12.2374 39.4888 13.3154 39.5489 14.3946H36.1068C36.0637 13.3163 35.8671 12.2369 35.4811 11.1582H38.6791ZM35.2123 11.1582C35.6066 12.2358 35.8063 13.3153 35.8506 14.3946H32.4448C32.4159 13.3162 32.2844 12.2369 32.0264 11.1582H35.2123ZM35.5247 17.8869H32.2296C32.3802 16.8105 32.4614 15.7313 32.4481 14.6509H35.855C35.8757 15.7305 35.7526 16.8098 35.5247 17.8869ZM14.145 14.6509H17.5518C17.5385 15.7313 17.6198 16.8105 17.7703 17.8869H14.4752C14.2473 16.8098 14.1243 15.7305 14.145 14.6509ZM31.9765 17.8869H28.6767C28.7521 16.8103 28.7927 15.7312 28.786 14.6509H32.1968C32.2103 15.7306 32.1284 16.8098 31.9765 17.8869ZM22.3823 24.8717C22.2323 23.7992 22.0824 22.7198 21.9478 21.6357H24.8751V24.8717H22.3823ZM24.8752 25.1279V28.3638H22.8521C22.7178 27.2795 22.568 26.2005 22.4181 25.1279H24.8752ZM25.1245 25.1279H27.5818C27.4319 26.2004 27.2824 27.2796 27.1482 28.3638H25.1244L25.1245 25.1279ZM25.1245 24.8717V21.6357H28.0519C27.9174 22.7198 27.7675 23.7991 27.6175 24.8717H25.1245ZM25.1245 21.3795V18.1431H28.4075C28.3261 19.2252 28.2133 20.3046 28.0825 21.3795H25.1245ZM24.8752 21.3795H21.9172C21.7864 20.3046 21.6736 19.2252 21.5922 18.1431H24.8752V21.3795ZM21.6657 21.3795H18.7113C18.4496 20.3045 18.2235 19.2251 18.0605 18.1431H21.3417C21.4228 19.2254 21.5353 20.3048 21.6657 21.3795ZM21.6964 21.6357C21.8308 22.72 21.9803 23.7992 22.1303 24.8717H19.642C19.3421 23.7992 19.0421 22.7198 18.7727 21.6357H21.6964ZM22.166 25.1279C22.3161 26.2004 22.4659 27.2797 22.6005 28.3638H20.5809C20.3125 27.2796 20.0135 26.2004 19.7134 25.1279H22.166ZM22.6312 28.6201C22.7621 29.6953 22.875 30.7747 22.9563 31.8571H21.2898C21.1278 30.7744 20.9029 29.695 20.6422 28.6201H22.6312ZM22.8827 28.6201H24.8752V31.8571H23.2068C23.1258 30.7744 23.0133 29.695 22.8827 28.6201ZM25.1245 28.6201H27.1177C26.9872 29.6951 26.8748 30.7746 26.7937 31.8571H25.1245V28.6201ZM27.369 28.6201H29.3577C29.097 29.695 28.8722 30.7744 28.7103 31.8571H27.0439C27.1254 30.7747 27.2381 29.6953 27.369 28.6201ZM27.3997 28.3639C27.5342 27.2798 27.6841 26.2006 27.8342 25.128H30.2863C29.9863 26.2005 29.6874 27.2797 29.4191 28.3639H27.3997ZM27.8699 24.8717C28.0199 23.7992 28.1696 22.7199 28.3038 21.6357H31.2273C30.9578 22.7198 30.6576 23.7992 30.3576 24.8717H27.8699ZM28.3345 21.3795C28.4649 20.3048 28.5775 19.2254 28.6586 18.1431H31.9399C31.7768 19.2251 31.5507 20.3045 31.2888 21.3795H28.3345ZM28.4258 17.8869H25.1245V14.6509H28.5357C28.5424 15.7307 28.5015 16.8099 28.4258 17.8869ZM24.8752 17.8869H21.5739C21.4981 16.81 21.4573 15.7307 21.464 14.6509H24.8752V17.8869ZM21.3235 17.8869H18.0238C17.8721 16.8098 17.7901 15.7306 17.8038 14.6509H21.2142C21.2074 15.7312 21.2481 16.8103 21.3235 17.8869ZM17.8067 18.1431C17.9687 19.2255 18.1935 20.3048 18.4541 21.3795H15.5073C15.1143 20.3045 14.775 19.225 14.5301 18.1431H17.8067ZM18.5154 21.6357C18.7837 22.7199 19.0828 23.7991 19.3828 24.8717H16.9041C16.4542 23.7992 16.0037 22.7198 15.5995 21.6357H18.5154ZM19.4541 25.1279C19.7541 26.2004 20.0542 27.2797 20.3237 28.3638H18.3115C17.9093 27.2795 17.4612 26.2005 17.0112 25.1279H19.4541ZM20.3852 28.6201C20.647 29.6954 20.8732 30.7749 21.0364 31.8571H19.3739C19.1312 30.7744 18.7944 29.6951 18.4036 28.6201H20.3852ZM21.0729 32.1133C21.2247 33.1904 21.3066 34.2697 21.293 35.3492H19.7559C19.7757 34.2688 19.654 33.1896 19.4282 32.1133H21.0729ZM21.3262 32.1133H22.9746C23.0504 33.1902 23.0913 34.2694 23.0845 35.3492H21.5447C21.558 34.2687 21.4768 33.1897 21.3262 32.1133ZM23.2251 32.1133H24.8752V35.3492H23.3345C23.3412 34.2689 23.3005 33.1898 23.2251 32.1133ZM25.1245 32.1133H26.7754C26.7 33.1899 26.6592 34.269 26.666 35.3492H25.1245V32.1133ZM27.0256 32.1133H28.6739C28.5232 33.1897 28.4421 34.2688 28.4555 35.3492H26.9156C26.909 34.2694 26.9498 33.1902 27.0256 32.1133ZM28.9273 32.1133H30.5714C30.3457 33.1897 30.224 34.2688 30.2438 35.3492H28.7073C28.6936 34.2695 28.7756 33.1904 28.9273 32.1133ZM28.9639 31.8571C29.127 30.7749 29.3532 29.6954 29.615 28.6201H31.5963C31.2055 29.6951 30.8687 30.7744 30.6259 31.8571H28.9639ZM29.6764 28.3639C29.9457 27.2798 30.2458 26.2005 30.5457 25.128H32.9889C32.5389 26.2006 32.0908 27.2797 31.6884 28.3639H29.6764ZM30.6171 24.8717C30.9171 23.7991 31.2162 22.7199 31.4845 21.6357H34.4005C33.9963 22.7198 33.546 23.7992 33.0961 24.8717H30.6171ZM31.5459 21.3795C31.8066 20.3048 32.0313 19.2255 32.1933 18.1431H35.4698C35.225 19.2251 34.8856 20.3045 34.4926 21.3795H31.5459ZM31.7697 11.1582C32.0318 12.2359 32.1645 13.3153 32.1939 14.3946H28.7844C28.7699 13.316 28.704 12.2367 28.5743 11.1582H31.7697ZM28.3228 11.1582C28.4534 12.236 28.5196 13.3155 28.5341 14.3946H25.1245V11.1582H28.3228ZM24.8752 11.1582V14.3946H21.4656C21.4801 13.3155 21.5464 12.236 21.6769 11.1582H24.8752ZM21.4257 11.1582C21.2961 12.2367 21.2302 13.316 21.2158 14.3946H17.8067C17.8362 13.3151 17.969 12.2358 18.2311 11.1582H21.4257ZM17.9734 11.1582C17.7154 12.2369 17.5839 13.3162 17.5551 14.3946H14.1494C14.1938 13.3151 14.3935 12.2358 14.7879 11.1582H17.9734ZM11.3209 11.1582H14.519C14.1332 12.237 13.9365 13.3164 13.8936 14.3947H10.4512C10.5112 13.3155 10.7825 12.2374 11.3209 11.1582ZM10.4431 14.6509H13.8886C13.8689 15.7314 13.9906 16.8105 14.2163 17.8869H10.8976C10.5844 16.8043 10.4156 15.7266 10.4431 14.6509ZM10.9705 18.1431H14.2708C14.5134 19.2256 14.8502 20.3048 15.2409 21.3795H12.2974C11.7624 20.2937 11.3021 19.2158 10.9705 18.1431ZM12.4208 21.6357H15.3328C15.7351 22.72 16.1831 23.7991 16.6331 24.8717H14.1686C13.5596 23.7831 12.9578 22.7053 12.4208 21.6357ZM14.3117 25.1279H16.7401C17.1901 26.2004 17.6406 27.2797 18.045 28.3638H16.0463C15.5103 27.2797 14.9116 26.2005 14.3117 25.1279ZM16.1719 28.6201H18.137C18.5301 29.6954 18.8696 30.7749 19.1143 31.8571H17.4674C17.1441 30.7744 16.6925 29.695 16.1719 28.6201ZM17.5428 32.1133H19.1693C19.3971 33.1904 19.5203 34.2697 19.4995 35.3492H17.9859C18.0121 34.2687 17.8434 33.1896 17.5428 32.1133ZM17.1472 38.8414C17.6602 37.7627 17.9152 36.6836 17.9723 35.6054H19.4952C19.4509 36.6847 19.2511 37.7641 18.8568 38.8414H17.1472ZM19.1256 38.8414C19.5112 37.7627 19.7079 36.6836 19.7509 35.6054H21.29C21.2605 36.6847 21.1278 37.764 20.8656 38.8414H19.1256ZM21.123 38.8414C21.381 37.7627 21.5124 36.6837 21.5413 35.6054H23.083C23.0684 36.6845 23.0021 37.7637 22.8717 38.8414H21.123ZM23.1229 38.8414C23.2524 37.763 23.3183 36.6839 23.3328 35.6054H24.8752V38.8414H23.1229ZM25.1245 38.8414V35.6054H26.6677C26.6823 36.6839 26.7481 37.763 26.8775 38.8414H25.1245ZM27.1285 38.8414C26.998 37.7636 26.9318 36.6845 26.9172 35.6054H28.4587C28.4876 36.6837 28.6192 37.7628 28.8772 38.8414H27.1285ZM29.1343 38.8414C28.8722 37.7638 28.7395 36.6847 28.7101 35.6054H30.2488C30.2919 36.6836 30.4885 37.7627 30.8743 38.8414H29.1343ZM32.8525 38.8414H31.1431C30.7488 37.7641 30.5491 36.6847 30.5048 35.6054H32.0275C32.0845 36.6836 32.3396 37.7627 32.8525 38.8414ZM32.0139 35.3492H30.5005C30.4797 34.2697 30.6029 33.1904 30.8308 32.1133H32.4572C32.1565 33.1896 31.9877 34.2687 32.0139 35.3492ZM32.5324 31.8571H30.8855C31.1303 30.7749 31.4698 29.6954 31.8629 28.6201H33.8279C33.3074 29.695 32.8558 30.7744 32.5324 31.8571ZM33.9536 28.3639H31.955C32.3594 27.2798 32.81 26.2005 33.2601 25.128H35.688C35.0882 26.2005 34.4896 27.2797 33.9536 28.3639ZM35.8311 24.8717H33.3672C33.8172 23.7991 34.2654 22.7199 34.6677 21.6357H37.5792C37.0421 22.7053 36.4402 23.7831 35.8311 24.8717ZM37.7026 21.3795H34.7596C35.1504 20.3048 35.4871 19.2255 35.7298 18.1431H39.0296C38.6979 19.2158 38.2376 20.2937 37.7026 21.3795ZM39.1024 17.8869H35.7843C36.01 16.8105 36.1316 15.7314 36.1118 14.6509H39.5569C39.5844 15.7266 39.4157 16.8043 39.1024 17.8869Z" fill="#081219"/>
</svg>
