<svg width="50" height="50" viewBox="0 0 50 50" fill="none" xmlns="http://www.w3.org/2000/svg">
<path d="M32.8526 15.5562C31.4947 15.5562 30.179 15.8155 28.9263 16.3241C26.4211 15.2969 23.579 15.2969 21.0737 16.3241C19.8211 15.8155 18.5053 15.5562 17.1474 15.5562C11.6526 15.5562 7.17896 19.7944 7.17896 25C7.17896 30.2055 11.6526 34.4437 17.1474 34.4437C18.5053 34.4437 19.8211 34.1845 21.0737 33.6759C23.579 34.703 26.4211 34.703 28.9263 33.6759C30.179 34.1845 31.4947 34.4437 32.8526 34.4437C38.3474 34.4437 42.8211 30.2055 42.8211 25C42.8211 19.7944 38.3474 15.5562 32.8526 15.5562ZM32.8526 33.7656C31.8 33.7656 30.7684 33.5961 29.7895 33.267C32.9579 31.6116 34.9684 28.4304 34.9684 25C34.9684 21.5695 32.9579 18.3883 29.7895 16.7329C30.7684 16.4038 31.8 16.2343 32.8526 16.2343C37.9474 16.2343 42.1053 20.1634 42.1053 25C42.1053 29.8365 37.9579 33.7656 32.8526 33.7656ZM21.9369 33.267C23.1158 32.6487 24.1684 31.8011 25 30.7939C25.8316 31.8011 26.8842 32.6487 28.0632 33.267C26.0947 33.9252 23.8947 33.9252 21.9369 33.267ZM7.90527 25C7.90527 20.1734 12.0526 16.2343 17.1579 16.2343C18.2105 16.2343 19.2421 16.4038 20.2211 16.7329C17.0526 18.3883 15.0421 21.5695 15.0421 25C15.0421 28.4304 17.0526 31.6116 20.2211 33.267C19.2421 33.5961 18.2105 33.7656 17.1579 33.7656C12.0632 33.7656 7.90527 29.8365 7.90527 25ZM21.0737 17.072C22.4526 17.6903 23.6421 18.6177 24.5579 19.7745C23.4632 21.3302 22.8842 23.1352 22.8842 25C22.8842 26.8648 23.4632 28.6698 24.5579 30.2255C23.6421 31.3822 22.4526 32.3097 21.0737 32.9279C17.8316 31.482 15.7474 28.3806 15.7474 25C15.7474 21.6194 17.8316 18.518 21.0737 17.072ZM26.4 25C26.4 26.6454 25.9158 28.231 25 29.6171C24.0842 28.231 23.6 26.6354 23.6 25C23.6 23.3645 24.0842 21.7689 25 20.3828C25.9158 21.7689 26.4 23.3645 26.4 25ZM25 19.2061C24.1684 18.1989 23.1158 17.3512 21.9369 16.7329C23.9053 16.0748 26.1053 16.0748 28.0632 16.7329C26.8842 17.3512 25.8316 18.1989 25 19.2061ZM27.1158 25C27.1158 23.1352 26.5368 21.3302 25.4421 19.7745C26.3579 18.6177 27.5579 17.6903 28.9263 17.072C32.1684 18.518 34.2526 21.6194 34.2526 25C34.2526 28.3806 32.1684 31.482 28.9263 32.9279C27.5579 32.3196 26.3579 31.3822 25.4421 30.2255C26.5368 28.6698 27.1158 26.8648 27.1158 25Z" fill="black"/>
</svg>
