<svg width="50" height="50" viewBox="0 0 50 50" fill="none" xmlns="http://www.w3.org/2000/svg">
<path d="M32.5987 32.8098C22.8201 42.8602 7.29419 43.1977 7.29419 43.1977H42.7058V6.80237C42.7058 6.80237 42.3773 22.7595 32.5987 32.8098Z" fill="#081219"/>
<path d="M42.7058 6.80237H7.29419V43.1977C7.29419 43.1977 7.62268 27.2405 17.4013 17.1902C27.18 7.13998 42.7058 6.80237 42.7058 6.80237Z" fill="#081219"/>
<path d="M25 32.0492C28.7879 32.0492 31.8587 28.8932 31.8587 25C31.8587 21.1069 28.7879 17.9509 25 17.9509C21.2121 17.9509 18.1414 21.1069 18.1414 25C18.1414 28.8932 21.2121 32.0492 25 32.0492Z" fill="#081219"/>
</svg>
