<svg width="50" height="50" viewBox="0 0 50 50" fill="none" xmlns="http://www.w3.org/2000/svg">
<path d="M27.532 35.1986C28.18 35.1585 28.8156 35.0704 29.4215 34.9358C30.027 34.8974 30.6107 34.8181 31.1594 34.7001C31.7773 34.6644 32.313 34.6005 32.7951 34.5044C38.848 34.2657 43.5863 29.4687 43.5863 23.572C43.5863 17.5386 38.5506 12.6298 32.3346 12.6191C31.6676 12.5127 31.0627 12.4605 30.488 12.4605C30.4418 12.4605 30.3965 12.4634 30.3513 12.4669L30.2816 12.4707C29.5881 12.3736 29.0109 12.3144 28.4557 12.3513L28.3523 12.357C27.6963 12.2698 27.151 12.2113 26.6229 12.2487L26.5385 12.2535C25.9276 12.1719 25.4095 12.1331 24.915 12.1331L24.8112 12.138C24.3293 12.0692 23.8899 12.0279 23.4716 12.0137C23.0458 11.9359 22.5994 11.8805 22.1076 11.8449C21.166 11.6355 20.2261 11.5281 19.3136 11.5281C12.3939 11.5281 6.76422 17.0095 6.76422 23.7472C6.76422 30.4849 12.3939 35.9667 19.3136 35.9667C19.7907 35.9667 20.2872 35.9329 20.8695 35.8614L20.983 35.8677C21.0487 35.8727 21.1145 35.8767 21.1819 35.8767C21.8173 35.8767 22.4816 35.8187 23.21 35.7009C23.9666 35.6911 24.7343 35.6101 25.495 35.4597C26.2062 35.4254 26.8915 35.3373 27.532 35.1986ZM24.3459 34.9254C24.6865 34.7796 25.0272 34.6156 25.3585 34.4373C25.6916 34.2582 26.0216 34.061 26.3382 33.8518C26.6527 33.6456 26.9642 33.4194 27.2644 33.1792C30.187 30.8461 31.8625 27.4079 31.8625 23.7472C31.8625 19.9582 30.0924 16.4461 27.0064 14.1109C26.7114 13.8877 26.3917 13.6685 26.0566 13.4603C25.8615 13.3393 25.662 13.224 25.4596 13.1129C25.5385 13.1425 25.6198 13.1667 25.6979 13.1981C26.0012 13.3202 26.2962 13.4528 26.5861 13.5974C26.8965 13.7535 27.2101 13.9287 27.5164 14.1179C30.9621 16.2483 33.0191 19.8816 33.0191 23.8377C33.0191 27.5741 31.139 31.0933 27.9903 33.2513C27.7076 33.4445 27.4167 33.6256 27.1269 33.7898C26.8246 33.9599 26.5162 34.1181 26.2099 34.2572C25.8995 34.3994 25.5798 34.5295 25.258 34.6446C24.9586 34.7515 24.652 34.8429 24.3459 34.9254ZM34.2737 13.6431C34.4593 13.7093 34.6399 13.7841 34.8202 13.8594C34.9242 13.9028 35.0303 13.9425 35.1325 13.9888C35.3358 14.0811 35.5326 14.1832 35.7283 14.2868C35.8014 14.3255 35.8775 14.3597 35.9494 14.3999C36.2154 14.5486 36.4745 14.707 36.7251 14.876C36.7555 14.8965 36.7834 14.9199 36.8135 14.9407C37.0309 15.0905 37.2435 15.2461 37.4482 15.4104C37.5269 15.4735 37.6001 15.5423 37.6769 15.6075C37.8275 15.7356 37.978 15.8639 38.121 15.9997C38.2059 16.0804 38.2856 16.166 38.3677 16.2493C38.4939 16.3773 38.6199 16.5058 38.7393 16.6398C38.8219 16.7326 38.8999 16.829 38.9792 16.9244C39.0894 17.0573 39.1984 17.1909 39.3019 17.3289C39.3783 17.4307 39.4511 17.535 39.5237 17.6394C39.6202 17.7782 39.7145 17.9187 39.8042 18.062C39.8727 18.1715 39.9389 18.2825 40.0033 18.3945C40.0873 18.5403 40.1676 18.6882 40.2445 18.8382C40.3036 18.9531 40.3613 19.0687 40.4161 19.1859C40.4879 19.3397 40.5545 19.496 40.6189 19.6535C40.6675 19.7725 40.7164 19.8914 40.7607 20.0125C40.8205 20.1756 40.8732 20.3419 40.9247 20.5084C40.962 20.6285 41.0011 20.7479 41.034 20.8698C41.0816 21.0457 41.1201 21.2249 41.1585 21.4042C41.1836 21.5214 41.2123 21.6372 41.2335 21.7557C41.2692 21.9555 41.2934 22.1589 41.3175 22.3623C41.3295 22.4636 41.3471 22.5632 41.356 22.6653C41.3833 22.9725 41.3986 23.2828 41.3986 23.5964C41.3986 23.895 41.3838 24.1909 41.3583 24.4843C41.3499 24.5814 41.334 24.6767 41.323 24.7732C41.3004 24.9682 41.277 25.163 41.2436 25.3552C41.2239 25.4687 41.1978 25.5801 41.1744 25.6924C41.1385 25.8646 41.1015 26.0363 41.0571 26.2056C41.0262 26.323 40.9909 26.4387 40.9561 26.5547C40.9077 26.7159 40.857 26.8762 40.8008 27.0346C40.7599 27.1503 40.7162 27.2649 40.6713 27.3788C40.6102 27.5335 40.5456 27.6863 40.4774 27.8377C40.4271 27.9494 40.3758 28.0607 40.3217 28.1706C40.2477 28.3204 40.1687 28.4676 40.0879 28.6138C40.0299 28.7185 39.9727 28.8239 39.9113 28.9266C39.822 29.0758 39.7262 29.2209 39.6297 29.3656C39.5673 29.459 39.5075 29.5543 39.4421 29.6458C39.3289 29.8045 39.2077 29.9577 39.0859 30.1102C39.0291 30.1813 38.976 30.2554 38.9173 30.3251C38.7335 30.5435 38.5417 30.7556 38.3407 30.9593C38.3075 30.9929 38.2711 31.0235 38.2374 31.0567C38.0664 31.2256 37.8915 31.3908 37.7091 31.5486C37.6335 31.614 37.5534 31.6742 37.4759 31.7376C37.3293 31.8575 37.1819 31.9766 37.0287 32.0891C36.938 32.1557 36.8437 32.2179 36.7507 32.2818C36.6033 32.3832 36.4549 32.4832 36.302 32.5775C36.2024 32.639 36.1002 32.6972 35.9984 32.7556C35.8446 32.8439 35.6891 32.9293 35.5304 33.0103C35.4252 33.064 35.3186 33.1158 35.2114 33.1663C35.0479 33.2432 34.8817 33.3157 34.7135 33.3847C34.6062 33.4288 34.499 33.4725 34.3899 33.5132C34.3414 33.5315 34.291 33.546 34.2421 33.5636C34.268 33.5495 34.2909 33.5312 34.3166 33.517C34.708 33.3016 35.0858 33.0674 35.4462 32.8112C35.509 32.7665 35.5683 32.7186 35.63 32.6729C35.9795 32.4138 36.3152 32.1394 36.6315 31.845C36.657 31.8213 36.6845 31.7999 36.7097 31.776C37.0365 31.4661 37.3387 31.1338 37.6261 30.7897C37.6817 30.7232 37.7375 30.6577 37.7914 30.5899C38.065 30.247 38.3194 29.8905 38.5516 29.5195C38.5922 29.4545 38.6291 29.3879 38.6684 29.3222C38.8959 28.942 39.1063 28.5519 39.2878 28.1474C39.2946 28.1323 39.303 28.1179 39.3097 28.1027C39.4924 27.6905 39.6426 27.2641 39.7746 26.8312C39.7993 26.7503 39.8251 26.6705 39.8479 26.5889C39.9662 26.1656 40.0599 25.7347 40.127 25.2966C40.1393 25.2157 40.1477 25.1344 40.1582 25.0532C40.2178 24.5941 40.2579 24.1305 40.2579 23.6603C40.2579 23.3544 40.243 23.0516 40.2184 22.7512C40.2104 22.6533 40.1963 22.5574 40.1858 22.4601C40.1639 22.2578 40.1395 22.0564 40.1068 21.8571C40.0883 21.7451 40.0658 21.6347 40.044 21.5237C40.0081 21.3407 39.9689 21.1591 39.924 20.9792C39.896 20.8668 39.8665 20.7554 39.8352 20.6443C39.7847 20.466 39.7291 20.2899 39.6699 20.115C39.6343 20.0099 39.5999 19.9043 39.5614 19.8005C39.4916 19.6127 39.4144 19.4287 39.3349 19.2455C39.2979 19.1606 39.2645 19.0742 39.2255 18.9904C39.1027 18.7264 38.9718 18.4667 38.8291 18.2134C38.8207 18.1986 38.811 18.1847 38.8026 18.17C38.667 17.9318 38.522 17.6992 38.3693 17.4716C38.3164 17.3929 38.2591 17.3176 38.2043 17.2402C38.0902 17.0791 37.9739 16.9197 37.8514 16.7646C37.7837 16.6789 37.7132 16.5959 37.643 16.5122C37.5239 16.3704 37.4023 16.2309 37.2762 16.0948C37.1999 16.0124 37.1227 15.931 37.044 15.8508C36.9127 15.7172 36.7775 15.5877 36.6395 15.4603C36.5603 15.3872 36.4822 15.3136 36.401 15.2426C36.2445 15.1062 36.0822 14.9758 35.9179 14.8476C35.8493 14.794 35.7831 14.7379 35.7131 14.6857C35.4751 14.5085 35.2306 14.3384 34.9778 14.1789C34.9587 14.1669 34.9384 14.1566 34.9194 14.1447C34.6854 13.999 34.4453 13.8613 34.1995 13.7315C34.1147 13.6867 34.0267 13.6467 33.9407 13.6039C33.8231 13.5453 33.7072 13.4842 33.587 13.4294C33.6975 13.461 33.8078 13.493 33.9166 13.5276C34.036 13.5656 34.1564 13.6013 34.2737 13.6431ZM33.4459 22.3063C32.9855 18.7811 30.947 15.6319 27.7979 13.6845C27.4906 13.4955 27.1775 13.3214 26.8643 13.1631C27.049 13.2261 27.2356 13.2846 27.4165 13.3562C27.7403 13.4833 28.0641 13.6274 28.3777 13.7847C32.2789 15.741 34.7017 19.598 34.7017 23.8513C34.7017 27.8764 32.5707 31.5168 29.0026 33.5877C28.7282 33.7478 28.4465 33.893 28.1586 34.031C27.8698 34.1682 27.5747 34.2942 27.2746 34.4084C27.0678 34.487 26.8547 34.5535 26.6427 34.6215C26.8938 34.5018 27.1447 34.3724 27.3909 34.2322C27.6941 34.0621 27.9974 33.8719 28.2923 33.6698C31.5818 31.4168 33.5452 27.7414 33.5452 23.8378C33.5453 23.3212 33.5117 22.8099 33.4459 22.3063ZM29.272 34.028C33.0015 31.863 35.228 28.0586 35.228 23.8512C35.228 19.4052 32.6952 15.3735 28.6182 13.3292C28.4596 13.2497 28.2979 13.174 28.1357 13.1017C28.2047 13.1208 28.2765 13.1336 28.3449 13.1545C28.6615 13.2511 28.9801 13.3648 29.3204 13.5019C30.1247 13.8281 30.8757 14.2355 31.565 14.7118C34.5519 16.7761 36.3815 20.1364 36.3815 23.8102C36.3815 28.0846 33.9267 31.9191 29.9762 33.8168C29.7131 33.9439 29.4458 34.064 29.1734 34.1712C29.0093 34.2353 28.8414 34.2905 28.6749 34.3491C28.8774 34.2475 29.0764 34.1418 29.272 34.028ZM30.7463 33.9958C31.1675 33.7675 31.5697 33.5173 31.9538 33.2474C32.0104 33.2076 32.0666 33.1678 32.1224 33.1273C32.5006 32.8518 32.8594 32.5572 33.1979 32.2443C33.2475 32.1986 33.2958 32.1522 33.3444 32.1057C33.6777 31.787 33.9911 31.4517 34.2817 31.0994C34.323 31.0494 34.3622 30.9987 34.4026 30.9482C34.689 30.5892 34.9547 30.2163 35.1953 29.8278C35.2265 29.7773 35.2553 29.7257 35.2857 29.6748C35.5229 29.2781 35.7385 28.8694 35.9259 28.4468C35.947 28.3993 35.9652 28.3508 35.9856 28.3029C36.1705 27.87 36.3324 27.4268 36.4629 26.9717C36.474 26.9331 36.4821 26.8936 36.4927 26.8548C36.6219 26.3859 36.7253 25.9082 36.7939 25.4205C36.7972 25.3971 36.7984 25.3731 36.8016 25.3497C36.8696 24.8441 36.9078 24.3307 36.9078 23.8101C36.9078 23.5184 36.8963 23.2287 36.8745 22.9413C36.8672 22.8451 36.8521 22.7507 36.8424 22.6549C36.8233 22.4652 36.8056 22.2752 36.7772 22.0877C36.7595 21.971 36.7334 21.8566 36.7121 21.7409C36.682 21.5769 36.6545 21.4122 36.6175 21.2504C36.5894 21.1275 36.5531 21.0074 36.5209 20.8857C36.4809 20.7344 36.4435 20.5822 36.3975 20.433C36.3591 20.3086 36.313 20.1873 36.2704 20.0644C36.2209 19.9213 36.1737 19.7774 36.1185 19.6368C36.0702 19.5135 36.0149 19.3935 35.9623 19.2721C35.9036 19.1363 35.8471 18.9998 35.7832 18.8665C35.7251 18.7452 35.6604 18.6275 35.5982 18.5084C35.5307 18.3792 35.465 18.2494 35.3925 18.1228C35.3255 18.0055 35.2524 17.8919 35.1813 17.7771C35.1049 17.6537 35.0297 17.5296 34.9485 17.409C34.8729 17.2966 34.7918 17.1878 34.7122 17.078C34.6271 16.9606 34.543 16.8426 34.4534 16.7284C34.3698 16.6217 34.2815 16.5188 34.1941 16.4149C34.0999 16.303 34.0063 16.1909 33.9078 16.0823C33.8166 15.9818 33.7213 15.8851 33.6264 15.7876C33.5242 15.6825 33.4223 15.5774 33.3159 15.4759C33.2169 15.3815 33.1142 15.2908 33.0118 15.1996C32.9016 15.1015 32.7913 15.0037 32.6771 14.9094C32.5712 14.8221 32.4621 14.7384 32.3529 14.6544C32.2347 14.5636 32.1162 14.4735 31.9942 14.3868C31.882 14.3071 31.767 14.2308 31.6515 14.1546C31.5255 14.0714 31.399 13.9892 31.2692 13.9105C31.1505 13.8385 31.0295 13.7697 30.9077 13.7014C30.7745 13.6267 30.6405 13.5533 30.5038 13.4833C30.3791 13.4195 30.2525 13.3587 30.125 13.2987C30.0651 13.2707 30.0075 13.2393 29.947 13.212C30.0503 13.2414 30.164 13.2643 30.2647 13.2963C30.2675 13.2972 30.2703 13.2978 30.2731 13.2987C34.9297 14.7766 38.0589 18.9724 38.0589 23.7387C38.0589 28.2713 35.2566 32.2789 30.9197 33.9484C30.8436 33.9777 30.7651 34.0023 30.6884 34.0311C30.7087 34.0209 30.7262 34.0068 30.7463 33.9958ZM34.5005 15.0393C34.4441 14.9919 34.3836 14.949 34.3261 14.9027C34.1576 14.7666 33.9877 14.6319 33.811 14.5046C33.7225 14.4409 33.6297 14.3826 33.5393 14.3213C33.3872 14.2181 33.235 14.1151 33.0774 14.0187C32.9745 13.9557 32.8682 13.8977 32.7632 13.8377C32.6111 13.7508 32.4586 13.6647 32.3019 13.5842C32.1891 13.5263 32.0736 13.4724 31.9584 13.4177C31.8778 13.3795 31.7997 13.3378 31.7179 13.3012C31.7885 13.321 31.8599 13.3395 31.9299 13.3607C32.0724 13.4036 32.2142 13.4478 32.354 13.4959C32.5075 13.5488 32.6584 13.606 32.8083 13.665C32.9443 13.7184 33.0799 13.7726 33.2129 13.8309C33.3603 13.8955 33.5046 13.9647 33.6482 14.0352C33.7773 14.0985 33.9062 14.162 34.0321 14.23C34.1717 14.3052 34.3077 14.3853 34.4433 14.4659C34.5662 14.5392 34.6892 14.6122 34.8087 14.6898C34.9404 14.7753 35.0682 14.8657 35.1956 14.9564C35.311 15.0385 35.4266 15.1199 35.5384 15.2061C35.662 15.3015 35.781 15.4017 35.8999 15.5018C36.0075 15.5923 36.1157 15.6819 36.2194 15.7761C36.3345 15.8809 36.4443 15.9905 36.5546 16.0997C36.6535 16.1977 36.7537 16.2943 36.8485 16.3958C36.9549 16.5093 37.055 16.6279 37.156 16.7458C37.2461 16.8507 37.3378 16.9545 37.4237 17.0627C37.5204 17.1846 37.6103 17.3113 37.7015 17.4371C37.7822 17.5484 37.8652 17.6583 37.9415 17.7726C38.0281 17.9024 38.1074 18.037 38.1883 18.1704C38.2593 18.2874 38.3329 18.4025 38.3993 18.5221C38.4757 18.6597 38.5438 18.8021 38.614 18.9431C38.6746 19.0647 38.7385 19.1844 38.7944 19.3082C38.8602 19.4541 38.9169 19.6042 38.976 19.7531C39.0255 19.8775 39.079 19.9999 39.1238 20.1264C39.179 20.2822 39.224 20.4422 39.2719 20.6011C39.3096 20.7256 39.3519 20.8483 39.3851 20.9746C39.4295 21.1442 39.4626 21.3178 39.4987 21.4904C39.5237 21.6097 39.5543 21.7272 39.5752 21.8478C39.6091 22.0436 39.6301 22.243 39.6531 22.4419C39.6647 22.5431 39.6829 22.6425 39.6916 22.7444C39.7176 23.0467 39.7314 23.352 39.7314 23.66C39.7314 23.9485 39.7184 24.2352 39.6946 24.5196C39.6869 24.6135 39.671 24.7056 39.6606 24.7989C39.6396 24.9883 39.6193 25.1778 39.588 25.3648C39.5695 25.4758 39.543 25.5848 39.5209 25.6949C39.4875 25.8614 39.4555 26.0286 39.4141 26.1928C39.3848 26.3093 39.3482 26.4235 39.315 26.5388C39.2704 26.6932 39.227 26.8478 39.1756 26.9997C39.1357 27.1175 39.0896 27.2326 39.0456 27.3487C38.9904 27.4945 38.9359 27.6405 38.8743 27.7837C38.8243 27.9002 38.7689 28.0142 38.7147 28.1289C38.6499 28.2665 38.5847 28.4041 38.5141 28.5389C38.4539 28.6535 38.3892 28.7658 38.325 28.8782C38.2506 29.0083 38.1757 29.138 38.096 29.2649C38.0265 29.3756 37.9535 29.4841 37.8799 29.5924C37.7965 29.7153 37.712 29.8372 37.6236 29.9566C37.5447 30.0633 37.4631 30.1678 37.3803 30.2716C37.2887 30.3864 37.1956 30.4999 37.0995 30.6111C37.0117 30.7126 36.9218 30.8125 36.8302 30.9108C36.7305 31.0181 36.6286 31.1231 36.5245 31.2264C36.429 31.3214 36.3319 31.415 36.2327 31.5066C36.1245 31.6065 36.0135 31.7036 35.9012 31.7994C35.7985 31.8868 35.6953 31.9733 35.5893 32.0571C35.4727 32.1492 35.3533 32.2376 35.2329 32.3253C35.1236 32.4047 35.0142 32.484 34.9018 32.5597C34.7774 32.6434 34.6495 32.7225 34.5213 32.8013C34.4062 32.8721 34.2917 32.9435 34.1738 33.0102C34.0402 33.0858 33.9029 33.1558 33.7656 33.226C33.647 33.2867 33.5293 33.3489 33.408 33.4055C33.2632 33.4732 33.1144 33.534 32.966 33.5956C32.8466 33.6451 32.7286 33.6971 32.607 33.7427C32.5873 33.7501 32.5664 33.7557 32.5466 33.763C32.5634 33.7539 32.5778 33.7421 32.5944 33.733C32.9973 33.5121 33.3814 33.2686 33.75 33.0074C33.8174 32.9598 33.884 32.9118 33.9501 32.8628C34.3119 32.595 34.6569 32.3103 34.9817 32.0065C35.0334 31.9581 35.0823 31.9077 35.1331 31.8584C35.4631 31.5381 35.7771 31.2041 36.0644 30.8496C36.0832 30.8264 36.0997 30.8016 36.1183 30.7783C36.4012 30.4235 36.6606 30.0522 36.8984 29.6674C36.9219 29.6295 36.9479 29.5932 36.9709 29.555C37.2024 29.1702 37.406 28.7698 37.5903 28.3596C37.6207 28.2918 37.6523 28.2251 37.6814 28.1568C37.8536 27.7524 38.0012 27.3373 38.1254 26.9128C38.1475 26.8374 38.1676 26.7617 38.1881 26.6857C38.3049 26.2531 38.3997 25.8132 38.4645 25.3641C38.4732 25.304 38.4779 25.2431 38.4856 25.1827C38.5463 24.7081 38.585 24.2275 38.585 23.7391C38.585 23.4399 38.5717 23.1432 38.5485 22.8487C38.5409 22.7517 38.5262 22.6565 38.516 22.5601C38.4955 22.3641 38.4744 22.1681 38.4439 21.9747C38.4258 21.8604 38.4014 21.7482 38.3798 21.6349C38.347 21.462 38.3138 21.2893 38.2731 21.119C38.2447 21.0004 38.2113 20.8838 38.1793 20.7666C38.1349 20.6045 38.0894 20.4429 38.0379 20.2834C37.9997 20.1652 37.958 20.0486 37.916 19.9319C37.8604 19.7773 37.8026 19.6239 37.7405 19.4723C37.6931 19.3564 37.6435 19.2418 37.5922 19.1277C37.5255 18.9793 37.4556 18.8328 37.3827 18.6874C37.3266 18.5757 37.2699 18.4648 37.2101 18.355C37.1319 18.2113 37.0494 18.0703 36.9651 17.9301C36.9016 17.8245 36.8386 17.7189 36.7719 17.6155C36.6809 17.4747 36.5845 17.3377 36.4873 17.201C36.4184 17.1041 36.3516 17.0063 36.2798 16.9116C36.1726 16.7704 36.0591 16.634 35.9453 16.4977C35.8751 16.4135 35.8079 16.3272 35.7353 16.245C35.5966 16.0882 35.4506 15.9377 35.3033 15.7882C35.2486 15.7326 35.1975 15.6741 35.1416 15.6196C34.9358 15.4188 34.722 15.2252 34.5005 15.0393ZM43.06 23.572C43.06 28.1477 40.0665 32.0293 35.8406 33.4375C35.8923 33.4107 35.9378 33.375 35.9891 33.3475C36.3481 33.1544 36.6954 32.9448 37.029 32.7168C37.0838 32.6793 37.1412 32.6455 37.1953 32.6071C37.5558 32.3512 37.8963 32.0723 38.2226 31.7787C38.2986 31.7103 38.3723 31.6407 38.4463 31.5704C38.7683 31.2647 39.0778 30.9469 39.3607 30.6071C39.3777 30.5868 39.3921 30.5646 39.409 30.5441C39.6781 30.2163 39.9232 29.8705 40.1535 29.5149C40.2065 29.433 40.2602 29.3523 40.3111 29.2691C40.5377 28.8981 40.7446 28.5156 40.9265 28.1199C40.9599 28.0473 40.9879 27.9727 41.0197 27.8994C41.1782 27.534 41.3171 27.16 41.4353 26.7774C41.4567 26.7077 41.4823 26.6402 41.5024 26.57C41.624 26.1464 41.716 25.7129 41.7855 25.2727C41.8009 25.1753 41.8127 25.0777 41.8255 24.9795C41.8845 24.5242 41.9252 24.0644 41.9252 23.5966C41.9252 23.2839 41.9084 22.9749 41.8825 22.6684C41.8745 22.573 41.8618 22.4793 41.8513 22.3846C41.8276 22.1708 41.799 21.9586 41.7632 21.7484C41.7455 21.6449 41.7266 21.5421 41.7062 21.4396C41.6642 21.2298 41.6152 21.0225 41.5612 20.817C41.538 20.7289 41.5175 20.6399 41.4922 20.5527C41.4092 20.266 41.3176 19.9828 41.2121 19.7058C41.2042 19.685 41.1943 19.6652 41.1863 19.6445C41.0867 19.3879 40.9766 19.1362 40.8585 18.8889C40.8177 18.8035 40.7734 18.7206 40.7304 18.6364C40.6372 18.4533 40.5396 18.2728 40.4363 18.0956C40.3846 18.0069 40.3323 17.9189 40.2781 17.8317C40.167 17.6527 40.0498 17.4778 39.9286 17.3055C39.8786 17.2344 39.8311 17.1618 39.7794 17.0919C39.6044 16.8552 39.4218 16.624 39.2284 16.4016C39.2053 16.375 39.1797 16.3504 39.1563 16.324C38.9836 16.1292 38.8038 15.9404 38.6174 15.7577C38.5494 15.6909 38.4786 15.6272 38.4089 15.5622C38.2577 15.4214 38.1033 15.2842 37.9441 15.1516C37.866 15.0864 37.7876 15.022 37.7076 14.9587C37.5369 14.8239 37.3611 14.695 37.182 14.5698C37.1136 14.5219 37.0474 14.4718 36.9778 14.4255C36.7282 14.2589 36.4723 14.1005 36.2082 13.9531C36.1676 13.9303 36.1246 13.9108 36.0837 13.8886C35.9013 13.7897 35.7183 13.6916 35.5296 13.6021C39.8878 14.9287 43.06 18.8967 43.06 23.572ZM7.29064 23.7472C7.29064 17.2923 12.6843 12.0405 19.3137 12.0405C20.1957 12.0405 21.1059 12.1447 22.0193 12.3494C22.2362 12.3979 22.4511 12.4504 22.6643 12.511C22.8854 12.573 23.0997 12.6476 23.3422 12.7317C23.5982 12.8202 23.849 12.9188 24.0967 13.024C24.3733 13.1406 24.6446 13.2677 24.9099 13.4038C25.2055 13.5554 25.4933 13.7186 25.7729 13.8928C26.0946 14.0925 26.401 14.3022 26.6836 14.5153C27.0532 14.795 27.403 15.0924 27.7323 15.4056C30.0375 17.5982 31.3361 20.5716 31.3361 23.7472C31.3361 27.2539 29.7304 30.5469 26.9313 32.7829C26.6435 33.0131 26.3443 33.2292 26.0431 33.4275C25.7398 33.6287 25.4232 33.8168 25.1035 33.989C24.7827 34.1621 24.4527 34.3203 24.1233 34.4614C23.7763 34.6095 23.4294 34.7397 23.0912 34.8487C22.6902 34.9779 22.3284 35.0779 21.9851 35.153C21.6186 35.2351 21.2305 35.3011 20.8306 35.3502C20.2581 35.4213 19.7759 35.4544 19.3134 35.4544C12.6843 35.4543 7.29064 30.2025 7.29064 23.7472Z" fill="#081219"/>
<path d="M26.4379 27.43L25.9528 27.2318C25.0667 29.2856 23.2529 30.7919 20.9769 31.3625C18.7072 31.933 16.3788 31.4707 14.5887 30.0934C13.6065 29.3387 12.8329 28.3488 12.3523 27.2318L11.8672 27.43C12.3817 28.6271 13.2102 29.687 14.2629 30.4957C15.645 31.5587 17.3257 32.1142 19.0655 32.1142C19.7419 32.1142 20.4275 32.0302 21.108 31.859C23.5448 31.2474 25.4871 29.633 26.4379 27.43Z" fill="#081219"/>
<path d="M15.834 24.9827C15.9795 24.9827 16.0972 24.8676 16.0972 24.726V17.8187C16.0972 17.677 15.9795 17.5624 15.834 17.5624C15.6885 17.5624 15.5709 17.677 15.5709 17.8187V24.726C15.5709 24.8676 15.6885 24.9827 15.834 24.9827Z" fill="#081219"/>
<path d="M22.4706 24.9827C22.616 24.9827 22.7337 24.8676 22.7337 24.726V17.8187C22.7337 17.677 22.616 17.5624 22.4706 17.5624C22.3251 17.5624 22.2074 17.677 22.2074 17.8187V24.726C22.2074 24.8676 22.3251 24.9827 22.4706 24.9827Z" fill="#081219"/>
</svg>
