<svg width="50" height="50" viewBox="0 0 50 50" fill="none" xmlns="http://www.w3.org/2000/svg">
<path d="M42.1358 24.4168L41.5572 24.3338C34.9063 23.3799 29.7083 16.4928 29.1969 7.95775C29.178 7.65202 28.9792 7.41608 28.7391 7.41608H28.6093C28.3693 7.41608 28.1704 7.65202 28.1516 7.95775C27.9254 11.7323 26.7799 15.1816 25.0001 17.9409C23.2204 15.1816 22.0748 11.7323 21.8487 7.95775C21.8303 7.65202 21.631 7.41608 21.3914 7.41608H21.2611C21.0215 7.41608 20.8222 7.65202 20.8039 7.95775C20.2922 16.4928 15.0937 23.38 8.4428 24.3338L7.86411 24.4168C7.63216 24.4506 7.45654 24.7008 7.45654 24.9997C7.45654 25.2974 7.63166 25.5482 7.86361 25.5826L8.4428 25.6662C15.0937 26.6201 20.2922 33.5078 20.8037 42.0422C20.822 42.348 21.0214 42.5839 21.2609 42.5839H21.3912C21.6309 42.5839 21.8301 42.348 21.8485 42.0422C22.0746 38.2679 23.2202 34.8186 24.9999 32.0593C26.7797 34.8186 27.9252 38.2679 28.1514 42.0422C28.1702 42.348 28.3691 42.5839 28.6091 42.5839H28.7389C28.979 42.5839 29.1778 42.348 29.1967 42.0422C29.7081 33.5078 34.9061 26.62 41.557 25.6662L42.1357 25.5826C42.3677 25.5482 42.5433 25.2974 42.5433 24.9997C42.5434 24.7008 42.3679 24.4506 42.1358 24.4168ZM25.0003 30.0582C23.2269 27.719 20.9946 25.9497 18.4832 24.9997C20.9945 24.05 23.2268 22.2808 25.0001 19.9417C26.7734 22.2808 29.0057 24.05 31.5167 24.9997C29.0059 25.9497 26.7735 27.7191 25.0003 30.0582ZM15.7911 24.3338L15.2124 24.4168C14.9804 24.4506 14.8048 24.7008 14.8048 24.9997C14.8048 25.2974 14.9799 25.5482 15.2119 25.5826L15.7911 25.6662C19.1308 26.1453 22.1032 28.122 24.3008 31.051C22.9438 33.1078 21.9146 35.5278 21.3263 38.1833C19.9276 31.8714 16.0629 26.8639 11.1354 24.9997C16.0629 23.1361 19.9276 18.1291 21.3263 11.8167C21.9146 14.4725 22.9438 16.8925 24.3008 18.9493C22.1031 21.8781 19.1307 23.8548 15.7911 24.3338ZM34.2094 25.6662L34.7881 25.5826C35.0201 25.5482 35.1957 25.2974 35.1957 24.9997C35.1957 24.7008 35.0201 24.4506 34.7881 24.4168L34.2094 24.3338C30.8696 23.8547 27.8973 21.8781 25.6995 18.9494C27.0565 16.8926 28.0859 14.4726 28.6746 11.8167C30.0728 18.1291 33.9371 23.1361 38.8646 24.9997C33.9371 26.8639 30.0728 31.8703 28.6746 38.1833C28.0859 35.5273 27.0566 33.1073 25.6996 31.0506C27.8973 28.1219 30.8696 26.1451 34.2094 25.6662Z" fill="#081219"/>
</svg>
