<svg width="50" height="50" viewBox="0 0 50 50" fill="none" xmlns="http://www.w3.org/2000/svg">
<path d="M23.8823 42.5948C23.856 42.5948 23.8302 42.5938 23.8039 42.5918C23.3058 42.5598 22.8866 42.2224 22.7351 41.7341L21.5436 37.8895C21.5144 37.7955 21.4438 37.7625 21.4039 37.7514C21.363 37.7364 21.2865 37.7304 21.2154 37.7955L18.2553 40.4458C17.8785 40.7842 17.3491 40.8472 16.908 40.609C16.4658 40.3718 16.2161 39.8884 16.271 39.3789L16.704 35.3692C16.7147 35.2701 16.6631 35.2111 16.6319 35.184C16.5998 35.1561 16.5336 35.116 16.4406 35.145L12.6883 36.3291C12.2101 36.4822 11.7032 36.3171 11.3931 35.9157C11.0834 35.5133 11.0463 34.9669 11.2981 34.5245L13.2809 31.0423C13.3296 30.9572 13.3058 30.8812 13.2872 30.8421C13.2692 30.8051 13.2244 30.739 13.129 30.727L9.23209 30.2406C8.73686 30.1795 8.33667 29.8182 8.21292 29.3217C8.08876 28.8253 8.27036 28.3109 8.67603 28.0116L11.8659 25.6595C11.9438 25.6024 11.9525 25.5223 11.951 25.4803C11.949 25.4373 11.934 25.3592 11.8517 25.3081L8.48366 23.2343C8.05565 22.9711 7.83317 22.4741 7.91644 21.9681C8.00021 21.4626 8.36978 21.0688 8.85812 20.9652L12.7029 20.1494C12.7969 20.1294 12.8364 20.0604 12.8519 20.0213C12.867 19.9818 12.884 19.9038 12.8291 19.8231L10.5731 16.5207C10.2863 16.1013 10.28 15.5543 10.556 15.1274C10.8325 14.7 11.3283 14.4953 11.8132 14.6049L15.6483 15.4666C15.7403 15.4861 15.805 15.4406 15.8347 15.4116C15.8646 15.3816 15.9112 15.3175 15.8928 15.2204L15.1385 11.2608C15.043 10.7569 15.2535 10.2544 15.6751 9.98017C16.0977 9.70641 16.629 9.72445 17.0297 10.0293L20.1928 12.4194C20.2693 12.4774 20.3462 12.4625 20.3847 12.4474C20.4232 12.4323 20.4913 12.3934 20.5127 12.2972L21.3912 8.36416C21.5032 7.8642 21.8942 7.49338 22.3879 7.41877C22.8788 7.34169 23.3593 7.58388 23.6068 8.02932L25.5501 11.5355C25.5978 11.6211 25.6737 11.6386 25.7146 11.6411C25.7526 11.644 25.8325 11.6371 25.8909 11.5575L28.2496 8.33208C28.5495 7.92221 29.0491 7.74705 29.5331 7.88419C30.0132 8.02235 30.356 8.44165 30.4057 8.95217L30.7933 12.9673C30.8031 13.0654 30.8654 13.113 30.9024 13.1324C30.9365 13.1524 31.0115 13.1785 31.0961 13.13L34.527 11.1692C34.9613 10.9199 35.4931 10.9695 35.8778 11.2978C36.2615 11.6251 36.4085 12.1506 36.2517 12.637L35.0169 16.4675C34.9866 16.561 35.0256 16.6306 35.051 16.6642C35.0763 16.6972 35.1376 16.7487 35.2292 16.7428L39.1402 16.386C39.63 16.3405 40.1014 16.6077 40.3224 17.0676C40.5435 17.5269 40.4704 18.069 40.1344 18.4478L37.4914 21.431C37.4262 21.5041 37.4339 21.5836 37.4436 21.6247C37.4543 21.6657 37.4845 21.7393 37.5751 21.7709L41.2883 23.0796C41.7606 23.2463 42.0791 23.6846 42.0996 24.1966C42.12 24.709 41.8386 25.1729 41.3819 25.3791L37.7866 26.9986C37.6979 27.0387 37.6726 27.1148 37.6658 27.1568C37.659 27.1978 37.658 27.2779 37.7291 27.345L40.6039 30.0934C40.9691 30.4427 41.086 30.9772 40.9019 31.4536C40.7188 31.927 40.2815 32.2323 39.7859 32.2323C39.783 32.2323 39.78 32.2323 39.7781 32.2323L35.8525 32.2093C35.7571 32.2093 35.7036 32.2683 35.6811 32.3034C35.6578 32.3384 35.6256 32.4115 35.6626 32.5025L37.2013 36.2129C37.397 36.6853 37.2928 37.2218 36.9364 37.5811C36.579 37.9384 36.0551 38.0336 35.6012 37.8224L32.0233 36.1609C31.9395 36.1189 31.8655 36.1529 31.8304 36.1739C31.7953 36.197 31.7369 36.25 31.735 36.3491L31.6717 40.3827C31.6629 40.8962 31.3551 41.3425 30.8877 41.5217C30.4193 41.6998 29.9042 41.5667 29.5721 41.1834L26.9631 38.1697C26.8988 38.0966 26.8209 38.0976 26.78 38.1016C26.7392 38.1077 26.6652 38.1316 26.6243 38.2207L24.9697 41.88C24.7704 42.3205 24.3493 42.5948 23.8823 42.5948ZM21.3478 36.7185C21.4559 36.7185 21.565 36.7334 21.6721 36.7635C22.0636 36.8766 22.3709 37.1808 22.494 37.5792L23.6855 41.4237C23.722 41.5428 23.8151 41.5659 23.8671 41.5699C23.9139 41.5728 24.0146 41.5608 24.0653 41.4478L25.7204 37.7885C25.8908 37.4102 26.2336 37.1479 26.6348 37.0878C27.0341 37.0248 27.4373 37.1769 27.7081 37.4892L30.317 40.5029C30.3979 40.597 30.4923 40.58 30.541 40.56C30.5897 40.542 30.6724 40.4919 30.6744 40.3658L30.7377 36.3322C30.7445 35.9138 30.9539 35.5315 31.2967 35.3083C31.6404 35.085 32.0651 35.0541 32.4341 35.2272L36.0121 36.8887C36.1241 36.9418 36.203 36.8857 36.239 36.8477C36.276 36.8107 36.3315 36.7306 36.2837 36.6155L34.745 32.9041C34.5863 32.5187 34.6252 32.0823 34.8502 31.735C35.0752 31.3878 35.4939 31.2056 35.8581 31.1846L39.7837 31.2076C39.7837 31.2076 39.7847 31.2076 39.7857 31.2076C39.9055 31.2076 39.9551 31.1245 39.9747 31.0755C39.9941 31.0255 40.0127 30.9293 39.924 30.8443L37.0492 28.0958C36.7521 27.8116 36.6149 27.3972 36.683 26.9858C36.7502 26.5744 37.0132 26.2281 37.3852 26.06L40.9807 24.4405C41.0927 24.3905 41.1053 24.2929 41.1034 24.2393C41.1014 24.1857 41.08 24.0902 40.965 24.0496L37.2518 22.7409C36.868 22.6053 36.5778 22.2829 36.4775 21.8786C36.3772 21.4748 36.4804 21.0493 36.754 20.7405L39.3961 17.7578C39.4789 17.6657 39.4516 17.5711 39.4282 17.523C39.4058 17.475 39.3522 17.401 39.2276 17.4069L35.3165 17.7637C34.9172 17.8062 34.5218 17.6281 34.2686 17.3007C34.0164 16.9735 33.9424 16.5416 34.07 16.1456L35.3049 12.3147C35.3429 12.1961 35.2815 12.1209 35.2415 12.0869C35.2006 12.0519 35.113 12.0043 35.0117 12.0649L31.5808 14.0257C31.2254 14.2274 30.7988 14.2333 30.4395 14.0406C30.0792 13.8469 29.8405 13.4832 29.8006 13.0683L29.413 9.05312C29.4004 8.92849 29.3147 8.88596 29.264 8.87151C29.2134 8.855 29.1189 8.84803 29.0458 8.94755L26.6872 12.173C26.4447 12.5068 26.0737 12.6924 25.651 12.664C25.2459 12.6374 24.8841 12.4053 24.683 12.0428L22.7397 8.53666C22.6797 8.42802 22.5848 8.42351 22.5322 8.43253C22.4806 8.44052 22.39 8.47158 22.3628 8.59365L21.4844 12.5262C21.3938 12.9331 21.1124 13.2624 20.7315 13.4081C20.3522 13.5527 19.9291 13.4926 19.6014 13.2449L16.4386 10.8544C16.3416 10.7819 16.2531 10.818 16.2087 10.8459C16.1644 10.8745 16.0938 10.941 16.1173 11.0641L16.8715 15.0238C16.9494 15.4336 16.8223 15.8525 16.5321 16.1443C16.2419 16.4361 15.8333 16.5577 15.4351 16.4676L11.6 15.6058C11.4821 15.5793 11.4154 15.6499 11.3862 15.6949C11.3575 15.7394 11.3195 15.8295 11.3892 15.932L13.6451 19.2341C13.8784 19.5754 13.9285 20.0108 13.7786 20.3991C13.6291 20.7869 13.3024 21.0687 12.9045 21.1532L9.05966 21.969C8.94089 21.994 8.90868 22.0866 8.89991 22.1396C8.89113 22.1927 8.89163 22.2908 8.99584 22.3553L12.3639 24.4291C12.7125 24.6433 12.9302 25.0206 12.9473 25.4371C12.9638 25.8544 12.7773 26.2488 12.4472 26.492L9.25732 28.8441C9.15849 28.9172 9.16577 29.0153 9.17843 29.0674C9.1916 29.1194 9.23099 29.2085 9.35175 29.2235L13.2491 29.7099C13.6523 29.7599 14.0004 30.0132 14.1806 30.3865C14.3613 30.7608 14.3467 31.1993 14.1416 31.5596L12.1589 35.0427C12.0975 35.1498 12.1423 35.2369 12.1749 35.2789C12.207 35.3199 12.2786 35.385 12.395 35.35L16.1478 34.165C16.5383 34.0419 16.9556 34.1289 17.2682 34.3941C17.5803 34.6604 17.74 35.0667 17.6952 35.4821L17.2623 39.4917C17.2486 39.6158 17.3241 39.6759 17.3704 39.7009C17.4171 39.7269 17.5072 39.7559 17.5997 39.6729L20.5593 37.0226C20.7815 36.8235 21.0615 36.7185 21.3478 36.7185Z" fill="#081219"/>
<path d="M25.0135 34.033C20.1719 34.033 16.2332 29.9854 16.2332 25.0088C16.2332 20.0328 20.1719 15.9846 25.0135 15.9846C29.8545 15.9846 33.7928 20.0328 33.7928 25.0088C33.7928 29.9854 29.8545 34.033 25.0135 34.033ZM25.0135 17.3579C20.9087 17.3579 17.5693 20.79 17.5693 25.0088C17.5693 29.2276 20.9087 32.6597 25.0135 32.6597C29.1173 32.6597 32.4567 29.2276 32.4567 25.0088C32.4567 20.79 29.1173 17.3579 25.0135 17.3579Z" fill="#081219"/>
<path d="M25.0134 30.9893C22.9625 30.9893 21.0878 29.9173 19.9981 28.1207C19.8028 27.7994 19.8982 27.3751 20.2114 27.1748C20.524 26.9717 20.9368 27.0707 21.1317 27.394C21.9761 28.7853 23.4271 29.6161 25.0135 29.6161C26.5989 29.6161 28.05 28.7854 28.8943 27.394C29.0901 27.0708 29.5011 26.9717 29.8147 27.1748C30.1283 27.375 30.2237 27.7994 30.028 28.1207C28.938 29.9173 27.0633 30.9893 25.0134 30.9893Z" fill="#081219"/>
<path d="M22.2799 24.9748C21.5086 24.9748 20.9268 24.0344 20.9268 22.7873C20.9268 21.5396 21.5086 20.5988 22.2799 20.5988C23.0512 20.5988 23.6325 21.5396 23.6325 22.7873C23.6325 24.0344 23.0512 24.9748 22.2799 24.9748ZM22.2701 21.6223C22.1889 21.6568 21.9239 22.0661 21.9239 22.7873C21.9239 23.5079 22.1888 23.9178 22.2891 23.9513C22.3708 23.9173 22.6353 23.5074 22.6353 22.7873C22.6353 22.0672 22.3709 21.6568 22.2701 21.6223Z" fill="#081219"/>
<path d="M27.7461 24.9748C26.9748 24.9748 26.3934 24.0344 26.3934 22.7873C26.3934 21.5396 26.9748 20.5988 27.7461 20.5988C28.5173 20.5988 29.0997 21.5396 29.0997 22.7873C29.0997 24.0344 28.5173 24.9748 27.7461 24.9748ZM27.7363 21.6228C27.6554 21.6568 27.3906 22.0672 27.3906 22.7873C27.3906 23.5069 27.6554 23.9173 27.7557 23.9518C27.8375 23.9178 28.1025 23.5084 28.1025 22.7873C28.1025 22.0661 27.8376 21.6568 27.7363 21.6228Z" fill="#081219"/>
</svg>
