<svg width="50" height="50" viewBox="0 0 50 50" fill="none" xmlns="http://www.w3.org/2000/svg">
<path d="M34.2629 42.6819C31.3311 42.6819 28.1352 41.5959 24.9999 39.5381C19.0429 43.4466 12.925 43.7369 9.34044 40.2477C5.75749 36.7585 6.05349 30.8011 10.0698 24.9998C6.05307 19.1985 5.75749 13.2416 9.34044 9.75295C12.9234 6.26429 19.0408 6.55158 24.9999 10.4626C30.957 6.55353 37.0774 6.26429 40.6599 9.75295C44.2424 13.2416 43.9473 19.199 39.9311 24.9998C43.9463 30.8011 44.2423 36.7585 40.6599 40.2477C39.0234 41.8402 36.8112 42.6819 34.2629 42.6819ZM24.9999 38.404C25.1048 38.404 25.2096 38.435 25.3001 38.496C28.3542 40.5639 31.4535 41.6569 34.2629 41.6569C36.5264 41.6569 38.4805 40.9193 39.9156 39.523C43.1804 36.3431 42.7661 30.758 38.8609 25.292C38.7344 25.1169 38.7344 24.8832 38.8609 24.707C42.7661 19.2421 43.1803 13.657 39.9156 10.4776C36.6498 7.29814 30.9128 7.70207 25.3 11.5046C25.1201 11.6271 24.8796 11.6262 24.6992 11.5046C19.0865 7.70166 13.3505 7.29927 10.0846 10.4776C6.8198 13.6565 7.23412 19.2421 11.1398 24.707C11.2652 24.8832 11.2652 25.1169 11.1398 25.292C7.23412 30.758 6.8198 36.3441 10.0846 39.523C13.3495 42.7009 19.0865 42.2985 24.6992 38.496C24.7897 38.435 24.8945 38.404 24.9999 38.404Z" fill="#081219"/>
<path d="M24.913 32.6597C23.0283 32.6597 21.2545 32.0622 19.784 30.9312C18.6609 30.0674 17.7775 28.9374 17.229 27.6612C17.117 27.4 17.2435 27.0997 17.5118 26.9906C17.7785 26.8816 18.0885 27.0047 18.2005 27.2649C18.6796 28.3819 19.453 29.3708 20.4363 30.1265C22.2193 31.4978 24.5882 31.9642 26.8225 31.3957C29.0995 30.8252 30.9127 29.3188 31.7999 27.2649C31.9119 27.0047 32.2224 26.8805 32.4886 26.9906C32.7569 27.1007 32.8834 27.401 32.7703 27.6612C31.7547 30.0144 29.6834 31.737 27.0867 32.3885C26.3743 32.5687 25.6434 32.6597 24.913 32.6597Z" fill="#081219"/>
<path d="M21.9448 25.272C21.6538 25.272 21.4185 25.0429 21.4185 24.7596V17.8522C21.4185 17.569 21.6538 17.3398 21.9448 17.3398C22.2357 17.3398 22.4711 17.569 22.4711 17.8522V24.7596C22.4711 25.0429 22.2356 25.272 21.9448 25.272Z" fill="#081219"/>
<path d="M28.5812 25.272C28.2903 25.272 28.0549 25.0429 28.0549 24.7596V17.8522C28.0549 17.569 28.2903 17.3398 28.5812 17.3398C28.8722 17.3398 29.1076 17.569 29.1076 17.8522V24.7596C29.1076 25.0429 28.8722 25.272 28.5812 25.272Z" fill="#081219"/>
</svg>
