<svg width="50" height="50" viewBox="0 0 50 50" fill="none" xmlns="http://www.w3.org/2000/svg">
<path d="M40.3175 8.07703H40.2876H40.2577C40.1181 8.09697 40.0084 8.20667 39.9984 8.34628L39.7092 11.318C39.5497 12.9834 38.2234 14.2997 36.558 14.4693L33.5862 14.7585C31.6416 14.9479 30.0959 16.5036 29.8965 18.4482L29.6073 21.42C29.4477 23.0853 28.1214 24.4017 26.456 24.5712L23.4843 24.8604C21.5397 25.0499 19.994 26.6056 19.7945 28.5502L19.5054 31.5219C19.3458 33.1873 18.0195 34.5136 16.3541 34.6732L13.3824 34.9623C11.4378 35.1518 9.88208 36.7075 9.69261 38.6521L9.40341 41.6238C9.39344 41.7834 9.51311 41.933 9.69261 41.9529C9.85216 41.9529 9.97183 41.8333 9.99178 41.6837L10.281 38.7119C10.4405 37.0466 11.7668 35.7302 13.4322 35.5607L16.404 35.2715C18.3486 35.082 19.9042 33.5263 20.0937 31.5817L20.3829 28.61C20.5425 26.9446 21.8688 25.6283 23.5342 25.4587L26.5059 25.1695C28.4505 24.9801 29.9962 23.4244 30.1957 21.4798L30.4849 18.5081C30.6444 16.8427 31.9707 15.5164 33.6361 15.3568L36.6078 15.0676C38.5524 14.8781 40.1081 13.3225 40.2976 11.3779L40.5868 8.41608C40.6067 8.25653 40.4871 8.10694 40.3175 8.087V8.07703Z" fill="black"/>
</svg>
