<svg width="50" height="50" viewBox="0 0 50 50" fill="none" xmlns="http://www.w3.org/2000/svg">
<path d="M41.1324 34.3166C40.907 34.1014 40.3022 33.5069 38.9288 32.1233L38.5189 31.7133C38.5189 31.7133 38.4574 31.6621 38.4471 31.6518C34.9214 29.6122 32.4718 28.1875 30.7396 26.9474C29.8685 24.8565 33.4762 22.6529 41.0197 18.297L41.1427 18.2252C41.1427 18.2252 41.2144 18.1535 41.2349 18.1022C41.3169 18.0202 41.3272 17.8972 41.2759 17.7947L41.1632 17.6102C41.1324 17.5488 41.0709 17.5078 41.0094 17.4873C40.9684 17.4873 40.9275 17.477 40.8865 17.4873L38.3856 14.8429C38.3036 14.7609 38.1704 14.7404 38.0679 14.8019L37.9962 14.8429C32.564 17.9792 29.315 19.8139 27.2241 20.1008C26.8142 17.9587 26.7834 14.6175 26.7834 9.40055C26.7834 9.32881 26.7527 9.25706 26.6912 9.20582L23.6471 6.61274C23.5754 6.55125 23.4626 6.53075 23.3704 6.57174C23.2781 6.61274 23.2166 6.70499 23.2166 6.80748V7.04321C23.2166 14.6379 23.1347 18.9837 21.5153 19.9163C19.8856 20.8593 16.2266 18.8299 9.34933 14.8634L9.25709 14.8122C9.19559 14.7814 9.12385 14.7712 9.06235 14.7814C9.00086 14.8019 8.93936 14.8429 8.90861 14.9044L8.74462 15.1914C8.68313 15.2939 8.70363 15.4271 8.79587 15.5091L8.85737 15.5706C9.16485 15.8576 10.0873 16.7801 11.4607 18.174C11.4607 18.174 11.5017 18.2047 11.5119 18.215C14.9557 20.2033 17.5283 21.71 19.2502 22.9399C20.1316 25.041 16.9133 27.0089 8.97011 31.5903L8.84712 31.6621C8.77537 31.703 8.73438 31.7645 8.72413 31.8465C8.71388 31.9285 8.73438 32.0003 8.79587 32.0618L11.4607 34.8598L11.5222 34.9726C11.5222 34.9726 11.5939 35.0546 11.6554 35.0751C11.7374 35.1366 11.8502 35.1468 11.9424 35.0956L12.0142 35.0546C17.4463 31.9183 20.6953 30.0837 22.7862 29.7864C23.1961 31.9285 23.2269 35.2698 23.2371 40.4867C23.2371 40.5584 23.2679 40.6302 23.3294 40.6814L25.984 42.967V43.2028C25.984 43.3463 26.0967 43.459 26.2402 43.459H26.4554C26.5784 43.459 26.6912 43.3668 26.7117 43.2438C26.7527 43.2028 26.7732 43.1413 26.7732 43.0798V42.844C26.7732 35.2493 26.8552 30.9036 28.4745 29.9709C30.0939 29.028 33.7632 31.0573 40.6405 35.0238L40.7327 35.0751C40.7327 35.0751 40.8455 35.1058 40.907 35.0853C40.9377 35.0853 40.9684 35.0853 40.9992 35.0853C41.0607 35.0648 41.1222 35.0238 41.1529 34.9623L41.2657 34.7778C41.2657 34.7778 41.2862 34.6753 41.2759 34.6139C41.2964 34.5319 41.2759 34.4396 41.1939 34.3781L41.1324 34.3166ZM24.2416 29.9197C25.8405 30.8421 25.9635 34.9111 25.9737 41.9934L23.9648 40.2612C23.9648 35.1878 23.9341 31.8875 23.5139 29.6942C23.7906 29.7249 24.0366 29.7967 24.2416 29.9197ZM23.2474 28.9357C22.5607 28.9357 21.7407 29.1305 20.6851 29.5404C22.243 28.29 22.8784 27.3163 22.8784 26.2812C22.8784 25.246 22.2532 24.2621 20.6851 23.0219C22.5504 23.7496 23.7086 23.8111 24.6106 23.2884C25.5125 22.7656 26.0455 21.7407 26.3427 19.7626C26.6399 21.7407 27.1729 22.7759 28.0748 23.2884C28.9768 23.8111 30.1349 23.7496 32.0003 23.0219C30.4322 24.2723 29.807 25.246 29.807 26.2914C29.807 27.4393 30.6679 28.5155 32.1643 29.6839C30.1759 28.8845 29.0178 28.8127 28.1056 29.3355C27.1319 29.8992 26.6399 31.1598 26.3734 33.015C26.107 31.1393 25.6047 29.8582 24.6106 29.2945C24.2211 29.069 23.7804 28.9562 23.2474 28.9562V28.9357ZM25.9737 9.57479C25.9737 17.518 25.8917 21.71 24.2416 22.6529C22.5914 23.6061 18.8607 21.546 11.8809 17.518C11.8604 17.5078 11.8399 17.4975 11.8092 17.4975C11.5324 17.2105 11.2352 16.9133 10.9482 16.6263C17.0056 20.0906 20.0906 21.6075 21.8945 20.5621C23.8214 19.4449 23.9546 15.6321 23.9648 7.85291L25.984 9.58504L25.9737 9.57479ZM20.1214 23.5139C21.5153 24.6105 22.1405 25.4817 22.1405 26.2812C22.1405 28.1773 18.6147 30.3091 11.8604 34.2141L9.73881 31.9798C16.9543 27.8083 20.2546 25.7789 20.1214 23.5139ZM28.4335 22.6529C27.9313 22.3659 27.5726 21.7817 27.3164 20.8285C29.4687 20.5313 32.7075 18.7274 38.0884 15.6219L40.21 17.8562C33.6094 21.6587 30.0632 23.5958 28.4335 22.6529ZM38.0371 32.2565L38.4061 32.6255C38.5701 32.7895 38.7136 32.933 38.8571 33.0765C35.936 31.3648 33.7427 30.0222 32.3488 28.8845C33.8862 29.8479 35.7618 30.9446 38.0371 32.2565Z" fill="black"/>
</svg>
