<svg width="50" height="50" viewBox="0 0 50 50" fill="none" xmlns="http://www.w3.org/2000/svg">
<path d="M41.8142 14.1385H39.6122C39.5423 13.2316 39.3335 12.3234 38.957 11.4146H40.7055C40.9062 11.4146 41.0691 11.2424 41.0691 11.0302C41.0691 10.818 40.9062 10.6459 40.7055 10.6459H38.602C38.0102 9.51382 37.1398 8.38128 35.9251 7.24975C35.7745 7.10964 35.5454 7.1241 35.4119 7.28378C35.2794 7.44295 35.2935 7.68617 35.4441 7.82628C36.455 8.76808 37.1925 9.70723 37.737 10.6459H35.2788C34.837 9.52694 34.1907 8.40741 33.2901 7.2888C33.1594 7.12768 32.9303 7.10811 32.7779 7.24524C32.6255 7.38289 32.6065 7.62559 32.7372 7.78723C33.5058 8.74205 34.0655 9.69411 34.4764 10.6459H31.9637C31.6716 9.54642 31.2484 8.44677 30.659 7.34835C30.5585 7.16315 30.3332 7.10063 30.1637 7.20363C29.9885 7.30828 29.9271 7.54299 30.0264 7.72758C30.5497 8.70259 30.9299 9.67453 31.2068 10.6458H28.6578C28.5136 9.57389 28.3072 8.50242 28.0201 7.43281C27.9652 7.22915 27.7673 7.10954 27.5713 7.16807C27.3782 7.22608 27.2664 7.43885 27.3214 7.64302C27.5889 8.64017 27.7645 9.64225 27.9034 10.6458H25.3634V7.53796C25.3634 7.3258 25.2005 7.15361 24.9998 7.15361C24.7991 7.15361 24.6363 7.3258 24.6363 7.53796V10.6458H22.0966C22.2354 9.64225 22.4112 8.64017 22.6788 7.64302C22.7336 7.43885 22.6215 7.22618 22.4283 7.16807C22.2357 7.11046 22.034 7.22915 21.9791 7.43281C21.6921 8.50232 21.4859 9.57378 21.3418 10.6458H18.7934C19.0703 9.67453 19.4505 8.70259 19.9738 7.72758C20.0728 7.54288 20.0117 7.30817 19.837 7.20363C19.6623 7.0995 19.4403 7.16509 19.3414 7.34825C18.7519 8.44667 18.3286 9.54631 18.0366 10.6458H15.5239C15.9349 9.69411 16.4947 8.74205 17.2635 7.78723C17.3937 7.62559 17.3752 7.38289 17.2223 7.24524C17.0694 7.10862 16.8403 7.12809 16.7096 7.2888C15.8092 8.40731 15.1632 9.52684 14.7214 10.6458H12.2632C12.8076 9.70713 13.5451 8.76798 14.5561 7.82617C14.7066 7.68607 14.7213 7.44285 14.5882 7.28368C14.4557 7.12512 14.2256 7.10954 14.0751 7.24975C12.8605 8.38128 11.99 9.51382 11.3982 10.6459H9.29423C9.09353 10.6459 8.93065 10.818 8.93065 11.0302C8.93065 11.2424 9.09353 11.4146 9.29423 11.4146H11.0435C10.6669 12.3234 10.458 13.2316 10.3881 14.1385H8.18547C7.98478 14.1385 7.8219 14.3107 7.8219 14.5229C7.8219 14.735 7.98478 14.9072 8.18547 14.9072H10.3622C10.3666 15.8168 10.4978 16.7249 10.7237 17.6307H8.77155C8.57086 17.6307 8.40798 17.8028 8.40798 18.015C8.40798 18.2272 8.57086 18.3994 8.77155 18.3994H10.9365C11.2148 19.3102 11.5777 20.2184 11.9913 21.1233H10.4872C10.2865 21.1233 10.1237 21.2955 10.1237 21.5077C10.1237 21.7198 10.2865 21.892 10.4872 21.892H12.3529C12.7966 22.8038 13.2812 23.7119 13.7709 24.6155H12.7676C12.5669 24.6155 12.404 24.7876 12.404 24.9998C12.404 25.212 12.5669 25.3842 12.7676 25.3842H14.1882C14.6859 26.2993 15.1735 27.2066 15.6236 28.1076H14.0297C13.829 28.1076 13.6661 28.2798 13.6661 28.492C13.6661 28.7041 13.829 28.8763 14.0297 28.8763H15.9959C16.4274 29.7897 16.8107 30.6976 17.1017 31.6008H15.7454C15.5447 31.6008 15.3818 31.773 15.3818 31.9851C15.3818 32.1973 15.5447 32.3695 15.7454 32.3695H17.3199C17.5606 33.2805 17.6984 34.188 17.7005 35.0929H16.3309C16.1302 35.0929 15.9673 35.2651 15.9673 35.4773C15.9673 35.6894 16.1302 35.8616 16.3309 35.8616H17.6794C17.6 36.7705 17.3511 37.6778 16.9339 38.5851H15.2221C15.0214 38.5851 14.8585 38.7572 14.8585 38.9694C14.8585 39.1816 15.0214 39.3538 15.2221 39.3538H16.5355C15.9912 40.2924 15.2535 41.2315 14.2426 42.1733C14.092 42.3134 14.0774 42.5567 14.2104 42.7158C14.2824 42.8019 14.3822 42.846 14.483 42.846C14.5688 42.846 14.6545 42.814 14.7235 42.7499C15.9382 41.6183 16.8088 40.4858 17.4006 39.3538H18.5749C18.1639 40.3054 17.6041 41.2576 16.8353 42.2124C16.7051 42.3745 16.7236 42.6167 16.8765 42.7539C16.9452 42.8159 17.0289 42.8459 17.1123 42.8459C17.2151 42.8459 17.3173 42.7999 17.3892 42.7108C18.2897 41.5922 18.9358 40.4727 19.3775 39.3538H20.6057C20.3288 40.3248 19.9486 41.2966 19.4253 42.2714C19.3263 42.4566 19.3874 42.6908 19.5621 42.7959C19.6189 42.8299 19.6805 42.8459 19.7411 42.8459C19.868 42.8459 19.991 42.7758 20.0578 42.6517C20.6475 41.5531 21.0708 40.4532 21.3629 39.3537H22.6033C22.4645 40.3572 22.2887 41.3592 22.0211 42.3564C21.9663 42.5606 22.0784 42.7738 22.2716 42.8308C22.3047 42.8409 22.3383 42.8458 22.3709 42.8458C22.5296 42.8458 22.6754 42.7357 22.7208 42.5665C23.0077 41.497 23.214 40.4255 23.358 39.3536H24.6361V42.4613C24.6361 42.6735 24.7989 42.8457 24.9996 42.8457C25.2003 42.8457 25.3632 42.6735 25.3632 42.4613V39.3536H26.6422C26.7864 40.4254 26.9926 41.4969 27.2796 42.5665C27.325 42.7356 27.4699 42.8458 27.629 42.8458C27.6612 42.8458 27.6953 42.8408 27.7284 42.8308C27.9215 42.7738 28.0333 42.5606 27.9783 42.3564C27.7108 41.3592 27.535 40.3572 27.3963 39.3537H28.6371C28.9292 40.4532 29.3525 41.5531 29.942 42.6517C30.0092 42.7758 30.1323 42.8459 30.2583 42.8459C30.3198 42.8459 30.3814 42.8299 30.4381 42.7959C30.6123 42.6908 30.6739 42.4565 30.5744 42.2714C30.0512 41.2966 29.6709 40.3249 29.394 39.3538H30.6222C31.0641 40.4727 31.7103 41.5922 32.611 42.7108C32.683 42.7999 32.7852 42.8459 32.8875 42.8459C32.9708 42.8459 33.0552 42.8159 33.1233 42.7539C33.2757 42.6167 33.2947 42.3745 33.164 42.2124C32.3954 41.2576 31.8356 40.3054 31.4247 39.3538H32.5992C33.191 40.4858 34.0614 41.6183 35.2763 42.7499C35.3455 42.8139 35.4317 42.846 35.5168 42.846C35.6171 42.846 35.7175 42.8019 35.7894 42.7158C35.922 42.5567 35.9078 42.3134 35.7572 42.1733C34.7463 41.2315 34.0088 40.2924 33.4643 39.3538H34.7772C34.9779 39.3538 35.1408 39.1816 35.1408 38.9694C35.1408 38.7572 34.9779 38.5851 34.7772 38.5851H33.0659C32.6486 37.6778 32.3998 36.7705 32.3204 35.8616H33.6685C33.8692 35.8616 34.0321 35.6894 34.0321 35.4773C34.0321 35.2651 33.8692 35.0929 33.6685 35.0929H32.2996C32.3017 34.188 32.4394 33.2805 32.6801 32.3695H34.2549C34.4556 32.3695 34.6185 32.1973 34.6185 31.9851C34.6185 31.773 34.4556 31.6008 34.2549 31.6008H32.8982C33.1892 30.6976 33.5724 29.7897 34.004 28.8763H35.9706C36.1713 28.8763 36.3342 28.7041 36.3342 28.492C36.3342 28.2798 36.1713 28.1076 35.9706 28.1076H34.3762C34.8263 27.2065 35.314 26.2993 35.8116 25.3842H37.2328C37.4335 25.3842 37.5963 25.212 37.5963 24.9998C37.5963 24.7876 37.4335 24.6155 37.2328 24.6155H36.229C36.7188 23.7119 37.2036 22.8038 37.6472 21.892H39.5136C39.7143 21.892 39.8772 21.7198 39.8772 21.5077C39.8772 21.2955 39.7143 21.1233 39.5136 21.1233H38.009C38.4226 20.2184 38.7857 19.3102 39.0639 18.3994H41.2293C41.43 18.3994 41.5928 18.2272 41.5928 18.015C41.5928 17.8028 41.43 17.6307 41.2293 17.6307H39.2767C39.5027 16.7249 39.6338 15.8168 39.6384 14.9072H41.8144C42.0151 14.9072 42.1779 14.735 42.1779 14.5229C42.1779 14.3107 42.0149 14.1385 41.8142 14.1385ZM38.1352 11.4145C38.5526 12.3219 38.8014 13.2293 38.8808 14.1384H36.0417C35.9885 13.2316 35.8215 12.3233 35.5371 11.4145H38.1352ZM34.7719 11.4145C35.0824 12.3219 35.2674 13.2293 35.3261 14.1384H32.4788C32.4429 13.2315 32.3299 12.3231 32.1385 11.4145H34.7719ZM35.0561 17.6307H32.3101C32.4236 16.7248 32.4878 15.8167 32.4895 14.9072H35.3419C35.3398 15.8122 35.2363 16.7195 35.0561 17.6307ZM14.6582 14.9072H17.5105C17.5121 15.8168 17.5763 16.7248 17.6898 17.6307H14.944C14.7637 16.7195 14.6604 15.8122 14.6582 14.9072ZM31.5865 17.6307H28.8353C28.8923 16.7246 28.9244 15.8164 28.9252 14.9072H31.7772C31.7754 15.8123 31.7063 16.7197 31.5865 17.6307ZM22.6658 24.6155C22.543 23.712 22.4249 22.8035 22.3126 21.892H24.6363V24.6155H22.6658ZM24.6363 25.3842V28.1076H23.1251C23.0135 27.1956 22.892 26.2877 22.7693 25.3842H24.6363ZM25.3634 25.3842H27.2308C27.1082 26.2878 26.9866 27.1957 26.8749 28.1076H25.3634V25.3842ZM25.3634 24.6155V21.892H27.6874C27.5751 22.8035 27.4571 23.7121 27.3344 24.6155H25.3634ZM25.3634 21.1233V18.3994H28.0509C27.98 19.3097 27.8855 20.2176 27.7805 21.1233H25.3634ZM24.6363 21.1233H22.2194C22.1144 20.2176 22.02 19.3098 21.9489 18.3994H24.6363V21.1233ZM21.4843 21.1233H19.0722C18.8575 20.2102 18.6665 19.3024 18.5216 18.3994H21.2177C21.2879 19.3102 21.3801 20.2182 21.4843 21.1233ZM21.5747 21.892C21.6863 22.804 21.8078 23.7119 21.9304 24.6155H19.9736C19.725 23.7004 19.4815 22.7931 19.2573 21.892H21.5747ZM22.034 25.3842C22.1568 26.2875 22.2749 27.1961 22.3872 28.1076H20.8928C20.67 27.1956 20.4271 26.2877 20.1819 25.3842H22.034ZM22.4804 28.8764C22.5854 29.7823 22.6799 30.6903 22.751 31.6009H21.604C21.4641 30.6898 21.2806 29.7815 21.0728 28.8764H22.4804ZM23.2155 28.8764H24.6363V31.6009H23.4822C23.4119 30.6899 23.3197 29.7816 23.2155 28.8764ZM25.3634 28.8764H26.7845C26.6803 29.7816 26.5881 30.6899 26.5179 31.6009H25.3634V28.8764ZM27.5196 28.8764H28.927C28.7192 29.7815 28.5357 30.6898 28.3959 31.6009H27.249C27.3201 30.6902 27.4146 29.7823 27.5196 28.8764ZM27.6128 28.1077C27.7251 27.1961 27.8431 26.2876 27.9658 25.3843H29.8179C29.5727 26.2879 29.3297 27.1957 29.107 28.1077H27.6128ZM28.0694 24.6155C28.192 23.7118 28.3136 22.8039 28.4253 21.892H30.7425C30.5183 22.7931 30.2747 23.7005 30.0261 24.6155H28.0694ZM28.5156 21.1233C28.6199 20.2182 28.7121 19.3101 28.7822 18.3994H31.4783C31.3335 19.3024 31.1425 20.2102 30.9276 21.1233H28.5156ZM28.096 17.6307H25.3634V14.9072H28.1855C28.1847 15.8157 28.1538 16.7236 28.096 17.6307ZM24.6363 17.6307H21.9037C21.8459 16.7236 21.8149 15.8157 21.8142 14.9072H24.6362L24.6363 17.6307ZM21.1648 17.6307H18.4135C18.2938 16.7197 18.2249 15.8123 18.223 14.9072H21.0749C21.0756 15.8165 21.1076 16.7246 21.1648 17.6307ZM17.7954 18.3994C17.9354 19.3103 18.1188 20.2184 18.3266 21.1233H15.9347C15.6118 20.2101 15.3247 19.3023 15.1069 18.3994H17.7954ZM18.5065 21.892C18.7292 22.804 18.9722 23.7119 19.2174 24.6155H17.2887C16.9156 23.7003 16.5501 22.7931 16.2131 21.892H18.5065ZM19.4256 25.3842C19.6743 26.2992 19.9177 27.2066 20.142 28.1076H18.6662C18.3328 27.1956 17.9687 26.2878 17.6011 25.3842H19.4256ZM20.3271 28.8764C20.5419 29.7897 20.7329 30.6977 20.8778 31.6009H19.7297C19.5204 30.6897 19.2463 29.7815 18.9353 28.8764H20.3271ZM20.986 32.3696C21.1057 33.2806 21.1746 34.1879 21.1764 35.093H20.1566C20.1537 34.1833 20.0576 33.2752 19.8878 32.3696H20.986ZM21.7096 32.3696H22.7962C22.854 33.2767 22.885 34.1846 22.8857 35.093H21.889C21.8872 34.1834 21.8232 33.2753 21.7096 32.3696ZM23.5352 32.3696H24.6363V35.093H23.625C23.6243 34.1837 23.5923 33.2756 23.5352 32.3696ZM25.3634 32.3696H26.465C26.408 33.2756 26.3759 34.1837 26.3752 35.093H25.3634V32.3696ZM27.204 32.3696H28.2904C28.1769 33.2754 28.113 34.1835 28.1112 35.093H27.1144C27.1151 34.1845 27.1461 33.2766 27.204 32.3696ZM29.0143 32.3696H30.1119C29.9421 33.2753 29.846 34.1834 29.8431 35.093H28.8238C28.8256 34.1879 28.8945 33.2805 29.0143 32.3696ZM29.1225 31.6009C29.2672 30.6977 29.4582 29.7896 29.673 28.8764H31.0645C30.7536 29.7815 30.4793 30.6897 30.2701 31.6009H29.1225ZM29.858 28.1077C30.0822 27.2066 30.3255 26.2992 30.5741 25.3843H32.3991C32.0313 26.2879 31.6673 27.1957 31.3338 28.1077H29.858ZM30.7823 24.6155C31.0275 23.7118 31.2704 22.804 31.4931 21.892H33.787C33.4499 22.7931 33.0845 23.7003 32.7114 24.6155H30.7823ZM31.6732 21.1233C31.881 20.2184 32.0645 19.3103 32.2044 18.3994H34.8932C34.6754 19.3023 34.3884 20.2101 34.0654 21.1233H31.6732ZM31.401 11.4145C31.6061 12.322 31.728 13.2295 31.7665 14.1384H28.92C28.9017 13.2309 28.8441 12.3227 28.7472 11.4145H31.401ZM28.003 11.4145C28.1023 12.3215 28.1732 13.2295 28.1919 14.1384H25.3634V11.4145H28.003ZM24.6363 11.4145V14.1384H21.8078C21.8266 13.2295 21.8975 12.3214 21.9968 11.4145H24.6363ZM21.2524 11.4145C21.1556 12.3227 21.0981 13.231 21.0798 14.1384H18.2337C18.2722 13.2295 18.394 12.322 18.5991 11.4145H21.2524ZM17.8615 11.4145C17.6701 12.3231 17.5571 13.2315 17.5211 14.1384H14.674C14.7326 13.2293 14.9176 12.3219 15.2282 11.4145H17.8615ZM11.8649 11.4145H14.463C14.1786 12.3234 14.0119 13.2316 13.9586 14.1385H11.1195C11.1988 13.2293 11.4476 12.3219 11.8649 11.4145ZM11.0984 14.9072H13.9423C13.9453 15.8169 14.0413 16.725 14.2111 17.6307H11.4791C11.2383 16.7196 11.1006 15.8121 11.0984 14.9072ZM11.6971 18.3994H14.3693C14.5785 19.3103 14.8524 20.2184 15.1633 21.1233H12.8026C12.3711 20.21 11.988 19.3023 11.6971 18.3994ZM13.1748 21.892H15.4323C15.7656 22.8041 16.1298 23.7118 16.4973 24.6155H14.61C14.1124 23.7003 13.6248 22.7931 13.1748 21.892ZM15.0273 25.3842H16.8097C17.1828 26.2993 17.5483 27.2065 17.8853 28.1076H16.4454C16.0017 27.1958 15.5171 26.2877 15.0273 25.3842ZM16.8071 28.8764H18.1637C18.4867 29.7898 18.7738 30.6978 18.9917 31.6009H17.8622C17.5838 30.6898 17.2209 29.7813 16.8071 28.8764ZM18.075 32.3696H19.1546C19.3349 33.2806 19.4382 34.188 19.4404 35.093H18.4366C18.432 34.1834 18.301 33.2753 18.075 32.3696ZM17.7556 38.5852C18.1321 37.6766 18.3407 36.7685 18.4107 35.8617H19.4247C19.3661 36.7706 19.1812 37.6779 18.8707 38.5852H17.7556ZM19.6361 38.5852C19.9205 37.6766 20.0872 36.7685 20.1404 35.8617H21.1657C21.1272 36.7705 21.0055 37.6778 20.8003 38.5852H19.6361ZM21.538 38.5852C21.7293 37.6767 21.8423 36.7686 21.8783 35.8617H22.8922C22.8735 36.7705 22.8025 37.6783 22.7032 38.5852H21.538ZM23.4475 38.5852C23.5443 37.6771 23.6018 36.769 23.62 35.8617H24.6363V38.5852H23.4475ZM25.3634 38.5852V35.8617H26.3802C26.3986 36.769 26.4561 37.6771 26.5529 38.5852H25.3634ZM27.2967 38.5852C27.1975 37.6783 27.1266 36.7704 27.1079 35.8617H28.1219C28.158 36.7686 28.2709 37.6767 28.4622 38.5852H27.2967ZM29.2 38.5852C28.995 37.6778 28.873 36.7705 28.8345 35.8617H29.8595C29.9127 36.7685 30.0796 37.6766 30.364 38.5852H29.2ZM32.2443 38.5852H31.1292C30.8186 37.6779 30.6338 36.7706 30.5751 35.8617H31.5892C31.6592 36.7685 31.8679 37.6766 32.2443 38.5852ZM31.5633 35.093H30.5594C30.5616 34.188 30.665 33.2806 30.8452 32.3696H31.9251C31.6991 33.2753 31.5678 34.1834 31.5633 35.093ZM32.138 31.6009H31.0082C31.226 30.6978 31.5132 29.7898 31.8363 28.8764H33.1932C32.7794 29.7813 32.4163 30.6898 32.138 31.6009ZM33.5549 28.1077H32.1147C32.4518 27.2066 32.8172 26.2994 33.1904 25.3843H34.9733C34.4834 26.2877 33.9987 27.1958 33.5549 28.1077ZM35.3907 24.6155H33.5028C33.8704 23.7118 34.2346 22.804 34.568 21.892H36.8258C36.3757 22.7931 35.8882 23.7003 35.3907 24.6155ZM37.198 21.1233H34.8371C35.1479 20.2184 35.4221 19.3103 35.6312 18.3994H38.3034C38.0125 19.3023 37.6293 20.21 37.198 21.1233ZM38.5214 17.6307H35.7893C35.9591 16.7249 36.0552 15.8168 36.0581 14.9072H38.9019C38.8997 15.8121 38.7619 16.7196 38.5214 17.6307Z" fill="#081219"/>
</svg>
