<svg width="50" height="50" viewBox="0 0 50 50" fill="none" xmlns="http://www.w3.org/2000/svg">
<path d="M29.5815 10.8394C30.5756 10.8394 31.3853 10.0515 31.3853 9.08423C31.3853 8.11691 30.5756 7.3291 29.5815 7.3291C28.5873 7.3291 27.7776 8.11691 27.7776 9.08423C27.7776 10.0515 28.5873 10.8394 29.5815 10.8394ZM29.5815 8.84489C29.725 8.84489 29.8274 8.95459 29.8274 9.08423C29.8274 9.35348 29.3355 9.35348 29.3355 9.08423C29.3355 8.95459 29.4482 8.84489 29.5815 8.84489Z" fill="black"/>
<path d="M29.5815 12.5347C28.5873 12.5347 27.7776 13.3225 27.7776 14.2898C27.7776 15.2571 28.5873 16.0449 29.5815 16.0449C30.5756 16.0449 31.3853 15.2571 31.3853 14.2898C31.3853 13.3225 30.5756 12.5347 29.5815 12.5347ZM29.3252 14.2798C29.3252 14.1502 29.438 14.0405 29.5712 14.0405C29.7045 14.0405 29.8172 14.1502 29.8172 14.2798C29.8172 14.5491 29.3252 14.5491 29.3252 14.2798Z" fill="black"/>
<path d="M29.5815 17.7302C28.5873 17.7302 27.7776 18.518 27.7776 19.4853C27.7776 20.4527 28.5873 21.2405 29.5815 21.2405C30.5756 21.2405 31.3853 20.4527 31.3853 19.4853C31.3853 18.518 30.5756 17.7302 29.5815 17.7302ZM29.3252 19.4853C29.3252 19.3557 29.438 19.246 29.5712 19.246C29.7045 19.246 29.8172 19.3557 29.8172 19.4853C29.8172 19.7546 29.3252 19.7546 29.3252 19.4853Z" fill="black"/>
<path d="M29.5815 22.9358C28.5873 22.9358 27.7776 23.7236 27.7776 24.6909C27.7776 25.6582 28.5873 26.446 29.5815 26.446C30.5756 26.446 31.3853 25.6582 31.3853 24.6909C31.3853 23.7236 30.5756 22.9358 29.5815 22.9358ZM29.3252 24.6909C29.3252 24.5613 29.438 24.4516 29.5712 24.4516C29.7045 24.4516 29.8172 24.5613 29.8172 24.6909C29.8172 24.9602 29.3252 24.9602 29.3252 24.6909Z" fill="black"/>
<path d="M29.5815 28.1412C28.5873 28.1412 27.7776 28.929 27.7776 29.8964C27.7776 30.8637 28.5873 31.6515 29.5815 31.6515C30.5756 31.6515 31.3853 30.8637 31.3853 29.8964C31.3853 28.929 30.5756 28.1412 29.5815 28.1412ZM29.3252 29.8964C29.3252 29.7667 29.438 29.657 29.5712 29.657C29.7045 29.657 29.8172 29.7667 29.8172 29.8964C29.8172 30.1656 29.3252 30.1656 29.3252 29.8964Z" fill="black"/>
<path d="M29.5815 33.3368C28.5873 33.3368 27.7776 34.1246 27.7776 35.0919C27.7776 36.0592 28.5873 36.847 29.5815 36.847C30.5756 36.847 31.3853 36.0592 31.3853 35.0919C31.3853 34.1246 30.5756 33.3368 29.5815 33.3368ZM29.3252 35.0919C29.3252 34.9623 29.438 34.8526 29.5712 34.8526C29.7045 34.8526 29.8172 34.9623 29.8172 35.0919C29.8172 35.3612 29.3252 35.3612 29.3252 35.0919Z" fill="black"/>
<path d="M29.5815 38.5424C28.5873 38.5424 27.7776 39.3302 27.7776 40.2975C27.7776 41.2648 28.5873 42.0526 29.5815 42.0526C30.5756 42.0526 31.3853 41.2648 31.3853 40.2975C31.3853 39.3302 30.5756 38.5424 29.5815 38.5424ZM29.3252 40.2975C29.3252 40.1678 29.438 40.0582 29.5712 40.0582C29.7045 40.0582 29.8172 40.1678 29.8172 40.2975C29.8172 40.5667 29.3252 40.5667 29.3252 40.2975Z" fill="black"/>
<path d="M24.9999 7.3291C24.0057 7.3291 23.196 8.11691 23.196 9.08423C23.196 10.0515 24.0057 10.8394 24.9999 10.8394C25.9941 10.8394 26.8038 10.0515 26.8038 9.08423C26.8038 8.11691 25.9941 7.3291 24.9999 7.3291ZM24.7539 9.08423C24.7539 8.95459 24.8667 8.84489 24.9999 8.84489C25.1332 8.84489 25.2459 8.95459 25.2459 9.08423C25.2459 9.35348 24.7539 9.35348 24.7539 9.08423Z" fill="black"/>
<path d="M24.9999 12.5347C24.0057 12.5347 23.196 13.3225 23.196 14.2898C23.196 15.2571 24.0057 16.0449 24.9999 16.0449C25.9941 16.0449 26.8038 15.2571 26.8038 14.2898C26.8038 13.3225 25.9941 12.5347 24.9999 12.5347ZM24.7539 14.2798C24.7539 14.1502 24.8667 14.0405 24.9999 14.0405C25.1332 14.0405 25.2459 14.1502 25.2459 14.2798C25.2459 14.5491 24.7539 14.5491 24.7539 14.2798Z" fill="black"/>
<path d="M24.9999 17.7302C24.0057 17.7302 23.196 18.518 23.196 19.4853C23.196 20.4527 24.0057 21.2405 24.9999 21.2405C25.9941 21.2405 26.8038 20.4527 26.8038 19.4853C26.8038 18.518 25.9941 17.7302 24.9999 17.7302ZM24.7539 19.4853C24.7539 19.3557 24.8667 19.246 24.9999 19.246C25.1332 19.246 25.2459 19.3557 25.2459 19.4853C25.2459 19.7546 24.7539 19.7546 24.7539 19.4853Z" fill="black"/>
<path d="M24.9999 22.9358C24.0057 22.9358 23.196 23.7236 23.196 24.6909C23.196 25.6582 24.0057 26.446 24.9999 26.446C25.9941 26.446 26.8038 25.6582 26.8038 24.6909C26.8038 23.7236 25.9941 22.9358 24.9999 22.9358ZM24.7539 24.6909C24.7539 24.5613 24.8667 24.4516 24.9999 24.4516C25.1332 24.4516 25.2459 24.5613 25.2459 24.6909C25.2459 24.9602 24.7539 24.9602 24.7539 24.6909Z" fill="black"/>
<path d="M24.9999 28.1412C24.0057 28.1412 23.196 28.929 23.196 29.8964C23.196 30.8637 24.0057 31.6515 24.9999 31.6515C25.9941 31.6515 26.8038 30.8637 26.8038 29.8964C26.8038 28.929 25.9941 28.1412 24.9999 28.1412ZM24.7539 29.8964C24.7539 29.7667 24.8667 29.657 24.9999 29.657C25.1332 29.657 25.2459 29.7667 25.2459 29.8964C25.2459 30.1656 24.7539 30.1656 24.7539 29.8964Z" fill="black"/>
<path d="M24.9999 33.3368C24.0057 33.3368 23.196 34.1246 23.196 35.0919C23.196 36.0592 24.0057 36.847 24.9999 36.847C25.9941 36.847 26.8038 36.0592 26.8038 35.0919C26.8038 34.1246 25.9941 33.3368 24.9999 33.3368ZM24.7539 35.0919C24.7539 34.9623 24.8667 34.8526 24.9999 34.8526C25.1332 34.8526 25.2459 34.9623 25.2459 35.0919C25.2459 35.3612 24.7539 35.3612 24.7539 35.0919Z" fill="black"/>
<path d="M24.9999 38.5424C24.0057 38.5424 23.196 39.3302 23.196 40.2975C23.196 41.2648 24.0057 42.0526 24.9999 42.0526C25.9941 42.0526 26.8038 41.2648 26.8038 40.2975C26.8038 39.3302 25.9941 38.5424 24.9999 38.5424ZM24.7539 40.2975C24.7539 40.1678 24.8667 40.0582 24.9999 40.0582C25.1332 40.0582 25.2459 40.1678 25.2459 40.2975C25.2459 40.5667 24.7539 40.5667 24.7539 40.2975Z" fill="black"/>
<path d="M20.4186 7.3291C19.4244 7.3291 18.6147 8.11691 18.6147 9.08423C18.6147 10.0515 19.4244 10.8394 20.4186 10.8394C21.4128 10.8394 22.2225 10.0515 22.2225 9.08423C22.2225 8.11691 21.4128 7.3291 20.4186 7.3291ZM20.1726 9.08423C20.1726 8.95459 20.2854 8.84489 20.4186 8.84489C20.5519 8.84489 20.6646 8.95459 20.6646 9.08423C20.6646 9.35348 20.1726 9.35348 20.1726 9.08423Z" fill="black"/>
<path d="M20.4186 12.5347C19.4244 12.5347 18.6147 13.3225 18.6147 14.2898C18.6147 15.2571 19.4244 16.0449 20.4186 16.0449C21.4128 16.0449 22.2225 15.2571 22.2225 14.2898C22.2225 13.3225 21.4128 12.5347 20.4186 12.5347ZM20.1726 14.2798C20.1726 14.1502 20.2854 14.0405 20.4186 14.0405C20.5519 14.0405 20.6646 14.1502 20.6646 14.2798C20.6646 14.5491 20.1726 14.5491 20.1726 14.2798Z" fill="black"/>
<path d="M20.4186 17.7302C19.4244 17.7302 18.6147 18.518 18.6147 19.4853C18.6147 20.4527 19.4244 21.2405 20.4186 21.2405C21.4128 21.2405 22.2225 20.4527 22.2225 19.4853C22.2225 18.518 21.4128 17.7302 20.4186 17.7302ZM20.1726 19.4853C20.1726 19.3557 20.2854 19.246 20.4186 19.246C20.5519 19.246 20.6646 19.3557 20.6646 19.4853C20.6646 19.7546 20.1726 19.7546 20.1726 19.4853Z" fill="black"/>
<path d="M20.4186 22.9358C19.4244 22.9358 18.6147 23.7236 18.6147 24.6909C18.6147 25.6582 19.4244 26.446 20.4186 26.446C21.4128 26.446 22.2225 25.6582 22.2225 24.6909C22.2225 23.7236 21.4128 22.9358 20.4186 22.9358ZM20.1726 24.6909C20.1726 24.5613 20.2854 24.4516 20.4186 24.4516C20.5519 24.4516 20.6646 24.5613 20.6646 24.6909C20.6646 24.9602 20.1726 24.9602 20.1726 24.6909Z" fill="black"/>
<path d="M20.4186 28.1412C19.4244 28.1412 18.6147 28.929 18.6147 29.8964C18.6147 30.8637 19.4244 31.6515 20.4186 31.6515C21.4128 31.6515 22.2225 30.8637 22.2225 29.8964C22.2225 28.929 21.4128 28.1412 20.4186 28.1412ZM20.1726 29.8964C20.1726 29.7567 20.2854 29.657 20.4186 29.657C20.5519 29.657 20.6646 29.7667 20.6646 29.8964C20.6646 30.1656 20.1726 30.1656 20.1726 29.8964Z" fill="black"/>
<path d="M20.4186 33.3368C19.4244 33.3368 18.6147 34.1246 18.6147 35.0919C18.6147 36.0592 19.4244 36.847 20.4186 36.847C21.4128 36.847 22.2225 36.0592 22.2225 35.0919C22.2225 34.1246 21.4128 33.3368 20.4186 33.3368ZM20.1726 35.0919C20.1726 34.9623 20.2854 34.8526 20.4186 34.8526C20.5519 34.8526 20.6646 34.9623 20.6646 35.0919C20.6646 35.3612 20.1726 35.3612 20.1726 35.0919Z" fill="black"/>
<path d="M20.4186 38.5424C19.4244 38.5424 18.6147 39.3302 18.6147 40.2975C18.6147 41.2648 19.4244 42.0526 20.4186 42.0526C21.4128 42.0526 22.2225 41.2648 22.2225 40.2975C22.2225 39.3302 21.4128 38.5424 20.4186 38.5424ZM20.1726 40.2975C20.1726 40.1579 20.2854 40.0582 20.4186 40.0582C20.5519 40.0582 20.6646 40.1678 20.6646 40.2975C20.6646 40.5667 20.1726 40.5667 20.1726 40.2975Z" fill="black"/>
</svg>
