<svg width="50" height="50" viewBox="0 0 50 50" fill="none" xmlns="http://www.w3.org/2000/svg">
<path d="M37.3296 22.1442C35.4918 21.6135 33.6115 21.4925 31.7411 21.7846C29.6888 22.105 27.6461 22.9267 25.6564 24.2292C26.6909 22.1835 27.997 20.5154 29.5477 19.2622C30.9584 18.1222 32.5753 17.3195 34.3536 16.8764C37.3938 16.1186 39.887 16.6823 39.9118 16.688L40.0312 16.1776C39.9256 16.1529 37.4085 15.5808 34.2499 16.362C32.3929 16.8213 30.7041 17.6567 29.2303 18.8448C27.6132 20.1485 26.2549 21.8814 25.1831 24.0042C25.0562 21.7152 25.3533 19.6176 26.0697 17.757C26.7213 16.0644 27.7202 14.5608 29.0387 13.2878C31.2885 11.1158 33.7242 10.356 33.758 10.3457L33.6821 10.0949L33.6063 9.844C33.5025 9.87541 31.0367 10.6384 28.6918 12.8943C27.3133 14.2206 26.2684 15.7885 25.5861 17.5543C24.8375 19.4919 24.5277 21.6718 24.6609 24.0461C23.4065 22.1273 22.6149 20.1621 22.305 18.1926C22.0231 16.401 22.1363 14.5993 22.6417 12.8377C23.504 9.83183 25.2336 7.95594 25.2576 7.93011L25.0666 7.75081L24.8755 7.57141C24.8013 7.65049 23.0473 9.54423 22.1445 12.6703C21.6138 14.5081 21.4928 16.3883 21.7849 18.2588C22.1053 20.3111 22.9269 22.3538 24.2295 24.3435C22.1838 23.309 20.5156 22.0029 19.2625 20.4522C18.1224 19.0415 17.3198 17.4246 16.8766 15.6464C16.1189 12.6061 16.6824 10.1131 16.6882 10.0881L16.433 10.0285L16.1779 9.96865C16.1531 10.0743 15.5809 12.5913 16.3622 15.75C16.8216 17.6069 17.6569 19.2957 18.845 20.7696C20.1487 22.3867 21.8817 23.745 24.0045 24.8168C21.7157 24.9439 19.6179 24.6467 17.7572 23.9303C16.0646 23.2787 14.5609 22.2798 13.288 20.9612C11.1159 18.7115 10.3561 16.2757 10.3458 16.2419L10.095 16.3178L9.84414 16.3936C9.87556 16.4974 10.6385 18.9633 12.8946 21.3082C14.2208 22.6866 15.7886 23.7315 17.5545 24.4138C19.201 25.05 21.022 25.3696 22.989 25.3696C23.3369 25.3696 23.6896 25.359 24.0465 25.339C22.1276 26.5934 20.1624 27.3851 18.1929 27.6949C16.4009 27.9769 14.5994 27.8635 12.8379 27.3582C9.83208 26.4959 7.95609 24.7663 7.93036 24.7423L7.57166 25.1245C7.65074 25.1986 9.54438 26.9527 12.6707 27.8555C13.8578 28.1982 15.0625 28.37 16.271 28.37C16.9335 28.37 17.5969 28.3184 18.2592 28.2151C20.3115 27.8947 22.3542 27.073 24.3439 25.7705C23.3093 27.8162 22.0033 29.4843 20.4525 30.7375C19.0418 31.8775 17.4249 32.6802 15.6466 33.1233C12.6064 33.8812 10.1133 33.3175 10.0884 33.3117L9.969 33.8221C10.0321 33.8369 10.9568 34.0473 12.3652 34.0473C13.313 34.0473 14.4799 33.952 15.7504 33.6377C17.6073 33.1784 19.2962 32.343 20.77 31.1549C22.3871 29.8512 23.7454 28.1182 24.8173 25.9954C24.9441 28.2844 24.6471 30.3821 23.9307 32.2427C23.279 33.9353 22.2801 35.4389 20.9617 36.7119C18.7075 38.8881 16.2666 39.6466 16.2423 39.654L16.3183 39.9048L16.394 40.1557C16.4979 40.1243 18.9637 39.3613 21.3086 37.1054C22.6871 35.7792 23.732 34.2113 24.4144 32.4454C25.1629 30.5079 25.4728 28.328 25.3397 25.9536C26.594 27.8724 27.3857 29.8376 27.6956 31.8071C27.9775 33.5987 27.8643 35.4004 27.3589 37.162C26.4966 40.1679 24.767 42.0438 24.743 42.0696L24.934 42.249L25.1251 42.4284C25.1993 42.3493 26.9534 40.4556 27.8561 37.3295C28.3868 35.4917 28.5078 33.6115 28.2158 31.741C27.8954 29.6887 27.0738 27.6459 25.7712 25.6563C27.8169 26.6908 29.4851 27.9969 30.7382 29.5477C31.8781 30.9583 32.6809 32.5753 33.1241 34.3535C33.8803 37.3878 33.3203 39.8772 33.3124 39.9116L33.8226 40.0311C33.8475 39.9255 34.4197 37.4085 33.6383 34.2498C33.1791 32.393 32.3437 30.7041 31.1555 29.2302C29.8519 27.6131 28.1189 26.2548 25.9961 25.183C28.285 25.0559 30.3828 25.3531 32.2433 26.0695C33.9359 26.7211 35.4395 27.72 36.7125 29.0386C38.8846 31.2883 39.6444 33.7241 39.6546 33.7579L39.9054 33.682L40.1563 33.6062C40.1249 33.5024 39.362 31.0365 37.106 28.6916C35.7797 27.3132 34.2119 26.2683 32.4461 25.586C30.5084 24.8375 28.3284 24.5274 25.9543 24.6606C27.8731 23.4063 29.8383 22.6146 31.8077 22.3048C33.5995 22.0227 35.4011 22.1361 37.1627 22.6415C40.1685 23.5038 42.0444 25.2334 42.0702 25.2574L42.2495 25.0663L42.4289 24.8752C42.3499 24.8011 40.4557 23.047 37.3296 22.1442Z" fill="#02111B"/>
</svg>
