<svg width="50" height="50" viewBox="0 0 50 50" fill="none" xmlns="http://www.w3.org/2000/svg">
<path d="M24.9998 7.05151C15.3708 7.05151 7.53662 15.1034 7.53662 24.9998C7.53662 34.8967 15.3709 42.9481 24.9998 42.9481C34.6293 42.9481 42.463 34.8967 42.463 24.9998C42.463 15.1034 34.6294 7.05151 24.9998 7.05151ZM23.6785 35.9587C24.1162 35.9795 24.5538 36.0008 24.9998 36.0008C25.4458 36.0008 25.8834 35.9794 26.3209 35.9587C25.7461 37.2381 25.2998 38.5925 24.9998 40.0055C24.6997 38.5925 24.2534 37.2381 23.6785 35.9587ZM24.9998 35.2321C24.4246 35.2321 23.8561 35.2142 23.2957 35.1792C21.478 31.5662 18.6112 28.6197 15.096 26.7515C15.062 26.1754 15.0446 25.5911 15.0446 24.9998C15.0446 24.4084 15.062 23.824 15.096 23.2479C18.611 21.3796 21.4775 18.4334 23.2952 14.8209C23.8558 14.7859 24.4244 14.768 24.9998 14.768C25.5751 14.768 26.1436 14.7859 26.7042 14.8209C28.5219 18.4338 31.3888 21.3803 34.9041 23.2484C34.9381 23.8244 34.9556 24.4086 34.9556 24.9998C34.9556 25.5909 34.9381 26.1751 34.9041 26.751C31.3885 28.6192 28.5213 31.5659 26.7037 35.1792C26.1433 35.2142 25.5749 35.2321 24.9998 35.2321ZM14.3377 26.3582C13.0926 25.7672 11.7744 25.3082 10.3993 24.9998C11.7744 24.6913 13.0926 24.2323 14.3377 23.6411C14.3175 24.0912 14.2966 24.5411 14.2966 24.9998C14.2966 25.4584 14.3175 25.9083 14.3377 26.3582ZM26.3215 14.0415C25.8838 14.0207 25.446 13.9993 24.9998 13.9993C24.5537 13.9993 24.1158 14.0207 23.6779 14.0415C24.253 12.7618 24.6995 11.4071 24.9998 9.99368C25.2999 11.4071 25.7464 12.7618 26.3215 14.0415ZM35.6625 23.6418C36.9073 24.2326 38.2252 24.6914 39.6 24.9998C38.2253 25.3081 36.9073 25.7669 35.6625 26.3576C35.6827 25.9079 35.7035 25.4581 35.7035 24.9998C35.7035 24.5414 35.6826 24.0916 35.6625 23.6418ZM35.6104 22.7549C35.4447 20.543 35.0443 18.4527 34.4422 16.5651C38.6417 18.3323 41.445 21.2432 41.6784 24.5569C39.5182 24.3106 37.4747 23.6922 35.6104 22.7549ZM34.8228 22.3294C31.7802 20.6065 29.2748 18.0315 27.5985 14.9045C29.7424 15.1107 31.7487 15.5648 33.542 16.2213C34.1806 18.0644 34.6222 20.126 34.8228 22.3294ZM27.1846 14.0949C26.2726 12.1788 25.6708 10.0784 25.4312 7.85793C28.6557 8.09807 31.4879 10.9792 33.2073 15.2956C31.3707 14.6768 29.337 14.2653 27.1846 14.0949ZM22.8152 14.0949C20.663 14.2652 18.6294 14.6767 16.7928 15.2955C18.5122 10.9789 21.3446 8.09787 24.5689 7.85783C24.3293 10.0784 23.7274 12.1788 22.8152 14.0949ZM22.4012 14.9045C20.7249 18.0313 18.2196 20.6061 15.1774 22.329C15.378 20.1256 15.8196 18.0641 16.4582 16.221C18.2516 15.5646 20.2573 15.1107 22.4012 14.9045ZM14.3897 22.7546C12.5254 23.6921 10.4816 24.3106 8.32114 24.557C8.55469 21.2431 11.3579 18.3321 15.5578 16.5649C14.9557 18.4525 14.5554 20.5426 14.3897 22.7546ZM14.3897 27.2452C14.5553 29.4573 14.9557 31.5476 15.5578 33.4352C11.3581 31.6681 8.55479 28.7571 8.32114 25.4431C10.4817 25.6894 12.5255 26.3078 14.3897 27.2452ZM15.1774 27.6707C18.2199 29.3936 20.7254 31.9685 22.4016 35.0957C20.2578 34.8895 18.2518 34.4356 16.4584 33.7793C15.8197 31.9361 15.378 29.8743 15.1774 27.6707ZM22.8157 35.9053C23.7276 37.8213 24.3293 39.9215 24.569 42.1418C21.3449 41.9018 18.5127 39.0207 16.7932 34.7046C18.6298 35.3234 20.6635 35.7349 22.8157 35.9053ZM27.1841 35.9053C29.3365 35.7349 31.3703 35.3234 33.2069 34.7045C31.4875 39.0205 28.6555 41.9016 25.4311 42.1417C25.6707 39.9214 26.2723 37.8212 27.1841 35.9053ZM27.5981 35.0956C29.2743 31.9682 31.7799 29.3931 34.8227 27.6703C34.6221 29.8739 34.1804 31.9356 33.5417 33.7789C31.7483 34.4354 29.7421 34.8894 27.5981 35.0956ZM35.6104 27.2449C37.4746 26.3077 39.5181 25.6895 41.6784 25.4432C41.4447 28.757 38.6416 31.6678 34.4422 33.435C35.0444 31.5473 35.4447 29.457 35.6104 27.2449ZM41.2305 20.966C39.8312 18.7401 37.3135 16.8743 34.113 15.634C32.9061 12.3445 31.0905 9.75661 28.9247 8.31833C34.9893 9.82662 39.7629 14.7328 41.2305 20.966ZM21.0752 8.31823C18.9094 9.75651 17.094 12.3444 15.887 15.6339C12.6864 16.8743 10.1685 18.7402 8.7691 20.9662C10.2365 14.7327 15.0102 9.82651 21.0752 8.31823ZM8.7691 29.0337C10.1685 31.2597 12.6864 33.1257 15.887 34.3661C17.0938 37.6554 18.9092 40.2431 21.0748 41.6813C15.0101 40.1729 10.2367 35.2667 8.7691 29.0337ZM28.9251 41.6812C31.0907 40.243 32.9062 37.6553 34.113 34.3661C37.3133 33.1258 39.831 31.2598 41.2304 29.034C39.7627 35.2667 34.9894 40.1727 28.9251 41.6812Z" fill="#081219"/>
</svg>
