<svg width="50" height="50" viewBox="0 0 50 50" fill="none" xmlns="http://www.w3.org/2000/svg">
<path d="M24.9647 13.2067C15.0811 13.2067 7.33887 16.0072 7.33887 19.5819V24.8222C7.33887 27.2199 10.3846 29.2627 15.6966 30.4268L15.7901 30.4468C15.9021 30.4699 16.0146 30.4418 16.1027 30.3687C16.1899 30.2956 16.2405 30.1866 16.2405 30.0705V24.7767C16.2405 24.7589 16.233 24.7436 16.2307 24.7264C16.2333 24.7067 16.2405 24.6866 16.2405 24.6675C16.2405 24.4863 16.056 24.3157 15.8831 24.2782C13.4266 23.7401 11.4494 23.0065 10.099 22.1727C12.8192 20.4252 18.1275 19.0565 24.9648 19.0565C31.3206 19.0565 36.9963 20.308 39.9168 22.1076C37.9614 23.3562 34.7763 24.3073 31.0118 24.803C30.9121 24.816 30.8112 24.8278 30.7106 24.8402C30.3716 24.8824 30.0284 24.9209 29.681 24.9555C29.3596 24.9872 29.0364 25.0173 28.7076 25.0427C28.5425 25.0556 28.3754 25.066 28.2088 25.0772C27.8955 25.098 27.5792 25.1161 27.2601 25.1309C27.0639 25.1401 26.8689 25.1512 26.6711 25.158V21.9785C26.6711 21.8228 26.5795 21.6827 26.4403 21.6232C26.2991 21.5642 26.1403 21.5961 26.0322 21.7067L19.8794 28.0304C19.7333 28.1806 19.7333 28.4248 19.8794 28.5749L26.0322 34.8996C26.1043 34.9727 26.1998 35.0118 26.2971 35.0118C26.3458 35.0118 26.3935 35.0017 26.4403 34.9828C26.5795 34.9227 26.6711 34.7826 26.6711 34.6274V31.3274C27.1822 31.3101 27.6835 31.2824 28.1796 31.2503C28.1817 31.2504 28.1834 31.2514 28.1855 31.2514C28.1932 31.2514 28.201 31.2514 28.2088 31.2504C28.2269 31.2491 28.244 31.2472 28.2621 31.246C28.5337 31.2278 28.7966 31.2026 29.0632 31.1802C29.3412 31.1569 29.6217 31.1358 29.8935 31.1081C30.0764 31.0893 30.253 31.066 30.4333 31.0451C30.7954 31.0038 31.1554 30.9612 31.5055 30.9121C31.5857 30.9008 31.6629 30.8876 31.7425 30.8759C37.3101 30.0613 41.2869 28.2854 42.4117 26.1005C42.4182 26.0882 42.4271 26.0763 42.4334 26.0641C42.52 25.8906 42.5844 25.7141 42.6344 25.5358C42.6431 25.5053 42.6588 25.4756 42.6663 25.445C42.7163 25.24 42.7446 25.0324 42.7446 24.822V19.5817C42.7445 16.0072 34.9351 13.2067 24.9647 13.2067ZM8.08679 21.4718C8.28544 21.7145 8.52358 21.9508 8.79891 22.1803C8.52597 22.415 8.28594 22.6563 8.08679 22.9052V21.4718ZM15.4375 24.9648C15.4504 24.9896 15.4739 25.0072 15.4925 25.0284V29.594C10.8472 28.519 8.08679 26.7464 8.08679 24.8221C8.08679 24.0936 8.56147 23.3528 9.42786 22.6542C10.8062 23.5769 12.8373 24.3669 15.4375 24.9648ZM41.9179 25.3511C41.9048 25.3971 41.8786 25.4422 41.8621 25.4879C41.8147 25.6182 41.7632 25.748 41.6891 25.876C41.6642 25.9192 41.6294 25.9614 41.6017 26.0043C41.5155 26.1361 41.4233 26.2674 41.3098 26.3962C41.2824 26.4276 41.2493 26.4582 41.2204 26.4895C41.0872 26.6316 40.9433 26.7723 40.7784 26.9101C40.7602 26.9255 40.74 26.9403 40.7214 26.9556C38.3141 28.9171 32.7525 30.398 26.2873 30.5699C26.0848 30.576 25.9231 30.7461 25.9231 30.9543V33.6997L20.6726 28.3029L25.9231 22.9065V25.5544C25.9231 25.6586 25.964 25.7576 26.0361 25.8297C26.1082 25.9019 26.2076 25.9488 26.3069 25.9388C26.5257 25.9329 26.7416 25.9223 26.9586 25.9137C26.964 25.9139 26.9685 25.9168 26.9739 25.9168C26.9788 25.9168 26.9837 25.9168 26.9885 25.9168C27.0669 25.9137 27.1415 25.9071 27.2195 25.9036C27.5638 25.8879 27.9048 25.868 28.2439 25.8452C33.738 25.4862 38.1935 24.2819 40.6529 22.6203C41.5148 23.3027 41.9967 24.0475 41.9967 24.8223C41.9966 24.9999 41.9683 25.1763 41.9179 25.3511ZM41.9966 22.9147C41.7908 22.6583 41.5412 22.4098 41.2564 22.1685C41.5396 21.9335 41.7921 21.6928 41.9966 21.4435V22.9147ZM40.6574 21.7049C37.6907 19.6544 31.8434 18.2878 24.9648 18.2878C18.1526 18.2878 12.3598 19.6515 9.416 21.6987C8.55798 21.0283 8.08689 20.3089 8.08689 19.5819C8.08689 16.8745 14.8689 13.9754 24.9648 13.9754C34.197 13.9754 41.9966 16.5427 41.9966 19.5819C41.9966 20.3255 41.5113 21.0432 40.6574 21.7049Z" fill="#081219"/>
</svg>
