<svg width="50" height="50" viewBox="0 0 50 50" fill="none" xmlns="http://www.w3.org/2000/svg">
<path d="M40.5583 13.4263C40.6021 13.4383 40.6469 13.4443 40.6897 13.4443C40.8981 13.4443 41.0919 13.3092 41.162 13.0964C41.4941 12.0906 41.8661 11.0876 42.2663 10.1152C42.3219 9.9826 42.3189 9.83245 42.2605 9.70136C42.202 9.57027 42.092 9.47065 41.9586 9.42709C40.824 9.05729 39.6768 8.71999 38.5492 8.42471C38.2931 8.35419 38.0311 8.5068 37.9512 8.76601C37.6668 9.68845 37.4086 10.6207 37.1718 11.5464C36.4356 11.3868 35.6988 11.243 34.9657 11.114C35.1387 10.1649 35.3223 9.20909 35.5321 8.26266C35.5624 8.12758 35.538 7.98491 35.4639 7.86878C35.3899 7.75215 35.2731 7.67159 35.1396 7.64555C33.9944 7.42038 32.8462 7.23271 31.7253 7.08758C31.4585 7.0556 31.2082 7.24573 31.1693 7.52195C31.0282 8.52197 30.9035 9.52005 30.785 10.5195C30.0663 10.4446 29.3327 10.3833 28.5885 10.3362C28.6478 9.32541 28.7095 8.31483 28.7804 7.30435C28.7892 7.16773 28.7463 7.03357 28.6586 6.93056C28.571 6.82797 28.4473 6.76493 28.3149 6.75591C27.194 6.68089 26.0458 6.64276 24.9015 6.64276C24.6258 6.64276 24.4029 6.87194 24.4029 7.15523V10.2166C23.6572 10.2232 22.9248 10.2445 22.2097 10.2801C22.1508 9.26361 22.0889 8.24739 22.0179 7.23076C21.9984 6.95045 21.7589 6.73675 21.4906 6.75571C20.3936 6.82428 19.2454 6.93589 18.0777 7.08748C17.9448 7.105 17.824 7.17603 17.7433 7.2857C17.662 7.39527 17.6274 7.53394 17.6468 7.67005C17.7865 8.65767 17.9101 9.64376 18.0262 10.6309C17.2802 10.7208 16.544 10.8242 15.8222 10.9407C15.6471 9.97778 15.4604 9.00533 15.2453 8.03544C15.1864 7.76619 14.9312 7.598 14.6668 7.64555C13.5429 7.86376 12.3953 8.12594 11.2554 8.42481C11.1224 8.45925 11.0095 8.54934 10.9427 8.67253C10.876 8.79573 10.8619 8.94178 10.9033 9.07636C11.1765 9.96036 11.4197 10.8651 11.6516 11.7672C10.7615 11.9738 9.86624 12.1904 8.98239 12.4374C8.84996 12.4744 8.73797 12.566 8.67315 12.6912C8.60843 12.8157 8.59726 12.9624 8.64104 13.0965C8.96484 14.0774 9.25404 15.0794 9.50045 16.0748C9.55739 16.3055 9.76003 16.4607 9.98301 16.4607C10.0181 16.4607 10.0536 16.4572 10.0891 16.4492C10.9132 16.2651 11.7411 16.1067 12.5625 15.9558C12.692 16.6925 12.804 17.4192 12.8984 18.1317C12.1089 18.2333 11.3194 18.3375 10.5299 18.4609C10.398 18.4814 10.2796 18.5555 10.2012 18.6666C10.1228 18.7782 10.0911 18.9168 10.1131 19.0525C10.2752 20.0434 10.3989 21.0448 10.4816 22.0277C10.5041 22.2945 10.7217 22.4961 10.9778 22.4961C10.9905 22.4961 11.0037 22.4956 11.0163 22.4945C11.7716 22.4353 12.5256 22.3836 13.2804 22.3353C13.3173 23.0458 13.3394 23.7644 13.3467 24.4873H11.101C10.8254 24.4873 10.6024 24.7165 10.6024 24.9998C10.6024 25.9697 10.5615 26.9696 10.4811 27.9744C10.4705 28.1107 10.5128 28.2457 10.599 28.3488C10.6852 28.453 10.8079 28.517 10.9404 28.528C11.6999 28.5876 12.4582 28.639 13.2172 28.6871C13.1658 29.4036 13.0984 30.1263 13.0158 30.8507C12.2372 30.7503 11.4585 30.6476 10.6799 30.5258C10.4086 30.4857 10.1584 30.6709 10.1131 30.9471C9.95379 31.921 9.75325 32.8949 9.50005 33.9268C9.46695 34.061 9.48889 34.2041 9.55999 34.3221C9.63109 34.4402 9.74597 34.5233 9.8779 34.5523C10.7113 34.738 11.5438 34.8974 12.3766 35.051C12.2378 35.7639 12.0799 36.4954 11.9037 37.2415C11.01 37.0343 10.1148 36.8169 9.24446 36.5732C8.99027 36.5031 8.72541 36.6473 8.64114 36.9035C8.31535 37.8965 7.94438 38.8994 7.5387 39.8842C7.48415 40.0174 7.48615 40.1675 7.54498 40.2986C7.60342 40.4297 7.71342 40.5288 7.84735 40.5729C8.99795 40.9482 10.1452 41.2855 11.2559 41.5748C11.2968 41.5857 11.3381 41.5907 11.379 41.5907C11.5913 41.5907 11.7866 41.4506 11.8538 41.2335C12.1354 40.3227 12.3875 39.3867 12.627 38.4523C13.3611 38.6117 14.1002 38.7558 14.839 38.8857C14.6671 39.8309 14.4845 40.7849 14.2734 41.7371C14.2432 41.8732 14.268 42.0154 14.342 42.1315C14.416 42.2476 14.5329 42.3287 14.6658 42.3547C15.7789 42.574 16.9266 42.7611 18.0767 42.9122C18.0982 42.9152 18.1196 42.9162 18.1406 42.9162C18.3845 42.9162 18.5973 42.732 18.6333 42.4778C18.7753 41.4777 18.9002 40.4797 19.0175 39.4802C19.7612 39.5566 20.4947 39.6176 21.2143 39.6636C21.1556 40.6743 21.0938 41.6855 21.0236 42.696C21.0139 42.8321 21.0578 42.9672 21.1449 43.0694C21.2321 43.1725 21.3557 43.2356 21.4882 43.2446C22.6018 43.3196 23.75 43.3577 24.9016 43.3577C25.1772 43.3577 25.4002 43.1286 25.4002 42.8453V39.7835C26.1511 39.7771 26.879 39.7561 27.5929 39.7203C27.6522 40.7367 27.7142 41.753 27.7852 42.7701C27.8046 43.0394 28.0228 43.2456 28.2828 43.2456C28.2926 43.2456 28.3022 43.2456 28.313 43.2446C29.4096 43.1765 30.5257 43.0674 31.7254 42.9123C31.8579 42.8953 31.9786 42.8232 32.0595 42.7141C32.1413 42.605 32.1754 42.4658 32.1569 42.3297C32.016 41.3399 31.8934 40.3518 31.7767 39.362C32.5005 39.2747 33.2365 39.1719 33.9812 39.0525C34.1579 40.0216 34.3455 40.9981 34.5603 41.9654C34.6129 42.2016 34.8174 42.3638 35.0453 42.3638C35.0764 42.3638 35.1076 42.3608 35.1388 42.3547C36.2539 42.1386 37.4021 41.8753 38.5493 41.5751C38.6827 41.54 38.7957 41.4509 38.8629 41.3279C38.9291 41.2037 38.9438 41.0576 38.9019 40.9235C38.6266 40.0331 38.3843 39.1306 38.1539 38.2328C39.0539 38.0237 39.9537 37.8058 40.8214 37.5625C40.9538 37.5255 41.0658 37.4333 41.1301 37.3083C41.1944 37.1842 41.2061 37.0371 41.1622 36.9039C40.833 35.905 40.5448 34.9041 40.3062 33.9272C40.24 33.659 39.976 33.4918 39.715 33.5519C38.8918 33.7344 38.0703 33.892 37.2487 34.0429C37.1225 33.3259 37.0103 32.5993 36.9127 31.8672C37.6998 31.7662 38.4865 31.6624 39.2739 31.5391C39.4063 31.5192 39.5242 31.444 39.603 31.3329C39.6809 31.2218 39.7131 31.0827 39.6907 30.9476C39.528 29.9506 39.4044 28.9508 39.3235 27.9738C39.3011 27.6926 39.0362 27.4844 38.7889 27.5054C38.0329 27.5651 37.278 27.6166 36.5226 27.6648C36.4859 26.9533 36.464 26.2346 36.4567 25.5127H38.702C38.9777 25.5127 39.2007 25.2835 39.2007 25.0002C39.2007 24.0168 39.2415 23.0164 39.3233 22.027C39.335 21.8909 39.2922 21.7558 39.2064 21.6516C39.1198 21.548 38.997 21.4834 38.8646 21.473C38.1049 21.413 37.3454 21.3616 36.5854 21.3131C36.6367 20.6025 36.7041 19.8802 36.7872 19.15C37.5658 19.2498 38.344 19.3528 39.1237 19.4742C39.149 19.4782 39.1743 19.4802 39.1997 19.4802C39.4383 19.4802 39.6486 19.303 39.6905 19.0539C39.8521 18.0744 40.0586 17.0715 40.3031 16.0742C40.3362 15.9391 40.3148 15.7964 40.2437 15.6783C40.1726 15.5603 40.0577 15.4772 39.9252 15.4476C39.0953 15.263 38.262 15.1035 37.4348 14.9515C37.5789 14.214 37.7371 13.4825 37.9083 12.7612C38.796 12.9663 39.6865 13.1824 40.5583 13.4263ZM36.9347 37.4572C36.2166 37.6127 35.4977 37.7536 34.7823 37.8793C34.6511 37.1134 34.53 36.3317 34.4198 35.5385C35.0916 35.4452 35.77 35.3405 36.4516 35.2238C36.5976 35.975 36.7597 36.7206 36.9347 37.4572ZM12.8783 12.5414C13.5904 12.3876 14.3064 12.2471 15.0227 12.1212C15.1539 12.8883 15.2751 13.6699 15.3852 14.461C14.7075 14.5555 14.031 14.6601 13.3594 14.7747C13.2181 14.0467 13.0573 13.3005 12.8783 12.5414ZM33.2965 34.6544C32.6466 34.738 31.9897 34.8112 31.3289 34.874C31.2631 34.0605 31.2053 33.2471 31.1554 32.4345C31.7822 32.3925 32.409 32.3439 33.0354 32.2887C33.1111 33.0912 33.1984 33.8813 33.2965 34.6544ZM16.509 15.3449C17.1575 15.262 17.8136 15.1891 18.4744 15.1265C18.5412 15.9396 18.5996 16.7531 18.6494 17.5661C18.0232 17.6077 17.3965 17.6564 16.7699 17.7116C16.6942 16.9098 16.607 16.1194 16.509 15.3449ZM32.7943 21.1005C32.1937 21.0739 31.5934 21.0508 30.9933 21.0313C31.0194 20.2174 31.0543 19.403 31.0974 18.5891C31.7152 18.6305 32.3332 18.6785 32.9511 18.7329C32.8857 19.5291 32.8332 20.3202 32.7943 21.1005ZM17.0109 28.8991C17.6112 28.9263 18.2115 28.9496 18.8118 28.9688C18.7858 29.7827 18.7509 30.597 18.7077 31.4113C18.0898 31.3698 17.4718 31.322 16.854 31.2672C16.9185 30.4822 16.9711 29.6913 17.0109 28.8991ZM17.0621 22.1242C17.6552 22.0978 18.2481 22.075 18.8409 22.056C18.8612 22.8665 18.8728 23.6768 18.8761 24.4873H17.1151C17.1098 23.6849 17.0921 22.8955 17.0621 22.1242ZM22.637 24.4873C22.6353 23.6465 22.6291 22.8059 22.6183 21.9649C23.2132 21.9566 23.8081 21.9516 24.403 21.9498V24.4873H22.637ZM25.4002 25.5122H27.1667C27.1683 26.3533 27.1745 27.1936 27.1853 28.0348C26.5903 28.0432 25.9952 28.0483 25.4002 28.0503V25.5122ZM19.8381 27.9754C19.8585 27.1543 19.8701 26.3333 19.8735 25.5124H21.6397C21.638 26.3479 21.6319 27.183 21.6211 28.0185C21.0271 28.0083 20.4328 27.9941 19.8381 27.9754ZM28.1639 24.4873C28.1655 23.6519 28.1716 22.8168 28.1826 21.9812C28.7773 21.9915 29.3723 22.0057 29.967 22.0243C29.9468 22.8453 29.9353 23.6665 29.932 24.4873H28.1639ZM21.6068 20.9564C21.0079 20.9668 20.4085 20.9812 19.8088 21.0002C19.7822 20.1759 19.7468 19.3513 19.7029 18.5272C20.3204 18.4919 20.938 18.4632 21.5553 18.4411C21.5765 19.2801 21.5938 20.1187 21.6068 20.9564ZM28.1967 29.0434C28.7966 29.0333 29.3963 29.0193 29.9961 29.0003C30.0227 29.8242 30.0585 30.6487 30.1021 31.4732C29.4842 31.5084 28.8662 31.5368 28.2479 31.5586C28.2266 30.7198 28.2095 29.8812 28.1967 29.0434ZM27.1995 20.9399C26.6 20.9316 26.0001 20.9267 25.4002 20.9248V18.3811C26.017 18.3846 26.6339 18.3942 27.2507 18.4101C27.2294 19.2539 27.2124 20.0973 27.1995 20.9399ZM22.6041 29.0597C23.2037 29.0682 23.8033 29.0733 24.403 29.0752V31.619C23.7862 31.6154 23.1693 31.6056 22.5525 31.5897C22.5737 30.7463 22.591 29.9027 22.6041 29.0597ZM30.9293 25.5122H32.6895C32.6949 26.3129 32.7131 27.1025 32.7436 27.8763C32.1506 27.9024 31.5576 27.9251 30.9642 27.9442C30.9441 27.1336 30.9326 26.323 30.9293 25.5122ZM30.1602 17.5041C29.5322 17.468 28.9043 17.4389 28.2763 17.4163C28.3018 16.5777 28.3313 15.7395 28.3658 14.9009C29.0084 14.9336 29.6659 14.9774 30.3359 15.0324C30.2694 15.8562 30.2106 16.6803 30.1602 17.5041ZM24.403 17.3562C23.7766 17.3596 23.1502 17.3694 22.5239 17.3853C22.498 16.5422 22.4683 15.6998 22.4334 14.8567C23.0755 14.832 23.733 14.8171 24.403 14.8122V17.3562ZM19.6446 32.4963C20.272 32.532 20.8995 32.5611 21.5266 32.5835C21.5013 33.4218 21.4718 34.2599 21.4369 35.0988C20.7999 35.0667 20.1455 35.0232 19.4675 34.968C19.5354 34.1437 19.5943 33.3197 19.6446 32.4963ZM25.4002 32.6439C26.0266 32.6403 26.653 32.6305 27.2794 32.6145C27.3049 33.458 27.3347 34.3009 27.3702 35.1439C26.7345 35.1682 26.08 35.1829 25.4002 35.1877V32.6439ZM16.0659 27.8289C15.4687 27.7988 14.8718 27.7653 14.2756 27.7275C14.3137 26.9961 14.3365 26.2563 14.3438 25.5124H16.118C16.1127 26.2991 16.0952 27.0727 16.0659 27.8289ZM33.6866 24.4873C33.6918 23.7025 33.7094 22.9291 33.739 22.1715C34.3352 22.2014 34.9313 22.2346 35.5271 22.2722C35.4891 23.0048 35.4664 23.7444 35.4592 24.4873H33.6866ZM33.7976 11.9561C33.6651 12.7324 33.5427 13.5253 33.4312 14.3295C32.767 14.2445 32.0941 14.1701 31.416 14.1059C31.4897 13.2891 31.5711 12.4726 31.6608 11.656C32.3662 11.7414 33.08 11.8415 33.7976 11.9561ZM27.5359 11.3031C27.4906 12.1456 27.4495 12.9886 27.4125 13.8327C26.7563 13.8075 26.0846 13.7923 25.4002 13.7872V11.2414C26.1269 11.248 26.8399 11.2687 27.5359 11.3031ZM21.3939 13.8771C20.7367 13.9105 20.0645 13.9553 19.3802 14.0116C19.3069 13.1894 19.2245 12.3672 19.1341 11.545C19.8536 11.4711 20.5674 11.4117 21.2718 11.367C21.3167 12.203 21.3577 13.0396 21.3939 13.8771ZM14.0057 19.0266C14.624 18.9525 15.2424 18.8856 15.8605 18.8255C15.9239 19.5951 15.9756 20.3707 16.0146 21.1479C15.4134 21.1781 14.8126 21.2116 14.2126 21.2493C14.1598 20.5127 14.0905 19.7705 14.0057 19.0266ZM15.7765 32.1958C15.7021 32.9842 15.6167 33.7615 15.5202 34.5232C14.8658 34.4326 14.2064 34.3309 13.5452 34.2183C13.6774 33.4652 13.7921 32.7213 13.8885 31.9909C14.5181 32.0668 15.1475 32.135 15.7765 32.1958ZM16.0057 38.0516C16.1395 37.2708 16.2628 36.4754 16.3746 35.6707C17.0402 35.7558 17.7122 35.8305 18.3873 35.8946C18.3143 36.7132 18.2324 37.5322 18.1419 38.3514C17.4192 38.2644 16.7057 38.1642 16.0057 38.0516ZM22.39 36.1672C23.0398 36.1925 23.7085 36.2077 24.403 36.2125V38.7582C23.6737 38.7518 22.9604 38.7314 22.2667 38.697C22.3125 37.8545 22.3537 37.0113 22.39 36.1672ZM28.4095 36.1235C29.0609 36.0904 29.7297 36.0459 30.4228 35.9889C30.4969 36.8134 30.5791 37.6379 30.6694 38.4626C29.9698 38.5352 29.2558 38.5948 28.5314 38.6409C28.4862 37.8021 28.4454 36.9633 28.4095 36.1235ZM35.7973 30.9736C35.1795 31.0477 34.5619 31.1145 33.9447 31.1746C33.8805 30.393 33.8291 29.6169 33.7912 28.8517C34.3907 28.8214 34.9907 28.7881 35.5902 28.7504C35.6425 29.4807 35.712 30.2231 35.7973 30.9736ZM34.0285 17.8044C34.1031 17.014 34.1888 16.2365 34.2851 15.4766C34.9464 15.5686 35.6079 15.6711 36.2661 15.7834C36.1372 16.5182 36.022 17.2617 35.9224 18.0101C35.2911 17.934 34.6598 17.8655 34.0285 17.8044Z" fill="#081219"/>
</svg>
