<svg width="50" height="50" viewBox="0 0 50 50" fill="none" xmlns="http://www.w3.org/2000/svg">
<path d="M39.0186 37.2733L40.2504 37.506C40.2582 37.507 40.2659 37.508 40.2737 37.508C40.3322 37.508 40.3847 37.4661 40.3964 37.4067C40.409 37.3385 40.3643 37.2733 40.2971 37.2606L38.8247 36.9824C38.1116 35.9278 37.4438 34.8954 36.8125 33.8794L38.1759 34.0946C38.1827 34.0966 38.1896 34.0966 38.1954 34.0966C38.2557 34.0966 38.3084 34.0528 38.318 33.9914C38.3287 33.9232 38.2829 33.86 38.2148 33.8492L36.6378 33.6003C36.0036 32.5708 35.4044 31.5554 34.851 30.5565L36.2925 30.7367C36.2984 30.7377 36.3031 30.7377 36.308 30.7377C36.3704 30.7377 36.4239 30.692 36.4317 30.6286C36.4405 30.5604 36.3918 30.4981 36.3236 30.4894L34.7065 30.2872C34.1565 29.2841 33.6485 28.2935 33.1764 27.312L34.596 27.4403C34.5999 27.4413 34.6038 27.4413 34.6077 27.4413C34.672 27.4413 34.7255 27.3926 34.7313 27.3283C34.7381 27.2592 34.6875 27.1988 34.6193 27.193L33.0491 27.0511C32.5866 26.077 32.1587 25.1092 31.7692 24.1469L33.0837 24.2173C33.0857 24.2173 33.0886 24.2173 33.0905 24.2173C33.1567 24.2173 33.2112 24.1657 33.2151 24.0995C33.219 24.0309 33.1655 23.9719 33.0972 23.968L31.6702 23.8917C31.2937 22.9467 30.9521 22.004 30.6425 21.0616L31.7514 21.0772C31.7524 21.0772 31.7524 21.0772 31.7534 21.0772C31.8216 21.0772 31.877 21.0226 31.878 20.9545C31.879 20.8854 31.8235 20.8289 31.7554 20.8279L30.5583 20.8111C30.2629 19.8949 29.9937 18.977 29.7581 18.055L30.5975 18.0305C30.6657 18.0285 30.7201 17.9711 30.7183 17.9025C30.7163 17.8348 30.6608 17.7812 30.5936 17.7812C30.5926 17.7812 30.5916 17.7812 30.5897 17.7812L29.6996 17.8073C29.4781 16.9202 29.2865 16.0263 29.1172 15.1264L29.6149 15.0876C29.6831 15.0822 29.7347 15.0224 29.7298 14.9537C29.7239 14.8851 29.6626 14.8241 29.5954 14.8393L29.0706 14.8802C28.9137 14.0212 28.7746 13.1553 28.6623 12.2782L28.8026 12.2591C28.8708 12.2498 28.9185 12.1865 28.9097 12.1184C28.8999 12.0497 28.8337 12.002 28.7695 12.0118L28.627 12.0312C28.4452 10.5543 28.3225 9.04808 28.2573 7.49689C28.2544 7.44085 28.2154 7.39318 28.1599 7.38051C28.1043 7.36835 28.0489 7.39468 28.0225 7.44334C27.6404 8.15975 27.2844 8.74582 26.9437 9.23616C26.8535 8.71232 26.7624 8.19027 26.6767 7.65515C26.666 7.58654 26.5998 7.53977 26.5345 7.55144C26.4663 7.56261 26.4196 7.62643 26.4313 7.69464C26.5305 8.31402 26.6349 8.92014 26.7402 9.52466C26.6442 9.653 26.5505 9.76499 26.4571 9.87578C26.3971 9.20495 26.3409 8.52763 26.2911 7.83784C26.2862 7.76963 26.2277 7.71997 26.1576 7.72246C26.0885 7.72735 26.0369 7.78679 26.0417 7.8554C26.0978 8.62835 26.1604 9.38794 26.229 10.1375C26.118 10.2542 26.0082 10.3624 25.9001 10.4543C25.8983 9.6556 25.9034 8.84754 25.9201 8.02143C25.9211 7.95282 25.8665 7.89578 25.7983 7.89439C25.7973 7.89439 25.7963 7.89439 25.7954 7.89439C25.7272 7.89439 25.6718 7.94844 25.6708 8.01665C25.6528 8.90727 25.6491 9.77596 25.6526 10.635C25.5332 10.717 25.4146 10.7838 25.2973 10.8356C25.3769 9.97331 25.4651 9.10133 25.5716 8.20602C25.5793 8.13781 25.5307 8.07548 25.4625 8.06771C25.3933 8.06432 25.3319 8.10859 25.3241 8.1768C25.2125 9.1151 25.1211 10.0279 25.0389 10.9303C24.9437 10.9551 24.8486 10.9789 24.7539 10.9844C24.7384 10.9854 24.7224 10.9817 24.7069 10.9821C24.8731 10.1326 25.0493 9.27326 25.2473 8.39051C25.2618 8.3233 25.22 8.25658 25.1528 8.24152C25.0876 8.22646 25.0184 8.26925 25.0038 8.33596C24.8027 9.23347 24.6239 10.1066 24.4553 10.97C24.341 10.9527 24.2251 10.921 24.1075 10.875C24.3209 10.1195 24.5434 9.35513 24.7832 8.5722C24.8032 8.50649 24.7662 8.43688 24.7005 8.41644C24.6353 8.39889 24.5655 8.43349 24.5447 8.49921C24.3091 9.26867 24.0896 10.0207 23.8794 10.7637C23.7978 10.7198 23.7148 10.6669 23.6313 10.6094C23.8616 9.99964 24.0998 9.38215 24.3485 8.7539C24.3738 8.69008 24.3426 8.61758 24.2783 8.59225C24.2131 8.56792 24.142 8.59813 24.1167 8.66235C23.876 9.27056 23.646 9.86771 23.4224 10.4586C23.3731 10.4187 23.3223 10.3704 23.2722 10.3258C23.4932 9.86571 23.7139 9.40599 23.9463 8.935C23.9765 8.87317 23.9512 8.79868 23.8893 8.76796C23.8299 8.73874 23.753 8.76307 23.7223 8.8249C23.5008 9.27396 23.2908 9.71194 23.0796 10.1511C23.0528 10.1247 23.0249 10.0922 22.9979 10.0645C23.1834 9.74794 23.3609 9.4389 23.5529 9.11609C23.588 9.05666 23.5684 8.98027 23.5095 8.94517C23.45 8.90967 23.3737 8.92911 23.3386 8.98855C23.1591 9.29041 22.9934 9.57911 22.8196 9.87548C22.5485 9.57492 22.2668 9.21811 21.9699 8.7904C21.944 8.7534 21.8978 8.73246 21.8559 8.73735C21.8106 8.74173 21.7716 8.76996 21.7537 8.81134C21.0629 10.3764 20.4002 11.8535 19.7524 13.2701C19.7225 13.2955 19.7027 13.3292 19.7061 13.3707C19.342 14.1662 18.9826 14.9396 18.6269 15.6946L17.9216 15.7496C17.853 15.755 17.8018 15.8148 17.8072 15.8835C17.8121 15.9487 17.8667 15.9984 17.9314 15.9984C17.9343 15.9984 17.9377 15.9984 17.9411 15.9979L18.5051 15.9539C18.149 16.707 17.7949 17.4477 17.4433 18.1651L16.1697 18.2022C16.1006 18.2041 16.0465 18.2616 16.0484 18.3302C16.0504 18.3979 16.1058 18.4515 16.1731 18.4515C16.1741 18.4515 16.1755 18.4515 16.1765 18.4515L17.3181 18.4182C16.9493 19.1673 16.5813 19.8949 16.213 20.6104L14.5526 20.5871C14.5516 20.5871 14.5511 20.5871 14.5506 20.5871C14.4824 20.5871 14.4269 20.6417 14.4259 20.7098C14.4249 20.7789 14.48 20.8354 14.5486 20.8364L16.0853 20.858C15.7095 21.5841 15.3328 22.2997 14.9525 22.9971L13.0662 22.8958C12.9922 22.9075 12.9386 22.946 12.9348 23.0137C12.9314 23.0828 12.9839 23.1412 13.0526 23.1451L14.8188 23.2397C14.4355 23.9384 14.0469 24.6223 13.6541 25.2984L11.7078 25.1226C11.7039 25.1216 11.7 25.1216 11.6966 25.1216C11.6328 25.1216 11.5782 25.1703 11.5724 25.2346C11.5662 25.3037 11.6167 25.3642 11.6854 25.3699L13.5162 25.5354C13.1308 26.1944 12.7412 26.8474 12.3418 27.4909L10.474 27.2573C10.4024 27.2417 10.3431 27.2972 10.3348 27.3654C10.326 27.4336 10.3747 27.4959 10.4429 27.5046L12.1953 27.7237C11.8105 28.3392 11.4155 28.9488 11.0136 29.5555L9.36038 29.2945C9.29028 29.277 9.22845 29.3296 9.21768 29.3978C9.20691 29.4659 9.25318 29.5292 9.32139 29.54L10.862 29.7831C10.4836 30.3501 10.0974 30.9155 9.70074 31.4793L8.36395 31.2267C8.28796 31.2189 8.23102 31.2598 8.21786 31.326C8.20519 31.3942 8.24997 31.4594 8.31718 31.4721L9.54437 31.704C8.84811 32.6865 8.12232 33.668 7.35595 34.6585C7.32623 34.6965 7.32135 34.7481 7.34279 34.791C7.36473 34.8339 7.4114 34.865 7.45717 34.8592C9.04646 34.8244 10.5711 34.8239 12.0506 34.8579C11.965 35.1698 11.8787 35.4808 11.7947 35.7951C11.7767 35.8613 11.8162 35.9295 11.8829 35.948C11.8935 35.9509 11.9043 35.9519 11.915 35.9519C11.97 35.9519 12.0207 35.9149 12.0353 35.8593C12.1244 35.5255 12.2161 35.1953 12.307 34.8642C13.3186 34.8904 14.3035 34.9395 15.2762 35.0009C15.2026 35.5098 15.1303 36.0211 15.0625 36.5429C15.0538 36.6111 15.102 36.6734 15.1701 36.6821C15.1755 36.6831 15.1808 36.6831 15.1862 36.6831C15.248 36.6831 15.3016 36.6373 15.3099 36.574C15.3782 36.0472 15.4512 35.531 15.5255 35.0174C16.4886 35.0816 17.4394 35.1605 18.3747 35.2617C18.3575 35.9271 18.3461 36.601 18.3424 37.2878C18.3419 37.3569 18.3975 37.4135 18.4666 37.4135C18.5352 37.4135 18.5912 37.3579 18.5917 37.2898C18.5954 36.6107 18.6065 35.9442 18.6235 35.286C19.5668 35.3916 20.498 35.5221 21.4237 35.6678C21.4915 36.4438 21.567 37.2286 21.6574 38.0329C21.6642 38.0972 21.7183 38.1439 21.7811 38.1439C21.7855 38.1439 21.7904 38.1439 21.7952 38.1429C21.8635 38.1351 21.9126 38.0738 21.9048 38.0055C21.8171 37.2253 21.7433 36.4631 21.6769 35.7096C22.6119 35.8609 23.5427 36.0316 24.4709 36.2264C24.6351 37.0627 24.809 37.9085 25.0036 38.7769C25.0163 38.8353 25.068 38.8743 25.1254 38.8743C25.1342 38.8743 25.1439 38.8733 25.1526 38.8714C25.2198 38.8559 25.2617 38.7897 25.2471 38.7225C25.0608 37.8915 24.8932 37.0809 24.735 36.2794C25.6441 36.4743 26.5543 36.6935 27.4675 36.9325C27.7014 37.7797 27.9454 38.6367 28.2105 39.5162C28.2271 39.5697 28.2767 39.6048 28.3303 39.6048C28.342 39.6048 28.3546 39.6028 28.3663 39.5999C28.4325 39.5795 28.4695 39.5104 28.4501 39.4442C28.2005 38.6163 27.9689 37.8077 27.747 37.0086C28.6763 37.2563 29.6122 37.5273 30.5569 37.823C30.8398 38.6211 31.133 39.4292 31.4437 40.2553C31.4623 40.305 31.51 40.3362 31.5606 40.3362C31.5752 40.3362 31.5898 40.3333 31.6044 40.3284C31.6687 40.3041 31.7018 40.232 31.6774 40.1677C31.3901 39.4037 31.116 38.6535 30.8524 37.9136C31.8167 38.2201 32.7946 38.5535 33.7866 38.9122C34.0818 39.5966 34.3846 40.2882 34.7002 40.9927C34.7206 41.0394 34.7664 41.0666 34.8142 41.0666C34.8317 41.0666 34.8483 41.0628 34.8648 41.056C34.9282 41.0278 34.9564 40.9538 34.9282 40.8914C34.6461 40.262 34.3774 39.646 34.1118 39.0328C35.1253 39.4039 36.1565 39.8013 37.2109 40.2293C37.4625 40.7271 37.7109 41.2218 37.9734 41.73C37.9958 41.7729 38.0396 41.7972 38.0844 41.7972C38.1038 41.7972 38.1234 41.7923 38.1418 41.7836C38.2032 41.7514 38.2266 41.6765 38.1954 41.6151C37.9776 41.1934 37.773 40.7842 37.5626 40.3697C39.1474 41.0196 40.7831 41.7312 42.494 42.5159C42.5106 42.5237 42.5282 42.5276 42.5457 42.5276C42.5827 42.5276 42.6187 42.511 42.6431 42.4808C42.6782 42.437 42.6801 42.3737 42.6451 42.3279C41.3308 40.5804 40.1282 38.9028 39.0186 37.2733ZM38.4792 36.9172L35.6002 36.3732C35.1362 35.3935 34.693 34.429 34.2702 33.4781L36.4868 33.8281C37.1122 34.8399 37.7729 35.8676 38.4792 36.9172ZM19.1031 28.3362C19.1924 27.5746 19.2967 26.8196 19.4115 26.0681L21.2 26.2298C21.1624 27.012 21.1344 27.7966 21.1267 28.5892L19.1031 28.3362ZM24.6985 18.2025C24.7017 19.0515 24.7269 19.892 24.7627 20.7298L23.4675 20.7117C23.5087 19.8905 23.5625 19.0661 23.6394 18.2334L24.6985 18.2025ZM23.1406 23.435L21.6534 23.3554C21.7315 22.5522 21.8319 21.747 21.9435 20.9397L23.2054 20.9574C23.1675 21.7853 23.1425 22.611 23.1406 23.435ZM23.4555 20.9609L24.7745 20.9794C24.8143 21.8323 24.8679 22.6826 24.9422 23.5316L23.3905 23.4485C23.3921 22.6211 23.4174 21.7921 23.4555 20.9609ZM23.1407 23.6851C23.1425 24.5087 23.1676 25.334 23.2056 26.1615L21.4618 26.004C21.5036 25.2021 21.5586 24.4026 21.6327 23.6045L23.1407 23.6851ZM23.391 23.6985L24.9615 23.7826C25.0397 24.6352 25.1414 25.4898 25.2551 26.3467L23.457 26.1843C23.4184 25.3536 23.393 24.5252 23.391 23.6985ZM25.2134 23.796L26.7685 23.8792C26.9237 24.761 27.0993 25.6445 27.2897 26.5305L25.5107 26.3698C25.3957 25.5097 25.2923 24.6518 25.2134 23.796ZM25.1939 23.5449C25.1187 22.6926 25.065 21.839 25.0248 20.9828L26.3268 21.001C26.4441 21.8785 26.5763 22.7535 26.7268 23.6269L25.1939 23.5449ZM25.013 20.7333C24.9768 19.892 24.9512 19.0479 24.9481 18.1952L25.9999 18.1645C26.0812 19.0332 26.1811 19.8941 26.2925 20.7512L25.013 20.7333ZM23.2174 20.7082L21.979 20.6908C22.0932 19.8891 22.2207 19.0837 22.3686 18.2705L23.388 18.2407C23.3119 19.0695 23.2583 19.8906 23.2174 20.7082ZM21.7272 20.6874L20.475 20.6698C20.6634 19.8877 20.8659 19.1013 21.0864 18.308L22.1139 18.2779C21.9674 19.0872 21.8405 19.8892 21.7272 20.6874ZM21.6918 20.9362C21.5811 21.7402 21.4816 22.542 21.404 23.3421L19.9022 23.2617C20.057 22.4823 20.2291 21.7014 20.4147 20.9182L21.6918 20.9362ZM21.3834 23.591C21.3096 24.3862 21.2548 25.1827 21.2131 25.9814L19.4507 25.8222C19.5718 25.0492 19.7059 24.2786 19.8556 23.5092L21.3834 23.591ZM21.4487 26.2522L23.2177 26.4121C23.2587 27.2272 23.3122 28.0456 23.388 28.872L21.3756 28.6204C21.3831 27.8248 21.411 27.0372 21.4487 26.2522ZM23.4691 26.4347L25.2897 26.5992C25.4056 27.4473 25.5359 28.2993 25.6872 29.1594L23.6411 28.9036C23.5644 28.0741 23.5107 27.2528 23.4691 26.4347ZM25.5453 26.6224L27.346 26.7851C27.5387 27.6663 27.7475 28.5521 27.9765 29.4457L25.9462 29.1918C25.7932 28.3284 25.6624 27.4735 25.5453 26.6224ZM27.6072 26.8086L29.3866 26.9695C29.6576 27.8839 29.947 28.8036 30.2551 29.7306L28.2421 29.4789C28.0112 28.5817 27.8015 27.693 27.6072 26.8086ZM27.5508 26.5542C27.3586 25.6647 27.1805 24.7779 27.0239 23.8929L28.5579 23.975C28.791 24.886 29.041 25.7982 29.3092 26.713L27.5508 26.5542ZM26.9823 23.6406C26.8306 22.7638 26.6977 21.8854 26.5794 21.0046L27.863 21.0226C28.0578 21.9249 28.2686 22.8241 28.4951 23.7216L26.9823 23.6406ZM26.5452 20.7549C26.4328 19.8941 26.3318 19.0298 26.2499 18.1573L27.2903 18.1269C27.4487 19.0151 27.6215 19.8963 27.8077 20.7725L26.5452 20.7549ZM26.2294 17.9083C26.1535 17.07 26.0936 16.2218 26.0445 15.3657L26.8384 15.3038C26.9636 16.1708 27.0994 17.0294 27.2482 17.8786L26.2294 17.9083ZM25.9795 17.9156L24.9502 17.9456C24.9501 17.1222 24.9689 16.2883 24.9988 15.4472L25.7956 15.3851C25.8446 16.237 25.9042 17.0813 25.9795 17.9156ZM24.7004 17.9529L23.6627 17.9832C23.7405 17.1746 23.8402 16.3553 23.9516 15.5289L24.7484 15.4668C24.7189 16.3037 24.7004 17.1334 24.7004 17.9529ZM23.4106 17.9905L22.4116 18.0197C22.559 17.2264 22.729 16.4215 22.909 15.6102L23.6968 15.5487C23.5866 16.3707 23.4876 17.1861 23.4106 17.9905ZM22.1569 18.0271L21.1545 18.0565C21.374 17.2775 21.6129 16.4884 21.8647 15.6916L22.6486 15.6305C22.4703 16.4374 22.303 17.2376 22.1569 18.0271ZM20.8938 18.0639L19.8864 18.0934C20.1807 17.3285 20.4914 16.5553 20.8178 15.7732L21.5959 15.7126C21.3466 16.5049 21.1114 17.2889 20.8938 18.0639ZM20.8258 18.3154C20.6073 19.1048 20.4058 19.8876 20.2189 20.6661L18.9537 20.6484C19.2178 19.8857 19.4969 19.1186 19.7915 18.3456L20.8258 18.3154ZM20.1585 20.9146C19.9744 21.6945 19.8042 22.4719 19.6504 23.2481L18.1309 23.1669C18.3625 22.4114 18.6069 21.6551 18.8666 20.8966L20.1585 20.9146ZM19.604 23.4958C19.4554 24.262 19.3218 25.0297 19.2014 25.7997L17.4219 25.6388C17.6212 24.8946 17.8332 24.153 18.0573 23.4129L19.604 23.4958ZM19.1621 26.0456C19.0479 26.7943 18.9442 27.5465 18.8553 28.3052L16.8188 28.0506C16.9873 27.3227 17.1656 26.6001 17.3552 25.8822L19.1621 26.0456ZM18.829 28.5532C18.7466 29.2796 18.6768 30.0142 18.6163 30.7557L16.3174 30.3928C16.4579 29.6864 16.6065 28.987 16.7642 28.295L18.829 28.5532ZM19.0768 28.5841L21.1273 28.8405C21.1229 29.6041 21.1353 30.377 21.158 31.1567L18.8636 30.7945C18.9241 30.0504 18.994 29.3132 19.0768 28.5841ZM21.3768 28.8717L23.411 29.1261C23.4877 29.9272 23.5863 30.739 23.6958 31.5574L21.4086 31.1963C21.3854 30.4137 21.3727 29.6381 21.3768 28.8717ZM23.6656 29.1579L25.7299 29.4161C25.8806 30.2537 26.0538 31.1026 26.2388 31.9588L23.9534 31.598C23.8426 30.7765 23.7434 29.9619 23.6656 29.1579ZM25.9897 29.4485L28.041 29.705C28.2683 30.5799 28.5163 31.4652 28.7795 32.3598L26.5041 32.0006C26.3174 31.1413 26.1418 30.289 25.9897 29.4485ZM28.3067 29.7382L30.3409 29.9926C30.6474 30.9051 30.9728 31.8274 31.3174 32.7605L29.0532 32.4031C28.7877 31.5053 28.5358 30.6158 28.3067 29.7382ZM30.6147 30.0268L32.633 30.2792C33.0209 31.23 33.4259 32.189 33.8538 33.1608L31.6008 32.8052C31.2537 31.8687 30.9235 30.9423 30.6147 30.0268ZM30.5289 29.7648C30.2181 28.8342 29.9277 27.9114 29.6545 26.9937L31.4157 27.1529C31.7666 28.1007 32.1379 29.0543 32.5266 30.0146L30.5289 29.7648ZM29.5772 26.7372C29.307 25.8188 29.0536 24.9031 28.8187 23.989L30.3349 24.0702C30.6467 25.0104 30.9721 25.9511 31.3183 26.8946L29.5772 26.7372ZM28.7559 23.7356C28.5275 22.8345 28.3158 21.9319 28.1196 21.0262L29.3879 21.044C29.6602 21.9711 29.9492 22.8941 30.2518 23.8157L28.7559 23.7356ZM28.0643 20.7761C27.8766 19.8962 27.7019 19.0116 27.5424 18.1196L28.5724 18.0896C28.8072 18.9973 29.0524 19.8989 29.3125 20.7937L28.0643 20.7761ZM27.5004 17.8713C27.3505 17.0182 27.2142 16.1555 27.0881 15.2844L27.8787 15.2227C28.079 16.105 28.2892 16.978 28.5101 17.8418L27.5004 17.8713ZM27.0522 15.0373C26.9358 14.2156 26.8273 13.3855 26.7303 12.542L27.2883 12.4658C27.4578 13.3147 27.6369 14.1502 27.8226 14.9774L27.0522 15.0373ZM26.8027 15.0568L26.0306 15.117C25.9866 14.3052 25.952 13.4848 25.931 12.6512L26.4829 12.5758C26.5792 13.4144 26.687 14.2397 26.8027 15.0568ZM25.7816 15.1364L25.0082 15.1966C25.0395 14.3944 25.0821 13.5833 25.14 12.7591L25.6822 12.685C25.7035 13.5136 25.7379 14.3294 25.7816 15.1364ZM24.7578 15.2161L23.9864 15.2763C24.0962 14.4835 24.2191 13.6811 24.3594 12.8658L24.888 12.7936C24.8309 13.6125 24.7887 14.4189 24.7578 15.2161ZM23.7317 15.2961L22.9667 15.3559C23.1431 14.574 23.3333 13.7824 23.5404 12.9778L24.1007 12.9012C23.9621 13.7109 23.8402 14.5084 23.7317 15.2961ZM22.7062 15.3761L21.9471 15.4352C22.1935 14.664 22.4546 13.8823 22.7323 13.088L23.274 13.014C23.0693 13.8129 22.8806 14.5997 22.7062 15.3761ZM21.6784 15.4563L20.9274 15.5148C21.2477 14.7534 21.5838 13.9813 21.9364 13.1969L22.4553 13.126C22.181 13.9141 21.9221 14.6905 21.6784 15.4563ZM20.647 15.5367L19.9158 15.5937C20.3089 14.8464 20.7161 14.0866 21.1484 13.3045L21.6455 13.2365C21.2971 14.0143 20.9637 14.7812 20.647 15.5367ZM20.5374 15.795C20.2141 16.5726 19.9084 17.3404 19.6167 18.1012L18.621 18.1303C18.9873 17.3883 19.3749 16.6286 19.7798 15.8541L20.5374 15.795ZM19.5217 18.3535C19.2298 19.1224 18.952 19.8859 18.6903 20.6448L17.4298 20.627C17.7669 19.893 18.1203 19.1465 18.4944 18.3835L19.5217 18.3535ZM18.6031 20.8929C18.3455 21.6479 18.1042 22.4008 17.8742 23.1531L16.3507 23.0715C16.656 22.3513 16.9784 21.6192 17.3177 20.8748L18.6031 20.8929ZM17.8006 23.3992C17.5783 24.1363 17.367 24.8747 17.1691 25.616L15.3812 25.4544C15.6549 24.7503 15.9423 24.0381 16.2459 23.3159L17.8006 23.3992ZM17.1025 25.8594C16.9142 26.5744 16.7375 27.2944 16.57 28.0194L14.5224 27.7634C14.7656 27.0798 15.0212 26.3907 15.289 25.6954L17.1025 25.8594ZM16.5153 28.2639C16.3584 28.9533 16.2105 29.6501 16.0706 30.3538L13.7625 29.9894C13.9775 29.33 14.2016 28.6685 14.4358 28.0038L16.5153 28.2639ZM16.0219 30.5976C15.8926 31.2585 15.7691 31.9261 15.6533 32.604L13.0961 32.1208C13.286 31.4899 13.4822 30.8595 13.686 30.2288L16.0219 30.5976ZM16.2686 30.6365L18.5962 31.004C18.5414 31.7054 18.4943 32.4143 18.458 33.134L15.8984 32.6503C16.0145 31.9699 16.1387 31.2999 16.2686 30.6365ZM18.8434 31.043L21.166 31.4096C21.1903 32.1523 21.225 32.9033 21.2732 33.6659L18.705 33.1807C18.7413 32.4583 18.7885 31.747 18.8434 31.043ZM21.4166 31.4492L23.7314 31.8145C23.8394 32.5992 23.9609 33.3935 24.0988 34.1998L21.5256 33.7137C21.4765 32.9481 21.4414 32.1945 21.4166 31.4492ZM23.9889 31.8552L26.2965 32.2194C26.4774 33.0436 26.6734 33.8787 26.8865 34.7266L24.3599 34.2492C24.2204 33.4395 24.0981 32.6427 23.9889 31.8552ZM26.5618 32.2614L28.859 32.624C29.1163 33.4885 29.3906 34.3651 29.6826 35.255L27.1565 34.7777C26.9414 33.9263 26.7444 33.0886 26.5618 32.2614ZM29.1328 32.6672L31.4182 33.028C31.7554 33.9336 32.1118 34.8524 32.4866 35.7848L29.9623 35.3078C29.6677 34.4141 29.3921 33.535 29.1328 32.6672ZM31.7015 33.0726L33.9752 33.4316C34.3949 34.3787 34.8365 35.3405 35.2969 36.3158L32.7769 35.8397C32.3992 34.9032 32.0413 33.9816 31.7015 33.0726ZM36.3133 33.549L34.1486 33.2073C33.7176 32.232 33.3072 31.2683 32.9166 30.3146L34.5453 30.5182C35.0934 31.5134 35.6855 32.5242 36.3133 33.549ZM34.4014 30.2491L32.8103 30.0501C32.4185 29.086 32.0457 28.1291 31.6922 27.1779L32.8854 27.2858C33.3527 28.2635 33.8572 29.2505 34.4014 30.2491ZM32.7583 27.0247L31.5947 26.9195C31.2458 25.9724 30.9164 25.028 30.6024 24.0844L31.4955 24.1322C31.8811 25.0911 32.3006 26.0546 32.7583 27.0247ZM31.3962 23.877L30.5193 23.83C30.2145 22.9049 29.9241 21.9782 29.6497 21.0477L30.3756 21.0578C30.6822 21.9967 31.0237 22.9359 31.3962 23.877ZM30.2906 20.8073L29.5742 20.7972C29.3122 19.8986 29.0641 18.9937 28.8277 18.082L29.5054 18.0622C29.7389 18.9804 29.9985 19.8953 30.2906 20.8073ZM29.4458 17.8144L28.7654 17.8343C28.5429 16.9666 28.3315 16.0895 28.1298 15.2032L28.865 15.1458C29.033 16.0419 29.2263 16.9312 29.4458 17.8144ZM28.8173 14.8997L28.0736 14.9577C27.8865 14.1259 27.7061 13.2857 27.5355 12.4319L28.4092 12.3125C28.5209 13.1852 28.6618 14.0451 28.8173 14.8997ZM28.0285 7.95392C28.0975 9.35663 28.2165 10.722 28.3817 12.0644L27.4846 12.187C27.3158 11.3326 27.1562 10.4619 27.0019 9.58C27.3303 9.13235 27.6695 8.60013 28.0285 7.95392ZM26.7961 9.85434C26.9375 10.6543 27.0842 11.4433 27.2375 12.2208L26.7001 12.2942C26.6232 11.6095 26.5529 10.9154 26.4879 10.2129C26.5896 10.1014 26.692 9.98538 26.7961 9.85434ZM26.261 10.4523C26.3207 11.0837 26.3833 11.7107 26.4526 12.328L25.9229 12.4004C25.9108 11.8622 25.9064 11.3145 25.9034 10.7653C26.0214 10.6757 26.1408 10.5689 26.261 10.4523ZM25.6555 10.9276C25.659 11.433 25.6629 11.9382 25.6742 12.4343L25.1561 12.505C25.1897 12.0473 25.2314 11.5807 25.273 11.1148C25.3998 11.0678 25.5275 11.0054 25.6555 10.9276ZM24.7686 11.2329C24.8512 11.228 24.9338 11.2066 25.0164 11.1891C24.9765 11.6418 24.9365 12.0946 24.9042 12.5395L24.4021 12.608C24.4819 12.1534 24.5707 11.6905 24.6601 11.2275C24.6961 11.228 24.7325 11.2347 24.7686 11.2329ZM24.4093 11.2104C24.3167 11.6914 24.2256 12.1714 24.1432 12.6434L23.606 12.7168C23.744 12.1877 23.8916 11.6499 24.043 11.1086C24.1661 11.1552 24.2882 11.1904 24.4093 11.2104ZM23.8127 11.0052C23.6476 11.5945 23.4888 12.1782 23.3397 12.7532L22.8235 12.8237C23.0531 12.173 23.2921 11.5143 23.5434 10.8445C23.6337 10.9039 23.7238 10.9598 23.8127 11.0052ZM23.3321 10.6964C23.0561 11.4307 22.7967 12.1501 22.5467 12.8614L22.0561 12.9285C22.4079 12.1512 22.7756 11.3608 23.1609 10.5548C23.2182 10.6039 23.2755 10.6528 23.3321 10.6964ZM22.9674 10.3819C22.5463 11.2615 22.1466 12.1224 21.7651 12.9682L21.2986 13.0319C21.7924 12.1435 22.3213 11.2225 22.8695 10.2835C22.9021 10.316 22.935 10.3511 22.9674 10.3819ZM21.8923 9.1128C22.1671 9.49644 22.4313 9.82393 22.6875 10.1008C22.0925 11.1191 21.5212 12.1152 20.9899 13.0742L20.0583 13.2014C20.6531 11.8981 21.2614 10.5404 21.8923 9.1128ZM19.9344 13.4703L20.8418 13.3463C20.415 14.1212 20.011 14.8757 19.6225 15.6165L18.9128 15.6719C19.2497 14.9552 19.5898 14.2233 19.9344 13.4703ZM18.7906 15.9313L19.4866 15.877C19.0858 16.646 18.7009 17.4015 18.3381 18.1386L17.7237 18.1565C18.0768 17.434 18.4327 16.6899 18.7906 15.9313ZM17.6008 18.4095L18.2116 18.3916C17.8402 19.1512 17.4925 19.8922 17.1577 20.6232L16.4914 20.6139C16.8611 19.8939 17.2304 19.1636 17.6008 18.4095ZM16.3637 20.8615L17.0456 20.871C16.7093 21.6114 16.3884 22.3406 16.0854 23.0574L15.2276 23.0115C15.6088 22.3103 15.9868 21.5917 16.3637 20.8615ZM15.0957 23.2544L15.9807 23.3018C15.6792 24.0211 15.3952 24.7296 15.1232 25.4312L13.9281 25.3231C14.3217 24.6437 14.7113 23.957 15.0957 23.2544ZM13.7905 25.5601L15.031 25.6722C14.7651 26.3644 14.5107 27.0509 14.2689 27.7317L12.6138 27.5248C13.0138 26.8785 13.4042 26.2223 13.7905 25.5601ZM12.4678 27.7578L14.1824 27.9722C13.9495 28.6343 13.7273 29.2931 13.5134 29.9501L11.284 29.5982C11.6865 28.9887 12.0822 28.3764 12.4678 27.7578ZM11.1331 29.826L13.4369 30.1897C13.2342 30.8178 13.0389 31.446 12.8499 32.0744L9.97009 31.5302C10.3677 30.9638 10.7541 30.3957 11.1331 29.826ZM9.86947 34.5826C9.16293 34.5826 8.44373 34.5903 7.71186 34.605C8.44632 33.6501 9.14428 32.7033 9.81432 31.755L12.7772 32.3149C12.5503 33.0759 12.331 33.8403 12.1184 34.6096C11.3808 34.5921 10.6326 34.5826 9.86947 34.5826ZM12.3742 34.6185C12.5837 33.8619 12.8001 33.11 13.0235 32.3613L15.6096 32.8501C15.5047 33.4752 15.4054 34.1092 15.3109 34.7522C14.3494 34.6914 13.3734 34.6451 12.3742 34.6185ZM15.5603 34.7673C15.6534 34.1349 15.7513 33.5115 15.8545 32.8963L18.4435 33.3855C18.4181 33.9199 18.3993 34.4627 18.3836 35.0095C17.4567 34.9097 16.5147 34.831 15.5603 34.7673ZM18.6322 35.0392C18.6476 34.4983 18.6659 33.961 18.6908 33.4321L21.288 33.9229C21.3206 34.4127 21.3609 34.9109 21.4031 35.4109C20.4877 35.2678 19.5651 35.1433 18.6322 35.0392ZM21.656 35.449C21.6137 34.9524 21.573 34.4573 21.5403 33.9707L24.1422 34.4623C24.2282 34.9551 24.3231 35.4562 24.4202 35.9589C23.502 35.768 22.5813 35.5976 21.656 35.449ZM24.685 36.0163C24.5869 35.5109 24.4903 35.0069 24.4033 34.5116L26.9522 34.9932C27.0912 35.5396 27.2397 36.0947 27.3922 36.653C26.4875 36.4185 25.586 36.2079 24.685 36.0163ZM27.6699 36.7225C27.5149 36.1579 27.3635 35.5965 27.2223 35.0443L29.7705 35.5257C29.9886 36.1845 30.2173 36.8526 30.455 37.5285C29.5197 37.2383 28.5909 36.9657 27.6699 36.7225ZM30.7515 37.6216C30.5077 36.9317 30.2736 36.2504 30.0501 35.5786L32.5963 36.0598C32.933 36.8914 33.2811 37.7328 33.6491 38.5916C32.668 38.2397 31.7062 37.9224 30.7515 37.6216ZM33.9709 38.7113C33.5917 37.83 33.2331 36.9673 32.8867 36.1147L35.4282 36.5949C35.9394 37.672 36.4754 38.7692 37.0394 39.891C35.9972 39.471 34.9737 39.0755 33.9709 38.7113ZM37.3912 40.0315C36.8107 38.8815 36.2565 37.7547 35.7314 36.6522L38.6716 37.2078C39.7389 38.7827 40.8942 40.4028 42.1524 42.0862C40.5028 41.3355 38.9246 40.6557 37.3912 40.0315Z" fill="#081219"/>
</svg>
