<svg width="50" height="50" viewBox="0 0 50 50" fill="none" xmlns="http://www.w3.org/2000/svg">
<path d="M29.3667 16.855L31.1383 12.0416L34.6575 8.96981L38.882 7.57764L43.2573 7.26627C43.2723 7.26524 43.2738 7.24823 43.2824 7.23716C43.2895 7.22845 43.3044 7.22742 43.3044 7.21523C43.3044 7.2143 43.3028 7.21451 43.3027 7.21359C43.3027 7.21266 43.3044 7.21266 43.3044 7.21174C43.3023 7.18468 43.2804 7.16418 43.2533 7.16418C43.2523 7.16418 43.2513 7.16418 43.2493 7.16418H42.3635H42.3595H39.8123H35.8216H35.8156H30.802H25.235H19.666H14.6484H10.6568H8.10495H7.21521C7.20199 7.16418 7.20045 7.17987 7.19143 7.18796C7.18159 7.19647 7.16509 7.19739 7.16407 7.21174C7.16407 7.21266 7.16571 7.21266 7.16571 7.21359C7.16571 7.21441 7.16407 7.2143 7.16407 7.21523C7.16407 7.22845 7.17975 7.22999 7.18784 7.239C7.19645 7.24884 7.19738 7.26524 7.21162 7.26627L11.5858 7.57764L15.8109 8.96981L19.3306 12.0416L21.1012 16.855L21.6006 22.2459L21.6001 27.6133L21.1017 32.9962L19.3396 37.7976L15.7964 40.8905L11.5779 42.2763L7.21162 42.5858C7.1983 42.5867 7.19789 42.6027 7.18938 42.6115C7.18026 42.6207 7.16407 42.6229 7.16407 42.6368C7.16407 42.6379 7.16591 42.6378 7.16591 42.6387C7.16591 42.6398 7.16396 42.6397 7.16407 42.6408C7.16612 42.6679 7.18856 42.6879 7.21511 42.6879H7.21859H8.10485C8.10588 42.6879 8.10731 42.6879 8.10885 42.6879H10.6566H10.6611H14.6482H14.6543H19.6658H25.2348H30.8018H35.8154H35.8214H39.808H39.812H42.3634H43.2492C43.2513 42.6879 43.2522 42.6879 43.2532 42.6879C43.2803 42.6879 43.3023 42.6679 43.3043 42.6408C43.3044 42.6397 43.3024 42.6398 43.3024 42.6387C43.3025 42.6377 43.3043 42.6379 43.3043 42.6368C43.3043 42.6239 43.2888 42.6223 43.2808 42.6134C43.2723 42.6035 43.2713 42.5868 43.2573 42.5858L38.8899 42.2761L34.6715 40.8903L31.1292 37.7974L29.3666 32.996L28.8682 27.6181V22.2502L29.3667 16.855ZM28.6912 27.5672V22.2969H28.7662V27.5672H28.6912ZM29.2808 33.0581L31.012 37.7764H30.8322L29.1863 33.0581H29.2808ZM15.8324 40.9864H15.9842L12.2554 42.2756H11.9102L15.8324 40.9864ZM19.403 37.8786H19.5404L16.2671 40.8843H15.9592L19.403 37.8786ZM21.1882 33.0581H21.2812L19.6353 37.7764H19.4566L21.1882 33.0581ZM21.7774 22.2969L21.7769 27.5672H21.7023L21.7028 22.2969H21.7774ZM21.1876 16.7924L19.4475 12.0626H19.6268L21.2812 16.7924H21.1876ZM34.6231 8.87326H34.4725L38.2096 7.57805H38.5541L34.6231 8.87326ZM31.0747 11.9606H30.9366L34.1885 8.97534H34.495L31.0747 11.9606ZM29.281 16.7924H29.1874L30.8412 12.0626H31.0211L29.281 16.7924ZM28.7709 22.1948H28.696L29.1625 16.8945H29.2604L28.7709 22.1948ZM29.0784 33.0581L30.7243 37.7764H30.0057L28.6056 33.0581H29.0784ZM21.3902 16.7924L19.7359 12.0626H20.4551L21.863 16.7924H21.3902ZM28.5931 22.1948H28.1879L28.5846 16.8945H29.0597L28.5931 22.1948ZM28.4987 33.0581L29.8988 37.7764H28.7136L27.6957 33.0581H28.4987ZM21.9697 16.7924L20.5618 12.0626H21.75L22.7724 16.7924H21.9697ZM28.0852 22.1948H27.3929L27.6816 16.8945H28.4819L28.0852 22.1948ZM27.2905 22.1948H26.3936L26.5458 16.8945H27.5793L27.2905 22.1948ZM26.2914 22.1948H25.285V16.8945H26.4436L26.2914 22.1948ZM25.183 27.5672H24.178V22.2969H25.183V27.5672ZM24.1766 27.6693H25.183V32.9561H24.0254L24.1766 27.6693ZM25.285 22.2969H26.29V27.5672H25.285V22.2969ZM26.4503 16.7924H25.2852V12.0626H26.9872L26.4503 16.7924ZM25.183 16.7924H24.0187L23.4809 12.0626H25.1829L25.183 16.7924ZM25.183 16.8945V22.1948H24.1766L24.0254 16.8945H25.183ZM24.0759 27.5672H23.1801L23.1807 22.2969H24.0759V27.5672ZM23.1776 27.6693H24.0745L23.9233 32.9561H22.8899L23.1776 27.6693ZM24.0188 33.0581H25.1831V37.7764H23.4839L24.0188 33.0581ZM25.285 33.0581H26.4493L26.9851 37.7764H25.285V33.0581ZM25.285 32.9561V27.6693H26.2914L26.4426 32.9561H25.285ZM26.3921 22.2969H27.2879L27.2889 27.5672H26.3921V22.2969ZM28.4988 16.7924H27.6966L28.7186 12.0626H29.9068L28.4988 16.7924ZM27.5918 16.7924H26.5537L27.0906 12.0626H28.6137L27.5918 16.7924ZM27.0087 11.9606H25.285L25.2861 8.97534H28.0656L27.0087 11.9606ZM25.183 11.9606H23.4599L22.403 8.97534H25.184L25.183 11.9606ZM23.9153 16.7924H22.8773L21.8548 12.0626H23.3774L23.9153 16.7924ZM23.9233 16.8945L24.0745 22.1948H23.1781L22.8899 16.8945H23.9233ZM23.0781 27.5672H22.3864L22.387 22.2969H23.0786L23.0781 27.5672ZM22.383 27.6693H23.0752L22.7875 32.9561H21.9867L22.383 27.6693ZM21.9699 33.0581H22.7724L21.7555 37.7764H20.5693L21.9699 33.0581ZM22.8773 33.0581H23.9154L23.3805 37.7764H21.8603L22.8773 33.0581ZM23.4628 37.8786H25.183L25.184 40.8843H22.3985L23.4628 37.8786ZM25.2861 40.8843L25.285 37.8786H27.0066L28.0705 40.8843H25.2861ZM26.5527 33.0581H27.5907L28.6087 37.7764H27.0885L26.5527 33.0581ZM26.5448 32.9561L26.3936 27.6693H27.2916L27.5782 32.9561H26.5448ZM27.391 27.5672L27.3899 22.2969H28.0816V27.5672H27.391ZM29.0794 16.7924H28.6056L30.0136 12.0626H30.7334L29.0794 16.7924ZM30.7847 11.9606H30.0931L32.8601 8.97534H34.0366L30.7847 11.9606ZM29.9522 11.9606H28.7728L30.7829 8.97534H32.7191L29.9522 11.9606ZM28.6503 11.9606H27.1168L28.1736 8.97534H30.6604L28.6503 11.9606ZM28.1156 8.87326H25.2861V7.57805H29.3311L28.1156 8.87326ZM25.184 8.87326H22.3529L21.138 7.57805H25.184V8.87326ZM23.3508 11.9606H21.8188L19.8097 8.97534H22.294L23.3508 11.9606ZM21.6953 11.9606H20.5159L17.7489 8.97534H19.6862L21.6953 11.9606ZM20.3759 11.9606H19.6833L16.4319 8.97534H17.6089L20.3759 11.9606ZM22.7874 16.8945L23.0756 22.1948H22.3834L21.9867 16.8945H22.7874ZM22.2844 27.5672H21.879L21.8795 22.2969H22.2849L22.2844 27.5672ZM21.8749 27.6693H22.2803L21.884 32.9561H21.4094L21.8749 27.6693ZM21.3902 33.0581H21.8629L20.4623 37.7764H19.7443L21.3902 33.0581ZM19.6923 37.8786H20.3834L17.5974 40.8843H16.419L19.6923 37.8786ZM20.5234 37.8786H21.7005L19.6773 40.8843H17.7375L20.5234 37.8786ZM21.8246 37.8786H23.3537L22.2893 40.8843H19.8014L21.8246 37.8786ZM22.3483 40.9864H25.184V42.2756H21.1362L22.3483 40.9864ZM25.2861 40.9864H28.1207L29.3329 42.2756H25.2861V40.9864ZM27.1148 37.8786H28.6449L30.668 40.8843H28.1785L27.1148 37.8786ZM28.7681 37.8786H29.9441L32.7301 40.8843H30.7913L28.7681 37.8786ZM30.0851 37.8786H30.7752L34.049 40.8843H32.8711L30.0851 37.8786ZM27.6806 32.9561L27.3939 27.6693H28.0852L28.4819 32.9561H27.6806ZM28.1837 22.2969H28.589V27.5672H28.1837V22.2969ZM34.1583 8.87326H33.098L36.2784 7.57805H37.8953L34.1583 8.87326ZM32.8266 8.87326H30.9515L33.2608 7.57805H36.007L32.8266 8.87326ZM30.7426 8.87326H28.2555L29.471 7.57805H33.052L30.7426 8.87326ZM29.4422 7.47597H25.2861V7.26627H30.3523L29.4422 7.47597ZM25.184 7.47597H21.0269L20.1164 7.26627H25.184V7.47597ZM22.2121 8.87326H19.7264L17.4172 7.57805H20.9971L22.2121 8.87326ZM19.5176 8.87326H17.6424L14.4621 7.57805H17.2083L19.5176 8.87326ZM17.37 8.87326H16.3108L12.5737 7.57805H14.1897L17.37 8.87326ZM12.2594 7.57805L15.9965 8.87326H15.8454L11.9139 7.57805H12.2594ZM16.2811 8.97534L19.5325 11.9606H19.3934L15.9732 8.97534H16.2811ZM21.884 16.8945L22.2808 22.1948H21.8755L21.4095 16.8945H21.884ZM21.6976 27.6693H21.772L21.3065 32.9561H21.2085L21.6976 27.6693ZM16.2952 40.9864H17.3591L14.1858 42.2756H12.5664L16.2952 40.9864ZM17.6297 40.9864H19.5082L17.204 42.2756H14.4564L17.6297 40.9864ZM19.7193 40.9864H22.2074L20.9952 42.2756H17.4149L19.7193 40.9864ZM21.0248 42.3776H25.184V42.5858H20.1179L21.0248 42.3776ZM25.2861 42.3776H29.4442L30.3509 42.5858H25.2861V42.3776ZM28.2606 40.9864H30.7498L33.0545 42.2756H29.4728L28.2606 40.9864ZM30.9608 40.9864H32.8388L36.0126 42.2756H33.2656L30.9608 40.9864ZM33.1084 40.9864H34.1728L37.9022 42.2756H36.2821L33.1084 40.9864ZM38.2141 42.2756L34.4848 40.9864H34.6357L38.5579 42.2756H38.2141ZM34.2019 40.8843L30.9281 37.8786H31.065L34.5083 40.8843H34.2019ZM28.5846 32.9561L28.1879 27.6693H28.5932L29.0587 32.9561H28.5846ZM38.1958 7.47597H37.4326L39.8163 7.26627H40.9962L38.1958 7.47597ZM36.264 7.47597H34.0963L35.8277 7.26627H38.6478L36.264 7.47597ZM33.2413 7.47597H29.8986L30.8087 7.26627H34.9726L33.2413 7.47597ZM19.6588 7.26627L20.5692 7.47597H17.2278L15.4971 7.26627H19.6588ZM14.6424 7.26627L16.3731 7.47597H14.205L11.8217 7.26627H14.6424ZM10.6523 7.26627L13.0357 7.47597H12.2732L9.46985 7.26627H10.6523ZM21.208 16.8945H21.3065L21.7725 22.1948H21.6985L21.208 16.8945ZM12.2537 42.3787C12.2557 42.3794 12.2578 42.3827 12.2597 42.3827C12.2624 42.3827 12.2664 42.3788 12.27 42.3776H13.0266L10.6523 42.5858H9.47713L12.2537 42.3787ZM14.2 42.3776H16.3667L14.6424 42.5858H11.8257L14.2 42.3776ZM17.2243 42.3776H20.5659L19.6589 42.5858H15.5L17.2243 42.3776ZM30.8087 42.5858L29.9021 42.3776H33.2453L34.9699 42.5858H30.8087ZM35.8277 42.5858L34.103 42.3776H36.269L38.6438 42.5858H35.8277ZM39.8163 42.5858L37.4415 42.3776H38.2018L40.9943 42.5858H39.8163ZM29.2604 32.9561H29.1614L28.6959 27.6693H28.7704L29.2604 32.9561Z" fill="#081219"/>
</svg>
