<svg width="50" height="50" viewBox="0 0 50 50" fill="none" xmlns="http://www.w3.org/2000/svg">
<path d="M42.9691 26.3116C42.6368 25.441 41.4037 24.8168 39.591 24.5743C42.7889 24.1029 42.885 23.7971 42.927 23.6637L42.944 23.5785C42.9491 23.5527 42.9451 23.526 42.934 23.502L42.909 23.4504C42.6948 22.9916 39.545 23.3486 37.1688 23.6885C39.1285 22.7955 41.5997 21.4292 41.4327 20.282C41.4027 20.0736 41.2846 19.9007 41.0834 19.7683C40.3838 19.3121 38.6572 19.3607 36.174 19.9007C37.8685 18.9167 41.3627 16.817 41.4267 16.1991C41.4358 16.112 41.4118 16.0287 41.3627 15.9712C41.3096 15.9099 41.2306 15.8646 41.0204 15.9055L41.4037 15.6606C41.4507 15.6309 41.4717 15.5754 41.4568 15.5233L41.3997 15.3208C41.3896 15.2823 41.3606 15.2511 41.3216 15.2375C41.2836 15.2219 41.2405 15.2282 41.2065 15.2497L35.9157 18.6309C37.6463 16.6028 40.4628 13.0351 39.9253 11.8713C39.8493 11.7072 39.7101 11.6021 39.5229 11.567C39.4789 11.5587 39.4309 11.5548 39.3788 11.5548C38.5171 11.5548 36.7444 12.7201 34.3873 14.8269C36.4452 12.1727 36.4031 11.8021 36.3881 11.6687C36.3771 11.5694 36.327 11.489 36.2499 11.4476C36.1558 11.3994 35.9016 11.2606 34.2822 13.1212C34.7335 12.3377 35.0679 11.638 35.0218 11.3507C35.0038 11.2411 34.9448 11.1583 34.8547 11.1213C34.3893 10.9582 32.7798 13.2107 31.5457 15.0786C32.4675 12.5398 33.5285 9.16386 32.9069 8.55864C32.8198 8.47298 32.7038 8.43738 32.5796 8.46121C31.795 8.59614 30.3567 11.1485 29.2837 13.2774C29.665 11.8312 29.9913 10.1738 29.6911 9.57193C29.5909 9.37278 29.4258 9.2919 29.2366 9.34356C28.7492 9.48277 28.1206 10.6232 27.5371 12.3689C27.7173 10.8014 27.7913 9.38983 27.5821 9.08598C27.509 8.98077 27.3889 8.94626 27.2838 8.99782C27.2137 9.03242 27.0606 9.10831 26.8164 10.1339C26.8374 9.07281 26.7873 8.14619 26.5751 7.89638C26.484 7.78828 26.3508 7.76445 26.2378 7.84333C25.8254 8.12235 25.5581 10.3982 25.4111 12.1546C25.0067 7.62075 24.6023 7.56091 24.3766 7.56091C24.3736 7.56091 24.3706 7.56091 24.3676 7.56091C24.1674 7.57697 23.7225 7.61297 23.6494 12.7648C23.3922 11.3152 22.9908 9.64014 22.4823 9.4015C22.3512 9.33917 22.1641 9.34984 22.0279 9.56514C21.7596 9.98777 21.7151 11.1642 21.8902 12.7667C21.1901 10.7148 20.4799 9.32551 20.0551 9.23835C19.915 9.20814 19.7919 9.27974 19.7238 9.42733C19.5502 9.80129 19.7488 10.8696 20.0587 12.0427C18.0279 7.62035 17.5514 7.52152 17.3832 7.48692C17.2991 7.47036 17.2216 7.49081 17.1605 7.54486C17.0178 7.6734 16.656 7.99969 18.4186 13.108C16.7536 10.3179 15.2943 8.70473 14.6001 8.91794C14.4289 8.9696 14.3119 9.12387 14.2703 9.35134C14.1527 9.99555 14.6471 11.3385 15.617 13.0545C13.7906 11.0649 12.2627 9.99505 11.6677 10.333C11.5651 10.391 11.4394 10.5146 11.4194 10.7776C11.3614 11.528 12.2867 13.0384 13.9903 15.0021C11.0456 12.7433 9.23797 11.691 8.60384 11.8507C8.47521 11.8849 8.38369 11.9652 8.33818 12.0835C8.08297 12.7487 9.57384 14.6667 12.7727 17.7913C10.1398 16.2083 7.48287 14.8931 7.03344 15.435C6.96733 15.5139 6.93833 15.6215 6.95186 15.7394C7.02494 16.3738 8.66944 17.5215 9.99016 18.3473C8.45922 17.8707 8.23507 18.1901 8.15 18.3099C8.07744 18.4126 8.0514 18.5499 8.07744 18.697C8.16948 19.2107 9.0213 20.0165 10.413 20.9076C11.4595 21.5772 12.6971 22.2204 14.0293 22.7891C11.4425 22.6655 10.0482 23.6749 9.61986 24.6491C9.40821 25.1332 9.39816 25.6639 9.5928 26.1421C10.1358 27.4802 11.7602 27.858 13.0479 27.9369C10.7839 28.6781 9.16386 29.7756 8.92516 30.7679C8.86458 31.0192 8.89615 31.2529 9.01627 31.4458C9.34261 31.9648 10.2714 32.0895 11.6286 31.8177C9.49871 32.9318 9.45966 33.2006 9.44213 33.3242C9.42963 33.407 9.44961 33.4927 9.4942 33.5511C9.82402 33.9845 13.0459 32.4399 14.84 31.5323C13.169 33.1723 12.3903 34.6156 12.6905 35.5553C12.7947 35.8815 13.0164 36.1075 13.3487 36.2273C14.1674 36.5244 15.6237 36.1221 17.3973 35.1248C14.872 38.4895 13.4958 41.305 13.6174 42.1473C13.6419 42.3217 13.7245 42.4444 13.8441 42.4921C13.8842 42.5106 13.9292 42.5193 13.9772 42.5193C14.275 42.5193 14.752 42.1288 15.4001 41.3545C15.0352 42.0937 15.0622 42.2164 15.0777 42.2866C15.0987 42.381 15.1588 42.4511 15.2343 42.4725C15.2473 42.4774 15.2713 42.4803 15.2854 42.4803C15.7093 42.4803 17.5899 39.55 18.9837 37.203C18.7385 38.2333 18.8256 38.8799 18.9688 39.2646C19.1974 39.8811 19.7079 40.1713 20.3305 40.0359C21.2929 39.8334 22.505 38.6676 23.2832 36.4978C23.0665 39.9988 23.3052 40.0544 23.4619 40.0904C23.5134 40.1089 23.5695 40.0991 23.6185 40.0679C23.7261 40.0007 23.9348 39.8703 24.3531 37.1249C24.5403 39.2634 25.0968 41.0155 25.8164 41.6008C25.9815 41.7352 26.1477 41.7936 26.3129 41.7819C26.4631 41.7682 26.6021 41.6893 26.7172 41.554C27.0665 41.142 27.1757 40.2802 27.1776 39.3891C27.5349 40.6279 27.8953 41.3106 28.2526 41.4226C28.3446 41.4498 28.5789 41.4849 28.746 41.1547C29.1744 40.3162 28.9161 37.7579 28.1524 35.035C29.3696 36.5776 30.4085 37.4482 31.0481 37.4482C31.0521 37.4482 31.0551 37.4482 31.0591 37.4482C31.2582 37.4453 31.4224 37.3586 31.5335 37.1989C31.8798 36.6993 31.6135 35.6679 31.1992 34.659C32.3713 36.1578 34.3059 38.5009 34.6873 38.2779C34.7574 38.2409 34.8054 38.1639 34.8164 38.0715C34.8295 37.9595 34.8555 37.7169 33.5033 35.9417C35.5521 37.423 37.2857 37.4823 38.1134 36.8298C38.4928 36.5308 38.69 36.0741 38.6679 35.5443C38.6459 35.0058 38.3327 33.652 36.0596 31.9839C38.1555 32.6831 41.0181 33.4826 41.9069 32.9879C42.0661 32.8992 42.1621 32.7727 42.1922 32.6119C42.3814 31.5991 39.6319 29.929 37.0234 28.5899C40.4886 29.0369 42.4874 28.2656 42.9438 27.242C43.0782 26.9436 43.0872 26.6223 42.9691 26.3116ZM35.5523 27.8668C35.5153 27.858 35.4822 27.8668 35.4522 27.8863C35.4232 27.9057 35.4031 27.9359 35.3982 27.97L35.3662 28.1833C35.3582 28.2369 35.3872 28.2894 35.4363 28.3139C40.7912 30.8858 41.8512 32.2376 41.8001 32.5083C41.7951 32.5346 41.7711 32.56 41.727 32.5843C41.1936 32.8774 38.9315 32.6019 34.3063 30.8733C34.2713 30.8587 34.2322 30.8616 34.1982 30.88C34.1652 30.8976 34.1421 30.9287 34.1342 30.9648L34.0911 31.1751C34.0811 31.2277 34.1061 31.2812 34.1531 31.3075C37.8935 33.4023 38.2478 35.0988 38.2669 35.5682C38.2859 36.0269 38.0697 36.2967 37.8846 36.4418C37.3611 36.8547 36.4312 36.8644 35.3913 36.472C34.4775 36.1253 33.0462 35.3024 31.4258 33.3489C31.3978 33.3158 31.3537 33.2933 31.3126 33.3031C31.2696 33.307 31.2315 33.3323 31.2116 33.3693L31.1204 33.5417C31.0974 33.5865 31.1034 33.6392 31.1345 33.6771C32.4547 35.2683 33.3274 36.4 33.8409 37.1255C33.0522 36.286 31.761 34.7493 30.1986 32.6321C30.1746 32.6 30.1356 32.5804 30.0945 32.5804C30.0935 32.5804 30.0924 32.5804 30.0924 32.5804C30.0504 32.5814 30.0114 32.6019 29.9874 32.636L29.8833 32.7888C29.8572 32.8278 29.8553 32.8765 29.8772 32.9174C31.3255 35.5127 31.3896 36.657 31.2214 36.8995C31.1983 36.9326 31.1563 36.9764 31.0553 36.9764C31.0542 36.9764 31.0542 36.9764 31.0532 36.9764C30.5437 36.9764 29.3297 35.9947 27.7623 33.7977L27.471 33.3897C27.4359 33.339 27.3649 33.3215 27.3088 33.3488C27.2517 33.376 27.2248 33.4403 27.2437 33.4988L27.421 34.0364C28.6631 37.8189 28.6721 40.3792 28.4009 40.9109C28.3789 40.9547 28.3629 40.9683 28.3608 40.9703C28.1146 40.8914 27.479 39.7258 26.8344 35.8712C26.8283 35.8342 26.8054 35.8021 26.7714 35.7835C26.7394 35.766 26.6973 35.7621 26.6613 35.7757L26.5201 35.8293C26.4641 35.8507 26.4311 35.9072 26.4411 35.9656C26.9806 39.1988 26.7724 40.8183 26.4302 41.2225C26.3811 41.2799 26.3321 41.3102 26.28 41.3151C26.276 41.3151 26.271 41.3151 26.266 41.3151C26.1879 41.3151 26.1068 41.2625 26.0498 41.2167C25.3782 40.6703 24.5199 38.2183 24.7155 34.4756C24.7185 34.4143 24.6755 34.3608 24.6135 34.3481L24.4694 34.3189C24.4343 34.3121 24.3983 34.3189 24.3688 34.3393C24.3398 34.3598 24.3207 34.391 24.3162 34.425C23.981 37.0983 23.7422 38.4178 23.5956 39.0644C23.5851 38.3077 23.6392 36.8235 23.8553 34.2097C23.8603 34.1503 23.8213 34.0957 23.7623 34.0801L23.6192 34.0412C23.5822 34.0314 23.5456 34.0373 23.515 34.0557C23.4845 34.0752 23.4635 34.1064 23.458 34.1424C22.949 37.3736 21.4621 39.3214 20.2566 39.5755C19.8202 39.668 19.4914 39.4888 19.3372 39.072C19.1781 38.6464 18.9819 37.3356 20.5849 34.3877C20.6083 34.3439 20.6039 34.2913 20.5729 34.2524L20.4608 34.1122C20.4342 34.0791 20.3906 34.0644 20.3486 34.0644C20.3051 34.0683 20.2665 34.0936 20.2465 34.1306C18.575 37.2041 16.9831 39.6991 16.0447 41.0207C16.4671 40.2396 17.2002 38.9629 18.4734 36.8867C18.4989 36.8438 18.4974 36.7912 18.4684 36.7513L18.3618 36.6023C18.3368 36.5672 18.3062 36.5478 18.2522 36.5488C18.2087 36.5508 18.1691 36.5731 18.1467 36.6091C15.1885 41.4346 14.1841 41.9819 14.0109 42.0432C13.9603 41.384 15.3671 38.3562 18.4378 34.4802L18.8167 34.0021C18.8547 33.9543 18.8517 33.8862 18.8087 33.8414C18.7837 33.8151 18.7496 33.8015 18.7151 33.8015C18.6906 33.8015 18.666 33.8083 18.6446 33.822L18.1906 34.1142C16.1083 35.4561 14.3471 36.0823 13.4788 35.7765C13.2641 35.7025 13.125 35.571 13.066 35.386C12.8308 34.6488 13.7881 32.8657 16.4465 30.694C16.485 30.6628 16.501 30.6112 16.4871 30.5644L16.4281 30.3638C16.4175 30.3268 16.39 30.2976 16.3545 30.2829C16.318 30.2673 16.2769 30.2702 16.2434 30.2888C13.3757 31.8177 11.428 32.664 10.4361 33.0078C11.2399 32.5112 12.8308 31.6736 15.4177 30.4962C15.4712 30.4719 15.5008 30.4153 15.4892 30.3599L15.4472 30.1486C15.4397 30.1106 15.4147 30.0785 15.3797 30.0609C15.3451 30.0444 15.3036 30.0434 15.267 30.0589C11.4891 31.7787 9.65245 31.6619 9.34118 31.1642C9.29516 31.0912 9.28563 31.0065 9.31115 30.8994C9.5148 30.0531 11.6743 28.4735 15.6614 27.7724C15.726 27.7607 15.771 27.7042 15.7661 27.6399L15.749 27.4217C15.7466 27.3866 15.7285 27.3545 15.7 27.3331C15.6704 27.3107 15.6364 27.3029 15.5984 27.3088C12.0962 27.9233 10.3687 26.9542 9.95521 25.9356C9.81459 25.5898 9.82259 25.2208 9.97725 24.8687C10.4977 23.6825 12.5941 22.7603 15.9722 23.5394C16.0062 23.5487 16.0452 23.5409 16.0748 23.5205C16.1048 23.5 16.1243 23.4684 16.1288 23.4333L16.1558 23.2176C16.1633 23.1597 16.1283 23.1046 16.0718 23.0852C11.2884 21.4199 8.57545 19.1844 8.46138 18.6103C8.5815 18.4409 9.82156 18.4662 14.064 20.6203C14.1 20.6379 14.14 20.6389 14.1775 20.6227C14.2136 20.6062 14.2395 20.5741 14.248 20.5361L14.2946 20.3276C14.3071 20.2731 14.28 20.2167 14.2285 20.1908C9.3831 17.731 7.56989 16.1431 7.36777 15.7506C7.76463 15.7136 9.88552 16.425 14.4022 19.3432C14.4357 19.3641 14.4768 19.369 14.5148 19.3573C14.5523 19.3447 14.5819 19.316 14.5949 19.279L14.6619 19.0842C14.6774 19.0384 14.6649 18.9883 14.6289 18.9547C9.59023 14.2459 8.63992 12.515 8.69844 12.2876C8.89759 12.1658 10.6632 12.7974 16.0296 17.1895C16.0615 17.2153 16.1046 17.2246 16.1436 17.2148C16.1837 17.205 16.2167 17.1768 16.2317 17.1393L16.3069 16.9513C16.325 16.9061 16.3144 16.8544 16.2793 16.8194C12.6676 13.1728 11.7828 11.3015 11.8193 10.821C11.8233 10.7684 11.8373 10.7601 11.8472 10.7542C12.3132 10.4908 14.7389 12.2087 17.9168 16.5775C17.9418 16.6121 17.9798 16.6232 18.0269 16.63C18.0704 16.628 18.11 16.6052 18.1319 16.5687L18.23 16.4065C18.2555 16.3642 18.2531 16.3111 18.2239 16.2712C15.4054 12.3963 14.5501 10.0711 14.6627 9.45375C14.6762 9.38026 14.6973 9.37388 14.7058 9.37098C15.0035 9.26917 16.6766 10.5498 19.2834 15.5204C19.3025 15.5564 19.3379 15.5812 19.3785 15.5871C19.4195 15.5934 19.4617 15.5798 19.4896 15.5506L19.6103 15.4289C19.6443 15.3948 19.6553 15.3446 19.6388 15.3003C17.8136 10.3449 17.4247 8.46141 17.4047 8.01296C17.6724 8.29876 18.6433 9.62957 21.1706 15.5993C21.1866 15.6373 21.2201 15.6645 21.2612 15.6738C21.3008 15.6826 21.3438 15.6718 21.3753 15.6446L21.501 15.5341C21.5385 15.5005 21.5525 15.4489 21.5365 15.4016C20.2434 11.6757 20.0276 10.1686 20.0576 9.75671C20.4475 10.1501 21.5921 12.4767 22.615 16.8211C22.624 16.8596 22.651 16.8912 22.688 16.9072C22.7245 16.9233 22.7681 16.9214 22.8021 16.9024L22.9392 16.8284C22.9893 16.8015 23.0148 16.7456 23.0023 16.6915C22.093 12.8332 22.0685 10.3663 22.3527 9.85165C22.6424 10.0688 23.2255 11.7838 23.6474 15.668C23.6514 15.7016 23.6689 15.7323 23.6959 15.7532C23.7244 15.7741 23.758 15.7814 23.7925 15.7785L23.9371 15.759C24.0012 15.7503 24.0482 15.6967 24.0477 15.6339C23.9901 10.1311 24.2714 8.56762 24.3956 8.14928C24.5432 8.54607 24.9115 10.0098 25.2278 15.1255C25.2318 15.1927 25.2919 15.2385 25.3589 15.2429L25.504 15.24C25.5711 15.2385 25.6261 15.1864 25.6292 15.1207C25.8123 10.8888 26.1637 9.09156 26.3519 8.49552C26.4449 9.1499 26.5079 11.0675 26.0076 15.3125C26.0006 15.3733 26.0396 15.4304 26.1006 15.4469L26.2437 15.4854C26.2807 15.4966 26.3187 15.4888 26.3498 15.4683C26.3809 15.4479 26.4008 15.4158 26.4048 15.3792C26.8083 11.9619 27.1295 10.4685 27.3077 9.83838C27.3167 10.713 27.1716 12.8466 26.489 16.5386C26.478 16.5955 26.51 16.6521 26.564 16.6749L26.7041 16.7338C26.7392 16.7489 26.7822 16.747 26.8162 16.7294C26.8503 16.7114 26.8743 16.6788 26.8813 16.6413C27.6801 12.3247 28.8852 9.92804 29.3445 9.81405C29.5077 10.1422 29.4397 11.7394 28.1465 15.6407C28.1315 15.6869 28.1455 15.7376 28.1816 15.7707L28.3067 15.8832C28.3378 15.9109 28.3808 15.9212 28.4199 15.9139C28.4599 15.9056 28.494 15.8793 28.511 15.8428C31.1974 10.0376 32.4305 8.86998 32.6477 8.92014C32.8138 9.08179 32.7728 10.8673 30.4747 16.7505L30.1504 17.5807C30.1274 17.641 30.1544 17.7087 30.2145 17.7369C30.2725 17.7652 30.3456 17.7447 30.3796 17.6902L30.819 16.9914C32.8649 13.7416 33.9989 12.3358 34.4924 11.8232C34.1471 12.5939 33.0971 14.4107 30.8881 17.4321C30.8591 17.4716 30.8561 17.5246 30.8811 17.5665L30.9782 17.7297C31.0002 17.7667 31.0402 17.79 31.0832 17.792C31.1263 17.791 31.1683 17.7744 31.1933 17.7394C33.3843 14.7424 34.9738 12.9383 35.7184 12.2308C35.2639 12.971 34.188 14.4707 32.0511 17.0398C32.02 17.0768 32.0131 17.1274 32.0341 17.1707L32.1191 17.3484C32.1372 17.3854 32.1722 17.4117 32.2132 17.4185C32.2603 17.4273 32.2973 17.4126 32.3264 17.383C36.5032 13.2348 38.7692 11.891 39.4469 12.019C39.533 12.0336 39.56 12.0721 39.572 12.0994C39.7642 12.5157 38.9684 14.5959 34.5865 19.4895L34.0931 20.0397C34.05 20.0865 34.05 20.1566 34.0931 20.2034C34.134 20.2502 34.2062 20.2594 34.2592 20.2258L34.8237 19.865C37.8815 17.912 39.6571 16.959 40.5249 16.571C39.7142 17.2098 37.8965 18.4369 34.5435 20.3038C34.4975 20.3296 34.4725 20.3812 34.4815 20.4329L34.5185 20.6442C34.5245 20.6788 34.5456 20.7094 34.5756 20.7284C34.6056 20.746 34.6426 20.7528 34.6787 20.7435C38.3871 19.7565 40.3088 19.7935 40.8764 20.1557C40.9715 20.2171 41.0255 20.2872 41.0364 20.3646C41.1085 20.8545 39.6171 22.2691 35.3092 23.9786C35.2552 23.9995 35.2231 24.0531 35.2302 24.1086L35.2562 24.3243C35.2602 24.358 35.2783 24.3891 35.3063 24.4095C35.3342 24.4295 35.3673 24.4387 35.4043 24.4323C38.8064 23.8777 40.8163 23.7073 41.8282 23.6927C40.8864 23.9177 39.0036 24.241 35.7607 24.5692C35.6927 24.5759 35.6426 24.633 35.6456 24.6987L35.6557 24.9178C35.6577 24.9524 35.6737 24.9845 35.6997 25.007C35.7268 25.0294 35.7598 25.0439 35.7968 25.0362C39.9265 24.6227 42.2196 25.5066 42.603 26.5077C42.67 26.6859 42.666 26.8495 42.5899 27.0209C42.2104 27.8698 40.0234 28.7968 35.5523 27.8668Z" fill="#081219"/>
</svg>
