<svg width="50" height="50" viewBox="0 0 50 50" fill="none" xmlns="http://www.w3.org/2000/svg">
<path d="M35.4352 20.3185C38.4975 20.1243 41.3115 22.0137 42.9128 24.6523C42.752 23.6751 42.4727 22.6883 42.0251 21.7354C40.2318 17.81 35.9536 15.6282 31.6313 15.8692C34.1836 14.2113 37.5915 14.4785 40.3342 15.9847C39.6928 15.2165 38.9439 14.498 38.0665 13.8904C34.4962 11.3633 29.6699 11.5551 26.0507 13.8665C27.409 11.189 30.4977 9.76251 33.647 9.73269C32.6968 9.37937 31.6788 9.12149 30.6068 9.02226C26.2162 8.57052 22.1351 11.0846 20.1885 14.8471C19.9889 11.8676 21.9307 9.12957 24.6427 7.57159C23.6383 7.72796 22.6241 7.9997 21.6448 8.4353C17.6103 10.18 15.3679 14.3427 15.6157 18.548C13.9116 16.0647 14.1863 12.7489 15.7344 10.0803C14.9447 10.7044 14.2063 11.4331 13.5819 12.2868C10.9845 15.7605 11.1817 20.4564 13.5573 23.9778C10.8055 22.6562 9.3393 19.651 9.30865 16.5869C8.94552 17.5114 8.68047 18.5018 8.57849 19.5448C8.1142 23.8168 10.6982 27.7875 14.5651 29.6816C11.5027 29.8757 8.68877 27.9865 7.08752 25.3477C7.24823 26.3251 7.52753 27.3118 7.97522 28.2646C9.76844 32.1901 14.0467 34.3718 18.3689 34.1308C15.8167 35.7888 12.4088 35.5216 9.66605 34.0153C10.3074 34.7836 11.0564 35.5021 11.9338 36.1096C15.5041 38.6368 20.3303 38.4449 23.9496 36.1336C22.5912 38.811 19.5026 40.2376 16.3533 40.2674C17.3035 40.6207 18.3215 40.8786 19.3935 40.9778C23.7841 41.4295 27.8651 38.9154 29.8118 35.153C30.0113 38.1325 28.0696 40.8705 25.3575 42.4285C26.3621 42.2721 27.3761 42.0004 28.3555 41.5648C32.39 39.82 34.6323 35.6574 34.3846 31.4521C36.0887 33.9354 35.814 37.2512 34.2659 39.9197C35.0555 39.2957 35.7941 38.567 36.4184 37.7133C39.0158 34.2395 38.8186 29.5437 36.443 26.0222C39.1948 27.3439 40.661 30.349 40.6916 33.4132C41.0548 32.4887 41.3198 31.4982 41.4218 30.4552C41.8861 26.1833 39.3021 22.2125 35.4352 20.3185Z" fill="#02111B"/>
</svg>
