<svg width="50" height="50" viewBox="0 0 50 50" fill="none" xmlns="http://www.w3.org/2000/svg">
<path d="M42.7506 30.6884C42.7506 30.6884 41.6836 29.8684 40.0382 28.946C41.6836 28.0235 42.7107 27.2343 42.7805 27.1831L42.8803 27.0806C42.98 26.9781 42.98 26.8244 42.8803 26.7219L42.7506 26.5989C42.7506 26.5989 41.6836 25.7789 40.0382 24.8565C41.2847 24.1493 42.1722 23.5343 42.5512 23.2576C42.601 23.2576 42.6509 23.2576 42.7008 23.2474C42.7905 23.2064 42.8504 23.1141 42.8504 23.0116V22.9091C42.8504 22.8169 42.8005 22.7246 42.7107 22.6837C42.6708 22.6632 42.621 22.6529 42.5811 22.6529C42.3218 22.4582 41.3745 21.7715 39.9384 20.9618C41.5839 20.0393 42.611 19.2501 42.6808 19.1989L42.7805 19.0964C42.7805 19.0964 42.8504 18.9837 42.8504 18.9119C42.8504 18.8402 42.8204 18.7787 42.7805 18.7274L42.6808 18.6249C42.621 18.5634 34.6531 12.6086 24.9501 12.6086C15.247 12.6086 7.37888 18.6557 7.31905 18.7172L7.21932 18.8197C7.1196 18.9222 7.1196 19.0861 7.21932 19.1784L7.34896 19.3014C7.34896 19.3014 8.416 20.1213 10.0614 21.0438C8.416 21.9662 7.38885 22.7554 7.31905 22.8066L7.21932 22.9091C7.1196 23.0116 7.1196 23.1756 7.21932 23.2679L7.34896 23.3909C7.34896 23.3909 8.416 24.2108 10.0614 25.1332C8.775 25.8609 7.86752 26.4964 7.51849 26.7526C7.41877 26.7014 7.30907 26.7219 7.2293 26.7936C7.17943 26.8449 7.15949 26.9064 7.15949 26.9781C7.15949 27.0499 7.17943 27.1114 7.2293 27.1626L7.32902 27.2651C7.32902 27.2651 7.34896 27.2856 7.35894 27.2958C7.42874 27.3471 8.44592 28.126 10.0714 29.0382C8.42597 29.9607 7.39882 30.7499 7.32902 30.8011L7.2293 30.9036C7.15949 30.9753 7.13955 31.0881 7.17943 31.1803C7.21932 31.2726 7.30907 31.3341 7.4088 31.3341H7.42874C8.37611 32.031 15.9949 37.2787 25.0598 37.2787C32.6786 37.2787 39.2703 33.6197 42.5213 31.4366C42.611 31.3751 42.6808 31.3341 42.7107 31.3136C42.7407 31.3033 42.7706 31.2828 42.7905 31.2623L42.8902 31.1598C42.99 31.0573 42.99 30.9036 42.8902 30.8011L42.7606 30.6781L42.7506 30.6884ZM25.0498 36.5817C16.9423 36.5817 10.1412 32.3077 8.2365 30.9958C8.71517 30.6576 9.62265 30.0529 10.8792 29.4379C14.16 31.2111 19.2659 33.3019 25.1495 33.3019C31.0332 33.3019 36.1091 31.2213 39.3999 29.4482C40.5567 30.2066 41.3545 30.7294 41.8332 31.0163C39.8886 32.3487 33.1174 36.5817 25.0598 36.5817H25.0498ZM24.9501 13.4183C33.0576 13.4183 39.8587 17.6922 41.7634 19.0041C41.2747 19.3424 40.3772 19.9471 39.1207 20.562C35.8398 18.7889 30.734 16.6981 24.8503 16.6981C18.9667 16.6981 13.5218 19.0861 10.7894 20.562C9.98165 20.0906 9.31351 19.6806 8.79495 19.3629C8.54564 19.2091 8.33622 19.0861 8.16669 18.9837C10.1113 17.6512 16.8825 13.4183 24.9401 13.4183H24.9501ZM25.0498 32.5845C20.8515 32.5845 16.3539 31.3956 11.647 29.0485C12.6841 28.5155 13.9207 27.9108 15.2769 27.3778C18.8371 28.6795 22.0681 29.3047 25.1495 29.3047C28.4105 29.3047 31.5817 28.6692 34.8226 27.3778C36.3684 27.9723 37.5251 28.5053 38.4825 29.0382C35.79 30.4526 30.7938 32.5845 25.0398 32.5845H25.0498ZM24.8503 17.4155C29.0487 17.4155 33.5462 18.6044 38.2531 20.9515C37.1761 21.505 35.9794 22.0994 34.6332 22.6222C31.7312 21.382 28.3008 20.6953 24.9501 20.6953C21.5994 20.6953 18.3883 21.341 15.0775 22.6222C13.5318 22.0277 12.375 21.505 11.4077 20.9618C14.1002 19.5474 19.0963 17.4155 24.8503 17.4155ZM24.9501 28.5873C22.1678 28.5873 19.1562 28.044 16.2243 26.9986C19.3157 25.9224 22.1778 25.41 24.9501 25.41C27.7224 25.41 30.744 25.9532 33.6858 26.9986C30.6941 28.0645 27.8221 28.5873 24.9501 28.5873ZM24.9501 21.4127C27.7423 21.4127 30.744 21.9559 33.6858 23.0014C30.6941 24.0673 27.8221 24.59 24.9501 24.59C22.078 24.59 19.1661 24.0468 16.2243 23.0014C19.3157 21.9355 22.1778 21.4127 24.9501 21.4127ZM28.4503 24.9487C30.5346 24.6413 32.6686 24.0878 34.8226 23.2781C36.3584 23.8726 37.5152 24.3953 38.4825 24.9385C37.3955 25.492 36.1889 26.0967 34.8226 26.6296C32.6786 25.8199 30.5445 25.2562 28.4503 24.959V24.9487ZM15.1772 23.2781C17.3213 24.0878 19.4553 24.6515 21.5495 24.9487C19.4653 25.2562 17.3312 25.8097 15.1772 26.6194C13.6415 26.0249 12.4847 25.5022 11.5174 24.959C12.6044 24.4055 13.811 23.8008 15.1772 23.2679V23.2781ZM41.8332 27.0191C41.3445 27.3573 40.447 27.9518 39.2204 28.5565C38.3229 28.0645 37.206 27.5521 35.8199 26.9986C37.206 26.4451 38.3229 25.9327 39.2105 25.4407C40.2077 25.9634 41.0055 26.4759 41.544 26.8244C41.6537 26.8961 41.7434 26.9576 41.8332 27.0089V27.0191ZM41.544 23.1756C41.0055 23.5241 40.2177 24.0366 39.2105 24.5593C38.313 24.0673 37.1961 23.5548 35.8199 23.0014C37.1961 22.4582 38.313 21.9457 39.2005 21.4537C40.0082 21.9252 40.6764 22.3352 41.195 22.6427C41.4243 22.7861 41.6337 22.9091 41.7933 23.0116C41.7135 23.0629 41.6337 23.1141 41.534 23.1756H41.544ZM10.7794 21.4435C11.6769 21.9355 12.7938 22.4479 14.18 23.0014C12.8038 23.5548 11.6869 24.0673 10.7894 24.5593C9.79218 24.0366 8.99439 23.5241 8.45589 23.1756C8.34619 23.1039 8.25644 23.0424 8.16669 22.9911C8.65533 22.6529 9.55284 22.0584 10.7794 21.4537V21.4435ZM10.7794 25.4407C11.6769 25.9327 12.7938 26.4451 14.18 26.9986C12.8038 27.5521 11.6869 28.0543 10.7894 28.5565C9.5329 27.9108 8.62542 27.3368 8.13678 27.0089C8.61545 26.6706 9.52292 26.0659 10.7794 25.451V25.4407Z" fill="black"/>
</svg>
