<svg width="50" height="50" viewBox="0 0 50 50" fill="none" xmlns="http://www.w3.org/2000/svg">
<path d="M24.0887 41.0287C23.5007 41.5553 22.9577 42.1154 22.4595 42.7058H22.8439C26.3276 38.7061 31.5973 36.6522 36.8303 36.6522C39.0071 36.6522 41.1462 36.2794 43.1977 35.5451V35.2416C41.1471 35.9822 38.9799 36.3688 36.8303 36.3688C31.9692 36.3689 27.444 38.0237 24.0887 41.0287Z" fill="#081219"/>
<path d="M18.8308 35.913C16.7351 37.7898 15.2056 40.0852 14.2791 42.7058H14.587C17.2405 35.3495 24.441 31.5365 31.5723 31.5365C33.9326 31.5365 36.2491 31.0992 38.4571 30.2369C40.1825 29.563 41.7712 28.6564 43.1976 27.5355V27.2041C39.8926 29.831 35.6997 31.2532 31.5723 31.2532C26.7112 31.2532 22.1861 32.9081 18.8308 35.913Z" fill="#081219"/>
<path d="M27.7866 42.7058H28.2865C31.5022 40.3914 35.4912 39.2101 39.4591 39.2101C40.7212 39.2101 41.9705 39.0839 43.1977 38.8357V38.5423C41.9631 38.7966 40.7081 38.9268 39.4591 38.9268C35.0966 38.9268 31.0053 40.2605 27.7866 42.7058Z" fill="#081219"/>
<path d="M21.4597 38.4709C20.0768 39.7092 18.9404 41.1299 18.0608 42.7058H18.3965C21.6443 37.0259 27.9491 34.0942 34.2012 34.0942C36.5616 34.0942 38.878 33.6571 41.0861 32.7947C41.815 32.5099 42.5191 32.183 43.1975 31.8167V31.5016C40.43 33.0102 37.2973 33.8109 34.2012 33.8109C29.3402 33.8109 24.815 35.4659 21.4597 38.4709Z" fill="#081219"/>
<path d="M25.4031 42.3077C25.2574 42.4381 25.1156 42.5713 24.9753 42.7058H25.4018C28.8296 39.5477 33.5018 37.9311 38.1448 37.9311C39.8606 37.9311 41.553 37.6988 43.1977 37.2413V36.9425C41.5462 37.4071 39.8401 37.6477 38.1448 37.6477C33.2835 37.6477 28.7585 39.3027 25.4031 42.3077Z" fill="#081219"/>
<path d="M17.5162 34.6341C15.0862 36.8104 13.4167 39.5492 12.5671 42.7058H12.8684C15.1139 34.5131 22.7244 30.2574 30.258 30.2574C32.6184 30.2574 34.9347 29.8201 37.1427 28.9578C39.3332 28.1024 41.3044 26.8732 43.0011 25.3046C43.0675 25.2432 43.1323 25.1804 43.1976 25.1183V24.7703C39.7363 28.1332 34.9545 29.9741 30.2579 29.9741C25.3967 29.9742 20.8715 31.6291 17.5162 34.6341Z" fill="#081219"/>
<path d="M22.7741 39.7498C21.7762 40.6435 20.9076 41.6326 20.1702 42.7058H20.5244C23.9412 37.8651 29.7511 35.3732 35.5157 35.3732C37.8762 35.3732 40.1925 34.9359 42.4005 34.0736C42.6695 33.9685 42.9352 33.8576 43.1976 33.7414V33.4325C40.7722 34.5188 38.1308 35.0899 35.5156 35.0899C30.6546 35.09 26.1295 36.7449 22.7741 39.7498Z" fill="#081219"/>
<path d="M20.1452 37.1919C18.3977 38.7569 17.0441 40.613 16.1051 42.7058H16.4243C19.4142 36.187 26.1811 32.8153 32.8868 32.8153C35.2471 32.8153 37.5636 32.3781 39.7716 31.5157C40.984 31.0422 42.1288 30.4538 43.1976 29.7572V29.4352C40.1317 31.4519 36.4843 32.532 32.8868 32.532C28.0256 32.532 23.5005 34.187 20.1452 37.1919Z" fill="#081219"/>
<path d="M27.6289 27.4163C22.7678 27.4163 18.2426 29.0712 14.8874 32.0762C11.8223 34.8212 9.96679 38.4608 9.44141 42.7059H9.73382C10.9711 32.8424 19.347 27.6996 27.6289 27.6996C29.9893 27.6996 32.3057 27.2624 34.5138 26.4C36.7043 25.5446 38.6753 24.3154 40.3723 22.7469C41.4669 21.735 42.4114 20.6084 43.1977 19.3919V18.933C39.8699 24.3614 33.6791 27.4163 27.6289 27.4163Z" fill="#081219"/>
<path d="M26.3145 26.1372C21.4533 26.1372 16.9282 27.7921 13.5729 30.7972C10.2043 33.8141 8.29676 37.9116 8.0105 42.7058H8.30219C8.9481 32.0087 17.6817 26.4206 26.3145 26.4206C28.6748 26.4206 30.9912 25.9834 33.1993 25.121C35.3898 24.2656 37.3609 23.0364 39.0577 21.4679C40.8545 19.8069 42.2492 17.8385 43.1976 15.6669V15.0012C40.4515 22.0774 33.2894 26.1372 26.3145 26.1372Z" fill="#081219"/>
<path d="M31.0383 42.7058H31.6676C34.4502 41.2364 37.6186 40.489 40.7737 40.489C41.5879 40.489 42.3966 40.4357 43.1978 40.3322V40.0432C42.392 40.1505 41.5817 40.2057 40.7737 40.2057C37.245 40.2057 33.894 41.0784 31.0383 42.7058Z" fill="#081219"/>
<path d="M35.1049 42.7058H36.0369C37.987 42.0835 40.0402 41.7679 42.088 41.7679C42.4591 41.7679 42.8288 41.7559 43.1975 41.7342V41.4495C42.8276 41.4722 42.4575 41.4846 42.088 41.4846C39.6395 41.4847 37.2764 41.9051 35.1049 42.7058Z" fill="#081219"/>
<path d="M6.80237 7.29419V42.7058H6.94791C6.94791 31.1749 16.0293 25.1416 25 25.1416C27.3604 25.1416 29.6768 24.7043 31.8848 23.842C34.0754 22.9867 36.0464 21.7575 37.7433 20.1889C40.7878 17.3744 42.6791 13.6778 43.1977 9.60427V7.29419H6.80237Z" fill="#081219"/>
<path d="M28.9434 28.6952C24.0823 28.6952 19.5571 30.3501 16.2018 33.355C13.449 35.8204 11.6713 39.007 10.9569 42.7059H11.2543C13.0263 33.6776 21.0273 28.9785 28.9433 28.9785C31.3037 28.9785 33.6201 28.5412 35.8281 27.6789C38.0187 26.8235 39.9897 25.5944 41.6866 24.0257C42.2272 23.5259 42.7308 22.9978 43.1975 22.4451V22.06C39.7024 26.3283 34.2684 28.6952 28.9434 28.6952Z" fill="#081219"/>
</svg>
