<svg width="50" height="50" viewBox="0 0 50 50" fill="none" xmlns="http://www.w3.org/2000/svg">
<path d="M34.6731 24.1623C36.149 23.0753 37.4454 22.0283 38.5125 21.051C40.5468 19.1862 42.8105 16.6632 41.9629 15.2072C40.7263 13.0731 34.2743 15.4765 31.492 16.6332C30.764 16.6332 30.4948 16.3042 30.046 15.7756L29.4875 15.1274L29.6072 15.985C29.7069 16.6532 29.7568 17.0621 29.328 17.5806C28.1413 18.1291 26.8648 18.7673 25.5285 19.4753C22.2477 18.1391 19.1263 17.2116 16.5136 16.8028C12.9535 16.2443 10.7197 16.6731 10.0815 18.0493C9.44323 19.4255 10.5402 21.41 13.2626 23.7834C13.9308 24.3618 14.7186 24.9801 15.6161 25.6183C14.0205 26.785 12.6344 27.9019 11.4776 28.949C9.43326 30.8139 7.17952 33.3368 8.02716 34.7928C8.35625 35.3612 9.07425 35.6404 10.1812 35.6404C11.2881 35.6404 12.8936 35.3313 14.8183 34.723C15.5662 34.4837 16.374 34.1945 17.2815 33.8454C17.8499 33.9352 18.0892 34.2643 18.4781 34.7629L19.0067 35.431L18.9269 34.5734C18.8671 33.9551 18.8272 33.5363 19.2261 33.0676C20.8515 32.3596 22.5867 31.5319 24.3817 30.5745C29.6371 32.9479 34.7928 34.374 38.1934 34.374C40.1978 34.374 41.5042 33.8654 41.943 32.908C42.8504 30.9634 40.0682 27.6327 34.6731 24.1723V24.1623ZM25.1795 30.1457C25.9474 29.7269 26.6355 29.3479 27.2837 28.969C29.697 27.5729 31.9806 26.1069 34.0549 24.6111C39.1308 27.8122 42.0327 31.0133 41.2948 32.5989C40.2875 34.7629 33.1075 33.646 25.1695 30.1457H25.1795ZM19.0166 32.3695C18.3585 32.3097 18.1092 31.9806 17.7003 31.4421L17.1718 30.764L17.2515 31.6216C17.3114 32.2997 17.3513 32.7186 16.8626 33.2371C16.005 33.5662 15.2671 33.8255 14.6089 34.0349C10.7596 35.2515 9.00445 35.0321 8.65542 34.4238C8.30639 33.8155 8.9845 32.19 11.9762 29.4576C13.1529 28.3806 14.5889 27.2338 16.2443 26.0271C18.3884 27.4931 20.9114 28.9191 23.564 30.1756C21.9884 30.9934 20.4626 31.7213 19.0166 32.3496V32.3695ZM13.851 17.2814C14.6089 17.2814 15.4665 17.3612 16.4039 17.5008C18.8172 17.8798 21.6792 18.7075 24.7108 19.9042C23.9629 20.303 23.3147 20.672 22.6964 21.0211C20.4028 22.3474 18.2189 23.7435 16.2244 25.1695C15.2671 24.5014 14.4294 23.8432 13.7213 23.2349C11.3679 21.1906 10.251 19.3557 10.7197 18.3485C11.0388 17.6604 12.1457 17.2814 13.841 17.2814H13.851ZM24.0726 29.6471C21.4598 28.4305 18.9767 27.0343 16.8526 25.6083C18.7773 24.2521 20.8615 22.9158 23.0554 21.6493C23.8831 21.1706 24.7308 20.7019 25.5684 20.2532C26.446 20.6122 27.2338 20.9612 27.9618 21.3003C29.8864 22.1978 31.7114 23.1751 33.4067 24.2022C31.4022 25.6283 29.2283 27.0244 26.9346 28.3507C26.1468 28.8094 25.2992 29.2781 24.3618 29.7767L24.0726 29.6471ZM29.7468 18.1889C30.3252 18.2488 30.5845 18.5579 30.9934 19.0366L31.5518 19.6748L31.4321 18.8172C31.3524 18.2288 31.2925 17.8299 31.6017 17.3712C35.1718 15.8753 38.0936 15.0576 39.8488 15.0576C40.6466 15.0576 41.1651 15.2271 41.3446 15.5562C41.7036 16.1645 41.0155 17.79 38.0238 20.5224C36.9169 21.5296 35.5707 22.6166 34.0249 23.7535C32.2399 22.6465 30.3053 21.6094 28.261 20.6521C27.6826 20.3828 27.0743 20.1136 26.3862 19.8244C27.523 19.236 28.6499 18.6875 29.7468 18.1889Z" fill="black"/>
</svg>
