<svg width="50" height="50" viewBox="0 0 50 50" fill="none" xmlns="http://www.w3.org/2000/svg">
<path d="M42.2086 24.641L26.9577 24.621L41.0505 18.9567C41.2452 18.877 41.3374 18.6576 41.2657 18.4581C41.1837 18.2687 40.9582 18.1689 40.7532 18.2487L26.6604 23.913L37.453 13.4321C37.6067 13.2825 37.6067 13.0432 37.453 12.8936C37.2992 12.744 37.0532 12.744 36.8995 12.8936L26.107 23.3745L31.9593 9.67254C32.0413 9.48307 31.9491 9.2537 31.7441 9.17392C31.5493 9.09415 31.3136 9.1839 31.2316 9.38334L25.3793 23.0853L25.3998 8.2465C25.3998 8.03708 25.2255 7.86755 25.0103 7.86755C24.7951 7.86755 24.6208 8.03708 24.6208 8.2465L24.6003 23.0853L18.789 9.37337C18.707 9.1839 18.4815 9.09415 18.2765 9.16395C18.1842 9.20384 18.1023 9.27365 18.0613 9.37337C18.0203 9.46312 18.0203 9.57282 18.0613 9.66257L23.8829 23.3745L13.1211 12.8736C13.0493 12.8038 12.9469 12.764 12.8444 12.764C12.7419 12.764 12.6394 12.8038 12.5676 12.8736C12.4959 12.9435 12.4549 13.0432 12.4549 13.1429C12.4549 13.2426 12.4959 13.3423 12.5676 13.4122L23.3397 23.913L9.2571 18.2188C9.16486 18.1789 9.05212 18.1789 8.95987 18.2188C8.86763 18.2587 8.78563 18.3285 8.74464 18.4282C8.66264 18.6177 8.75489 18.8471 8.95987 18.9268L23.0424 24.621L7.79145 24.6011C7.57622 24.6011 7.40198 24.7706 7.40198 24.98C7.40198 25.1894 7.57622 25.359 7.79145 25.359L23.0424 25.3789L8.94962 31.0432C8.75489 31.123 8.65239 31.3423 8.73439 31.5418C8.79588 31.6814 8.93937 31.7811 9.09311 31.7811L23.3397 26.0869L12.5471 36.5678C12.4754 36.6376 12.4344 36.7374 12.4344 36.8371C12.4344 36.9368 12.4754 37.0365 12.5471 37.1063C12.6906 37.2459 12.9469 37.2559 13.1006 37.1063L23.8931 26.6254L18.0408 40.3274C17.9588 40.5169 18.051 40.7462 18.2457 40.826L18.3995 40.8559C18.5532 40.8559 18.6967 40.7662 18.7582 40.6166L24.6106 26.9146L24.5901 41.7534C24.5901 41.9628 24.7643 42.1324 24.9795 42.1324C25.1948 42.1324 25.369 41.9628 25.369 41.7534L25.3895 26.9146L31.2111 40.6266C31.2726 40.7662 31.4161 40.8659 31.5698 40.8659L31.7133 40.836C31.8056 40.7961 31.8876 40.7263 31.9286 40.6266C31.9696 40.5368 31.9696 40.4271 31.9286 40.3374L26.107 26.6254L36.8687 37.1263C37.0122 37.2759 37.2787 37.2759 37.4222 37.1263C37.4939 37.0565 37.5349 36.9567 37.5349 36.857C37.5349 36.7573 37.4939 36.6576 37.4222 36.5878L26.6502 26.0869L40.7327 31.7811L40.8762 31.811C41.03 31.811 41.1734 31.7213 41.2349 31.5717C41.3169 31.3822 41.2247 31.1628 41.0197 31.0731L26.9372 25.3789L42.1881 25.3989C42.4034 25.3989 42.5776 25.2293 42.5776 25.0199C42.5776 24.8105 42.4034 24.641 42.1881 24.641H42.2086Z" fill="black"/>
</svg>
