<svg width="50" height="50" viewBox="0 0 50 50" fill="none" xmlns="http://www.w3.org/2000/svg">
<path d="M24.9999 43.0364C24.8178 43.0364 24.6691 42.8883 24.6691 42.7061C24.6691 39.4631 24.6691 30.8493 23.7813 30.6732C23.3029 30.5561 22.0743 32.9272 20.1199 37.6465C20.0519 37.8127 19.8582 37.8948 19.6915 37.8277C19.5634 37.7746 19.4834 37.6546 19.4834 37.5205L19.5109 37.3873C21.9441 31.512 22.1263 30.0576 21.85 29.8734C21.0899 29.358 15.0069 35.4615 12.7143 37.7536L12.6393 37.8287L12.4801 37.8507C12.3916 37.8507 12.3049 37.8146 12.2433 37.7506L12.1713 37.6765L12.1493 37.5204C12.1493 37.4292 12.1848 37.3452 12.2494 37.2832C14.539 34.9931 20.6301 28.9016 20.127 28.1499C19.9444 27.8767 18.488 28.0558 12.6072 30.4921L12.5096 30.5322L12.2569 30.4521L12.1548 30.2669L12.1493 30.1858C12.1493 30.0527 12.2288 29.9326 12.352 29.8805C18.2348 27.4443 19.3919 26.5445 19.3274 26.2192C19.1507 25.3314 10.5368 25.3314 7.29447 25.3314C7.11234 25.3314 6.96362 25.1833 6.96362 25.0001C6.96362 24.818 7.11224 24.6693 7.29447 24.6693C10.5369 24.6693 19.1508 24.6693 19.3274 23.7815C19.3919 23.4556 18.2349 22.5559 12.3535 20.1201C12.2289 20.0675 12.1494 19.9479 12.1494 19.8144L12.1709 19.6972C12.244 19.5196 12.4391 19.4394 12.6058 19.508C17.2785 21.4433 20.586 22.5307 21.5609 21.5608C22.5327 20.5885 21.4433 17.2785 19.5086 12.6073L19.4836 12.4802C19.4836 12.3456 19.5636 12.226 19.6877 12.1744C19.8589 12.1039 20.0516 12.1854 20.1207 12.3551C22.0749 17.0734 23.3121 19.417 23.782 19.3274C24.6693 19.1507 24.6693 10.5369 24.6693 7.29453C24.6693 7.1124 24.8179 6.96368 25.0002 6.96368C25.1833 6.96368 25.3314 7.1123 25.3314 7.29453C25.3314 10.537 25.3314 19.1508 26.2192 19.3274C26.5305 19.385 27.4443 18.2334 29.8795 12.3536C29.9496 12.1859 30.1387 12.1029 30.312 12.1739C30.4371 12.226 30.5171 12.3456 30.5171 12.4802L30.4911 12.6088C28.0559 18.4881 27.8737 19.9425 28.15 20.1271C28.9267 20.6401 34.9942 14.538 37.2863 12.2464C37.4154 12.1162 37.6266 12.1183 37.7538 12.2464L37.8288 12.3214L37.8508 12.4806C37.8508 12.5707 37.8148 12.6547 37.7507 12.7173C35.4616 15.0074 29.3711 21.0984 29.8736 21.8506C30.0578 22.1273 31.5141 21.9437 37.3934 19.5084C37.5616 19.4379 37.7567 19.5194 37.8258 19.6876L37.8508 19.8142C37.8508 19.9487 37.7708 20.0683 37.6467 20.1199C31.7653 22.5556 30.6083 23.4554 30.6733 23.7813C30.8495 24.6691 39.4634 24.6691 42.7062 24.6691C42.8884 24.6691 43.0366 24.8177 43.0366 24.9999C43.0366 25.1831 42.8885 25.3312 42.7062 25.3312C39.4633 25.3312 30.8494 25.3312 30.6733 26.219C30.6083 26.5443 31.7653 27.4441 37.6467 29.8793C37.7708 29.9314 37.8508 30.0515 37.8508 30.1855L37.8348 30.2886C37.7558 30.4818 37.5556 30.5598 37.3925 30.4909C31.5172 28.0577 30.0579 27.8715 29.8737 28.1497C29.3713 28.9014 35.4617 34.993 37.7539 37.2861L37.8289 37.3611L37.8509 37.5203C37.8509 37.6114 37.8129 37.6984 37.7478 37.7595L37.6737 37.8286L37.5196 37.8506C37.4315 37.8506 37.3454 37.8145 37.2833 37.7505C34.9922 35.4593 28.8717 29.3618 28.151 29.8733C27.8737 30.0575 28.0559 31.5128 30.4921 37.3932L30.5171 37.5203C30.5171 37.6544 30.4371 37.7744 30.313 37.8265C30.1388 37.8926 29.9507 37.8125 29.8806 37.6473C27.9238 32.922 26.6766 30.5699 26.2202 30.673C25.3314 30.8492 25.3314 39.463 25.3314 42.7059C25.3312 42.8882 25.1831 43.0364 24.9999 43.0364ZM12.3529 37.3903C12.3519 37.3913 12.3505 37.3933 12.3489 37.3943C12.3505 37.3922 12.3515 37.3912 12.3529 37.3903ZM23.7773 30.1607C23.8118 30.1607 23.8464 30.1637 23.8804 30.1708C24.4675 30.2869 24.8142 31.3499 24.9999 34.1224C25.1861 31.3499 25.5324 30.2869 26.119 30.1708C26.5904 30.0717 27.1469 30.6242 27.9607 32.1465C27.4592 30.497 27.4602 29.7184 27.8655 29.4471C28.356 29.1178 29.3559 29.6193 31.4498 31.4489C29.6212 29.358 29.1158 28.3621 29.447 27.8656C29.7173 27.4613 30.497 27.4592 32.1465 27.9607C30.6261 27.148 30.0756 26.5975 30.1707 26.119C30.2868 25.5325 31.3498 25.1861 34.1223 25C31.3498 24.8143 30.2868 24.4681 30.1707 23.8815C30.0756 23.4031 30.6261 22.8521 32.1465 22.0398C30.497 22.5417 29.7173 22.5413 29.447 22.1349C29.1158 21.6379 29.6212 20.6421 31.4498 18.5506C29.3599 20.3778 28.362 20.8862 27.8655 20.5534C27.4602 20.2822 27.4602 19.5025 27.9607 17.853C27.147 19.3758 26.5995 19.9243 26.119 19.8297C25.5324 19.7131 25.1861 18.6507 24.9999 15.8786C24.8142 18.6507 24.468 19.7131 23.8814 19.8297C23.369 19.9289 22.7985 19.3188 21.9217 17.6287C22.5562 19.7751 22.6328 21.213 21.9232 21.9231C21.2136 22.6331 19.7758 22.5567 17.6323 21.9231C19.3209 22.7994 19.9294 23.3804 19.8298 23.8813C19.7131 24.4679 18.6507 24.8142 15.8787 24.9998C18.6507 25.1859 19.7131 25.5323 19.8298 26.1188C19.9249 26.5973 19.3739 27.1477 17.8535 27.9605C19.5041 27.459 20.2827 27.4611 20.5535 27.8654C20.8858 28.3619 20.3788 29.3587 18.5486 31.4516C20.6405 29.623 21.6354 29.1165 22.1349 29.4468C22.5402 29.718 22.5402 30.4977 22.0392 32.1473C22.7935 30.7362 23.3224 30.1607 23.7773 30.1607Z" fill="#081219"/>
</svg>
